M48
;DRILL file {KiCad (5.0.0-rc2-101-g68f6e3ad4)} date Thu Jul 19 03:23:08 2018
;FORMAT={-:-/ absolute / metric / decimal}
FMAT,2
METRIC,TZ
T1C0.400
T2C0.600
T3C0.650
T4C0.800
T5C0.813
T6C0.850
T7C1.000
T8C1.600
T9C3.200
%
G90
G05
M71
T1
X142.875Y-67.31
X144.78Y-69.76
X147.32Y-59.69
X149.225Y-69.76
X149.225Y-73.66
X150.495Y-83.82
X154.94Y-86.995
X155.575Y-80.645
X158.115Y-60.325
X158.115Y-80.645
X159.385Y-82.55
X159.385Y-85.09
X160.655Y-85.09
X161.29Y-90.17
X161.925Y-70.485
X161.925Y-85.09
X166.37Y-87.63
X167.095Y-88.337
X168.91Y-88.9
X171.45Y-88.265
T3
X144.78Y-67.92
X146.05Y-67.92
X147.32Y-67.92
T4
X172.085Y-92.91
X172.085Y-97.79
T5
X133.847Y-62.865
X133.847Y-70.485
X138.927Y-62.865
X138.927Y-70.485
T6
X174.815Y-83.86
X174.815Y-88.86
T7
X152.4Y-29.21
X154.94Y-29.21
X157.48Y-29.21
X160.02Y-29.21
X154.94Y-38.1
X154.94Y-40.64
X154.94Y-43.18
X144.78Y-38.1
X144.78Y-40.64
X144.78Y-43.18
X133.985Y-76.2
X136.525Y-76.2
X139.065Y-76.2
X165.1Y-38.1
X165.1Y-40.64
X165.1Y-43.18
T8
X142.24Y-93.98
X142.24Y-99.98
X146.94Y-96.98
T9
X132.08Y-29.21
X175.26Y-104.14
X175.26Y-29.21
X132.08Y-104.14
T2
X177.165Y-82.86G85X177.865Y-82.86
G05
X177.865Y-89.86G85X177.165Y-89.86
G05
T0
M30
