M48
;DRILL file {KiCad 5.0.1} date Fr 23 Nov 2018 02:43:01 CET
;FORMAT={-:-/ absolute / metric / decimal}
FMAT,2
METRIC,TZ
T1C0.400
T2C0.600
T3C0.800
T4C0.850
T5C1.000
T6C1.520
T7C1.600
T8C3.200
%
G90
G05
M71
T1
X138.684Y-67.564
X138.684Y-74.676
X138.684Y-77.216
X144.272Y-74.168
X147.066Y-71.628
X147.066Y-72.898
X147.066Y-74.168
X147.066Y-78.232
X147.066Y-79.502
X147.32Y-62.484
X148.336Y-54.864
X148.336Y-71.628
X148.336Y-72.898
X148.336Y-74.168
X148.336Y-78.232
X148.336Y-79.502
X148.844Y-53.848
X148.844Y-55.88
X149.352Y-54.864
X149.606Y-71.628
X149.606Y-72.898
X149.606Y-74.168
X149.606Y-78.232
X149.606Y-79.502
X149.86Y-53.848
X149.86Y-55.88
X156.464Y-90.424
X156.464Y-94.996
X157.48Y-54.864
X157.988Y-53.848
X157.988Y-55.88
X158.496Y-54.864
X159.004Y-53.848
X159.004Y-55.88
X159.915Y-98.425
X160.02Y-87.63
X161.29Y-86.995
X162.56Y-95.25
X162.56Y-97.155
X165.735Y-94.615
X166.624Y-54.864
X167.132Y-53.848
X167.132Y-55.88
X167.64Y-54.864
X168.148Y-53.848
X168.148Y-55.88
T3
X172.72Y-86.36
X172.72Y-91.24
T4
X158.79Y-103.345
X163.79Y-103.345
T5
X133.096Y-69.596
X133.096Y-72.136
X133.096Y-74.676
X133.096Y-77.216
X150.368Y-40.132
X152.908Y-40.132
X155.448Y-40.132
X157.988Y-40.132
X148.844Y-81.788
X148.844Y-84.328
X148.844Y-86.868
T6
X146.304Y-32.512
X151.384Y-32.512
X156.464Y-32.512
X161.544Y-32.512
T7
X142.24Y-93.98
X142.24Y-99.98
X146.94Y-96.98
T8
X175.26Y-29.21
X175.26Y-104.14
X132.08Y-29.21
X132.08Y-104.14
T2
X157.79Y-106.395G85X157.79Y-105.695
G05
X164.79Y-105.695G85X164.79Y-106.395
G05
T0
M30
