%TF.GenerationSoftware,KiCad,Pcbnew,5.0.1*%
%TF.CreationDate,2018-11-26T07:17:36+01:00*%
%TF.ProjectId,leddings,6C656464696E67732E6B696361645F70,rev?*%
%TF.SameCoordinates,Original*%
%TF.FileFunction,Soldermask,Bot*%
%TF.FilePolarity,Negative*%
%FSLAX46Y46*%
G04 Gerber Fmt 4.6, Leading zero omitted, Abs format (unit mm)*
G04 Created by KiCad (PCBNEW 5.0.1) date Mo 26 Nov 2018 07:17:36 CET*
%MOMM*%
%LPD*%
G01*
G04 APERTURE LIST*
%ADD10C,0.150000*%
G04 APERTURE END LIST*
D10*
G36*
X164907620Y-105103682D02*
X165020720Y-105137990D01*
X165124954Y-105193704D01*
X165216317Y-105268683D01*
X165291296Y-105360045D01*
X165347010Y-105464279D01*
X165381318Y-105577379D01*
X165390000Y-105665526D01*
X165390000Y-106424474D01*
X165381318Y-106512621D01*
X165347010Y-106625721D01*
X165291296Y-106729955D01*
X165216317Y-106821317D01*
X165124955Y-106896296D01*
X165020721Y-106952010D01*
X164907621Y-106986318D01*
X164790000Y-106997903D01*
X164672380Y-106986318D01*
X164559280Y-106952010D01*
X164455046Y-106896296D01*
X164363684Y-106821317D01*
X164288705Y-106729955D01*
X164232990Y-106625721D01*
X164198682Y-106512621D01*
X164190000Y-106424474D01*
X164190000Y-105665527D01*
X164198682Y-105577380D01*
X164232990Y-105464280D01*
X164288704Y-105360046D01*
X164363683Y-105268683D01*
X164455045Y-105193704D01*
X164559279Y-105137990D01*
X164672379Y-105103682D01*
X164790000Y-105092097D01*
X164907620Y-105103682D01*
X164907620Y-105103682D01*
G37*
G36*
X157907621Y-105103682D02*
X158020721Y-105137990D01*
X158124955Y-105193704D01*
X158216317Y-105268683D01*
X158291296Y-105360045D01*
X158347010Y-105464279D01*
X158381318Y-105577379D01*
X158390000Y-105665526D01*
X158390000Y-106424474D01*
X158381318Y-106512621D01*
X158347010Y-106625721D01*
X158291296Y-106729955D01*
X158216317Y-106821317D01*
X158124954Y-106896296D01*
X158020720Y-106952010D01*
X157907620Y-106986318D01*
X157790000Y-106997903D01*
X157672379Y-106986318D01*
X157559279Y-106952010D01*
X157455045Y-106896296D01*
X157363683Y-106821317D01*
X157288704Y-106729954D01*
X157232990Y-106625720D01*
X157198682Y-106512620D01*
X157190000Y-106424473D01*
X157190000Y-105665526D01*
X157198682Y-105577379D01*
X157232990Y-105464279D01*
X157288705Y-105360045D01*
X157363684Y-105268683D01*
X157455046Y-105193704D01*
X157559280Y-105137990D01*
X157672380Y-105103682D01*
X157790000Y-105092097D01*
X157907621Y-105103682D01*
X157907621Y-105103682D01*
G37*
G36*
X175806253Y-101393801D02*
X176076730Y-101447602D01*
X176287799Y-101535030D01*
X176586296Y-101658671D01*
X177044899Y-101965100D01*
X177434900Y-102355101D01*
X177741329Y-102813704D01*
X177819151Y-103001583D01*
X177952398Y-103323270D01*
X178060000Y-103864224D01*
X178060000Y-104415776D01*
X177952398Y-104956730D01*
X177891528Y-105103682D01*
X177741329Y-105466296D01*
X177434900Y-105924899D01*
X177044899Y-106314900D01*
X176586296Y-106621329D01*
X176287799Y-106744970D01*
X176076730Y-106832398D01*
X175806253Y-106886199D01*
X175535777Y-106940000D01*
X174984223Y-106940000D01*
X174713747Y-106886199D01*
X174443270Y-106832398D01*
X174232201Y-106744970D01*
X173933704Y-106621329D01*
X173475101Y-106314900D01*
X173085100Y-105924899D01*
X172778671Y-105466296D01*
X172628472Y-105103682D01*
X172567602Y-104956730D01*
X172460000Y-104415776D01*
X172460000Y-103864224D01*
X172567602Y-103323270D01*
X172700849Y-103001583D01*
X172778671Y-102813704D01*
X173085100Y-102355101D01*
X173475101Y-101965100D01*
X173933704Y-101658671D01*
X174232201Y-101535030D01*
X174443270Y-101447602D01*
X174713747Y-101393801D01*
X174984223Y-101340000D01*
X175535777Y-101340000D01*
X175806253Y-101393801D01*
X175806253Y-101393801D01*
G37*
G36*
X132626253Y-101393801D02*
X132896730Y-101447602D01*
X133107799Y-101535030D01*
X133406296Y-101658671D01*
X133864899Y-101965100D01*
X134254900Y-102355101D01*
X134561329Y-102813704D01*
X134639151Y-103001583D01*
X134772398Y-103323270D01*
X134880000Y-103864224D01*
X134880000Y-104415776D01*
X134772398Y-104956730D01*
X134711528Y-105103682D01*
X134561329Y-105466296D01*
X134254900Y-105924899D01*
X133864899Y-106314900D01*
X133406296Y-106621329D01*
X133107799Y-106744970D01*
X132896730Y-106832398D01*
X132626253Y-106886199D01*
X132355777Y-106940000D01*
X131804223Y-106940000D01*
X131533747Y-106886199D01*
X131263270Y-106832398D01*
X131052201Y-106744970D01*
X130753704Y-106621329D01*
X130295101Y-106314900D01*
X129905100Y-105924899D01*
X129598671Y-105466296D01*
X129448472Y-105103682D01*
X129387602Y-104956730D01*
X129280000Y-104415776D01*
X129280000Y-103864224D01*
X129387602Y-103323270D01*
X129520849Y-103001583D01*
X129598671Y-102813704D01*
X129905100Y-102355101D01*
X130295101Y-101965100D01*
X130753704Y-101658671D01*
X131052201Y-101535030D01*
X131263270Y-101447602D01*
X131533747Y-101393801D01*
X131804223Y-101340000D01*
X132355777Y-101340000D01*
X132626253Y-101393801D01*
X132626253Y-101393801D01*
G37*
G36*
X163917434Y-102631144D02*
X164001475Y-102647861D01*
X164133416Y-102702513D01*
X164133417Y-102702514D01*
X164252164Y-102781858D01*
X164353142Y-102882836D01*
X164353144Y-102882839D01*
X164432487Y-103001584D01*
X164487139Y-103133525D01*
X164515000Y-103273594D01*
X164515000Y-103416406D01*
X164487139Y-103556475D01*
X164432487Y-103688416D01*
X164432486Y-103688417D01*
X164353142Y-103807164D01*
X164252164Y-103908142D01*
X164252161Y-103908144D01*
X164133416Y-103987487D01*
X164001475Y-104042139D01*
X163917434Y-104058856D01*
X163861408Y-104070000D01*
X163718592Y-104070000D01*
X163662566Y-104058856D01*
X163578525Y-104042139D01*
X163446584Y-103987487D01*
X163327839Y-103908144D01*
X163327836Y-103908142D01*
X163226858Y-103807164D01*
X163147514Y-103688417D01*
X163147513Y-103688416D01*
X163092861Y-103556475D01*
X163065000Y-103416406D01*
X163065000Y-103273594D01*
X163092861Y-103133525D01*
X163147513Y-103001584D01*
X163226856Y-102882839D01*
X163226858Y-102882836D01*
X163327836Y-102781858D01*
X163446583Y-102702514D01*
X163446584Y-102702513D01*
X163578525Y-102647861D01*
X163662566Y-102631144D01*
X163718592Y-102620000D01*
X163861408Y-102620000D01*
X163917434Y-102631144D01*
X163917434Y-102631144D01*
G37*
G36*
X158917434Y-102631144D02*
X159001475Y-102647861D01*
X159133416Y-102702513D01*
X159133417Y-102702514D01*
X159252164Y-102781858D01*
X159353142Y-102882836D01*
X159353144Y-102882839D01*
X159432487Y-103001584D01*
X159487139Y-103133525D01*
X159515000Y-103273594D01*
X159515000Y-103416406D01*
X159487139Y-103556475D01*
X159432487Y-103688416D01*
X159432486Y-103688417D01*
X159353142Y-103807164D01*
X159252164Y-103908142D01*
X159252161Y-103908144D01*
X159133416Y-103987487D01*
X159001475Y-104042139D01*
X158917434Y-104058856D01*
X158861408Y-104070000D01*
X158718592Y-104070000D01*
X158662566Y-104058856D01*
X158578525Y-104042139D01*
X158446584Y-103987487D01*
X158327839Y-103908144D01*
X158327836Y-103908142D01*
X158226858Y-103807164D01*
X158147514Y-103688417D01*
X158147513Y-103688416D01*
X158092861Y-103556475D01*
X158065000Y-103416406D01*
X158065000Y-103273594D01*
X158092861Y-103133525D01*
X158147513Y-103001584D01*
X158226856Y-102882839D01*
X158226858Y-102882836D01*
X158327836Y-102781858D01*
X158446583Y-102702514D01*
X158446584Y-102702513D01*
X158578525Y-102647861D01*
X158662566Y-102631144D01*
X158718592Y-102620000D01*
X158861408Y-102620000D01*
X158917434Y-102631144D01*
X158917434Y-102631144D01*
G37*
G36*
X142619196Y-98729958D02*
X142855780Y-98827954D01*
X143068705Y-98970226D01*
X143249774Y-99151295D01*
X143392046Y-99364220D01*
X143490042Y-99600804D01*
X143540000Y-99851960D01*
X143540000Y-100108040D01*
X143490042Y-100359196D01*
X143392046Y-100595780D01*
X143249774Y-100808705D01*
X143068705Y-100989774D01*
X142855780Y-101132046D01*
X142619196Y-101230042D01*
X142368040Y-101280000D01*
X142111960Y-101280000D01*
X141860804Y-101230042D01*
X141624220Y-101132046D01*
X141411295Y-100989774D01*
X141230226Y-100808705D01*
X141087954Y-100595780D01*
X140989958Y-100359196D01*
X140940000Y-100108040D01*
X140940000Y-99851960D01*
X140989958Y-99600804D01*
X141087954Y-99364220D01*
X141230226Y-99151295D01*
X141411295Y-98970226D01*
X141624220Y-98827954D01*
X141860804Y-98729958D01*
X142111960Y-98680000D01*
X142368040Y-98680000D01*
X142619196Y-98729958D01*
X142619196Y-98729958D01*
G37*
G36*
X147319196Y-95729958D02*
X147555780Y-95827954D01*
X147768705Y-95970226D01*
X147949774Y-96151295D01*
X148092046Y-96364220D01*
X148190042Y-96600804D01*
X148240000Y-96851960D01*
X148240000Y-97108040D01*
X148190042Y-97359196D01*
X148092046Y-97595780D01*
X147949774Y-97808705D01*
X147768705Y-97989774D01*
X147555780Y-98132046D01*
X147319196Y-98230042D01*
X147068040Y-98280000D01*
X146811960Y-98280000D01*
X146560804Y-98230042D01*
X146324220Y-98132046D01*
X146111295Y-97989774D01*
X145930226Y-97808705D01*
X145787954Y-97595780D01*
X145689958Y-97359196D01*
X145640000Y-97108040D01*
X145640000Y-96851960D01*
X145689958Y-96600804D01*
X145787954Y-96364220D01*
X145930226Y-96151295D01*
X146111295Y-95970226D01*
X146324220Y-95827954D01*
X146560804Y-95729958D01*
X146811960Y-95680000D01*
X147068040Y-95680000D01*
X147319196Y-95729958D01*
X147319196Y-95729958D01*
G37*
G36*
X143540000Y-95280000D02*
X140940000Y-95280000D01*
X140940000Y-92680000D01*
X143540000Y-92680000D01*
X143540000Y-95280000D01*
X143540000Y-95280000D01*
G37*
G36*
X172866318Y-90504411D02*
X172938767Y-90518822D01*
X172995303Y-90542240D01*
X173075257Y-90575358D01*
X173198100Y-90657439D01*
X173302561Y-90761900D01*
X173384642Y-90884743D01*
X173441178Y-91021234D01*
X173470000Y-91166130D01*
X173470000Y-91313870D01*
X173441178Y-91458766D01*
X173384642Y-91595257D01*
X173302561Y-91718100D01*
X173198100Y-91822561D01*
X173075257Y-91904642D01*
X172995303Y-91937760D01*
X172938767Y-91961178D01*
X172866318Y-91975589D01*
X172793870Y-91990000D01*
X172646130Y-91990000D01*
X172573682Y-91975589D01*
X172501233Y-91961178D01*
X172444697Y-91937760D01*
X172364743Y-91904642D01*
X172241900Y-91822561D01*
X172137439Y-91718100D01*
X172055358Y-91595257D01*
X171998822Y-91458766D01*
X171970000Y-91313870D01*
X171970000Y-91166130D01*
X171998822Y-91021234D01*
X172055358Y-90884743D01*
X172137439Y-90761900D01*
X172241900Y-90657439D01*
X172364743Y-90575358D01*
X172444697Y-90542240D01*
X172501233Y-90518822D01*
X172573682Y-90504411D01*
X172646130Y-90490000D01*
X172793870Y-90490000D01*
X172866318Y-90504411D01*
X172866318Y-90504411D01*
G37*
G36*
X149010630Y-86030299D02*
X149170855Y-86078903D01*
X149318520Y-86157831D01*
X149447949Y-86264051D01*
X149554169Y-86393480D01*
X149633097Y-86541145D01*
X149681701Y-86701370D01*
X149698112Y-86868000D01*
X149681701Y-87034630D01*
X149633097Y-87194855D01*
X149554169Y-87342520D01*
X149447949Y-87471949D01*
X149318520Y-87578169D01*
X149170855Y-87657097D01*
X149010630Y-87705701D01*
X148885752Y-87718000D01*
X148802248Y-87718000D01*
X148677370Y-87705701D01*
X148517145Y-87657097D01*
X148369480Y-87578169D01*
X148240051Y-87471949D01*
X148133831Y-87342520D01*
X148054903Y-87194855D01*
X148006299Y-87034630D01*
X147989888Y-86868000D01*
X148006299Y-86701370D01*
X148054903Y-86541145D01*
X148133831Y-86393480D01*
X148240051Y-86264051D01*
X148369480Y-86157831D01*
X148517145Y-86078903D01*
X148677370Y-86030299D01*
X148802248Y-86018000D01*
X148885752Y-86018000D01*
X149010630Y-86030299D01*
X149010630Y-86030299D01*
G37*
G36*
X172866318Y-85624411D02*
X172938767Y-85638822D01*
X172995303Y-85662240D01*
X173075257Y-85695358D01*
X173198100Y-85777439D01*
X173302561Y-85881900D01*
X173384642Y-86004743D01*
X173395228Y-86030300D01*
X173441178Y-86141233D01*
X173444480Y-86157832D01*
X173470000Y-86286130D01*
X173470000Y-86433870D01*
X173441178Y-86578766D01*
X173384642Y-86715257D01*
X173302561Y-86838100D01*
X173198100Y-86942561D01*
X173075257Y-87024642D01*
X172995303Y-87057760D01*
X172938767Y-87081178D01*
X172866318Y-87095589D01*
X172793870Y-87110000D01*
X172646130Y-87110000D01*
X172573682Y-87095589D01*
X172501233Y-87081178D01*
X172444697Y-87057760D01*
X172364743Y-87024642D01*
X172241900Y-86942561D01*
X172137439Y-86838100D01*
X172055358Y-86715257D01*
X171998822Y-86578766D01*
X171970000Y-86433870D01*
X171970000Y-86286130D01*
X171995520Y-86157832D01*
X171998822Y-86141233D01*
X172044772Y-86030300D01*
X172055358Y-86004743D01*
X172137439Y-85881900D01*
X172241900Y-85777439D01*
X172364743Y-85695358D01*
X172444697Y-85662240D01*
X172501233Y-85638822D01*
X172573682Y-85624411D01*
X172646130Y-85610000D01*
X172793870Y-85610000D01*
X172866318Y-85624411D01*
X172866318Y-85624411D01*
G37*
G36*
X149010630Y-83490299D02*
X149170855Y-83538903D01*
X149318520Y-83617831D01*
X149447949Y-83724051D01*
X149554169Y-83853480D01*
X149633097Y-84001145D01*
X149681701Y-84161370D01*
X149698112Y-84328000D01*
X149681701Y-84494630D01*
X149633097Y-84654855D01*
X149554169Y-84802520D01*
X149447949Y-84931949D01*
X149318520Y-85038169D01*
X149170855Y-85117097D01*
X149010630Y-85165701D01*
X148885752Y-85178000D01*
X148802248Y-85178000D01*
X148677370Y-85165701D01*
X148517145Y-85117097D01*
X148369480Y-85038169D01*
X148240051Y-84931949D01*
X148133831Y-84802520D01*
X148054903Y-84654855D01*
X148006299Y-84494630D01*
X147989888Y-84328000D01*
X148006299Y-84161370D01*
X148054903Y-84001145D01*
X148133831Y-83853480D01*
X148240051Y-83724051D01*
X148369480Y-83617831D01*
X148517145Y-83538903D01*
X148677370Y-83490299D01*
X148802248Y-83478000D01*
X148885752Y-83478000D01*
X149010630Y-83490299D01*
X149010630Y-83490299D01*
G37*
G36*
X149694000Y-82638000D02*
X147994000Y-82638000D01*
X147994000Y-80938000D01*
X149694000Y-80938000D01*
X149694000Y-82638000D01*
X149694000Y-82638000D01*
G37*
G36*
X133946000Y-78066000D02*
X132246000Y-78066000D01*
X132246000Y-76366000D01*
X133946000Y-76366000D01*
X133946000Y-78066000D01*
X133946000Y-78066000D01*
G37*
G36*
X133262630Y-73838299D02*
X133422855Y-73886903D01*
X133570520Y-73965831D01*
X133699949Y-74072051D01*
X133806169Y-74201480D01*
X133885097Y-74349145D01*
X133933701Y-74509370D01*
X133950112Y-74676000D01*
X133933701Y-74842630D01*
X133885097Y-75002855D01*
X133806169Y-75150520D01*
X133699949Y-75279949D01*
X133570520Y-75386169D01*
X133422855Y-75465097D01*
X133262630Y-75513701D01*
X133137752Y-75526000D01*
X133054248Y-75526000D01*
X132929370Y-75513701D01*
X132769145Y-75465097D01*
X132621480Y-75386169D01*
X132492051Y-75279949D01*
X132385831Y-75150520D01*
X132306903Y-75002855D01*
X132258299Y-74842630D01*
X132241888Y-74676000D01*
X132258299Y-74509370D01*
X132306903Y-74349145D01*
X132385831Y-74201480D01*
X132492051Y-74072051D01*
X132621480Y-73965831D01*
X132769145Y-73886903D01*
X132929370Y-73838299D01*
X133054248Y-73826000D01*
X133137752Y-73826000D01*
X133262630Y-73838299D01*
X133262630Y-73838299D01*
G37*
G36*
X133262630Y-71298299D02*
X133422855Y-71346903D01*
X133570520Y-71425831D01*
X133699949Y-71532051D01*
X133806169Y-71661480D01*
X133885097Y-71809145D01*
X133933701Y-71969370D01*
X133950112Y-72136000D01*
X133933701Y-72302630D01*
X133885097Y-72462855D01*
X133806169Y-72610520D01*
X133699949Y-72739949D01*
X133570520Y-72846169D01*
X133422855Y-72925097D01*
X133262630Y-72973701D01*
X133137752Y-72986000D01*
X133054248Y-72986000D01*
X132929370Y-72973701D01*
X132769145Y-72925097D01*
X132621480Y-72846169D01*
X132492051Y-72739949D01*
X132385831Y-72610520D01*
X132306903Y-72462855D01*
X132258299Y-72302630D01*
X132241888Y-72136000D01*
X132258299Y-71969370D01*
X132306903Y-71809145D01*
X132385831Y-71661480D01*
X132492051Y-71532051D01*
X132621480Y-71425831D01*
X132769145Y-71346903D01*
X132929370Y-71298299D01*
X133054248Y-71286000D01*
X133137752Y-71286000D01*
X133262630Y-71298299D01*
X133262630Y-71298299D01*
G37*
G36*
X133262630Y-68758299D02*
X133422855Y-68806903D01*
X133570520Y-68885831D01*
X133699949Y-68992051D01*
X133806169Y-69121480D01*
X133885097Y-69269145D01*
X133933701Y-69429370D01*
X133950112Y-69596000D01*
X133933701Y-69762630D01*
X133885097Y-69922855D01*
X133806169Y-70070520D01*
X133699949Y-70199949D01*
X133570520Y-70306169D01*
X133422855Y-70385097D01*
X133262630Y-70433701D01*
X133137752Y-70446000D01*
X133054248Y-70446000D01*
X132929370Y-70433701D01*
X132769145Y-70385097D01*
X132621480Y-70306169D01*
X132492051Y-70199949D01*
X132385831Y-70070520D01*
X132306903Y-69922855D01*
X132258299Y-69762630D01*
X132241888Y-69596000D01*
X132258299Y-69429370D01*
X132306903Y-69269145D01*
X132385831Y-69121480D01*
X132492051Y-68992051D01*
X132621480Y-68885831D01*
X132769145Y-68806903D01*
X132929370Y-68758299D01*
X133054248Y-68746000D01*
X133137752Y-68746000D01*
X133262630Y-68758299D01*
X133262630Y-68758299D01*
G37*
G36*
X155614630Y-39294299D02*
X155774855Y-39342903D01*
X155922520Y-39421831D01*
X156051949Y-39528051D01*
X156158169Y-39657480D01*
X156237097Y-39805145D01*
X156285701Y-39965370D01*
X156302112Y-40132000D01*
X156285701Y-40298630D01*
X156237097Y-40458855D01*
X156158169Y-40606520D01*
X156051949Y-40735949D01*
X155922520Y-40842169D01*
X155774855Y-40921097D01*
X155614630Y-40969701D01*
X155489752Y-40982000D01*
X155406248Y-40982000D01*
X155281370Y-40969701D01*
X155121145Y-40921097D01*
X154973480Y-40842169D01*
X154844051Y-40735949D01*
X154737831Y-40606520D01*
X154658903Y-40458855D01*
X154610299Y-40298630D01*
X154593888Y-40132000D01*
X154610299Y-39965370D01*
X154658903Y-39805145D01*
X154737831Y-39657480D01*
X154844051Y-39528051D01*
X154973480Y-39421831D01*
X155121145Y-39342903D01*
X155281370Y-39294299D01*
X155406248Y-39282000D01*
X155489752Y-39282000D01*
X155614630Y-39294299D01*
X155614630Y-39294299D01*
G37*
G36*
X158154630Y-39294299D02*
X158314855Y-39342903D01*
X158462520Y-39421831D01*
X158591949Y-39528051D01*
X158698169Y-39657480D01*
X158777097Y-39805145D01*
X158825701Y-39965370D01*
X158842112Y-40132000D01*
X158825701Y-40298630D01*
X158777097Y-40458855D01*
X158698169Y-40606520D01*
X158591949Y-40735949D01*
X158462520Y-40842169D01*
X158314855Y-40921097D01*
X158154630Y-40969701D01*
X158029752Y-40982000D01*
X157946248Y-40982000D01*
X157821370Y-40969701D01*
X157661145Y-40921097D01*
X157513480Y-40842169D01*
X157384051Y-40735949D01*
X157277831Y-40606520D01*
X157198903Y-40458855D01*
X157150299Y-40298630D01*
X157133888Y-40132000D01*
X157150299Y-39965370D01*
X157198903Y-39805145D01*
X157277831Y-39657480D01*
X157384051Y-39528051D01*
X157513480Y-39421831D01*
X157661145Y-39342903D01*
X157821370Y-39294299D01*
X157946248Y-39282000D01*
X158029752Y-39282000D01*
X158154630Y-39294299D01*
X158154630Y-39294299D01*
G37*
G36*
X153074630Y-39294299D02*
X153234855Y-39342903D01*
X153382520Y-39421831D01*
X153511949Y-39528051D01*
X153618169Y-39657480D01*
X153697097Y-39805145D01*
X153745701Y-39965370D01*
X153762112Y-40132000D01*
X153745701Y-40298630D01*
X153697097Y-40458855D01*
X153618169Y-40606520D01*
X153511949Y-40735949D01*
X153382520Y-40842169D01*
X153234855Y-40921097D01*
X153074630Y-40969701D01*
X152949752Y-40982000D01*
X152866248Y-40982000D01*
X152741370Y-40969701D01*
X152581145Y-40921097D01*
X152433480Y-40842169D01*
X152304051Y-40735949D01*
X152197831Y-40606520D01*
X152118903Y-40458855D01*
X152070299Y-40298630D01*
X152053888Y-40132000D01*
X152070299Y-39965370D01*
X152118903Y-39805145D01*
X152197831Y-39657480D01*
X152304051Y-39528051D01*
X152433480Y-39421831D01*
X152581145Y-39342903D01*
X152741370Y-39294299D01*
X152866248Y-39282000D01*
X152949752Y-39282000D01*
X153074630Y-39294299D01*
X153074630Y-39294299D01*
G37*
G36*
X150615934Y-39314664D02*
X150770627Y-39378740D01*
X150909847Y-39471764D01*
X151028236Y-39590153D01*
X151121260Y-39729373D01*
X151185336Y-39884066D01*
X151218000Y-40048281D01*
X151218000Y-40215719D01*
X151185336Y-40379934D01*
X151121260Y-40534627D01*
X151028236Y-40673847D01*
X150909847Y-40792236D01*
X150770627Y-40885260D01*
X150615934Y-40949336D01*
X150451719Y-40982000D01*
X150284281Y-40982000D01*
X150120066Y-40949336D01*
X149965373Y-40885260D01*
X149826153Y-40792236D01*
X149707764Y-40673847D01*
X149614740Y-40534627D01*
X149550664Y-40379934D01*
X149518000Y-40215719D01*
X149518000Y-40048281D01*
X149550664Y-39884066D01*
X149614740Y-39729373D01*
X149707764Y-39590153D01*
X149826153Y-39471764D01*
X149965373Y-39378740D01*
X150120066Y-39314664D01*
X150284281Y-39282000D01*
X150451719Y-39282000D01*
X150615934Y-39314664D01*
X150615934Y-39314664D01*
G37*
G36*
X147804000Y-34012000D02*
X144804000Y-34012000D01*
X144804000Y-31012000D01*
X147804000Y-31012000D01*
X147804000Y-34012000D01*
X147804000Y-34012000D01*
G37*
G36*
X156804935Y-31050429D02*
X156901534Y-31069644D01*
X157174517Y-31182717D01*
X157416920Y-31344687D01*
X157420197Y-31346876D01*
X157629124Y-31555803D01*
X157793284Y-31801485D01*
X157906356Y-32074467D01*
X157964000Y-32364261D01*
X157964000Y-32659739D01*
X157906356Y-32949533D01*
X157793284Y-33222515D01*
X157629124Y-33468197D01*
X157420197Y-33677124D01*
X157420194Y-33677126D01*
X157174517Y-33841283D01*
X156901534Y-33954356D01*
X156804935Y-33973571D01*
X156611739Y-34012000D01*
X156316261Y-34012000D01*
X156123065Y-33973571D01*
X156026466Y-33954356D01*
X155753483Y-33841283D01*
X155507806Y-33677126D01*
X155507803Y-33677124D01*
X155298876Y-33468197D01*
X155134716Y-33222515D01*
X155021644Y-32949533D01*
X154964000Y-32659739D01*
X154964000Y-32364261D01*
X155021644Y-32074467D01*
X155134716Y-31801485D01*
X155298876Y-31555803D01*
X155507803Y-31346876D01*
X155511080Y-31344687D01*
X155753483Y-31182717D01*
X156026466Y-31069644D01*
X156123065Y-31050429D01*
X156316261Y-31012000D01*
X156611739Y-31012000D01*
X156804935Y-31050429D01*
X156804935Y-31050429D01*
G37*
G36*
X151724935Y-31050429D02*
X151821534Y-31069644D01*
X152094517Y-31182717D01*
X152336920Y-31344687D01*
X152340197Y-31346876D01*
X152549124Y-31555803D01*
X152713284Y-31801485D01*
X152826356Y-32074467D01*
X152884000Y-32364261D01*
X152884000Y-32659739D01*
X152826356Y-32949533D01*
X152713284Y-33222515D01*
X152549124Y-33468197D01*
X152340197Y-33677124D01*
X152340194Y-33677126D01*
X152094517Y-33841283D01*
X151821534Y-33954356D01*
X151724935Y-33973571D01*
X151531739Y-34012000D01*
X151236261Y-34012000D01*
X151043065Y-33973571D01*
X150946466Y-33954356D01*
X150673483Y-33841283D01*
X150427806Y-33677126D01*
X150427803Y-33677124D01*
X150218876Y-33468197D01*
X150054716Y-33222515D01*
X149941644Y-32949533D01*
X149884000Y-32659739D01*
X149884000Y-32364261D01*
X149941644Y-32074467D01*
X150054716Y-31801485D01*
X150218876Y-31555803D01*
X150427803Y-31346876D01*
X150431080Y-31344687D01*
X150673483Y-31182717D01*
X150946466Y-31069644D01*
X151043065Y-31050429D01*
X151236261Y-31012000D01*
X151531739Y-31012000D01*
X151724935Y-31050429D01*
X151724935Y-31050429D01*
G37*
G36*
X161884935Y-31050429D02*
X161981534Y-31069644D01*
X162254517Y-31182717D01*
X162496920Y-31344687D01*
X162500197Y-31346876D01*
X162709124Y-31555803D01*
X162873284Y-31801485D01*
X162986356Y-32074467D01*
X163044000Y-32364261D01*
X163044000Y-32659739D01*
X162986356Y-32949533D01*
X162873284Y-33222515D01*
X162709124Y-33468197D01*
X162500197Y-33677124D01*
X162500194Y-33677126D01*
X162254517Y-33841283D01*
X161981534Y-33954356D01*
X161884935Y-33973571D01*
X161691739Y-34012000D01*
X161396261Y-34012000D01*
X161203065Y-33973571D01*
X161106466Y-33954356D01*
X160833483Y-33841283D01*
X160587806Y-33677126D01*
X160587803Y-33677124D01*
X160378876Y-33468197D01*
X160214716Y-33222515D01*
X160101644Y-32949533D01*
X160044000Y-32659739D01*
X160044000Y-32364261D01*
X160101644Y-32074467D01*
X160214716Y-31801485D01*
X160378876Y-31555803D01*
X160587803Y-31346876D01*
X160591080Y-31344687D01*
X160833483Y-31182717D01*
X161106466Y-31069644D01*
X161203065Y-31050429D01*
X161396261Y-31012000D01*
X161691739Y-31012000D01*
X161884935Y-31050429D01*
X161884935Y-31050429D01*
G37*
G36*
X132626253Y-26463801D02*
X132896730Y-26517602D01*
X133107799Y-26605030D01*
X133406296Y-26728671D01*
X133864899Y-27035100D01*
X134254900Y-27425101D01*
X134561329Y-27883704D01*
X134772398Y-28393271D01*
X134880000Y-28934223D01*
X134880000Y-29485777D01*
X134772398Y-30026729D01*
X134561329Y-30536296D01*
X134254900Y-30994899D01*
X133864899Y-31384900D01*
X133406296Y-31691329D01*
X133140360Y-31801483D01*
X132896730Y-31902398D01*
X132626253Y-31956199D01*
X132355777Y-32010000D01*
X131804223Y-32010000D01*
X131533747Y-31956199D01*
X131263270Y-31902398D01*
X131019640Y-31801483D01*
X130753704Y-31691329D01*
X130295101Y-31384900D01*
X129905100Y-30994899D01*
X129598671Y-30536296D01*
X129387602Y-30026729D01*
X129280000Y-29485777D01*
X129280000Y-28934223D01*
X129387602Y-28393271D01*
X129598671Y-27883704D01*
X129905100Y-27425101D01*
X130295101Y-27035100D01*
X130753704Y-26728671D01*
X131052201Y-26605030D01*
X131263270Y-26517602D01*
X131533747Y-26463801D01*
X131804223Y-26410000D01*
X132355777Y-26410000D01*
X132626253Y-26463801D01*
X132626253Y-26463801D01*
G37*
G36*
X175806253Y-26463801D02*
X176076730Y-26517602D01*
X176287799Y-26605030D01*
X176586296Y-26728671D01*
X177044899Y-27035100D01*
X177434900Y-27425101D01*
X177741329Y-27883704D01*
X177952398Y-28393271D01*
X178060000Y-28934223D01*
X178060000Y-29485777D01*
X177952398Y-30026729D01*
X177741329Y-30536296D01*
X177434900Y-30994899D01*
X177044899Y-31384900D01*
X176586296Y-31691329D01*
X176320360Y-31801483D01*
X176076730Y-31902398D01*
X175806253Y-31956199D01*
X175535777Y-32010000D01*
X174984223Y-32010000D01*
X174713747Y-31956199D01*
X174443270Y-31902398D01*
X174199640Y-31801483D01*
X173933704Y-31691329D01*
X173475101Y-31384900D01*
X173085100Y-30994899D01*
X172778671Y-30536296D01*
X172567602Y-30026729D01*
X172460000Y-29485777D01*
X172460000Y-28934223D01*
X172567602Y-28393271D01*
X172778671Y-27883704D01*
X173085100Y-27425101D01*
X173475101Y-27035100D01*
X173933704Y-26728671D01*
X174232201Y-26605030D01*
X174443270Y-26517602D01*
X174713747Y-26463801D01*
X174984223Y-26410000D01*
X175535777Y-26410000D01*
X175806253Y-26463801D01*
X175806253Y-26463801D01*
G37*
M02*
