G04 #@! TF.GenerationSoftware,KiCad,Pcbnew,(5.0.0-rc2-101-g68f6e3ad4)*
G04 #@! TF.CreationDate,2018-07-19T03:23:03+02:00*
G04 #@! TF.ProjectId,leddings,6C656464696E67732E6B696361645F70,rev?*
G04 #@! TF.SameCoordinates,Original*
G04 #@! TF.FileFunction,Soldermask,Top*
G04 #@! TF.FilePolarity,Negative*
%FSLAX46Y46*%
G04 Gerber Fmt 4.6, Leading zero omitted, Abs format (unit mm)*
G04 Created by KiCad (PCBNEW (5.0.0-rc2-101-g68f6e3ad4)) date Thu Jul 19 03:23:03 2018*
%MOMM*%
%LPD*%
G01*
G04 APERTURE LIST*
%ADD10R,1.000000X2.500000*%
%ADD11R,1.800000X1.000000*%
%ADD12R,1.500000X1.250000*%
%ADD13R,0.800000X0.900000*%
%ADD14R,1.500000X1.500000*%
%ADD15O,1.700000X1.700000*%
%ADD16R,1.700000X1.700000*%
%ADD17R,1.900000X1.200000*%
%ADD18O,1.900000X1.200000*%
%ADD19R,1.900000X1.500000*%
%ADD20C,1.450000*%
%ADD21R,1.350000X0.400000*%
%ADD22C,5.600000*%
%ADD23R,1.800000X1.800000*%
%ADD24O,1.800000X1.800000*%
%ADD25R,1.300000X1.500000*%
%ADD26C,1.397000*%
%ADD27O,1.000000X1.000000*%
%ADD28R,1.000000X1.000000*%
%ADD29C,1.500000*%
%ADD30C,2.600000*%
%ADD31R,2.600000X2.600000*%
G04 APERTURE END LIST*
D10*
G04 #@! TO.C,U3*
X168600000Y-62885000D03*
X166600000Y-62885000D03*
X164600000Y-62885000D03*
X162600000Y-62885000D03*
X160600000Y-62885000D03*
X158600000Y-62885000D03*
X156600000Y-62885000D03*
X154600000Y-62885000D03*
D11*
X153100000Y-65485000D03*
X153100000Y-67485000D03*
X153100000Y-69485000D03*
X153100000Y-71485000D03*
X153100000Y-73485000D03*
X153100000Y-75485000D03*
D10*
X154600000Y-78085000D03*
X156600000Y-78085000D03*
X158600000Y-78085000D03*
X160600000Y-78085000D03*
X162600000Y-78085000D03*
X164600000Y-78085000D03*
X166600000Y-78085000D03*
X168600000Y-78085000D03*
G04 #@! TD*
D12*
G04 #@! TO.C,C1*
X136525000Y-83820000D03*
X134025000Y-83820000D03*
G04 #@! TD*
G04 #@! TO.C,C2*
X134025000Y-80010000D03*
X136525000Y-80010000D03*
G04 #@! TD*
D13*
G04 #@! TO.C,D1*
X144560000Y-83820000D03*
X142460000Y-83820000D03*
G04 #@! TD*
D14*
G04 #@! TO.C,J1*
X165100000Y-55880000D03*
G04 #@! TD*
G04 #@! TO.C,J2*
X154940000Y-55880000D03*
G04 #@! TD*
G04 #@! TO.C,J3*
X144780000Y-55880000D03*
G04 #@! TD*
D15*
G04 #@! TO.C,J4*
X160020000Y-29210000D03*
X157480000Y-29210000D03*
X154940000Y-29210000D03*
D16*
X152400000Y-29210000D03*
G04 #@! TD*
D17*
G04 #@! TO.C,J5*
X177515000Y-89260000D03*
X177515000Y-83460000D03*
D18*
X177515000Y-82860000D03*
X177515000Y-89860000D03*
D19*
X177515000Y-87360000D03*
D20*
X174815000Y-83860000D03*
D21*
X174815000Y-86360000D03*
X174815000Y-85710000D03*
X174815000Y-85060000D03*
X174815000Y-87660000D03*
X174815000Y-87010000D03*
D20*
X174815000Y-88860000D03*
D19*
X177515000Y-85360000D03*
G04 #@! TD*
D22*
G04 #@! TO.C,MK1*
X175260000Y-29210000D03*
G04 #@! TD*
G04 #@! TO.C,MK2*
X132080000Y-104140000D03*
G04 #@! TD*
G04 #@! TO.C,MK3*
X132080000Y-29210000D03*
G04 #@! TD*
G04 #@! TO.C,MK4*
X175260000Y-104140000D03*
G04 #@! TD*
D23*
G04 #@! TO.C,Q1*
X165100000Y-43180000D03*
D24*
X165100000Y-40640000D03*
X165100000Y-38100000D03*
G04 #@! TD*
D23*
G04 #@! TO.C,Q2*
X154940000Y-43180000D03*
D24*
X154940000Y-40640000D03*
X154940000Y-38100000D03*
G04 #@! TD*
G04 #@! TO.C,Q3*
X144780000Y-38100000D03*
X144780000Y-40640000D03*
D23*
X144780000Y-43180000D03*
G04 #@! TD*
D25*
G04 #@! TO.C,R1*
X165100000Y-49530000D03*
X165100000Y-52230000D03*
G04 #@! TD*
G04 #@! TO.C,R2*
X154940000Y-49530000D03*
X154940000Y-52230000D03*
G04 #@! TD*
G04 #@! TO.C,R3*
X144780000Y-49530000D03*
X144780000Y-52230000D03*
G04 #@! TD*
G04 #@! TO.C,R4*
X170180000Y-39370000D03*
X170180000Y-42070000D03*
G04 #@! TD*
G04 #@! TO.C,R5*
X160020000Y-39210000D03*
X160020000Y-41910000D03*
G04 #@! TD*
G04 #@! TO.C,R6*
X149860000Y-39210000D03*
X149860000Y-41910000D03*
G04 #@! TD*
G04 #@! TO.C,R7*
X144780000Y-62230000D03*
X144780000Y-64930000D03*
G04 #@! TD*
G04 #@! TO.C,R8*
X148590000Y-64930000D03*
X148590000Y-62230000D03*
G04 #@! TD*
D26*
G04 #@! TO.C,SW1*
X138927500Y-70485000D03*
X133847500Y-70485000D03*
X138927500Y-62865000D03*
X133847500Y-62865000D03*
G04 #@! TD*
D27*
G04 #@! TO.C,SW2*
X147320000Y-67920238D03*
X146050000Y-67920238D03*
D28*
X144780000Y-67920238D03*
G04 #@! TD*
D24*
G04 #@! TO.C,U1*
X139065000Y-76200000D03*
X136525000Y-76200000D03*
D23*
X133985000Y-76200000D03*
G04 #@! TD*
D29*
G04 #@! TO.C,Y1*
X172085000Y-97790000D03*
X172085000Y-92910000D03*
G04 #@! TD*
D30*
G04 #@! TO.C,J6*
X146940000Y-96980000D03*
X142240000Y-99980000D03*
D31*
X142240000Y-93980000D03*
G04 #@! TD*
M02*
