G04 #@! TF.GenerationSoftware,KiCad,Pcbnew,(5.0.0-rc2-101-g68f6e3ad4)*
G04 #@! TF.CreationDate,2018-07-19T03:23:03+02:00*
G04 #@! TF.ProjectId,leddings,6C656464696E67732E6B696361645F70,rev?*
G04 #@! TF.SameCoordinates,Original*
G04 #@! TF.FileFunction,Paste,Top*
G04 #@! TF.FilePolarity,Positive*
%FSLAX46Y46*%
G04 Gerber Fmt 4.6, Leading zero omitted, Abs format (unit mm)*
G04 Created by KiCad (PCBNEW (5.0.0-rc2-101-g68f6e3ad4)) date Thu Jul 19 03:23:03 2018*
%MOMM*%
%LPD*%
G01*
G04 APERTURE LIST*
%ADD10R,1.000000X2.500000*%
%ADD11R,1.800000X1.000000*%
%ADD12R,1.500000X1.250000*%
%ADD13R,0.800000X0.900000*%
%ADD14R,1.900000X1.500000*%
%ADD15R,1.350000X0.400000*%
%ADD16R,1.300000X1.500000*%
G04 APERTURE END LIST*
D10*
G04 #@! TO.C,U3*
X168600000Y-62885000D03*
X166600000Y-62885000D03*
X164600000Y-62885000D03*
X162600000Y-62885000D03*
X160600000Y-62885000D03*
X158600000Y-62885000D03*
X156600000Y-62885000D03*
X154600000Y-62885000D03*
D11*
X153100000Y-65485000D03*
X153100000Y-67485000D03*
X153100000Y-69485000D03*
X153100000Y-71485000D03*
X153100000Y-73485000D03*
X153100000Y-75485000D03*
D10*
X154600000Y-78085000D03*
X156600000Y-78085000D03*
X158600000Y-78085000D03*
X160600000Y-78085000D03*
X162600000Y-78085000D03*
X164600000Y-78085000D03*
X166600000Y-78085000D03*
X168600000Y-78085000D03*
G04 #@! TD*
D12*
G04 #@! TO.C,C1*
X136525000Y-83820000D03*
X134025000Y-83820000D03*
G04 #@! TD*
G04 #@! TO.C,C2*
X134025000Y-80010000D03*
X136525000Y-80010000D03*
G04 #@! TD*
D13*
G04 #@! TO.C,D1*
X144560000Y-83820000D03*
X142460000Y-83820000D03*
G04 #@! TD*
D14*
G04 #@! TO.C,J5*
X177515000Y-87360000D03*
D15*
X174815000Y-86360000D03*
X174815000Y-85710000D03*
X174815000Y-85060000D03*
X174815000Y-87660000D03*
X174815000Y-87010000D03*
D14*
X177515000Y-85360000D03*
G04 #@! TD*
D16*
G04 #@! TO.C,R1*
X165100000Y-49530000D03*
X165100000Y-52230000D03*
G04 #@! TD*
G04 #@! TO.C,R2*
X154940000Y-49530000D03*
X154940000Y-52230000D03*
G04 #@! TD*
G04 #@! TO.C,R3*
X144780000Y-49530000D03*
X144780000Y-52230000D03*
G04 #@! TD*
G04 #@! TO.C,R4*
X170180000Y-39370000D03*
X170180000Y-42070000D03*
G04 #@! TD*
G04 #@! TO.C,R5*
X160020000Y-39210000D03*
X160020000Y-41910000D03*
G04 #@! TD*
G04 #@! TO.C,R6*
X149860000Y-39210000D03*
X149860000Y-41910000D03*
G04 #@! TD*
G04 #@! TO.C,R7*
X144780000Y-62230000D03*
X144780000Y-64930000D03*
G04 #@! TD*
G04 #@! TO.C,R8*
X148590000Y-64930000D03*
X148590000Y-62230000D03*
G04 #@! TD*
M02*
