%TF.GenerationSoftware,KiCad,Pcbnew,5.0.1*%
%TF.CreationDate,2018-11-26T07:17:36+01:00*%
%TF.ProjectId,leddings,6C656464696E67732E6B696361645F70,rev?*%
%TF.SameCoordinates,Original*%
%TF.FileFunction,Copper,L1,Top,Signal*%
%TF.FilePolarity,Positive*%
%FSLAX46Y46*%
G04 Gerber Fmt 4.6, Leading zero omitted, Abs format (unit mm)*
G04 Created by KiCad (PCBNEW 5.0.1) date Mo 26 Nov 2018 07:17:36 CET*
%MOMM*%
%LPD*%
G01*
G04 APERTURE LIST*
%ADD10R,1.300000X1.500000*%
%ADD11C,2.600000*%
%ADD12R,2.600000X2.600000*%
%ADD13R,1.500000X0.600000*%
%ADD14R,1.250000X1.500000*%
%ADD15R,1.500000X1.250000*%
%ADD16R,1.200000X1.900000*%
%ADD17O,1.200000X1.900000*%
%ADD18R,1.500000X1.900000*%
%ADD19C,1.450000*%
%ADD20R,0.400000X1.350000*%
%ADD21C,5.600000*%
%ADD22C,1.500000*%
%ADD23R,1.100000X2.500000*%
%ADD24R,2.500000X1.100000*%
%ADD25O,1.700000X1.700000*%
%ADD26R,1.700000X1.700000*%
%ADD27C,0.150000*%
%ADD28C,1.150000*%
%ADD29C,1.700000*%
%ADD30R,1.200000X2.200000*%
%ADD31R,5.800000X6.400000*%
%ADD32R,1.300000X1.550000*%
%ADD33R,2.200000X1.200000*%
%ADD34R,6.400000X5.800000*%
%ADD35C,3.000000*%
%ADD36R,3.000000X3.000000*%
%ADD37R,1.100000X1.100000*%
%ADD38C,0.800000*%
%ADD39C,0.250000*%
%ADD40C,2.000000*%
%ADD41C,0.254000*%
G04 APERTURE END LIST*
D10*
X146304000Y-55372000D03*
X146304000Y-58072000D03*
D11*
X146940000Y-96980000D03*
X142240000Y-99980000D03*
D12*
X142240000Y-93980000D03*
D13*
X158590000Y-98425000D03*
X158590000Y-97155000D03*
X158590000Y-95885000D03*
X158590000Y-94615000D03*
X158590000Y-93345000D03*
X158590000Y-92075000D03*
X158590000Y-90805000D03*
X158590000Y-89535000D03*
X163990000Y-89535000D03*
X163990000Y-90805000D03*
X163990000Y-92075000D03*
X163990000Y-93345000D03*
X163990000Y-94615000D03*
X163990000Y-95885000D03*
X163990000Y-97155000D03*
X163990000Y-98425000D03*
D14*
X132588000Y-90698000D03*
X132588000Y-93198000D03*
D15*
X136926000Y-79248000D03*
X139426000Y-79248000D03*
D14*
X168656000Y-91460000D03*
X168656000Y-93960000D03*
X168910000Y-83840000D03*
X168910000Y-86340000D03*
D16*
X158390000Y-106045000D03*
X164190000Y-106045000D03*
D17*
X164790000Y-106045000D03*
X157790000Y-106045000D03*
D18*
X160290000Y-106045000D03*
D19*
X163790000Y-103345000D03*
D20*
X161290000Y-103345000D03*
X161940000Y-103345000D03*
X162590000Y-103345000D03*
X159990000Y-103345000D03*
X160640000Y-103345000D03*
D19*
X158790000Y-103345000D03*
D18*
X162290000Y-106045000D03*
D21*
X175260000Y-29210000D03*
X132080000Y-104140000D03*
X132080000Y-29210000D03*
X175260000Y-104140000D03*
D10*
X164592000Y-55372000D03*
X164592000Y-58072000D03*
X155448000Y-55372000D03*
X155448000Y-58072000D03*
X169672000Y-55372000D03*
X169672000Y-58072000D03*
X160528000Y-55372000D03*
X160528000Y-58072000D03*
X151384000Y-55372000D03*
X151384000Y-58072000D03*
X143510000Y-64850000D03*
X143510000Y-62150000D03*
X143510000Y-70010000D03*
X143510000Y-67310000D03*
D22*
X172720000Y-86360000D03*
X172720000Y-91240000D03*
D23*
X168910000Y-62800000D03*
X166910000Y-62800000D03*
X164910000Y-62800000D03*
X162910000Y-62800000D03*
X160910000Y-62800000D03*
X158910000Y-62800000D03*
X156910000Y-62800000D03*
X154910000Y-62800000D03*
X154910000Y-78200000D03*
X156910000Y-78200000D03*
X158910000Y-78200000D03*
X160910000Y-78200000D03*
X162910000Y-78200000D03*
X164910000Y-78200000D03*
X166910000Y-78200000D03*
X168910000Y-78200000D03*
D24*
X153210000Y-65490000D03*
X153210000Y-67490000D03*
X153210000Y-69490000D03*
X153210000Y-71490000D03*
X153210000Y-73490000D03*
X153210000Y-75490000D03*
D25*
X133096000Y-69596000D03*
X133096000Y-72136000D03*
X133096000Y-74676000D03*
D26*
X133096000Y-77216000D03*
D25*
X148844000Y-86868000D03*
X148844000Y-84328000D03*
D26*
X148844000Y-81788000D03*
D10*
X147320000Y-70010000D03*
X147320000Y-67310000D03*
X145415000Y-70010000D03*
X145415000Y-67310000D03*
D27*
G36*
X169130505Y-97987204D02*
X169154773Y-97990804D01*
X169178572Y-97996765D01*
X169201671Y-98005030D01*
X169223850Y-98015520D01*
X169244893Y-98028132D01*
X169264599Y-98042747D01*
X169282777Y-98059223D01*
X169299253Y-98077401D01*
X169313868Y-98097107D01*
X169326480Y-98118150D01*
X169336970Y-98140329D01*
X169345235Y-98163428D01*
X169351196Y-98187227D01*
X169354796Y-98211495D01*
X169356000Y-98235999D01*
X169356000Y-98886001D01*
X169354796Y-98910505D01*
X169351196Y-98934773D01*
X169345235Y-98958572D01*
X169336970Y-98981671D01*
X169326480Y-99003850D01*
X169313868Y-99024893D01*
X169299253Y-99044599D01*
X169282777Y-99062777D01*
X169264599Y-99079253D01*
X169244893Y-99093868D01*
X169223850Y-99106480D01*
X169201671Y-99116970D01*
X169178572Y-99125235D01*
X169154773Y-99131196D01*
X169130505Y-99134796D01*
X169106001Y-99136000D01*
X168205999Y-99136000D01*
X168181495Y-99134796D01*
X168157227Y-99131196D01*
X168133428Y-99125235D01*
X168110329Y-99116970D01*
X168088150Y-99106480D01*
X168067107Y-99093868D01*
X168047401Y-99079253D01*
X168029223Y-99062777D01*
X168012747Y-99044599D01*
X167998132Y-99024893D01*
X167985520Y-99003850D01*
X167975030Y-98981671D01*
X167966765Y-98958572D01*
X167960804Y-98934773D01*
X167957204Y-98910505D01*
X167956000Y-98886001D01*
X167956000Y-98235999D01*
X167957204Y-98211495D01*
X167960804Y-98187227D01*
X167966765Y-98163428D01*
X167975030Y-98140329D01*
X167985520Y-98118150D01*
X167998132Y-98097107D01*
X168012747Y-98077401D01*
X168029223Y-98059223D01*
X168047401Y-98042747D01*
X168067107Y-98028132D01*
X168088150Y-98015520D01*
X168110329Y-98005030D01*
X168133428Y-97996765D01*
X168157227Y-97990804D01*
X168181495Y-97987204D01*
X168205999Y-97986000D01*
X169106001Y-97986000D01*
X169130505Y-97987204D01*
X169130505Y-97987204D01*
G37*
D28*
X168656000Y-98561000D03*
D27*
G36*
X169130505Y-95937204D02*
X169154773Y-95940804D01*
X169178572Y-95946765D01*
X169201671Y-95955030D01*
X169223850Y-95965520D01*
X169244893Y-95978132D01*
X169264599Y-95992747D01*
X169282777Y-96009223D01*
X169299253Y-96027401D01*
X169313868Y-96047107D01*
X169326480Y-96068150D01*
X169336970Y-96090329D01*
X169345235Y-96113428D01*
X169351196Y-96137227D01*
X169354796Y-96161495D01*
X169356000Y-96185999D01*
X169356000Y-96836001D01*
X169354796Y-96860505D01*
X169351196Y-96884773D01*
X169345235Y-96908572D01*
X169336970Y-96931671D01*
X169326480Y-96953850D01*
X169313868Y-96974893D01*
X169299253Y-96994599D01*
X169282777Y-97012777D01*
X169264599Y-97029253D01*
X169244893Y-97043868D01*
X169223850Y-97056480D01*
X169201671Y-97066970D01*
X169178572Y-97075235D01*
X169154773Y-97081196D01*
X169130505Y-97084796D01*
X169106001Y-97086000D01*
X168205999Y-97086000D01*
X168181495Y-97084796D01*
X168157227Y-97081196D01*
X168133428Y-97075235D01*
X168110329Y-97066970D01*
X168088150Y-97056480D01*
X168067107Y-97043868D01*
X168047401Y-97029253D01*
X168029223Y-97012777D01*
X168012747Y-96994599D01*
X167998132Y-96974893D01*
X167985520Y-96953850D01*
X167975030Y-96931671D01*
X167966765Y-96908572D01*
X167960804Y-96884773D01*
X167957204Y-96860505D01*
X167956000Y-96836001D01*
X167956000Y-96185999D01*
X167957204Y-96161495D01*
X167960804Y-96137227D01*
X167966765Y-96113428D01*
X167975030Y-96090329D01*
X167985520Y-96068150D01*
X167998132Y-96047107D01*
X168012747Y-96027401D01*
X168029223Y-96009223D01*
X168047401Y-95992747D01*
X168067107Y-95978132D01*
X168088150Y-95965520D01*
X168110329Y-95955030D01*
X168133428Y-95946765D01*
X168157227Y-95940804D01*
X168181495Y-95937204D01*
X168205999Y-95936000D01*
X169106001Y-95936000D01*
X169130505Y-95937204D01*
X169130505Y-95937204D01*
G37*
D28*
X168656000Y-96511000D03*
D29*
X150368000Y-40132000D03*
D25*
X152908000Y-40132000D03*
X155448000Y-40132000D03*
X157988000Y-40132000D03*
D30*
X164852000Y-51952000D03*
X169412000Y-51952000D03*
D31*
X167132000Y-45652000D03*
X157988000Y-45652000D03*
D30*
X160268000Y-51952000D03*
X155708000Y-51952000D03*
D31*
X148844000Y-46160000D03*
D30*
X151124000Y-52460000D03*
X146564000Y-52460000D03*
D32*
X133386000Y-65443000D03*
X133386000Y-57493000D03*
X137886000Y-65443000D03*
X137886000Y-57493000D03*
D33*
X132892000Y-83064000D03*
X132892000Y-87624000D03*
D34*
X139192000Y-85344000D03*
D27*
G36*
X146270910Y-63951202D02*
X146295135Y-63954795D01*
X146318891Y-63960746D01*
X146341949Y-63968996D01*
X146364087Y-63979467D01*
X146385093Y-63992057D01*
X146404763Y-64006645D01*
X146422908Y-64023092D01*
X146439355Y-64041237D01*
X146453943Y-64060907D01*
X146466533Y-64081913D01*
X146477004Y-64104051D01*
X146485254Y-64127109D01*
X146491205Y-64150865D01*
X146494798Y-64175090D01*
X146496000Y-64199550D01*
X146496000Y-64850450D01*
X146494798Y-64874910D01*
X146491205Y-64899135D01*
X146485254Y-64922891D01*
X146477004Y-64945949D01*
X146466533Y-64968087D01*
X146453943Y-64989093D01*
X146439355Y-65008763D01*
X146422908Y-65026908D01*
X146404763Y-65043355D01*
X146385093Y-65057943D01*
X146364087Y-65070533D01*
X146341949Y-65081004D01*
X146318891Y-65089254D01*
X146295135Y-65095205D01*
X146270910Y-65098798D01*
X146246450Y-65100000D01*
X145345550Y-65100000D01*
X145321090Y-65098798D01*
X145296865Y-65095205D01*
X145273109Y-65089254D01*
X145250051Y-65081004D01*
X145227913Y-65070533D01*
X145206907Y-65057943D01*
X145187237Y-65043355D01*
X145169092Y-65026908D01*
X145152645Y-65008763D01*
X145138057Y-64989093D01*
X145125467Y-64968087D01*
X145114996Y-64945949D01*
X145106746Y-64922891D01*
X145100795Y-64899135D01*
X145097202Y-64874910D01*
X145096000Y-64850450D01*
X145096000Y-64199550D01*
X145097202Y-64175090D01*
X145100795Y-64150865D01*
X145106746Y-64127109D01*
X145114996Y-64104051D01*
X145125467Y-64081913D01*
X145138057Y-64060907D01*
X145152645Y-64041237D01*
X145169092Y-64023092D01*
X145187237Y-64006645D01*
X145206907Y-63992057D01*
X145227913Y-63979467D01*
X145250051Y-63968996D01*
X145273109Y-63960746D01*
X145296865Y-63954795D01*
X145321090Y-63951202D01*
X145345550Y-63950000D01*
X146246450Y-63950000D01*
X146270910Y-63951202D01*
X146270910Y-63951202D01*
G37*
D28*
X145796000Y-64525000D03*
D27*
G36*
X146270505Y-61901204D02*
X146294773Y-61904804D01*
X146318572Y-61910765D01*
X146341671Y-61919030D01*
X146363850Y-61929520D01*
X146384893Y-61942132D01*
X146404599Y-61956747D01*
X146422777Y-61973223D01*
X146439253Y-61991401D01*
X146453868Y-62011107D01*
X146466480Y-62032150D01*
X146476970Y-62054329D01*
X146485235Y-62077428D01*
X146491196Y-62101227D01*
X146494796Y-62125495D01*
X146496000Y-62149999D01*
X146496000Y-62800001D01*
X146494796Y-62824505D01*
X146491196Y-62848773D01*
X146485235Y-62872572D01*
X146476970Y-62895671D01*
X146466480Y-62917850D01*
X146453868Y-62938893D01*
X146439253Y-62958599D01*
X146422777Y-62976777D01*
X146404599Y-62993253D01*
X146384893Y-63007868D01*
X146363850Y-63020480D01*
X146341671Y-63030970D01*
X146318572Y-63039235D01*
X146294773Y-63045196D01*
X146270505Y-63048796D01*
X146246001Y-63050000D01*
X145345999Y-63050000D01*
X145321495Y-63048796D01*
X145297227Y-63045196D01*
X145273428Y-63039235D01*
X145250329Y-63030970D01*
X145228150Y-63020480D01*
X145207107Y-63007868D01*
X145187401Y-62993253D01*
X145169223Y-62976777D01*
X145152747Y-62958599D01*
X145138132Y-62938893D01*
X145125520Y-62917850D01*
X145115030Y-62895671D01*
X145106765Y-62872572D01*
X145100804Y-62848773D01*
X145097204Y-62824505D01*
X145096000Y-62800001D01*
X145096000Y-62149999D01*
X145097204Y-62125495D01*
X145100804Y-62101227D01*
X145106765Y-62077428D01*
X145115030Y-62054329D01*
X145125520Y-62032150D01*
X145138132Y-62011107D01*
X145152747Y-61991401D01*
X145169223Y-61973223D01*
X145187401Y-61956747D01*
X145207107Y-61942132D01*
X145228150Y-61929520D01*
X145250329Y-61919030D01*
X145273428Y-61910765D01*
X145297227Y-61904804D01*
X145321495Y-61901204D01*
X145345999Y-61900000D01*
X146246001Y-61900000D01*
X146270505Y-61901204D01*
X146270505Y-61901204D01*
G37*
D28*
X145796000Y-62475000D03*
D35*
X151384000Y-32512000D03*
X156464000Y-32512000D03*
D36*
X146304000Y-32512000D03*
D35*
X161544000Y-32512000D03*
D37*
X149984000Y-93472000D03*
X152784000Y-93472000D03*
D38*
X157480000Y-54864000D03*
X157988000Y-55880000D03*
X149352000Y-54864000D03*
X148336000Y-54864000D03*
X168148000Y-53848000D03*
X167132000Y-53848000D03*
X167640000Y-54864000D03*
X166624000Y-54864000D03*
X167132000Y-55880000D03*
X168148000Y-55880000D03*
X159004000Y-53848000D03*
X157988000Y-53848000D03*
X158496000Y-54864000D03*
X159004000Y-55880000D03*
X149860000Y-55880000D03*
X148844000Y-55880000D03*
X148844000Y-53848000D03*
X149860000Y-53848000D03*
X147320000Y-62484000D03*
X147066000Y-74168000D03*
X148336000Y-74168000D03*
X147066000Y-72898000D03*
X148336000Y-72898000D03*
X149606000Y-72898000D03*
X149606000Y-74168000D03*
X149606000Y-71628000D03*
X148336000Y-71628000D03*
X147066000Y-71628000D03*
X147066000Y-78232000D03*
X148336000Y-78232000D03*
X149606000Y-78232000D03*
X147066000Y-79502000D03*
X148336000Y-79502000D03*
X149606000Y-79502000D03*
X142748000Y-80264000D03*
X144780000Y-87376000D03*
X165735000Y-94615000D03*
X159915000Y-98425000D03*
X156464000Y-94996000D03*
X156464000Y-90424000D03*
X138684000Y-67564000D03*
X144272000Y-74168000D03*
X162560000Y-95250000D03*
X161290000Y-86995000D03*
X138684000Y-74676000D03*
X160020000Y-87630000D03*
X162560000Y-97155000D03*
X138684000Y-77216000D03*
D39*
X142748000Y-93472000D02*
X142240000Y-93980000D01*
X149984000Y-93472000D02*
X142748000Y-93472000D01*
X133463000Y-90698000D02*
X132588000Y-90698000D01*
X140508000Y-90698000D02*
X133463000Y-90698000D01*
X142240000Y-92430000D02*
X140508000Y-90698000D01*
X142240000Y-93980000D02*
X142240000Y-92430000D01*
X132588000Y-87928000D02*
X132892000Y-87624000D01*
X132588000Y-90698000D02*
X132588000Y-87928000D01*
X163540000Y-98425000D02*
X163990000Y-98425000D01*
X162590000Y-103345000D02*
X162590000Y-101630000D01*
X161940000Y-102280000D02*
X161940000Y-103345000D01*
X161940000Y-102280000D02*
X162590000Y-101630000D01*
X151384000Y-52720000D02*
X151124000Y-52460000D01*
X151384000Y-55372000D02*
X151384000Y-52720000D01*
X160528000Y-52212000D02*
X160268000Y-51952000D01*
X160528000Y-55372000D02*
X160528000Y-52212000D01*
X169672000Y-52212000D02*
X169412000Y-51952000D01*
X169672000Y-55372000D02*
X169672000Y-52212000D01*
X147311000Y-62475000D02*
X147320000Y-62484000D01*
X163990000Y-94615000D02*
X165735000Y-94615000D01*
X159915000Y-98425000D02*
X158590000Y-98425000D01*
X143510000Y-64850000D02*
X143510000Y-64750000D01*
X167631000Y-96511000D02*
X168656000Y-96511000D01*
X165735000Y-94615000D02*
X167631000Y-96511000D01*
X139403000Y-85133000D02*
X139192000Y-85344000D01*
X139403000Y-82194000D02*
X139403000Y-85133000D01*
X145796000Y-64525000D02*
X149343000Y-64525000D01*
X150368000Y-63500000D02*
X154910000Y-63500000D01*
X149343000Y-64525000D02*
X150368000Y-63500000D01*
X145415000Y-67310000D02*
X143510000Y-67310000D01*
X145471000Y-64850000D02*
X145796000Y-64525000D01*
X143510000Y-64850000D02*
X145471000Y-64850000D01*
X152400000Y-89408000D02*
X155309980Y-92317980D01*
X158140000Y-98425000D02*
X158590000Y-98425000D01*
X139192000Y-88494000D02*
X140106000Y-89408000D01*
X155309980Y-95594980D02*
X158140000Y-98425000D01*
X140106000Y-89408000D02*
X152400000Y-89408000D01*
X139192000Y-85344000D02*
X139192000Y-88494000D01*
X155309980Y-92317980D02*
X155309980Y-95594980D01*
X147320000Y-85344000D02*
X148844000Y-86868000D01*
X139192000Y-85344000D02*
X147320000Y-85344000D01*
X143510000Y-67310000D02*
X143510000Y-64850000D01*
X139426000Y-82171000D02*
X139426000Y-79248000D01*
X139403000Y-82194000D02*
X139426000Y-82171000D01*
X139426000Y-79248000D02*
X139426000Y-71494000D01*
X143510000Y-67410000D02*
X143510000Y-67310000D01*
X139426000Y-71494000D02*
X143510000Y-67410000D01*
X169130000Y-91240000D02*
X168910000Y-91460000D01*
X168910000Y-91460000D02*
X168910000Y-91335000D01*
X168876000Y-91240000D02*
X168656000Y-91460000D01*
X172720000Y-91240000D02*
X168876000Y-91240000D01*
X164990000Y-90805000D02*
X163990000Y-90805000D01*
X167126000Y-90805000D02*
X164990000Y-90805000D01*
X167781000Y-91460000D02*
X167126000Y-90805000D01*
X168656000Y-91460000D02*
X167781000Y-91460000D01*
X168930000Y-86360000D02*
X168910000Y-86340000D01*
X172720000Y-86360000D02*
X168930000Y-86360000D01*
X168910000Y-86465000D02*
X168910000Y-86340000D01*
X165840000Y-89535000D02*
X168910000Y-86465000D01*
X163990000Y-89535000D02*
X165840000Y-89535000D01*
X159990000Y-102870000D02*
X160020000Y-102840000D01*
X159990000Y-103345000D02*
X159990000Y-102870000D01*
X160020000Y-101508000D02*
X160020000Y-101600000D01*
X152784000Y-94272000D02*
X160020000Y-101508000D01*
X152784000Y-93472000D02*
X152784000Y-94272000D01*
X160020000Y-102840000D02*
X160020000Y-101600000D01*
X160910000Y-61854000D02*
X160910000Y-63500000D01*
X164592000Y-58172000D02*
X160910000Y-61854000D01*
X164592000Y-58072000D02*
X164592000Y-58172000D01*
X159004000Y-63406000D02*
X158910000Y-63500000D01*
X158910000Y-62534000D02*
X159004000Y-62440000D01*
X158910000Y-63500000D02*
X158910000Y-62534000D01*
X155448000Y-58172000D02*
X155448000Y-58072000D01*
X159004000Y-61728000D02*
X155448000Y-58172000D01*
X159004000Y-62440000D02*
X159004000Y-61728000D01*
X147204000Y-58072000D02*
X149076000Y-59944000D01*
X146304000Y-58072000D02*
X147204000Y-58072000D01*
X156910000Y-61778588D02*
X156910000Y-63500000D01*
X155075412Y-59944000D02*
X156910000Y-61778588D01*
X149076000Y-59944000D02*
X155075412Y-59944000D01*
D40*
X161612000Y-40132000D02*
X167132000Y-45652000D01*
X157988000Y-40132000D02*
X161612000Y-40132000D01*
X155448000Y-43112000D02*
X155448000Y-40132000D01*
X157988000Y-45652000D02*
X155448000Y-43112000D01*
X152908000Y-42096000D02*
X148844000Y-46160000D01*
X152908000Y-40132000D02*
X152908000Y-42096000D01*
D39*
X162560000Y-93345000D02*
X163990000Y-93345000D01*
X161290000Y-103345000D02*
X161290000Y-94615000D01*
X161290000Y-94615000D02*
X162560000Y-93345000D01*
X163990000Y-92075000D02*
X162560000Y-92075000D01*
X160640000Y-93995000D02*
X160640000Y-103345000D01*
X162560000Y-92075000D02*
X160640000Y-93995000D01*
X164592000Y-55472000D02*
X164592000Y-55372000D01*
X167192000Y-58072000D02*
X164592000Y-55472000D01*
X169672000Y-58072000D02*
X167192000Y-58072000D01*
X164592000Y-52212000D02*
X164852000Y-51952000D01*
X164592000Y-55372000D02*
X164592000Y-52212000D01*
X155448000Y-55472000D02*
X155448000Y-55372000D01*
X158048000Y-58072000D02*
X155448000Y-55472000D01*
X160528000Y-58072000D02*
X158048000Y-58072000D01*
X155448000Y-52212000D02*
X155708000Y-51952000D01*
X155448000Y-55372000D02*
X155448000Y-52212000D01*
X146304000Y-55472000D02*
X146304000Y-55372000D01*
X148904000Y-58072000D02*
X146304000Y-55472000D01*
X151384000Y-58072000D02*
X148904000Y-58072000D01*
X146304000Y-52720000D02*
X146564000Y-52460000D01*
X146304000Y-55372000D02*
X146304000Y-52720000D01*
X168910000Y-63500000D02*
X168910000Y-62414998D01*
X164910000Y-63500000D02*
X164910000Y-62420000D01*
X143425000Y-62065000D02*
X143510000Y-62150000D01*
X138786000Y-57493000D02*
X137886000Y-57493000D01*
X139853000Y-57493000D02*
X138786000Y-57493000D01*
X143510000Y-61150000D02*
X139853000Y-57493000D01*
X143510000Y-62150000D02*
X143510000Y-61150000D01*
X133945999Y-71286001D02*
X136485999Y-71286001D01*
X133096000Y-72136000D02*
X133945999Y-71286001D01*
X136485999Y-71286001D02*
X141224000Y-66548000D01*
X143510000Y-62250000D02*
X143510000Y-62150000D01*
X141224000Y-64536000D02*
X143510000Y-62250000D01*
X141224000Y-66548000D02*
X141224000Y-64536000D01*
X158590000Y-95885000D02*
X157353000Y-95885000D01*
X157353000Y-95885000D02*
X156464000Y-94996000D01*
X168910000Y-61214000D02*
X168910000Y-63500000D01*
X168021000Y-60325000D02*
X168910000Y-61214000D01*
X165735000Y-60325000D02*
X168021000Y-60325000D01*
X164910000Y-63500000D02*
X164910000Y-61150000D01*
X164910000Y-61150000D02*
X165735000Y-60325000D01*
X156464000Y-90424000D02*
X156464000Y-87031002D01*
X162370000Y-66040000D02*
X164910000Y-63500000D01*
X156972000Y-66040000D02*
X162370000Y-66040000D01*
X155892500Y-64960500D02*
X156972000Y-66040000D01*
X143510000Y-62150000D02*
X143510000Y-62050000D01*
X143510000Y-62050000D02*
X144536500Y-61023500D01*
X144536500Y-61023500D02*
X155511500Y-61023500D01*
X155511500Y-61023500D02*
X155892500Y-61404500D01*
X155892500Y-61404500D02*
X155892500Y-64960500D01*
X163893500Y-76708000D02*
X163893500Y-79601502D01*
X164910000Y-75691500D02*
X163893500Y-76708000D01*
X164910000Y-63500000D02*
X164910000Y-75691500D01*
X156464000Y-87031002D02*
X163068000Y-80427002D01*
X163893500Y-79601502D02*
X163068000Y-80427002D01*
X158140000Y-94615000D02*
X158590000Y-94615000D01*
X160910000Y-77500000D02*
X160910000Y-78585002D01*
X133096000Y-69596000D02*
X136652000Y-69596000D01*
X136652000Y-69596000D02*
X138684000Y-67564000D01*
X143764000Y-73660000D02*
X144272000Y-74168000D01*
X143510000Y-73406000D02*
X143764000Y-73660000D01*
X143510000Y-70010000D02*
X143510000Y-73406000D01*
X144272000Y-79756000D02*
X144272000Y-74168000D01*
X148844000Y-84328000D02*
X144272000Y-79756000D01*
X160910000Y-80390000D02*
X160910000Y-77500000D01*
X148844000Y-84328000D02*
X156972000Y-84328000D01*
X156972000Y-84328000D02*
X160910000Y-80390000D01*
X156464000Y-93599000D02*
X157480000Y-94615000D01*
X156464000Y-91948000D02*
X156464000Y-93599000D01*
X148844000Y-84328000D02*
X156464000Y-91948000D01*
X158590000Y-94615000D02*
X157480000Y-94615000D01*
X163990000Y-95885000D02*
X163195000Y-95885000D01*
X163195000Y-95885000D02*
X162560000Y-95250000D01*
X168910000Y-79375000D02*
X168910000Y-77500000D01*
X161290000Y-86995000D02*
X168910000Y-79375000D01*
X133096000Y-74676000D02*
X138684000Y-74676000D01*
X162560000Y-97155000D02*
X163990000Y-97155000D01*
X166910000Y-77500000D02*
X166910000Y-80010000D01*
X160020000Y-86900000D02*
X160020000Y-87630000D01*
X166910000Y-80010000D02*
X160020000Y-86900000D01*
X133096000Y-77216000D02*
X138684000Y-77216000D01*
X145415000Y-70010000D02*
X147320000Y-70010000D01*
D41*
G36*
X170053000Y-80010000D02*
X170062667Y-80058601D01*
X170090197Y-80099803D01*
X170131399Y-80127333D01*
X170180000Y-80137000D01*
X177673000Y-80137000D01*
X177673000Y-101695176D01*
X177205771Y-101227947D01*
X175943264Y-100705000D01*
X174576736Y-100705000D01*
X173314229Y-101227947D01*
X172347947Y-102194229D01*
X171825000Y-103456736D01*
X171825000Y-104823264D01*
X172347947Y-106085771D01*
X172815176Y-106553000D01*
X166017767Y-106553000D01*
X166025000Y-106516635D01*
X166025000Y-105573364D01*
X165953344Y-105213127D01*
X165680385Y-104804615D01*
X165271872Y-104531656D01*
X164790000Y-104435805D01*
X164730904Y-104447560D01*
X164523169Y-104447560D01*
X164563793Y-104298398D01*
X163790000Y-103524605D01*
X163775858Y-103538748D01*
X163596253Y-103359143D01*
X163610395Y-103345000D01*
X163969605Y-103345000D01*
X164743398Y-104118793D01*
X164981753Y-104053878D01*
X165162312Y-103543854D01*
X165133949Y-103003556D01*
X164981753Y-102636122D01*
X164743398Y-102571207D01*
X163969605Y-103345000D01*
X163610395Y-103345000D01*
X162836602Y-102571207D01*
X162598247Y-102636122D01*
X162417688Y-103146146D01*
X162446051Y-103686444D01*
X162528710Y-103886000D01*
X162137440Y-103886000D01*
X162137440Y-102670000D01*
X162088157Y-102422235D01*
X162067689Y-102391602D01*
X163016207Y-102391602D01*
X163790000Y-103165395D01*
X164563793Y-102391602D01*
X164498878Y-102153247D01*
X163988854Y-101972688D01*
X163448556Y-102001051D01*
X163081122Y-102153247D01*
X163016207Y-102391602D01*
X162067689Y-102391602D01*
X162050000Y-102365129D01*
X162050000Y-98710750D01*
X162605000Y-98710750D01*
X162605000Y-98851310D01*
X162701673Y-99084699D01*
X162880302Y-99263327D01*
X163113691Y-99360000D01*
X163704250Y-99360000D01*
X163863000Y-99201250D01*
X163863000Y-98552000D01*
X164117000Y-98552000D01*
X164117000Y-99201250D01*
X164275750Y-99360000D01*
X164866309Y-99360000D01*
X165099698Y-99263327D01*
X165278327Y-99084699D01*
X165375000Y-98851310D01*
X165375000Y-98846750D01*
X167321000Y-98846750D01*
X167321000Y-99262309D01*
X167417673Y-99495698D01*
X167596301Y-99674327D01*
X167829690Y-99771000D01*
X168370250Y-99771000D01*
X168529000Y-99612250D01*
X168529000Y-98688000D01*
X168783000Y-98688000D01*
X168783000Y-99612250D01*
X168941750Y-99771000D01*
X169482310Y-99771000D01*
X169715699Y-99674327D01*
X169894327Y-99495698D01*
X169991000Y-99262309D01*
X169991000Y-98846750D01*
X169832250Y-98688000D01*
X168783000Y-98688000D01*
X168529000Y-98688000D01*
X167479750Y-98688000D01*
X167321000Y-98846750D01*
X165375000Y-98846750D01*
X165375000Y-98710750D01*
X165216250Y-98552000D01*
X164117000Y-98552000D01*
X163863000Y-98552000D01*
X162763750Y-98552000D01*
X162605000Y-98710750D01*
X162050000Y-98710750D01*
X162050000Y-98064027D01*
X162354126Y-98190000D01*
X162655750Y-98190000D01*
X162763750Y-98298000D01*
X163863000Y-98298000D01*
X163863000Y-98278000D01*
X164117000Y-98278000D01*
X164117000Y-98298000D01*
X165216250Y-98298000D01*
X165375000Y-98139250D01*
X165375000Y-97998690D01*
X165285232Y-97781972D01*
X165338157Y-97702765D01*
X165387440Y-97455000D01*
X165387440Y-96855000D01*
X165338157Y-96607235D01*
X165279868Y-96520000D01*
X165338157Y-96432765D01*
X165387440Y-96185000D01*
X165387440Y-95591312D01*
X165529126Y-95650000D01*
X165695199Y-95650000D01*
X167040671Y-96995473D01*
X167083071Y-97058929D01*
X167334463Y-97226904D01*
X167419953Y-97243909D01*
X167571414Y-97470586D01*
X167572597Y-97471377D01*
X167417673Y-97626302D01*
X167321000Y-97859691D01*
X167321000Y-98275250D01*
X167479750Y-98434000D01*
X168529000Y-98434000D01*
X168529000Y-98414000D01*
X168783000Y-98414000D01*
X168783000Y-98434000D01*
X169832250Y-98434000D01*
X169991000Y-98275250D01*
X169991000Y-97859691D01*
X169894327Y-97626302D01*
X169739403Y-97471377D01*
X169740586Y-97470586D01*
X169935127Y-97179436D01*
X170003440Y-96836001D01*
X170003440Y-96185999D01*
X169935127Y-95842564D01*
X169740586Y-95551414D01*
X169449436Y-95356873D01*
X169389746Y-95345000D01*
X169407310Y-95345000D01*
X169640699Y-95248327D01*
X169819327Y-95069698D01*
X169916000Y-94836309D01*
X169916000Y-94245750D01*
X169757250Y-94087000D01*
X168783000Y-94087000D01*
X168783000Y-94107000D01*
X168529000Y-94107000D01*
X168529000Y-94087000D01*
X167554750Y-94087000D01*
X167396000Y-94245750D01*
X167396000Y-94836309D01*
X167492673Y-95069698D01*
X167671301Y-95248327D01*
X167904690Y-95345000D01*
X167922254Y-95345000D01*
X167862564Y-95356873D01*
X167676200Y-95481398D01*
X166770000Y-94575199D01*
X166770000Y-94409126D01*
X166612431Y-94028720D01*
X166321280Y-93737569D01*
X165940874Y-93580000D01*
X165529126Y-93580000D01*
X165387440Y-93638688D01*
X165387440Y-93045000D01*
X165338157Y-92797235D01*
X165279868Y-92710000D01*
X165338157Y-92622765D01*
X165387440Y-92375000D01*
X165387440Y-91775000D01*
X165345669Y-91565000D01*
X166811199Y-91565000D01*
X167190671Y-91944473D01*
X167233071Y-92007929D01*
X167383560Y-92108483D01*
X167383560Y-92210000D01*
X167432843Y-92457765D01*
X167573191Y-92667809D01*
X167634320Y-92708654D01*
X167492673Y-92850302D01*
X167396000Y-93083691D01*
X167396000Y-93674250D01*
X167554750Y-93833000D01*
X168529000Y-93833000D01*
X168529000Y-93813000D01*
X168783000Y-93813000D01*
X168783000Y-93833000D01*
X169757250Y-93833000D01*
X169916000Y-93674250D01*
X169916000Y-93083691D01*
X169819327Y-92850302D01*
X169677680Y-92708654D01*
X169738809Y-92667809D01*
X169879157Y-92457765D01*
X169928440Y-92210000D01*
X169928440Y-92000000D01*
X171535688Y-92000000D01*
X171545853Y-92024540D01*
X171935460Y-92414147D01*
X172444506Y-92625000D01*
X172995494Y-92625000D01*
X173504540Y-92414147D01*
X173894147Y-92024540D01*
X174105000Y-91515494D01*
X174105000Y-90964506D01*
X173894147Y-90455460D01*
X173504540Y-90065853D01*
X172995494Y-89855000D01*
X172444506Y-89855000D01*
X171935460Y-90065853D01*
X171545853Y-90455460D01*
X171535688Y-90480000D01*
X169882691Y-90480000D01*
X169879157Y-90462235D01*
X169738809Y-90252191D01*
X169528765Y-90111843D01*
X169281000Y-90062560D01*
X168031000Y-90062560D01*
X167783235Y-90111843D01*
X167619908Y-90220975D01*
X167422537Y-90089096D01*
X167200852Y-90045000D01*
X167200847Y-90045000D01*
X167126000Y-90030112D01*
X167051153Y-90045000D01*
X166413272Y-90045000D01*
X166430331Y-90019470D01*
X168712362Y-87737440D01*
X169535000Y-87737440D01*
X169782765Y-87688157D01*
X169992809Y-87547809D01*
X170133157Y-87337765D01*
X170176473Y-87120000D01*
X171535688Y-87120000D01*
X171545853Y-87144540D01*
X171935460Y-87534147D01*
X172444506Y-87745000D01*
X172995494Y-87745000D01*
X173504540Y-87534147D01*
X173894147Y-87144540D01*
X174105000Y-86635494D01*
X174105000Y-86084506D01*
X173894147Y-85575460D01*
X173504540Y-85185853D01*
X172995494Y-84975000D01*
X172444506Y-84975000D01*
X171935460Y-85185853D01*
X171545853Y-85575460D01*
X171535688Y-85600000D01*
X170182440Y-85600000D01*
X170182440Y-85590000D01*
X170133157Y-85342235D01*
X169992809Y-85132191D01*
X169931680Y-85091346D01*
X170073327Y-84949698D01*
X170170000Y-84716309D01*
X170170000Y-84125750D01*
X170011250Y-83967000D01*
X169037000Y-83967000D01*
X169037000Y-83987000D01*
X168783000Y-83987000D01*
X168783000Y-83967000D01*
X167808750Y-83967000D01*
X167650000Y-84125750D01*
X167650000Y-84716309D01*
X167746673Y-84949698D01*
X167888320Y-85091346D01*
X167827191Y-85132191D01*
X167686843Y-85342235D01*
X167637560Y-85590000D01*
X167637560Y-86662638D01*
X165525199Y-88775000D01*
X165194530Y-88775000D01*
X164987765Y-88636843D01*
X164740000Y-88587560D01*
X163240000Y-88587560D01*
X162992235Y-88636843D01*
X162782191Y-88777191D01*
X162641843Y-88987235D01*
X162592560Y-89235000D01*
X162592560Y-89835000D01*
X162641843Y-90082765D01*
X162700132Y-90170000D01*
X162641843Y-90257235D01*
X162592560Y-90505000D01*
X162592560Y-91105000D01*
X162634310Y-91314893D01*
X162559999Y-91300112D01*
X162485152Y-91315000D01*
X162485148Y-91315000D01*
X162263463Y-91359096D01*
X162012071Y-91527071D01*
X161969671Y-91590527D01*
X160155530Y-93404669D01*
X160092071Y-93447071D01*
X159987440Y-93603663D01*
X159987440Y-93045000D01*
X159938157Y-92797235D01*
X159879868Y-92710000D01*
X159938157Y-92622765D01*
X159987440Y-92375000D01*
X159987440Y-91775000D01*
X159938157Y-91527235D01*
X159879868Y-91440000D01*
X159938157Y-91352765D01*
X159987440Y-91105000D01*
X159987440Y-90505000D01*
X159938157Y-90257235D01*
X159879868Y-90170000D01*
X159938157Y-90082765D01*
X159987440Y-89835000D01*
X159987440Y-89235000D01*
X159938157Y-88987235D01*
X159797809Y-88777191D01*
X159587765Y-88636843D01*
X159340000Y-88587560D01*
X157840000Y-88587560D01*
X157592235Y-88636843D01*
X157382191Y-88777191D01*
X157241843Y-88987235D01*
X157224000Y-89076939D01*
X157224000Y-87345803D01*
X163658329Y-80911476D01*
X163658333Y-80911471D01*
X164377975Y-80191829D01*
X164441429Y-80149431D01*
X164476168Y-80097440D01*
X165460000Y-80097440D01*
X165707765Y-80048157D01*
X165910000Y-79913027D01*
X165923290Y-79921907D01*
X159535530Y-86309669D01*
X159472071Y-86352071D01*
X159304096Y-86603464D01*
X159260000Y-86825149D01*
X159260000Y-86825153D01*
X159245112Y-86900000D01*
X159251944Y-86934345D01*
X159142569Y-87043720D01*
X158985000Y-87424126D01*
X158985000Y-87835874D01*
X159142569Y-88216280D01*
X159433720Y-88507431D01*
X159814126Y-88665000D01*
X160225874Y-88665000D01*
X160606280Y-88507431D01*
X160897431Y-88216280D01*
X160990632Y-87991273D01*
X161084126Y-88030000D01*
X161495874Y-88030000D01*
X161876280Y-87872431D01*
X162167431Y-87581280D01*
X162325000Y-87200874D01*
X162325000Y-87034801D01*
X166396111Y-82963691D01*
X167650000Y-82963691D01*
X167650000Y-83554250D01*
X167808750Y-83713000D01*
X168783000Y-83713000D01*
X168783000Y-82613750D01*
X169037000Y-82613750D01*
X169037000Y-83713000D01*
X170011250Y-83713000D01*
X170170000Y-83554250D01*
X170170000Y-82963691D01*
X170073327Y-82730302D01*
X169894699Y-82551673D01*
X169661310Y-82455000D01*
X169195750Y-82455000D01*
X169037000Y-82613750D01*
X168783000Y-82613750D01*
X168624250Y-82455000D01*
X168158690Y-82455000D01*
X167925301Y-82551673D01*
X167746673Y-82730302D01*
X167650000Y-82963691D01*
X166396111Y-82963691D01*
X169262363Y-80097440D01*
X169460000Y-80097440D01*
X169707765Y-80048157D01*
X169917809Y-79907809D01*
X170053000Y-79705483D01*
X170053000Y-80010000D01*
X170053000Y-80010000D01*
G37*
X170053000Y-80010000D02*
X170062667Y-80058601D01*
X170090197Y-80099803D01*
X170131399Y-80127333D01*
X170180000Y-80137000D01*
X177673000Y-80137000D01*
X177673000Y-101695176D01*
X177205771Y-101227947D01*
X175943264Y-100705000D01*
X174576736Y-100705000D01*
X173314229Y-101227947D01*
X172347947Y-102194229D01*
X171825000Y-103456736D01*
X171825000Y-104823264D01*
X172347947Y-106085771D01*
X172815176Y-106553000D01*
X166017767Y-106553000D01*
X166025000Y-106516635D01*
X166025000Y-105573364D01*
X165953344Y-105213127D01*
X165680385Y-104804615D01*
X165271872Y-104531656D01*
X164790000Y-104435805D01*
X164730904Y-104447560D01*
X164523169Y-104447560D01*
X164563793Y-104298398D01*
X163790000Y-103524605D01*
X163775858Y-103538748D01*
X163596253Y-103359143D01*
X163610395Y-103345000D01*
X163969605Y-103345000D01*
X164743398Y-104118793D01*
X164981753Y-104053878D01*
X165162312Y-103543854D01*
X165133949Y-103003556D01*
X164981753Y-102636122D01*
X164743398Y-102571207D01*
X163969605Y-103345000D01*
X163610395Y-103345000D01*
X162836602Y-102571207D01*
X162598247Y-102636122D01*
X162417688Y-103146146D01*
X162446051Y-103686444D01*
X162528710Y-103886000D01*
X162137440Y-103886000D01*
X162137440Y-102670000D01*
X162088157Y-102422235D01*
X162067689Y-102391602D01*
X163016207Y-102391602D01*
X163790000Y-103165395D01*
X164563793Y-102391602D01*
X164498878Y-102153247D01*
X163988854Y-101972688D01*
X163448556Y-102001051D01*
X163081122Y-102153247D01*
X163016207Y-102391602D01*
X162067689Y-102391602D01*
X162050000Y-102365129D01*
X162050000Y-98710750D01*
X162605000Y-98710750D01*
X162605000Y-98851310D01*
X162701673Y-99084699D01*
X162880302Y-99263327D01*
X163113691Y-99360000D01*
X163704250Y-99360000D01*
X163863000Y-99201250D01*
X163863000Y-98552000D01*
X164117000Y-98552000D01*
X164117000Y-99201250D01*
X164275750Y-99360000D01*
X164866309Y-99360000D01*
X165099698Y-99263327D01*
X165278327Y-99084699D01*
X165375000Y-98851310D01*
X165375000Y-98846750D01*
X167321000Y-98846750D01*
X167321000Y-99262309D01*
X167417673Y-99495698D01*
X167596301Y-99674327D01*
X167829690Y-99771000D01*
X168370250Y-99771000D01*
X168529000Y-99612250D01*
X168529000Y-98688000D01*
X168783000Y-98688000D01*
X168783000Y-99612250D01*
X168941750Y-99771000D01*
X169482310Y-99771000D01*
X169715699Y-99674327D01*
X169894327Y-99495698D01*
X169991000Y-99262309D01*
X169991000Y-98846750D01*
X169832250Y-98688000D01*
X168783000Y-98688000D01*
X168529000Y-98688000D01*
X167479750Y-98688000D01*
X167321000Y-98846750D01*
X165375000Y-98846750D01*
X165375000Y-98710750D01*
X165216250Y-98552000D01*
X164117000Y-98552000D01*
X163863000Y-98552000D01*
X162763750Y-98552000D01*
X162605000Y-98710750D01*
X162050000Y-98710750D01*
X162050000Y-98064027D01*
X162354126Y-98190000D01*
X162655750Y-98190000D01*
X162763750Y-98298000D01*
X163863000Y-98298000D01*
X163863000Y-98278000D01*
X164117000Y-98278000D01*
X164117000Y-98298000D01*
X165216250Y-98298000D01*
X165375000Y-98139250D01*
X165375000Y-97998690D01*
X165285232Y-97781972D01*
X165338157Y-97702765D01*
X165387440Y-97455000D01*
X165387440Y-96855000D01*
X165338157Y-96607235D01*
X165279868Y-96520000D01*
X165338157Y-96432765D01*
X165387440Y-96185000D01*
X165387440Y-95591312D01*
X165529126Y-95650000D01*
X165695199Y-95650000D01*
X167040671Y-96995473D01*
X167083071Y-97058929D01*
X167334463Y-97226904D01*
X167419953Y-97243909D01*
X167571414Y-97470586D01*
X167572597Y-97471377D01*
X167417673Y-97626302D01*
X167321000Y-97859691D01*
X167321000Y-98275250D01*
X167479750Y-98434000D01*
X168529000Y-98434000D01*
X168529000Y-98414000D01*
X168783000Y-98414000D01*
X168783000Y-98434000D01*
X169832250Y-98434000D01*
X169991000Y-98275250D01*
X169991000Y-97859691D01*
X169894327Y-97626302D01*
X169739403Y-97471377D01*
X169740586Y-97470586D01*
X169935127Y-97179436D01*
X170003440Y-96836001D01*
X170003440Y-96185999D01*
X169935127Y-95842564D01*
X169740586Y-95551414D01*
X169449436Y-95356873D01*
X169389746Y-95345000D01*
X169407310Y-95345000D01*
X169640699Y-95248327D01*
X169819327Y-95069698D01*
X169916000Y-94836309D01*
X169916000Y-94245750D01*
X169757250Y-94087000D01*
X168783000Y-94087000D01*
X168783000Y-94107000D01*
X168529000Y-94107000D01*
X168529000Y-94087000D01*
X167554750Y-94087000D01*
X167396000Y-94245750D01*
X167396000Y-94836309D01*
X167492673Y-95069698D01*
X167671301Y-95248327D01*
X167904690Y-95345000D01*
X167922254Y-95345000D01*
X167862564Y-95356873D01*
X167676200Y-95481398D01*
X166770000Y-94575199D01*
X166770000Y-94409126D01*
X166612431Y-94028720D01*
X166321280Y-93737569D01*
X165940874Y-93580000D01*
X165529126Y-93580000D01*
X165387440Y-93638688D01*
X165387440Y-93045000D01*
X165338157Y-92797235D01*
X165279868Y-92710000D01*
X165338157Y-92622765D01*
X165387440Y-92375000D01*
X165387440Y-91775000D01*
X165345669Y-91565000D01*
X166811199Y-91565000D01*
X167190671Y-91944473D01*
X167233071Y-92007929D01*
X167383560Y-92108483D01*
X167383560Y-92210000D01*
X167432843Y-92457765D01*
X167573191Y-92667809D01*
X167634320Y-92708654D01*
X167492673Y-92850302D01*
X167396000Y-93083691D01*
X167396000Y-93674250D01*
X167554750Y-93833000D01*
X168529000Y-93833000D01*
X168529000Y-93813000D01*
X168783000Y-93813000D01*
X168783000Y-93833000D01*
X169757250Y-93833000D01*
X169916000Y-93674250D01*
X169916000Y-93083691D01*
X169819327Y-92850302D01*
X169677680Y-92708654D01*
X169738809Y-92667809D01*
X169879157Y-92457765D01*
X169928440Y-92210000D01*
X169928440Y-92000000D01*
X171535688Y-92000000D01*
X171545853Y-92024540D01*
X171935460Y-92414147D01*
X172444506Y-92625000D01*
X172995494Y-92625000D01*
X173504540Y-92414147D01*
X173894147Y-92024540D01*
X174105000Y-91515494D01*
X174105000Y-90964506D01*
X173894147Y-90455460D01*
X173504540Y-90065853D01*
X172995494Y-89855000D01*
X172444506Y-89855000D01*
X171935460Y-90065853D01*
X171545853Y-90455460D01*
X171535688Y-90480000D01*
X169882691Y-90480000D01*
X169879157Y-90462235D01*
X169738809Y-90252191D01*
X169528765Y-90111843D01*
X169281000Y-90062560D01*
X168031000Y-90062560D01*
X167783235Y-90111843D01*
X167619908Y-90220975D01*
X167422537Y-90089096D01*
X167200852Y-90045000D01*
X167200847Y-90045000D01*
X167126000Y-90030112D01*
X167051153Y-90045000D01*
X166413272Y-90045000D01*
X166430331Y-90019470D01*
X168712362Y-87737440D01*
X169535000Y-87737440D01*
X169782765Y-87688157D01*
X169992809Y-87547809D01*
X170133157Y-87337765D01*
X170176473Y-87120000D01*
X171535688Y-87120000D01*
X171545853Y-87144540D01*
X171935460Y-87534147D01*
X172444506Y-87745000D01*
X172995494Y-87745000D01*
X173504540Y-87534147D01*
X173894147Y-87144540D01*
X174105000Y-86635494D01*
X174105000Y-86084506D01*
X173894147Y-85575460D01*
X173504540Y-85185853D01*
X172995494Y-84975000D01*
X172444506Y-84975000D01*
X171935460Y-85185853D01*
X171545853Y-85575460D01*
X171535688Y-85600000D01*
X170182440Y-85600000D01*
X170182440Y-85590000D01*
X170133157Y-85342235D01*
X169992809Y-85132191D01*
X169931680Y-85091346D01*
X170073327Y-84949698D01*
X170170000Y-84716309D01*
X170170000Y-84125750D01*
X170011250Y-83967000D01*
X169037000Y-83967000D01*
X169037000Y-83987000D01*
X168783000Y-83987000D01*
X168783000Y-83967000D01*
X167808750Y-83967000D01*
X167650000Y-84125750D01*
X167650000Y-84716309D01*
X167746673Y-84949698D01*
X167888320Y-85091346D01*
X167827191Y-85132191D01*
X167686843Y-85342235D01*
X167637560Y-85590000D01*
X167637560Y-86662638D01*
X165525199Y-88775000D01*
X165194530Y-88775000D01*
X164987765Y-88636843D01*
X164740000Y-88587560D01*
X163240000Y-88587560D01*
X162992235Y-88636843D01*
X162782191Y-88777191D01*
X162641843Y-88987235D01*
X162592560Y-89235000D01*
X162592560Y-89835000D01*
X162641843Y-90082765D01*
X162700132Y-90170000D01*
X162641843Y-90257235D01*
X162592560Y-90505000D01*
X162592560Y-91105000D01*
X162634310Y-91314893D01*
X162559999Y-91300112D01*
X162485152Y-91315000D01*
X162485148Y-91315000D01*
X162263463Y-91359096D01*
X162012071Y-91527071D01*
X161969671Y-91590527D01*
X160155530Y-93404669D01*
X160092071Y-93447071D01*
X159987440Y-93603663D01*
X159987440Y-93045000D01*
X159938157Y-92797235D01*
X159879868Y-92710000D01*
X159938157Y-92622765D01*
X159987440Y-92375000D01*
X159987440Y-91775000D01*
X159938157Y-91527235D01*
X159879868Y-91440000D01*
X159938157Y-91352765D01*
X159987440Y-91105000D01*
X159987440Y-90505000D01*
X159938157Y-90257235D01*
X159879868Y-90170000D01*
X159938157Y-90082765D01*
X159987440Y-89835000D01*
X159987440Y-89235000D01*
X159938157Y-88987235D01*
X159797809Y-88777191D01*
X159587765Y-88636843D01*
X159340000Y-88587560D01*
X157840000Y-88587560D01*
X157592235Y-88636843D01*
X157382191Y-88777191D01*
X157241843Y-88987235D01*
X157224000Y-89076939D01*
X157224000Y-87345803D01*
X163658329Y-80911476D01*
X163658333Y-80911471D01*
X164377975Y-80191829D01*
X164441429Y-80149431D01*
X164476168Y-80097440D01*
X165460000Y-80097440D01*
X165707765Y-80048157D01*
X165910000Y-79913027D01*
X165923290Y-79921907D01*
X159535530Y-86309669D01*
X159472071Y-86352071D01*
X159304096Y-86603464D01*
X159260000Y-86825149D01*
X159260000Y-86825153D01*
X159245112Y-86900000D01*
X159251944Y-86934345D01*
X159142569Y-87043720D01*
X158985000Y-87424126D01*
X158985000Y-87835874D01*
X159142569Y-88216280D01*
X159433720Y-88507431D01*
X159814126Y-88665000D01*
X160225874Y-88665000D01*
X160606280Y-88507431D01*
X160897431Y-88216280D01*
X160990632Y-87991273D01*
X161084126Y-88030000D01*
X161495874Y-88030000D01*
X161876280Y-87872431D01*
X162167431Y-87581280D01*
X162325000Y-87200874D01*
X162325000Y-87034801D01*
X166396111Y-82963691D01*
X167650000Y-82963691D01*
X167650000Y-83554250D01*
X167808750Y-83713000D01*
X168783000Y-83713000D01*
X168783000Y-82613750D01*
X169037000Y-82613750D01*
X169037000Y-83713000D01*
X170011250Y-83713000D01*
X170170000Y-83554250D01*
X170170000Y-82963691D01*
X170073327Y-82730302D01*
X169894699Y-82551673D01*
X169661310Y-82455000D01*
X169195750Y-82455000D01*
X169037000Y-82613750D01*
X168783000Y-82613750D01*
X168624250Y-82455000D01*
X168158690Y-82455000D01*
X167925301Y-82551673D01*
X167746673Y-82730302D01*
X167650000Y-82963691D01*
X166396111Y-82963691D01*
X169262363Y-80097440D01*
X169460000Y-80097440D01*
X169707765Y-80048157D01*
X169917809Y-79907809D01*
X170053000Y-79705483D01*
X170053000Y-80010000D01*
G36*
X172347947Y-27264229D02*
X171825000Y-28526736D01*
X171825000Y-29893264D01*
X172347947Y-31155771D01*
X173314229Y-32122053D01*
X174576736Y-32645000D01*
X175943264Y-32645000D01*
X177205771Y-32122053D01*
X177673000Y-31654824D01*
X177673000Y-60833000D01*
X170180000Y-60833000D01*
X170131399Y-60842667D01*
X170090197Y-60870197D01*
X170062667Y-60911399D01*
X170053000Y-60960000D01*
X170053000Y-61294517D01*
X169917809Y-61092191D01*
X169707765Y-60951843D01*
X169629652Y-60936306D01*
X169625904Y-60917463D01*
X169457929Y-60666071D01*
X169394473Y-60623671D01*
X168611331Y-59840530D01*
X168568929Y-59777071D01*
X168317537Y-59609096D01*
X168095852Y-59565000D01*
X168095847Y-59565000D01*
X168021000Y-59550112D01*
X167946153Y-59565000D01*
X165809846Y-59565000D01*
X165734999Y-59550112D01*
X165660152Y-59565000D01*
X165660148Y-59565000D01*
X165438463Y-59609096D01*
X165187071Y-59777071D01*
X165144671Y-59840527D01*
X164425528Y-60559671D01*
X164362072Y-60602071D01*
X164319672Y-60665527D01*
X164319671Y-60665528D01*
X164194097Y-60853463D01*
X164177094Y-60938942D01*
X164112235Y-60951843D01*
X163910000Y-61086973D01*
X163707765Y-60951843D01*
X163460000Y-60902560D01*
X162936242Y-60902560D01*
X164369363Y-59469440D01*
X165242000Y-59469440D01*
X165489765Y-59420157D01*
X165699809Y-59279809D01*
X165840157Y-59069765D01*
X165889440Y-58822000D01*
X165889440Y-57844242D01*
X166601670Y-58556472D01*
X166644071Y-58619929D01*
X166895463Y-58787904D01*
X167117148Y-58832000D01*
X167117152Y-58832000D01*
X167191999Y-58846888D01*
X167266846Y-58832000D01*
X168376549Y-58832000D01*
X168423843Y-59069765D01*
X168564191Y-59279809D01*
X168774235Y-59420157D01*
X169022000Y-59469440D01*
X170322000Y-59469440D01*
X170569765Y-59420157D01*
X170779809Y-59279809D01*
X170920157Y-59069765D01*
X170969440Y-58822000D01*
X170969440Y-57322000D01*
X170920157Y-57074235D01*
X170779809Y-56864191D01*
X170569765Y-56723843D01*
X170541791Y-56718279D01*
X170681699Y-56660327D01*
X170860327Y-56481698D01*
X170957000Y-56248309D01*
X170957000Y-55657750D01*
X170798250Y-55499000D01*
X169799000Y-55499000D01*
X169799000Y-55519000D01*
X169545000Y-55519000D01*
X169545000Y-55499000D01*
X168545750Y-55499000D01*
X168387000Y-55657750D01*
X168387000Y-56248309D01*
X168483673Y-56481698D01*
X168662301Y-56660327D01*
X168802209Y-56718279D01*
X168774235Y-56723843D01*
X168564191Y-56864191D01*
X168423843Y-57074235D01*
X168376549Y-57312000D01*
X167506802Y-57312000D01*
X165889440Y-55694639D01*
X165889440Y-54622000D01*
X165864316Y-54495691D01*
X168387000Y-54495691D01*
X168387000Y-55086250D01*
X168545750Y-55245000D01*
X169545000Y-55245000D01*
X169545000Y-54145750D01*
X169799000Y-54145750D01*
X169799000Y-55245000D01*
X170798250Y-55245000D01*
X170957000Y-55086250D01*
X170957000Y-54495691D01*
X170860327Y-54262302D01*
X170681699Y-54083673D01*
X170448310Y-53987000D01*
X169957750Y-53987000D01*
X169799000Y-54145750D01*
X169545000Y-54145750D01*
X169386250Y-53987000D01*
X168895690Y-53987000D01*
X168662301Y-54083673D01*
X168483673Y-54262302D01*
X168387000Y-54495691D01*
X165864316Y-54495691D01*
X165840157Y-54374235D01*
X165699809Y-54164191D01*
X165489765Y-54023843D01*
X165352000Y-53996440D01*
X165352000Y-53699440D01*
X165452000Y-53699440D01*
X165699765Y-53650157D01*
X165909809Y-53509809D01*
X166050157Y-53299765D01*
X166099440Y-53052000D01*
X166099440Y-52237750D01*
X168177000Y-52237750D01*
X168177000Y-53178309D01*
X168273673Y-53411698D01*
X168452301Y-53590327D01*
X168685690Y-53687000D01*
X169126250Y-53687000D01*
X169285000Y-53528250D01*
X169285000Y-52079000D01*
X169539000Y-52079000D01*
X169539000Y-53528250D01*
X169697750Y-53687000D01*
X170138310Y-53687000D01*
X170371699Y-53590327D01*
X170550327Y-53411698D01*
X170647000Y-53178309D01*
X170647000Y-52237750D01*
X170488250Y-52079000D01*
X169539000Y-52079000D01*
X169285000Y-52079000D01*
X168335750Y-52079000D01*
X168177000Y-52237750D01*
X166099440Y-52237750D01*
X166099440Y-50852000D01*
X166074316Y-50725691D01*
X168177000Y-50725691D01*
X168177000Y-51666250D01*
X168335750Y-51825000D01*
X169285000Y-51825000D01*
X169285000Y-50375750D01*
X169539000Y-50375750D01*
X169539000Y-51825000D01*
X170488250Y-51825000D01*
X170647000Y-51666250D01*
X170647000Y-50725691D01*
X170550327Y-50492302D01*
X170371699Y-50313673D01*
X170138310Y-50217000D01*
X169697750Y-50217000D01*
X169539000Y-50375750D01*
X169285000Y-50375750D01*
X169126250Y-50217000D01*
X168685690Y-50217000D01*
X168452301Y-50313673D01*
X168273673Y-50492302D01*
X168177000Y-50725691D01*
X166074316Y-50725691D01*
X166050157Y-50604235D01*
X165909809Y-50394191D01*
X165699765Y-50253843D01*
X165452000Y-50204560D01*
X164252000Y-50204560D01*
X164004235Y-50253843D01*
X163794191Y-50394191D01*
X163653843Y-50604235D01*
X163604560Y-50852000D01*
X163604560Y-53052000D01*
X163653843Y-53299765D01*
X163794191Y-53509809D01*
X163832001Y-53535073D01*
X163832000Y-53996440D01*
X163694235Y-54023843D01*
X163484191Y-54164191D01*
X163343843Y-54374235D01*
X163294560Y-54622000D01*
X163294560Y-56122000D01*
X163343843Y-56369765D01*
X163484191Y-56579809D01*
X163694235Y-56720157D01*
X163703500Y-56722000D01*
X163694235Y-56723843D01*
X163484191Y-56864191D01*
X163343843Y-57074235D01*
X163294560Y-57322000D01*
X163294560Y-58394637D01*
X160786639Y-60902560D01*
X160360000Y-60902560D01*
X160112235Y-60951843D01*
X159910000Y-61086973D01*
X159707765Y-60951843D01*
X159460000Y-60902560D01*
X159253363Y-60902560D01*
X156745440Y-58394639D01*
X156745440Y-57844242D01*
X157457670Y-58556472D01*
X157500071Y-58619929D01*
X157751463Y-58787904D01*
X157973148Y-58832000D01*
X157973152Y-58832000D01*
X158047999Y-58846888D01*
X158122846Y-58832000D01*
X159232549Y-58832000D01*
X159279843Y-59069765D01*
X159420191Y-59279809D01*
X159630235Y-59420157D01*
X159878000Y-59469440D01*
X161178000Y-59469440D01*
X161425765Y-59420157D01*
X161635809Y-59279809D01*
X161776157Y-59069765D01*
X161825440Y-58822000D01*
X161825440Y-57322000D01*
X161776157Y-57074235D01*
X161635809Y-56864191D01*
X161425765Y-56723843D01*
X161397791Y-56718279D01*
X161537699Y-56660327D01*
X161716327Y-56481698D01*
X161813000Y-56248309D01*
X161813000Y-55657750D01*
X161654250Y-55499000D01*
X160655000Y-55499000D01*
X160655000Y-55519000D01*
X160401000Y-55519000D01*
X160401000Y-55499000D01*
X159401750Y-55499000D01*
X159243000Y-55657750D01*
X159243000Y-56248309D01*
X159339673Y-56481698D01*
X159518301Y-56660327D01*
X159658209Y-56718279D01*
X159630235Y-56723843D01*
X159420191Y-56864191D01*
X159279843Y-57074235D01*
X159232549Y-57312000D01*
X158362802Y-57312000D01*
X156745440Y-55694639D01*
X156745440Y-54622000D01*
X156720316Y-54495691D01*
X159243000Y-54495691D01*
X159243000Y-55086250D01*
X159401750Y-55245000D01*
X160401000Y-55245000D01*
X160401000Y-54145750D01*
X160655000Y-54145750D01*
X160655000Y-55245000D01*
X161654250Y-55245000D01*
X161813000Y-55086250D01*
X161813000Y-54495691D01*
X161716327Y-54262302D01*
X161537699Y-54083673D01*
X161304310Y-53987000D01*
X160813750Y-53987000D01*
X160655000Y-54145750D01*
X160401000Y-54145750D01*
X160242250Y-53987000D01*
X159751690Y-53987000D01*
X159518301Y-54083673D01*
X159339673Y-54262302D01*
X159243000Y-54495691D01*
X156720316Y-54495691D01*
X156696157Y-54374235D01*
X156555809Y-54164191D01*
X156345765Y-54023843D01*
X156208000Y-53996440D01*
X156208000Y-53699440D01*
X156308000Y-53699440D01*
X156555765Y-53650157D01*
X156765809Y-53509809D01*
X156906157Y-53299765D01*
X156955440Y-53052000D01*
X156955440Y-52237750D01*
X159033000Y-52237750D01*
X159033000Y-53178309D01*
X159129673Y-53411698D01*
X159308301Y-53590327D01*
X159541690Y-53687000D01*
X159982250Y-53687000D01*
X160141000Y-53528250D01*
X160141000Y-52079000D01*
X160395000Y-52079000D01*
X160395000Y-53528250D01*
X160553750Y-53687000D01*
X160994310Y-53687000D01*
X161227699Y-53590327D01*
X161406327Y-53411698D01*
X161503000Y-53178309D01*
X161503000Y-52237750D01*
X161344250Y-52079000D01*
X160395000Y-52079000D01*
X160141000Y-52079000D01*
X159191750Y-52079000D01*
X159033000Y-52237750D01*
X156955440Y-52237750D01*
X156955440Y-50852000D01*
X156930316Y-50725691D01*
X159033000Y-50725691D01*
X159033000Y-51666250D01*
X159191750Y-51825000D01*
X160141000Y-51825000D01*
X160141000Y-50375750D01*
X160395000Y-50375750D01*
X160395000Y-51825000D01*
X161344250Y-51825000D01*
X161503000Y-51666250D01*
X161503000Y-50725691D01*
X161406327Y-50492302D01*
X161227699Y-50313673D01*
X160994310Y-50217000D01*
X160553750Y-50217000D01*
X160395000Y-50375750D01*
X160141000Y-50375750D01*
X159982250Y-50217000D01*
X159541690Y-50217000D01*
X159308301Y-50313673D01*
X159129673Y-50492302D01*
X159033000Y-50725691D01*
X156930316Y-50725691D01*
X156906157Y-50604235D01*
X156765809Y-50394191D01*
X156555765Y-50253843D01*
X156308000Y-50204560D01*
X155108000Y-50204560D01*
X154860235Y-50253843D01*
X154650191Y-50394191D01*
X154509843Y-50604235D01*
X154460560Y-50852000D01*
X154460560Y-53052000D01*
X154509843Y-53299765D01*
X154650191Y-53509809D01*
X154688001Y-53535073D01*
X154688000Y-53996440D01*
X154550235Y-54023843D01*
X154340191Y-54164191D01*
X154199843Y-54374235D01*
X154150560Y-54622000D01*
X154150560Y-56122000D01*
X154199843Y-56369765D01*
X154340191Y-56579809D01*
X154550235Y-56720157D01*
X154559500Y-56722000D01*
X154550235Y-56723843D01*
X154340191Y-56864191D01*
X154199843Y-57074235D01*
X154150560Y-57322000D01*
X154150560Y-58822000D01*
X154199843Y-59069765D01*
X154276173Y-59184000D01*
X152555827Y-59184000D01*
X152632157Y-59069765D01*
X152681440Y-58822000D01*
X152681440Y-57322000D01*
X152632157Y-57074235D01*
X152491809Y-56864191D01*
X152281765Y-56723843D01*
X152253791Y-56718279D01*
X152393699Y-56660327D01*
X152572327Y-56481698D01*
X152669000Y-56248309D01*
X152669000Y-55657750D01*
X152510250Y-55499000D01*
X151511000Y-55499000D01*
X151511000Y-55519000D01*
X151257000Y-55519000D01*
X151257000Y-55499000D01*
X150257750Y-55499000D01*
X150099000Y-55657750D01*
X150099000Y-56248309D01*
X150195673Y-56481698D01*
X150374301Y-56660327D01*
X150514209Y-56718279D01*
X150486235Y-56723843D01*
X150276191Y-56864191D01*
X150135843Y-57074235D01*
X150088549Y-57312000D01*
X149218802Y-57312000D01*
X147601440Y-55694639D01*
X147601440Y-54622000D01*
X147552157Y-54374235D01*
X147411809Y-54164191D01*
X147404840Y-54159534D01*
X147411765Y-54158157D01*
X147621809Y-54017809D01*
X147762157Y-53807765D01*
X147811440Y-53560000D01*
X147811440Y-52745750D01*
X149889000Y-52745750D01*
X149889000Y-53686309D01*
X149985673Y-53919698D01*
X150164301Y-54098327D01*
X150302432Y-54155543D01*
X150195673Y-54262302D01*
X150099000Y-54495691D01*
X150099000Y-55086250D01*
X150257750Y-55245000D01*
X151257000Y-55245000D01*
X151257000Y-55225000D01*
X151511000Y-55225000D01*
X151511000Y-55245000D01*
X152510250Y-55245000D01*
X152669000Y-55086250D01*
X152669000Y-54495691D01*
X152572327Y-54262302D01*
X152393699Y-54083673D01*
X152184858Y-53997168D01*
X152262327Y-53919698D01*
X152359000Y-53686309D01*
X152359000Y-52745750D01*
X152200250Y-52587000D01*
X151251000Y-52587000D01*
X151251000Y-52607000D01*
X150997000Y-52607000D01*
X150997000Y-52587000D01*
X150047750Y-52587000D01*
X149889000Y-52745750D01*
X147811440Y-52745750D01*
X147811440Y-51360000D01*
X147786316Y-51233691D01*
X149889000Y-51233691D01*
X149889000Y-52174250D01*
X150047750Y-52333000D01*
X150997000Y-52333000D01*
X150997000Y-50883750D01*
X151251000Y-50883750D01*
X151251000Y-52333000D01*
X152200250Y-52333000D01*
X152359000Y-52174250D01*
X152359000Y-51233691D01*
X152262327Y-51000302D01*
X152083699Y-50821673D01*
X151850310Y-50725000D01*
X151409750Y-50725000D01*
X151251000Y-50883750D01*
X150997000Y-50883750D01*
X150838250Y-50725000D01*
X150397690Y-50725000D01*
X150164301Y-50821673D01*
X149985673Y-51000302D01*
X149889000Y-51233691D01*
X147786316Y-51233691D01*
X147762157Y-51112235D01*
X147621809Y-50902191D01*
X147411765Y-50761843D01*
X147164000Y-50712560D01*
X145964000Y-50712560D01*
X145716235Y-50761843D01*
X145506191Y-50902191D01*
X145365843Y-51112235D01*
X145316560Y-51360000D01*
X145316560Y-53560000D01*
X145365843Y-53807765D01*
X145498023Y-54005585D01*
X145406235Y-54023843D01*
X145196191Y-54164191D01*
X145055843Y-54374235D01*
X145006560Y-54622000D01*
X145006560Y-56122000D01*
X145055843Y-56369765D01*
X145196191Y-56579809D01*
X145406235Y-56720157D01*
X145415500Y-56722000D01*
X145406235Y-56723843D01*
X145196191Y-56864191D01*
X145055843Y-57074235D01*
X145006560Y-57322000D01*
X145006560Y-58822000D01*
X145055843Y-59069765D01*
X145196191Y-59279809D01*
X145406235Y-59420157D01*
X145654000Y-59469440D01*
X146954000Y-59469440D01*
X147201765Y-59420157D01*
X147366969Y-59309770D01*
X148320698Y-60263500D01*
X144611346Y-60263500D01*
X144536499Y-60248612D01*
X144461652Y-60263500D01*
X144461648Y-60263500D01*
X144239963Y-60307596D01*
X143988571Y-60475571D01*
X143957249Y-60522447D01*
X140443331Y-57008530D01*
X140400929Y-56945071D01*
X140149537Y-56777096D01*
X139927852Y-56733000D01*
X139927847Y-56733000D01*
X139853000Y-56718112D01*
X139778153Y-56733000D01*
X139183440Y-56733000D01*
X139183440Y-56718000D01*
X139134157Y-56470235D01*
X138993809Y-56260191D01*
X138783765Y-56119843D01*
X138536000Y-56070560D01*
X137236000Y-56070560D01*
X136988235Y-56119843D01*
X136778191Y-56260191D01*
X136637843Y-56470235D01*
X136588560Y-56718000D01*
X136588560Y-58268000D01*
X136637843Y-58515765D01*
X136778191Y-58725809D01*
X136988235Y-58866157D01*
X137236000Y-58915440D01*
X138536000Y-58915440D01*
X138783765Y-58866157D01*
X138993809Y-58725809D01*
X139134157Y-58515765D01*
X139183440Y-58268000D01*
X139183440Y-58253000D01*
X139538199Y-58253000D01*
X142332175Y-61046977D01*
X142261843Y-61152235D01*
X142212560Y-61400000D01*
X142212560Y-62472638D01*
X140739528Y-63945671D01*
X140676072Y-63988071D01*
X140633672Y-64051527D01*
X140633671Y-64051528D01*
X140607965Y-64090000D01*
X140508097Y-64239463D01*
X140482098Y-64370171D01*
X140449112Y-64536000D01*
X140464001Y-64610852D01*
X140464000Y-66233198D01*
X139607722Y-67089476D01*
X139561431Y-66977720D01*
X139270280Y-66686569D01*
X139048110Y-66594543D01*
X139134157Y-66465765D01*
X139183440Y-66218000D01*
X139183440Y-64668000D01*
X139134157Y-64420235D01*
X138993809Y-64210191D01*
X138783765Y-64069843D01*
X138536000Y-64020560D01*
X137236000Y-64020560D01*
X136988235Y-64069843D01*
X136778191Y-64210191D01*
X136637843Y-64420235D01*
X136588560Y-64668000D01*
X136588560Y-66218000D01*
X136637843Y-66465765D01*
X136778191Y-66675809D01*
X136988235Y-66816157D01*
X137236000Y-66865440D01*
X137918849Y-66865440D01*
X137806569Y-66977720D01*
X137649000Y-67358126D01*
X137649000Y-67524198D01*
X136337199Y-68836000D01*
X134374178Y-68836000D01*
X134166625Y-68525375D01*
X133675418Y-68197161D01*
X133242256Y-68111000D01*
X132949744Y-68111000D01*
X132516582Y-68197161D01*
X132025375Y-68525375D01*
X131697161Y-69016582D01*
X131581908Y-69596000D01*
X131697161Y-70175418D01*
X132025375Y-70666625D01*
X132323761Y-70866000D01*
X132025375Y-71065375D01*
X131697161Y-71556582D01*
X131581908Y-72136000D01*
X131697161Y-72715418D01*
X132025375Y-73206625D01*
X132323761Y-73406000D01*
X132025375Y-73605375D01*
X131697161Y-74096582D01*
X131581908Y-74676000D01*
X131697161Y-75255418D01*
X132025375Y-75746625D01*
X132043619Y-75758816D01*
X131998235Y-75767843D01*
X131788191Y-75908191D01*
X131647843Y-76118235D01*
X131598560Y-76366000D01*
X131598560Y-78066000D01*
X131647843Y-78313765D01*
X131788191Y-78523809D01*
X131998235Y-78664157D01*
X132246000Y-78713440D01*
X133946000Y-78713440D01*
X134193765Y-78664157D01*
X134403809Y-78523809D01*
X134421929Y-78496690D01*
X135541000Y-78496690D01*
X135541000Y-78962250D01*
X135699750Y-79121000D01*
X136799000Y-79121000D01*
X136799000Y-78146750D01*
X136640250Y-77988000D01*
X136049691Y-77988000D01*
X135816302Y-78084673D01*
X135637673Y-78263301D01*
X135541000Y-78496690D01*
X134421929Y-78496690D01*
X134544157Y-78313765D01*
X134593440Y-78066000D01*
X134593440Y-77976000D01*
X137980289Y-77976000D01*
X138097720Y-78093431D01*
X138238386Y-78151697D01*
X138218191Y-78165191D01*
X138177346Y-78226320D01*
X138035698Y-78084673D01*
X137802309Y-77988000D01*
X137211750Y-77988000D01*
X137053000Y-78146750D01*
X137053000Y-79121000D01*
X137073000Y-79121000D01*
X137073000Y-79375000D01*
X137053000Y-79375000D01*
X137053000Y-80349250D01*
X137211750Y-80508000D01*
X137802309Y-80508000D01*
X138035698Y-80411327D01*
X138177346Y-80269680D01*
X138218191Y-80330809D01*
X138428235Y-80471157D01*
X138666001Y-80518451D01*
X138666000Y-81796560D01*
X135992000Y-81796560D01*
X135744235Y-81845843D01*
X135534191Y-81986191D01*
X135393843Y-82196235D01*
X135344560Y-82444000D01*
X135344560Y-88244000D01*
X135393843Y-88491765D01*
X135534191Y-88701809D01*
X135744235Y-88842157D01*
X135992000Y-88891440D01*
X138543518Y-88891440D01*
X138644072Y-89041929D01*
X138707528Y-89084329D01*
X139515670Y-89892472D01*
X139546091Y-89938000D01*
X133858451Y-89938000D01*
X133811157Y-89700235D01*
X133670809Y-89490191D01*
X133460765Y-89349843D01*
X133348000Y-89327413D01*
X133348000Y-88871440D01*
X133992000Y-88871440D01*
X134239765Y-88822157D01*
X134449809Y-88681809D01*
X134590157Y-88471765D01*
X134639440Y-88224000D01*
X134639440Y-87024000D01*
X134590157Y-86776235D01*
X134449809Y-86566191D01*
X134239765Y-86425843D01*
X133992000Y-86376560D01*
X131792000Y-86376560D01*
X131544235Y-86425843D01*
X131334191Y-86566191D01*
X131193843Y-86776235D01*
X131144560Y-87024000D01*
X131144560Y-88224000D01*
X131193843Y-88471765D01*
X131334191Y-88681809D01*
X131544235Y-88822157D01*
X131792000Y-88871440D01*
X131828001Y-88871440D01*
X131828000Y-89327413D01*
X131715235Y-89349843D01*
X131505191Y-89490191D01*
X131364843Y-89700235D01*
X131315560Y-89948000D01*
X131315560Y-91448000D01*
X131364843Y-91695765D01*
X131505191Y-91905809D01*
X131566320Y-91946654D01*
X131424673Y-92088302D01*
X131328000Y-92321691D01*
X131328000Y-92912250D01*
X131486750Y-93071000D01*
X132461000Y-93071000D01*
X132461000Y-93051000D01*
X132715000Y-93051000D01*
X132715000Y-93071000D01*
X133689250Y-93071000D01*
X133848000Y-92912250D01*
X133848000Y-92321691D01*
X133751327Y-92088302D01*
X133609680Y-91946654D01*
X133670809Y-91905809D01*
X133811157Y-91695765D01*
X133858451Y-91458000D01*
X140193199Y-91458000D01*
X140796335Y-92061136D01*
X140692235Y-92081843D01*
X140482191Y-92222191D01*
X140341843Y-92432235D01*
X140292560Y-92680000D01*
X140292560Y-95280000D01*
X140341843Y-95527765D01*
X140482191Y-95737809D01*
X140692235Y-95878157D01*
X140940000Y-95927440D01*
X143540000Y-95927440D01*
X143787765Y-95878157D01*
X143997809Y-95737809D01*
X144082847Y-95610541D01*
X145750146Y-95610541D01*
X146940000Y-96800395D01*
X148129854Y-95610541D01*
X147994496Y-95312545D01*
X147276120Y-95035934D01*
X146506573Y-95055290D01*
X145885504Y-95312545D01*
X145750146Y-95610541D01*
X144082847Y-95610541D01*
X144138157Y-95527765D01*
X144187440Y-95280000D01*
X144187440Y-94232000D01*
X148828331Y-94232000D01*
X148835843Y-94269765D01*
X148976191Y-94479809D01*
X149186235Y-94620157D01*
X149434000Y-94669440D01*
X150534000Y-94669440D01*
X150781765Y-94620157D01*
X150991809Y-94479809D01*
X151132157Y-94269765D01*
X151181440Y-94022000D01*
X151181440Y-92922000D01*
X151132157Y-92674235D01*
X150991809Y-92464191D01*
X150781765Y-92323843D01*
X150534000Y-92274560D01*
X149434000Y-92274560D01*
X149186235Y-92323843D01*
X148976191Y-92464191D01*
X148835843Y-92674235D01*
X148828331Y-92712000D01*
X144187440Y-92712000D01*
X144187440Y-92680000D01*
X144138157Y-92432235D01*
X143997809Y-92222191D01*
X143787765Y-92081843D01*
X143540000Y-92032560D01*
X142888483Y-92032560D01*
X142787929Y-91882071D01*
X142724473Y-91839671D01*
X141098331Y-90213530D01*
X141067909Y-90168000D01*
X152085199Y-90168000D01*
X154549980Y-92632782D01*
X154549981Y-94963179D01*
X153901879Y-94315078D01*
X153932157Y-94269765D01*
X153981440Y-94022000D01*
X153981440Y-92922000D01*
X153932157Y-92674235D01*
X153791809Y-92464191D01*
X153581765Y-92323843D01*
X153334000Y-92274560D01*
X152234000Y-92274560D01*
X151986235Y-92323843D01*
X151776191Y-92464191D01*
X151635843Y-92674235D01*
X151586560Y-92922000D01*
X151586560Y-94022000D01*
X151635843Y-94269765D01*
X151776191Y-94479809D01*
X151986235Y-94620157D01*
X152120423Y-94646848D01*
X152192614Y-94754889D01*
X152236072Y-94819929D01*
X152299528Y-94862329D01*
X159260001Y-101822804D01*
X159260001Y-102068679D01*
X158988854Y-101972688D01*
X158448556Y-102001051D01*
X158081122Y-102153247D01*
X158016207Y-102391602D01*
X158790000Y-103165395D01*
X158804143Y-103151253D01*
X158983748Y-103330858D01*
X158969605Y-103345000D01*
X158983748Y-103359143D01*
X158804143Y-103538748D01*
X158790000Y-103524605D01*
X158016207Y-104298398D01*
X158056831Y-104447560D01*
X157849096Y-104447560D01*
X157790000Y-104435805D01*
X157308128Y-104531656D01*
X156899616Y-104804615D01*
X156626656Y-105213127D01*
X156555000Y-105573364D01*
X156555000Y-106516635D01*
X156562233Y-106553000D01*
X134524824Y-106553000D01*
X134992053Y-106085771D01*
X135515000Y-104823264D01*
X135515000Y-103456736D01*
X135386350Y-103146146D01*
X157417688Y-103146146D01*
X157446051Y-103686444D01*
X157598247Y-104053878D01*
X157836602Y-104118793D01*
X158610395Y-103345000D01*
X157836602Y-102571207D01*
X157598247Y-102636122D01*
X157417688Y-103146146D01*
X135386350Y-103146146D01*
X134992053Y-102194229D01*
X134147283Y-101349459D01*
X141050146Y-101349459D01*
X141185504Y-101647455D01*
X141903880Y-101924066D01*
X142673427Y-101904710D01*
X143294496Y-101647455D01*
X143429854Y-101349459D01*
X142240000Y-100159605D01*
X141050146Y-101349459D01*
X134147283Y-101349459D01*
X134025771Y-101227947D01*
X132763264Y-100705000D01*
X131396736Y-100705000D01*
X130134229Y-101227947D01*
X129667000Y-101695176D01*
X129667000Y-99643880D01*
X140295934Y-99643880D01*
X140315290Y-100413427D01*
X140572545Y-101034496D01*
X140870541Y-101169854D01*
X142060395Y-99980000D01*
X142419605Y-99980000D01*
X143609459Y-101169854D01*
X143907455Y-101034496D01*
X144184066Y-100316120D01*
X144164710Y-99546573D01*
X143907455Y-98925504D01*
X143609459Y-98790146D01*
X142419605Y-99980000D01*
X142060395Y-99980000D01*
X140870541Y-98790146D01*
X140572545Y-98925504D01*
X140295934Y-99643880D01*
X129667000Y-99643880D01*
X129667000Y-98610541D01*
X141050146Y-98610541D01*
X142240000Y-99800395D01*
X143429854Y-98610541D01*
X143311264Y-98349459D01*
X145750146Y-98349459D01*
X145885504Y-98647455D01*
X146603880Y-98924066D01*
X147373427Y-98904710D01*
X147994496Y-98647455D01*
X148129854Y-98349459D01*
X146940000Y-97159605D01*
X145750146Y-98349459D01*
X143311264Y-98349459D01*
X143294496Y-98312545D01*
X142576120Y-98035934D01*
X141806573Y-98055290D01*
X141185504Y-98312545D01*
X141050146Y-98610541D01*
X129667000Y-98610541D01*
X129667000Y-96643880D01*
X144995934Y-96643880D01*
X145015290Y-97413427D01*
X145272545Y-98034496D01*
X145570541Y-98169854D01*
X146760395Y-96980000D01*
X147119605Y-96980000D01*
X148309459Y-98169854D01*
X148607455Y-98034496D01*
X148884066Y-97316120D01*
X148864710Y-96546573D01*
X148607455Y-95925504D01*
X148309459Y-95790146D01*
X147119605Y-96980000D01*
X146760395Y-96980000D01*
X145570541Y-95790146D01*
X145272545Y-95925504D01*
X144995934Y-96643880D01*
X129667000Y-96643880D01*
X129667000Y-93483750D01*
X131328000Y-93483750D01*
X131328000Y-94074309D01*
X131424673Y-94307698D01*
X131603301Y-94486327D01*
X131836690Y-94583000D01*
X132302250Y-94583000D01*
X132461000Y-94424250D01*
X132461000Y-93325000D01*
X132715000Y-93325000D01*
X132715000Y-94424250D01*
X132873750Y-94583000D01*
X133339310Y-94583000D01*
X133572699Y-94486327D01*
X133751327Y-94307698D01*
X133848000Y-94074309D01*
X133848000Y-93483750D01*
X133689250Y-93325000D01*
X132715000Y-93325000D01*
X132461000Y-93325000D01*
X131486750Y-93325000D01*
X131328000Y-93483750D01*
X129667000Y-93483750D01*
X129667000Y-83349750D01*
X131157000Y-83349750D01*
X131157000Y-83790310D01*
X131253673Y-84023699D01*
X131432302Y-84202327D01*
X131665691Y-84299000D01*
X132606250Y-84299000D01*
X132765000Y-84140250D01*
X132765000Y-83191000D01*
X133019000Y-83191000D01*
X133019000Y-84140250D01*
X133177750Y-84299000D01*
X134118309Y-84299000D01*
X134351698Y-84202327D01*
X134530327Y-84023699D01*
X134627000Y-83790310D01*
X134627000Y-83349750D01*
X134468250Y-83191000D01*
X133019000Y-83191000D01*
X132765000Y-83191000D01*
X131315750Y-83191000D01*
X131157000Y-83349750D01*
X129667000Y-83349750D01*
X129667000Y-82337690D01*
X131157000Y-82337690D01*
X131157000Y-82778250D01*
X131315750Y-82937000D01*
X132765000Y-82937000D01*
X132765000Y-81987750D01*
X133019000Y-81987750D01*
X133019000Y-82937000D01*
X134468250Y-82937000D01*
X134627000Y-82778250D01*
X134627000Y-82337690D01*
X134530327Y-82104301D01*
X134351698Y-81925673D01*
X134118309Y-81829000D01*
X133177750Y-81829000D01*
X133019000Y-81987750D01*
X132765000Y-81987750D01*
X132606250Y-81829000D01*
X131665691Y-81829000D01*
X131432302Y-81925673D01*
X131253673Y-82104301D01*
X131157000Y-82337690D01*
X129667000Y-82337690D01*
X129667000Y-79533750D01*
X135541000Y-79533750D01*
X135541000Y-79999310D01*
X135637673Y-80232699D01*
X135816302Y-80411327D01*
X136049691Y-80508000D01*
X136640250Y-80508000D01*
X136799000Y-80349250D01*
X136799000Y-79375000D01*
X135699750Y-79375000D01*
X135541000Y-79533750D01*
X129667000Y-79533750D01*
X129667000Y-65728750D01*
X132101000Y-65728750D01*
X132101000Y-66344309D01*
X132197673Y-66577698D01*
X132376301Y-66756327D01*
X132609690Y-66853000D01*
X133100250Y-66853000D01*
X133259000Y-66694250D01*
X133259000Y-65570000D01*
X133513000Y-65570000D01*
X133513000Y-66694250D01*
X133671750Y-66853000D01*
X134162310Y-66853000D01*
X134395699Y-66756327D01*
X134574327Y-66577698D01*
X134671000Y-66344309D01*
X134671000Y-65728750D01*
X134512250Y-65570000D01*
X133513000Y-65570000D01*
X133259000Y-65570000D01*
X132259750Y-65570000D01*
X132101000Y-65728750D01*
X129667000Y-65728750D01*
X129667000Y-64541691D01*
X132101000Y-64541691D01*
X132101000Y-65157250D01*
X132259750Y-65316000D01*
X133259000Y-65316000D01*
X133259000Y-64191750D01*
X133513000Y-64191750D01*
X133513000Y-65316000D01*
X134512250Y-65316000D01*
X134671000Y-65157250D01*
X134671000Y-64541691D01*
X134574327Y-64308302D01*
X134395699Y-64129673D01*
X134162310Y-64033000D01*
X133671750Y-64033000D01*
X133513000Y-64191750D01*
X133259000Y-64191750D01*
X133100250Y-64033000D01*
X132609690Y-64033000D01*
X132376301Y-64129673D01*
X132197673Y-64308302D01*
X132101000Y-64541691D01*
X129667000Y-64541691D01*
X129667000Y-57778750D01*
X132101000Y-57778750D01*
X132101000Y-58394309D01*
X132197673Y-58627698D01*
X132376301Y-58806327D01*
X132609690Y-58903000D01*
X133100250Y-58903000D01*
X133259000Y-58744250D01*
X133259000Y-57620000D01*
X133513000Y-57620000D01*
X133513000Y-58744250D01*
X133671750Y-58903000D01*
X134162310Y-58903000D01*
X134395699Y-58806327D01*
X134574327Y-58627698D01*
X134671000Y-58394309D01*
X134671000Y-57778750D01*
X134512250Y-57620000D01*
X133513000Y-57620000D01*
X133259000Y-57620000D01*
X132259750Y-57620000D01*
X132101000Y-57778750D01*
X129667000Y-57778750D01*
X129667000Y-56591691D01*
X132101000Y-56591691D01*
X132101000Y-57207250D01*
X132259750Y-57366000D01*
X133259000Y-57366000D01*
X133259000Y-56241750D01*
X133513000Y-56241750D01*
X133513000Y-57366000D01*
X134512250Y-57366000D01*
X134671000Y-57207250D01*
X134671000Y-56591691D01*
X134574327Y-56358302D01*
X134395699Y-56179673D01*
X134162310Y-56083000D01*
X133671750Y-56083000D01*
X133513000Y-56241750D01*
X133259000Y-56241750D01*
X133100250Y-56083000D01*
X132609690Y-56083000D01*
X132376301Y-56179673D01*
X132197673Y-56358302D01*
X132101000Y-56591691D01*
X129667000Y-56591691D01*
X129667000Y-42960000D01*
X145296560Y-42960000D01*
X145296560Y-49360000D01*
X145345843Y-49607765D01*
X145486191Y-49817809D01*
X145696235Y-49958157D01*
X145944000Y-50007440D01*
X151744000Y-50007440D01*
X151991765Y-49958157D01*
X152201809Y-49817809D01*
X152342157Y-49607765D01*
X152391440Y-49360000D01*
X152391440Y-44924799D01*
X153851194Y-43465045D01*
X153907864Y-43749944D01*
X154269231Y-44290769D01*
X154405750Y-44381988D01*
X154440560Y-44416798D01*
X154440560Y-48852000D01*
X154489843Y-49099765D01*
X154630191Y-49309809D01*
X154840235Y-49450157D01*
X155088000Y-49499440D01*
X160888000Y-49499440D01*
X161135765Y-49450157D01*
X161345809Y-49309809D01*
X161486157Y-49099765D01*
X161535440Y-48852000D01*
X161535440Y-42452000D01*
X161514503Y-42346741D01*
X163584560Y-44416799D01*
X163584560Y-48852000D01*
X163633843Y-49099765D01*
X163774191Y-49309809D01*
X163984235Y-49450157D01*
X164232000Y-49499440D01*
X170032000Y-49499440D01*
X170279765Y-49450157D01*
X170489809Y-49309809D01*
X170630157Y-49099765D01*
X170679440Y-48852000D01*
X170679440Y-42452000D01*
X170630157Y-42204235D01*
X170489809Y-41994191D01*
X170279765Y-41853843D01*
X170032000Y-41804560D01*
X165596799Y-41804560D01*
X162881988Y-39089750D01*
X162790769Y-38953231D01*
X162249945Y-38591864D01*
X161773031Y-38497000D01*
X161773030Y-38497000D01*
X161612000Y-38464969D01*
X161450970Y-38497000D01*
X157826969Y-38497000D01*
X157350055Y-38591864D01*
X156809231Y-38953231D01*
X156718000Y-39089768D01*
X156626769Y-38953231D01*
X156085945Y-38591864D01*
X155448000Y-38464969D01*
X154810056Y-38591864D01*
X154269232Y-38953231D01*
X154178001Y-39089769D01*
X154086769Y-38953231D01*
X153545944Y-38591864D01*
X152908000Y-38464969D01*
X152270055Y-38591864D01*
X151729231Y-38953231D01*
X151553035Y-39216928D01*
X151209185Y-38873078D01*
X150663385Y-38647000D01*
X150072615Y-38647000D01*
X149526815Y-38873078D01*
X149109078Y-39290815D01*
X148883000Y-39836615D01*
X148883000Y-40427385D01*
X149109078Y-40973185D01*
X149526815Y-41390922D01*
X150072615Y-41617000D01*
X150663385Y-41617000D01*
X151209185Y-41390922D01*
X151273001Y-41327106D01*
X151273001Y-41418761D01*
X150379201Y-42312560D01*
X145944000Y-42312560D01*
X145696235Y-42361843D01*
X145486191Y-42502191D01*
X145345843Y-42712235D01*
X145296560Y-42960000D01*
X129667000Y-42960000D01*
X129667000Y-31654824D01*
X130134229Y-32122053D01*
X131396736Y-32645000D01*
X132763264Y-32645000D01*
X134025771Y-32122053D01*
X134992053Y-31155771D01*
X135051604Y-31012000D01*
X144156560Y-31012000D01*
X144156560Y-34012000D01*
X144205843Y-34259765D01*
X144346191Y-34469809D01*
X144556235Y-34610157D01*
X144804000Y-34659440D01*
X147804000Y-34659440D01*
X148051765Y-34610157D01*
X148261809Y-34469809D01*
X148402157Y-34259765D01*
X148451440Y-34012000D01*
X148451440Y-32087322D01*
X149249000Y-32087322D01*
X149249000Y-32936678D01*
X149574034Y-33721380D01*
X150174620Y-34321966D01*
X150959322Y-34647000D01*
X151808678Y-34647000D01*
X152593380Y-34321966D01*
X153193966Y-33721380D01*
X153519000Y-32936678D01*
X153519000Y-32087322D01*
X154329000Y-32087322D01*
X154329000Y-32936678D01*
X154654034Y-33721380D01*
X155254620Y-34321966D01*
X156039322Y-34647000D01*
X156888678Y-34647000D01*
X157673380Y-34321966D01*
X158273966Y-33721380D01*
X158599000Y-32936678D01*
X158599000Y-32087322D01*
X159409000Y-32087322D01*
X159409000Y-32936678D01*
X159734034Y-33721380D01*
X160334620Y-34321966D01*
X161119322Y-34647000D01*
X161968678Y-34647000D01*
X162753380Y-34321966D01*
X163353966Y-33721380D01*
X163679000Y-32936678D01*
X163679000Y-32087322D01*
X163353966Y-31302620D01*
X162753380Y-30702034D01*
X161968678Y-30377000D01*
X161119322Y-30377000D01*
X160334620Y-30702034D01*
X159734034Y-31302620D01*
X159409000Y-32087322D01*
X158599000Y-32087322D01*
X158273966Y-31302620D01*
X157673380Y-30702034D01*
X156888678Y-30377000D01*
X156039322Y-30377000D01*
X155254620Y-30702034D01*
X154654034Y-31302620D01*
X154329000Y-32087322D01*
X153519000Y-32087322D01*
X153193966Y-31302620D01*
X152593380Y-30702034D01*
X151808678Y-30377000D01*
X150959322Y-30377000D01*
X150174620Y-30702034D01*
X149574034Y-31302620D01*
X149249000Y-32087322D01*
X148451440Y-32087322D01*
X148451440Y-31012000D01*
X148402157Y-30764235D01*
X148261809Y-30554191D01*
X148051765Y-30413843D01*
X147804000Y-30364560D01*
X144804000Y-30364560D01*
X144556235Y-30413843D01*
X144346191Y-30554191D01*
X144205843Y-30764235D01*
X144156560Y-31012000D01*
X135051604Y-31012000D01*
X135515000Y-29893264D01*
X135515000Y-28526736D01*
X134992053Y-27264229D01*
X134524824Y-26797000D01*
X172815176Y-26797000D01*
X172347947Y-27264229D01*
X172347947Y-27264229D01*
G37*
X172347947Y-27264229D02*
X171825000Y-28526736D01*
X171825000Y-29893264D01*
X172347947Y-31155771D01*
X173314229Y-32122053D01*
X174576736Y-32645000D01*
X175943264Y-32645000D01*
X177205771Y-32122053D01*
X177673000Y-31654824D01*
X177673000Y-60833000D01*
X170180000Y-60833000D01*
X170131399Y-60842667D01*
X170090197Y-60870197D01*
X170062667Y-60911399D01*
X170053000Y-60960000D01*
X170053000Y-61294517D01*
X169917809Y-61092191D01*
X169707765Y-60951843D01*
X169629652Y-60936306D01*
X169625904Y-60917463D01*
X169457929Y-60666071D01*
X169394473Y-60623671D01*
X168611331Y-59840530D01*
X168568929Y-59777071D01*
X168317537Y-59609096D01*
X168095852Y-59565000D01*
X168095847Y-59565000D01*
X168021000Y-59550112D01*
X167946153Y-59565000D01*
X165809846Y-59565000D01*
X165734999Y-59550112D01*
X165660152Y-59565000D01*
X165660148Y-59565000D01*
X165438463Y-59609096D01*
X165187071Y-59777071D01*
X165144671Y-59840527D01*
X164425528Y-60559671D01*
X164362072Y-60602071D01*
X164319672Y-60665527D01*
X164319671Y-60665528D01*
X164194097Y-60853463D01*
X164177094Y-60938942D01*
X164112235Y-60951843D01*
X163910000Y-61086973D01*
X163707765Y-60951843D01*
X163460000Y-60902560D01*
X162936242Y-60902560D01*
X164369363Y-59469440D01*
X165242000Y-59469440D01*
X165489765Y-59420157D01*
X165699809Y-59279809D01*
X165840157Y-59069765D01*
X165889440Y-58822000D01*
X165889440Y-57844242D01*
X166601670Y-58556472D01*
X166644071Y-58619929D01*
X166895463Y-58787904D01*
X167117148Y-58832000D01*
X167117152Y-58832000D01*
X167191999Y-58846888D01*
X167266846Y-58832000D01*
X168376549Y-58832000D01*
X168423843Y-59069765D01*
X168564191Y-59279809D01*
X168774235Y-59420157D01*
X169022000Y-59469440D01*
X170322000Y-59469440D01*
X170569765Y-59420157D01*
X170779809Y-59279809D01*
X170920157Y-59069765D01*
X170969440Y-58822000D01*
X170969440Y-57322000D01*
X170920157Y-57074235D01*
X170779809Y-56864191D01*
X170569765Y-56723843D01*
X170541791Y-56718279D01*
X170681699Y-56660327D01*
X170860327Y-56481698D01*
X170957000Y-56248309D01*
X170957000Y-55657750D01*
X170798250Y-55499000D01*
X169799000Y-55499000D01*
X169799000Y-55519000D01*
X169545000Y-55519000D01*
X169545000Y-55499000D01*
X168545750Y-55499000D01*
X168387000Y-55657750D01*
X168387000Y-56248309D01*
X168483673Y-56481698D01*
X168662301Y-56660327D01*
X168802209Y-56718279D01*
X168774235Y-56723843D01*
X168564191Y-56864191D01*
X168423843Y-57074235D01*
X168376549Y-57312000D01*
X167506802Y-57312000D01*
X165889440Y-55694639D01*
X165889440Y-54622000D01*
X165864316Y-54495691D01*
X168387000Y-54495691D01*
X168387000Y-55086250D01*
X168545750Y-55245000D01*
X169545000Y-55245000D01*
X169545000Y-54145750D01*
X169799000Y-54145750D01*
X169799000Y-55245000D01*
X170798250Y-55245000D01*
X170957000Y-55086250D01*
X170957000Y-54495691D01*
X170860327Y-54262302D01*
X170681699Y-54083673D01*
X170448310Y-53987000D01*
X169957750Y-53987000D01*
X169799000Y-54145750D01*
X169545000Y-54145750D01*
X169386250Y-53987000D01*
X168895690Y-53987000D01*
X168662301Y-54083673D01*
X168483673Y-54262302D01*
X168387000Y-54495691D01*
X165864316Y-54495691D01*
X165840157Y-54374235D01*
X165699809Y-54164191D01*
X165489765Y-54023843D01*
X165352000Y-53996440D01*
X165352000Y-53699440D01*
X165452000Y-53699440D01*
X165699765Y-53650157D01*
X165909809Y-53509809D01*
X166050157Y-53299765D01*
X166099440Y-53052000D01*
X166099440Y-52237750D01*
X168177000Y-52237750D01*
X168177000Y-53178309D01*
X168273673Y-53411698D01*
X168452301Y-53590327D01*
X168685690Y-53687000D01*
X169126250Y-53687000D01*
X169285000Y-53528250D01*
X169285000Y-52079000D01*
X169539000Y-52079000D01*
X169539000Y-53528250D01*
X169697750Y-53687000D01*
X170138310Y-53687000D01*
X170371699Y-53590327D01*
X170550327Y-53411698D01*
X170647000Y-53178309D01*
X170647000Y-52237750D01*
X170488250Y-52079000D01*
X169539000Y-52079000D01*
X169285000Y-52079000D01*
X168335750Y-52079000D01*
X168177000Y-52237750D01*
X166099440Y-52237750D01*
X166099440Y-50852000D01*
X166074316Y-50725691D01*
X168177000Y-50725691D01*
X168177000Y-51666250D01*
X168335750Y-51825000D01*
X169285000Y-51825000D01*
X169285000Y-50375750D01*
X169539000Y-50375750D01*
X169539000Y-51825000D01*
X170488250Y-51825000D01*
X170647000Y-51666250D01*
X170647000Y-50725691D01*
X170550327Y-50492302D01*
X170371699Y-50313673D01*
X170138310Y-50217000D01*
X169697750Y-50217000D01*
X169539000Y-50375750D01*
X169285000Y-50375750D01*
X169126250Y-50217000D01*
X168685690Y-50217000D01*
X168452301Y-50313673D01*
X168273673Y-50492302D01*
X168177000Y-50725691D01*
X166074316Y-50725691D01*
X166050157Y-50604235D01*
X165909809Y-50394191D01*
X165699765Y-50253843D01*
X165452000Y-50204560D01*
X164252000Y-50204560D01*
X164004235Y-50253843D01*
X163794191Y-50394191D01*
X163653843Y-50604235D01*
X163604560Y-50852000D01*
X163604560Y-53052000D01*
X163653843Y-53299765D01*
X163794191Y-53509809D01*
X163832001Y-53535073D01*
X163832000Y-53996440D01*
X163694235Y-54023843D01*
X163484191Y-54164191D01*
X163343843Y-54374235D01*
X163294560Y-54622000D01*
X163294560Y-56122000D01*
X163343843Y-56369765D01*
X163484191Y-56579809D01*
X163694235Y-56720157D01*
X163703500Y-56722000D01*
X163694235Y-56723843D01*
X163484191Y-56864191D01*
X163343843Y-57074235D01*
X163294560Y-57322000D01*
X163294560Y-58394637D01*
X160786639Y-60902560D01*
X160360000Y-60902560D01*
X160112235Y-60951843D01*
X159910000Y-61086973D01*
X159707765Y-60951843D01*
X159460000Y-60902560D01*
X159253363Y-60902560D01*
X156745440Y-58394639D01*
X156745440Y-57844242D01*
X157457670Y-58556472D01*
X157500071Y-58619929D01*
X157751463Y-58787904D01*
X157973148Y-58832000D01*
X157973152Y-58832000D01*
X158047999Y-58846888D01*
X158122846Y-58832000D01*
X159232549Y-58832000D01*
X159279843Y-59069765D01*
X159420191Y-59279809D01*
X159630235Y-59420157D01*
X159878000Y-59469440D01*
X161178000Y-59469440D01*
X161425765Y-59420157D01*
X161635809Y-59279809D01*
X161776157Y-59069765D01*
X161825440Y-58822000D01*
X161825440Y-57322000D01*
X161776157Y-57074235D01*
X161635809Y-56864191D01*
X161425765Y-56723843D01*
X161397791Y-56718279D01*
X161537699Y-56660327D01*
X161716327Y-56481698D01*
X161813000Y-56248309D01*
X161813000Y-55657750D01*
X161654250Y-55499000D01*
X160655000Y-55499000D01*
X160655000Y-55519000D01*
X160401000Y-55519000D01*
X160401000Y-55499000D01*
X159401750Y-55499000D01*
X159243000Y-55657750D01*
X159243000Y-56248309D01*
X159339673Y-56481698D01*
X159518301Y-56660327D01*
X159658209Y-56718279D01*
X159630235Y-56723843D01*
X159420191Y-56864191D01*
X159279843Y-57074235D01*
X159232549Y-57312000D01*
X158362802Y-57312000D01*
X156745440Y-55694639D01*
X156745440Y-54622000D01*
X156720316Y-54495691D01*
X159243000Y-54495691D01*
X159243000Y-55086250D01*
X159401750Y-55245000D01*
X160401000Y-55245000D01*
X160401000Y-54145750D01*
X160655000Y-54145750D01*
X160655000Y-55245000D01*
X161654250Y-55245000D01*
X161813000Y-55086250D01*
X161813000Y-54495691D01*
X161716327Y-54262302D01*
X161537699Y-54083673D01*
X161304310Y-53987000D01*
X160813750Y-53987000D01*
X160655000Y-54145750D01*
X160401000Y-54145750D01*
X160242250Y-53987000D01*
X159751690Y-53987000D01*
X159518301Y-54083673D01*
X159339673Y-54262302D01*
X159243000Y-54495691D01*
X156720316Y-54495691D01*
X156696157Y-54374235D01*
X156555809Y-54164191D01*
X156345765Y-54023843D01*
X156208000Y-53996440D01*
X156208000Y-53699440D01*
X156308000Y-53699440D01*
X156555765Y-53650157D01*
X156765809Y-53509809D01*
X156906157Y-53299765D01*
X156955440Y-53052000D01*
X156955440Y-52237750D01*
X159033000Y-52237750D01*
X159033000Y-53178309D01*
X159129673Y-53411698D01*
X159308301Y-53590327D01*
X159541690Y-53687000D01*
X159982250Y-53687000D01*
X160141000Y-53528250D01*
X160141000Y-52079000D01*
X160395000Y-52079000D01*
X160395000Y-53528250D01*
X160553750Y-53687000D01*
X160994310Y-53687000D01*
X161227699Y-53590327D01*
X161406327Y-53411698D01*
X161503000Y-53178309D01*
X161503000Y-52237750D01*
X161344250Y-52079000D01*
X160395000Y-52079000D01*
X160141000Y-52079000D01*
X159191750Y-52079000D01*
X159033000Y-52237750D01*
X156955440Y-52237750D01*
X156955440Y-50852000D01*
X156930316Y-50725691D01*
X159033000Y-50725691D01*
X159033000Y-51666250D01*
X159191750Y-51825000D01*
X160141000Y-51825000D01*
X160141000Y-50375750D01*
X160395000Y-50375750D01*
X160395000Y-51825000D01*
X161344250Y-51825000D01*
X161503000Y-51666250D01*
X161503000Y-50725691D01*
X161406327Y-50492302D01*
X161227699Y-50313673D01*
X160994310Y-50217000D01*
X160553750Y-50217000D01*
X160395000Y-50375750D01*
X160141000Y-50375750D01*
X159982250Y-50217000D01*
X159541690Y-50217000D01*
X159308301Y-50313673D01*
X159129673Y-50492302D01*
X159033000Y-50725691D01*
X156930316Y-50725691D01*
X156906157Y-50604235D01*
X156765809Y-50394191D01*
X156555765Y-50253843D01*
X156308000Y-50204560D01*
X155108000Y-50204560D01*
X154860235Y-50253843D01*
X154650191Y-50394191D01*
X154509843Y-50604235D01*
X154460560Y-50852000D01*
X154460560Y-53052000D01*
X154509843Y-53299765D01*
X154650191Y-53509809D01*
X154688001Y-53535073D01*
X154688000Y-53996440D01*
X154550235Y-54023843D01*
X154340191Y-54164191D01*
X154199843Y-54374235D01*
X154150560Y-54622000D01*
X154150560Y-56122000D01*
X154199843Y-56369765D01*
X154340191Y-56579809D01*
X154550235Y-56720157D01*
X154559500Y-56722000D01*
X154550235Y-56723843D01*
X154340191Y-56864191D01*
X154199843Y-57074235D01*
X154150560Y-57322000D01*
X154150560Y-58822000D01*
X154199843Y-59069765D01*
X154276173Y-59184000D01*
X152555827Y-59184000D01*
X152632157Y-59069765D01*
X152681440Y-58822000D01*
X152681440Y-57322000D01*
X152632157Y-57074235D01*
X152491809Y-56864191D01*
X152281765Y-56723843D01*
X152253791Y-56718279D01*
X152393699Y-56660327D01*
X152572327Y-56481698D01*
X152669000Y-56248309D01*
X152669000Y-55657750D01*
X152510250Y-55499000D01*
X151511000Y-55499000D01*
X151511000Y-55519000D01*
X151257000Y-55519000D01*
X151257000Y-55499000D01*
X150257750Y-55499000D01*
X150099000Y-55657750D01*
X150099000Y-56248309D01*
X150195673Y-56481698D01*
X150374301Y-56660327D01*
X150514209Y-56718279D01*
X150486235Y-56723843D01*
X150276191Y-56864191D01*
X150135843Y-57074235D01*
X150088549Y-57312000D01*
X149218802Y-57312000D01*
X147601440Y-55694639D01*
X147601440Y-54622000D01*
X147552157Y-54374235D01*
X147411809Y-54164191D01*
X147404840Y-54159534D01*
X147411765Y-54158157D01*
X147621809Y-54017809D01*
X147762157Y-53807765D01*
X147811440Y-53560000D01*
X147811440Y-52745750D01*
X149889000Y-52745750D01*
X149889000Y-53686309D01*
X149985673Y-53919698D01*
X150164301Y-54098327D01*
X150302432Y-54155543D01*
X150195673Y-54262302D01*
X150099000Y-54495691D01*
X150099000Y-55086250D01*
X150257750Y-55245000D01*
X151257000Y-55245000D01*
X151257000Y-55225000D01*
X151511000Y-55225000D01*
X151511000Y-55245000D01*
X152510250Y-55245000D01*
X152669000Y-55086250D01*
X152669000Y-54495691D01*
X152572327Y-54262302D01*
X152393699Y-54083673D01*
X152184858Y-53997168D01*
X152262327Y-53919698D01*
X152359000Y-53686309D01*
X152359000Y-52745750D01*
X152200250Y-52587000D01*
X151251000Y-52587000D01*
X151251000Y-52607000D01*
X150997000Y-52607000D01*
X150997000Y-52587000D01*
X150047750Y-52587000D01*
X149889000Y-52745750D01*
X147811440Y-52745750D01*
X147811440Y-51360000D01*
X147786316Y-51233691D01*
X149889000Y-51233691D01*
X149889000Y-52174250D01*
X150047750Y-52333000D01*
X150997000Y-52333000D01*
X150997000Y-50883750D01*
X151251000Y-50883750D01*
X151251000Y-52333000D01*
X152200250Y-52333000D01*
X152359000Y-52174250D01*
X152359000Y-51233691D01*
X152262327Y-51000302D01*
X152083699Y-50821673D01*
X151850310Y-50725000D01*
X151409750Y-50725000D01*
X151251000Y-50883750D01*
X150997000Y-50883750D01*
X150838250Y-50725000D01*
X150397690Y-50725000D01*
X150164301Y-50821673D01*
X149985673Y-51000302D01*
X149889000Y-51233691D01*
X147786316Y-51233691D01*
X147762157Y-51112235D01*
X147621809Y-50902191D01*
X147411765Y-50761843D01*
X147164000Y-50712560D01*
X145964000Y-50712560D01*
X145716235Y-50761843D01*
X145506191Y-50902191D01*
X145365843Y-51112235D01*
X145316560Y-51360000D01*
X145316560Y-53560000D01*
X145365843Y-53807765D01*
X145498023Y-54005585D01*
X145406235Y-54023843D01*
X145196191Y-54164191D01*
X145055843Y-54374235D01*
X145006560Y-54622000D01*
X145006560Y-56122000D01*
X145055843Y-56369765D01*
X145196191Y-56579809D01*
X145406235Y-56720157D01*
X145415500Y-56722000D01*
X145406235Y-56723843D01*
X145196191Y-56864191D01*
X145055843Y-57074235D01*
X145006560Y-57322000D01*
X145006560Y-58822000D01*
X145055843Y-59069765D01*
X145196191Y-59279809D01*
X145406235Y-59420157D01*
X145654000Y-59469440D01*
X146954000Y-59469440D01*
X147201765Y-59420157D01*
X147366969Y-59309770D01*
X148320698Y-60263500D01*
X144611346Y-60263500D01*
X144536499Y-60248612D01*
X144461652Y-60263500D01*
X144461648Y-60263500D01*
X144239963Y-60307596D01*
X143988571Y-60475571D01*
X143957249Y-60522447D01*
X140443331Y-57008530D01*
X140400929Y-56945071D01*
X140149537Y-56777096D01*
X139927852Y-56733000D01*
X139927847Y-56733000D01*
X139853000Y-56718112D01*
X139778153Y-56733000D01*
X139183440Y-56733000D01*
X139183440Y-56718000D01*
X139134157Y-56470235D01*
X138993809Y-56260191D01*
X138783765Y-56119843D01*
X138536000Y-56070560D01*
X137236000Y-56070560D01*
X136988235Y-56119843D01*
X136778191Y-56260191D01*
X136637843Y-56470235D01*
X136588560Y-56718000D01*
X136588560Y-58268000D01*
X136637843Y-58515765D01*
X136778191Y-58725809D01*
X136988235Y-58866157D01*
X137236000Y-58915440D01*
X138536000Y-58915440D01*
X138783765Y-58866157D01*
X138993809Y-58725809D01*
X139134157Y-58515765D01*
X139183440Y-58268000D01*
X139183440Y-58253000D01*
X139538199Y-58253000D01*
X142332175Y-61046977D01*
X142261843Y-61152235D01*
X142212560Y-61400000D01*
X142212560Y-62472638D01*
X140739528Y-63945671D01*
X140676072Y-63988071D01*
X140633672Y-64051527D01*
X140633671Y-64051528D01*
X140607965Y-64090000D01*
X140508097Y-64239463D01*
X140482098Y-64370171D01*
X140449112Y-64536000D01*
X140464001Y-64610852D01*
X140464000Y-66233198D01*
X139607722Y-67089476D01*
X139561431Y-66977720D01*
X139270280Y-66686569D01*
X139048110Y-66594543D01*
X139134157Y-66465765D01*
X139183440Y-66218000D01*
X139183440Y-64668000D01*
X139134157Y-64420235D01*
X138993809Y-64210191D01*
X138783765Y-64069843D01*
X138536000Y-64020560D01*
X137236000Y-64020560D01*
X136988235Y-64069843D01*
X136778191Y-64210191D01*
X136637843Y-64420235D01*
X136588560Y-64668000D01*
X136588560Y-66218000D01*
X136637843Y-66465765D01*
X136778191Y-66675809D01*
X136988235Y-66816157D01*
X137236000Y-66865440D01*
X137918849Y-66865440D01*
X137806569Y-66977720D01*
X137649000Y-67358126D01*
X137649000Y-67524198D01*
X136337199Y-68836000D01*
X134374178Y-68836000D01*
X134166625Y-68525375D01*
X133675418Y-68197161D01*
X133242256Y-68111000D01*
X132949744Y-68111000D01*
X132516582Y-68197161D01*
X132025375Y-68525375D01*
X131697161Y-69016582D01*
X131581908Y-69596000D01*
X131697161Y-70175418D01*
X132025375Y-70666625D01*
X132323761Y-70866000D01*
X132025375Y-71065375D01*
X131697161Y-71556582D01*
X131581908Y-72136000D01*
X131697161Y-72715418D01*
X132025375Y-73206625D01*
X132323761Y-73406000D01*
X132025375Y-73605375D01*
X131697161Y-74096582D01*
X131581908Y-74676000D01*
X131697161Y-75255418D01*
X132025375Y-75746625D01*
X132043619Y-75758816D01*
X131998235Y-75767843D01*
X131788191Y-75908191D01*
X131647843Y-76118235D01*
X131598560Y-76366000D01*
X131598560Y-78066000D01*
X131647843Y-78313765D01*
X131788191Y-78523809D01*
X131998235Y-78664157D01*
X132246000Y-78713440D01*
X133946000Y-78713440D01*
X134193765Y-78664157D01*
X134403809Y-78523809D01*
X134421929Y-78496690D01*
X135541000Y-78496690D01*
X135541000Y-78962250D01*
X135699750Y-79121000D01*
X136799000Y-79121000D01*
X136799000Y-78146750D01*
X136640250Y-77988000D01*
X136049691Y-77988000D01*
X135816302Y-78084673D01*
X135637673Y-78263301D01*
X135541000Y-78496690D01*
X134421929Y-78496690D01*
X134544157Y-78313765D01*
X134593440Y-78066000D01*
X134593440Y-77976000D01*
X137980289Y-77976000D01*
X138097720Y-78093431D01*
X138238386Y-78151697D01*
X138218191Y-78165191D01*
X138177346Y-78226320D01*
X138035698Y-78084673D01*
X137802309Y-77988000D01*
X137211750Y-77988000D01*
X137053000Y-78146750D01*
X137053000Y-79121000D01*
X137073000Y-79121000D01*
X137073000Y-79375000D01*
X137053000Y-79375000D01*
X137053000Y-80349250D01*
X137211750Y-80508000D01*
X137802309Y-80508000D01*
X138035698Y-80411327D01*
X138177346Y-80269680D01*
X138218191Y-80330809D01*
X138428235Y-80471157D01*
X138666001Y-80518451D01*
X138666000Y-81796560D01*
X135992000Y-81796560D01*
X135744235Y-81845843D01*
X135534191Y-81986191D01*
X135393843Y-82196235D01*
X135344560Y-82444000D01*
X135344560Y-88244000D01*
X135393843Y-88491765D01*
X135534191Y-88701809D01*
X135744235Y-88842157D01*
X135992000Y-88891440D01*
X138543518Y-88891440D01*
X138644072Y-89041929D01*
X138707528Y-89084329D01*
X139515670Y-89892472D01*
X139546091Y-89938000D01*
X133858451Y-89938000D01*
X133811157Y-89700235D01*
X133670809Y-89490191D01*
X133460765Y-89349843D01*
X133348000Y-89327413D01*
X133348000Y-88871440D01*
X133992000Y-88871440D01*
X134239765Y-88822157D01*
X134449809Y-88681809D01*
X134590157Y-88471765D01*
X134639440Y-88224000D01*
X134639440Y-87024000D01*
X134590157Y-86776235D01*
X134449809Y-86566191D01*
X134239765Y-86425843D01*
X133992000Y-86376560D01*
X131792000Y-86376560D01*
X131544235Y-86425843D01*
X131334191Y-86566191D01*
X131193843Y-86776235D01*
X131144560Y-87024000D01*
X131144560Y-88224000D01*
X131193843Y-88471765D01*
X131334191Y-88681809D01*
X131544235Y-88822157D01*
X131792000Y-88871440D01*
X131828001Y-88871440D01*
X131828000Y-89327413D01*
X131715235Y-89349843D01*
X131505191Y-89490191D01*
X131364843Y-89700235D01*
X131315560Y-89948000D01*
X131315560Y-91448000D01*
X131364843Y-91695765D01*
X131505191Y-91905809D01*
X131566320Y-91946654D01*
X131424673Y-92088302D01*
X131328000Y-92321691D01*
X131328000Y-92912250D01*
X131486750Y-93071000D01*
X132461000Y-93071000D01*
X132461000Y-93051000D01*
X132715000Y-93051000D01*
X132715000Y-93071000D01*
X133689250Y-93071000D01*
X133848000Y-92912250D01*
X133848000Y-92321691D01*
X133751327Y-92088302D01*
X133609680Y-91946654D01*
X133670809Y-91905809D01*
X133811157Y-91695765D01*
X133858451Y-91458000D01*
X140193199Y-91458000D01*
X140796335Y-92061136D01*
X140692235Y-92081843D01*
X140482191Y-92222191D01*
X140341843Y-92432235D01*
X140292560Y-92680000D01*
X140292560Y-95280000D01*
X140341843Y-95527765D01*
X140482191Y-95737809D01*
X140692235Y-95878157D01*
X140940000Y-95927440D01*
X143540000Y-95927440D01*
X143787765Y-95878157D01*
X143997809Y-95737809D01*
X144082847Y-95610541D01*
X145750146Y-95610541D01*
X146940000Y-96800395D01*
X148129854Y-95610541D01*
X147994496Y-95312545D01*
X147276120Y-95035934D01*
X146506573Y-95055290D01*
X145885504Y-95312545D01*
X145750146Y-95610541D01*
X144082847Y-95610541D01*
X144138157Y-95527765D01*
X144187440Y-95280000D01*
X144187440Y-94232000D01*
X148828331Y-94232000D01*
X148835843Y-94269765D01*
X148976191Y-94479809D01*
X149186235Y-94620157D01*
X149434000Y-94669440D01*
X150534000Y-94669440D01*
X150781765Y-94620157D01*
X150991809Y-94479809D01*
X151132157Y-94269765D01*
X151181440Y-94022000D01*
X151181440Y-92922000D01*
X151132157Y-92674235D01*
X150991809Y-92464191D01*
X150781765Y-92323843D01*
X150534000Y-92274560D01*
X149434000Y-92274560D01*
X149186235Y-92323843D01*
X148976191Y-92464191D01*
X148835843Y-92674235D01*
X148828331Y-92712000D01*
X144187440Y-92712000D01*
X144187440Y-92680000D01*
X144138157Y-92432235D01*
X143997809Y-92222191D01*
X143787765Y-92081843D01*
X143540000Y-92032560D01*
X142888483Y-92032560D01*
X142787929Y-91882071D01*
X142724473Y-91839671D01*
X141098331Y-90213530D01*
X141067909Y-90168000D01*
X152085199Y-90168000D01*
X154549980Y-92632782D01*
X154549981Y-94963179D01*
X153901879Y-94315078D01*
X153932157Y-94269765D01*
X153981440Y-94022000D01*
X153981440Y-92922000D01*
X153932157Y-92674235D01*
X153791809Y-92464191D01*
X153581765Y-92323843D01*
X153334000Y-92274560D01*
X152234000Y-92274560D01*
X151986235Y-92323843D01*
X151776191Y-92464191D01*
X151635843Y-92674235D01*
X151586560Y-92922000D01*
X151586560Y-94022000D01*
X151635843Y-94269765D01*
X151776191Y-94479809D01*
X151986235Y-94620157D01*
X152120423Y-94646848D01*
X152192614Y-94754889D01*
X152236072Y-94819929D01*
X152299528Y-94862329D01*
X159260001Y-101822804D01*
X159260001Y-102068679D01*
X158988854Y-101972688D01*
X158448556Y-102001051D01*
X158081122Y-102153247D01*
X158016207Y-102391602D01*
X158790000Y-103165395D01*
X158804143Y-103151253D01*
X158983748Y-103330858D01*
X158969605Y-103345000D01*
X158983748Y-103359143D01*
X158804143Y-103538748D01*
X158790000Y-103524605D01*
X158016207Y-104298398D01*
X158056831Y-104447560D01*
X157849096Y-104447560D01*
X157790000Y-104435805D01*
X157308128Y-104531656D01*
X156899616Y-104804615D01*
X156626656Y-105213127D01*
X156555000Y-105573364D01*
X156555000Y-106516635D01*
X156562233Y-106553000D01*
X134524824Y-106553000D01*
X134992053Y-106085771D01*
X135515000Y-104823264D01*
X135515000Y-103456736D01*
X135386350Y-103146146D01*
X157417688Y-103146146D01*
X157446051Y-103686444D01*
X157598247Y-104053878D01*
X157836602Y-104118793D01*
X158610395Y-103345000D01*
X157836602Y-102571207D01*
X157598247Y-102636122D01*
X157417688Y-103146146D01*
X135386350Y-103146146D01*
X134992053Y-102194229D01*
X134147283Y-101349459D01*
X141050146Y-101349459D01*
X141185504Y-101647455D01*
X141903880Y-101924066D01*
X142673427Y-101904710D01*
X143294496Y-101647455D01*
X143429854Y-101349459D01*
X142240000Y-100159605D01*
X141050146Y-101349459D01*
X134147283Y-101349459D01*
X134025771Y-101227947D01*
X132763264Y-100705000D01*
X131396736Y-100705000D01*
X130134229Y-101227947D01*
X129667000Y-101695176D01*
X129667000Y-99643880D01*
X140295934Y-99643880D01*
X140315290Y-100413427D01*
X140572545Y-101034496D01*
X140870541Y-101169854D01*
X142060395Y-99980000D01*
X142419605Y-99980000D01*
X143609459Y-101169854D01*
X143907455Y-101034496D01*
X144184066Y-100316120D01*
X144164710Y-99546573D01*
X143907455Y-98925504D01*
X143609459Y-98790146D01*
X142419605Y-99980000D01*
X142060395Y-99980000D01*
X140870541Y-98790146D01*
X140572545Y-98925504D01*
X140295934Y-99643880D01*
X129667000Y-99643880D01*
X129667000Y-98610541D01*
X141050146Y-98610541D01*
X142240000Y-99800395D01*
X143429854Y-98610541D01*
X143311264Y-98349459D01*
X145750146Y-98349459D01*
X145885504Y-98647455D01*
X146603880Y-98924066D01*
X147373427Y-98904710D01*
X147994496Y-98647455D01*
X148129854Y-98349459D01*
X146940000Y-97159605D01*
X145750146Y-98349459D01*
X143311264Y-98349459D01*
X143294496Y-98312545D01*
X142576120Y-98035934D01*
X141806573Y-98055290D01*
X141185504Y-98312545D01*
X141050146Y-98610541D01*
X129667000Y-98610541D01*
X129667000Y-96643880D01*
X144995934Y-96643880D01*
X145015290Y-97413427D01*
X145272545Y-98034496D01*
X145570541Y-98169854D01*
X146760395Y-96980000D01*
X147119605Y-96980000D01*
X148309459Y-98169854D01*
X148607455Y-98034496D01*
X148884066Y-97316120D01*
X148864710Y-96546573D01*
X148607455Y-95925504D01*
X148309459Y-95790146D01*
X147119605Y-96980000D01*
X146760395Y-96980000D01*
X145570541Y-95790146D01*
X145272545Y-95925504D01*
X144995934Y-96643880D01*
X129667000Y-96643880D01*
X129667000Y-93483750D01*
X131328000Y-93483750D01*
X131328000Y-94074309D01*
X131424673Y-94307698D01*
X131603301Y-94486327D01*
X131836690Y-94583000D01*
X132302250Y-94583000D01*
X132461000Y-94424250D01*
X132461000Y-93325000D01*
X132715000Y-93325000D01*
X132715000Y-94424250D01*
X132873750Y-94583000D01*
X133339310Y-94583000D01*
X133572699Y-94486327D01*
X133751327Y-94307698D01*
X133848000Y-94074309D01*
X133848000Y-93483750D01*
X133689250Y-93325000D01*
X132715000Y-93325000D01*
X132461000Y-93325000D01*
X131486750Y-93325000D01*
X131328000Y-93483750D01*
X129667000Y-93483750D01*
X129667000Y-83349750D01*
X131157000Y-83349750D01*
X131157000Y-83790310D01*
X131253673Y-84023699D01*
X131432302Y-84202327D01*
X131665691Y-84299000D01*
X132606250Y-84299000D01*
X132765000Y-84140250D01*
X132765000Y-83191000D01*
X133019000Y-83191000D01*
X133019000Y-84140250D01*
X133177750Y-84299000D01*
X134118309Y-84299000D01*
X134351698Y-84202327D01*
X134530327Y-84023699D01*
X134627000Y-83790310D01*
X134627000Y-83349750D01*
X134468250Y-83191000D01*
X133019000Y-83191000D01*
X132765000Y-83191000D01*
X131315750Y-83191000D01*
X131157000Y-83349750D01*
X129667000Y-83349750D01*
X129667000Y-82337690D01*
X131157000Y-82337690D01*
X131157000Y-82778250D01*
X131315750Y-82937000D01*
X132765000Y-82937000D01*
X132765000Y-81987750D01*
X133019000Y-81987750D01*
X133019000Y-82937000D01*
X134468250Y-82937000D01*
X134627000Y-82778250D01*
X134627000Y-82337690D01*
X134530327Y-82104301D01*
X134351698Y-81925673D01*
X134118309Y-81829000D01*
X133177750Y-81829000D01*
X133019000Y-81987750D01*
X132765000Y-81987750D01*
X132606250Y-81829000D01*
X131665691Y-81829000D01*
X131432302Y-81925673D01*
X131253673Y-82104301D01*
X131157000Y-82337690D01*
X129667000Y-82337690D01*
X129667000Y-79533750D01*
X135541000Y-79533750D01*
X135541000Y-79999310D01*
X135637673Y-80232699D01*
X135816302Y-80411327D01*
X136049691Y-80508000D01*
X136640250Y-80508000D01*
X136799000Y-80349250D01*
X136799000Y-79375000D01*
X135699750Y-79375000D01*
X135541000Y-79533750D01*
X129667000Y-79533750D01*
X129667000Y-65728750D01*
X132101000Y-65728750D01*
X132101000Y-66344309D01*
X132197673Y-66577698D01*
X132376301Y-66756327D01*
X132609690Y-66853000D01*
X133100250Y-66853000D01*
X133259000Y-66694250D01*
X133259000Y-65570000D01*
X133513000Y-65570000D01*
X133513000Y-66694250D01*
X133671750Y-66853000D01*
X134162310Y-66853000D01*
X134395699Y-66756327D01*
X134574327Y-66577698D01*
X134671000Y-66344309D01*
X134671000Y-65728750D01*
X134512250Y-65570000D01*
X133513000Y-65570000D01*
X133259000Y-65570000D01*
X132259750Y-65570000D01*
X132101000Y-65728750D01*
X129667000Y-65728750D01*
X129667000Y-64541691D01*
X132101000Y-64541691D01*
X132101000Y-65157250D01*
X132259750Y-65316000D01*
X133259000Y-65316000D01*
X133259000Y-64191750D01*
X133513000Y-64191750D01*
X133513000Y-65316000D01*
X134512250Y-65316000D01*
X134671000Y-65157250D01*
X134671000Y-64541691D01*
X134574327Y-64308302D01*
X134395699Y-64129673D01*
X134162310Y-64033000D01*
X133671750Y-64033000D01*
X133513000Y-64191750D01*
X133259000Y-64191750D01*
X133100250Y-64033000D01*
X132609690Y-64033000D01*
X132376301Y-64129673D01*
X132197673Y-64308302D01*
X132101000Y-64541691D01*
X129667000Y-64541691D01*
X129667000Y-57778750D01*
X132101000Y-57778750D01*
X132101000Y-58394309D01*
X132197673Y-58627698D01*
X132376301Y-58806327D01*
X132609690Y-58903000D01*
X133100250Y-58903000D01*
X133259000Y-58744250D01*
X133259000Y-57620000D01*
X133513000Y-57620000D01*
X133513000Y-58744250D01*
X133671750Y-58903000D01*
X134162310Y-58903000D01*
X134395699Y-58806327D01*
X134574327Y-58627698D01*
X134671000Y-58394309D01*
X134671000Y-57778750D01*
X134512250Y-57620000D01*
X133513000Y-57620000D01*
X133259000Y-57620000D01*
X132259750Y-57620000D01*
X132101000Y-57778750D01*
X129667000Y-57778750D01*
X129667000Y-56591691D01*
X132101000Y-56591691D01*
X132101000Y-57207250D01*
X132259750Y-57366000D01*
X133259000Y-57366000D01*
X133259000Y-56241750D01*
X133513000Y-56241750D01*
X133513000Y-57366000D01*
X134512250Y-57366000D01*
X134671000Y-57207250D01*
X134671000Y-56591691D01*
X134574327Y-56358302D01*
X134395699Y-56179673D01*
X134162310Y-56083000D01*
X133671750Y-56083000D01*
X133513000Y-56241750D01*
X133259000Y-56241750D01*
X133100250Y-56083000D01*
X132609690Y-56083000D01*
X132376301Y-56179673D01*
X132197673Y-56358302D01*
X132101000Y-56591691D01*
X129667000Y-56591691D01*
X129667000Y-42960000D01*
X145296560Y-42960000D01*
X145296560Y-49360000D01*
X145345843Y-49607765D01*
X145486191Y-49817809D01*
X145696235Y-49958157D01*
X145944000Y-50007440D01*
X151744000Y-50007440D01*
X151991765Y-49958157D01*
X152201809Y-49817809D01*
X152342157Y-49607765D01*
X152391440Y-49360000D01*
X152391440Y-44924799D01*
X153851194Y-43465045D01*
X153907864Y-43749944D01*
X154269231Y-44290769D01*
X154405750Y-44381988D01*
X154440560Y-44416798D01*
X154440560Y-48852000D01*
X154489843Y-49099765D01*
X154630191Y-49309809D01*
X154840235Y-49450157D01*
X155088000Y-49499440D01*
X160888000Y-49499440D01*
X161135765Y-49450157D01*
X161345809Y-49309809D01*
X161486157Y-49099765D01*
X161535440Y-48852000D01*
X161535440Y-42452000D01*
X161514503Y-42346741D01*
X163584560Y-44416799D01*
X163584560Y-48852000D01*
X163633843Y-49099765D01*
X163774191Y-49309809D01*
X163984235Y-49450157D01*
X164232000Y-49499440D01*
X170032000Y-49499440D01*
X170279765Y-49450157D01*
X170489809Y-49309809D01*
X170630157Y-49099765D01*
X170679440Y-48852000D01*
X170679440Y-42452000D01*
X170630157Y-42204235D01*
X170489809Y-41994191D01*
X170279765Y-41853843D01*
X170032000Y-41804560D01*
X165596799Y-41804560D01*
X162881988Y-39089750D01*
X162790769Y-38953231D01*
X162249945Y-38591864D01*
X161773031Y-38497000D01*
X161773030Y-38497000D01*
X161612000Y-38464969D01*
X161450970Y-38497000D01*
X157826969Y-38497000D01*
X157350055Y-38591864D01*
X156809231Y-38953231D01*
X156718000Y-39089768D01*
X156626769Y-38953231D01*
X156085945Y-38591864D01*
X155448000Y-38464969D01*
X154810056Y-38591864D01*
X154269232Y-38953231D01*
X154178001Y-39089769D01*
X154086769Y-38953231D01*
X153545944Y-38591864D01*
X152908000Y-38464969D01*
X152270055Y-38591864D01*
X151729231Y-38953231D01*
X151553035Y-39216928D01*
X151209185Y-38873078D01*
X150663385Y-38647000D01*
X150072615Y-38647000D01*
X149526815Y-38873078D01*
X149109078Y-39290815D01*
X148883000Y-39836615D01*
X148883000Y-40427385D01*
X149109078Y-40973185D01*
X149526815Y-41390922D01*
X150072615Y-41617000D01*
X150663385Y-41617000D01*
X151209185Y-41390922D01*
X151273001Y-41327106D01*
X151273001Y-41418761D01*
X150379201Y-42312560D01*
X145944000Y-42312560D01*
X145696235Y-42361843D01*
X145486191Y-42502191D01*
X145345843Y-42712235D01*
X145296560Y-42960000D01*
X129667000Y-42960000D01*
X129667000Y-31654824D01*
X130134229Y-32122053D01*
X131396736Y-32645000D01*
X132763264Y-32645000D01*
X134025771Y-32122053D01*
X134992053Y-31155771D01*
X135051604Y-31012000D01*
X144156560Y-31012000D01*
X144156560Y-34012000D01*
X144205843Y-34259765D01*
X144346191Y-34469809D01*
X144556235Y-34610157D01*
X144804000Y-34659440D01*
X147804000Y-34659440D01*
X148051765Y-34610157D01*
X148261809Y-34469809D01*
X148402157Y-34259765D01*
X148451440Y-34012000D01*
X148451440Y-32087322D01*
X149249000Y-32087322D01*
X149249000Y-32936678D01*
X149574034Y-33721380D01*
X150174620Y-34321966D01*
X150959322Y-34647000D01*
X151808678Y-34647000D01*
X152593380Y-34321966D01*
X153193966Y-33721380D01*
X153519000Y-32936678D01*
X153519000Y-32087322D01*
X154329000Y-32087322D01*
X154329000Y-32936678D01*
X154654034Y-33721380D01*
X155254620Y-34321966D01*
X156039322Y-34647000D01*
X156888678Y-34647000D01*
X157673380Y-34321966D01*
X158273966Y-33721380D01*
X158599000Y-32936678D01*
X158599000Y-32087322D01*
X159409000Y-32087322D01*
X159409000Y-32936678D01*
X159734034Y-33721380D01*
X160334620Y-34321966D01*
X161119322Y-34647000D01*
X161968678Y-34647000D01*
X162753380Y-34321966D01*
X163353966Y-33721380D01*
X163679000Y-32936678D01*
X163679000Y-32087322D01*
X163353966Y-31302620D01*
X162753380Y-30702034D01*
X161968678Y-30377000D01*
X161119322Y-30377000D01*
X160334620Y-30702034D01*
X159734034Y-31302620D01*
X159409000Y-32087322D01*
X158599000Y-32087322D01*
X158273966Y-31302620D01*
X157673380Y-30702034D01*
X156888678Y-30377000D01*
X156039322Y-30377000D01*
X155254620Y-30702034D01*
X154654034Y-31302620D01*
X154329000Y-32087322D01*
X153519000Y-32087322D01*
X153193966Y-31302620D01*
X152593380Y-30702034D01*
X151808678Y-30377000D01*
X150959322Y-30377000D01*
X150174620Y-30702034D01*
X149574034Y-31302620D01*
X149249000Y-32087322D01*
X148451440Y-32087322D01*
X148451440Y-31012000D01*
X148402157Y-30764235D01*
X148261809Y-30554191D01*
X148051765Y-30413843D01*
X147804000Y-30364560D01*
X144804000Y-30364560D01*
X144556235Y-30413843D01*
X144346191Y-30554191D01*
X144205843Y-30764235D01*
X144156560Y-31012000D01*
X135051604Y-31012000D01*
X135515000Y-29893264D01*
X135515000Y-28526736D01*
X134992053Y-27264229D01*
X134524824Y-26797000D01*
X172815176Y-26797000D01*
X172347947Y-27264229D01*
G36*
X147402791Y-86501593D02*
X147329908Y-86868000D01*
X147445161Y-87447418D01*
X147773375Y-87938625D01*
X148264582Y-88266839D01*
X148697744Y-88353000D01*
X148990256Y-88353000D01*
X149423418Y-88266839D01*
X149914625Y-87938625D01*
X150242839Y-87447418D01*
X150349980Y-86908782D01*
X152089198Y-88648000D01*
X142885763Y-88648000D01*
X142990157Y-88491765D01*
X143039440Y-88244000D01*
X143039440Y-86104000D01*
X147005199Y-86104000D01*
X147402791Y-86501593D01*
X147402791Y-86501593D01*
G37*
X147402791Y-86501593D02*
X147329908Y-86868000D01*
X147445161Y-87447418D01*
X147773375Y-87938625D01*
X148264582Y-88266839D01*
X148697744Y-88353000D01*
X148990256Y-88353000D01*
X149423418Y-88266839D01*
X149914625Y-87938625D01*
X150242839Y-87447418D01*
X150349980Y-86908782D01*
X152089198Y-88648000D01*
X142885763Y-88648000D01*
X142990157Y-88491765D01*
X143039440Y-88244000D01*
X143039440Y-86104000D01*
X147005199Y-86104000D01*
X147402791Y-86501593D01*
G36*
X142212560Y-70760000D02*
X142261843Y-71007765D01*
X142402191Y-71217809D01*
X142612235Y-71358157D01*
X142750000Y-71385560D01*
X142750001Y-73331148D01*
X142735112Y-73406000D01*
X142750001Y-73480852D01*
X142785636Y-73659999D01*
X142794097Y-73702537D01*
X142858264Y-73798569D01*
X142962072Y-73953929D01*
X143025528Y-73996329D01*
X143237000Y-74207801D01*
X143237000Y-74373874D01*
X143394569Y-74754280D01*
X143512001Y-74871712D01*
X143512000Y-79681153D01*
X143497112Y-79756000D01*
X143512000Y-79830847D01*
X143512000Y-79830851D01*
X143556096Y-80052536D01*
X143724071Y-80303929D01*
X143787530Y-80346331D01*
X147402791Y-83961593D01*
X147329908Y-84328000D01*
X147380252Y-84581097D01*
X147320000Y-84569112D01*
X147245153Y-84584000D01*
X143039440Y-84584000D01*
X143039440Y-82444000D01*
X142990157Y-82196235D01*
X142849809Y-81986191D01*
X142639765Y-81845843D01*
X142392000Y-81796560D01*
X140186000Y-81796560D01*
X140186000Y-80518451D01*
X140423765Y-80471157D01*
X140633809Y-80330809D01*
X140774157Y-80120765D01*
X140823440Y-79873000D01*
X140823440Y-78623000D01*
X140774157Y-78375235D01*
X140633809Y-78165191D01*
X140423765Y-78024843D01*
X140186000Y-77977549D01*
X140186000Y-71808801D01*
X142212560Y-69782242D01*
X142212560Y-70760000D01*
X142212560Y-70760000D01*
G37*
X142212560Y-70760000D02*
X142261843Y-71007765D01*
X142402191Y-71217809D01*
X142612235Y-71358157D01*
X142750000Y-71385560D01*
X142750001Y-73331148D01*
X142735112Y-73406000D01*
X142750001Y-73480852D01*
X142785636Y-73659999D01*
X142794097Y-73702537D01*
X142858264Y-73798569D01*
X142962072Y-73953929D01*
X143025528Y-73996329D01*
X143237000Y-74207801D01*
X143237000Y-74373874D01*
X143394569Y-74754280D01*
X143512001Y-74871712D01*
X143512000Y-79681153D01*
X143497112Y-79756000D01*
X143512000Y-79830847D01*
X143512000Y-79830851D01*
X143556096Y-80052536D01*
X143724071Y-80303929D01*
X143787530Y-80346331D01*
X147402791Y-83961593D01*
X147329908Y-84328000D01*
X147380252Y-84581097D01*
X147320000Y-84569112D01*
X147245153Y-84584000D01*
X143039440Y-84584000D01*
X143039440Y-82444000D01*
X142990157Y-82196235D01*
X142849809Y-81986191D01*
X142639765Y-81845843D01*
X142392000Y-81796560D01*
X140186000Y-81796560D01*
X140186000Y-80518451D01*
X140423765Y-80471157D01*
X140633809Y-80330809D01*
X140774157Y-80120765D01*
X140823440Y-79873000D01*
X140823440Y-78623000D01*
X140774157Y-78375235D01*
X140633809Y-78165191D01*
X140423765Y-78024843D01*
X140186000Y-77977549D01*
X140186000Y-71808801D01*
X142212560Y-69782242D01*
X142212560Y-70760000D01*
G36*
X153760808Y-64292560D02*
X151960000Y-64292560D01*
X151712235Y-64341843D01*
X151502191Y-64482191D01*
X151361843Y-64692235D01*
X151312560Y-64940000D01*
X151312560Y-66040000D01*
X151361843Y-66287765D01*
X151496973Y-66490000D01*
X151361843Y-66692235D01*
X151312560Y-66940000D01*
X151312560Y-68040000D01*
X151361843Y-68287765D01*
X151496973Y-68490000D01*
X151361843Y-68692235D01*
X151312560Y-68940000D01*
X151312560Y-70040000D01*
X151361843Y-70287765D01*
X151496973Y-70490000D01*
X151361843Y-70692235D01*
X151312560Y-70940000D01*
X151312560Y-72040000D01*
X151361843Y-72287765D01*
X151496973Y-72490000D01*
X151361843Y-72692235D01*
X151312560Y-72940000D01*
X151312560Y-74040000D01*
X151361843Y-74287765D01*
X151496973Y-74490000D01*
X151361843Y-74692235D01*
X151312560Y-74940000D01*
X151312560Y-76040000D01*
X151361843Y-76287765D01*
X151502191Y-76497809D01*
X151712235Y-76638157D01*
X151960000Y-76687440D01*
X153781437Y-76687440D01*
X153725000Y-76823691D01*
X153725000Y-77914250D01*
X153883750Y-78073000D01*
X154783000Y-78073000D01*
X154783000Y-78053000D01*
X155037000Y-78053000D01*
X155037000Y-78073000D01*
X156783000Y-78073000D01*
X156783000Y-76473750D01*
X156624250Y-76315000D01*
X156233690Y-76315000D01*
X156000301Y-76411673D01*
X155910000Y-76501975D01*
X155819699Y-76411673D01*
X155586310Y-76315000D01*
X155195750Y-76315000D01*
X155037002Y-76473748D01*
X155037002Y-76319425D01*
X155058157Y-76287765D01*
X155107440Y-76040000D01*
X155107440Y-74940000D01*
X155058157Y-74692235D01*
X154923027Y-74490000D01*
X155058157Y-74287765D01*
X155107440Y-74040000D01*
X155107440Y-72940000D01*
X155058157Y-72692235D01*
X154923027Y-72490000D01*
X155058157Y-72287765D01*
X155107440Y-72040000D01*
X155107440Y-70940000D01*
X155058157Y-70692235D01*
X154923027Y-70490000D01*
X155058157Y-70287765D01*
X155107440Y-70040000D01*
X155107440Y-68940000D01*
X155058157Y-68692235D01*
X154923027Y-68490000D01*
X155058157Y-68287765D01*
X155107440Y-68040000D01*
X155107440Y-66940000D01*
X155058157Y-66692235D01*
X154923027Y-66490000D01*
X155058157Y-66287765D01*
X155107440Y-66040000D01*
X155107440Y-64940000D01*
X155059192Y-64697440D01*
X155132501Y-64697440D01*
X155132501Y-64885648D01*
X155117612Y-64960500D01*
X155132501Y-65035352D01*
X155176597Y-65257037D01*
X155344572Y-65508429D01*
X155408028Y-65550829D01*
X156381671Y-66524473D01*
X156424071Y-66587929D01*
X156675463Y-66755904D01*
X156897148Y-66800000D01*
X156897152Y-66800000D01*
X156972000Y-66814888D01*
X157046848Y-66800000D01*
X162295153Y-66800000D01*
X162370000Y-66814888D01*
X162444847Y-66800000D01*
X162444852Y-66800000D01*
X162666537Y-66755904D01*
X162917929Y-66587929D01*
X162960331Y-66524470D01*
X164150000Y-65334802D01*
X164150001Y-75376697D01*
X163409030Y-76117669D01*
X163345571Y-76160071D01*
X163250363Y-76302560D01*
X162360000Y-76302560D01*
X162112235Y-76351843D01*
X161910000Y-76486973D01*
X161707765Y-76351843D01*
X161460000Y-76302560D01*
X160360000Y-76302560D01*
X160112235Y-76351843D01*
X159910000Y-76486973D01*
X159707765Y-76351843D01*
X159460000Y-76302560D01*
X158360000Y-76302560D01*
X158112235Y-76351843D01*
X157902191Y-76492191D01*
X157901400Y-76493375D01*
X157819699Y-76411673D01*
X157586310Y-76315000D01*
X157195750Y-76315000D01*
X157037000Y-76473750D01*
X157037000Y-78073000D01*
X157057000Y-78073000D01*
X157057000Y-78327000D01*
X157037000Y-78327000D01*
X157037000Y-79926250D01*
X157195750Y-80085000D01*
X157586310Y-80085000D01*
X157819699Y-79988327D01*
X157901400Y-79906625D01*
X157902191Y-79907809D01*
X158112235Y-80048157D01*
X158360000Y-80097440D01*
X159460000Y-80097440D01*
X159707765Y-80048157D01*
X159910000Y-79913027D01*
X160112235Y-80048157D01*
X160150000Y-80055669D01*
X160150000Y-80075198D01*
X156657199Y-83568000D01*
X150122178Y-83568000D01*
X149914625Y-83257375D01*
X149892967Y-83242904D01*
X150053698Y-83176327D01*
X150232327Y-82997699D01*
X150329000Y-82764310D01*
X150329000Y-82073750D01*
X150170250Y-81915000D01*
X148971000Y-81915000D01*
X148971000Y-81935000D01*
X148717000Y-81935000D01*
X148717000Y-81915000D01*
X148697000Y-81915000D01*
X148697000Y-81661000D01*
X148717000Y-81661000D01*
X148717000Y-80461750D01*
X148971000Y-80461750D01*
X148971000Y-81661000D01*
X150170250Y-81661000D01*
X150329000Y-81502250D01*
X150329000Y-80811690D01*
X150232327Y-80578301D01*
X150053698Y-80399673D01*
X149820309Y-80303000D01*
X149129750Y-80303000D01*
X148971000Y-80461750D01*
X148717000Y-80461750D01*
X148558250Y-80303000D01*
X147867691Y-80303000D01*
X147634302Y-80399673D01*
X147455673Y-80578301D01*
X147359000Y-80811690D01*
X147359000Y-81502250D01*
X147517748Y-81660998D01*
X147359000Y-81660998D01*
X147359000Y-81768198D01*
X145032000Y-79441199D01*
X145032000Y-78485750D01*
X153725000Y-78485750D01*
X153725000Y-79576309D01*
X153821673Y-79809698D01*
X154000301Y-79988327D01*
X154233690Y-80085000D01*
X154624250Y-80085000D01*
X154783000Y-79926250D01*
X154783000Y-78327000D01*
X155037000Y-78327000D01*
X155037000Y-79926250D01*
X155195750Y-80085000D01*
X155586310Y-80085000D01*
X155819699Y-79988327D01*
X155910000Y-79898025D01*
X156000301Y-79988327D01*
X156233690Y-80085000D01*
X156624250Y-80085000D01*
X156783000Y-79926250D01*
X156783000Y-78327000D01*
X155037000Y-78327000D01*
X154783000Y-78327000D01*
X153883750Y-78327000D01*
X153725000Y-78485750D01*
X145032000Y-78485750D01*
X145032000Y-74871711D01*
X145149431Y-74754280D01*
X145307000Y-74373874D01*
X145307000Y-73962126D01*
X145149431Y-73581720D01*
X144858280Y-73290569D01*
X144477874Y-73133000D01*
X144311801Y-73133000D01*
X144270000Y-73091199D01*
X144270000Y-71385560D01*
X144407765Y-71358157D01*
X144462500Y-71321584D01*
X144517235Y-71358157D01*
X144765000Y-71407440D01*
X146065000Y-71407440D01*
X146312765Y-71358157D01*
X146367500Y-71321584D01*
X146422235Y-71358157D01*
X146670000Y-71407440D01*
X147970000Y-71407440D01*
X148217765Y-71358157D01*
X148427809Y-71217809D01*
X148568157Y-71007765D01*
X148617440Y-70760000D01*
X148617440Y-69260000D01*
X148568157Y-69012235D01*
X148427809Y-68802191D01*
X148217765Y-68661843D01*
X148189791Y-68656279D01*
X148329699Y-68598327D01*
X148508327Y-68419698D01*
X148605000Y-68186309D01*
X148605000Y-67595750D01*
X148446250Y-67437000D01*
X147447000Y-67437000D01*
X147447000Y-67457000D01*
X147193000Y-67457000D01*
X147193000Y-67437000D01*
X147173000Y-67437000D01*
X147173000Y-67183000D01*
X147193000Y-67183000D01*
X147193000Y-66083750D01*
X147447000Y-66083750D01*
X147447000Y-67183000D01*
X148446250Y-67183000D01*
X148605000Y-67024250D01*
X148605000Y-66433691D01*
X148508327Y-66200302D01*
X148329699Y-66021673D01*
X148096310Y-65925000D01*
X147605750Y-65925000D01*
X147447000Y-66083750D01*
X147193000Y-66083750D01*
X147034250Y-65925000D01*
X146685000Y-65925000D01*
X146685000Y-65615492D01*
X146880718Y-65484718D01*
X147014165Y-65285000D01*
X149268153Y-65285000D01*
X149343000Y-65299888D01*
X149417847Y-65285000D01*
X149417852Y-65285000D01*
X149639537Y-65240904D01*
X149890929Y-65072929D01*
X149933331Y-65009470D01*
X150682802Y-64260000D01*
X153754331Y-64260000D01*
X153760808Y-64292560D01*
X153760808Y-64292560D01*
G37*
X153760808Y-64292560D02*
X151960000Y-64292560D01*
X151712235Y-64341843D01*
X151502191Y-64482191D01*
X151361843Y-64692235D01*
X151312560Y-64940000D01*
X151312560Y-66040000D01*
X151361843Y-66287765D01*
X151496973Y-66490000D01*
X151361843Y-66692235D01*
X151312560Y-66940000D01*
X151312560Y-68040000D01*
X151361843Y-68287765D01*
X151496973Y-68490000D01*
X151361843Y-68692235D01*
X151312560Y-68940000D01*
X151312560Y-70040000D01*
X151361843Y-70287765D01*
X151496973Y-70490000D01*
X151361843Y-70692235D01*
X151312560Y-70940000D01*
X151312560Y-72040000D01*
X151361843Y-72287765D01*
X151496973Y-72490000D01*
X151361843Y-72692235D01*
X151312560Y-72940000D01*
X151312560Y-74040000D01*
X151361843Y-74287765D01*
X151496973Y-74490000D01*
X151361843Y-74692235D01*
X151312560Y-74940000D01*
X151312560Y-76040000D01*
X151361843Y-76287765D01*
X151502191Y-76497809D01*
X151712235Y-76638157D01*
X151960000Y-76687440D01*
X153781437Y-76687440D01*
X153725000Y-76823691D01*
X153725000Y-77914250D01*
X153883750Y-78073000D01*
X154783000Y-78073000D01*
X154783000Y-78053000D01*
X155037000Y-78053000D01*
X155037000Y-78073000D01*
X156783000Y-78073000D01*
X156783000Y-76473750D01*
X156624250Y-76315000D01*
X156233690Y-76315000D01*
X156000301Y-76411673D01*
X155910000Y-76501975D01*
X155819699Y-76411673D01*
X155586310Y-76315000D01*
X155195750Y-76315000D01*
X155037002Y-76473748D01*
X155037002Y-76319425D01*
X155058157Y-76287765D01*
X155107440Y-76040000D01*
X155107440Y-74940000D01*
X155058157Y-74692235D01*
X154923027Y-74490000D01*
X155058157Y-74287765D01*
X155107440Y-74040000D01*
X155107440Y-72940000D01*
X155058157Y-72692235D01*
X154923027Y-72490000D01*
X155058157Y-72287765D01*
X155107440Y-72040000D01*
X155107440Y-70940000D01*
X155058157Y-70692235D01*
X154923027Y-70490000D01*
X155058157Y-70287765D01*
X155107440Y-70040000D01*
X155107440Y-68940000D01*
X155058157Y-68692235D01*
X154923027Y-68490000D01*
X155058157Y-68287765D01*
X155107440Y-68040000D01*
X155107440Y-66940000D01*
X155058157Y-66692235D01*
X154923027Y-66490000D01*
X155058157Y-66287765D01*
X155107440Y-66040000D01*
X155107440Y-64940000D01*
X155059192Y-64697440D01*
X155132501Y-64697440D01*
X155132501Y-64885648D01*
X155117612Y-64960500D01*
X155132501Y-65035352D01*
X155176597Y-65257037D01*
X155344572Y-65508429D01*
X155408028Y-65550829D01*
X156381671Y-66524473D01*
X156424071Y-66587929D01*
X156675463Y-66755904D01*
X156897148Y-66800000D01*
X156897152Y-66800000D01*
X156972000Y-66814888D01*
X157046848Y-66800000D01*
X162295153Y-66800000D01*
X162370000Y-66814888D01*
X162444847Y-66800000D01*
X162444852Y-66800000D01*
X162666537Y-66755904D01*
X162917929Y-66587929D01*
X162960331Y-66524470D01*
X164150000Y-65334802D01*
X164150001Y-75376697D01*
X163409030Y-76117669D01*
X163345571Y-76160071D01*
X163250363Y-76302560D01*
X162360000Y-76302560D01*
X162112235Y-76351843D01*
X161910000Y-76486973D01*
X161707765Y-76351843D01*
X161460000Y-76302560D01*
X160360000Y-76302560D01*
X160112235Y-76351843D01*
X159910000Y-76486973D01*
X159707765Y-76351843D01*
X159460000Y-76302560D01*
X158360000Y-76302560D01*
X158112235Y-76351843D01*
X157902191Y-76492191D01*
X157901400Y-76493375D01*
X157819699Y-76411673D01*
X157586310Y-76315000D01*
X157195750Y-76315000D01*
X157037000Y-76473750D01*
X157037000Y-78073000D01*
X157057000Y-78073000D01*
X157057000Y-78327000D01*
X157037000Y-78327000D01*
X157037000Y-79926250D01*
X157195750Y-80085000D01*
X157586310Y-80085000D01*
X157819699Y-79988327D01*
X157901400Y-79906625D01*
X157902191Y-79907809D01*
X158112235Y-80048157D01*
X158360000Y-80097440D01*
X159460000Y-80097440D01*
X159707765Y-80048157D01*
X159910000Y-79913027D01*
X160112235Y-80048157D01*
X160150000Y-80055669D01*
X160150000Y-80075198D01*
X156657199Y-83568000D01*
X150122178Y-83568000D01*
X149914625Y-83257375D01*
X149892967Y-83242904D01*
X150053698Y-83176327D01*
X150232327Y-82997699D01*
X150329000Y-82764310D01*
X150329000Y-82073750D01*
X150170250Y-81915000D01*
X148971000Y-81915000D01*
X148971000Y-81935000D01*
X148717000Y-81935000D01*
X148717000Y-81915000D01*
X148697000Y-81915000D01*
X148697000Y-81661000D01*
X148717000Y-81661000D01*
X148717000Y-80461750D01*
X148971000Y-80461750D01*
X148971000Y-81661000D01*
X150170250Y-81661000D01*
X150329000Y-81502250D01*
X150329000Y-80811690D01*
X150232327Y-80578301D01*
X150053698Y-80399673D01*
X149820309Y-80303000D01*
X149129750Y-80303000D01*
X148971000Y-80461750D01*
X148717000Y-80461750D01*
X148558250Y-80303000D01*
X147867691Y-80303000D01*
X147634302Y-80399673D01*
X147455673Y-80578301D01*
X147359000Y-80811690D01*
X147359000Y-81502250D01*
X147517748Y-81660998D01*
X147359000Y-81660998D01*
X147359000Y-81768198D01*
X145032000Y-79441199D01*
X145032000Y-78485750D01*
X153725000Y-78485750D01*
X153725000Y-79576309D01*
X153821673Y-79809698D01*
X154000301Y-79988327D01*
X154233690Y-80085000D01*
X154624250Y-80085000D01*
X154783000Y-79926250D01*
X154783000Y-78327000D01*
X155037000Y-78327000D01*
X155037000Y-79926250D01*
X155195750Y-80085000D01*
X155586310Y-80085000D01*
X155819699Y-79988327D01*
X155910000Y-79898025D01*
X156000301Y-79988327D01*
X156233690Y-80085000D01*
X156624250Y-80085000D01*
X156783000Y-79926250D01*
X156783000Y-78327000D01*
X155037000Y-78327000D01*
X154783000Y-78327000D01*
X153883750Y-78327000D01*
X153725000Y-78485750D01*
X145032000Y-78485750D01*
X145032000Y-74871711D01*
X145149431Y-74754280D01*
X145307000Y-74373874D01*
X145307000Y-73962126D01*
X145149431Y-73581720D01*
X144858280Y-73290569D01*
X144477874Y-73133000D01*
X144311801Y-73133000D01*
X144270000Y-73091199D01*
X144270000Y-71385560D01*
X144407765Y-71358157D01*
X144462500Y-71321584D01*
X144517235Y-71358157D01*
X144765000Y-71407440D01*
X146065000Y-71407440D01*
X146312765Y-71358157D01*
X146367500Y-71321584D01*
X146422235Y-71358157D01*
X146670000Y-71407440D01*
X147970000Y-71407440D01*
X148217765Y-71358157D01*
X148427809Y-71217809D01*
X148568157Y-71007765D01*
X148617440Y-70760000D01*
X148617440Y-69260000D01*
X148568157Y-69012235D01*
X148427809Y-68802191D01*
X148217765Y-68661843D01*
X148189791Y-68656279D01*
X148329699Y-68598327D01*
X148508327Y-68419698D01*
X148605000Y-68186309D01*
X148605000Y-67595750D01*
X148446250Y-67437000D01*
X147447000Y-67437000D01*
X147447000Y-67457000D01*
X147193000Y-67457000D01*
X147193000Y-67437000D01*
X147173000Y-67437000D01*
X147173000Y-67183000D01*
X147193000Y-67183000D01*
X147193000Y-66083750D01*
X147447000Y-66083750D01*
X147447000Y-67183000D01*
X148446250Y-67183000D01*
X148605000Y-67024250D01*
X148605000Y-66433691D01*
X148508327Y-66200302D01*
X148329699Y-66021673D01*
X148096310Y-65925000D01*
X147605750Y-65925000D01*
X147447000Y-66083750D01*
X147193000Y-66083750D01*
X147034250Y-65925000D01*
X146685000Y-65925000D01*
X146685000Y-65615492D01*
X146880718Y-65484718D01*
X147014165Y-65285000D01*
X149268153Y-65285000D01*
X149343000Y-65299888D01*
X149417847Y-65285000D01*
X149417852Y-65285000D01*
X149639537Y-65240904D01*
X149890929Y-65072929D01*
X149933331Y-65009470D01*
X150682802Y-64260000D01*
X153754331Y-64260000D01*
X153760808Y-64292560D01*
G36*
X153712560Y-62740000D02*
X150442847Y-62740000D01*
X150368000Y-62725112D01*
X150293153Y-62740000D01*
X150293148Y-62740000D01*
X150071463Y-62784096D01*
X149820071Y-62952071D01*
X149777671Y-63015527D01*
X149028199Y-63765000D01*
X147014165Y-63765000D01*
X146880718Y-63565282D01*
X146879535Y-63564491D01*
X147034327Y-63409698D01*
X147131000Y-63176309D01*
X147131000Y-62760750D01*
X146972250Y-62602000D01*
X145923000Y-62602000D01*
X145923000Y-62622000D01*
X145669000Y-62622000D01*
X145669000Y-62602000D01*
X145649000Y-62602000D01*
X145649000Y-62348000D01*
X145669000Y-62348000D01*
X145669000Y-62328000D01*
X145923000Y-62328000D01*
X145923000Y-62348000D01*
X146972250Y-62348000D01*
X147131000Y-62189250D01*
X147131000Y-61783500D01*
X153712560Y-61783500D01*
X153712560Y-62740000D01*
X153712560Y-62740000D01*
G37*
X153712560Y-62740000D02*
X150442847Y-62740000D01*
X150368000Y-62725112D01*
X150293153Y-62740000D01*
X150293148Y-62740000D01*
X150071463Y-62784096D01*
X149820071Y-62952071D01*
X149777671Y-63015527D01*
X149028199Y-63765000D01*
X147014165Y-63765000D01*
X146880718Y-63565282D01*
X146879535Y-63564491D01*
X147034327Y-63409698D01*
X147131000Y-63176309D01*
X147131000Y-62760750D01*
X146972250Y-62602000D01*
X145923000Y-62602000D01*
X145923000Y-62622000D01*
X145669000Y-62622000D01*
X145669000Y-62602000D01*
X145649000Y-62602000D01*
X145649000Y-62348000D01*
X145669000Y-62348000D01*
X145669000Y-62328000D01*
X145923000Y-62328000D01*
X145923000Y-62348000D01*
X146972250Y-62348000D01*
X147131000Y-62189250D01*
X147131000Y-61783500D01*
X153712560Y-61783500D01*
X153712560Y-62740000D01*
M02*
