%TF.GenerationSoftware,KiCad,Pcbnew,5.0.1*%
%TF.CreationDate,2018-11-23T03:01:38+01:00*%
%TF.ProjectId,leddings,6C656464696E67732E6B696361645F70,rev?*%
%TF.SameCoordinates,Original*%
%TF.FileFunction,Legend,Bot*%
%TF.FilePolarity,Positive*%
%FSLAX46Y46*%
G04 Gerber Fmt 4.6, Leading zero omitted, Abs format (unit mm)*
G04 Created by KiCad (PCBNEW 5.0.1) date Fr 23 Nov 2018 03:01:38 CET*
%MOMM*%
%LPD*%
G01*
G04 APERTURE LIST*
%ADD10C,0.300000*%
%ADD11C,0.010000*%
G04 APERTURE END LIST*
D10*
X163800857Y-66275000D02*
X163086571Y-66275000D01*
X163943714Y-66703571D02*
X163443714Y-65203571D01*
X162943714Y-66703571D01*
X162229428Y-66703571D02*
X162372285Y-66632142D01*
X162443714Y-66489285D01*
X162443714Y-65203571D01*
X161086571Y-66632142D02*
X161229428Y-66703571D01*
X161515142Y-66703571D01*
X161658000Y-66632142D01*
X161729428Y-66489285D01*
X161729428Y-65917857D01*
X161658000Y-65775000D01*
X161515142Y-65703571D01*
X161229428Y-65703571D01*
X161086571Y-65775000D01*
X161015142Y-65917857D01*
X161015142Y-66060714D01*
X161729428Y-66203571D01*
X160515142Y-66703571D02*
X159729428Y-65703571D01*
X160515142Y-65703571D02*
X159729428Y-66703571D01*
X158515142Y-66703571D02*
X158515142Y-65917857D01*
X158586571Y-65775000D01*
X158729428Y-65703571D01*
X159015142Y-65703571D01*
X159158000Y-65775000D01*
X158515142Y-66632142D02*
X158658000Y-66703571D01*
X159015142Y-66703571D01*
X159158000Y-66632142D01*
X159229428Y-66489285D01*
X159229428Y-66346428D01*
X159158000Y-66203571D01*
X159015142Y-66132142D01*
X158658000Y-66132142D01*
X158515142Y-66060714D01*
X157800857Y-65703571D02*
X157800857Y-66703571D01*
X157800857Y-65846428D02*
X157729428Y-65775000D01*
X157586571Y-65703571D01*
X157372285Y-65703571D01*
X157229428Y-65775000D01*
X157158000Y-65917857D01*
X157158000Y-66703571D01*
X155800857Y-66703571D02*
X155800857Y-65203571D01*
X155800857Y-66632142D02*
X155943714Y-66703571D01*
X156229428Y-66703571D01*
X156372285Y-66632142D01*
X156443714Y-66560714D01*
X156515142Y-66417857D01*
X156515142Y-65989285D01*
X156443714Y-65846428D01*
X156372285Y-65775000D01*
X156229428Y-65703571D01*
X155943714Y-65703571D01*
X155800857Y-65775000D01*
X154515142Y-66632142D02*
X154658000Y-66703571D01*
X154943714Y-66703571D01*
X155086571Y-66632142D01*
X155158000Y-66489285D01*
X155158000Y-65917857D01*
X155086571Y-65775000D01*
X154943714Y-65703571D01*
X154658000Y-65703571D01*
X154515142Y-65775000D01*
X154443714Y-65917857D01*
X154443714Y-66060714D01*
X155158000Y-66203571D01*
X153800857Y-66703571D02*
X153800857Y-65703571D01*
X153800857Y-65989285D02*
X153729428Y-65846428D01*
X153658000Y-65775000D01*
X153515142Y-65703571D01*
X153372285Y-65703571D01*
X151800857Y-66632142D02*
X151586571Y-66703571D01*
X151229428Y-66703571D01*
X151086571Y-66632142D01*
X151015142Y-66560714D01*
X150943714Y-66417857D01*
X150943714Y-66275000D01*
X151015142Y-66132142D01*
X151086571Y-66060714D01*
X151229428Y-65989285D01*
X151515142Y-65917857D01*
X151658000Y-65846428D01*
X151729428Y-65775000D01*
X151800857Y-65632142D01*
X151800857Y-65489285D01*
X151729428Y-65346428D01*
X151658000Y-65275000D01*
X151515142Y-65203571D01*
X151158000Y-65203571D01*
X150943714Y-65275000D01*
X149658000Y-66632142D02*
X149800857Y-66703571D01*
X150086571Y-66703571D01*
X150229428Y-66632142D01*
X150300857Y-66560714D01*
X150372285Y-66417857D01*
X150372285Y-65989285D01*
X150300857Y-65846428D01*
X150229428Y-65775000D01*
X150086571Y-65703571D01*
X149800857Y-65703571D01*
X149658000Y-65775000D01*
X149015142Y-66703571D02*
X149015142Y-65203571D01*
X148372285Y-66703571D02*
X148372285Y-65917857D01*
X148443714Y-65775000D01*
X148586571Y-65703571D01*
X148800857Y-65703571D01*
X148943714Y-65775000D01*
X149015142Y-65846428D01*
X147658000Y-66703571D02*
X147658000Y-65703571D01*
X147658000Y-65989285D02*
X147586571Y-65846428D01*
X147515142Y-65775000D01*
X147372285Y-65703571D01*
X147229428Y-65703571D01*
X146086571Y-66703571D02*
X146086571Y-65917857D01*
X146158000Y-65775000D01*
X146300857Y-65703571D01*
X146586571Y-65703571D01*
X146729428Y-65775000D01*
X146086571Y-66632142D02*
X146229428Y-66703571D01*
X146586571Y-66703571D01*
X146729428Y-66632142D01*
X146800857Y-66489285D01*
X146800857Y-66346428D01*
X146729428Y-66203571D01*
X146586571Y-66132142D01*
X146229428Y-66132142D01*
X146086571Y-66060714D01*
X145372285Y-66703571D02*
X145372285Y-65703571D01*
X145372285Y-65846428D02*
X145300857Y-65775000D01*
X145158000Y-65703571D01*
X144943714Y-65703571D01*
X144800857Y-65775000D01*
X144729428Y-65917857D01*
X144729428Y-66703571D01*
X144729428Y-65917857D02*
X144658000Y-65775000D01*
X144515142Y-65703571D01*
X144300857Y-65703571D01*
X144158000Y-65775000D01*
X144086571Y-65917857D01*
X144086571Y-66703571D01*
X143372285Y-66703571D02*
X143372285Y-65703571D01*
X143372285Y-65846428D02*
X143300857Y-65775000D01*
X143158000Y-65703571D01*
X142943714Y-65703571D01*
X142800857Y-65775000D01*
X142729428Y-65917857D01*
X142729428Y-66703571D01*
X142729428Y-65917857D02*
X142658000Y-65775000D01*
X142515142Y-65703571D01*
X142300857Y-65703571D01*
X142158000Y-65775000D01*
X142086571Y-65917857D01*
X142086571Y-66703571D01*
X161336571Y-67753571D02*
X160979428Y-69253571D01*
X160693714Y-68182142D01*
X160408000Y-69253571D01*
X160050857Y-67753571D01*
X159479428Y-69253571D02*
X159479428Y-68253571D01*
X159479428Y-67753571D02*
X159550857Y-67825000D01*
X159479428Y-67896428D01*
X159408000Y-67825000D01*
X159479428Y-67753571D01*
X159479428Y-67896428D01*
X158979428Y-68253571D02*
X158408000Y-68253571D01*
X158765142Y-69253571D02*
X158765142Y-67967857D01*
X158693714Y-67825000D01*
X158550857Y-67753571D01*
X158408000Y-67753571D01*
X157908000Y-69253571D02*
X157908000Y-68253571D01*
X157908000Y-67753571D02*
X157979428Y-67825000D01*
X157908000Y-67896428D01*
X157836571Y-67825000D01*
X157908000Y-67753571D01*
X157908000Y-67896428D01*
X155193714Y-69253571D02*
X155693714Y-68539285D01*
X156050857Y-69253571D02*
X156050857Y-67753571D01*
X155479428Y-67753571D01*
X155336571Y-67825000D01*
X155265142Y-67896428D01*
X155193714Y-68039285D01*
X155193714Y-68253571D01*
X155265142Y-68396428D01*
X155336571Y-68467857D01*
X155479428Y-68539285D01*
X156050857Y-68539285D01*
X153765142Y-67825000D02*
X153908000Y-67753571D01*
X154122285Y-67753571D01*
X154336571Y-67825000D01*
X154479428Y-67967857D01*
X154550857Y-68110714D01*
X154622285Y-68396428D01*
X154622285Y-68610714D01*
X154550857Y-68896428D01*
X154479428Y-69039285D01*
X154336571Y-69182142D01*
X154122285Y-69253571D01*
X153979428Y-69253571D01*
X153765142Y-69182142D01*
X153693714Y-69110714D01*
X153693714Y-68610714D01*
X153979428Y-68610714D01*
X152550857Y-68467857D02*
X152336571Y-68539285D01*
X152265142Y-68610714D01*
X152193714Y-68753571D01*
X152193714Y-68967857D01*
X152265142Y-69110714D01*
X152336571Y-69182142D01*
X152479428Y-69253571D01*
X153050857Y-69253571D01*
X153050857Y-67753571D01*
X152550857Y-67753571D01*
X152408000Y-67825000D01*
X152336571Y-67896428D01*
X152265142Y-68039285D01*
X152265142Y-68182142D01*
X152336571Y-68325000D01*
X152408000Y-68396428D01*
X152550857Y-68467857D01*
X153050857Y-68467857D01*
X150408000Y-69253571D02*
X150408000Y-67753571D01*
X150050857Y-67753571D01*
X149836571Y-67825000D01*
X149693714Y-67967857D01*
X149622285Y-68110714D01*
X149550857Y-68396428D01*
X149550857Y-68610714D01*
X149622285Y-68896428D01*
X149693714Y-69039285D01*
X149836571Y-69182142D01*
X150050857Y-69253571D01*
X150408000Y-69253571D01*
X148908000Y-69253571D02*
X148908000Y-68253571D01*
X148908000Y-68539285D02*
X148836571Y-68396428D01*
X148765142Y-68325000D01*
X148622285Y-68253571D01*
X148479428Y-68253571D01*
X147979428Y-69253571D02*
X147979428Y-68253571D01*
X147979428Y-67753571D02*
X148050857Y-67825000D01*
X147979428Y-67896428D01*
X147908000Y-67825000D01*
X147979428Y-67753571D01*
X147979428Y-67896428D01*
X147408000Y-68253571D02*
X147050857Y-69253571D01*
X146693714Y-68253571D01*
X145550857Y-69182142D02*
X145693714Y-69253571D01*
X145979428Y-69253571D01*
X146122285Y-69182142D01*
X146193714Y-69039285D01*
X146193714Y-68467857D01*
X146122285Y-68325000D01*
X145979428Y-68253571D01*
X145693714Y-68253571D01*
X145550857Y-68325000D01*
X145479428Y-68467857D01*
X145479428Y-68610714D01*
X146193714Y-68753571D01*
X144836571Y-69253571D02*
X144836571Y-68253571D01*
X144836571Y-68539285D02*
X144765142Y-68396428D01*
X144693714Y-68325000D01*
X144550857Y-68253571D01*
X144408000Y-68253571D01*
X157550857Y-70303571D02*
X157265142Y-70303571D01*
X157122285Y-70375000D01*
X156979428Y-70517857D01*
X156908000Y-70803571D01*
X156908000Y-71303571D01*
X156979428Y-71589285D01*
X157122285Y-71732142D01*
X157265142Y-71803571D01*
X157550857Y-71803571D01*
X157693714Y-71732142D01*
X157836571Y-71589285D01*
X157908000Y-71303571D01*
X157908000Y-70803571D01*
X157836571Y-70517857D01*
X157693714Y-70375000D01*
X157550857Y-70303571D01*
X155622285Y-71732142D02*
X155765142Y-71803571D01*
X156050857Y-71803571D01*
X156193714Y-71732142D01*
X156265142Y-71660714D01*
X156336571Y-71517857D01*
X156336571Y-71089285D01*
X156265142Y-70946428D01*
X156193714Y-70875000D01*
X156050857Y-70803571D01*
X155765142Y-70803571D01*
X155622285Y-70875000D01*
X155193714Y-70803571D02*
X154622285Y-70803571D01*
X154979428Y-70303571D02*
X154979428Y-71589285D01*
X154908000Y-71732142D01*
X154765142Y-71803571D01*
X154622285Y-71803571D01*
X153050857Y-70446428D02*
X152979428Y-70375000D01*
X152836571Y-70303571D01*
X152479428Y-70303571D01*
X152336571Y-70375000D01*
X152265142Y-70446428D01*
X152193714Y-70589285D01*
X152193714Y-70732142D01*
X152265142Y-70946428D01*
X153122285Y-71803571D01*
X152193714Y-71803571D01*
X151265142Y-70303571D02*
X151122285Y-70303571D01*
X150979428Y-70375000D01*
X150908000Y-70446428D01*
X150836571Y-70589285D01*
X150765142Y-70875000D01*
X150765142Y-71232142D01*
X150836571Y-71517857D01*
X150908000Y-71660714D01*
X150979428Y-71732142D01*
X151122285Y-71803571D01*
X151265142Y-71803571D01*
X151408000Y-71732142D01*
X151479428Y-71660714D01*
X151550857Y-71517857D01*
X151622285Y-71232142D01*
X151622285Y-70875000D01*
X151550857Y-70589285D01*
X151479428Y-70446428D01*
X151408000Y-70375000D01*
X151265142Y-70303571D01*
X149336571Y-71803571D02*
X150193714Y-71803571D01*
X149765142Y-71803571D02*
X149765142Y-70303571D01*
X149908000Y-70517857D01*
X150050857Y-70660714D01*
X150193714Y-70732142D01*
X148479428Y-70946428D02*
X148622285Y-70875000D01*
X148693714Y-70803571D01*
X148765142Y-70660714D01*
X148765142Y-70589285D01*
X148693714Y-70446428D01*
X148622285Y-70375000D01*
X148479428Y-70303571D01*
X148193714Y-70303571D01*
X148050857Y-70375000D01*
X147979428Y-70446428D01*
X147908000Y-70589285D01*
X147908000Y-70660714D01*
X147979428Y-70803571D01*
X148050857Y-70875000D01*
X148193714Y-70946428D01*
X148479428Y-70946428D01*
X148622285Y-71017857D01*
X148693714Y-71089285D01*
X148765142Y-71232142D01*
X148765142Y-71517857D01*
X148693714Y-71660714D01*
X148622285Y-71732142D01*
X148479428Y-71803571D01*
X148193714Y-71803571D01*
X148050857Y-71732142D01*
X147979428Y-71660714D01*
X147908000Y-71517857D01*
X147908000Y-71232142D01*
X147979428Y-71089285D01*
X148050857Y-71017857D01*
X148193714Y-70946428D01*
X155050857Y-73353571D02*
X154693714Y-74353571D01*
X154336571Y-73353571D01*
X152979428Y-74353571D02*
X153836571Y-74353571D01*
X153408000Y-74353571D02*
X153408000Y-72853571D01*
X153550857Y-73067857D01*
X153693714Y-73210714D01*
X153836571Y-73282142D01*
X152336571Y-74210714D02*
X152265142Y-74282142D01*
X152336571Y-74353571D01*
X152408000Y-74282142D01*
X152336571Y-74210714D01*
X152336571Y-74353571D01*
X151336571Y-72853571D02*
X151193714Y-72853571D01*
X151050857Y-72925000D01*
X150979428Y-72996428D01*
X150908000Y-73139285D01*
X150836571Y-73425000D01*
X150836571Y-73782142D01*
X150908000Y-74067857D01*
X150979428Y-74210714D01*
X151050857Y-74282142D01*
X151193714Y-74353571D01*
X151336571Y-74353571D01*
X151479428Y-74282142D01*
X151550857Y-74210714D01*
X151622285Y-74067857D01*
X151693714Y-73782142D01*
X151693714Y-73425000D01*
X151622285Y-73139285D01*
X151550857Y-72996428D01*
X151479428Y-72925000D01*
X151336571Y-72853571D01*
D11*
G36*
X156180091Y-60059560D02*
X156127588Y-60085499D01*
X156062842Y-60130700D01*
X156015653Y-60179991D01*
X155983335Y-60241885D01*
X155963203Y-60324896D01*
X155952570Y-60437538D01*
X155948753Y-60588324D01*
X155948530Y-60653149D01*
X155949182Y-60795221D01*
X155951888Y-60896757D01*
X155957776Y-60967015D01*
X155967973Y-61015256D01*
X155983606Y-61050738D01*
X155999872Y-61074943D01*
X156103705Y-61177929D01*
X156225979Y-61239874D01*
X156357886Y-61258506D01*
X156490616Y-61231549D01*
X156532667Y-61212486D01*
X156633334Y-61160015D01*
X156633334Y-61982259D01*
X156559865Y-61944267D01*
X156463059Y-61914872D01*
X156344072Y-61907342D01*
X156225255Y-61921245D01*
X156135527Y-61952476D01*
X156061101Y-62011954D01*
X155997510Y-62097066D01*
X155992729Y-62105805D01*
X155972563Y-62146966D01*
X155957835Y-62188454D01*
X155947697Y-62238713D01*
X155941301Y-62306184D01*
X155937799Y-62399309D01*
X155936342Y-62526531D01*
X155936079Y-62669701D01*
X155936079Y-63126471D01*
X156210000Y-63126471D01*
X156210000Y-62284231D01*
X156286617Y-62219763D01*
X156366207Y-62168194D01*
X156441578Y-62158818D01*
X156517367Y-62182947D01*
X156557759Y-62206574D01*
X156587821Y-62240227D01*
X156609203Y-62291087D01*
X156623550Y-62366334D01*
X156632510Y-62473146D01*
X156637730Y-62618704D01*
X156639569Y-62715588D01*
X156645785Y-63114020D01*
X156776520Y-63121547D01*
X156907255Y-63129073D01*
X156907255Y-60656582D01*
X156633334Y-60656582D01*
X156626350Y-60794423D01*
X156602818Y-60890107D01*
X156558865Y-60949641D01*
X156490618Y-60979029D01*
X156421667Y-60984902D01*
X156343614Y-60978154D01*
X156291811Y-60951594D01*
X156259417Y-60916499D01*
X156233916Y-60878752D01*
X156218735Y-60836700D01*
X156211981Y-60777779D01*
X156211759Y-60689428D01*
X156214032Y-60615448D01*
X156219251Y-60504000D01*
X156227021Y-60430833D01*
X156240105Y-60384422D01*
X156261268Y-60353244D01*
X156281240Y-60335223D01*
X156364686Y-60295925D01*
X156463449Y-60289579D01*
X156520159Y-60303116D01*
X156576308Y-60351233D01*
X156613501Y-60444833D01*
X156631528Y-60583254D01*
X156633334Y-60656582D01*
X156907255Y-60656582D01*
X156907255Y-60038628D01*
X156770295Y-60038628D01*
X156688065Y-60041879D01*
X156645640Y-60053426D01*
X156633339Y-60075952D01*
X156633334Y-60076620D01*
X156627626Y-60098681D01*
X156602453Y-60096176D01*
X156552402Y-60071935D01*
X156435781Y-60034851D01*
X156304571Y-60030953D01*
X156180091Y-60059560D01*
X156180091Y-60059560D01*
G37*
X156180091Y-60059560D02*
X156127588Y-60085499D01*
X156062842Y-60130700D01*
X156015653Y-60179991D01*
X155983335Y-60241885D01*
X155963203Y-60324896D01*
X155952570Y-60437538D01*
X155948753Y-60588324D01*
X155948530Y-60653149D01*
X155949182Y-60795221D01*
X155951888Y-60896757D01*
X155957776Y-60967015D01*
X155967973Y-61015256D01*
X155983606Y-61050738D01*
X155999872Y-61074943D01*
X156103705Y-61177929D01*
X156225979Y-61239874D01*
X156357886Y-61258506D01*
X156490616Y-61231549D01*
X156532667Y-61212486D01*
X156633334Y-61160015D01*
X156633334Y-61982259D01*
X156559865Y-61944267D01*
X156463059Y-61914872D01*
X156344072Y-61907342D01*
X156225255Y-61921245D01*
X156135527Y-61952476D01*
X156061101Y-62011954D01*
X155997510Y-62097066D01*
X155992729Y-62105805D01*
X155972563Y-62146966D01*
X155957835Y-62188454D01*
X155947697Y-62238713D01*
X155941301Y-62306184D01*
X155937799Y-62399309D01*
X155936342Y-62526531D01*
X155936079Y-62669701D01*
X155936079Y-63126471D01*
X156210000Y-63126471D01*
X156210000Y-62284231D01*
X156286617Y-62219763D01*
X156366207Y-62168194D01*
X156441578Y-62158818D01*
X156517367Y-62182947D01*
X156557759Y-62206574D01*
X156587821Y-62240227D01*
X156609203Y-62291087D01*
X156623550Y-62366334D01*
X156632510Y-62473146D01*
X156637730Y-62618704D01*
X156639569Y-62715588D01*
X156645785Y-63114020D01*
X156776520Y-63121547D01*
X156907255Y-63129073D01*
X156907255Y-60656582D01*
X156633334Y-60656582D01*
X156626350Y-60794423D01*
X156602818Y-60890107D01*
X156558865Y-60949641D01*
X156490618Y-60979029D01*
X156421667Y-60984902D01*
X156343614Y-60978154D01*
X156291811Y-60951594D01*
X156259417Y-60916499D01*
X156233916Y-60878752D01*
X156218735Y-60836700D01*
X156211981Y-60777779D01*
X156211759Y-60689428D01*
X156214032Y-60615448D01*
X156219251Y-60504000D01*
X156227021Y-60430833D01*
X156240105Y-60384422D01*
X156261268Y-60353244D01*
X156281240Y-60335223D01*
X156364686Y-60295925D01*
X156463449Y-60289579D01*
X156520159Y-60303116D01*
X156576308Y-60351233D01*
X156613501Y-60444833D01*
X156631528Y-60583254D01*
X156633334Y-60656582D01*
X156907255Y-60656582D01*
X156907255Y-60038628D01*
X156770295Y-60038628D01*
X156688065Y-60041879D01*
X156645640Y-60053426D01*
X156633339Y-60075952D01*
X156633334Y-60076620D01*
X156627626Y-60098681D01*
X156602453Y-60096176D01*
X156552402Y-60071935D01*
X156435781Y-60034851D01*
X156304571Y-60030953D01*
X156180091Y-60059560D01*
G36*
X155141280Y-61915922D02*
X155024130Y-61947180D01*
X154934949Y-62003837D01*
X154872016Y-62078045D01*
X154852452Y-62109716D01*
X154838008Y-62142891D01*
X154827911Y-62185329D01*
X154821385Y-62244788D01*
X154817658Y-62329029D01*
X154815954Y-62445810D01*
X154815500Y-62602890D01*
X154815491Y-62644565D01*
X154815491Y-63126471D01*
X154935020Y-63126471D01*
X155011261Y-63121131D01*
X155067634Y-63107604D01*
X155081758Y-63099262D01*
X155120370Y-63084864D01*
X155159808Y-63099262D01*
X155224738Y-63117237D01*
X155319055Y-63124472D01*
X155423593Y-63121333D01*
X155519189Y-63108186D01*
X155575000Y-63091318D01*
X155683002Y-63021986D01*
X155750497Y-62925772D01*
X155780841Y-62797844D01*
X155781123Y-62794559D01*
X155778460Y-62737808D01*
X155537647Y-62737808D01*
X155516595Y-62802358D01*
X155482303Y-62838686D01*
X155413468Y-62866162D01*
X155322610Y-62877129D01*
X155229958Y-62871731D01*
X155155744Y-62850110D01*
X155134951Y-62836239D01*
X155098619Y-62772143D01*
X155089412Y-62699278D01*
X155089412Y-62603530D01*
X155227173Y-62603530D01*
X155358047Y-62613605D01*
X155457259Y-62642148D01*
X155518977Y-62686639D01*
X155537647Y-62737808D01*
X155778460Y-62737808D01*
X155774564Y-62654790D01*
X155728466Y-62544282D01*
X155641800Y-62460712D01*
X155629821Y-62453110D01*
X155578345Y-62428357D01*
X155514632Y-62413368D01*
X155425565Y-62406082D01*
X155319755Y-62404407D01*
X155089412Y-62404314D01*
X155089412Y-62307755D01*
X155099183Y-62232836D01*
X155124116Y-62182644D01*
X155127035Y-62179972D01*
X155182519Y-62158015D01*
X155266273Y-62149505D01*
X155358833Y-62153687D01*
X155440730Y-62169809D01*
X155489327Y-62193990D01*
X155515659Y-62213359D01*
X155543465Y-62217057D01*
X155581839Y-62201188D01*
X155639875Y-62161855D01*
X155726669Y-62095164D01*
X155734635Y-62088916D01*
X155730553Y-62065800D01*
X155696499Y-62027352D01*
X155644740Y-61984627D01*
X155587545Y-61948679D01*
X155569575Y-61940191D01*
X155504028Y-61923252D01*
X155407980Y-61911170D01*
X155300671Y-61906323D01*
X155295653Y-61906313D01*
X155141280Y-61915922D01*
X155141280Y-61915922D01*
G37*
X155141280Y-61915922D02*
X155024130Y-61947180D01*
X154934949Y-62003837D01*
X154872016Y-62078045D01*
X154852452Y-62109716D01*
X154838008Y-62142891D01*
X154827911Y-62185329D01*
X154821385Y-62244788D01*
X154817658Y-62329029D01*
X154815954Y-62445810D01*
X154815500Y-62602890D01*
X154815491Y-62644565D01*
X154815491Y-63126471D01*
X154935020Y-63126471D01*
X155011261Y-63121131D01*
X155067634Y-63107604D01*
X155081758Y-63099262D01*
X155120370Y-63084864D01*
X155159808Y-63099262D01*
X155224738Y-63117237D01*
X155319055Y-63124472D01*
X155423593Y-63121333D01*
X155519189Y-63108186D01*
X155575000Y-63091318D01*
X155683002Y-63021986D01*
X155750497Y-62925772D01*
X155780841Y-62797844D01*
X155781123Y-62794559D01*
X155778460Y-62737808D01*
X155537647Y-62737808D01*
X155516595Y-62802358D01*
X155482303Y-62838686D01*
X155413468Y-62866162D01*
X155322610Y-62877129D01*
X155229958Y-62871731D01*
X155155744Y-62850110D01*
X155134951Y-62836239D01*
X155098619Y-62772143D01*
X155089412Y-62699278D01*
X155089412Y-62603530D01*
X155227173Y-62603530D01*
X155358047Y-62613605D01*
X155457259Y-62642148D01*
X155518977Y-62686639D01*
X155537647Y-62737808D01*
X155778460Y-62737808D01*
X155774564Y-62654790D01*
X155728466Y-62544282D01*
X155641800Y-62460712D01*
X155629821Y-62453110D01*
X155578345Y-62428357D01*
X155514632Y-62413368D01*
X155425565Y-62406082D01*
X155319755Y-62404407D01*
X155089412Y-62404314D01*
X155089412Y-62307755D01*
X155099183Y-62232836D01*
X155124116Y-62182644D01*
X155127035Y-62179972D01*
X155182519Y-62158015D01*
X155266273Y-62149505D01*
X155358833Y-62153687D01*
X155440730Y-62169809D01*
X155489327Y-62193990D01*
X155515659Y-62213359D01*
X155543465Y-62217057D01*
X155581839Y-62201188D01*
X155639875Y-62161855D01*
X155726669Y-62095164D01*
X155734635Y-62088916D01*
X155730553Y-62065800D01*
X155696499Y-62027352D01*
X155644740Y-61984627D01*
X155587545Y-61948679D01*
X155569575Y-61940191D01*
X155504028Y-61923252D01*
X155407980Y-61911170D01*
X155300671Y-61906323D01*
X155295653Y-61906313D01*
X155141280Y-61915922D01*
G36*
X154367236Y-61908921D02*
X154329970Y-61920091D01*
X154317957Y-61944633D01*
X154317451Y-61955712D01*
X154315296Y-61986572D01*
X154300449Y-61991417D01*
X154260343Y-61970260D01*
X154236520Y-61955806D01*
X154161362Y-61924850D01*
X154071594Y-61909544D01*
X153977471Y-61908367D01*
X153889246Y-61919799D01*
X153817174Y-61942320D01*
X153771508Y-61974409D01*
X153762502Y-62014545D01*
X153767047Y-62025415D01*
X153800179Y-62070534D01*
X153851555Y-62126026D01*
X153860848Y-62134996D01*
X153909818Y-62176245D01*
X153952069Y-62189572D01*
X154011159Y-62180271D01*
X154034831Y-62174090D01*
X154108496Y-62159246D01*
X154160290Y-62165921D01*
X154204031Y-62189465D01*
X154244098Y-62221061D01*
X154273608Y-62260798D01*
X154294116Y-62316252D01*
X154307176Y-62395003D01*
X154314344Y-62504629D01*
X154317176Y-62652706D01*
X154317451Y-62742111D01*
X154317451Y-63126471D01*
X154566471Y-63126471D01*
X154566471Y-61906275D01*
X154441961Y-61906275D01*
X154367236Y-61908921D01*
X154367236Y-61908921D01*
G37*
X154367236Y-61908921D02*
X154329970Y-61920091D01*
X154317957Y-61944633D01*
X154317451Y-61955712D01*
X154315296Y-61986572D01*
X154300449Y-61991417D01*
X154260343Y-61970260D01*
X154236520Y-61955806D01*
X154161362Y-61924850D01*
X154071594Y-61909544D01*
X153977471Y-61908367D01*
X153889246Y-61919799D01*
X153817174Y-61942320D01*
X153771508Y-61974409D01*
X153762502Y-62014545D01*
X153767047Y-62025415D01*
X153800179Y-62070534D01*
X153851555Y-62126026D01*
X153860848Y-62134996D01*
X153909818Y-62176245D01*
X153952069Y-62189572D01*
X154011159Y-62180271D01*
X154034831Y-62174090D01*
X154108496Y-62159246D01*
X154160290Y-62165921D01*
X154204031Y-62189465D01*
X154244098Y-62221061D01*
X154273608Y-62260798D01*
X154294116Y-62316252D01*
X154307176Y-62395003D01*
X154314344Y-62504629D01*
X154317176Y-62652706D01*
X154317451Y-62742111D01*
X154317451Y-63126471D01*
X154566471Y-63126471D01*
X154566471Y-61906275D01*
X154441961Y-61906275D01*
X154367236Y-61908921D01*
G36*
X152798432Y-63126471D02*
X152935393Y-63126471D01*
X153014889Y-63124140D01*
X153056292Y-63114488D01*
X153071199Y-63093525D01*
X153072353Y-63079351D01*
X153074867Y-63050927D01*
X153090720Y-63045475D01*
X153132379Y-63062998D01*
X153164776Y-63079351D01*
X153289151Y-63118103D01*
X153424354Y-63120346D01*
X153534274Y-63091444D01*
X153636634Y-63021619D01*
X153714660Y-62918555D01*
X153757386Y-62796989D01*
X153758474Y-62790192D01*
X153764822Y-62716032D01*
X153767979Y-62609570D01*
X153767725Y-62529052D01*
X153495711Y-62529052D01*
X153489410Y-62636070D01*
X153475075Y-62724278D01*
X153455669Y-62774090D01*
X153382254Y-62842162D01*
X153295086Y-62866564D01*
X153205196Y-62846831D01*
X153128383Y-62787968D01*
X153099292Y-62748379D01*
X153082283Y-62701138D01*
X153074316Y-62632181D01*
X153072353Y-62528607D01*
X153075866Y-62426039D01*
X153085143Y-62335921D01*
X153098294Y-62275613D01*
X153100486Y-62270208D01*
X153153522Y-62205940D01*
X153230933Y-62170656D01*
X153317546Y-62164959D01*
X153398193Y-62189453D01*
X153457703Y-62244742D01*
X153463876Y-62255743D01*
X153483199Y-62322827D01*
X153493726Y-62419284D01*
X153495711Y-62529052D01*
X153767725Y-62529052D01*
X153767596Y-62488225D01*
X153765806Y-62422918D01*
X153753627Y-62261355D01*
X153728315Y-62140053D01*
X153686207Y-62050379D01*
X153623641Y-61983699D01*
X153562900Y-61944557D01*
X153478036Y-61917040D01*
X153372485Y-61907603D01*
X153264402Y-61915290D01*
X153171942Y-61939146D01*
X153123090Y-61967685D01*
X153072353Y-62013601D01*
X153072353Y-61433137D01*
X152798432Y-61433137D01*
X152798432Y-63126471D01*
X152798432Y-63126471D01*
G37*
X152798432Y-63126471D02*
X152935393Y-63126471D01*
X153014889Y-63124140D01*
X153056292Y-63114488D01*
X153071199Y-63093525D01*
X153072353Y-63079351D01*
X153074867Y-63050927D01*
X153090720Y-63045475D01*
X153132379Y-63062998D01*
X153164776Y-63079351D01*
X153289151Y-63118103D01*
X153424354Y-63120346D01*
X153534274Y-63091444D01*
X153636634Y-63021619D01*
X153714660Y-62918555D01*
X153757386Y-62796989D01*
X153758474Y-62790192D01*
X153764822Y-62716032D01*
X153767979Y-62609570D01*
X153767725Y-62529052D01*
X153495711Y-62529052D01*
X153489410Y-62636070D01*
X153475075Y-62724278D01*
X153455669Y-62774090D01*
X153382254Y-62842162D01*
X153295086Y-62866564D01*
X153205196Y-62846831D01*
X153128383Y-62787968D01*
X153099292Y-62748379D01*
X153082283Y-62701138D01*
X153074316Y-62632181D01*
X153072353Y-62528607D01*
X153075866Y-62426039D01*
X153085143Y-62335921D01*
X153098294Y-62275613D01*
X153100486Y-62270208D01*
X153153522Y-62205940D01*
X153230933Y-62170656D01*
X153317546Y-62164959D01*
X153398193Y-62189453D01*
X153457703Y-62244742D01*
X153463876Y-62255743D01*
X153483199Y-62322827D01*
X153493726Y-62419284D01*
X153495711Y-62529052D01*
X153767725Y-62529052D01*
X153767596Y-62488225D01*
X153765806Y-62422918D01*
X153753627Y-62261355D01*
X153728315Y-62140053D01*
X153686207Y-62050379D01*
X153623641Y-61983699D01*
X153562900Y-61944557D01*
X153478036Y-61917040D01*
X153372485Y-61907603D01*
X153264402Y-61915290D01*
X153171942Y-61939146D01*
X153123090Y-61967685D01*
X153072353Y-62013601D01*
X153072353Y-61433137D01*
X152798432Y-61433137D01*
X152798432Y-63126471D01*
G36*
X151842472Y-61911332D02*
X151743986Y-61918726D01*
X151615224Y-62304706D01*
X151486463Y-62690686D01*
X151446089Y-62553726D01*
X151421793Y-62469083D01*
X151389833Y-62354697D01*
X151355321Y-62228963D01*
X151337072Y-62161520D01*
X151268429Y-61906275D01*
X150985227Y-61906275D01*
X151069878Y-62173971D01*
X151111565Y-62305638D01*
X151161926Y-62464458D01*
X151214519Y-62630128D01*
X151261470Y-62777843D01*
X151368411Y-63114020D01*
X151599339Y-63129044D01*
X151661950Y-62922316D01*
X151700562Y-62793896D01*
X151742700Y-62652322D01*
X151779528Y-62527285D01*
X151780982Y-62522309D01*
X151808489Y-62437586D01*
X151832758Y-62379778D01*
X151849757Y-62357918D01*
X151853250Y-62360446D01*
X151865510Y-62394336D01*
X151888805Y-62466930D01*
X151920300Y-62569101D01*
X151957158Y-62691720D01*
X151977101Y-62759167D01*
X152085105Y-63126471D01*
X152314321Y-63126471D01*
X152497561Y-62547500D01*
X152549037Y-62385091D01*
X152595930Y-62237602D01*
X152636023Y-62111960D01*
X152667103Y-62015095D01*
X152686955Y-61953934D01*
X152692989Y-61936065D01*
X152688212Y-61917768D01*
X152650703Y-61909755D01*
X152572645Y-61910557D01*
X152560426Y-61911163D01*
X152415674Y-61918726D01*
X152320870Y-62267353D01*
X152286023Y-62394497D01*
X152254883Y-62506265D01*
X152230191Y-62592953D01*
X152214688Y-62644856D01*
X152211824Y-62653318D01*
X152199954Y-62643587D01*
X152176017Y-62593172D01*
X152142761Y-62508935D01*
X152102936Y-62397741D01*
X152069270Y-62297297D01*
X151940959Y-61903939D01*
X151842472Y-61911332D01*
X151842472Y-61911332D01*
G37*
X151842472Y-61911332D02*
X151743986Y-61918726D01*
X151615224Y-62304706D01*
X151486463Y-62690686D01*
X151446089Y-62553726D01*
X151421793Y-62469083D01*
X151389833Y-62354697D01*
X151355321Y-62228963D01*
X151337072Y-62161520D01*
X151268429Y-61906275D01*
X150985227Y-61906275D01*
X151069878Y-62173971D01*
X151111565Y-62305638D01*
X151161926Y-62464458D01*
X151214519Y-62630128D01*
X151261470Y-62777843D01*
X151368411Y-63114020D01*
X151599339Y-63129044D01*
X151661950Y-62922316D01*
X151700562Y-62793896D01*
X151742700Y-62652322D01*
X151779528Y-62527285D01*
X151780982Y-62522309D01*
X151808489Y-62437586D01*
X151832758Y-62379778D01*
X151849757Y-62357918D01*
X151853250Y-62360446D01*
X151865510Y-62394336D01*
X151888805Y-62466930D01*
X151920300Y-62569101D01*
X151957158Y-62691720D01*
X151977101Y-62759167D01*
X152085105Y-63126471D01*
X152314321Y-63126471D01*
X152497561Y-62547500D01*
X152549037Y-62385091D01*
X152595930Y-62237602D01*
X152636023Y-62111960D01*
X152667103Y-62015095D01*
X152686955Y-61953934D01*
X152692989Y-61936065D01*
X152688212Y-61917768D01*
X152650703Y-61909755D01*
X152572645Y-61910557D01*
X152560426Y-61911163D01*
X152415674Y-61918726D01*
X152320870Y-62267353D01*
X152286023Y-62394497D01*
X152254883Y-62506265D01*
X152230191Y-62592953D01*
X152214688Y-62644856D01*
X152211824Y-62653318D01*
X152199954Y-62643587D01*
X152176017Y-62593172D01*
X152142761Y-62508935D01*
X152102936Y-62397741D01*
X152069270Y-62297297D01*
X151940959Y-61903939D01*
X151842472Y-61911332D01*
G36*
X150343541Y-61913669D02*
X150238580Y-61939163D01*
X150208239Y-61952669D01*
X150149427Y-61988046D01*
X150104291Y-62027890D01*
X150070894Y-62079120D01*
X150047299Y-62148654D01*
X150031567Y-62243409D01*
X150021761Y-62370305D01*
X150015943Y-62536258D01*
X150013734Y-62647108D01*
X150005604Y-63126471D01*
X150144469Y-63126471D01*
X150228713Y-63122938D01*
X150272116Y-63110866D01*
X150283334Y-63090594D01*
X150289256Y-63068674D01*
X150315734Y-63072865D01*
X150351814Y-63090441D01*
X150442138Y-63117382D01*
X150558223Y-63124642D01*
X150680320Y-63112767D01*
X150788679Y-63082305D01*
X150798398Y-63078077D01*
X150897432Y-63008505D01*
X150962719Y-62911789D01*
X150992760Y-62798738D01*
X150990465Y-62758122D01*
X150745367Y-62758122D01*
X150723771Y-62812782D01*
X150659741Y-62851952D01*
X150556435Y-62872974D01*
X150501226Y-62875766D01*
X150409218Y-62868620D01*
X150348059Y-62840848D01*
X150333138Y-62827647D01*
X150292713Y-62755829D01*
X150283334Y-62690686D01*
X150283334Y-62603530D01*
X150404731Y-62603530D01*
X150545847Y-62610722D01*
X150644827Y-62633345D01*
X150707367Y-62672964D01*
X150721369Y-62690628D01*
X150745367Y-62758122D01*
X150990465Y-62758122D01*
X150986059Y-62680157D01*
X150941120Y-62566855D01*
X150879804Y-62490285D01*
X150842668Y-62457181D01*
X150806313Y-62435425D01*
X150759010Y-62422161D01*
X150689027Y-62414528D01*
X150584636Y-62409670D01*
X150543230Y-62408273D01*
X150283334Y-62399780D01*
X150283715Y-62321116D01*
X150293781Y-62238428D01*
X150330171Y-62188431D01*
X150403689Y-62156489D01*
X150405661Y-62155920D01*
X150509895Y-62143361D01*
X150611892Y-62159766D01*
X150687695Y-62199657D01*
X150718110Y-62219354D01*
X150750868Y-62216629D01*
X150801279Y-62188091D01*
X150830881Y-62167950D01*
X150888782Y-62124919D01*
X150924648Y-62092662D01*
X150930403Y-62083427D01*
X150906705Y-62035636D01*
X150836687Y-61978562D01*
X150806275Y-61959305D01*
X150718845Y-61926140D01*
X150601017Y-61907350D01*
X150470134Y-61903129D01*
X150343541Y-61913669D01*
X150343541Y-61913669D01*
G37*
X150343541Y-61913669D02*
X150238580Y-61939163D01*
X150208239Y-61952669D01*
X150149427Y-61988046D01*
X150104291Y-62027890D01*
X150070894Y-62079120D01*
X150047299Y-62148654D01*
X150031567Y-62243409D01*
X150021761Y-62370305D01*
X150015943Y-62536258D01*
X150013734Y-62647108D01*
X150005604Y-63126471D01*
X150144469Y-63126471D01*
X150228713Y-63122938D01*
X150272116Y-63110866D01*
X150283334Y-63090594D01*
X150289256Y-63068674D01*
X150315734Y-63072865D01*
X150351814Y-63090441D01*
X150442138Y-63117382D01*
X150558223Y-63124642D01*
X150680320Y-63112767D01*
X150788679Y-63082305D01*
X150798398Y-63078077D01*
X150897432Y-63008505D01*
X150962719Y-62911789D01*
X150992760Y-62798738D01*
X150990465Y-62758122D01*
X150745367Y-62758122D01*
X150723771Y-62812782D01*
X150659741Y-62851952D01*
X150556435Y-62872974D01*
X150501226Y-62875766D01*
X150409218Y-62868620D01*
X150348059Y-62840848D01*
X150333138Y-62827647D01*
X150292713Y-62755829D01*
X150283334Y-62690686D01*
X150283334Y-62603530D01*
X150404731Y-62603530D01*
X150545847Y-62610722D01*
X150644827Y-62633345D01*
X150707367Y-62672964D01*
X150721369Y-62690628D01*
X150745367Y-62758122D01*
X150990465Y-62758122D01*
X150986059Y-62680157D01*
X150941120Y-62566855D01*
X150879804Y-62490285D01*
X150842668Y-62457181D01*
X150806313Y-62435425D01*
X150759010Y-62422161D01*
X150689027Y-62414528D01*
X150584636Y-62409670D01*
X150543230Y-62408273D01*
X150283334Y-62399780D01*
X150283715Y-62321116D01*
X150293781Y-62238428D01*
X150330171Y-62188431D01*
X150403689Y-62156489D01*
X150405661Y-62155920D01*
X150509895Y-62143361D01*
X150611892Y-62159766D01*
X150687695Y-62199657D01*
X150718110Y-62219354D01*
X150750868Y-62216629D01*
X150801279Y-62188091D01*
X150830881Y-62167950D01*
X150888782Y-62124919D01*
X150924648Y-62092662D01*
X150930403Y-62083427D01*
X150906705Y-62035636D01*
X150836687Y-61978562D01*
X150806275Y-61959305D01*
X150718845Y-61926140D01*
X150601017Y-61907350D01*
X150470134Y-61903129D01*
X150343541Y-61913669D01*
G36*
X149161554Y-61905883D02*
X149065823Y-61924755D01*
X149011323Y-61952699D01*
X148953992Y-61999123D01*
X149035559Y-62102111D01*
X149085850Y-62164479D01*
X149119999Y-62194907D01*
X149153937Y-62199555D01*
X149203594Y-62184586D01*
X149226904Y-62176117D01*
X149321937Y-62163622D01*
X149408968Y-62190406D01*
X149472862Y-62250915D01*
X149483241Y-62270208D01*
X149494544Y-62321314D01*
X149503268Y-62415500D01*
X149509003Y-62546089D01*
X149511340Y-62706405D01*
X149511373Y-62729211D01*
X149511373Y-63126471D01*
X149785295Y-63126471D01*
X149785295Y-61906275D01*
X149648334Y-61906275D01*
X149569362Y-61908337D01*
X149528221Y-61917513D01*
X149513008Y-61938290D01*
X149511373Y-61957886D01*
X149511373Y-62009497D01*
X149445760Y-61957886D01*
X149370525Y-61922675D01*
X149269456Y-61905265D01*
X149161554Y-61905883D01*
X149161554Y-61905883D01*
G37*
X149161554Y-61905883D02*
X149065823Y-61924755D01*
X149011323Y-61952699D01*
X148953992Y-61999123D01*
X149035559Y-62102111D01*
X149085850Y-62164479D01*
X149119999Y-62194907D01*
X149153937Y-62199555D01*
X149203594Y-62184586D01*
X149226904Y-62176117D01*
X149321937Y-62163622D01*
X149408968Y-62190406D01*
X149472862Y-62250915D01*
X149483241Y-62270208D01*
X149494544Y-62321314D01*
X149503268Y-62415500D01*
X149509003Y-62546089D01*
X149511340Y-62706405D01*
X149511373Y-62729211D01*
X149511373Y-63126471D01*
X149785295Y-63126471D01*
X149785295Y-61906275D01*
X149648334Y-61906275D01*
X149569362Y-61908337D01*
X149528221Y-61917513D01*
X149513008Y-61938290D01*
X149511373Y-61957886D01*
X149511373Y-62009497D01*
X149445760Y-61957886D01*
X149370525Y-61922675D01*
X149269456Y-61905265D01*
X149161554Y-61905883D01*
G36*
X148374693Y-61912784D02*
X148255663Y-61943731D01*
X148155979Y-62007600D01*
X148107712Y-62055313D01*
X148028592Y-62168106D01*
X147983248Y-62298950D01*
X147967670Y-62459792D01*
X147967590Y-62472794D01*
X147967451Y-62603530D01*
X148719909Y-62603530D01*
X148703870Y-62672010D01*
X148674909Y-62734031D01*
X148624222Y-62798654D01*
X148613621Y-62808971D01*
X148522506Y-62864805D01*
X148418600Y-62874275D01*
X148299000Y-62837540D01*
X148278726Y-62827647D01*
X148216544Y-62797574D01*
X148174894Y-62780440D01*
X148167627Y-62778855D01*
X148142260Y-62794242D01*
X148093880Y-62831887D01*
X148069321Y-62852459D01*
X148018430Y-62899714D01*
X148001719Y-62930917D01*
X148013317Y-62959620D01*
X148019517Y-62967468D01*
X148061507Y-63001819D01*
X148130794Y-63043565D01*
X148179118Y-63067935D01*
X148316289Y-63110873D01*
X148468153Y-63124786D01*
X148611976Y-63108300D01*
X148652255Y-63096496D01*
X148776922Y-63029689D01*
X148869329Y-62926892D01*
X148930010Y-62787105D01*
X148959502Y-62609330D01*
X148962740Y-62516373D01*
X148953286Y-62381033D01*
X148714510Y-62381033D01*
X148691416Y-62391038D01*
X148629338Y-62398888D01*
X148539086Y-62403521D01*
X148477942Y-62404314D01*
X148367960Y-62403549D01*
X148298543Y-62399970D01*
X148260462Y-62391649D01*
X148244485Y-62376657D01*
X148241373Y-62354903D01*
X148262722Y-62287892D01*
X148316471Y-62221664D01*
X148387178Y-62170832D01*
X148457911Y-62150038D01*
X148553984Y-62168484D01*
X148637151Y-62221811D01*
X148694814Y-62298677D01*
X148714510Y-62381033D01*
X148953286Y-62381033D01*
X148948972Y-62319291D01*
X148906480Y-62162271D01*
X148834365Y-62044069D01*
X148731727Y-61963440D01*
X148597668Y-61919139D01*
X148525043Y-61910607D01*
X148374693Y-61912784D01*
X148374693Y-61912784D01*
G37*
X148374693Y-61912784D02*
X148255663Y-61943731D01*
X148155979Y-62007600D01*
X148107712Y-62055313D01*
X148028592Y-62168106D01*
X147983248Y-62298950D01*
X147967670Y-62459792D01*
X147967590Y-62472794D01*
X147967451Y-62603530D01*
X148719909Y-62603530D01*
X148703870Y-62672010D01*
X148674909Y-62734031D01*
X148624222Y-62798654D01*
X148613621Y-62808971D01*
X148522506Y-62864805D01*
X148418600Y-62874275D01*
X148299000Y-62837540D01*
X148278726Y-62827647D01*
X148216544Y-62797574D01*
X148174894Y-62780440D01*
X148167627Y-62778855D01*
X148142260Y-62794242D01*
X148093880Y-62831887D01*
X148069321Y-62852459D01*
X148018430Y-62899714D01*
X148001719Y-62930917D01*
X148013317Y-62959620D01*
X148019517Y-62967468D01*
X148061507Y-63001819D01*
X148130794Y-63043565D01*
X148179118Y-63067935D01*
X148316289Y-63110873D01*
X148468153Y-63124786D01*
X148611976Y-63108300D01*
X148652255Y-63096496D01*
X148776922Y-63029689D01*
X148869329Y-62926892D01*
X148930010Y-62787105D01*
X148959502Y-62609330D01*
X148962740Y-62516373D01*
X148953286Y-62381033D01*
X148714510Y-62381033D01*
X148691416Y-62391038D01*
X148629338Y-62398888D01*
X148539086Y-62403521D01*
X148477942Y-62404314D01*
X148367960Y-62403549D01*
X148298543Y-62399970D01*
X148260462Y-62391649D01*
X148244485Y-62376657D01*
X148241373Y-62354903D01*
X148262722Y-62287892D01*
X148316471Y-62221664D01*
X148387178Y-62170832D01*
X148457911Y-62150038D01*
X148553984Y-62168484D01*
X148637151Y-62221811D01*
X148694814Y-62298677D01*
X148714510Y-62381033D01*
X148953286Y-62381033D01*
X148948972Y-62319291D01*
X148906480Y-62162271D01*
X148834365Y-62044069D01*
X148731727Y-61963440D01*
X148597668Y-61919139D01*
X148525043Y-61910607D01*
X148374693Y-61912784D01*
G36*
X157426753Y-60051568D02*
X157296478Y-60109163D01*
X157197581Y-60205334D01*
X157129918Y-60340229D01*
X157093345Y-60513996D01*
X157090724Y-60541126D01*
X157088670Y-60732408D01*
X157115301Y-60900073D01*
X157168999Y-61035967D01*
X157197753Y-61079681D01*
X157297909Y-61172198D01*
X157425463Y-61232119D01*
X157568163Y-61256985D01*
X157713760Y-61244339D01*
X157824438Y-61205391D01*
X157919616Y-61139755D01*
X157997406Y-61053699D01*
X157998751Y-61051685D01*
X158030343Y-60998570D01*
X158050873Y-60945160D01*
X158063305Y-60877754D01*
X158070603Y-60782653D01*
X158073818Y-60704666D01*
X158075156Y-60633944D01*
X157826186Y-60633944D01*
X157823753Y-60704348D01*
X157814920Y-60798068D01*
X157799336Y-60858214D01*
X157771234Y-60901006D01*
X157744914Y-60926002D01*
X157651608Y-60978338D01*
X157553980Y-60985333D01*
X157463058Y-60947676D01*
X157417598Y-60905479D01*
X157384838Y-60862956D01*
X157365677Y-60822267D01*
X157357267Y-60769314D01*
X157356763Y-60689997D01*
X157359355Y-60616950D01*
X157364929Y-60512601D01*
X157373766Y-60444920D01*
X157389693Y-60400774D01*
X157416538Y-60367031D01*
X157437811Y-60347746D01*
X157526794Y-60297086D01*
X157622789Y-60294560D01*
X157703281Y-60324567D01*
X157771947Y-60387231D01*
X157812856Y-60490168D01*
X157826186Y-60633944D01*
X158075156Y-60633944D01*
X158076754Y-60549582D01*
X158071740Y-60433600D01*
X158056717Y-60346367D01*
X158029624Y-60277530D01*
X157988400Y-60216737D01*
X157973115Y-60198686D01*
X157877546Y-60108746D01*
X157775039Y-60056211D01*
X157649679Y-60034201D01*
X157588550Y-60032402D01*
X157426753Y-60051568D01*
X157426753Y-60051568D01*
G37*
X157426753Y-60051568D02*
X157296478Y-60109163D01*
X157197581Y-60205334D01*
X157129918Y-60340229D01*
X157093345Y-60513996D01*
X157090724Y-60541126D01*
X157088670Y-60732408D01*
X157115301Y-60900073D01*
X157168999Y-61035967D01*
X157197753Y-61079681D01*
X157297909Y-61172198D01*
X157425463Y-61232119D01*
X157568163Y-61256985D01*
X157713760Y-61244339D01*
X157824438Y-61205391D01*
X157919616Y-61139755D01*
X157997406Y-61053699D01*
X157998751Y-61051685D01*
X158030343Y-60998570D01*
X158050873Y-60945160D01*
X158063305Y-60877754D01*
X158070603Y-60782653D01*
X158073818Y-60704666D01*
X158075156Y-60633944D01*
X157826186Y-60633944D01*
X157823753Y-60704348D01*
X157814920Y-60798068D01*
X157799336Y-60858214D01*
X157771234Y-60901006D01*
X157744914Y-60926002D01*
X157651608Y-60978338D01*
X157553980Y-60985333D01*
X157463058Y-60947676D01*
X157417598Y-60905479D01*
X157384838Y-60862956D01*
X157365677Y-60822267D01*
X157357267Y-60769314D01*
X157356763Y-60689997D01*
X157359355Y-60616950D01*
X157364929Y-60512601D01*
X157373766Y-60444920D01*
X157389693Y-60400774D01*
X157416538Y-60367031D01*
X157437811Y-60347746D01*
X157526794Y-60297086D01*
X157622789Y-60294560D01*
X157703281Y-60324567D01*
X157771947Y-60387231D01*
X157812856Y-60490168D01*
X157826186Y-60633944D01*
X158075156Y-60633944D01*
X158076754Y-60549582D01*
X158071740Y-60433600D01*
X158056717Y-60346367D01*
X158029624Y-60277530D01*
X157988400Y-60216737D01*
X157973115Y-60198686D01*
X157877546Y-60108746D01*
X157775039Y-60056211D01*
X157649679Y-60034201D01*
X157588550Y-60032402D01*
X157426753Y-60051568D01*
G36*
X155086796Y-60066354D02*
X155061981Y-60078037D01*
X154976094Y-60140951D01*
X154894879Y-60232769D01*
X154834236Y-60333868D01*
X154816988Y-60380349D01*
X154801251Y-60463376D01*
X154791867Y-60563713D01*
X154790728Y-60605147D01*
X154790589Y-60735882D01*
X155543047Y-60735882D01*
X155527007Y-60804363D01*
X155487637Y-60885355D01*
X155418806Y-60955351D01*
X155336919Y-61000441D01*
X155284737Y-61009804D01*
X155213971Y-60998441D01*
X155129540Y-60969943D01*
X155100858Y-60956831D01*
X154994791Y-60903858D01*
X154904272Y-60972901D01*
X154852039Y-61019597D01*
X154824247Y-61058140D01*
X154822840Y-61069452D01*
X154847668Y-61096868D01*
X154902083Y-61138532D01*
X154951472Y-61171037D01*
X155084748Y-61229468D01*
X155234161Y-61255915D01*
X155382249Y-61249039D01*
X155500295Y-61213096D01*
X155621982Y-61136101D01*
X155708460Y-61034728D01*
X155762559Y-60903570D01*
X155787109Y-60737224D01*
X155789286Y-60661108D01*
X155780573Y-60486685D01*
X155779503Y-60481611D01*
X155530173Y-60481611D01*
X155523306Y-60497968D01*
X155495083Y-60506988D01*
X155436873Y-60510854D01*
X155340042Y-60511749D01*
X155302757Y-60511765D01*
X155189317Y-60510413D01*
X155117378Y-60505505D01*
X155078687Y-60495760D01*
X155064995Y-60479899D01*
X155064510Y-60474805D01*
X155080137Y-60434326D01*
X155119247Y-60377621D01*
X155136061Y-60357766D01*
X155198481Y-60301611D01*
X155263547Y-60279532D01*
X155298603Y-60277686D01*
X155393442Y-60300766D01*
X155472973Y-60362759D01*
X155523423Y-60452802D01*
X155524317Y-60455735D01*
X155530173Y-60481611D01*
X155779503Y-60481611D01*
X155751601Y-60349343D01*
X155699410Y-60239461D01*
X155635579Y-60161461D01*
X155517567Y-60076882D01*
X155378842Y-60031686D01*
X155231290Y-60027600D01*
X155086796Y-60066354D01*
X155086796Y-60066354D01*
G37*
X155086796Y-60066354D02*
X155061981Y-60078037D01*
X154976094Y-60140951D01*
X154894879Y-60232769D01*
X154834236Y-60333868D01*
X154816988Y-60380349D01*
X154801251Y-60463376D01*
X154791867Y-60563713D01*
X154790728Y-60605147D01*
X154790589Y-60735882D01*
X155543047Y-60735882D01*
X155527007Y-60804363D01*
X155487637Y-60885355D01*
X155418806Y-60955351D01*
X155336919Y-61000441D01*
X155284737Y-61009804D01*
X155213971Y-60998441D01*
X155129540Y-60969943D01*
X155100858Y-60956831D01*
X154994791Y-60903858D01*
X154904272Y-60972901D01*
X154852039Y-61019597D01*
X154824247Y-61058140D01*
X154822840Y-61069452D01*
X154847668Y-61096868D01*
X154902083Y-61138532D01*
X154951472Y-61171037D01*
X155084748Y-61229468D01*
X155234161Y-61255915D01*
X155382249Y-61249039D01*
X155500295Y-61213096D01*
X155621982Y-61136101D01*
X155708460Y-61034728D01*
X155762559Y-60903570D01*
X155787109Y-60737224D01*
X155789286Y-60661108D01*
X155780573Y-60486685D01*
X155779503Y-60481611D01*
X155530173Y-60481611D01*
X155523306Y-60497968D01*
X155495083Y-60506988D01*
X155436873Y-60510854D01*
X155340042Y-60511749D01*
X155302757Y-60511765D01*
X155189317Y-60510413D01*
X155117378Y-60505505D01*
X155078687Y-60495760D01*
X155064995Y-60479899D01*
X155064510Y-60474805D01*
X155080137Y-60434326D01*
X155119247Y-60377621D01*
X155136061Y-60357766D01*
X155198481Y-60301611D01*
X155263547Y-60279532D01*
X155298603Y-60277686D01*
X155393442Y-60300766D01*
X155472973Y-60362759D01*
X155523423Y-60452802D01*
X155524317Y-60455735D01*
X155530173Y-60481611D01*
X155779503Y-60481611D01*
X155751601Y-60349343D01*
X155699410Y-60239461D01*
X155635579Y-60161461D01*
X155517567Y-60076882D01*
X155378842Y-60031686D01*
X155231290Y-60027600D01*
X155086796Y-60066354D01*
G36*
X152372241Y-60034345D02*
X152277941Y-60052229D01*
X152180110Y-60089633D01*
X152169657Y-60094402D01*
X152095469Y-60133412D01*
X152044090Y-60169664D01*
X152027483Y-60192887D01*
X152043298Y-60230761D01*
X152081712Y-60286644D01*
X152098763Y-60307505D01*
X152169031Y-60389618D01*
X152259621Y-60336168D01*
X152345836Y-60300561D01*
X152445451Y-60281529D01*
X152540981Y-60280326D01*
X152614939Y-60298210D01*
X152632688Y-60309373D01*
X152666488Y-60360553D01*
X152670596Y-60419509D01*
X152645304Y-60465567D01*
X152630344Y-60474499D01*
X152585514Y-60485592D01*
X152506714Y-60498630D01*
X152409574Y-60511088D01*
X152391654Y-60513042D01*
X152235635Y-60540030D01*
X152122477Y-60585873D01*
X152047431Y-60654803D01*
X152005747Y-60751054D01*
X151992762Y-60868617D01*
X152010701Y-61002254D01*
X152068950Y-61107195D01*
X152167745Y-61183630D01*
X152307318Y-61231748D01*
X152462255Y-61250732D01*
X152588602Y-61250504D01*
X152691087Y-61233262D01*
X152761079Y-61209457D01*
X152849517Y-61167978D01*
X152931246Y-61119842D01*
X152960295Y-61098655D01*
X153035000Y-61037676D01*
X152944902Y-60946508D01*
X152854804Y-60855339D01*
X152752368Y-60923128D01*
X152649626Y-60974042D01*
X152539913Y-61000673D01*
X152434449Y-61003483D01*
X152344454Y-60982935D01*
X152281146Y-60939493D01*
X152260704Y-60902838D01*
X152263771Y-60844053D01*
X152314566Y-60799099D01*
X152412952Y-60768057D01*
X152520744Y-60753710D01*
X152686635Y-60726337D01*
X152809876Y-60674693D01*
X152892114Y-60597266D01*
X152934999Y-60492544D01*
X152940940Y-60368387D01*
X152911594Y-60238702D01*
X152844691Y-60140677D01*
X152739629Y-60073866D01*
X152595810Y-60037820D01*
X152489262Y-60030754D01*
X152372241Y-60034345D01*
X152372241Y-60034345D01*
G37*
X152372241Y-60034345D02*
X152277941Y-60052229D01*
X152180110Y-60089633D01*
X152169657Y-60094402D01*
X152095469Y-60133412D01*
X152044090Y-60169664D01*
X152027483Y-60192887D01*
X152043298Y-60230761D01*
X152081712Y-60286644D01*
X152098763Y-60307505D01*
X152169031Y-60389618D01*
X152259621Y-60336168D01*
X152345836Y-60300561D01*
X152445451Y-60281529D01*
X152540981Y-60280326D01*
X152614939Y-60298210D01*
X152632688Y-60309373D01*
X152666488Y-60360553D01*
X152670596Y-60419509D01*
X152645304Y-60465567D01*
X152630344Y-60474499D01*
X152585514Y-60485592D01*
X152506714Y-60498630D01*
X152409574Y-60511088D01*
X152391654Y-60513042D01*
X152235635Y-60540030D01*
X152122477Y-60585873D01*
X152047431Y-60654803D01*
X152005747Y-60751054D01*
X151992762Y-60868617D01*
X152010701Y-61002254D01*
X152068950Y-61107195D01*
X152167745Y-61183630D01*
X152307318Y-61231748D01*
X152462255Y-61250732D01*
X152588602Y-61250504D01*
X152691087Y-61233262D01*
X152761079Y-61209457D01*
X152849517Y-61167978D01*
X152931246Y-61119842D01*
X152960295Y-61098655D01*
X153035000Y-61037676D01*
X152944902Y-60946508D01*
X152854804Y-60855339D01*
X152752368Y-60923128D01*
X152649626Y-60974042D01*
X152539913Y-61000673D01*
X152434449Y-61003483D01*
X152344454Y-60982935D01*
X152281146Y-60939493D01*
X152260704Y-60902838D01*
X152263771Y-60844053D01*
X152314566Y-60799099D01*
X152412952Y-60768057D01*
X152520744Y-60753710D01*
X152686635Y-60726337D01*
X152809876Y-60674693D01*
X152892114Y-60597266D01*
X152934999Y-60492544D01*
X152940940Y-60368387D01*
X152911594Y-60238702D01*
X152844691Y-60140677D01*
X152739629Y-60073866D01*
X152595810Y-60037820D01*
X152489262Y-60030754D01*
X152372241Y-60034345D01*
G36*
X151190453Y-60053364D02*
X151064498Y-60121959D01*
X150965953Y-60230245D01*
X150919522Y-60318315D01*
X150899588Y-60396101D01*
X150886672Y-60506993D01*
X150881137Y-60634738D01*
X150883346Y-60763084D01*
X150893663Y-60875779D01*
X150905714Y-60935969D01*
X150946366Y-61018311D01*
X151016770Y-61105770D01*
X151101618Y-61182251D01*
X151185603Y-61231655D01*
X151187651Y-61232439D01*
X151291866Y-61254027D01*
X151415373Y-61254562D01*
X151532739Y-61234908D01*
X151578058Y-61219155D01*
X151694780Y-61152966D01*
X151778376Y-61066246D01*
X151833299Y-60951438D01*
X151864005Y-60800982D01*
X151870953Y-60722173D01*
X151870067Y-60623145D01*
X151603138Y-60623145D01*
X151594146Y-60767645D01*
X151568264Y-60877760D01*
X151527132Y-60948116D01*
X151497828Y-60968235D01*
X151422749Y-60982265D01*
X151333506Y-60978111D01*
X151256350Y-60957922D01*
X151236117Y-60946815D01*
X151182735Y-60882123D01*
X151147500Y-60783119D01*
X151132502Y-60662632D01*
X151139828Y-60533494D01*
X151156201Y-60455775D01*
X151203210Y-60365771D01*
X151277418Y-60309509D01*
X151366791Y-60290057D01*
X151459293Y-60310481D01*
X151530347Y-60360437D01*
X151567688Y-60401655D01*
X151589482Y-60442281D01*
X151599870Y-60497264D01*
X151602994Y-60581549D01*
X151603138Y-60623145D01*
X151870067Y-60623145D01*
X151869070Y-60511874D01*
X151834820Y-60339423D01*
X151768198Y-60204814D01*
X151669201Y-60108040D01*
X151537825Y-60049094D01*
X151509615Y-60042259D01*
X151340074Y-60026213D01*
X151190453Y-60053364D01*
X151190453Y-60053364D01*
G37*
X151190453Y-60053364D02*
X151064498Y-60121959D01*
X150965953Y-60230245D01*
X150919522Y-60318315D01*
X150899588Y-60396101D01*
X150886672Y-60506993D01*
X150881137Y-60634738D01*
X150883346Y-60763084D01*
X150893663Y-60875779D01*
X150905714Y-60935969D01*
X150946366Y-61018311D01*
X151016770Y-61105770D01*
X151101618Y-61182251D01*
X151185603Y-61231655D01*
X151187651Y-61232439D01*
X151291866Y-61254027D01*
X151415373Y-61254562D01*
X151532739Y-61234908D01*
X151578058Y-61219155D01*
X151694780Y-61152966D01*
X151778376Y-61066246D01*
X151833299Y-60951438D01*
X151864005Y-60800982D01*
X151870953Y-60722173D01*
X151870067Y-60623145D01*
X151603138Y-60623145D01*
X151594146Y-60767645D01*
X151568264Y-60877760D01*
X151527132Y-60948116D01*
X151497828Y-60968235D01*
X151422749Y-60982265D01*
X151333506Y-60978111D01*
X151256350Y-60957922D01*
X151236117Y-60946815D01*
X151182735Y-60882123D01*
X151147500Y-60783119D01*
X151132502Y-60662632D01*
X151139828Y-60533494D01*
X151156201Y-60455775D01*
X151203210Y-60365771D01*
X151277418Y-60309509D01*
X151366791Y-60290057D01*
X151459293Y-60310481D01*
X151530347Y-60360437D01*
X151567688Y-60401655D01*
X151589482Y-60442281D01*
X151599870Y-60497264D01*
X151602994Y-60581549D01*
X151603138Y-60623145D01*
X151870067Y-60623145D01*
X151869070Y-60511874D01*
X151834820Y-60339423D01*
X151768198Y-60204814D01*
X151669201Y-60108040D01*
X151537825Y-60049094D01*
X151509615Y-60042259D01*
X151340074Y-60026213D01*
X151190453Y-60053364D01*
G36*
X150432746Y-60426245D02*
X150430392Y-60608879D01*
X150421793Y-60747600D01*
X150404640Y-60848147D01*
X150376626Y-60916254D01*
X150335443Y-60957659D01*
X150278783Y-60978097D01*
X150208628Y-60983318D01*
X150135152Y-60977468D01*
X150079343Y-60956093D01*
X150038891Y-60913458D01*
X150011491Y-60843825D01*
X149994833Y-60741460D01*
X149986611Y-60600624D01*
X149984510Y-60426245D01*
X149984510Y-60038628D01*
X149710589Y-60038628D01*
X149710589Y-61233922D01*
X149847549Y-61233922D01*
X149930116Y-61230576D01*
X149972632Y-61218826D01*
X149984510Y-61196520D01*
X149991664Y-61176654D01*
X150020135Y-61180857D01*
X150077524Y-61208971D01*
X150209055Y-61252342D01*
X150348562Y-61249270D01*
X150482235Y-61202174D01*
X150545892Y-61164971D01*
X150594447Y-61124691D01*
X150629919Y-61074291D01*
X150654326Y-61006729D01*
X150669687Y-60914965D01*
X150678018Y-60791955D01*
X150681338Y-60630659D01*
X150681765Y-60505928D01*
X150681765Y-60038628D01*
X150432746Y-60038628D01*
X150432746Y-60426245D01*
X150432746Y-60426245D01*
G37*
X150432746Y-60426245D02*
X150430392Y-60608879D01*
X150421793Y-60747600D01*
X150404640Y-60848147D01*
X150376626Y-60916254D01*
X150335443Y-60957659D01*
X150278783Y-60978097D01*
X150208628Y-60983318D01*
X150135152Y-60977468D01*
X150079343Y-60956093D01*
X150038891Y-60913458D01*
X150011491Y-60843825D01*
X149994833Y-60741460D01*
X149986611Y-60600624D01*
X149984510Y-60426245D01*
X149984510Y-60038628D01*
X149710589Y-60038628D01*
X149710589Y-61233922D01*
X149847549Y-61233922D01*
X149930116Y-61230576D01*
X149972632Y-61218826D01*
X149984510Y-61196520D01*
X149991664Y-61176654D01*
X150020135Y-61180857D01*
X150077524Y-61208971D01*
X150209055Y-61252342D01*
X150348562Y-61249270D01*
X150482235Y-61202174D01*
X150545892Y-61164971D01*
X150594447Y-61124691D01*
X150629919Y-61074291D01*
X150654326Y-61006729D01*
X150669687Y-60914965D01*
X150678018Y-60791955D01*
X150681338Y-60630659D01*
X150681765Y-60505928D01*
X150681765Y-60038628D01*
X150432746Y-60038628D01*
X150432746Y-60426245D01*
G36*
X148009024Y-60049056D02*
X147864744Y-60110348D01*
X147819301Y-60140185D01*
X147761221Y-60186036D01*
X147724762Y-60222089D01*
X147718432Y-60233832D01*
X147736307Y-60259889D01*
X147782050Y-60304105D01*
X147818672Y-60334965D01*
X147918912Y-60415520D01*
X147998065Y-60348918D01*
X148059231Y-60305921D01*
X148118871Y-60291079D01*
X148187128Y-60294704D01*
X148295518Y-60321652D01*
X148370128Y-60377587D01*
X148415470Y-60468014D01*
X148436053Y-60598435D01*
X148436058Y-60598517D01*
X148434278Y-60744290D01*
X148406613Y-60851245D01*
X148351429Y-60924064D01*
X148313808Y-60948723D01*
X148213895Y-60979431D01*
X148107178Y-60979449D01*
X148014331Y-60949655D01*
X147992353Y-60935098D01*
X147937235Y-60897914D01*
X147894141Y-60891820D01*
X147847665Y-60919496D01*
X147796284Y-60969205D01*
X147714954Y-61053116D01*
X147805251Y-61127546D01*
X147944764Y-61211549D01*
X148102088Y-61252947D01*
X148266497Y-61249950D01*
X148374469Y-61222500D01*
X148500669Y-61154620D01*
X148601599Y-61047831D01*
X148647452Y-60972451D01*
X148684590Y-60864297D01*
X148703173Y-60727318D01*
X148703316Y-60578864D01*
X148685135Y-60436281D01*
X148648745Y-60316918D01*
X148643013Y-60304680D01*
X148558135Y-60184655D01*
X148443218Y-60097267D01*
X148307341Y-60044329D01*
X148159583Y-60027654D01*
X148009024Y-60049056D01*
X148009024Y-60049056D01*
G37*
X148009024Y-60049056D02*
X147864744Y-60110348D01*
X147819301Y-60140185D01*
X147761221Y-60186036D01*
X147724762Y-60222089D01*
X147718432Y-60233832D01*
X147736307Y-60259889D01*
X147782050Y-60304105D01*
X147818672Y-60334965D01*
X147918912Y-60415520D01*
X147998065Y-60348918D01*
X148059231Y-60305921D01*
X148118871Y-60291079D01*
X148187128Y-60294704D01*
X148295518Y-60321652D01*
X148370128Y-60377587D01*
X148415470Y-60468014D01*
X148436053Y-60598435D01*
X148436058Y-60598517D01*
X148434278Y-60744290D01*
X148406613Y-60851245D01*
X148351429Y-60924064D01*
X148313808Y-60948723D01*
X148213895Y-60979431D01*
X148107178Y-60979449D01*
X148014331Y-60949655D01*
X147992353Y-60935098D01*
X147937235Y-60897914D01*
X147894141Y-60891820D01*
X147847665Y-60919496D01*
X147796284Y-60969205D01*
X147714954Y-61053116D01*
X147805251Y-61127546D01*
X147944764Y-61211549D01*
X148102088Y-61252947D01*
X148266497Y-61249950D01*
X148374469Y-61222500D01*
X148500669Y-61154620D01*
X148601599Y-61047831D01*
X148647452Y-60972451D01*
X148684590Y-60864297D01*
X148703173Y-60727318D01*
X148703316Y-60578864D01*
X148685135Y-60436281D01*
X148648745Y-60316918D01*
X148643013Y-60304680D01*
X148558135Y-60184655D01*
X148443218Y-60097267D01*
X148307341Y-60044329D01*
X148159583Y-60027654D01*
X148009024Y-60049056D01*
G36*
X147096713Y-60034355D02*
X147032949Y-60049845D01*
X146910700Y-60106569D01*
X146806166Y-60193202D01*
X146733820Y-60297074D01*
X146723881Y-60320396D01*
X146710246Y-60381484D01*
X146700702Y-60471853D01*
X146697451Y-60563190D01*
X146697451Y-60735882D01*
X147058530Y-60735882D01*
X147207454Y-60736445D01*
X147312368Y-60739864D01*
X147379063Y-60748731D01*
X147413334Y-60765641D01*
X147420972Y-60793189D01*
X147407771Y-60833968D01*
X147384123Y-60881683D01*
X147318157Y-60961314D01*
X147226488Y-61000987D01*
X147114445Y-60999695D01*
X146987528Y-60956514D01*
X146877842Y-60903224D01*
X146786827Y-60975191D01*
X146695812Y-61047157D01*
X146781437Y-61126269D01*
X146895750Y-61201017D01*
X147036334Y-61246084D01*
X147187551Y-61258696D01*
X147333764Y-61236079D01*
X147357353Y-61228405D01*
X147485859Y-61161296D01*
X147581449Y-61061247D01*
X147646139Y-60925271D01*
X147681943Y-60750380D01*
X147682360Y-60746632D01*
X147685566Y-60556032D01*
X147672607Y-60488035D01*
X147419608Y-60488035D01*
X147396373Y-60498491D01*
X147333290Y-60506500D01*
X147240294Y-60511073D01*
X147181362Y-60511765D01*
X147071463Y-60511332D01*
X147002748Y-60508578D01*
X146966595Y-60501321D01*
X146954385Y-60487376D01*
X146957496Y-60464562D01*
X146960106Y-60455735D01*
X147004656Y-60372800D01*
X147074721Y-60305960D01*
X147136554Y-60276589D01*
X147218699Y-60278362D01*
X147301938Y-60314990D01*
X147371762Y-60375634D01*
X147413663Y-60449456D01*
X147419608Y-60488035D01*
X147672607Y-60488035D01*
X147653615Y-60388395D01*
X147590227Y-60247711D01*
X147499122Y-60137974D01*
X147384022Y-60063174D01*
X147248645Y-60027304D01*
X147096713Y-60034355D01*
X147096713Y-60034355D01*
G37*
X147096713Y-60034355D02*
X147032949Y-60049845D01*
X146910700Y-60106569D01*
X146806166Y-60193202D01*
X146733820Y-60297074D01*
X146723881Y-60320396D01*
X146710246Y-60381484D01*
X146700702Y-60471853D01*
X146697451Y-60563190D01*
X146697451Y-60735882D01*
X147058530Y-60735882D01*
X147207454Y-60736445D01*
X147312368Y-60739864D01*
X147379063Y-60748731D01*
X147413334Y-60765641D01*
X147420972Y-60793189D01*
X147407771Y-60833968D01*
X147384123Y-60881683D01*
X147318157Y-60961314D01*
X147226488Y-61000987D01*
X147114445Y-60999695D01*
X146987528Y-60956514D01*
X146877842Y-60903224D01*
X146786827Y-60975191D01*
X146695812Y-61047157D01*
X146781437Y-61126269D01*
X146895750Y-61201017D01*
X147036334Y-61246084D01*
X147187551Y-61258696D01*
X147333764Y-61236079D01*
X147357353Y-61228405D01*
X147485859Y-61161296D01*
X147581449Y-61061247D01*
X147646139Y-60925271D01*
X147681943Y-60750380D01*
X147682360Y-60746632D01*
X147685566Y-60556032D01*
X147672607Y-60488035D01*
X147419608Y-60488035D01*
X147396373Y-60498491D01*
X147333290Y-60506500D01*
X147240294Y-60511073D01*
X147181362Y-60511765D01*
X147071463Y-60511332D01*
X147002748Y-60508578D01*
X146966595Y-60501321D01*
X146954385Y-60487376D01*
X146957496Y-60464562D01*
X146960106Y-60455735D01*
X147004656Y-60372800D01*
X147074721Y-60305960D01*
X147136554Y-60276589D01*
X147218699Y-60278362D01*
X147301938Y-60314990D01*
X147371762Y-60375634D01*
X147413663Y-60449456D01*
X147419608Y-60488035D01*
X147672607Y-60488035D01*
X147653615Y-60388395D01*
X147590227Y-60247711D01*
X147499122Y-60137974D01*
X147384022Y-60063174D01*
X147248645Y-60027304D01*
X147096713Y-60034355D01*
G36*
X153893240Y-60059199D02*
X153831264Y-60088802D01*
X153771241Y-60131561D01*
X153725514Y-60180775D01*
X153692207Y-60243544D01*
X153669445Y-60326971D01*
X153655353Y-60438159D01*
X153648058Y-60584209D01*
X153645682Y-60772223D01*
X153645645Y-60791912D01*
X153645098Y-61233922D01*
X153919020Y-61233922D01*
X153919020Y-60826435D01*
X153919215Y-60675471D01*
X153920564Y-60566056D01*
X153924212Y-60489933D01*
X153931304Y-60438848D01*
X153942987Y-60404545D01*
X153960406Y-60378768D01*
X153984671Y-60353298D01*
X154069565Y-60298571D01*
X154162239Y-60288416D01*
X154250527Y-60323017D01*
X154281230Y-60348770D01*
X154303771Y-60372982D01*
X154319954Y-60398912D01*
X154330832Y-60434708D01*
X154337458Y-60488519D01*
X154340885Y-60568493D01*
X154342166Y-60682779D01*
X154342353Y-60821907D01*
X154342353Y-61233922D01*
X154616275Y-61233922D01*
X154616275Y-60038628D01*
X154479314Y-60038628D01*
X154397084Y-60041879D01*
X154354660Y-60053426D01*
X154342359Y-60075952D01*
X154342353Y-60076620D01*
X154336646Y-60098681D01*
X154311473Y-60096177D01*
X154261422Y-60071937D01*
X154147906Y-60036271D01*
X154018055Y-60032305D01*
X153893240Y-60059199D01*
X153893240Y-60059199D01*
G37*
X153893240Y-60059199D02*
X153831264Y-60088802D01*
X153771241Y-60131561D01*
X153725514Y-60180775D01*
X153692207Y-60243544D01*
X153669445Y-60326971D01*
X153655353Y-60438159D01*
X153648058Y-60584209D01*
X153645682Y-60772223D01*
X153645645Y-60791912D01*
X153645098Y-61233922D01*
X153919020Y-61233922D01*
X153919020Y-60826435D01*
X153919215Y-60675471D01*
X153920564Y-60566056D01*
X153924212Y-60489933D01*
X153931304Y-60438848D01*
X153942987Y-60404545D01*
X153960406Y-60378768D01*
X153984671Y-60353298D01*
X154069565Y-60298571D01*
X154162239Y-60288416D01*
X154250527Y-60323017D01*
X154281230Y-60348770D01*
X154303771Y-60372982D01*
X154319954Y-60398912D01*
X154330832Y-60434708D01*
X154337458Y-60488519D01*
X154340885Y-60568493D01*
X154342166Y-60682779D01*
X154342353Y-60821907D01*
X154342353Y-61233922D01*
X154616275Y-61233922D01*
X154616275Y-60038628D01*
X154479314Y-60038628D01*
X154397084Y-60041879D01*
X154354660Y-60053426D01*
X154342359Y-60075952D01*
X154342353Y-60076620D01*
X154336646Y-60098681D01*
X154311473Y-60096177D01*
X154261422Y-60071937D01*
X154147906Y-60036271D01*
X154018055Y-60032305D01*
X153893240Y-60059199D01*
G36*
X148836363Y-60037472D02*
X148750710Y-60063641D01*
X148695563Y-60096707D01*
X148677599Y-60122855D01*
X148682543Y-60153852D01*
X148714628Y-60202547D01*
X148741757Y-60237035D01*
X148797683Y-60299383D01*
X148839701Y-60325615D01*
X148875520Y-60323903D01*
X148981776Y-60296863D01*
X149059811Y-60298091D01*
X149123180Y-60328735D01*
X149144454Y-60346670D01*
X149212549Y-60409779D01*
X149212549Y-61233922D01*
X149486471Y-61233922D01*
X149486471Y-60038628D01*
X149349510Y-60038628D01*
X149267281Y-60041879D01*
X149224856Y-60053426D01*
X149212555Y-60075952D01*
X149212549Y-60076620D01*
X149206740Y-60100215D01*
X149180469Y-60097138D01*
X149144069Y-60080115D01*
X149068889Y-60048439D01*
X149007842Y-60029381D01*
X148929292Y-60024496D01*
X148836363Y-60037472D01*
X148836363Y-60037472D01*
G37*
X148836363Y-60037472D02*
X148750710Y-60063641D01*
X148695563Y-60096707D01*
X148677599Y-60122855D01*
X148682543Y-60153852D01*
X148714628Y-60202547D01*
X148741757Y-60237035D01*
X148797683Y-60299383D01*
X148839701Y-60325615D01*
X148875520Y-60323903D01*
X148981776Y-60296863D01*
X149059811Y-60298091D01*
X149123180Y-60328735D01*
X149144454Y-60346670D01*
X149212549Y-60409779D01*
X149212549Y-61233922D01*
X149486471Y-61233922D01*
X149486471Y-60038628D01*
X149349510Y-60038628D01*
X149267281Y-60041879D01*
X149224856Y-60053426D01*
X149212555Y-60075952D01*
X149212549Y-60076620D01*
X149206740Y-60100215D01*
X149180469Y-60097138D01*
X149144069Y-60080115D01*
X149068889Y-60048439D01*
X149007842Y-60029381D01*
X148929292Y-60024496D01*
X148836363Y-60037472D01*
G36*
X151653465Y-51783172D02*
X151540883Y-52380363D01*
X151125469Y-52551610D01*
X150710056Y-52722857D01*
X150211698Y-52383978D01*
X150072132Y-52289622D01*
X149945972Y-52205375D01*
X149839105Y-52135083D01*
X149757418Y-52082592D01*
X149706799Y-52051749D01*
X149693014Y-52045098D01*
X149668180Y-52062203D01*
X149615112Y-52109489D01*
X149539760Y-52180917D01*
X149448071Y-52270445D01*
X149345993Y-52372034D01*
X149239474Y-52479643D01*
X149134464Y-52587232D01*
X149036909Y-52688760D01*
X148952758Y-52778186D01*
X148887960Y-52849471D01*
X148848462Y-52896573D01*
X148839020Y-52912337D01*
X148852609Y-52941398D01*
X148890707Y-53005066D01*
X148949306Y-53097112D01*
X149024403Y-53211309D01*
X149111991Y-53341429D01*
X149162746Y-53415646D01*
X149255255Y-53551167D01*
X149337460Y-53673461D01*
X149405370Y-53776440D01*
X149455000Y-53854018D01*
X149482360Y-53900106D01*
X149486471Y-53909792D01*
X149477151Y-53937319D01*
X149451746Y-54001473D01*
X149414089Y-54093235D01*
X149368014Y-54203584D01*
X149317354Y-54323500D01*
X149265941Y-54443964D01*
X149217611Y-54555954D01*
X149176194Y-54650452D01*
X149145526Y-54718437D01*
X149129438Y-54750888D01*
X149128489Y-54752165D01*
X149103228Y-54758362D01*
X149035954Y-54772185D01*
X148933640Y-54792277D01*
X148803259Y-54817279D01*
X148651784Y-54845831D01*
X148563406Y-54862296D01*
X148401548Y-54893114D01*
X148255351Y-54922439D01*
X148132213Y-54948666D01*
X148039531Y-54970191D01*
X147984699Y-54985410D01*
X147973677Y-54990238D01*
X147962881Y-55022919D01*
X147954171Y-55096730D01*
X147947540Y-55203037D01*
X147942982Y-55333212D01*
X147940491Y-55478621D01*
X147940062Y-55630635D01*
X147941689Y-55780622D01*
X147945365Y-55919951D01*
X147951085Y-56039990D01*
X147958842Y-56132110D01*
X147968632Y-56187677D01*
X147974504Y-56199245D01*
X148009601Y-56213110D01*
X148083972Y-56232933D01*
X148187777Y-56256384D01*
X148311181Y-56281136D01*
X148354259Y-56289143D01*
X148561953Y-56327186D01*
X148726016Y-56357824D01*
X148851870Y-56382274D01*
X148944935Y-56401754D01*
X149010633Y-56417481D01*
X149054383Y-56430673D01*
X149081608Y-56442549D01*
X149097728Y-56454325D01*
X149099983Y-56456653D01*
X149122497Y-56494145D01*
X149156842Y-56567110D01*
X149199589Y-56666612D01*
X149247308Y-56783718D01*
X149296570Y-56909493D01*
X149343945Y-57035002D01*
X149386005Y-57151310D01*
X149419320Y-57249484D01*
X149440459Y-57320588D01*
X149445995Y-57355687D01*
X149445534Y-57356917D01*
X149426777Y-57385606D01*
X149384224Y-57448730D01*
X149322347Y-57539718D01*
X149245618Y-57652000D01*
X149158509Y-57779005D01*
X149133701Y-57815098D01*
X149045247Y-57945948D01*
X148967412Y-58065336D01*
X148904434Y-58166407D01*
X148860555Y-58242304D01*
X148840015Y-58286172D01*
X148839020Y-58291562D01*
X148856278Y-58319889D01*
X148903964Y-58376006D01*
X148975950Y-58453882D01*
X149066103Y-58547485D01*
X149168295Y-58650786D01*
X149276394Y-58757751D01*
X149384272Y-58862351D01*
X149485796Y-58958554D01*
X149574838Y-59040329D01*
X149645267Y-59101645D01*
X149690953Y-59136471D01*
X149703591Y-59142157D01*
X149733009Y-59128765D01*
X149793239Y-59092644D01*
X149874470Y-59039881D01*
X149936970Y-58997412D01*
X150050215Y-58919485D01*
X150184326Y-58827729D01*
X150318845Y-58736120D01*
X150391167Y-58687091D01*
X150635962Y-58521515D01*
X150841449Y-58632620D01*
X150935064Y-58681293D01*
X151014670Y-58719126D01*
X151068533Y-58740703D01*
X151082243Y-58743706D01*
X151098730Y-58721538D01*
X151131255Y-58658894D01*
X151177391Y-58561554D01*
X151234710Y-58435294D01*
X151300784Y-58285895D01*
X151373185Y-58119133D01*
X151449484Y-57940787D01*
X151527254Y-57756636D01*
X151604066Y-57572457D01*
X151677494Y-57394030D01*
X151745108Y-57227132D01*
X151804480Y-57077542D01*
X151853184Y-56951038D01*
X151888790Y-56853399D01*
X151908870Y-56790402D01*
X151912100Y-56768766D01*
X151886504Y-56741169D01*
X151830461Y-56696370D01*
X151755689Y-56643679D01*
X151749413Y-56639510D01*
X151556155Y-56484814D01*
X151400326Y-56304336D01*
X151283276Y-56103847D01*
X151206355Y-55889119D01*
X151170914Y-55665922D01*
X151178303Y-55440026D01*
X151229873Y-55217204D01*
X151326974Y-55003224D01*
X151355542Y-54956409D01*
X151504132Y-54767363D01*
X151679673Y-54615557D01*
X151876090Y-54501779D01*
X152087307Y-54426820D01*
X152307247Y-54391467D01*
X152529837Y-54396512D01*
X152748999Y-54442744D01*
X152958658Y-54530951D01*
X153152739Y-54661924D01*
X153212774Y-54715082D01*
X153365565Y-54881484D01*
X153476903Y-55056657D01*
X153553277Y-55253011D01*
X153595813Y-55447462D01*
X153606314Y-55666087D01*
X153571299Y-55885797D01*
X153494327Y-56099165D01*
X153378953Y-56298767D01*
X153228734Y-56477174D01*
X153047227Y-56626962D01*
X153023373Y-56642751D01*
X152947799Y-56694457D01*
X152890349Y-56739257D01*
X152862883Y-56767862D01*
X152862483Y-56768766D01*
X152868380Y-56799709D01*
X152891755Y-56869936D01*
X152930179Y-56973670D01*
X152981223Y-57105135D01*
X153042458Y-57258552D01*
X153111456Y-57428146D01*
X153185786Y-57608138D01*
X153263022Y-57792753D01*
X153340732Y-57976213D01*
X153416489Y-58152741D01*
X153487863Y-58316559D01*
X153552426Y-58461892D01*
X153607748Y-58582962D01*
X153651400Y-58673992D01*
X153680954Y-58729205D01*
X153692856Y-58743706D01*
X153729223Y-58732414D01*
X153797270Y-58702130D01*
X153885263Y-58658265D01*
X153933649Y-58632620D01*
X154139137Y-58521515D01*
X154383932Y-58687091D01*
X154508894Y-58771915D01*
X154645705Y-58865261D01*
X154773911Y-58953153D01*
X154838129Y-58997412D01*
X154928449Y-59058063D01*
X155004929Y-59106126D01*
X155057593Y-59135515D01*
X155074698Y-59141727D01*
X155099595Y-59124968D01*
X155154695Y-59078181D01*
X155234657Y-59006225D01*
X155334139Y-58913957D01*
X155447800Y-58806235D01*
X155519685Y-58737071D01*
X155645449Y-58613502D01*
X155754137Y-58502979D01*
X155841355Y-58410230D01*
X155902711Y-58339982D01*
X155933809Y-58296965D01*
X155936792Y-58288235D01*
X155922947Y-58255029D01*
X155884688Y-58187887D01*
X155826258Y-58093608D01*
X155751903Y-57978990D01*
X155665865Y-57850828D01*
X155641397Y-57815098D01*
X155552245Y-57685234D01*
X155472262Y-57568314D01*
X155405920Y-57470907D01*
X155357689Y-57399584D01*
X155332043Y-57360915D01*
X155329565Y-57356917D01*
X155333271Y-57326100D01*
X155352939Y-57258344D01*
X155385140Y-57162584D01*
X155426445Y-57047754D01*
X155473425Y-56922789D01*
X155522651Y-56796624D01*
X155570692Y-56678193D01*
X155614119Y-56576430D01*
X155649504Y-56500271D01*
X155673416Y-56458649D01*
X155675116Y-56456653D01*
X155689738Y-56444758D01*
X155714435Y-56432995D01*
X155754628Y-56420146D01*
X155815737Y-56404994D01*
X155903183Y-56386321D01*
X156022388Y-56362910D01*
X156178773Y-56333542D01*
X156377757Y-56297000D01*
X156420840Y-56289143D01*
X156548529Y-56264472D01*
X156659847Y-56240338D01*
X156744955Y-56219069D01*
X156794017Y-56202993D01*
X156800595Y-56199245D01*
X156811436Y-56166018D01*
X156820247Y-56091766D01*
X156827024Y-55985121D01*
X156831760Y-55854712D01*
X156834450Y-55709172D01*
X156835087Y-55557131D01*
X156833666Y-55407221D01*
X156830180Y-55268073D01*
X156824624Y-55148317D01*
X156816992Y-55056586D01*
X156807278Y-55001511D01*
X156801422Y-54990238D01*
X156768820Y-54978868D01*
X156694582Y-54960369D01*
X156586104Y-54936347D01*
X156450783Y-54908407D01*
X156296015Y-54878153D01*
X156211692Y-54862296D01*
X156051704Y-54832389D01*
X155909033Y-54805295D01*
X155790652Y-54782376D01*
X155703535Y-54764988D01*
X155654655Y-54754492D01*
X155646610Y-54752165D01*
X155633013Y-54725931D01*
X155604271Y-54662740D01*
X155564215Y-54571622D01*
X155516676Y-54461602D01*
X155465485Y-54341710D01*
X155414474Y-54220972D01*
X155367474Y-54108416D01*
X155328316Y-54013071D01*
X155300831Y-53943962D01*
X155288851Y-53910119D01*
X155288628Y-53908640D01*
X155302209Y-53881942D01*
X155340285Y-53820505D01*
X155398853Y-53730434D01*
X155473912Y-53617835D01*
X155561460Y-53488815D01*
X155612353Y-53414706D01*
X155705091Y-53278822D01*
X155787459Y-53155454D01*
X155855439Y-53050842D01*
X155905012Y-52971228D01*
X155932158Y-52922852D01*
X155936079Y-52912007D01*
X155919225Y-52886765D01*
X155872632Y-52832869D01*
X155802251Y-52756358D01*
X155714035Y-52663268D01*
X155613935Y-52559640D01*
X155507902Y-52451509D01*
X155401889Y-52344915D01*
X155301848Y-52245895D01*
X155213730Y-52160487D01*
X155143487Y-52094730D01*
X155097072Y-52054661D01*
X155081544Y-52045098D01*
X155056261Y-52058545D01*
X154995789Y-52096320D01*
X154906008Y-52154580D01*
X154792797Y-52229479D01*
X154662036Y-52317170D01*
X154563400Y-52383978D01*
X154065043Y-52722857D01*
X153649629Y-52551610D01*
X153234216Y-52380363D01*
X153121634Y-51783172D01*
X153009051Y-51185980D01*
X151766048Y-51185980D01*
X151653465Y-51783172D01*
X151653465Y-51783172D01*
G37*
X151653465Y-51783172D02*
X151540883Y-52380363D01*
X151125469Y-52551610D01*
X150710056Y-52722857D01*
X150211698Y-52383978D01*
X150072132Y-52289622D01*
X149945972Y-52205375D01*
X149839105Y-52135083D01*
X149757418Y-52082592D01*
X149706799Y-52051749D01*
X149693014Y-52045098D01*
X149668180Y-52062203D01*
X149615112Y-52109489D01*
X149539760Y-52180917D01*
X149448071Y-52270445D01*
X149345993Y-52372034D01*
X149239474Y-52479643D01*
X149134464Y-52587232D01*
X149036909Y-52688760D01*
X148952758Y-52778186D01*
X148887960Y-52849471D01*
X148848462Y-52896573D01*
X148839020Y-52912337D01*
X148852609Y-52941398D01*
X148890707Y-53005066D01*
X148949306Y-53097112D01*
X149024403Y-53211309D01*
X149111991Y-53341429D01*
X149162746Y-53415646D01*
X149255255Y-53551167D01*
X149337460Y-53673461D01*
X149405370Y-53776440D01*
X149455000Y-53854018D01*
X149482360Y-53900106D01*
X149486471Y-53909792D01*
X149477151Y-53937319D01*
X149451746Y-54001473D01*
X149414089Y-54093235D01*
X149368014Y-54203584D01*
X149317354Y-54323500D01*
X149265941Y-54443964D01*
X149217611Y-54555954D01*
X149176194Y-54650452D01*
X149145526Y-54718437D01*
X149129438Y-54750888D01*
X149128489Y-54752165D01*
X149103228Y-54758362D01*
X149035954Y-54772185D01*
X148933640Y-54792277D01*
X148803259Y-54817279D01*
X148651784Y-54845831D01*
X148563406Y-54862296D01*
X148401548Y-54893114D01*
X148255351Y-54922439D01*
X148132213Y-54948666D01*
X148039531Y-54970191D01*
X147984699Y-54985410D01*
X147973677Y-54990238D01*
X147962881Y-55022919D01*
X147954171Y-55096730D01*
X147947540Y-55203037D01*
X147942982Y-55333212D01*
X147940491Y-55478621D01*
X147940062Y-55630635D01*
X147941689Y-55780622D01*
X147945365Y-55919951D01*
X147951085Y-56039990D01*
X147958842Y-56132110D01*
X147968632Y-56187677D01*
X147974504Y-56199245D01*
X148009601Y-56213110D01*
X148083972Y-56232933D01*
X148187777Y-56256384D01*
X148311181Y-56281136D01*
X148354259Y-56289143D01*
X148561953Y-56327186D01*
X148726016Y-56357824D01*
X148851870Y-56382274D01*
X148944935Y-56401754D01*
X149010633Y-56417481D01*
X149054383Y-56430673D01*
X149081608Y-56442549D01*
X149097728Y-56454325D01*
X149099983Y-56456653D01*
X149122497Y-56494145D01*
X149156842Y-56567110D01*
X149199589Y-56666612D01*
X149247308Y-56783718D01*
X149296570Y-56909493D01*
X149343945Y-57035002D01*
X149386005Y-57151310D01*
X149419320Y-57249484D01*
X149440459Y-57320588D01*
X149445995Y-57355687D01*
X149445534Y-57356917D01*
X149426777Y-57385606D01*
X149384224Y-57448730D01*
X149322347Y-57539718D01*
X149245618Y-57652000D01*
X149158509Y-57779005D01*
X149133701Y-57815098D01*
X149045247Y-57945948D01*
X148967412Y-58065336D01*
X148904434Y-58166407D01*
X148860555Y-58242304D01*
X148840015Y-58286172D01*
X148839020Y-58291562D01*
X148856278Y-58319889D01*
X148903964Y-58376006D01*
X148975950Y-58453882D01*
X149066103Y-58547485D01*
X149168295Y-58650786D01*
X149276394Y-58757751D01*
X149384272Y-58862351D01*
X149485796Y-58958554D01*
X149574838Y-59040329D01*
X149645267Y-59101645D01*
X149690953Y-59136471D01*
X149703591Y-59142157D01*
X149733009Y-59128765D01*
X149793239Y-59092644D01*
X149874470Y-59039881D01*
X149936970Y-58997412D01*
X150050215Y-58919485D01*
X150184326Y-58827729D01*
X150318845Y-58736120D01*
X150391167Y-58687091D01*
X150635962Y-58521515D01*
X150841449Y-58632620D01*
X150935064Y-58681293D01*
X151014670Y-58719126D01*
X151068533Y-58740703D01*
X151082243Y-58743706D01*
X151098730Y-58721538D01*
X151131255Y-58658894D01*
X151177391Y-58561554D01*
X151234710Y-58435294D01*
X151300784Y-58285895D01*
X151373185Y-58119133D01*
X151449484Y-57940787D01*
X151527254Y-57756636D01*
X151604066Y-57572457D01*
X151677494Y-57394030D01*
X151745108Y-57227132D01*
X151804480Y-57077542D01*
X151853184Y-56951038D01*
X151888790Y-56853399D01*
X151908870Y-56790402D01*
X151912100Y-56768766D01*
X151886504Y-56741169D01*
X151830461Y-56696370D01*
X151755689Y-56643679D01*
X151749413Y-56639510D01*
X151556155Y-56484814D01*
X151400326Y-56304336D01*
X151283276Y-56103847D01*
X151206355Y-55889119D01*
X151170914Y-55665922D01*
X151178303Y-55440026D01*
X151229873Y-55217204D01*
X151326974Y-55003224D01*
X151355542Y-54956409D01*
X151504132Y-54767363D01*
X151679673Y-54615557D01*
X151876090Y-54501779D01*
X152087307Y-54426820D01*
X152307247Y-54391467D01*
X152529837Y-54396512D01*
X152748999Y-54442744D01*
X152958658Y-54530951D01*
X153152739Y-54661924D01*
X153212774Y-54715082D01*
X153365565Y-54881484D01*
X153476903Y-55056657D01*
X153553277Y-55253011D01*
X153595813Y-55447462D01*
X153606314Y-55666087D01*
X153571299Y-55885797D01*
X153494327Y-56099165D01*
X153378953Y-56298767D01*
X153228734Y-56477174D01*
X153047227Y-56626962D01*
X153023373Y-56642751D01*
X152947799Y-56694457D01*
X152890349Y-56739257D01*
X152862883Y-56767862D01*
X152862483Y-56768766D01*
X152868380Y-56799709D01*
X152891755Y-56869936D01*
X152930179Y-56973670D01*
X152981223Y-57105135D01*
X153042458Y-57258552D01*
X153111456Y-57428146D01*
X153185786Y-57608138D01*
X153263022Y-57792753D01*
X153340732Y-57976213D01*
X153416489Y-58152741D01*
X153487863Y-58316559D01*
X153552426Y-58461892D01*
X153607748Y-58582962D01*
X153651400Y-58673992D01*
X153680954Y-58729205D01*
X153692856Y-58743706D01*
X153729223Y-58732414D01*
X153797270Y-58702130D01*
X153885263Y-58658265D01*
X153933649Y-58632620D01*
X154139137Y-58521515D01*
X154383932Y-58687091D01*
X154508894Y-58771915D01*
X154645705Y-58865261D01*
X154773911Y-58953153D01*
X154838129Y-58997412D01*
X154928449Y-59058063D01*
X155004929Y-59106126D01*
X155057593Y-59135515D01*
X155074698Y-59141727D01*
X155099595Y-59124968D01*
X155154695Y-59078181D01*
X155234657Y-59006225D01*
X155334139Y-58913957D01*
X155447800Y-58806235D01*
X155519685Y-58737071D01*
X155645449Y-58613502D01*
X155754137Y-58502979D01*
X155841355Y-58410230D01*
X155902711Y-58339982D01*
X155933809Y-58296965D01*
X155936792Y-58288235D01*
X155922947Y-58255029D01*
X155884688Y-58187887D01*
X155826258Y-58093608D01*
X155751903Y-57978990D01*
X155665865Y-57850828D01*
X155641397Y-57815098D01*
X155552245Y-57685234D01*
X155472262Y-57568314D01*
X155405920Y-57470907D01*
X155357689Y-57399584D01*
X155332043Y-57360915D01*
X155329565Y-57356917D01*
X155333271Y-57326100D01*
X155352939Y-57258344D01*
X155385140Y-57162584D01*
X155426445Y-57047754D01*
X155473425Y-56922789D01*
X155522651Y-56796624D01*
X155570692Y-56678193D01*
X155614119Y-56576430D01*
X155649504Y-56500271D01*
X155673416Y-56458649D01*
X155675116Y-56456653D01*
X155689738Y-56444758D01*
X155714435Y-56432995D01*
X155754628Y-56420146D01*
X155815737Y-56404994D01*
X155903183Y-56386321D01*
X156022388Y-56362910D01*
X156178773Y-56333542D01*
X156377757Y-56297000D01*
X156420840Y-56289143D01*
X156548529Y-56264472D01*
X156659847Y-56240338D01*
X156744955Y-56219069D01*
X156794017Y-56202993D01*
X156800595Y-56199245D01*
X156811436Y-56166018D01*
X156820247Y-56091766D01*
X156827024Y-55985121D01*
X156831760Y-55854712D01*
X156834450Y-55709172D01*
X156835087Y-55557131D01*
X156833666Y-55407221D01*
X156830180Y-55268073D01*
X156824624Y-55148317D01*
X156816992Y-55056586D01*
X156807278Y-55001511D01*
X156801422Y-54990238D01*
X156768820Y-54978868D01*
X156694582Y-54960369D01*
X156586104Y-54936347D01*
X156450783Y-54908407D01*
X156296015Y-54878153D01*
X156211692Y-54862296D01*
X156051704Y-54832389D01*
X155909033Y-54805295D01*
X155790652Y-54782376D01*
X155703535Y-54764988D01*
X155654655Y-54754492D01*
X155646610Y-54752165D01*
X155633013Y-54725931D01*
X155604271Y-54662740D01*
X155564215Y-54571622D01*
X155516676Y-54461602D01*
X155465485Y-54341710D01*
X155414474Y-54220972D01*
X155367474Y-54108416D01*
X155328316Y-54013071D01*
X155300831Y-53943962D01*
X155288851Y-53910119D01*
X155288628Y-53908640D01*
X155302209Y-53881942D01*
X155340285Y-53820505D01*
X155398853Y-53730434D01*
X155473912Y-53617835D01*
X155561460Y-53488815D01*
X155612353Y-53414706D01*
X155705091Y-53278822D01*
X155787459Y-53155454D01*
X155855439Y-53050842D01*
X155905012Y-52971228D01*
X155932158Y-52922852D01*
X155936079Y-52912007D01*
X155919225Y-52886765D01*
X155872632Y-52832869D01*
X155802251Y-52756358D01*
X155714035Y-52663268D01*
X155613935Y-52559640D01*
X155507902Y-52451509D01*
X155401889Y-52344915D01*
X155301848Y-52245895D01*
X155213730Y-52160487D01*
X155143487Y-52094730D01*
X155097072Y-52054661D01*
X155081544Y-52045098D01*
X155056261Y-52058545D01*
X154995789Y-52096320D01*
X154906008Y-52154580D01*
X154792797Y-52229479D01*
X154662036Y-52317170D01*
X154563400Y-52383978D01*
X154065043Y-52722857D01*
X153649629Y-52551610D01*
X153234216Y-52380363D01*
X153121634Y-51783172D01*
X153009051Y-51185980D01*
X151766048Y-51185980D01*
X151653465Y-51783172D01*
M02*
