%TF.GenerationSoftware,KiCad,Pcbnew,5.0.1*%
%TF.CreationDate,2018-11-26T07:17:36+01:00*%
%TF.ProjectId,leddings,6C656464696E67732E6B696361645F70,rev?*%
%TF.SameCoordinates,Original*%
%TF.FileFunction,Copper,L2,Bot,Signal*%
%TF.FilePolarity,Positive*%
%FSLAX46Y46*%
G04 Gerber Fmt 4.6, Leading zero omitted, Abs format (unit mm)*
G04 Created by KiCad (PCBNEW 5.0.1) date Mo 26 Nov 2018 07:17:36 CET*
%MOMM*%
%LPD*%
G01*
G04 APERTURE LIST*
%ADD10C,2.600000*%
%ADD11R,2.600000X2.600000*%
%ADD12O,1.200000X1.900000*%
%ADD13C,1.450000*%
%ADD14C,5.600000*%
%ADD15C,1.500000*%
%ADD16O,1.700000X1.700000*%
%ADD17R,1.700000X1.700000*%
%ADD18C,1.700000*%
%ADD19C,3.000000*%
%ADD20R,3.000000X3.000000*%
%ADD21C,0.800000*%
%ADD22C,2.000000*%
%ADD23C,0.250000*%
%ADD24C,0.254000*%
G04 APERTURE END LIST*
D10*
X146940000Y-96980000D03*
X142240000Y-99980000D03*
D11*
X142240000Y-93980000D03*
D12*
X164790000Y-106045000D03*
X157790000Y-106045000D03*
D13*
X163790000Y-103345000D03*
X158790000Y-103345000D03*
D14*
X175260000Y-29210000D03*
X132080000Y-104140000D03*
X132080000Y-29210000D03*
X175260000Y-104140000D03*
D15*
X172720000Y-86360000D03*
X172720000Y-91240000D03*
D16*
X133096000Y-69596000D03*
X133096000Y-72136000D03*
X133096000Y-74676000D03*
D17*
X133096000Y-77216000D03*
D16*
X148844000Y-86868000D03*
X148844000Y-84328000D03*
D17*
X148844000Y-81788000D03*
D18*
X150368000Y-40132000D03*
D16*
X152908000Y-40132000D03*
X155448000Y-40132000D03*
X157988000Y-40132000D03*
D19*
X151384000Y-32512000D03*
X156464000Y-32512000D03*
D20*
X146304000Y-32512000D03*
D19*
X161544000Y-32512000D03*
D21*
X157480000Y-54864000D03*
X157988000Y-55880000D03*
X149352000Y-54864000D03*
X148336000Y-54864000D03*
X168148000Y-53848000D03*
X167132000Y-53848000D03*
X167640000Y-54864000D03*
X166624000Y-54864000D03*
X167132000Y-55880000D03*
X168148000Y-55880000D03*
X159004000Y-53848000D03*
X157988000Y-53848000D03*
X158496000Y-54864000D03*
X159004000Y-55880000D03*
X149860000Y-55880000D03*
X148844000Y-55880000D03*
X148844000Y-53848000D03*
X149860000Y-53848000D03*
X147320000Y-62484000D03*
X147066000Y-74168000D03*
X148336000Y-74168000D03*
X147066000Y-72898000D03*
X148336000Y-72898000D03*
X149606000Y-72898000D03*
X149606000Y-74168000D03*
X149606000Y-71628000D03*
X148336000Y-71628000D03*
X147066000Y-71628000D03*
X147066000Y-78232000D03*
X148336000Y-78232000D03*
X149606000Y-78232000D03*
X147066000Y-79502000D03*
X148336000Y-79502000D03*
X149606000Y-79502000D03*
X142748000Y-80264000D03*
X144780000Y-87376000D03*
X165735000Y-94615000D03*
X159915000Y-98425000D03*
X156464000Y-94996000D03*
X156464000Y-90424000D03*
X138684000Y-67564000D03*
X144272000Y-74168000D03*
X162560000Y-95250000D03*
X161290000Y-86995000D03*
X138684000Y-74676000D03*
X160020000Y-87630000D03*
X162560000Y-97155000D03*
X138684000Y-77216000D03*
D22*
X136652000Y-36068000D02*
X140208000Y-32512000D01*
X136652000Y-88900000D02*
X136652000Y-36068000D01*
X140208000Y-32512000D02*
X146304000Y-32512000D01*
X142240000Y-93980000D02*
X141732000Y-93980000D01*
X141732000Y-93980000D02*
X136652000Y-88900000D01*
X147518000Y-40132000D02*
X146304000Y-38918000D01*
X150368000Y-40132000D02*
X147518000Y-40132000D01*
X146304000Y-38918000D02*
X146304000Y-36576000D01*
X146304000Y-32512000D02*
X146304000Y-36576000D01*
D23*
X165735000Y-94615000D02*
X165735000Y-95885000D01*
X165735000Y-95885000D02*
X163195000Y-98425000D01*
X163195000Y-98425000D02*
X159915000Y-98425000D01*
D22*
X157988000Y-36068000D02*
X161544000Y-32512000D01*
X157988000Y-40132000D02*
X157988000Y-36068000D01*
X155448000Y-33528000D02*
X156464000Y-32512000D01*
X155448000Y-40132000D02*
X155448000Y-33528000D01*
X152908000Y-34036000D02*
X151384000Y-32512000D01*
X152908000Y-40132000D02*
X152908000Y-34036000D01*
D23*
X156464000Y-94996000D02*
X156464000Y-90424000D01*
X139700000Y-68580000D02*
X138684000Y-67564000D01*
X139700000Y-69596000D02*
X139700000Y-68580000D01*
X144272000Y-74168000D02*
X139700000Y-69596000D01*
X162560000Y-95250000D02*
X161290000Y-93980000D01*
X161290000Y-93980000D02*
X161290000Y-86995000D01*
X149479000Y-75184000D02*
X161290000Y-86995000D01*
X139192000Y-75184000D02*
X149479000Y-75184000D01*
X138684000Y-74676000D02*
X139192000Y-75184000D01*
X160020000Y-87630000D02*
X160020000Y-94615000D01*
X160020000Y-94615000D02*
X162560000Y-97155000D01*
X160020000Y-87630000D02*
X160020000Y-86868000D01*
X150368000Y-77216000D02*
X140208000Y-77216000D01*
X160020000Y-86868000D02*
X150368000Y-77216000D01*
X138684000Y-77216000D02*
X140208000Y-77216000D01*
X140208000Y-77216000D02*
X140716000Y-77216000D01*
D24*
X134524824Y-26797000D02*
X172815176Y-26797000D01*
X134766124Y-27038300D02*
X172573876Y-27038300D01*
X134998420Y-27279600D02*
X172341581Y-27279600D01*
X135098370Y-27520900D02*
X172241631Y-27520900D01*
X135198320Y-27762200D02*
X172141681Y-27762200D01*
X135298269Y-28003500D02*
X172041732Y-28003500D01*
X135398219Y-28244800D02*
X171941782Y-28244800D01*
X135498169Y-28486100D02*
X171841832Y-28486100D01*
X135515000Y-28727400D02*
X171825000Y-28727400D01*
X135515000Y-28968700D02*
X171825000Y-28968700D01*
X135515000Y-29210000D02*
X171825000Y-29210000D01*
X135515000Y-29451300D02*
X171825000Y-29451300D01*
X135515000Y-29692600D02*
X171825000Y-29692600D01*
X135498168Y-29933900D02*
X171841831Y-29933900D01*
X135398218Y-30175200D02*
X171941781Y-30175200D01*
X135298268Y-30416500D02*
X144552259Y-30416500D01*
X148055742Y-30416500D02*
X150863961Y-30416500D01*
X151904040Y-30416500D02*
X155943961Y-30416500D01*
X156984040Y-30416500D02*
X161023961Y-30416500D01*
X162064040Y-30416500D02*
X172041731Y-30416500D01*
X135198319Y-30657800D02*
X144276962Y-30657800D01*
X148331039Y-30657800D02*
X150281411Y-30657800D01*
X152486590Y-30657800D02*
X155361411Y-30657800D01*
X157566590Y-30657800D02*
X160441411Y-30657800D01*
X162646590Y-30657800D02*
X172141680Y-30657800D01*
X135098369Y-30899100D02*
X139935865Y-30899100D01*
X148428984Y-30899100D02*
X149977554Y-30899100D01*
X152790446Y-30899100D02*
X155057554Y-30899100D01*
X157870446Y-30899100D02*
X160137554Y-30899100D01*
X162950446Y-30899100D02*
X172241630Y-30899100D01*
X134998419Y-31140400D02*
X139317824Y-31140400D01*
X148451440Y-31140400D02*
X149736254Y-31140400D01*
X153031746Y-31140400D02*
X154816254Y-31140400D01*
X158111746Y-31140400D02*
X159896254Y-31140400D01*
X163191746Y-31140400D02*
X172341580Y-31140400D01*
X134766124Y-31381700D02*
X138996846Y-31381700D01*
X148451440Y-31381700D02*
X149541279Y-31381700D01*
X153226722Y-31381700D02*
X154621279Y-31381700D01*
X158306722Y-31381700D02*
X159701279Y-31381700D01*
X163386722Y-31381700D02*
X172573876Y-31381700D01*
X134524824Y-31623000D02*
X138784762Y-31623000D01*
X148451440Y-31623000D02*
X149441329Y-31623000D01*
X153326672Y-31623000D02*
X154521329Y-31623000D01*
X158406672Y-31623000D02*
X159601329Y-31623000D01*
X163486672Y-31623000D02*
X172815176Y-31623000D01*
X129667000Y-31864300D02*
X129876476Y-31864300D01*
X134283524Y-31864300D02*
X138543462Y-31864300D01*
X148451440Y-31864300D02*
X149341379Y-31864300D01*
X153426622Y-31864300D02*
X154421379Y-31864300D01*
X158506622Y-31864300D02*
X159501379Y-31864300D01*
X163586622Y-31864300D02*
X173056476Y-31864300D01*
X177463524Y-31864300D02*
X177673000Y-31864300D01*
X129667000Y-32105600D02*
X130117776Y-32105600D01*
X134042224Y-32105600D02*
X138302162Y-32105600D01*
X148451440Y-32105600D02*
X149249000Y-32105600D01*
X153519000Y-32105600D02*
X154329000Y-32105600D01*
X158599000Y-32105600D02*
X159409000Y-32105600D01*
X163679000Y-32105600D02*
X173297776Y-32105600D01*
X177222224Y-32105600D02*
X177673000Y-32105600D01*
X129667000Y-32346900D02*
X130677058Y-32346900D01*
X133482941Y-32346900D02*
X138060862Y-32346900D01*
X148451440Y-32346900D02*
X149249000Y-32346900D01*
X153531139Y-32346900D02*
X154272721Y-32346900D01*
X158599000Y-32346900D02*
X159396862Y-32346900D01*
X163679000Y-32346900D02*
X173857058Y-32346900D01*
X176662941Y-32346900D02*
X177673000Y-32346900D01*
X129667000Y-32588200D02*
X131259608Y-32588200D01*
X132900391Y-32588200D02*
X137819562Y-32588200D01*
X148451440Y-32588200D02*
X149249000Y-32588200D01*
X153772439Y-32588200D02*
X154109559Y-32588200D01*
X158599000Y-32588200D02*
X159155562Y-32588200D01*
X163679000Y-32588200D02*
X174439608Y-32588200D01*
X176080391Y-32588200D02*
X177673000Y-32588200D01*
X129667000Y-32829500D02*
X137578262Y-32829500D01*
X148451440Y-32829500D02*
X149249000Y-32829500D01*
X158599000Y-32829500D02*
X158914262Y-32829500D01*
X163679000Y-32829500D02*
X177673000Y-32829500D01*
X129667000Y-33070800D02*
X137336962Y-33070800D01*
X148451440Y-33070800D02*
X149304555Y-33070800D01*
X158543444Y-33070800D02*
X158672962Y-33070800D01*
X163623444Y-33070800D02*
X177673000Y-33070800D01*
X129667000Y-33312100D02*
X137095662Y-33312100D01*
X148451440Y-33312100D02*
X149404504Y-33312100D01*
X163523495Y-33312100D02*
X177673000Y-33312100D01*
X129667000Y-33553400D02*
X136854362Y-33553400D01*
X148451440Y-33553400D02*
X149504454Y-33553400D01*
X163423545Y-33553400D02*
X177673000Y-33553400D01*
X129667000Y-33794700D02*
X136613062Y-33794700D01*
X148451440Y-33794700D02*
X149647354Y-33794700D01*
X163280646Y-33794700D02*
X177673000Y-33794700D01*
X129667000Y-34036000D02*
X136371762Y-34036000D01*
X148446666Y-34036000D02*
X149888654Y-34036000D01*
X163039346Y-34036000D02*
X177673000Y-34036000D01*
X129667000Y-34277300D02*
X136130462Y-34277300D01*
X140754938Y-34277300D02*
X144217559Y-34277300D01*
X148390440Y-34277300D02*
X150129954Y-34277300D01*
X162798046Y-34277300D02*
X177673000Y-34277300D01*
X129667000Y-34518600D02*
X135889162Y-34518600D01*
X140513638Y-34518600D02*
X144419211Y-34518600D01*
X148188788Y-34518600D02*
X150649336Y-34518600D01*
X162278663Y-34518600D02*
X177673000Y-34518600D01*
X129667000Y-34759900D02*
X135647862Y-34759900D01*
X140272338Y-34759900D02*
X144669001Y-34759900D01*
X147939000Y-34759900D02*
X151273001Y-34759900D01*
X161608338Y-34759900D02*
X177673000Y-34759900D01*
X129667000Y-35001200D02*
X135398417Y-35001200D01*
X140031038Y-35001200D02*
X144669001Y-35001200D01*
X147939000Y-35001200D02*
X151273001Y-35001200D01*
X161367038Y-35001200D02*
X177673000Y-35001200D01*
X129667000Y-35242500D02*
X135237186Y-35242500D01*
X139789738Y-35242500D02*
X144669001Y-35242500D01*
X147939000Y-35242500D02*
X151273001Y-35242500D01*
X161125738Y-35242500D02*
X177673000Y-35242500D01*
X129667000Y-35483800D02*
X135101175Y-35483800D01*
X139548438Y-35483800D02*
X144669001Y-35483800D01*
X147939000Y-35483800D02*
X151273001Y-35483800D01*
X160884438Y-35483800D02*
X177673000Y-35483800D01*
X129667000Y-35725100D02*
X135053177Y-35725100D01*
X139307138Y-35725100D02*
X144669001Y-35725100D01*
X147939000Y-35725100D02*
X151273001Y-35725100D01*
X160643138Y-35725100D02*
X177673000Y-35725100D01*
X129667000Y-35966400D02*
X135005179Y-35966400D01*
X139065838Y-35966400D02*
X144669001Y-35966400D01*
X147939000Y-35966400D02*
X151273001Y-35966400D01*
X160401838Y-35966400D02*
X177673000Y-35966400D01*
X129667000Y-36207700D02*
X135012757Y-36207700D01*
X138824538Y-36207700D02*
X144669001Y-36207700D01*
X147939000Y-36207700D02*
X151273001Y-36207700D01*
X160160538Y-36207700D02*
X177673000Y-36207700D01*
X129667000Y-36449000D02*
X135017001Y-36449000D01*
X138583238Y-36449000D02*
X144669001Y-36449000D01*
X147939000Y-36449000D02*
X151273001Y-36449000D01*
X159919238Y-36449000D02*
X177673000Y-36449000D01*
X129667000Y-36690300D02*
X135017001Y-36690300D01*
X138341938Y-36690300D02*
X144669001Y-36690300D01*
X147939000Y-36690300D02*
X151273001Y-36690300D01*
X159677938Y-36690300D02*
X177673000Y-36690300D01*
X129667000Y-36931600D02*
X135017001Y-36931600D01*
X138287000Y-36931600D02*
X144669001Y-36931600D01*
X147939000Y-36931600D02*
X151273001Y-36931600D01*
X159623000Y-36931600D02*
X177673000Y-36931600D01*
X129667000Y-37172900D02*
X135017001Y-37172900D01*
X138287000Y-37172900D02*
X144669001Y-37172900D01*
X147939000Y-37172900D02*
X151273001Y-37172900D01*
X159623000Y-37172900D02*
X177673000Y-37172900D01*
X129667000Y-37414200D02*
X135017001Y-37414200D01*
X138287000Y-37414200D02*
X144669001Y-37414200D01*
X147939000Y-37414200D02*
X151273001Y-37414200D01*
X159623000Y-37414200D02*
X177673000Y-37414200D01*
X129667000Y-37655500D02*
X135017001Y-37655500D01*
X138287000Y-37655500D02*
X144669001Y-37655500D01*
X147939000Y-37655500D02*
X151273001Y-37655500D01*
X159623000Y-37655500D02*
X177673000Y-37655500D01*
X129667000Y-37896800D02*
X135017001Y-37896800D01*
X138287000Y-37896800D02*
X144669001Y-37896800D01*
X147939000Y-37896800D02*
X151273001Y-37896800D01*
X159623000Y-37896800D02*
X177673000Y-37896800D01*
X129667000Y-38138100D02*
X135017001Y-38138100D01*
X138287000Y-38138100D02*
X144669001Y-38138100D01*
X147939000Y-38138100D02*
X151273001Y-38138100D01*
X159623000Y-38138100D02*
X177673000Y-38138100D01*
X129667000Y-38379400D02*
X135017001Y-38379400D01*
X138287000Y-38379400D02*
X144669001Y-38379400D01*
X148077639Y-38379400D02*
X151273001Y-38379400D01*
X159623000Y-38379400D02*
X177673000Y-38379400D01*
X129667000Y-38620700D02*
X135017001Y-38620700D01*
X138287000Y-38620700D02*
X144669001Y-38620700D01*
X151049101Y-38620700D02*
X151273001Y-38620700D01*
X159623000Y-38620700D02*
X177673000Y-38620700D01*
X129667000Y-38862000D02*
X135017001Y-38862000D01*
X138287000Y-38862000D02*
X144648109Y-38862000D01*
X159623000Y-38862000D02*
X177673000Y-38862000D01*
X129667000Y-39103300D02*
X135017001Y-39103300D01*
X138287000Y-39103300D02*
X144673827Y-39103300D01*
X159623000Y-39103300D02*
X177673000Y-39103300D01*
X129667000Y-39344600D02*
X135017001Y-39344600D01*
X138287000Y-39344600D02*
X144721825Y-39344600D01*
X159623000Y-39344600D02*
X177673000Y-39344600D01*
X129667000Y-39585900D02*
X135017001Y-39585900D01*
X138287000Y-39585900D02*
X144783879Y-39585900D01*
X159623000Y-39585900D02*
X177673000Y-39585900D01*
X129667000Y-39827200D02*
X135017001Y-39827200D01*
X138287000Y-39827200D02*
X144945111Y-39827200D01*
X159623000Y-39827200D02*
X177673000Y-39827200D01*
X129667000Y-40068500D02*
X135017001Y-40068500D01*
X138287000Y-40068500D02*
X145106342Y-40068500D01*
X159623000Y-40068500D02*
X177673000Y-40068500D01*
X129667000Y-40309800D02*
X135017001Y-40309800D01*
X138287000Y-40309800D02*
X145383561Y-40309800D01*
X159619664Y-40309800D02*
X177673000Y-40309800D01*
X129667000Y-40551100D02*
X135017001Y-40551100D01*
X138287000Y-40551100D02*
X145624861Y-40551100D01*
X159571666Y-40551100D02*
X177673000Y-40551100D01*
X129667000Y-40792400D02*
X135017001Y-40792400D01*
X138287000Y-40792400D02*
X145866161Y-40792400D01*
X159513132Y-40792400D02*
X177673000Y-40792400D01*
X129667000Y-41033700D02*
X135017001Y-41033700D01*
X138287000Y-41033700D02*
X146107461Y-41033700D01*
X159351900Y-41033700D02*
X177673000Y-41033700D01*
X129667000Y-41275000D02*
X135017001Y-41275000D01*
X138287000Y-41275000D02*
X146315330Y-41275000D01*
X151570669Y-41275000D02*
X151705330Y-41275000D01*
X154110669Y-41275000D02*
X154245330Y-41275000D01*
X156650669Y-41275000D02*
X156785330Y-41275000D01*
X159190669Y-41275000D02*
X177673000Y-41275000D01*
X129667000Y-41516300D02*
X135017001Y-41516300D01*
X138287000Y-41516300D02*
X146646829Y-41516300D01*
X151239170Y-41516300D02*
X152036829Y-41516300D01*
X153779169Y-41516300D02*
X154576829Y-41516300D01*
X156319169Y-41516300D02*
X157116829Y-41516300D01*
X158859169Y-41516300D02*
X177673000Y-41516300D01*
X129667000Y-41757600D02*
X135017001Y-41757600D01*
X138287000Y-41757600D02*
X147309711Y-41757600D01*
X150576288Y-41757600D02*
X152699712Y-41757600D01*
X153116287Y-41757600D02*
X155239712Y-41757600D01*
X155656287Y-41757600D02*
X157779712Y-41757600D01*
X158196287Y-41757600D02*
X177673000Y-41757600D01*
X129667000Y-41998900D02*
X135017001Y-41998900D01*
X138287000Y-41998900D02*
X177673000Y-41998900D01*
X129667000Y-42240200D02*
X135017001Y-42240200D01*
X138287000Y-42240200D02*
X177673000Y-42240200D01*
X129667000Y-42481500D02*
X135017001Y-42481500D01*
X138287000Y-42481500D02*
X177673000Y-42481500D01*
X129667000Y-42722800D02*
X135017001Y-42722800D01*
X138287000Y-42722800D02*
X177673000Y-42722800D01*
X129667000Y-42964100D02*
X135017001Y-42964100D01*
X138287000Y-42964100D02*
X177673000Y-42964100D01*
X129667000Y-43205400D02*
X135017001Y-43205400D01*
X138287000Y-43205400D02*
X177673000Y-43205400D01*
X129667000Y-43446700D02*
X135017001Y-43446700D01*
X138287000Y-43446700D02*
X177673000Y-43446700D01*
X129667000Y-43688000D02*
X135017001Y-43688000D01*
X138287000Y-43688000D02*
X177673000Y-43688000D01*
X129667000Y-43929300D02*
X135017001Y-43929300D01*
X138287000Y-43929300D02*
X177673000Y-43929300D01*
X129667000Y-44170600D02*
X135017001Y-44170600D01*
X138287000Y-44170600D02*
X177673000Y-44170600D01*
X129667000Y-44411900D02*
X135017001Y-44411900D01*
X138287000Y-44411900D02*
X177673000Y-44411900D01*
X129667000Y-44653200D02*
X135017001Y-44653200D01*
X138287000Y-44653200D02*
X177673000Y-44653200D01*
X129667000Y-44894500D02*
X135017001Y-44894500D01*
X138287000Y-44894500D02*
X177673000Y-44894500D01*
X129667000Y-45135800D02*
X135017001Y-45135800D01*
X138287000Y-45135800D02*
X177673000Y-45135800D01*
X129667000Y-45377100D02*
X135017001Y-45377100D01*
X138287000Y-45377100D02*
X177673000Y-45377100D01*
X129667000Y-45618400D02*
X135017001Y-45618400D01*
X138287000Y-45618400D02*
X177673000Y-45618400D01*
X129667000Y-45859700D02*
X135017001Y-45859700D01*
X138287000Y-45859700D02*
X177673000Y-45859700D01*
X129667000Y-46101000D02*
X135017001Y-46101000D01*
X138287000Y-46101000D02*
X177673000Y-46101000D01*
X129667000Y-46342300D02*
X135017001Y-46342300D01*
X138287000Y-46342300D02*
X177673000Y-46342300D01*
X129667000Y-46583600D02*
X135017001Y-46583600D01*
X138287000Y-46583600D02*
X177673000Y-46583600D01*
X129667000Y-46824900D02*
X135017001Y-46824900D01*
X138287000Y-46824900D02*
X177673000Y-46824900D01*
X129667000Y-47066200D02*
X135017001Y-47066200D01*
X138287000Y-47066200D02*
X177673000Y-47066200D01*
X129667000Y-47307500D02*
X135017001Y-47307500D01*
X138287000Y-47307500D02*
X177673000Y-47307500D01*
X129667000Y-47548800D02*
X135017001Y-47548800D01*
X138287000Y-47548800D02*
X177673000Y-47548800D01*
X129667000Y-47790100D02*
X135017001Y-47790100D01*
X138287000Y-47790100D02*
X177673000Y-47790100D01*
X129667000Y-48031400D02*
X135017001Y-48031400D01*
X138287000Y-48031400D02*
X177673000Y-48031400D01*
X129667000Y-48272700D02*
X135017001Y-48272700D01*
X138287000Y-48272700D02*
X177673000Y-48272700D01*
X129667000Y-48514000D02*
X135017001Y-48514000D01*
X138287000Y-48514000D02*
X177673000Y-48514000D01*
X129667000Y-48755300D02*
X135017001Y-48755300D01*
X138287000Y-48755300D02*
X177673000Y-48755300D01*
X129667000Y-48996600D02*
X135017001Y-48996600D01*
X138287000Y-48996600D02*
X177673000Y-48996600D01*
X129667000Y-49237900D02*
X135017001Y-49237900D01*
X138287000Y-49237900D02*
X177673000Y-49237900D01*
X129667000Y-49479200D02*
X135017001Y-49479200D01*
X138287000Y-49479200D02*
X177673000Y-49479200D01*
X129667000Y-49720500D02*
X135017001Y-49720500D01*
X138287000Y-49720500D02*
X177673000Y-49720500D01*
X129667000Y-49961800D02*
X135017001Y-49961800D01*
X138287000Y-49961800D02*
X177673000Y-49961800D01*
X129667000Y-50203100D02*
X135017001Y-50203100D01*
X138287000Y-50203100D02*
X177673000Y-50203100D01*
X129667000Y-50444400D02*
X135017001Y-50444400D01*
X138287000Y-50444400D02*
X177673000Y-50444400D01*
X129667000Y-50685700D02*
X135017001Y-50685700D01*
X138287000Y-50685700D02*
X177673000Y-50685700D01*
X129667000Y-50927000D02*
X135017001Y-50927000D01*
X138287000Y-50927000D02*
X177673000Y-50927000D01*
X129667000Y-51168300D02*
X135017001Y-51168300D01*
X138287000Y-51168300D02*
X177673000Y-51168300D01*
X129667000Y-51409600D02*
X135017001Y-51409600D01*
X138287000Y-51409600D02*
X177673000Y-51409600D01*
X129667000Y-51650900D02*
X135017001Y-51650900D01*
X138287000Y-51650900D02*
X177673000Y-51650900D01*
X129667000Y-51892200D02*
X135017001Y-51892200D01*
X138287000Y-51892200D02*
X177673000Y-51892200D01*
X129667000Y-52133500D02*
X135017001Y-52133500D01*
X138287000Y-52133500D02*
X177673000Y-52133500D01*
X129667000Y-52374800D02*
X135017001Y-52374800D01*
X138287000Y-52374800D02*
X177673000Y-52374800D01*
X129667000Y-52616100D02*
X135017001Y-52616100D01*
X138287000Y-52616100D02*
X177673000Y-52616100D01*
X129667000Y-52857400D02*
X135017001Y-52857400D01*
X138287000Y-52857400D02*
X177673000Y-52857400D01*
X129667000Y-53098700D02*
X135017001Y-53098700D01*
X138287000Y-53098700D02*
X177673000Y-53098700D01*
X129667000Y-53340000D02*
X135017001Y-53340000D01*
X138287000Y-53340000D02*
X177673000Y-53340000D01*
X129667000Y-53581300D02*
X135017001Y-53581300D01*
X138287000Y-53581300D02*
X177673000Y-53581300D01*
X129667000Y-53822600D02*
X135017001Y-53822600D01*
X138287000Y-53822600D02*
X177673000Y-53822600D01*
X129667000Y-54063900D02*
X135017001Y-54063900D01*
X138287000Y-54063900D02*
X177673000Y-54063900D01*
X129667000Y-54305200D02*
X135017001Y-54305200D01*
X138287000Y-54305200D02*
X177673000Y-54305200D01*
X129667000Y-54546500D02*
X135017001Y-54546500D01*
X138287000Y-54546500D02*
X177673000Y-54546500D01*
X129667000Y-54787800D02*
X135017001Y-54787800D01*
X138287000Y-54787800D02*
X177673000Y-54787800D01*
X129667000Y-55029100D02*
X135017001Y-55029100D01*
X138287000Y-55029100D02*
X177673000Y-55029100D01*
X129667000Y-55270400D02*
X135017001Y-55270400D01*
X138287000Y-55270400D02*
X177673000Y-55270400D01*
X129667000Y-55511700D02*
X135017001Y-55511700D01*
X138287000Y-55511700D02*
X177673000Y-55511700D01*
X129667000Y-55753000D02*
X135017001Y-55753000D01*
X138287000Y-55753000D02*
X177673000Y-55753000D01*
X129667000Y-55994300D02*
X135017001Y-55994300D01*
X138287000Y-55994300D02*
X177673000Y-55994300D01*
X129667000Y-56235600D02*
X135017001Y-56235600D01*
X138287000Y-56235600D02*
X177673000Y-56235600D01*
X129667000Y-56476900D02*
X135017001Y-56476900D01*
X138287000Y-56476900D02*
X177673000Y-56476900D01*
X129667000Y-56718200D02*
X135017001Y-56718200D01*
X138287000Y-56718200D02*
X177673000Y-56718200D01*
X129667000Y-56959500D02*
X135017001Y-56959500D01*
X138287000Y-56959500D02*
X177673000Y-56959500D01*
X129667000Y-57200800D02*
X135017001Y-57200800D01*
X138287000Y-57200800D02*
X177673000Y-57200800D01*
X129667000Y-57442100D02*
X135017001Y-57442100D01*
X138287000Y-57442100D02*
X177673000Y-57442100D01*
X129667000Y-57683400D02*
X135017001Y-57683400D01*
X138287000Y-57683400D02*
X177673000Y-57683400D01*
X129667000Y-57924700D02*
X135017001Y-57924700D01*
X138287000Y-57924700D02*
X177673000Y-57924700D01*
X129667000Y-58166000D02*
X135017001Y-58166000D01*
X138287000Y-58166000D02*
X177673000Y-58166000D01*
X129667000Y-58407300D02*
X135017001Y-58407300D01*
X138287000Y-58407300D02*
X177673000Y-58407300D01*
X129667000Y-58648600D02*
X135017001Y-58648600D01*
X138287000Y-58648600D02*
X177673000Y-58648600D01*
X129667000Y-58889900D02*
X135017001Y-58889900D01*
X138287000Y-58889900D02*
X177673000Y-58889900D01*
X129667000Y-59131200D02*
X135017001Y-59131200D01*
X138287000Y-59131200D02*
X177673000Y-59131200D01*
X129667000Y-59372500D02*
X135017001Y-59372500D01*
X138287000Y-59372500D02*
X177673000Y-59372500D01*
X129667000Y-59613800D02*
X135017001Y-59613800D01*
X138287000Y-59613800D02*
X177673000Y-59613800D01*
X129667000Y-59855100D02*
X135017001Y-59855100D01*
X138287000Y-59855100D02*
X177673000Y-59855100D01*
X129667000Y-60096400D02*
X135017001Y-60096400D01*
X138287000Y-60096400D02*
X177673000Y-60096400D01*
X129667000Y-60337700D02*
X135017001Y-60337700D01*
X138287000Y-60337700D02*
X177673000Y-60337700D01*
X129667000Y-60579000D02*
X135017001Y-60579000D01*
X138287000Y-60579000D02*
X177673000Y-60579000D01*
X129667000Y-60820300D02*
X135017001Y-60820300D01*
X138287000Y-60820300D02*
X177673000Y-60820300D01*
X129667000Y-61061600D02*
X135017001Y-61061600D01*
X138287000Y-61061600D02*
X170053000Y-61061600D01*
X129667000Y-61302900D02*
X135017001Y-61302900D01*
X138287000Y-61302900D02*
X170053000Y-61302900D01*
X129667000Y-61544200D02*
X135017001Y-61544200D01*
X138287000Y-61544200D02*
X170053000Y-61544200D01*
X129667000Y-61785500D02*
X135017001Y-61785500D01*
X138287000Y-61785500D02*
X170053000Y-61785500D01*
X129667000Y-62026800D02*
X135017001Y-62026800D01*
X138287000Y-62026800D02*
X170053000Y-62026800D01*
X129667000Y-62268100D02*
X135017001Y-62268100D01*
X138287000Y-62268100D02*
X170053000Y-62268100D01*
X129667000Y-62509400D02*
X135017001Y-62509400D01*
X138287000Y-62509400D02*
X170053000Y-62509400D01*
X129667000Y-62750700D02*
X135017001Y-62750700D01*
X138287000Y-62750700D02*
X170053000Y-62750700D01*
X129667000Y-62992000D02*
X135017001Y-62992000D01*
X138287000Y-62992000D02*
X170053000Y-62992000D01*
X129667000Y-63233300D02*
X135017001Y-63233300D01*
X138287000Y-63233300D02*
X170053000Y-63233300D01*
X129667000Y-63474600D02*
X135017001Y-63474600D01*
X138287000Y-63474600D02*
X170053000Y-63474600D01*
X129667000Y-63715900D02*
X135017001Y-63715900D01*
X138287000Y-63715900D02*
X170053000Y-63715900D01*
X129667000Y-63957200D02*
X135017001Y-63957200D01*
X138287000Y-63957200D02*
X170053000Y-63957200D01*
X129667000Y-64198500D02*
X135017001Y-64198500D01*
X138287000Y-64198500D02*
X170053000Y-64198500D01*
X129667000Y-64439800D02*
X135017001Y-64439800D01*
X138287000Y-64439800D02*
X170053000Y-64439800D01*
X129667000Y-64681100D02*
X135017001Y-64681100D01*
X138287000Y-64681100D02*
X170053000Y-64681100D01*
X129667000Y-64922400D02*
X135017001Y-64922400D01*
X138287000Y-64922400D02*
X170053000Y-64922400D01*
X129667000Y-65163700D02*
X135017001Y-65163700D01*
X138287000Y-65163700D02*
X170053000Y-65163700D01*
X129667000Y-65405000D02*
X135017001Y-65405000D01*
X138287000Y-65405000D02*
X170053000Y-65405000D01*
X129667000Y-65646300D02*
X135017001Y-65646300D01*
X138287000Y-65646300D02*
X170053000Y-65646300D01*
X129667000Y-65887600D02*
X135017001Y-65887600D01*
X138287000Y-65887600D02*
X170053000Y-65887600D01*
X129667000Y-66128900D02*
X135017001Y-66128900D01*
X138287000Y-66128900D02*
X170053000Y-66128900D01*
X129667000Y-66370200D02*
X135017001Y-66370200D01*
X138287000Y-66370200D02*
X170053000Y-66370200D01*
X129667000Y-66611500D02*
X135017001Y-66611500D01*
X139089048Y-66611500D02*
X170053000Y-66611500D01*
X129667000Y-66852800D02*
X135017001Y-66852800D01*
X139436511Y-66852800D02*
X170053000Y-66852800D01*
X129667000Y-67094100D02*
X135017001Y-67094100D01*
X139609638Y-67094100D02*
X170053000Y-67094100D01*
X129667000Y-67335400D02*
X135017001Y-67335400D01*
X139709587Y-67335400D02*
X170053000Y-67335400D01*
X129667000Y-67576700D02*
X135017001Y-67576700D01*
X139771502Y-67576700D02*
X170053000Y-67576700D01*
X129667000Y-67818000D02*
X135017001Y-67818000D01*
X140012802Y-67818000D02*
X170053000Y-67818000D01*
X129667000Y-68059300D02*
X135017001Y-68059300D01*
X140266123Y-68059300D02*
X170053000Y-68059300D01*
X129667000Y-68300600D02*
X132361775Y-68300600D01*
X133830226Y-68300600D02*
X135017001Y-68300600D01*
X140419313Y-68300600D02*
X170053000Y-68300600D01*
X129667000Y-68541900D02*
X132014334Y-68541900D01*
X134177667Y-68541900D02*
X135017001Y-68541900D01*
X140467310Y-68541900D02*
X170053000Y-68541900D01*
X129667000Y-68783200D02*
X131853102Y-68783200D01*
X134338899Y-68783200D02*
X135017001Y-68783200D01*
X140460000Y-68783200D02*
X170053000Y-68783200D01*
X129667000Y-69024500D02*
X131695587Y-69024500D01*
X134496414Y-69024500D02*
X135017001Y-69024500D01*
X140460000Y-69024500D02*
X170053000Y-69024500D01*
X129667000Y-69265800D02*
X131647589Y-69265800D01*
X134544412Y-69265800D02*
X135017001Y-69265800D01*
X140460000Y-69265800D02*
X170053000Y-69265800D01*
X129667000Y-69507100D02*
X131599592Y-69507100D01*
X134592409Y-69507100D02*
X135017001Y-69507100D01*
X140685902Y-69507100D02*
X170053000Y-69507100D01*
X129667000Y-69748400D02*
X131612222Y-69748400D01*
X134579777Y-69748400D02*
X135017001Y-69748400D01*
X140927202Y-69748400D02*
X170053000Y-69748400D01*
X129667000Y-69989700D02*
X131660219Y-69989700D01*
X134531780Y-69989700D02*
X135017001Y-69989700D01*
X141168502Y-69989700D02*
X170053000Y-69989700D01*
X129667000Y-70231000D02*
X131734299Y-70231000D01*
X134457700Y-70231000D02*
X135017001Y-70231000D01*
X141409802Y-70231000D02*
X170053000Y-70231000D01*
X129667000Y-70472300D02*
X131895531Y-70472300D01*
X134296468Y-70472300D02*
X135017001Y-70472300D01*
X141651102Y-70472300D02*
X170053000Y-70472300D01*
X129667000Y-70713600D02*
X132095678Y-70713600D01*
X134096321Y-70713600D02*
X135017001Y-70713600D01*
X141892402Y-70713600D02*
X170053000Y-70713600D01*
X129667000Y-70954900D02*
X132190713Y-70954900D01*
X134001288Y-70954900D02*
X135017001Y-70954900D01*
X142133702Y-70954900D02*
X170053000Y-70954900D01*
X129667000Y-71196200D02*
X131937961Y-71196200D01*
X134254040Y-71196200D02*
X135017001Y-71196200D01*
X142375002Y-71196200D02*
X170053000Y-71196200D01*
X129667000Y-71437500D02*
X131776730Y-71437500D01*
X134415271Y-71437500D02*
X135017001Y-71437500D01*
X142616303Y-71437500D02*
X170053000Y-71437500D01*
X129667000Y-71678800D02*
X131672851Y-71678800D01*
X134519150Y-71678800D02*
X135017001Y-71678800D01*
X142857603Y-71678800D02*
X170053000Y-71678800D01*
X129667000Y-71920100D02*
X131624854Y-71920100D01*
X134567147Y-71920100D02*
X135017001Y-71920100D01*
X143098903Y-71920100D02*
X170053000Y-71920100D01*
X129667000Y-72161400D02*
X131586960Y-72161400D01*
X134605039Y-72161400D02*
X135017001Y-72161400D01*
X143340203Y-72161400D02*
X170053000Y-72161400D01*
X129667000Y-72402700D02*
X131634957Y-72402700D01*
X134557042Y-72402700D02*
X135017001Y-72402700D01*
X143581503Y-72402700D02*
X170053000Y-72402700D01*
X129667000Y-72644000D02*
X131682955Y-72644000D01*
X134509044Y-72644000D02*
X135017001Y-72644000D01*
X143822803Y-72644000D02*
X170053000Y-72644000D01*
X129667000Y-72885300D02*
X131810672Y-72885300D01*
X134381327Y-72885300D02*
X135017001Y-72885300D01*
X144064103Y-72885300D02*
X170053000Y-72885300D01*
X129667000Y-73126600D02*
X131971904Y-73126600D01*
X134220095Y-73126600D02*
X135017001Y-73126600D01*
X144305403Y-73126600D02*
X170053000Y-73126600D01*
X129667000Y-73367900D02*
X132266740Y-73367900D01*
X133925259Y-73367900D02*
X135017001Y-73367900D01*
X144935611Y-73367900D02*
X170053000Y-73367900D01*
X129667000Y-73609200D02*
X132022820Y-73609200D01*
X134169181Y-73609200D02*
X135017001Y-73609200D01*
X145160814Y-73609200D02*
X170053000Y-73609200D01*
X129667000Y-73850500D02*
X131861588Y-73850500D01*
X134330413Y-73850500D02*
X135017001Y-73850500D01*
X145260764Y-73850500D02*
X170053000Y-73850500D01*
X129667000Y-74091800D02*
X131700357Y-74091800D01*
X134491644Y-74091800D02*
X135017001Y-74091800D01*
X145307000Y-74091800D02*
X170053000Y-74091800D01*
X129667000Y-74333100D02*
X131650115Y-74333100D01*
X134541886Y-74333100D02*
X135017001Y-74333100D01*
X145307000Y-74333100D02*
X170053000Y-74333100D01*
X129667000Y-74574400D02*
X131602118Y-74574400D01*
X134589883Y-74574400D02*
X135017001Y-74574400D01*
X149934632Y-74574400D02*
X170053000Y-74574400D01*
X129667000Y-74815700D02*
X131609695Y-74815700D01*
X134582304Y-74815700D02*
X135017001Y-74815700D01*
X150185502Y-74815700D02*
X170053000Y-74815700D01*
X129667000Y-75057000D02*
X131657693Y-75057000D01*
X134534306Y-75057000D02*
X135017001Y-75057000D01*
X150426802Y-75057000D02*
X170053000Y-75057000D01*
X129667000Y-75298300D02*
X131725813Y-75298300D01*
X134466186Y-75298300D02*
X135017001Y-75298300D01*
X150668102Y-75298300D02*
X170053000Y-75298300D01*
X129667000Y-75539600D02*
X131887045Y-75539600D01*
X134304954Y-75539600D02*
X135017001Y-75539600D01*
X150909402Y-75539600D02*
X170053000Y-75539600D01*
X129667000Y-75780900D02*
X131978694Y-75780900D01*
X134213307Y-75780900D02*
X135017001Y-75780900D01*
X151150702Y-75780900D02*
X170053000Y-75780900D01*
X129667000Y-76022200D02*
X131712013Y-76022200D01*
X134479988Y-76022200D02*
X135017001Y-76022200D01*
X151392002Y-76022200D02*
X170053000Y-76022200D01*
X129667000Y-76263500D02*
X131618949Y-76263500D01*
X134573052Y-76263500D02*
X135017001Y-76263500D01*
X151633302Y-76263500D02*
X170053000Y-76263500D01*
X129667000Y-76504800D02*
X131598560Y-76504800D01*
X134593440Y-76504800D02*
X135017001Y-76504800D01*
X151874602Y-76504800D02*
X170053000Y-76504800D01*
X129667000Y-76746100D02*
X131598560Y-76746100D01*
X134593440Y-76746100D02*
X135017001Y-76746100D01*
X152115902Y-76746100D02*
X170053000Y-76746100D01*
X129667000Y-76987400D02*
X131598560Y-76987400D01*
X134593440Y-76987400D02*
X135017001Y-76987400D01*
X152357202Y-76987400D02*
X170053000Y-76987400D01*
X129667000Y-77228700D02*
X131598560Y-77228700D01*
X134593440Y-77228700D02*
X135017001Y-77228700D01*
X152598502Y-77228700D02*
X170053000Y-77228700D01*
X129667000Y-77470000D02*
X131598560Y-77470000D01*
X134593440Y-77470000D02*
X135017001Y-77470000D01*
X152839802Y-77470000D02*
X170053000Y-77470000D01*
X129667000Y-77711300D02*
X131598560Y-77711300D01*
X134593440Y-77711300D02*
X135017001Y-77711300D01*
X153081102Y-77711300D02*
X170053000Y-77711300D01*
X129667000Y-77952600D02*
X131598560Y-77952600D01*
X134593440Y-77952600D02*
X135017001Y-77952600D01*
X153322402Y-77952600D02*
X170053000Y-77952600D01*
X129667000Y-78193900D02*
X131624000Y-78193900D01*
X134567999Y-78193900D02*
X135017001Y-78193900D01*
X138287000Y-78193900D02*
X138340274Y-78193900D01*
X139027725Y-78193900D02*
X150271098Y-78193900D01*
X153563702Y-78193900D02*
X170053000Y-78193900D01*
X129667000Y-78435200D02*
X131728983Y-78435200D01*
X134463016Y-78435200D02*
X135017001Y-78435200D01*
X138287000Y-78435200D02*
X150512398Y-78435200D01*
X153805002Y-78435200D02*
X170053000Y-78435200D01*
X129667000Y-78676500D02*
X132060288Y-78676500D01*
X134131711Y-78676500D02*
X135017001Y-78676500D01*
X138287000Y-78676500D02*
X150753698Y-78676500D01*
X154046302Y-78676500D02*
X170053000Y-78676500D01*
X129667000Y-78917800D02*
X135017001Y-78917800D01*
X138287000Y-78917800D02*
X150994998Y-78917800D01*
X154287602Y-78917800D02*
X170053000Y-78917800D01*
X129667000Y-79159100D02*
X135017001Y-79159100D01*
X138287000Y-79159100D02*
X151236298Y-79159100D01*
X154528902Y-79159100D02*
X170053000Y-79159100D01*
X129667000Y-79400400D02*
X135017001Y-79400400D01*
X138287000Y-79400400D02*
X151477598Y-79400400D01*
X154770202Y-79400400D02*
X170053000Y-79400400D01*
X129667000Y-79641700D02*
X135017001Y-79641700D01*
X138287000Y-79641700D02*
X151718898Y-79641700D01*
X155011502Y-79641700D02*
X170053000Y-79641700D01*
X129667000Y-79883000D02*
X135017001Y-79883000D01*
X138287000Y-79883000D02*
X151960198Y-79883000D01*
X155252802Y-79883000D02*
X170053000Y-79883000D01*
X129667000Y-80124300D02*
X135017001Y-80124300D01*
X138287000Y-80124300D02*
X152201498Y-80124300D01*
X155494102Y-80124300D02*
X170126859Y-80124300D01*
X129667000Y-80365600D02*
X135017001Y-80365600D01*
X138287000Y-80365600D02*
X152442798Y-80365600D01*
X155735403Y-80365600D02*
X177673000Y-80365600D01*
X129667000Y-80606900D02*
X135017001Y-80606900D01*
X138287000Y-80606900D02*
X152684098Y-80606900D01*
X155976703Y-80606900D02*
X177673000Y-80606900D01*
X129667000Y-80848200D02*
X135017001Y-80848200D01*
X138287000Y-80848200D02*
X152925398Y-80848200D01*
X156218003Y-80848200D02*
X177673000Y-80848200D01*
X129667000Y-81089500D02*
X135017001Y-81089500D01*
X138287000Y-81089500D02*
X153166698Y-81089500D01*
X156459303Y-81089500D02*
X177673000Y-81089500D01*
X129667000Y-81330800D02*
X135017001Y-81330800D01*
X138287000Y-81330800D02*
X153407998Y-81330800D01*
X156700603Y-81330800D02*
X177673000Y-81330800D01*
X129667000Y-81572100D02*
X135017001Y-81572100D01*
X138287000Y-81572100D02*
X153649298Y-81572100D01*
X156941903Y-81572100D02*
X177673000Y-81572100D01*
X129667000Y-81813400D02*
X135017001Y-81813400D01*
X138287000Y-81813400D02*
X153890598Y-81813400D01*
X157183203Y-81813400D02*
X177673000Y-81813400D01*
X129667000Y-82054700D02*
X135017001Y-82054700D01*
X138287000Y-82054700D02*
X154131898Y-82054700D01*
X157424503Y-82054700D02*
X177673000Y-82054700D01*
X129667000Y-82296000D02*
X135017001Y-82296000D01*
X138287000Y-82296000D02*
X154373198Y-82296000D01*
X157665803Y-82296000D02*
X177673000Y-82296000D01*
X129667000Y-82537300D02*
X135017001Y-82537300D01*
X138287000Y-82537300D02*
X154614497Y-82537300D01*
X157907103Y-82537300D02*
X177673000Y-82537300D01*
X129667000Y-82778600D02*
X135017001Y-82778600D01*
X138287000Y-82778600D02*
X154855797Y-82778600D01*
X158148403Y-82778600D02*
X177673000Y-82778600D01*
X129667000Y-83019900D02*
X135017001Y-83019900D01*
X138287000Y-83019900D02*
X148128782Y-83019900D01*
X149559219Y-83019900D02*
X155097097Y-83019900D01*
X158389703Y-83019900D02*
X177673000Y-83019900D01*
X129667000Y-83261200D02*
X135017001Y-83261200D01*
X138287000Y-83261200D02*
X147770820Y-83261200D01*
X149917181Y-83261200D02*
X155338397Y-83261200D01*
X158631003Y-83261200D02*
X177673000Y-83261200D01*
X129667000Y-83502500D02*
X135017001Y-83502500D01*
X138287000Y-83502500D02*
X147609588Y-83502500D01*
X150078413Y-83502500D02*
X155579697Y-83502500D01*
X158872303Y-83502500D02*
X177673000Y-83502500D01*
X129667000Y-83743800D02*
X135017001Y-83743800D01*
X138287000Y-83743800D02*
X147448357Y-83743800D01*
X150239644Y-83743800D02*
X155820997Y-83743800D01*
X159113603Y-83743800D02*
X177673000Y-83743800D01*
X129667000Y-83985100D02*
X135017001Y-83985100D01*
X138287000Y-83985100D02*
X147398115Y-83985100D01*
X150289886Y-83985100D02*
X156062297Y-83985100D01*
X159354903Y-83985100D02*
X177673000Y-83985100D01*
X129667000Y-84226400D02*
X135017001Y-84226400D01*
X138287000Y-84226400D02*
X147350118Y-84226400D01*
X150337883Y-84226400D02*
X156303597Y-84226400D01*
X159596203Y-84226400D02*
X177673000Y-84226400D01*
X129667000Y-84467700D02*
X135017001Y-84467700D01*
X138287000Y-84467700D02*
X147357695Y-84467700D01*
X150330304Y-84467700D02*
X156544897Y-84467700D01*
X159837503Y-84467700D02*
X177673000Y-84467700D01*
X129667000Y-84709000D02*
X135017001Y-84709000D01*
X138287000Y-84709000D02*
X147405693Y-84709000D01*
X150282306Y-84709000D02*
X156786197Y-84709000D01*
X160078803Y-84709000D02*
X177673000Y-84709000D01*
X129667000Y-84950300D02*
X135017001Y-84950300D01*
X138287000Y-84950300D02*
X147473813Y-84950300D01*
X150214186Y-84950300D02*
X157027497Y-84950300D01*
X160320103Y-84950300D02*
X177673000Y-84950300D01*
X129667000Y-85191600D02*
X135017001Y-85191600D01*
X138287000Y-85191600D02*
X147635045Y-85191600D01*
X150052954Y-85191600D02*
X157268797Y-85191600D01*
X160561403Y-85191600D02*
X171929713Y-85191600D01*
X173510287Y-85191600D02*
X177673000Y-85191600D01*
X129667000Y-85432900D02*
X135017001Y-85432900D01*
X138287000Y-85432900D02*
X147824671Y-85432900D01*
X149863328Y-85432900D02*
X157510097Y-85432900D01*
X160802703Y-85432900D02*
X171688413Y-85432900D01*
X173751587Y-85432900D02*
X177673000Y-85432900D01*
X129667000Y-85674200D02*
X135017001Y-85674200D01*
X138287000Y-85674200D02*
X147957720Y-85674200D01*
X149730281Y-85674200D02*
X157751397Y-85674200D01*
X161044003Y-85674200D02*
X171504954Y-85674200D01*
X173935047Y-85674200D02*
X177673000Y-85674200D01*
X129667000Y-85915500D02*
X135017001Y-85915500D01*
X138287000Y-85915500D02*
X147694447Y-85915500D01*
X149993554Y-85915500D02*
X157992697Y-85915500D01*
X161285303Y-85915500D02*
X171405005Y-85915500D01*
X174034996Y-85915500D02*
X177673000Y-85915500D01*
X129667000Y-86156800D02*
X135017001Y-86156800D01*
X138287000Y-86156800D02*
X147533215Y-86156800D01*
X150154786Y-86156800D02*
X158233997Y-86156800D01*
X161915511Y-86156800D02*
X171335000Y-86156800D01*
X174105000Y-86156800D02*
X177673000Y-86156800D01*
X129667000Y-86398100D02*
X135017001Y-86398100D01*
X138287000Y-86398100D02*
X147423377Y-86398100D01*
X150264624Y-86398100D02*
X158475297Y-86398100D01*
X162156811Y-86398100D02*
X171335000Y-86398100D01*
X174105000Y-86398100D02*
X177673000Y-86398100D01*
X129667000Y-86639400D02*
X135017001Y-86639400D01*
X138287000Y-86639400D02*
X147375380Y-86639400D01*
X150312621Y-86639400D02*
X158716597Y-86639400D01*
X162262982Y-86639400D02*
X171336617Y-86639400D01*
X174103382Y-86639400D02*
X177673000Y-86639400D01*
X129667000Y-86880700D02*
X135017001Y-86880700D01*
X138287000Y-86880700D02*
X147332434Y-86880700D01*
X150355565Y-86880700D02*
X158957897Y-86880700D01*
X162325000Y-86880700D02*
X171436567Y-86880700D01*
X174003432Y-86880700D02*
X177673000Y-86880700D01*
X129667000Y-87122000D02*
X135017001Y-87122000D01*
X138287000Y-87122000D02*
X147380431Y-87122000D01*
X150307568Y-87122000D02*
X159110145Y-87122000D01*
X162325000Y-87122000D02*
X171536516Y-87122000D01*
X173903483Y-87122000D02*
X177673000Y-87122000D01*
X129667000Y-87363300D02*
X135017001Y-87363300D01*
X138287000Y-87363300D02*
X147428428Y-87363300D01*
X150259571Y-87363300D02*
X159010195Y-87363300D01*
X162257721Y-87363300D02*
X171764613Y-87363300D01*
X173675387Y-87363300D02*
X177673000Y-87363300D01*
X129667000Y-87604600D02*
X135017001Y-87604600D01*
X138287000Y-87604600D02*
X147550186Y-87604600D01*
X150137813Y-87604600D02*
X158985000Y-87604600D01*
X162144111Y-87604600D02*
X172105549Y-87604600D01*
X173334450Y-87604600D02*
X177673000Y-87604600D01*
X129667000Y-87845900D02*
X135017001Y-87845900D01*
X138287000Y-87845900D02*
X147711418Y-87845900D01*
X149976581Y-87845900D02*
X158989152Y-87845900D01*
X162050000Y-87845900D02*
X177673000Y-87845900D01*
X129667000Y-88087200D02*
X135017001Y-88087200D01*
X138287000Y-88087200D02*
X147995733Y-88087200D01*
X149692266Y-88087200D02*
X159089102Y-88087200D01*
X162050000Y-88087200D02*
X177673000Y-88087200D01*
X129667000Y-88328500D02*
X135017001Y-88328500D01*
X138392739Y-88328500D02*
X148574573Y-88328500D01*
X149113426Y-88328500D02*
X159254789Y-88328500D01*
X162050000Y-88328500D02*
X177673000Y-88328500D01*
X129667000Y-88569800D02*
X135017001Y-88569800D01*
X138634039Y-88569800D02*
X159260000Y-88569800D01*
X162050000Y-88569800D02*
X177673000Y-88569800D01*
X129667000Y-88811100D02*
X135002653Y-88811100D01*
X138875339Y-88811100D02*
X159260000Y-88811100D01*
X162050000Y-88811100D02*
X177673000Y-88811100D01*
X129667000Y-89052400D02*
X135015283Y-89052400D01*
X139116639Y-89052400D02*
X159260000Y-89052400D01*
X162050000Y-89052400D02*
X177673000Y-89052400D01*
X129667000Y-89293700D02*
X135063280Y-89293700D01*
X139357939Y-89293700D02*
X159260000Y-89293700D01*
X162050000Y-89293700D02*
X177673000Y-89293700D01*
X129667000Y-89535000D02*
X135111278Y-89535000D01*
X139599239Y-89535000D02*
X155905651Y-89535000D01*
X157022350Y-89535000D02*
X159260000Y-89535000D01*
X162050000Y-89535000D02*
X177673000Y-89535000D01*
X129667000Y-89776300D02*
X135271128Y-89776300D01*
X139840539Y-89776300D02*
X155647989Y-89776300D01*
X157280011Y-89776300D02*
X159260000Y-89776300D01*
X162050000Y-89776300D02*
X177673000Y-89776300D01*
X129667000Y-90017600D02*
X135432359Y-90017600D01*
X140081839Y-90017600D02*
X155512061Y-90017600D01*
X157415940Y-90017600D02*
X159260000Y-90017600D01*
X162050000Y-90017600D02*
X172051954Y-90017600D01*
X173388047Y-90017600D02*
X177673000Y-90017600D01*
X129667000Y-90258900D02*
X135698661Y-90258900D01*
X140323139Y-90258900D02*
X155429000Y-90258900D01*
X157499000Y-90258900D02*
X159260000Y-90258900D01*
X162050000Y-90258900D02*
X171742413Y-90258900D01*
X173697587Y-90258900D02*
X177673000Y-90258900D01*
X129667000Y-90500200D02*
X135939961Y-90500200D01*
X140564439Y-90500200D02*
X155429000Y-90500200D01*
X157499000Y-90500200D02*
X159260000Y-90500200D01*
X162050000Y-90500200D02*
X171527322Y-90500200D01*
X173912679Y-90500200D02*
X177673000Y-90500200D01*
X129667000Y-90741500D02*
X136181261Y-90741500D01*
X140805739Y-90741500D02*
X155475236Y-90741500D01*
X157452763Y-90741500D02*
X159260000Y-90741500D01*
X162050000Y-90741500D02*
X171427372Y-90741500D01*
X174012629Y-90741500D02*
X177673000Y-90741500D01*
X129667000Y-90982800D02*
X136422561Y-90982800D01*
X141047039Y-90982800D02*
X155575186Y-90982800D01*
X157352813Y-90982800D02*
X159260000Y-90982800D01*
X162050000Y-90982800D02*
X171335000Y-90982800D01*
X174105000Y-90982800D02*
X177673000Y-90982800D01*
X129667000Y-91224100D02*
X136663861Y-91224100D01*
X141288339Y-91224100D02*
X155704001Y-91224100D01*
X157224000Y-91224100D02*
X159260000Y-91224100D01*
X162050000Y-91224100D02*
X171335000Y-91224100D01*
X174105000Y-91224100D02*
X177673000Y-91224100D01*
X129667000Y-91465400D02*
X136905161Y-91465400D01*
X141529639Y-91465400D02*
X155704001Y-91465400D01*
X157224000Y-91465400D02*
X159260000Y-91465400D01*
X162050000Y-91465400D02*
X171335000Y-91465400D01*
X174105000Y-91465400D02*
X177673000Y-91465400D01*
X129667000Y-91706700D02*
X137146461Y-91706700D01*
X141770939Y-91706700D02*
X155704001Y-91706700D01*
X157224000Y-91706700D02*
X159260000Y-91706700D01*
X162050000Y-91706700D02*
X171414199Y-91706700D01*
X174025800Y-91706700D02*
X177673000Y-91706700D01*
X129667000Y-91948000D02*
X137387761Y-91948000D01*
X142012239Y-91948000D02*
X155704001Y-91948000D01*
X157224000Y-91948000D02*
X159260000Y-91948000D01*
X162050000Y-91948000D02*
X171514149Y-91948000D01*
X173925850Y-91948000D02*
X177673000Y-91948000D01*
X129667000Y-92189300D02*
X137629061Y-92189300D01*
X143948585Y-92189300D02*
X155704001Y-92189300D01*
X157224000Y-92189300D02*
X159260000Y-92189300D01*
X162050000Y-92189300D02*
X171710613Y-92189300D01*
X173729387Y-92189300D02*
X177673000Y-92189300D01*
X129667000Y-92430600D02*
X137870361Y-92430600D01*
X144137065Y-92430600D02*
X155704001Y-92430600D01*
X157224000Y-92430600D02*
X159260000Y-92430600D01*
X162050000Y-92430600D02*
X171975181Y-92430600D01*
X173464818Y-92430600D02*
X177673000Y-92430600D01*
X129667000Y-92671900D02*
X138111661Y-92671900D01*
X144185829Y-92671900D02*
X155704001Y-92671900D01*
X157224000Y-92671900D02*
X159260000Y-92671900D01*
X162050000Y-92671900D02*
X177673000Y-92671900D01*
X129667000Y-92913200D02*
X138352961Y-92913200D01*
X144187440Y-92913200D02*
X155704001Y-92913200D01*
X157224000Y-92913200D02*
X159260000Y-92913200D01*
X162050000Y-92913200D02*
X177673000Y-92913200D01*
X129667000Y-93154500D02*
X138594261Y-93154500D01*
X144187440Y-93154500D02*
X155704001Y-93154500D01*
X157224000Y-93154500D02*
X159260000Y-93154500D01*
X162050000Y-93154500D02*
X177673000Y-93154500D01*
X129667000Y-93395800D02*
X138835561Y-93395800D01*
X144187440Y-93395800D02*
X155704001Y-93395800D01*
X157224000Y-93395800D02*
X159260000Y-93395800D01*
X162050000Y-93395800D02*
X177673000Y-93395800D01*
X129667000Y-93637100D02*
X139076861Y-93637100D01*
X144187440Y-93637100D02*
X155704001Y-93637100D01*
X157224000Y-93637100D02*
X159260000Y-93637100D01*
X162050000Y-93637100D02*
X165391275Y-93637100D01*
X166078726Y-93637100D02*
X177673000Y-93637100D01*
X129667000Y-93878400D02*
X139318161Y-93878400D01*
X144187440Y-93878400D02*
X155704001Y-93878400D01*
X157224000Y-93878400D02*
X159260000Y-93878400D01*
X162263202Y-93878400D02*
X165007889Y-93878400D01*
X166462111Y-93878400D02*
X177673000Y-93878400D01*
X129667000Y-94119700D02*
X139559461Y-94119700D01*
X144187440Y-94119700D02*
X155704001Y-94119700D01*
X157224000Y-94119700D02*
X159260000Y-94119700D01*
X162504502Y-94119700D02*
X164819884Y-94119700D01*
X166650117Y-94119700D02*
X177673000Y-94119700D01*
X129667000Y-94361000D02*
X139800761Y-94361000D01*
X144187440Y-94361000D02*
X155635289Y-94361000D01*
X157292711Y-94361000D02*
X159260000Y-94361000D01*
X163118350Y-94361000D02*
X164719935Y-94361000D01*
X166750066Y-94361000D02*
X177673000Y-94361000D01*
X129667000Y-94602300D02*
X140042061Y-94602300D01*
X144187440Y-94602300D02*
X155506800Y-94602300D01*
X157421201Y-94602300D02*
X159247639Y-94602300D01*
X163376011Y-94602300D02*
X164700000Y-94602300D01*
X166770000Y-94602300D02*
X177673000Y-94602300D01*
X129667000Y-94843600D02*
X140283361Y-94843600D01*
X144187440Y-94843600D02*
X155429000Y-94843600D01*
X157499000Y-94843600D02*
X159290583Y-94843600D01*
X163511940Y-94843600D02*
X164709413Y-94843600D01*
X166760586Y-94843600D02*
X177673000Y-94843600D01*
X129667000Y-95084900D02*
X140292560Y-95084900D01*
X144187440Y-95084900D02*
X155429000Y-95084900D01*
X157499000Y-95084900D02*
X159419934Y-95084900D01*
X163595000Y-95084900D02*
X164809362Y-95084900D01*
X166660637Y-95084900D02*
X177673000Y-95084900D01*
X129667000Y-95326200D02*
X140301749Y-95326200D01*
X144178250Y-95326200D02*
X155480497Y-95326200D01*
X157447502Y-95326200D02*
X159656398Y-95326200D01*
X163595000Y-95326200D02*
X164975001Y-95326200D01*
X166495000Y-95326200D02*
X177673000Y-95326200D01*
X129667000Y-95567500D02*
X140368393Y-95567500D01*
X144111606Y-95567500D02*
X155580446Y-95567500D01*
X157347553Y-95567500D02*
X159897698Y-95567500D01*
X163548763Y-95567500D02*
X164975001Y-95567500D01*
X166495000Y-95567500D02*
X177673000Y-95567500D01*
X129667000Y-95808800D02*
X140588435Y-95808800D01*
X143891564Y-95808800D02*
X155813089Y-95808800D01*
X157114911Y-95808800D02*
X160138998Y-95808800D01*
X163448813Y-95808800D02*
X164736398Y-95808800D01*
X166495000Y-95808800D02*
X177673000Y-95808800D01*
X129667000Y-96050100D02*
X160380298Y-96050100D01*
X163223611Y-96050100D02*
X164495098Y-96050100D01*
X166477048Y-96050100D02*
X177673000Y-96050100D01*
X129667000Y-96291400D02*
X160621597Y-96291400D01*
X163160111Y-96291400D02*
X164253798Y-96291400D01*
X166377496Y-96291400D02*
X177673000Y-96291400D01*
X129667000Y-96532700D02*
X160862897Y-96532700D01*
X163401411Y-96532700D02*
X164012498Y-96532700D01*
X166162102Y-96532700D02*
X177673000Y-96532700D01*
X129667000Y-96774000D02*
X161104197Y-96774000D01*
X163522461Y-96774000D02*
X163771198Y-96774000D01*
X165920802Y-96774000D02*
X177673000Y-96774000D01*
X129667000Y-97015300D02*
X161345497Y-97015300D01*
X165679502Y-97015300D02*
X177673000Y-97015300D01*
X129667000Y-97256600D02*
X161525000Y-97256600D01*
X165438202Y-97256600D02*
X177673000Y-97256600D01*
X129667000Y-97497900D02*
X159448632Y-97497900D01*
X160381369Y-97497900D02*
X161581757Y-97497900D01*
X165196902Y-97497900D02*
X177673000Y-97497900D01*
X129667000Y-97739200D02*
X159137089Y-97739200D01*
X164955601Y-97739200D02*
X177673000Y-97739200D01*
X129667000Y-97980500D02*
X158978842Y-97980500D01*
X164714301Y-97980500D02*
X177673000Y-97980500D01*
X129667000Y-98221800D02*
X158880000Y-98221800D01*
X164473001Y-98221800D02*
X177673000Y-98221800D01*
X129667000Y-98463100D02*
X158880000Y-98463100D01*
X164231701Y-98463100D02*
X177673000Y-98463100D01*
X129667000Y-98704400D02*
X158910455Y-98704400D01*
X163990401Y-98704400D02*
X177673000Y-98704400D01*
X129667000Y-98945700D02*
X159010404Y-98945700D01*
X163761122Y-98945700D02*
X177673000Y-98945700D01*
X129667000Y-99187000D02*
X159213289Y-99187000D01*
X160616711Y-99187000D02*
X163130207Y-99187000D01*
X163259792Y-99187000D02*
X177673000Y-99187000D01*
X129667000Y-99428300D02*
X159632595Y-99428300D01*
X160197404Y-99428300D02*
X177673000Y-99428300D01*
X129667000Y-99669600D02*
X177673000Y-99669600D01*
X129667000Y-99910900D02*
X177673000Y-99910900D01*
X129667000Y-100152200D02*
X177673000Y-100152200D01*
X129667000Y-100393500D02*
X177673000Y-100393500D01*
X129667000Y-100634800D02*
X177673000Y-100634800D01*
X129667000Y-100876100D02*
X130983664Y-100876100D01*
X133176337Y-100876100D02*
X174163664Y-100876100D01*
X176356337Y-100876100D02*
X177673000Y-100876100D01*
X129667000Y-101117400D02*
X130401114Y-101117400D01*
X133758887Y-101117400D02*
X173581114Y-101117400D01*
X176938887Y-101117400D02*
X177673000Y-101117400D01*
X129667000Y-101358700D02*
X130003476Y-101358700D01*
X134156524Y-101358700D02*
X173183476Y-101358700D01*
X177336524Y-101358700D02*
X177673000Y-101358700D01*
X129667000Y-101600000D02*
X129762176Y-101600000D01*
X134397824Y-101600000D02*
X172942176Y-101600000D01*
X177577824Y-101600000D02*
X177673000Y-101600000D01*
X134639124Y-101841300D02*
X172700876Y-101841300D01*
X134880424Y-102082600D02*
X163251680Y-102082600D01*
X164299322Y-102082600D02*
X172459576Y-102082600D01*
X135045765Y-102323900D02*
X163034646Y-102323900D01*
X164545355Y-102323900D02*
X172294236Y-102323900D01*
X135145715Y-102565200D02*
X163189805Y-102565200D01*
X164390195Y-102565200D02*
X172194286Y-102565200D01*
X135245665Y-102806500D02*
X162537930Y-102806500D01*
X163071895Y-102806500D02*
X163431105Y-102806500D01*
X164148895Y-102806500D02*
X164508105Y-102806500D01*
X165052326Y-102806500D02*
X172094337Y-102806500D01*
X135345614Y-103047800D02*
X162452505Y-103047800D01*
X163313195Y-103047800D02*
X163672405Y-103047800D01*
X163907595Y-103047800D02*
X164266805Y-103047800D01*
X165136272Y-103047800D02*
X171994387Y-103047800D01*
X135445564Y-103289100D02*
X162425192Y-103289100D01*
X163554495Y-103289100D02*
X164025505Y-103289100D01*
X165148939Y-103289100D02*
X171894438Y-103289100D01*
X135515000Y-103530400D02*
X162437859Y-103530400D01*
X163424995Y-103530400D02*
X163784205Y-103530400D01*
X163795795Y-103530400D02*
X164155005Y-103530400D01*
X165161606Y-103530400D02*
X171825000Y-103530400D01*
X135515000Y-103771700D02*
X162481365Y-103771700D01*
X163183695Y-103771700D02*
X163542905Y-103771700D01*
X164037095Y-103771700D02*
X164396305Y-103771700D01*
X165081649Y-103771700D02*
X171825000Y-103771700D01*
X135515000Y-104013000D02*
X162581314Y-104013000D01*
X162942395Y-104013000D02*
X163301605Y-104013000D01*
X164278395Y-104013000D02*
X164637605Y-104013000D01*
X164996224Y-104013000D02*
X171825000Y-104013000D01*
X135515000Y-104254300D02*
X163060305Y-104254300D01*
X164519695Y-104254300D02*
X171825000Y-104254300D01*
X135515000Y-104495600D02*
X157489393Y-104495600D01*
X158090609Y-104495600D02*
X163069914Y-104495600D01*
X165090608Y-104495600D02*
X171825000Y-104495600D01*
X135515000Y-104736900D02*
X157000959Y-104736900D01*
X158579043Y-104736900D02*
X164000958Y-104736900D01*
X165579043Y-104736900D02*
X171825000Y-104736900D01*
X135450823Y-104978200D02*
X156783630Y-104978200D01*
X158796371Y-104978200D02*
X163783630Y-104978200D01*
X165796371Y-104978200D02*
X171889176Y-104978200D01*
X135350873Y-105219500D02*
X156625389Y-105219500D01*
X158954612Y-105219500D02*
X163625389Y-105219500D01*
X165954612Y-105219500D02*
X171989126Y-105219500D01*
X135250924Y-105460800D02*
X156577391Y-105460800D01*
X159002610Y-105460800D02*
X163577391Y-105460800D01*
X166002610Y-105460800D02*
X172089075Y-105460800D01*
X135150974Y-105702100D02*
X156555000Y-105702100D01*
X159025000Y-105702100D02*
X163555000Y-105702100D01*
X166025000Y-105702100D02*
X172189025Y-105702100D01*
X135051024Y-105943400D02*
X156555000Y-105943400D01*
X159025000Y-105943400D02*
X163555000Y-105943400D01*
X166025000Y-105943400D02*
X172288975Y-105943400D01*
X134893124Y-106184700D02*
X156555000Y-106184700D01*
X159025000Y-106184700D02*
X163555000Y-106184700D01*
X166025000Y-106184700D02*
X172446876Y-106184700D01*
X134651824Y-106426000D02*
X156555000Y-106426000D01*
X159025000Y-106426000D02*
X163555000Y-106426000D01*
X166025000Y-106426000D02*
X172688176Y-106426000D01*
X177673000Y-31654824D02*
X177673000Y-60833000D01*
X177673000Y-80137000D02*
X177673000Y-101695176D01*
X177431700Y-31896124D02*
X177431700Y-60833000D01*
X177431700Y-80137000D02*
X177431700Y-101453876D01*
X177190400Y-32128420D02*
X177190400Y-60833000D01*
X177190400Y-80137000D02*
X177190400Y-101221581D01*
X176949100Y-32228370D02*
X176949100Y-60833000D01*
X176949100Y-80137000D02*
X176949100Y-101121631D01*
X176707800Y-32328320D02*
X176707800Y-60833000D01*
X176707800Y-80137000D02*
X176707800Y-101021681D01*
X176466500Y-32428269D02*
X176466500Y-60833000D01*
X176466500Y-80137000D02*
X176466500Y-100921732D01*
X176225200Y-32528219D02*
X176225200Y-60833000D01*
X176225200Y-80137000D02*
X176225200Y-100821782D01*
X175983900Y-32628169D02*
X175983900Y-60833000D01*
X175983900Y-80137000D02*
X175983900Y-100721832D01*
X175742600Y-32645000D02*
X175742600Y-60833000D01*
X175742600Y-80137000D02*
X175742600Y-100705000D01*
X175501300Y-32645000D02*
X175501300Y-60833000D01*
X175501300Y-80137000D02*
X175501300Y-100705000D01*
X175260000Y-32645000D02*
X175260000Y-60833000D01*
X175260000Y-80137000D02*
X175260000Y-100705000D01*
X175018700Y-32645000D02*
X175018700Y-60833000D01*
X175018700Y-80137000D02*
X175018700Y-100705000D01*
X174777400Y-32645000D02*
X174777400Y-60833000D01*
X174777400Y-80137000D02*
X174777400Y-100705000D01*
X174536100Y-32628168D02*
X174536100Y-60833000D01*
X174536100Y-80137000D02*
X174536100Y-100721831D01*
X174294800Y-32528218D02*
X174294800Y-60833000D01*
X174294800Y-80137000D02*
X174294800Y-100821781D01*
X174053500Y-32428268D02*
X174053500Y-60833000D01*
X174053500Y-80137000D02*
X174053500Y-85960174D01*
X174053500Y-86759827D02*
X174053500Y-90840174D01*
X174053500Y-91639827D02*
X174053500Y-100921731D01*
X173812200Y-32328319D02*
X173812200Y-60833000D01*
X173812200Y-80137000D02*
X173812200Y-85493513D01*
X173812200Y-87226487D02*
X173812200Y-90373513D01*
X173812200Y-92106487D02*
X173812200Y-101021680D01*
X173570900Y-32228369D02*
X173570900Y-60833000D01*
X173570900Y-80137000D02*
X173570900Y-85252213D01*
X173570900Y-87467787D02*
X173570900Y-90132213D01*
X173570900Y-92347787D02*
X173570900Y-101121630D01*
X173329600Y-32128419D02*
X173329600Y-60833000D01*
X173329600Y-80137000D02*
X173329600Y-85113391D01*
X173329600Y-87606610D02*
X173329600Y-89993391D01*
X173329600Y-92486610D02*
X173329600Y-101221580D01*
X173088300Y-31896124D02*
X173088300Y-60833000D01*
X173088300Y-80137000D02*
X173088300Y-85013442D01*
X173088300Y-87706559D02*
X173088300Y-89893442D01*
X173088300Y-92586559D02*
X173088300Y-101453876D01*
X172847000Y-31654824D02*
X172847000Y-60833000D01*
X172847000Y-80137000D02*
X172847000Y-84975000D01*
X172847000Y-87745000D02*
X172847000Y-89855000D01*
X172847000Y-92625000D02*
X172847000Y-101695176D01*
X172605700Y-26797000D02*
X172605700Y-27006476D01*
X172605700Y-31413524D02*
X172605700Y-60833000D01*
X172605700Y-80137000D02*
X172605700Y-84975000D01*
X172605700Y-87745000D02*
X172605700Y-89855000D01*
X172605700Y-92625000D02*
X172605700Y-101936476D01*
X172605700Y-106343524D02*
X172605700Y-106553000D01*
X172364400Y-26797000D02*
X172364400Y-27247776D01*
X172364400Y-31172224D02*
X172364400Y-60833000D01*
X172364400Y-80137000D02*
X172364400Y-85008180D01*
X172364400Y-87711819D02*
X172364400Y-89888180D01*
X172364400Y-92591819D02*
X172364400Y-102177776D01*
X172364400Y-106102224D02*
X172364400Y-106553000D01*
X172123100Y-26797000D02*
X172123100Y-27807058D01*
X172123100Y-30612941D02*
X172123100Y-60833000D01*
X172123100Y-80137000D02*
X172123100Y-85108130D01*
X172123100Y-87611869D02*
X172123100Y-89988130D01*
X172123100Y-92491869D02*
X172123100Y-102737058D01*
X172123100Y-105542941D02*
X172123100Y-106553000D01*
X171881800Y-26797000D02*
X171881800Y-28389608D01*
X171881800Y-30030391D02*
X171881800Y-60833000D01*
X171881800Y-80137000D02*
X171881800Y-85239513D01*
X171881800Y-87480487D02*
X171881800Y-90119513D01*
X171881800Y-92360487D02*
X171881800Y-103319608D01*
X171881800Y-104960391D02*
X171881800Y-106553000D01*
X171640500Y-26797000D02*
X171640500Y-60833000D01*
X171640500Y-80137000D02*
X171640500Y-85480813D01*
X171640500Y-87239187D02*
X171640500Y-90360813D01*
X171640500Y-92119187D02*
X171640500Y-106553000D01*
X171399200Y-26797000D02*
X171399200Y-60833000D01*
X171399200Y-80137000D02*
X171399200Y-85929512D01*
X171399200Y-86790487D02*
X171399200Y-90809512D01*
X171399200Y-91670487D02*
X171399200Y-106553000D01*
X171157900Y-26797000D02*
X171157900Y-60833000D01*
X171157900Y-80137000D02*
X171157900Y-86084506D01*
X171157900Y-86084506D02*
X171157900Y-90964506D01*
X171157900Y-90964506D02*
X171157900Y-106553000D01*
X170916600Y-26797000D02*
X170916600Y-60833000D01*
X170916600Y-80137000D02*
X170916600Y-86084506D01*
X170916600Y-86084506D02*
X170916600Y-90964506D01*
X170916600Y-90964506D02*
X170916600Y-106553000D01*
X170675300Y-26797000D02*
X170675300Y-60833000D01*
X170675300Y-80137000D02*
X170675300Y-86084506D01*
X170675300Y-86084506D02*
X170675300Y-90964506D01*
X170675300Y-90964506D02*
X170675300Y-106553000D01*
X170434000Y-26797000D02*
X170434000Y-60833000D01*
X170434000Y-80137000D02*
X170434000Y-86084506D01*
X170434000Y-86084506D02*
X170434000Y-90964506D01*
X170434000Y-90964506D02*
X170434000Y-106553000D01*
X170192700Y-26797000D02*
X170192700Y-60833000D01*
X170192700Y-80137000D02*
X170192700Y-86084506D01*
X170192700Y-86084506D02*
X170192700Y-90964506D01*
X170192700Y-90964506D02*
X170192700Y-106553000D01*
X169951400Y-26797000D02*
X169951400Y-86084506D01*
X169951400Y-86084506D02*
X169951400Y-90964506D01*
X169951400Y-90964506D02*
X169951400Y-106553000D01*
X169710100Y-26797000D02*
X169710100Y-86084506D01*
X169710100Y-86084506D02*
X169710100Y-90964506D01*
X169710100Y-90964506D02*
X169710100Y-106553000D01*
X169468800Y-26797000D02*
X169468800Y-86084506D01*
X169468800Y-86084506D02*
X169468800Y-90964506D01*
X169468800Y-90964506D02*
X169468800Y-106553000D01*
X169227500Y-26797000D02*
X169227500Y-86084506D01*
X169227500Y-86084506D02*
X169227500Y-90964506D01*
X169227500Y-90964506D02*
X169227500Y-106553000D01*
X168986200Y-26797000D02*
X168986200Y-86084506D01*
X168986200Y-86084506D02*
X168986200Y-90964506D01*
X168986200Y-90964506D02*
X168986200Y-106553000D01*
X168744900Y-26797000D02*
X168744900Y-86084506D01*
X168744900Y-86084506D02*
X168744900Y-90964506D01*
X168744900Y-90964506D02*
X168744900Y-106553000D01*
X168503600Y-26797000D02*
X168503600Y-86084506D01*
X168503600Y-86084506D02*
X168503600Y-90964506D01*
X168503600Y-90964506D02*
X168503600Y-106553000D01*
X168262300Y-26797000D02*
X168262300Y-86084506D01*
X168262300Y-86084506D02*
X168262300Y-90964506D01*
X168262300Y-90964506D02*
X168262300Y-106553000D01*
X168021000Y-26797000D02*
X168021000Y-86084506D01*
X168021000Y-86084506D02*
X168021000Y-90964506D01*
X168021000Y-90964506D02*
X168021000Y-106553000D01*
X167779700Y-26797000D02*
X167779700Y-86084506D01*
X167779700Y-86084506D02*
X167779700Y-90964506D01*
X167779700Y-90964506D02*
X167779700Y-106553000D01*
X167538400Y-26797000D02*
X167538400Y-86084506D01*
X167538400Y-86084506D02*
X167538400Y-90964506D01*
X167538400Y-90964506D02*
X167538400Y-106553000D01*
X167297100Y-26797000D02*
X167297100Y-86084506D01*
X167297100Y-86084506D02*
X167297100Y-90964506D01*
X167297100Y-90964506D02*
X167297100Y-106553000D01*
X167055800Y-26797000D02*
X167055800Y-86084506D01*
X167055800Y-86084506D02*
X167055800Y-90964506D01*
X167055800Y-90964506D02*
X167055800Y-106553000D01*
X166814500Y-26797000D02*
X166814500Y-86084506D01*
X166814500Y-86084506D02*
X166814500Y-90964506D01*
X166814500Y-90964506D02*
X166814500Y-106553000D01*
X166573200Y-26797000D02*
X166573200Y-86084506D01*
X166573200Y-86084506D02*
X166573200Y-90964506D01*
X166573200Y-90964506D02*
X166573200Y-93989489D01*
X166573200Y-95240511D02*
X166573200Y-106553000D01*
X166331900Y-26797000D02*
X166331900Y-86084506D01*
X166331900Y-86084506D02*
X166331900Y-90964506D01*
X166331900Y-90964506D02*
X166331900Y-93748189D01*
X166331900Y-96359640D02*
X166331900Y-106553000D01*
X166090600Y-26797000D02*
X166090600Y-86084506D01*
X166090600Y-86084506D02*
X166090600Y-90964506D01*
X166090600Y-90964506D02*
X166090600Y-93642019D01*
X166090600Y-96604203D02*
X166090600Y-106553000D01*
X165849300Y-26797000D02*
X165849300Y-86084506D01*
X165849300Y-86084506D02*
X165849300Y-90964506D01*
X165849300Y-90964506D02*
X165849300Y-93580000D01*
X165849300Y-96845503D02*
X165849300Y-105057415D01*
X165608000Y-26797000D02*
X165608000Y-86084506D01*
X165608000Y-86084506D02*
X165608000Y-90964506D01*
X165608000Y-90964506D02*
X165608000Y-93580000D01*
X165608000Y-97086803D02*
X165608000Y-104756250D01*
X165366700Y-26797000D02*
X165366700Y-86084506D01*
X165366700Y-86084506D02*
X165366700Y-90964506D01*
X165366700Y-90964506D02*
X165366700Y-93647278D01*
X165366700Y-97328103D02*
X165366700Y-104595018D01*
X165125400Y-26797000D02*
X165125400Y-86084506D01*
X165125400Y-86084506D02*
X165125400Y-90964506D01*
X165125400Y-90964506D02*
X165125400Y-93760889D01*
X165125400Y-97569403D02*
X165125400Y-102982917D01*
X165125400Y-103648120D02*
X165125400Y-104502521D01*
X164884100Y-26797000D02*
X164884100Y-86084506D01*
X164884100Y-86084506D02*
X164884100Y-90964506D01*
X164884100Y-90964506D02*
X164884100Y-94002189D01*
X164884100Y-95227811D02*
X164884100Y-95661097D01*
X164884100Y-97810702D02*
X164884100Y-102609527D01*
X164884100Y-104080474D02*
X164884100Y-104454523D01*
X164642800Y-26797000D02*
X164642800Y-86084506D01*
X164642800Y-86084506D02*
X164642800Y-90964506D01*
X164642800Y-90964506D02*
X164642800Y-95902397D01*
X164642800Y-98052002D02*
X164642800Y-102671805D01*
X164642800Y-104018195D02*
X164642800Y-104465085D01*
X164401500Y-26797000D02*
X164401500Y-86084506D01*
X164401500Y-86084506D02*
X164401500Y-90964506D01*
X164401500Y-90964506D02*
X164401500Y-96143697D01*
X164401500Y-98293302D02*
X164401500Y-102118774D01*
X164401500Y-102553895D02*
X164401500Y-102913105D01*
X164401500Y-103776895D02*
X164401500Y-104136105D01*
X164160200Y-26797000D02*
X164160200Y-86084506D01*
X164160200Y-86084506D02*
X164160200Y-90964506D01*
X164160200Y-90964506D02*
X164160200Y-96384997D01*
X164160200Y-98534602D02*
X164160200Y-102033349D01*
X164160200Y-102795195D02*
X164160200Y-103154405D01*
X164160200Y-103535595D02*
X164160200Y-103894805D01*
X163918900Y-26797000D02*
X163918900Y-86084506D01*
X163918900Y-86084506D02*
X163918900Y-90964506D01*
X163918900Y-90964506D02*
X163918900Y-96626297D01*
X163918900Y-98775902D02*
X163918900Y-101976360D01*
X163918900Y-103036495D02*
X163918900Y-103345000D01*
X163918900Y-103345000D02*
X163918900Y-103653505D01*
X163918900Y-104700107D02*
X163918900Y-104791729D01*
X163677600Y-26797000D02*
X163677600Y-32083943D01*
X163677600Y-32940058D02*
X163677600Y-86084506D01*
X163677600Y-86084506D02*
X163677600Y-90964506D01*
X163677600Y-90964506D02*
X163677600Y-96867597D01*
X163677600Y-99016581D02*
X163677600Y-101989027D01*
X163677600Y-103052995D02*
X163677600Y-103345000D01*
X163677600Y-103345000D02*
X163677600Y-103637005D01*
X163677600Y-104712774D02*
X163677600Y-105136884D01*
X163436300Y-26797000D02*
X163436300Y-31501392D01*
X163436300Y-33522609D02*
X163436300Y-86084506D01*
X163436300Y-86084506D02*
X163436300Y-90964506D01*
X163436300Y-90964506D02*
X163436300Y-94662589D01*
X163436300Y-95837411D02*
X163436300Y-96567589D01*
X163436300Y-99151892D02*
X163436300Y-102006127D01*
X163436300Y-102811695D02*
X163436300Y-103170905D01*
X163436300Y-103519095D02*
X163436300Y-103878305D01*
X163436300Y-104662493D02*
X163436300Y-106553000D01*
X163195000Y-26797000D02*
X163195000Y-31143654D01*
X163195000Y-33880346D02*
X163195000Y-86084506D01*
X163195000Y-86084506D02*
X163195000Y-90964506D01*
X163195000Y-90964506D02*
X163195000Y-94421289D01*
X163195000Y-96078711D02*
X163195000Y-96326289D01*
X163195000Y-99199888D02*
X163195000Y-102106077D01*
X163195000Y-102570395D02*
X163195000Y-102929605D01*
X163195000Y-103760395D02*
X163195000Y-104119605D01*
X163195000Y-104577068D02*
X163195000Y-106553000D01*
X162953700Y-26797000D02*
X162953700Y-30902354D01*
X162953700Y-34121646D02*
X162953700Y-86084506D01*
X162953700Y-86084506D02*
X162953700Y-90964506D01*
X162953700Y-90964506D02*
X162953700Y-94292800D01*
X162953700Y-99185000D02*
X162953700Y-102391602D01*
X162953700Y-102391602D02*
X162953700Y-102688305D01*
X162953700Y-104001695D02*
X162953700Y-106553000D01*
X162712400Y-26797000D02*
X162712400Y-30685060D01*
X162712400Y-34338941D02*
X162712400Y-86084506D01*
X162712400Y-86084506D02*
X162712400Y-90964506D01*
X162712400Y-90964506D02*
X162712400Y-94215000D01*
X162712400Y-99185000D02*
X162712400Y-102391602D01*
X162712400Y-102391602D02*
X162712400Y-102605032D01*
X162712400Y-104084967D02*
X162712400Y-106553000D01*
X162471100Y-26797000D02*
X162471100Y-30585110D01*
X162471100Y-34438891D02*
X162471100Y-86084506D01*
X162471100Y-86084506D02*
X162471100Y-90964506D01*
X162471100Y-90964506D02*
X162471100Y-94086299D01*
X162471100Y-99185000D02*
X162471100Y-102391602D01*
X162471100Y-102391602D02*
X162471100Y-102995273D01*
X162471100Y-103746917D02*
X162471100Y-106553000D01*
X162229800Y-26797000D02*
X162229800Y-30485161D01*
X162229800Y-34538840D02*
X162229800Y-86084506D01*
X162229800Y-86084506D02*
X162229800Y-86559293D01*
X162229800Y-87430708D02*
X162229800Y-90964506D01*
X162229800Y-90964506D02*
X162229800Y-93844999D01*
X162229800Y-99185000D02*
X162229800Y-102391602D01*
X162229800Y-102391602D02*
X162229800Y-103146146D01*
X162229800Y-103146146D02*
X162229800Y-106553000D01*
X161988500Y-26797000D02*
X161988500Y-30385211D01*
X161988500Y-34638790D02*
X161988500Y-86084506D01*
X161988500Y-86084506D02*
X161988500Y-86229789D01*
X161988500Y-99185000D02*
X161988500Y-102391602D01*
X161988500Y-102391602D02*
X161988500Y-103146146D01*
X161988500Y-103146146D02*
X161988500Y-106553000D01*
X161747200Y-26797000D02*
X161747200Y-30377000D01*
X161747200Y-34647000D02*
X161747200Y-86064103D01*
X161747200Y-99185000D02*
X161747200Y-102391602D01*
X161747200Y-102391602D02*
X161747200Y-103146146D01*
X161747200Y-103146146D02*
X161747200Y-106553000D01*
X161505900Y-26797000D02*
X161505900Y-30377000D01*
X161505900Y-34862339D02*
X161505900Y-85964153D01*
X161505900Y-97175702D02*
X161505900Y-97665000D01*
X161505900Y-99185000D02*
X161505900Y-102391602D01*
X161505900Y-102391602D02*
X161505900Y-103146146D01*
X161505900Y-103146146D02*
X161505900Y-106553000D01*
X161264600Y-26797000D02*
X161264600Y-30377000D01*
X161264600Y-35103639D02*
X161264600Y-85894798D01*
X161264600Y-96934402D02*
X161264600Y-97665000D01*
X161264600Y-99185000D02*
X161264600Y-102391602D01*
X161264600Y-102391602D02*
X161264600Y-103146146D01*
X161264600Y-103146146D02*
X161264600Y-106553000D01*
X161023300Y-26797000D02*
X161023300Y-30416773D01*
X161023300Y-35344939D02*
X161023300Y-85653498D01*
X161023300Y-96693102D02*
X161023300Y-97665000D01*
X161023300Y-99185000D02*
X161023300Y-102391602D01*
X161023300Y-102391602D02*
X161023300Y-103146146D01*
X161023300Y-103146146D02*
X161023300Y-106553000D01*
X160782000Y-26797000D02*
X160782000Y-30516723D01*
X160782000Y-35586239D02*
X160782000Y-85412198D01*
X160782000Y-96451802D02*
X160782000Y-97665000D01*
X160782000Y-99185000D02*
X160782000Y-102391602D01*
X160782000Y-102391602D02*
X160782000Y-103146146D01*
X160782000Y-103146146D02*
X160782000Y-106553000D01*
X160540700Y-26797000D02*
X160540700Y-30616672D01*
X160540700Y-35827539D02*
X160540700Y-85170898D01*
X160540700Y-96210502D02*
X160540700Y-97586989D01*
X160540700Y-99263011D02*
X160540700Y-102391602D01*
X160540700Y-102391602D02*
X160540700Y-103146146D01*
X160540700Y-103146146D02*
X160540700Y-106553000D01*
X160299400Y-26797000D02*
X160299400Y-30737254D01*
X160299400Y-36068839D02*
X160299400Y-84929598D01*
X160299400Y-95969201D02*
X160299400Y-97463948D01*
X160299400Y-99386053D02*
X160299400Y-102391602D01*
X160299400Y-102391602D02*
X160299400Y-103146146D01*
X160299400Y-103146146D02*
X160299400Y-106553000D01*
X160058100Y-26797000D02*
X160058100Y-30978554D01*
X160058100Y-36310139D02*
X160058100Y-84688298D01*
X160058100Y-95727901D02*
X160058100Y-97390000D01*
X160058100Y-99460000D02*
X160058100Y-102391602D01*
X160058100Y-102391602D02*
X160058100Y-103146146D01*
X160058100Y-103146146D02*
X160058100Y-106553000D01*
X159816800Y-26797000D02*
X159816800Y-31219854D01*
X159816800Y-36551439D02*
X159816800Y-84446998D01*
X159816800Y-95486601D02*
X159816800Y-97390000D01*
X159816800Y-99460000D02*
X159816800Y-102391602D01*
X159816800Y-102391602D02*
X159816800Y-103146146D01*
X159816800Y-103146146D02*
X159816800Y-106553000D01*
X159575500Y-26797000D02*
X159575500Y-31685355D01*
X159575500Y-40531830D02*
X159575500Y-84205698D01*
X159575500Y-95245301D02*
X159575500Y-97445349D01*
X159575500Y-99404650D02*
X159575500Y-102391602D01*
X159575500Y-102391602D02*
X159575500Y-103146146D01*
X159575500Y-103146146D02*
X159575500Y-106553000D01*
X159334200Y-26797000D02*
X159334200Y-32409561D01*
X159334200Y-41060191D02*
X159334200Y-83964398D01*
X159334200Y-94956589D02*
X159334200Y-97545299D01*
X159334200Y-99304700D02*
X159334200Y-102391602D01*
X159334200Y-102391602D02*
X159334200Y-103146146D01*
X159334200Y-103146146D02*
X159334200Y-106553000D01*
X159092900Y-26797000D02*
X159092900Y-32650861D01*
X159092900Y-41360127D02*
X159092900Y-83723098D01*
X159092900Y-87015702D02*
X159092900Y-87163631D01*
X159092900Y-88096368D02*
X159092900Y-97783389D01*
X159092900Y-99066611D02*
X159092900Y-102391602D01*
X159092900Y-102391602D02*
X159092900Y-103146146D01*
X159092900Y-103146146D02*
X159092900Y-106553000D01*
X158851600Y-26797000D02*
X158851600Y-32892161D01*
X158851600Y-41521358D02*
X158851600Y-83481798D01*
X158851600Y-86774402D02*
X158851600Y-102391602D01*
X158851600Y-102391602D02*
X158851600Y-103146146D01*
X158851600Y-103146146D02*
X158851600Y-105060857D01*
X158610300Y-26797000D02*
X158610300Y-33133461D01*
X158610300Y-41675248D02*
X158610300Y-83240498D01*
X158610300Y-86533102D02*
X158610300Y-102391602D01*
X158610300Y-102391602D02*
X158610300Y-103146146D01*
X158610300Y-103146146D02*
X158610300Y-104757786D01*
X158369000Y-26797000D02*
X158369000Y-31532053D01*
X158369000Y-41723246D02*
X158369000Y-82999198D01*
X158369000Y-86291802D02*
X158369000Y-102391602D01*
X158369000Y-102391602D02*
X158369000Y-103146146D01*
X158369000Y-103146146D02*
X158369000Y-104596555D01*
X158127700Y-26797000D02*
X158127700Y-31156354D01*
X158127700Y-41771243D02*
X158127700Y-82757898D01*
X158127700Y-86050502D02*
X158127700Y-102391602D01*
X158127700Y-102391602D02*
X158127700Y-103146146D01*
X158127700Y-103146146D02*
X158127700Y-104502979D01*
X157886400Y-26797000D02*
X157886400Y-30915054D01*
X157886400Y-41778821D02*
X157886400Y-82516598D01*
X157886400Y-85809202D02*
X157886400Y-102391602D01*
X157886400Y-102391602D02*
X157886400Y-103146146D01*
X157886400Y-103146146D02*
X157886400Y-104454981D01*
X157645100Y-26797000D02*
X157645100Y-30690321D01*
X157645100Y-41730824D02*
X157645100Y-82275298D01*
X157645100Y-85567902D02*
X157645100Y-102391602D01*
X157645100Y-102391602D02*
X157645100Y-103146146D01*
X157645100Y-103146146D02*
X157645100Y-104464627D01*
X157403800Y-26797000D02*
X157403800Y-30590371D01*
X157403800Y-41682826D02*
X157403800Y-82033998D01*
X157403800Y-85326602D02*
X157403800Y-89988293D01*
X157403800Y-90859708D02*
X157403800Y-94560293D01*
X157403800Y-95431708D02*
X157403800Y-102391602D01*
X157403800Y-102391602D02*
X157403800Y-103146146D01*
X157403800Y-103146146D02*
X157403800Y-104512625D01*
X157162500Y-26797000D02*
X157162500Y-30490421D01*
X157162500Y-41546815D02*
X157162500Y-81792698D01*
X157162500Y-85085302D02*
X157162500Y-89658789D01*
X157162500Y-95761211D02*
X157162500Y-102391602D01*
X157162500Y-102391602D02*
X157162500Y-103146146D01*
X157162500Y-103146146D02*
X157162500Y-104628961D01*
X156921200Y-26797000D02*
X156921200Y-30390472D01*
X156921200Y-41385584D02*
X156921200Y-81551398D01*
X156921200Y-84844002D02*
X156921200Y-89493103D01*
X156921200Y-95926898D02*
X156921200Y-102391602D01*
X156921200Y-102391602D02*
X156921200Y-103146146D01*
X156921200Y-103146146D02*
X156921200Y-104790193D01*
X156679900Y-26797000D02*
X156679900Y-30377000D01*
X156679900Y-41231253D02*
X156679900Y-81310098D01*
X156679900Y-84602702D02*
X156679900Y-89393153D01*
X156679900Y-96026848D02*
X156679900Y-102391602D01*
X156679900Y-102391602D02*
X156679900Y-103146146D01*
X156679900Y-103146146D02*
X156679900Y-105133442D01*
X156438600Y-26797000D02*
X156438600Y-30377000D01*
X156438600Y-41436500D02*
X156438600Y-81068798D01*
X156438600Y-84361402D02*
X156438600Y-89389000D01*
X156438600Y-96031000D02*
X156438600Y-102391602D01*
X156438600Y-102391602D02*
X156438600Y-103146146D01*
X156438600Y-103146146D02*
X156438600Y-106553000D01*
X156197300Y-26797000D02*
X156197300Y-30377000D01*
X156197300Y-41597731D02*
X156197300Y-80827498D01*
X156197300Y-84120102D02*
X156197300Y-89414194D01*
X156197300Y-96005805D02*
X156197300Y-102391602D01*
X156197300Y-102391602D02*
X156197300Y-103146146D01*
X156197300Y-103146146D02*
X156197300Y-106553000D01*
X155956000Y-26797000D02*
X155956000Y-30411513D01*
X155956000Y-41697984D02*
X155956000Y-80586198D01*
X155956000Y-83878802D02*
X155956000Y-89514144D01*
X155956000Y-95905855D02*
X155956000Y-102391602D01*
X155956000Y-102391602D02*
X155956000Y-103146146D01*
X155956000Y-103146146D02*
X155956000Y-106553000D01*
X155714700Y-26797000D02*
X155714700Y-30511462D01*
X155714700Y-41745982D02*
X155714700Y-80344898D01*
X155714700Y-83637502D02*
X155714700Y-89709589D01*
X155714700Y-95710411D02*
X155714700Y-102391602D01*
X155714700Y-102391602D02*
X155714700Y-103146146D01*
X155714700Y-103146146D02*
X155714700Y-106553000D01*
X155473400Y-26797000D02*
X155473400Y-30611412D01*
X155473400Y-41793979D02*
X155473400Y-80103599D01*
X155473400Y-83396202D02*
X155473400Y-90110934D01*
X155473400Y-90737065D02*
X155473400Y-94682934D01*
X155473400Y-95309065D02*
X155473400Y-102391602D01*
X155473400Y-102391602D02*
X155473400Y-103146146D01*
X155473400Y-103146146D02*
X155473400Y-106553000D01*
X155232100Y-26797000D02*
X155232100Y-30724554D01*
X155232100Y-41756085D02*
X155232100Y-79862299D01*
X155232100Y-83154902D02*
X155232100Y-90218126D01*
X155232100Y-90218126D02*
X155232100Y-102391602D01*
X155232100Y-102391602D02*
X155232100Y-103146146D01*
X155232100Y-103146146D02*
X155232100Y-106553000D01*
X154990800Y-26797000D02*
X154990800Y-30965854D01*
X154990800Y-41708088D02*
X154990800Y-79620999D01*
X154990800Y-82913602D02*
X154990800Y-90218126D01*
X154990800Y-90218126D02*
X154990800Y-102391602D01*
X154990800Y-102391602D02*
X154990800Y-103146146D01*
X154990800Y-103146146D02*
X154990800Y-106553000D01*
X154749500Y-26797000D02*
X154749500Y-31207154D01*
X154749500Y-41631674D02*
X154749500Y-79379699D01*
X154749500Y-82672302D02*
X154749500Y-90218126D01*
X154749500Y-90218126D02*
X154749500Y-102391602D01*
X154749500Y-102391602D02*
X154749500Y-103146146D01*
X154749500Y-103146146D02*
X154749500Y-106553000D01*
X154508200Y-26797000D02*
X154508200Y-31654694D01*
X154508200Y-41470442D02*
X154508200Y-79138399D01*
X154508200Y-82431001D02*
X154508200Y-90218126D01*
X154508200Y-90218126D02*
X154508200Y-102391602D01*
X154508200Y-102391602D02*
X154508200Y-103146146D01*
X154508200Y-103146146D02*
X154508200Y-106553000D01*
X154266900Y-26797000D02*
X154266900Y-32352721D01*
X154266900Y-41307280D02*
X154266900Y-78897099D01*
X154266900Y-82189701D02*
X154266900Y-90218126D01*
X154266900Y-90218126D02*
X154266900Y-102391602D01*
X154266900Y-102391602D02*
X154266900Y-103146146D01*
X154266900Y-103146146D02*
X154266900Y-106553000D01*
X154025600Y-26797000D02*
X154025600Y-32713852D01*
X154025600Y-41351641D02*
X154025600Y-78655799D01*
X154025600Y-81948401D02*
X154025600Y-90218126D01*
X154025600Y-90218126D02*
X154025600Y-102391602D01*
X154025600Y-102391602D02*
X154025600Y-103146146D01*
X154025600Y-103146146D02*
X154025600Y-106553000D01*
X153784300Y-26797000D02*
X153784300Y-32600062D01*
X153784300Y-41512872D02*
X153784300Y-78414499D01*
X153784300Y-81707101D02*
X153784300Y-90218126D01*
X153784300Y-90218126D02*
X153784300Y-102391602D01*
X153784300Y-102391602D02*
X153784300Y-103146146D01*
X153784300Y-103146146D02*
X153784300Y-106553000D01*
X153543000Y-26797000D02*
X153543000Y-32358762D01*
X153543000Y-41672722D02*
X153543000Y-78173199D01*
X153543000Y-81465801D02*
X153543000Y-90218126D01*
X153543000Y-90218126D02*
X153543000Y-102391602D01*
X153543000Y-102391602D02*
X153543000Y-103146146D01*
X153543000Y-103146146D02*
X153543000Y-106553000D01*
X153301700Y-26797000D02*
X153301700Y-31562714D01*
X153301700Y-41720720D02*
X153301700Y-77931899D01*
X153301700Y-81224501D02*
X153301700Y-90218126D01*
X153301700Y-90218126D02*
X153301700Y-102391602D01*
X153301700Y-102391602D02*
X153301700Y-103146146D01*
X153301700Y-103146146D02*
X153301700Y-106553000D01*
X153060400Y-26797000D02*
X153060400Y-31169054D01*
X153060400Y-41768717D02*
X153060400Y-77690599D01*
X153060400Y-80983201D02*
X153060400Y-90218126D01*
X153060400Y-90218126D02*
X153060400Y-102391602D01*
X153060400Y-102391602D02*
X153060400Y-103146146D01*
X153060400Y-103146146D02*
X153060400Y-106553000D01*
X152819100Y-26797000D02*
X152819100Y-30927754D01*
X152819100Y-41781347D02*
X152819100Y-77449299D01*
X152819100Y-80741901D02*
X152819100Y-90218126D01*
X152819100Y-90218126D02*
X152819100Y-102391602D01*
X152819100Y-102391602D02*
X152819100Y-103146146D01*
X152819100Y-103146146D02*
X152819100Y-106553000D01*
X152577800Y-26797000D02*
X152577800Y-30695581D01*
X152577800Y-41733350D02*
X152577800Y-77207999D01*
X152577800Y-80500601D02*
X152577800Y-90218126D01*
X152577800Y-90218126D02*
X152577800Y-102391602D01*
X152577800Y-102391602D02*
X152577800Y-103146146D01*
X152577800Y-103146146D02*
X152577800Y-106553000D01*
X152336500Y-26797000D02*
X152336500Y-30595631D01*
X152336500Y-41685352D02*
X152336500Y-76966699D01*
X152336500Y-80259301D02*
X152336500Y-90218126D01*
X152336500Y-90218126D02*
X152336500Y-102391602D01*
X152336500Y-102391602D02*
X152336500Y-103146146D01*
X152336500Y-103146146D02*
X152336500Y-106553000D01*
X152095200Y-26797000D02*
X152095200Y-30495682D01*
X152095200Y-41555301D02*
X152095200Y-76725399D01*
X152095200Y-80018001D02*
X152095200Y-90218126D01*
X152095200Y-90218126D02*
X152095200Y-102391602D01*
X152095200Y-102391602D02*
X152095200Y-103146146D01*
X152095200Y-103146146D02*
X152095200Y-106553000D01*
X151853900Y-26797000D02*
X151853900Y-30395732D01*
X151853900Y-41394070D02*
X151853900Y-76484099D01*
X151853900Y-79776701D02*
X151853900Y-90218126D01*
X151853900Y-90218126D02*
X151853900Y-102391602D01*
X151853900Y-102391602D02*
X151853900Y-103146146D01*
X151853900Y-103146146D02*
X151853900Y-106553000D01*
X151612600Y-26797000D02*
X151612600Y-30377000D01*
X151612600Y-41212246D02*
X151612600Y-76242799D01*
X151612600Y-79535401D02*
X151612600Y-90218126D01*
X151612600Y-90218126D02*
X151612600Y-102391602D01*
X151612600Y-102391602D02*
X151612600Y-103146146D01*
X151612600Y-103146146D02*
X151612600Y-106553000D01*
X151371300Y-26797000D02*
X151371300Y-30377000D01*
X151371300Y-41428014D02*
X151371300Y-76001499D01*
X151371300Y-79294101D02*
X151371300Y-90218126D01*
X151371300Y-90218126D02*
X151371300Y-102391602D01*
X151371300Y-102391602D02*
X151371300Y-103146146D01*
X151371300Y-103146146D02*
X151371300Y-106553000D01*
X151130000Y-26797000D02*
X151130000Y-30377000D01*
X151130000Y-34647000D02*
X151130000Y-38674756D01*
X151130000Y-41589246D02*
X151130000Y-75760199D01*
X151130000Y-79052801D02*
X151130000Y-90218126D01*
X151130000Y-90218126D02*
X151130000Y-102391602D01*
X151130000Y-102391602D02*
X151130000Y-103146146D01*
X151130000Y-103146146D02*
X151130000Y-106553000D01*
X150888700Y-26797000D02*
X150888700Y-30406252D01*
X150888700Y-34617747D02*
X150888700Y-38568543D01*
X150888700Y-41695458D02*
X150888700Y-75518899D01*
X150888700Y-78811501D02*
X150888700Y-90218126D01*
X150888700Y-90218126D02*
X150888700Y-102391602D01*
X150888700Y-102391602D02*
X150888700Y-103146146D01*
X150888700Y-103146146D02*
X150888700Y-106553000D01*
X150647400Y-26797000D02*
X150647400Y-30506202D01*
X150647400Y-34517797D02*
X150647400Y-38520546D01*
X150647400Y-41743455D02*
X150647400Y-75277599D01*
X150647400Y-78570201D02*
X150647400Y-90218126D01*
X150647400Y-90218126D02*
X150647400Y-102391602D01*
X150647400Y-102391602D02*
X150647400Y-103146146D01*
X150647400Y-103146146D02*
X150647400Y-106553000D01*
X150406100Y-26797000D02*
X150406100Y-30606151D01*
X150406100Y-34417848D02*
X150406100Y-38497000D01*
X150406100Y-41767000D02*
X150406100Y-75036299D01*
X150406100Y-78328901D02*
X150406100Y-90218126D01*
X150406100Y-90218126D02*
X150406100Y-102391602D01*
X150406100Y-102391602D02*
X150406100Y-103146146D01*
X150406100Y-103146146D02*
X150406100Y-106553000D01*
X150164800Y-26797000D02*
X150164800Y-30711854D01*
X150164800Y-34312146D02*
X150164800Y-38497000D01*
X150164800Y-41767000D02*
X150164800Y-74794999D01*
X150164800Y-78087601D02*
X150164800Y-83631789D01*
X150164800Y-85024212D02*
X150164800Y-86171789D01*
X150164800Y-87564212D02*
X150164800Y-90218126D01*
X150164800Y-90218126D02*
X150164800Y-102391602D01*
X150164800Y-102391602D02*
X150164800Y-103146146D01*
X150164800Y-103146146D02*
X150164800Y-106553000D01*
X149923500Y-26797000D02*
X149923500Y-30953154D01*
X149923500Y-34070846D02*
X149923500Y-38497000D01*
X149923500Y-41767000D02*
X149923500Y-74566962D01*
X149923500Y-77976000D02*
X149923500Y-83270658D01*
X149923500Y-85385343D02*
X149923500Y-85810658D01*
X149923500Y-87925343D02*
X149923500Y-90218126D01*
X149923500Y-90218126D02*
X149923500Y-102391602D01*
X149923500Y-102391602D02*
X149923500Y-103146146D01*
X149923500Y-103146146D02*
X149923500Y-106553000D01*
X149682200Y-26797000D02*
X149682200Y-31194454D01*
X149682200Y-33829546D02*
X149682200Y-38497000D01*
X149682200Y-41767000D02*
X149682200Y-74449531D01*
X149682200Y-77976000D02*
X149682200Y-83102074D01*
X149682200Y-85553927D02*
X149682200Y-85642074D01*
X149682200Y-88093927D02*
X149682200Y-90218126D01*
X149682200Y-90218126D02*
X149682200Y-102391602D01*
X149682200Y-102391602D02*
X149682200Y-103146146D01*
X149682200Y-103146146D02*
X149682200Y-106553000D01*
X149440900Y-26797000D02*
X149440900Y-31624034D01*
X149440900Y-33399965D02*
X149440900Y-38497000D01*
X149440900Y-41767000D02*
X149440900Y-74416690D01*
X149440900Y-77976000D02*
X149440900Y-82940843D01*
X149440900Y-88255158D02*
X149440900Y-90218126D01*
X149440900Y-90218126D02*
X149440900Y-102391602D01*
X149440900Y-102391602D02*
X149440900Y-103146146D01*
X149440900Y-103146146D02*
X149440900Y-106553000D01*
X149199600Y-26797000D02*
X149199600Y-38497000D01*
X149199600Y-41767000D02*
X149199600Y-74424000D01*
X149199600Y-77976000D02*
X149199600Y-82884641D01*
X149199600Y-88311360D02*
X149199600Y-90218126D01*
X149199600Y-90218126D02*
X149199600Y-102391602D01*
X149199600Y-102391602D02*
X149199600Y-103146146D01*
X149199600Y-103146146D02*
X149199600Y-106553000D01*
X148958300Y-26797000D02*
X148958300Y-38497000D01*
X148958300Y-41767000D02*
X148958300Y-74424000D01*
X148958300Y-77976000D02*
X148958300Y-82843000D01*
X148958300Y-88353000D02*
X148958300Y-90218126D01*
X148958300Y-90218126D02*
X148958300Y-102391602D01*
X148958300Y-102391602D02*
X148958300Y-103146146D01*
X148958300Y-103146146D02*
X148958300Y-106553000D01*
X148717000Y-26797000D02*
X148717000Y-38497000D01*
X148717000Y-41767000D02*
X148717000Y-74424000D01*
X148717000Y-77976000D02*
X148717000Y-82843000D01*
X148717000Y-88353000D02*
X148717000Y-90218126D01*
X148717000Y-90218126D02*
X148717000Y-102391602D01*
X148717000Y-102391602D02*
X148717000Y-103146146D01*
X148717000Y-103146146D02*
X148717000Y-106553000D01*
X148475700Y-26797000D02*
X148475700Y-38497000D01*
X148475700Y-41767000D02*
X148475700Y-74424000D01*
X148475700Y-77976000D02*
X148475700Y-82887167D01*
X148475700Y-88308832D02*
X148475700Y-90218126D01*
X148475700Y-90218126D02*
X148475700Y-102391602D01*
X148475700Y-102391602D02*
X148475700Y-103146146D01*
X148475700Y-103146146D02*
X148475700Y-106553000D01*
X148234400Y-26797000D02*
X148234400Y-30535877D01*
X148234400Y-34488124D02*
X148234400Y-38497000D01*
X148234400Y-41767000D02*
X148234400Y-74424000D01*
X148234400Y-77976000D02*
X148234400Y-82949327D01*
X148234400Y-88246672D02*
X148234400Y-90218126D01*
X148234400Y-90218126D02*
X148234400Y-102391602D01*
X148234400Y-102391602D02*
X148234400Y-103146146D01*
X148234400Y-103146146D02*
X148234400Y-106553000D01*
X147993100Y-26797000D02*
X147993100Y-30402174D01*
X147993100Y-34621827D02*
X147993100Y-38294862D01*
X147993100Y-41767000D02*
X147993100Y-74424000D01*
X147993100Y-77976000D02*
X147993100Y-83110559D01*
X147993100Y-85545440D02*
X147993100Y-85650559D01*
X147993100Y-88085440D02*
X147993100Y-90218126D01*
X147993100Y-90218126D02*
X147993100Y-102391602D01*
X147993100Y-102391602D02*
X147993100Y-103146146D01*
X147993100Y-103146146D02*
X147993100Y-106553000D01*
X147751800Y-26797000D02*
X147751800Y-30364560D01*
X147751800Y-41767000D02*
X147751800Y-74424000D01*
X147751800Y-77976000D02*
X147751800Y-83289664D01*
X147751800Y-85366335D02*
X147751800Y-85829664D01*
X147751800Y-87906335D02*
X147751800Y-90218126D01*
X147751800Y-90218126D02*
X147751800Y-102391602D01*
X147751800Y-102391602D02*
X147751800Y-103146146D01*
X147751800Y-103146146D02*
X147751800Y-106553000D01*
X147510500Y-26797000D02*
X147510500Y-30364560D01*
X147510500Y-41797538D02*
X147510500Y-74424000D01*
X147510500Y-77976000D02*
X147510500Y-83650795D01*
X147510500Y-85005204D02*
X147510500Y-86190795D01*
X147510500Y-87545204D02*
X147510500Y-90218126D01*
X147510500Y-90218126D02*
X147510500Y-102391602D01*
X147510500Y-102391602D02*
X147510500Y-103146146D01*
X147510500Y-103146146D02*
X147510500Y-106553000D01*
X147269200Y-26797000D02*
X147269200Y-30364560D01*
X147269200Y-41749541D02*
X147269200Y-74424000D01*
X147269200Y-77976000D02*
X147269200Y-84328000D01*
X147269200Y-84328000D02*
X147269200Y-90218126D01*
X147269200Y-90218126D02*
X147269200Y-102391602D01*
X147269200Y-102391602D02*
X147269200Y-103146146D01*
X147269200Y-103146146D02*
X147269200Y-106553000D01*
X147027900Y-26797000D02*
X147027900Y-30364560D01*
X147027900Y-41701544D02*
X147027900Y-74424000D01*
X147027900Y-77976000D02*
X147027900Y-84328000D01*
X147027900Y-84328000D02*
X147027900Y-90218126D01*
X147027900Y-90218126D02*
X147027900Y-102391602D01*
X147027900Y-102391602D02*
X147027900Y-103146146D01*
X147027900Y-103146146D02*
X147027900Y-106553000D01*
X146786600Y-26797000D02*
X146786600Y-30364560D01*
X146786600Y-41609691D02*
X146786600Y-74424000D01*
X146786600Y-77976000D02*
X146786600Y-84328000D01*
X146786600Y-84328000D02*
X146786600Y-90218126D01*
X146786600Y-90218126D02*
X146786600Y-102391602D01*
X146786600Y-102391602D02*
X146786600Y-103146146D01*
X146786600Y-103146146D02*
X146786600Y-106553000D01*
X146545300Y-26797000D02*
X146545300Y-30364560D01*
X146545300Y-41448459D02*
X146545300Y-74424000D01*
X146545300Y-77976000D02*
X146545300Y-84328000D01*
X146545300Y-84328000D02*
X146545300Y-90218126D01*
X146545300Y-90218126D02*
X146545300Y-102391602D01*
X146545300Y-102391602D02*
X146545300Y-103146146D01*
X146545300Y-103146146D02*
X146545300Y-106553000D01*
X146304000Y-26797000D02*
X146304000Y-30364560D01*
X146304000Y-41258042D02*
X146304000Y-74424000D01*
X146304000Y-77976000D02*
X146304000Y-84328000D01*
X146304000Y-84328000D02*
X146304000Y-90218126D01*
X146304000Y-90218126D02*
X146304000Y-102391602D01*
X146304000Y-102391602D02*
X146304000Y-103146146D01*
X146304000Y-103146146D02*
X146304000Y-106553000D01*
X146062700Y-26797000D02*
X146062700Y-30364560D01*
X146062700Y-40988938D02*
X146062700Y-74424000D01*
X146062700Y-77976000D02*
X146062700Y-84328000D01*
X146062700Y-84328000D02*
X146062700Y-90218126D01*
X146062700Y-90218126D02*
X146062700Y-102391602D01*
X146062700Y-102391602D02*
X146062700Y-103146146D01*
X146062700Y-103146146D02*
X146062700Y-106553000D01*
X145821400Y-26797000D02*
X145821400Y-30364560D01*
X145821400Y-40747638D02*
X145821400Y-74424000D01*
X145821400Y-77976000D02*
X145821400Y-84328000D01*
X145821400Y-84328000D02*
X145821400Y-90218126D01*
X145821400Y-90218126D02*
X145821400Y-102391602D01*
X145821400Y-102391602D02*
X145821400Y-103146146D01*
X145821400Y-103146146D02*
X145821400Y-106553000D01*
X145580100Y-26797000D02*
X145580100Y-30364560D01*
X145580100Y-40506338D02*
X145580100Y-74424000D01*
X145580100Y-77976000D02*
X145580100Y-84328000D01*
X145580100Y-84328000D02*
X145580100Y-90218126D01*
X145580100Y-90218126D02*
X145580100Y-102391602D01*
X145580100Y-102391602D02*
X145580100Y-103146146D01*
X145580100Y-103146146D02*
X145580100Y-106553000D01*
X145338800Y-26797000D02*
X145338800Y-30364560D01*
X145338800Y-40265038D02*
X145338800Y-74424000D01*
X145338800Y-77976000D02*
X145338800Y-84328000D01*
X145338800Y-84328000D02*
X145338800Y-90218126D01*
X145338800Y-90218126D02*
X145338800Y-102391602D01*
X145338800Y-102391602D02*
X145338800Y-103146146D01*
X145338800Y-103146146D02*
X145338800Y-106553000D01*
X145097500Y-26797000D02*
X145097500Y-30364560D01*
X145097500Y-40055266D02*
X145097500Y-73529789D01*
X145097500Y-77976000D02*
X145097500Y-84328000D01*
X145097500Y-84328000D02*
X145097500Y-90218126D01*
X145097500Y-90218126D02*
X145097500Y-102391602D01*
X145097500Y-102391602D02*
X145097500Y-103146146D01*
X145097500Y-103146146D02*
X145097500Y-106553000D01*
X144856200Y-26797000D02*
X144856200Y-30364560D01*
X144856200Y-39694134D02*
X144856200Y-73289708D01*
X144856200Y-77976000D02*
X144856200Y-84328000D01*
X144856200Y-84328000D02*
X144856200Y-90218126D01*
X144856200Y-90218126D02*
X144856200Y-102391602D01*
X144856200Y-102391602D02*
X144856200Y-103146146D01*
X144856200Y-103146146D02*
X144856200Y-106553000D01*
X144614900Y-26797000D02*
X144614900Y-30402173D01*
X144614900Y-34621825D02*
X144614900Y-73189758D01*
X144614900Y-77976000D02*
X144614900Y-84328000D01*
X144614900Y-84328000D02*
X144614900Y-90218126D01*
X144614900Y-90218126D02*
X144614900Y-102391602D01*
X144614900Y-102391602D02*
X144614900Y-103146146D01*
X144614900Y-103146146D02*
X144614900Y-106553000D01*
X144373600Y-26797000D02*
X144373600Y-30535876D01*
X144373600Y-34488123D02*
X144373600Y-73133000D01*
X144373600Y-77976000D02*
X144373600Y-84328000D01*
X144373600Y-84328000D02*
X144373600Y-90218126D01*
X144373600Y-90218126D02*
X144373600Y-102391602D01*
X144373600Y-102391602D02*
X144373600Y-103146146D01*
X144373600Y-103146146D02*
X144373600Y-106553000D01*
X144132300Y-26797000D02*
X144132300Y-30877000D01*
X144132300Y-34147000D02*
X144132300Y-72953498D01*
X144132300Y-77976000D02*
X144132300Y-84328000D01*
X144132300Y-84328000D02*
X144132300Y-90218126D01*
X144132300Y-90218126D02*
X144132300Y-92423470D01*
X144132300Y-95536531D02*
X144132300Y-102391602D01*
X144132300Y-102391602D02*
X144132300Y-103146146D01*
X144132300Y-103146146D02*
X144132300Y-106553000D01*
X143891000Y-26797000D02*
X143891000Y-30877000D01*
X143891000Y-34147000D02*
X143891000Y-72712198D01*
X143891000Y-77976000D02*
X143891000Y-84328000D01*
X143891000Y-84328000D02*
X143891000Y-90218126D01*
X143891000Y-90218126D02*
X143891000Y-92150823D01*
X143891000Y-95809178D02*
X143891000Y-102391602D01*
X143891000Y-102391602D02*
X143891000Y-103146146D01*
X143891000Y-103146146D02*
X143891000Y-106553000D01*
X143649700Y-26797000D02*
X143649700Y-30877000D01*
X143649700Y-34147000D02*
X143649700Y-72470898D01*
X143649700Y-77976000D02*
X143649700Y-84328000D01*
X143649700Y-84328000D02*
X143649700Y-90218126D01*
X143649700Y-90218126D02*
X143649700Y-92054381D01*
X143649700Y-95905620D02*
X143649700Y-102391602D01*
X143649700Y-102391602D02*
X143649700Y-103146146D01*
X143649700Y-103146146D02*
X143649700Y-106553000D01*
X143408400Y-26797000D02*
X143408400Y-30877000D01*
X143408400Y-34147000D02*
X143408400Y-72229598D01*
X143408400Y-77976000D02*
X143408400Y-84328000D01*
X143408400Y-84328000D02*
X143408400Y-90218126D01*
X143408400Y-90218126D02*
X143408400Y-92032560D01*
X143408400Y-95927440D02*
X143408400Y-102391602D01*
X143408400Y-102391602D02*
X143408400Y-103146146D01*
X143408400Y-103146146D02*
X143408400Y-106553000D01*
X143167100Y-26797000D02*
X143167100Y-30877000D01*
X143167100Y-34147000D02*
X143167100Y-71988298D01*
X143167100Y-77976000D02*
X143167100Y-84328000D01*
X143167100Y-84328000D02*
X143167100Y-90218126D01*
X143167100Y-90218126D02*
X143167100Y-92032560D01*
X143167100Y-95927440D02*
X143167100Y-102391602D01*
X143167100Y-102391602D02*
X143167100Y-103146146D01*
X143167100Y-103146146D02*
X143167100Y-106553000D01*
X142925800Y-26797000D02*
X142925800Y-30877000D01*
X142925800Y-34147000D02*
X142925800Y-71746998D01*
X142925800Y-77976000D02*
X142925800Y-84328000D01*
X142925800Y-84328000D02*
X142925800Y-90218126D01*
X142925800Y-90218126D02*
X142925800Y-92032560D01*
X142925800Y-95927440D02*
X142925800Y-102391602D01*
X142925800Y-102391602D02*
X142925800Y-103146146D01*
X142925800Y-103146146D02*
X142925800Y-106553000D01*
X142684500Y-26797000D02*
X142684500Y-30877000D01*
X142684500Y-34147000D02*
X142684500Y-71505698D01*
X142684500Y-77976000D02*
X142684500Y-84328000D01*
X142684500Y-84328000D02*
X142684500Y-90218126D01*
X142684500Y-90218126D02*
X142684500Y-92032560D01*
X142684500Y-95927440D02*
X142684500Y-102391602D01*
X142684500Y-102391602D02*
X142684500Y-103146146D01*
X142684500Y-103146146D02*
X142684500Y-106553000D01*
X142443200Y-26797000D02*
X142443200Y-30877000D01*
X142443200Y-34147000D02*
X142443200Y-71264398D01*
X142443200Y-77976000D02*
X142443200Y-84328000D01*
X142443200Y-84328000D02*
X142443200Y-90218126D01*
X142443200Y-90218126D02*
X142443200Y-92032560D01*
X142443200Y-95927440D02*
X142443200Y-102391602D01*
X142443200Y-102391602D02*
X142443200Y-103146146D01*
X142443200Y-103146146D02*
X142443200Y-106553000D01*
X142201900Y-26797000D02*
X142201900Y-30877000D01*
X142201900Y-34147000D02*
X142201900Y-71023099D01*
X142201900Y-77976000D02*
X142201900Y-84328000D01*
X142201900Y-84328000D02*
X142201900Y-90218126D01*
X142201900Y-90218126D02*
X142201900Y-92032560D01*
X142201900Y-95927440D02*
X142201900Y-102391602D01*
X142201900Y-102391602D02*
X142201900Y-103146146D01*
X142201900Y-103146146D02*
X142201900Y-106553000D01*
X141960600Y-26797000D02*
X141960600Y-30877000D01*
X141960600Y-34147000D02*
X141960600Y-70781799D01*
X141960600Y-77976000D02*
X141960600Y-84328000D01*
X141960600Y-84328000D02*
X141960600Y-90218126D01*
X141960600Y-90218126D02*
X141960600Y-91896361D01*
X141960600Y-95927440D02*
X141960600Y-102391602D01*
X141960600Y-102391602D02*
X141960600Y-103146146D01*
X141960600Y-103146146D02*
X141960600Y-106553000D01*
X141719300Y-26797000D02*
X141719300Y-30877000D01*
X141719300Y-34147000D02*
X141719300Y-70540499D01*
X141719300Y-77976000D02*
X141719300Y-84328000D01*
X141719300Y-84328000D02*
X141719300Y-90218126D01*
X141719300Y-90218126D02*
X141719300Y-91655061D01*
X141719300Y-95927440D02*
X141719300Y-102391602D01*
X141719300Y-102391602D02*
X141719300Y-103146146D01*
X141719300Y-103146146D02*
X141719300Y-106553000D01*
X141478000Y-26797000D02*
X141478000Y-30877000D01*
X141478000Y-34147000D02*
X141478000Y-70299199D01*
X141478000Y-77976000D02*
X141478000Y-84328000D01*
X141478000Y-84328000D02*
X141478000Y-90218126D01*
X141478000Y-90218126D02*
X141478000Y-91413761D01*
X141478000Y-95927440D02*
X141478000Y-102391602D01*
X141478000Y-102391602D02*
X141478000Y-103146146D01*
X141478000Y-103146146D02*
X141478000Y-106553000D01*
X141236700Y-26797000D02*
X141236700Y-30877000D01*
X141236700Y-34147000D02*
X141236700Y-70057899D01*
X141236700Y-77976000D02*
X141236700Y-84328000D01*
X141236700Y-84328000D02*
X141236700Y-90218126D01*
X141236700Y-90218126D02*
X141236700Y-91172461D01*
X141236700Y-95927440D02*
X141236700Y-102391602D01*
X141236700Y-102391602D02*
X141236700Y-103146146D01*
X141236700Y-103146146D02*
X141236700Y-106553000D01*
X140995400Y-26797000D02*
X140995400Y-30877000D01*
X140995400Y-34147000D02*
X140995400Y-69816599D01*
X140995400Y-77976000D02*
X140995400Y-84328000D01*
X140995400Y-84328000D02*
X140995400Y-90218126D01*
X140995400Y-90218126D02*
X140995400Y-90931161D01*
X140995400Y-95927440D02*
X140995400Y-102391602D01*
X140995400Y-102391602D02*
X140995400Y-103146146D01*
X140995400Y-103146146D02*
X140995400Y-106553000D01*
X140754100Y-26797000D02*
X140754100Y-30877000D01*
X140754100Y-34278139D02*
X140754100Y-69575299D01*
X140754100Y-77976000D02*
X140754100Y-84328000D01*
X140754100Y-84328000D02*
X140754100Y-90218126D01*
X140754100Y-90218126D02*
X140754100Y-90689861D01*
X140754100Y-95890462D02*
X140754100Y-102391602D01*
X140754100Y-102391602D02*
X140754100Y-103146146D01*
X140754100Y-103146146D02*
X140754100Y-106553000D01*
X140512800Y-26797000D02*
X140512800Y-30877000D01*
X140512800Y-34519439D02*
X140512800Y-69333999D01*
X140512800Y-77976000D02*
X140512800Y-84328000D01*
X140512800Y-84328000D02*
X140512800Y-90218126D01*
X140512800Y-90218126D02*
X140512800Y-90448561D01*
X140512800Y-95758261D02*
X140512800Y-102391602D01*
X140512800Y-102391602D02*
X140512800Y-103146146D01*
X140512800Y-103146146D02*
X140512800Y-106553000D01*
X140271500Y-26797000D02*
X140271500Y-30857602D01*
X140271500Y-34760739D02*
X140271500Y-68067348D01*
X140271500Y-77976000D02*
X140271500Y-84328000D01*
X140271500Y-84328000D02*
X140271500Y-90207262D01*
X140271500Y-94831738D02*
X140271500Y-102391602D01*
X140271500Y-102391602D02*
X140271500Y-103146146D01*
X140271500Y-103146146D02*
X140271500Y-106553000D01*
X140030200Y-26797000D02*
X140030200Y-30880335D01*
X140030200Y-35002039D02*
X140030200Y-67835399D01*
X140030200Y-77976000D02*
X140030200Y-84328000D01*
X140030200Y-84328000D02*
X140030200Y-89965962D01*
X140030200Y-94590438D02*
X140030200Y-102391602D01*
X140030200Y-102391602D02*
X140030200Y-103146146D01*
X140030200Y-103146146D02*
X140030200Y-106553000D01*
X139788900Y-26797000D02*
X139788900Y-30928333D01*
X139788900Y-35243339D02*
X139788900Y-67594099D01*
X139788900Y-77976000D02*
X139788900Y-84328000D01*
X139788900Y-84328000D02*
X139788900Y-89724662D01*
X139788900Y-94349138D02*
X139788900Y-102391602D01*
X139788900Y-102391602D02*
X139788900Y-103146146D01*
X139788900Y-103146146D02*
X139788900Y-106553000D01*
X139547600Y-26797000D02*
X139547600Y-30986867D01*
X139547600Y-35484639D02*
X139547600Y-66963889D01*
X139547600Y-77976000D02*
X139547600Y-84328000D01*
X139547600Y-84328000D02*
X139547600Y-89483362D01*
X139547600Y-94107838D02*
X139547600Y-102391602D01*
X139547600Y-102391602D02*
X139547600Y-103146146D01*
X139547600Y-103146146D02*
X139547600Y-106553000D01*
X139306300Y-26797000D02*
X139306300Y-31148099D01*
X139306300Y-35725939D02*
X139306300Y-66722589D01*
X139306300Y-78057411D02*
X139306300Y-84328000D01*
X139306300Y-84328000D02*
X139306300Y-89242062D01*
X139306300Y-93866538D02*
X139306300Y-102391602D01*
X139306300Y-102391602D02*
X139306300Y-103146146D01*
X139306300Y-103146146D02*
X139306300Y-106553000D01*
X139065000Y-26797000D02*
X139065000Y-31309330D01*
X139065000Y-35967239D02*
X139065000Y-66601540D01*
X139065000Y-78178461D02*
X139065000Y-84328000D01*
X139065000Y-84328000D02*
X139065000Y-89000762D01*
X139065000Y-93625238D02*
X139065000Y-102391602D01*
X139065000Y-102391602D02*
X139065000Y-103146146D01*
X139065000Y-103146146D02*
X139065000Y-106553000D01*
X138823700Y-26797000D02*
X138823700Y-31584061D01*
X138823700Y-36208539D02*
X138823700Y-66529000D01*
X138823700Y-78251000D02*
X138823700Y-84328000D01*
X138823700Y-84328000D02*
X138823700Y-88759462D01*
X138823700Y-93383938D02*
X138823700Y-102391602D01*
X138823700Y-102391602D02*
X138823700Y-103146146D01*
X138823700Y-103146146D02*
X138823700Y-106553000D01*
X138582400Y-26797000D02*
X138582400Y-31825361D01*
X138582400Y-36449839D02*
X138582400Y-66529000D01*
X138582400Y-78251000D02*
X138582400Y-84328000D01*
X138582400Y-84328000D02*
X138582400Y-88518162D01*
X138582400Y-93142638D02*
X138582400Y-102391602D01*
X138582400Y-102391602D02*
X138582400Y-103146146D01*
X138582400Y-103146146D02*
X138582400Y-106553000D01*
X138341100Y-26797000D02*
X138341100Y-32066661D01*
X138341100Y-36691139D02*
X138341100Y-66585758D01*
X138341100Y-78194241D02*
X138341100Y-84328000D01*
X138341100Y-84328000D02*
X138341100Y-88276862D01*
X138341100Y-92901338D02*
X138341100Y-102391602D01*
X138341100Y-102391602D02*
X138341100Y-103146146D01*
X138341100Y-103146146D02*
X138341100Y-106553000D01*
X138099800Y-26797000D02*
X138099800Y-32307961D01*
X138099800Y-92660038D02*
X138099800Y-102391602D01*
X138099800Y-102391602D02*
X138099800Y-103146146D01*
X138099800Y-103146146D02*
X138099800Y-106553000D01*
X137858500Y-26797000D02*
X137858500Y-32549261D01*
X137858500Y-92418738D02*
X137858500Y-102391602D01*
X137858500Y-102391602D02*
X137858500Y-103146146D01*
X137858500Y-103146146D02*
X137858500Y-106553000D01*
X137617200Y-26797000D02*
X137617200Y-32790561D01*
X137617200Y-92177438D02*
X137617200Y-102391602D01*
X137617200Y-102391602D02*
X137617200Y-103146146D01*
X137617200Y-103146146D02*
X137617200Y-106553000D01*
X137375900Y-26797000D02*
X137375900Y-33031861D01*
X137375900Y-91936138D02*
X137375900Y-102391602D01*
X137375900Y-102391602D02*
X137375900Y-103146146D01*
X137375900Y-103146146D02*
X137375900Y-106553000D01*
X137134600Y-26797000D02*
X137134600Y-33273161D01*
X137134600Y-91694838D02*
X137134600Y-102391602D01*
X137134600Y-102391602D02*
X137134600Y-103146146D01*
X137134600Y-103146146D02*
X137134600Y-106553000D01*
X136893300Y-26797000D02*
X136893300Y-33514461D01*
X136893300Y-91453538D02*
X136893300Y-102391602D01*
X136893300Y-102391602D02*
X136893300Y-103146146D01*
X136893300Y-103146146D02*
X136893300Y-106553000D01*
X136652000Y-26797000D02*
X136652000Y-33755761D01*
X136652000Y-91212238D02*
X136652000Y-102391602D01*
X136652000Y-102391602D02*
X136652000Y-103146146D01*
X136652000Y-103146146D02*
X136652000Y-106553000D01*
X136410700Y-26797000D02*
X136410700Y-33997061D01*
X136410700Y-90970938D02*
X136410700Y-102391602D01*
X136410700Y-102391602D02*
X136410700Y-103146146D01*
X136410700Y-103146146D02*
X136410700Y-106553000D01*
X136169400Y-26797000D02*
X136169400Y-34238361D01*
X136169400Y-90729638D02*
X136169400Y-102391602D01*
X136169400Y-102391602D02*
X136169400Y-103146146D01*
X136169400Y-103146146D02*
X136169400Y-106553000D01*
X135928100Y-26797000D02*
X135928100Y-34479661D01*
X135928100Y-90488338D02*
X135928100Y-102391602D01*
X135928100Y-102391602D02*
X135928100Y-103146146D01*
X135928100Y-103146146D02*
X135928100Y-106553000D01*
X135686800Y-26797000D02*
X135686800Y-34720961D01*
X135686800Y-90247038D02*
X135686800Y-102391602D01*
X135686800Y-102391602D02*
X135686800Y-103146146D01*
X135686800Y-103146146D02*
X135686800Y-106553000D01*
X135445500Y-26797000D02*
X135445500Y-28358948D01*
X135445500Y-30061053D02*
X135445500Y-34930734D01*
X135445500Y-90037266D02*
X135445500Y-102391602D01*
X135445500Y-102391602D02*
X135445500Y-103146146D01*
X135445500Y-103146146D02*
X135445500Y-103288948D01*
X135445500Y-104991053D02*
X135445500Y-106553000D01*
X135204200Y-26797000D02*
X135204200Y-27776398D01*
X135204200Y-30643603D02*
X135204200Y-35291865D01*
X135204200Y-89676134D02*
X135204200Y-102391602D01*
X135204200Y-102391602D02*
X135204200Y-102706397D01*
X135204200Y-105573603D02*
X135204200Y-106553000D01*
X134962900Y-26797000D02*
X134962900Y-27235076D01*
X134962900Y-31184924D02*
X134962900Y-36068000D01*
X134962900Y-36068000D02*
X134962900Y-102165076D01*
X134962900Y-106114924D02*
X134962900Y-106553000D01*
X134721600Y-26797000D02*
X134721600Y-26993776D01*
X134721600Y-31426224D02*
X134721600Y-36068000D01*
X134721600Y-36068000D02*
X134721600Y-101923776D01*
X134721600Y-106356224D02*
X134721600Y-106553000D01*
X134480300Y-31667524D02*
X134480300Y-36068000D01*
X134480300Y-36068000D02*
X134480300Y-68994823D01*
X134480300Y-70197178D02*
X134480300Y-71534823D01*
X134480300Y-72737178D02*
X134480300Y-74074823D01*
X134480300Y-75277178D02*
X134480300Y-76022667D01*
X134480300Y-78409334D02*
X134480300Y-101682476D01*
X134239000Y-31908824D02*
X134239000Y-36068000D01*
X134239000Y-36068000D02*
X134239000Y-68633692D01*
X134239000Y-70558309D02*
X134239000Y-71173692D01*
X134239000Y-73098309D02*
X134239000Y-73713692D01*
X134239000Y-75638309D02*
X134239000Y-75798069D01*
X134239000Y-78633932D02*
X134239000Y-101441176D01*
X133997700Y-32133681D02*
X133997700Y-36068000D01*
X133997700Y-36068000D02*
X133997700Y-68412503D01*
X133997700Y-70779497D02*
X133997700Y-70952504D01*
X133997700Y-73319497D02*
X133997700Y-73492504D01*
X133997700Y-78703157D02*
X133997700Y-101216320D01*
X133756400Y-32233631D02*
X133756400Y-36068000D01*
X133756400Y-36068000D02*
X133756400Y-68251272D01*
X133756400Y-78713440D02*
X133756400Y-101116370D01*
X133515100Y-32333580D02*
X133515100Y-36068000D01*
X133515100Y-36068000D02*
X133515100Y-68165272D01*
X133515100Y-78713440D02*
X133515100Y-101016421D01*
X133273800Y-32433530D02*
X133273800Y-36068000D01*
X133273800Y-36068000D02*
X133273800Y-68117275D01*
X133273800Y-78713440D02*
X133273800Y-100916471D01*
X133032500Y-32533479D02*
X133032500Y-36068000D01*
X133032500Y-36068000D02*
X133032500Y-68111000D01*
X133032500Y-78713440D02*
X133032500Y-100816522D01*
X132791200Y-32633429D02*
X132791200Y-36068000D01*
X132791200Y-36068000D02*
X132791200Y-68142536D01*
X132791200Y-78713440D02*
X132791200Y-100716572D01*
X132549900Y-32645000D02*
X132549900Y-36068000D01*
X132549900Y-36068000D02*
X132549900Y-68190533D01*
X132549900Y-78713440D02*
X132549900Y-100705000D01*
X132308600Y-32645000D02*
X132308600Y-36068000D01*
X132308600Y-36068000D02*
X132308600Y-68336130D01*
X132308600Y-70855869D02*
X132308600Y-70876130D01*
X132308600Y-73395869D02*
X132308600Y-73416130D01*
X132308600Y-78713440D02*
X132308600Y-100705000D01*
X132067300Y-32645000D02*
X132067300Y-36068000D01*
X132067300Y-36068000D02*
X132067300Y-68497361D01*
X132067300Y-70694638D02*
X132067300Y-71037361D01*
X132067300Y-73234638D02*
X132067300Y-73577361D01*
X132067300Y-78677894D02*
X132067300Y-100705000D01*
X131826000Y-32645000D02*
X131826000Y-36068000D01*
X131826000Y-36068000D02*
X131826000Y-68823760D01*
X131826000Y-70368239D02*
X131826000Y-71363760D01*
X131826000Y-72908239D02*
X131826000Y-73903760D01*
X131826000Y-75448239D02*
X131826000Y-75882927D01*
X131826000Y-78549072D02*
X131826000Y-100705000D01*
X131584700Y-32645000D02*
X131584700Y-36068000D01*
X131584700Y-36068000D02*
X131584700Y-69581963D01*
X131584700Y-69610036D02*
X131584700Y-72121963D01*
X131584700Y-72150036D02*
X131584700Y-74661963D01*
X131584700Y-74690036D02*
X131584700Y-100705000D01*
X131343400Y-32622907D02*
X131343400Y-36068000D01*
X131343400Y-36068000D02*
X131343400Y-69596000D01*
X131343400Y-69596000D02*
X131343400Y-100727092D01*
X131102100Y-32522957D02*
X131102100Y-36068000D01*
X131102100Y-36068000D02*
X131102100Y-69596000D01*
X131102100Y-69596000D02*
X131102100Y-100827042D01*
X130860800Y-32423008D02*
X130860800Y-36068000D01*
X130860800Y-36068000D02*
X130860800Y-69596000D01*
X130860800Y-69596000D02*
X130860800Y-100926991D01*
X130619500Y-32323058D02*
X130619500Y-36068000D01*
X130619500Y-36068000D02*
X130619500Y-69596000D01*
X130619500Y-69596000D02*
X130619500Y-101026941D01*
X130378200Y-32223108D02*
X130378200Y-36068000D01*
X130378200Y-36068000D02*
X130378200Y-69596000D01*
X130378200Y-69596000D02*
X130378200Y-101126891D01*
X130136900Y-32123159D02*
X130136900Y-36068000D01*
X130136900Y-36068000D02*
X130136900Y-69596000D01*
X130136900Y-69596000D02*
X130136900Y-101226840D01*
X129895600Y-31883424D02*
X129895600Y-36068000D01*
X129895600Y-36068000D02*
X129895600Y-69596000D01*
X129895600Y-69596000D02*
X129895600Y-101466576D01*
X172347947Y-27264229D02*
X171825000Y-28526736D01*
X171825000Y-29893264D01*
X172347947Y-31155771D01*
X173314229Y-32122053D01*
X174576736Y-32645000D01*
X175943264Y-32645000D01*
X177205771Y-32122053D01*
X177673000Y-31654824D01*
X177673000Y-60833000D01*
X170180000Y-60833000D01*
X170131399Y-60842667D01*
X170090197Y-60870197D01*
X170062667Y-60911399D01*
X170053000Y-60960000D01*
X170053000Y-80010000D01*
X170062667Y-80058601D01*
X170090197Y-80099803D01*
X170131399Y-80127333D01*
X170180000Y-80137000D01*
X177673000Y-80137000D01*
X177673000Y-101695176D01*
X177205771Y-101227947D01*
X175943264Y-100705000D01*
X174576736Y-100705000D01*
X173314229Y-101227947D01*
X172347947Y-102194229D01*
X171825000Y-103456736D01*
X171825000Y-104823264D01*
X172347947Y-106085771D01*
X172815176Y-106553000D01*
X166017767Y-106553000D01*
X166025000Y-106516635D01*
X166025000Y-105573364D01*
X165953344Y-105213127D01*
X165680385Y-104804615D01*
X165271872Y-104531656D01*
X164790000Y-104435805D01*
X164511271Y-104491248D01*
X164563793Y-104298398D01*
X163790000Y-103524605D01*
X163016207Y-104298398D01*
X163081122Y-104536753D01*
X163591146Y-104717312D01*
X164067715Y-104692294D01*
X163899615Y-104804615D01*
X163626656Y-105213128D01*
X163555000Y-105573365D01*
X163555000Y-106516636D01*
X163562233Y-106553000D01*
X159017767Y-106553000D01*
X159025000Y-106516636D01*
X159025000Y-105573365D01*
X158953344Y-105213127D01*
X158680385Y-104804615D01*
X158271873Y-104531656D01*
X157790000Y-104435805D01*
X157308128Y-104531656D01*
X156899616Y-104804615D01*
X156626656Y-105213127D01*
X156555000Y-105573364D01*
X156555000Y-106516635D01*
X156562233Y-106553000D01*
X134524824Y-106553000D01*
X134992053Y-106085771D01*
X135515000Y-104823264D01*
X135515000Y-103456736D01*
X135386350Y-103146146D01*
X162417688Y-103146146D01*
X162446051Y-103686444D01*
X162598247Y-104053878D01*
X162836602Y-104118793D01*
X163610395Y-103345000D01*
X163969605Y-103345000D01*
X164743398Y-104118793D01*
X164981753Y-104053878D01*
X165162312Y-103543854D01*
X165133949Y-103003556D01*
X164981753Y-102636122D01*
X164743398Y-102571207D01*
X163969605Y-103345000D01*
X163610395Y-103345000D01*
X162836602Y-102571207D01*
X162598247Y-102636122D01*
X162417688Y-103146146D01*
X135386350Y-103146146D01*
X135073808Y-102391602D01*
X163016207Y-102391602D01*
X163790000Y-103165395D01*
X164563793Y-102391602D01*
X164498878Y-102153247D01*
X163988854Y-101972688D01*
X163448556Y-102001051D01*
X163081122Y-102153247D01*
X163016207Y-102391602D01*
X135073808Y-102391602D01*
X134992053Y-102194229D01*
X134025771Y-101227947D01*
X132763264Y-100705000D01*
X131396736Y-100705000D01*
X130134229Y-101227947D01*
X129667000Y-101695176D01*
X129667000Y-69596000D01*
X131581908Y-69596000D01*
X131697161Y-70175418D01*
X132025375Y-70666625D01*
X132323761Y-70866000D01*
X132025375Y-71065375D01*
X131697161Y-71556582D01*
X131581908Y-72136000D01*
X131697161Y-72715418D01*
X132025375Y-73206625D01*
X132323761Y-73406000D01*
X132025375Y-73605375D01*
X131697161Y-74096582D01*
X131581908Y-74676000D01*
X131697161Y-75255418D01*
X132025375Y-75746625D01*
X132043619Y-75758816D01*
X131998235Y-75767843D01*
X131788191Y-75908191D01*
X131647843Y-76118235D01*
X131598560Y-76366000D01*
X131598560Y-78066000D01*
X131647843Y-78313765D01*
X131788191Y-78523809D01*
X131998235Y-78664157D01*
X132246000Y-78713440D01*
X133946000Y-78713440D01*
X134193765Y-78664157D01*
X134403809Y-78523809D01*
X134544157Y-78313765D01*
X134593440Y-78066000D01*
X134593440Y-76366000D01*
X134544157Y-76118235D01*
X134403809Y-75908191D01*
X134193765Y-75767843D01*
X134148381Y-75758816D01*
X134166625Y-75746625D01*
X134494839Y-75255418D01*
X134610092Y-74676000D01*
X134494839Y-74096582D01*
X134166625Y-73605375D01*
X133868239Y-73406000D01*
X134166625Y-73206625D01*
X134494839Y-72715418D01*
X134610092Y-72136000D01*
X134494839Y-71556582D01*
X134166625Y-71065375D01*
X133868239Y-70866000D01*
X134166625Y-70666625D01*
X134494839Y-70175418D01*
X134610092Y-69596000D01*
X134494839Y-69016582D01*
X134166625Y-68525375D01*
X133675418Y-68197161D01*
X133242256Y-68111000D01*
X132949744Y-68111000D01*
X132516582Y-68197161D01*
X132025375Y-68525375D01*
X131697161Y-69016582D01*
X131581908Y-69596000D01*
X129667000Y-69596000D01*
X129667000Y-36068000D01*
X134984969Y-36068000D01*
X135017001Y-36229035D01*
X135017000Y-88738970D01*
X134984969Y-88900000D01*
X135017000Y-89061030D01*
X135111864Y-89537944D01*
X135473231Y-90078769D01*
X135609750Y-90169988D01*
X140292560Y-94852799D01*
X140292560Y-95280000D01*
X140341843Y-95527765D01*
X140482191Y-95737809D01*
X140692235Y-95878157D01*
X140940000Y-95927440D01*
X143540000Y-95927440D01*
X143787765Y-95878157D01*
X143997809Y-95737809D01*
X144138157Y-95527765D01*
X144187440Y-95280000D01*
X144187440Y-92680000D01*
X144138157Y-92432235D01*
X143997809Y-92222191D01*
X143787765Y-92081843D01*
X143540000Y-92032560D01*
X142096799Y-92032560D01*
X140282365Y-90218126D01*
X155429000Y-90218126D01*
X155429000Y-90629874D01*
X155586569Y-91010280D01*
X155704001Y-91127712D01*
X155704000Y-94292289D01*
X155586569Y-94409720D01*
X155429000Y-94790126D01*
X155429000Y-95201874D01*
X155586569Y-95582280D01*
X155877720Y-95873431D01*
X156258126Y-96031000D01*
X156669874Y-96031000D01*
X157050280Y-95873431D01*
X157341431Y-95582280D01*
X157499000Y-95201874D01*
X157499000Y-94790126D01*
X157341431Y-94409720D01*
X157224000Y-94292289D01*
X157224000Y-91127711D01*
X157341431Y-91010280D01*
X157499000Y-90629874D01*
X157499000Y-90218126D01*
X157341431Y-89837720D01*
X157050280Y-89546569D01*
X156669874Y-89389000D01*
X156258126Y-89389000D01*
X155877720Y-89546569D01*
X155586569Y-89837720D01*
X155429000Y-90218126D01*
X140282365Y-90218126D01*
X138287000Y-88222762D01*
X138287000Y-84328000D01*
X147329908Y-84328000D01*
X147445161Y-84907418D01*
X147773375Y-85398625D01*
X148071761Y-85598000D01*
X147773375Y-85797375D01*
X147445161Y-86288582D01*
X147329908Y-86868000D01*
X147445161Y-87447418D01*
X147773375Y-87938625D01*
X148264582Y-88266839D01*
X148697744Y-88353000D01*
X148990256Y-88353000D01*
X149423418Y-88266839D01*
X149914625Y-87938625D01*
X150242839Y-87447418D01*
X150358092Y-86868000D01*
X150242839Y-86288582D01*
X149914625Y-85797375D01*
X149616239Y-85598000D01*
X149914625Y-85398625D01*
X150242839Y-84907418D01*
X150358092Y-84328000D01*
X150242839Y-83748582D01*
X149914625Y-83257375D01*
X149423418Y-82929161D01*
X148990256Y-82843000D01*
X148697744Y-82843000D01*
X148264582Y-82929161D01*
X147773375Y-83257375D01*
X147445161Y-83748582D01*
X147329908Y-84328000D01*
X138287000Y-84328000D01*
X138287000Y-78171833D01*
X138478126Y-78251000D01*
X138889874Y-78251000D01*
X139270280Y-78093431D01*
X139387711Y-77976000D01*
X150053199Y-77976000D01*
X159136227Y-87059030D01*
X158985000Y-87424126D01*
X158985000Y-87835874D01*
X159142569Y-88216280D01*
X159260000Y-88333711D01*
X159260001Y-94540148D01*
X159245112Y-94615000D01*
X159260001Y-94689852D01*
X159304097Y-94911537D01*
X159472072Y-95162929D01*
X159535528Y-95205329D01*
X161525000Y-97194803D01*
X161525000Y-97360874D01*
X161650973Y-97665000D01*
X160618711Y-97665000D01*
X160501280Y-97547569D01*
X160120874Y-97390000D01*
X159709126Y-97390000D01*
X159328720Y-97547569D01*
X159037569Y-97838720D01*
X158880000Y-98219126D01*
X158880000Y-98630874D01*
X159037569Y-99011280D01*
X159328720Y-99302431D01*
X159709126Y-99460000D01*
X160120874Y-99460000D01*
X160501280Y-99302431D01*
X160618711Y-99185000D01*
X163120153Y-99185000D01*
X163195000Y-99199888D01*
X163269847Y-99185000D01*
X163269852Y-99185000D01*
X163491537Y-99140904D01*
X163742929Y-98972929D01*
X163785331Y-98909470D01*
X166219476Y-96475327D01*
X166282929Y-96432929D01*
X166325327Y-96369476D01*
X166325329Y-96369474D01*
X166450903Y-96181538D01*
X166450904Y-96181537D01*
X166495000Y-95959852D01*
X166495000Y-95959848D01*
X166509888Y-95885001D01*
X166495000Y-95810154D01*
X166495000Y-95318711D01*
X166612431Y-95201280D01*
X166770000Y-94820874D01*
X166770000Y-94409126D01*
X166612431Y-94028720D01*
X166321280Y-93737569D01*
X165940874Y-93580000D01*
X165529126Y-93580000D01*
X165148720Y-93737569D01*
X164857569Y-94028720D01*
X164700000Y-94409126D01*
X164700000Y-94820874D01*
X164857569Y-95201280D01*
X164975001Y-95318712D01*
X164975001Y-95570196D01*
X163595000Y-96950198D01*
X163595000Y-96949126D01*
X163437431Y-96568720D01*
X163146280Y-96277569D01*
X162965047Y-96202500D01*
X163146280Y-96127431D01*
X163437431Y-95836280D01*
X163595000Y-95455874D01*
X163595000Y-95044126D01*
X163437431Y-94663720D01*
X163146280Y-94372569D01*
X162765874Y-94215000D01*
X162599802Y-94215000D01*
X162050000Y-93665199D01*
X162050000Y-90964506D01*
X171335000Y-90964506D01*
X171335000Y-91515494D01*
X171545853Y-92024540D01*
X171935460Y-92414147D01*
X172444506Y-92625000D01*
X172995494Y-92625000D01*
X173504540Y-92414147D01*
X173894147Y-92024540D01*
X174105000Y-91515494D01*
X174105000Y-90964506D01*
X173894147Y-90455460D01*
X173504540Y-90065853D01*
X172995494Y-89855000D01*
X172444506Y-89855000D01*
X171935460Y-90065853D01*
X171545853Y-90455460D01*
X171335000Y-90964506D01*
X162050000Y-90964506D01*
X162050000Y-87698711D01*
X162167431Y-87581280D01*
X162325000Y-87200874D01*
X162325000Y-86789126D01*
X162167431Y-86408720D01*
X161876280Y-86117569D01*
X161796459Y-86084506D01*
X171335000Y-86084506D01*
X171335000Y-86635494D01*
X171545853Y-87144540D01*
X171935460Y-87534147D01*
X172444506Y-87745000D01*
X172995494Y-87745000D01*
X173504540Y-87534147D01*
X173894147Y-87144540D01*
X174105000Y-86635494D01*
X174105000Y-86084506D01*
X173894147Y-85575460D01*
X173504540Y-85185853D01*
X172995494Y-84975000D01*
X172444506Y-84975000D01*
X171935460Y-85185853D01*
X171545853Y-85575460D01*
X171335000Y-86084506D01*
X161796459Y-86084506D01*
X161495874Y-85960000D01*
X161329803Y-85960000D01*
X150069331Y-74699530D01*
X150026929Y-74636071D01*
X149775537Y-74468096D01*
X149553852Y-74424000D01*
X149553847Y-74424000D01*
X149479000Y-74409112D01*
X149404153Y-74424000D01*
X145286237Y-74424000D01*
X145307000Y-74373874D01*
X145307000Y-73962126D01*
X145149431Y-73581720D01*
X144858280Y-73290569D01*
X144477874Y-73133000D01*
X144311803Y-73133000D01*
X140460000Y-69281199D01*
X140460000Y-68654847D01*
X140474888Y-68580000D01*
X140460000Y-68505153D01*
X140460000Y-68505148D01*
X140415904Y-68283463D01*
X140247929Y-68032071D01*
X140184473Y-67989671D01*
X139719000Y-67524199D01*
X139719000Y-67358126D01*
X139561431Y-66977720D01*
X139270280Y-66686569D01*
X138889874Y-66529000D01*
X138478126Y-66529000D01*
X138287000Y-66608167D01*
X138287000Y-36745238D01*
X140885239Y-34147000D01*
X144183413Y-34147000D01*
X144205843Y-34259765D01*
X144346191Y-34469809D01*
X144556235Y-34610157D01*
X144669001Y-34632587D01*
X144669001Y-36414969D01*
X144669000Y-38756970D01*
X144636969Y-38918000D01*
X144669000Y-39079030D01*
X144763864Y-39555944D01*
X145125231Y-40096769D01*
X145261750Y-40187988D01*
X146248013Y-41174252D01*
X146339231Y-41310769D01*
X146880055Y-41672136D01*
X147356969Y-41767000D01*
X147356973Y-41767000D01*
X147517999Y-41799030D01*
X147679025Y-41767000D01*
X150529031Y-41767000D01*
X151005945Y-41672136D01*
X151546769Y-41310769D01*
X151638000Y-41174232D01*
X151729231Y-41310769D01*
X152270055Y-41672136D01*
X152908000Y-41799031D01*
X153545944Y-41672136D01*
X154086769Y-41310769D01*
X154178000Y-41174232D01*
X154269231Y-41310769D01*
X154810055Y-41672136D01*
X155448000Y-41799031D01*
X156085944Y-41672136D01*
X156626769Y-41310769D01*
X156718000Y-41174232D01*
X156809231Y-41310769D01*
X157350055Y-41672136D01*
X157988000Y-41799031D01*
X158625944Y-41672136D01*
X159166769Y-41310769D01*
X159528136Y-40769945D01*
X159623000Y-40293031D01*
X159623000Y-36745238D01*
X161721239Y-34647000D01*
X161968678Y-34647000D01*
X162753380Y-34321966D01*
X163353966Y-33721380D01*
X163679000Y-32936678D01*
X163679000Y-32087322D01*
X163353966Y-31302620D01*
X162753380Y-30702034D01*
X161968678Y-30377000D01*
X161119322Y-30377000D01*
X160334620Y-30702034D01*
X159734034Y-31302620D01*
X159409000Y-32087322D01*
X159409000Y-32334761D01*
X158451863Y-33291899D01*
X158599000Y-32936678D01*
X158599000Y-32087322D01*
X158273966Y-31302620D01*
X157673380Y-30702034D01*
X156888678Y-30377000D01*
X156039322Y-30377000D01*
X155254620Y-30702034D01*
X154654034Y-31302620D01*
X154329000Y-32087322D01*
X154329000Y-32309295D01*
X154269232Y-32349231D01*
X153978248Y-32784720D01*
X153950252Y-32766014D01*
X153519000Y-32334761D01*
X153519000Y-32087322D01*
X153193966Y-31302620D01*
X152593380Y-30702034D01*
X151808678Y-30377000D01*
X150959322Y-30377000D01*
X150174620Y-30702034D01*
X149574034Y-31302620D01*
X149249000Y-32087322D01*
X149249000Y-32936678D01*
X149574034Y-33721380D01*
X150174620Y-34321966D01*
X150959322Y-34647000D01*
X151206761Y-34647000D01*
X151273001Y-34713240D01*
X151273000Y-38770305D01*
X151005945Y-38591864D01*
X150529031Y-38497000D01*
X148195239Y-38497000D01*
X147939000Y-38240762D01*
X147939000Y-34632587D01*
X148051765Y-34610157D01*
X148261809Y-34469809D01*
X148402157Y-34259765D01*
X148451440Y-34012000D01*
X148451440Y-31012000D01*
X148402157Y-30764235D01*
X148261809Y-30554191D01*
X148051765Y-30413843D01*
X147804000Y-30364560D01*
X144804000Y-30364560D01*
X144556235Y-30413843D01*
X144346191Y-30554191D01*
X144205843Y-30764235D01*
X144183413Y-30877000D01*
X140369025Y-30877000D01*
X140207999Y-30844970D01*
X140046973Y-30877000D01*
X140046969Y-30877000D01*
X139570055Y-30971864D01*
X139029231Y-31333231D01*
X138938014Y-31469747D01*
X135609748Y-34798014D01*
X135473232Y-34889231D01*
X135382015Y-35025747D01*
X135111865Y-35430055D01*
X134984969Y-36068000D01*
X129667000Y-36068000D01*
X129667000Y-31654824D01*
X130134229Y-32122053D01*
X131396736Y-32645000D01*
X132763264Y-32645000D01*
X134025771Y-32122053D01*
X134992053Y-31155771D01*
X135515000Y-29893264D01*
X135515000Y-28526736D01*
X134992053Y-27264229D01*
X134524824Y-26797000D01*
X172815176Y-26797000D01*
X172347947Y-27264229D01*
M02*
