G04 #@! TF.GenerationSoftware,KiCad,Pcbnew,(5.0.0-rc2-101-g68f6e3ad4)*
G04 #@! TF.CreationDate,2018-07-19T03:23:03+02:00*
G04 #@! TF.ProjectId,leddings,6C656464696E67732E6B696361645F70,rev?*
G04 #@! TF.SameCoordinates,Original*
G04 #@! TF.FileFunction,Copper,L2,Bot,Signal*
G04 #@! TF.FilePolarity,Positive*
%FSLAX46Y46*%
G04 Gerber Fmt 4.6, Leading zero omitted, Abs format (unit mm)*
G04 Created by KiCad (PCBNEW (5.0.0-rc2-101-g68f6e3ad4)) date Thu Jul 19 03:23:03 2018*
%MOMM*%
%LPD*%
G01*
G04 APERTURE LIST*
G04 #@! TA.AperFunction,SMDPad,CuDef*
%ADD10R,1.250000X1.500000*%
G04 #@! TD*
G04 #@! TA.AperFunction,ComponentPad*
%ADD11O,1.700000X1.700000*%
G04 #@! TD*
G04 #@! TA.AperFunction,ComponentPad*
%ADD12R,1.700000X1.700000*%
G04 #@! TD*
G04 #@! TA.AperFunction,ComponentPad*
%ADD13O,1.900000X1.200000*%
G04 #@! TD*
G04 #@! TA.AperFunction,ComponentPad*
%ADD14C,1.450000*%
G04 #@! TD*
G04 #@! TA.AperFunction,ComponentPad*
%ADD15C,5.600000*%
G04 #@! TD*
G04 #@! TA.AperFunction,ComponentPad*
%ADD16R,1.800000X1.800000*%
G04 #@! TD*
G04 #@! TA.AperFunction,ComponentPad*
%ADD17O,1.800000X1.800000*%
G04 #@! TD*
G04 #@! TA.AperFunction,ComponentPad*
%ADD18C,1.397000*%
G04 #@! TD*
G04 #@! TA.AperFunction,ComponentPad*
%ADD19O,1.000000X1.000000*%
G04 #@! TD*
G04 #@! TA.AperFunction,ComponentPad*
%ADD20R,1.000000X1.000000*%
G04 #@! TD*
G04 #@! TA.AperFunction,SMDPad,CuDef*
%ADD21R,1.500000X0.600000*%
G04 #@! TD*
G04 #@! TA.AperFunction,ComponentPad*
%ADD22C,1.500000*%
G04 #@! TD*
G04 #@! TA.AperFunction,ComponentPad*
%ADD23C,2.600000*%
G04 #@! TD*
G04 #@! TA.AperFunction,ComponentPad*
%ADD24R,2.600000X2.600000*%
G04 #@! TD*
G04 #@! TA.AperFunction,ViaPad*
%ADD25C,0.800000*%
G04 #@! TD*
G04 #@! TA.AperFunction,Conductor*
%ADD26C,2.000000*%
G04 #@! TD*
G04 #@! TA.AperFunction,Conductor*
%ADD27C,0.250000*%
G04 #@! TD*
G04 #@! TA.AperFunction,Conductor*
%ADD28C,0.254000*%
G04 #@! TD*
G04 APERTURE END LIST*
D10*
G04 #@! TO.P,C3,1*
G04 #@! TO.N,Net-(C3-Pad1)*
X168275000Y-93325000D03*
G04 #@! TO.P,C3,2*
G04 #@! TO.N,GND*
X168275000Y-90825000D03*
G04 #@! TD*
G04 #@! TO.P,C4,2*
G04 #@! TO.N,GND*
X168275000Y-99695000D03*
G04 #@! TO.P,C4,1*
G04 #@! TO.N,Net-(C4-Pad1)*
X168275000Y-97195000D03*
G04 #@! TD*
D11*
G04 #@! TO.P,J4,4*
G04 #@! TO.N,+12V*
X160020000Y-29210000D03*
G04 #@! TO.P,J4,3*
G04 #@! TO.N,/LED Driver/RedChannel*
X157480000Y-29210000D03*
G04 #@! TO.P,J4,2*
G04 #@! TO.N,/LED Driver/BlueChannel*
X154940000Y-29210000D03*
D12*
G04 #@! TO.P,J4,1*
G04 #@! TO.N,/LED Driver/GreenChannel*
X152400000Y-29210000D03*
G04 #@! TD*
D13*
G04 #@! TO.P,J5,6*
G04 #@! TO.N,N/C*
X177515000Y-82860000D03*
X177515000Y-89860000D03*
D14*
X174815000Y-83860000D03*
X174815000Y-88860000D03*
G04 #@! TD*
D15*
G04 #@! TO.P,MK1,1*
G04 #@! TO.N,N/C*
X175260000Y-29210000D03*
G04 #@! TD*
G04 #@! TO.P,MK2,1*
G04 #@! TO.N,N/C*
X132080000Y-104140000D03*
G04 #@! TD*
G04 #@! TO.P,MK3,1*
G04 #@! TO.N,N/C*
X132080000Y-29210000D03*
G04 #@! TD*
G04 #@! TO.P,MK4,1*
G04 #@! TO.N,N/C*
X175260000Y-104140000D03*
G04 #@! TD*
D16*
G04 #@! TO.P,Q1,1*
G04 #@! TO.N,Net-(Q1-Pad1)*
X165100000Y-43180000D03*
D17*
G04 #@! TO.P,Q1,2*
G04 #@! TO.N,/LED Driver/RedChannel*
X165100000Y-40640000D03*
G04 #@! TO.P,Q1,3*
G04 #@! TO.N,GND*
X165100000Y-38100000D03*
G04 #@! TD*
D16*
G04 #@! TO.P,Q2,1*
G04 #@! TO.N,Net-(Q2-Pad1)*
X154940000Y-43180000D03*
D17*
G04 #@! TO.P,Q2,2*
G04 #@! TO.N,/LED Driver/BlueChannel*
X154940000Y-40640000D03*
G04 #@! TO.P,Q2,3*
G04 #@! TO.N,GND*
X154940000Y-38100000D03*
G04 #@! TD*
G04 #@! TO.P,Q3,3*
G04 #@! TO.N,GND*
X144780000Y-38100000D03*
G04 #@! TO.P,Q3,2*
G04 #@! TO.N,/LED Driver/GreenChannel*
X144780000Y-40640000D03*
D16*
G04 #@! TO.P,Q3,1*
G04 #@! TO.N,Net-(Q3-Pad1)*
X144780000Y-43180000D03*
G04 #@! TD*
D18*
G04 #@! TO.P,SW1,2*
G04 #@! TO.N,/Controller/RESET*
X138927500Y-70485000D03*
G04 #@! TO.P,SW1,1*
G04 #@! TO.N,GND*
X133847500Y-70485000D03*
G04 #@! TO.P,SW1,2*
G04 #@! TO.N,/Controller/RESET*
X138927500Y-62865000D03*
G04 #@! TO.P,SW1,1*
G04 #@! TO.N,GND*
X133847500Y-62865000D03*
G04 #@! TD*
D19*
G04 #@! TO.P,SW2,3*
G04 #@! TO.N,VCC*
X147320000Y-67920238D03*
G04 #@! TO.P,SW2,2*
G04 #@! TO.N,/Controller/BOOT_SELECT*
X146050000Y-67920238D03*
D20*
G04 #@! TO.P,SW2,1*
G04 #@! TO.N,GND*
X144780000Y-67920238D03*
G04 #@! TD*
D17*
G04 #@! TO.P,U1,3*
G04 #@! TO.N,+12V*
X139065000Y-76200000D03*
G04 #@! TO.P,U1,2*
G04 #@! TO.N,VCC*
X136525000Y-76200000D03*
D16*
G04 #@! TO.P,U1,1*
G04 #@! TO.N,GND*
X133985000Y-76200000D03*
G04 #@! TD*
D21*
G04 #@! TO.P,U2,16*
G04 #@! TO.N,VCC*
X157795000Y-86995000D03*
G04 #@! TO.P,U2,15*
G04 #@! TO.N,Net-(U2-Pad15)*
X157795000Y-88265000D03*
G04 #@! TO.P,U2,14*
G04 #@! TO.N,/Controller/RESET*
X157795000Y-89535000D03*
G04 #@! TO.P,U2,13*
G04 #@! TO.N,/Controller/BOOT_SELECT*
X157795000Y-90805000D03*
G04 #@! TO.P,U2,12*
G04 #@! TO.N,Net-(U2-Pad12)*
X157795000Y-92075000D03*
G04 #@! TO.P,U2,11*
G04 #@! TO.N,Net-(U2-Pad11)*
X157795000Y-93345000D03*
G04 #@! TO.P,U2,10*
G04 #@! TO.N,Net-(U2-Pad10)*
X157795000Y-94615000D03*
G04 #@! TO.P,U2,9*
G04 #@! TO.N,Net-(U2-Pad9)*
X157795000Y-95885000D03*
G04 #@! TO.P,U2,8*
G04 #@! TO.N,Net-(C4-Pad1)*
X163195000Y-95885000D03*
G04 #@! TO.P,U2,7*
G04 #@! TO.N,Net-(C3-Pad1)*
X163195000Y-94615000D03*
G04 #@! TO.P,U2,6*
G04 #@! TO.N,Net-(J5-Pad2)*
X163195000Y-93345000D03*
G04 #@! TO.P,U2,5*
G04 #@! TO.N,Net-(J5-Pad3)*
X163195000Y-92075000D03*
G04 #@! TO.P,U2,4*
G04 #@! TO.N,VCC*
X163195000Y-90805000D03*
G04 #@! TO.P,U2,3*
G04 #@! TO.N,/USB UART Interface/RX*
X163195000Y-89535000D03*
G04 #@! TO.P,U2,2*
G04 #@! TO.N,/Controller/RX*
X163195000Y-88265000D03*
G04 #@! TO.P,U2,1*
G04 #@! TO.N,GND*
X163195000Y-86995000D03*
G04 #@! TD*
D22*
G04 #@! TO.P,Y1,2*
G04 #@! TO.N,Net-(C4-Pad1)*
X172085000Y-97790000D03*
G04 #@! TO.P,Y1,1*
G04 #@! TO.N,Net-(C3-Pad1)*
X172085000Y-92910000D03*
G04 #@! TD*
D23*
G04 #@! TO.P,J6,3*
G04 #@! TO.N,GND*
X146940000Y-96980000D03*
G04 #@! TO.P,J6,2*
X142240000Y-99980000D03*
D24*
G04 #@! TO.P,J6,1*
G04 #@! TO.N,+12V*
X142240000Y-93980000D03*
G04 #@! TD*
D25*
G04 #@! TO.N,GND*
X168910000Y-88900000D03*
G04 #@! TO.N,VCC*
X144780000Y-69760000D03*
X149225000Y-69760000D03*
X154940000Y-86995000D03*
X161290000Y-90170000D03*
G04 #@! TO.N,VBUS*
X171450000Y-88265000D03*
X150495000Y-83820000D03*
G04 #@! TO.N,/Controller/GREEN*
X158115000Y-60325000D03*
X147320000Y-59690000D03*
G04 #@! TO.N,Net-(J5-Pad3)*
X166370000Y-87630000D03*
G04 #@! TO.N,Net-(J5-Pad2)*
X167095000Y-88337108D03*
G04 #@! TO.N,/Controller/RESET*
X161925000Y-70485000D03*
X142875000Y-67310000D03*
X159385000Y-85090000D03*
X159385000Y-82550000D03*
G04 #@! TO.N,/Controller/BOOT_SELECT*
X149225000Y-73660000D03*
G04 #@! TO.N,/USB UART Interface/RX*
X160655000Y-85090000D03*
G04 #@! TO.N,/Controller/RX*
X161925000Y-85090000D03*
X158115000Y-80645000D03*
X155575000Y-80645000D03*
G04 #@! TD*
D26*
G04 #@! TO.N,+12V*
X142240000Y-76607282D02*
X136525000Y-70892282D01*
X142240000Y-88265000D02*
X142240000Y-76607282D01*
X136525000Y-70892282D02*
X136525000Y-57150000D01*
X140970000Y-52705000D02*
X155575000Y-52705000D01*
X160020000Y-48260000D02*
X160020000Y-29210000D01*
X136525000Y-57150000D02*
X140970000Y-52705000D01*
X155575000Y-52705000D02*
X160020000Y-48260000D01*
X142240000Y-88265000D02*
X142240000Y-93980000D01*
D27*
G04 #@! TO.N,GND*
X168275000Y-90825000D02*
X168275000Y-89535000D01*
X168275000Y-89535000D02*
X168910000Y-88900000D01*
G04 #@! TO.N,VCC*
X144780000Y-69760000D02*
X149225000Y-69760000D01*
X154940000Y-86995000D02*
X157795000Y-86995000D01*
X161290000Y-90170000D02*
X161925000Y-90805000D01*
X161925000Y-90805000D02*
X163195000Y-90805000D01*
G04 #@! TO.N,Net-(C3-Pad1)*
X170380000Y-94615000D02*
X172085000Y-92910000D01*
X163195000Y-94615000D02*
X168910000Y-94615000D01*
X168565000Y-94615000D02*
X168910000Y-94615000D01*
X168275000Y-94325000D02*
X168565000Y-94615000D01*
X168275000Y-93325000D02*
X168275000Y-94325000D01*
X168910000Y-94615000D02*
X170380000Y-94615000D01*
G04 #@! TO.N,Net-(C4-Pad1)*
X170180000Y-95885000D02*
X172085000Y-97790000D01*
X163195000Y-95885000D02*
X170180000Y-95885000D01*
X171490000Y-97195000D02*
X172085000Y-97790000D01*
X168275000Y-96195000D02*
X168585000Y-95885000D01*
X168275000Y-97195000D02*
X168275000Y-96195000D01*
X168585000Y-95885000D02*
X168910000Y-95885000D01*
G04 #@! TO.N,VBUS*
X171450000Y-88265000D02*
X170180000Y-88265000D01*
X170180000Y-88265000D02*
X167005000Y-85090000D01*
X167005000Y-85090000D02*
X165735000Y-83820000D01*
X165735000Y-83820000D02*
X150495000Y-83820000D01*
G04 #@! TO.N,/Controller/GREEN*
X158115000Y-60325000D02*
X157480000Y-59690000D01*
X157480000Y-59690000D02*
X147320000Y-59690000D01*
G04 #@! TO.N,Net-(J5-Pad3)*
X166370000Y-89265002D02*
X166370000Y-87630000D01*
X166370000Y-89350000D02*
X166370000Y-89265002D01*
X163195000Y-92075000D02*
X163645000Y-92075000D01*
X163645000Y-92075000D02*
X166370000Y-89350000D01*
G04 #@! TO.N,Net-(J5-Pad2)*
X167095000Y-89895000D02*
X167095000Y-88337108D01*
X163195000Y-93345000D02*
X163645000Y-93345000D01*
X163645000Y-93345000D02*
X167095000Y-89895000D01*
G04 #@! TO.N,/Controller/RESET*
X142875000Y-69850000D02*
X143510000Y-70485000D01*
X161925000Y-70485000D02*
X143510000Y-70485000D01*
X142875000Y-67310000D02*
X142875000Y-69850000D01*
X143510000Y-70485000D02*
X138927500Y-70485000D01*
X159385000Y-88310002D02*
X159385000Y-85090000D01*
X159385000Y-88395000D02*
X159385000Y-88310002D01*
X157795000Y-89535000D02*
X158245000Y-89535000D01*
X158245000Y-89535000D02*
X159385000Y-88395000D01*
X159385000Y-73025000D02*
X161925000Y-70485000D01*
X159385000Y-82550000D02*
X159385000Y-73025000D01*
G04 #@! TO.N,/Controller/BOOT_SELECT*
X157795000Y-90805000D02*
X157345000Y-90805000D01*
X157345000Y-90805000D02*
X156845000Y-90805000D01*
X156845000Y-90805000D02*
X156210000Y-90170000D01*
X153670000Y-90170000D02*
X149225000Y-85725000D01*
X156210000Y-90170000D02*
X153670000Y-90170000D01*
X149225000Y-85725000D02*
X149225000Y-73660000D01*
G04 #@! TO.N,/USB UART Interface/RX*
X160655000Y-87360002D02*
X160655000Y-85090000D01*
X160655000Y-87445000D02*
X160655000Y-87360002D01*
X163195000Y-89535000D02*
X162745000Y-89535000D01*
X162745000Y-89535000D02*
X160655000Y-87445000D01*
G04 #@! TO.N,/Controller/RX*
X162745000Y-88265000D02*
X161925000Y-87445000D01*
X163195000Y-88265000D02*
X162745000Y-88265000D01*
X161925000Y-87445000D02*
X161925000Y-85090000D01*
X158115000Y-80645000D02*
X155575000Y-80645000D01*
G04 #@! TD*
D28*
G04 #@! TO.N,GND*
G36*
X172347947Y-27264229D02*
X171825000Y-28526736D01*
X171825000Y-29893264D01*
X172347947Y-31155771D01*
X173314229Y-32122053D01*
X174576736Y-32645000D01*
X175943264Y-32645000D01*
X177205771Y-32122053D01*
X177673000Y-31654824D01*
X177673000Y-60833000D01*
X168910000Y-60833000D01*
X168861399Y-60842667D01*
X168820197Y-60870197D01*
X168792667Y-60911399D01*
X168783000Y-60960000D01*
X168783000Y-80010000D01*
X168792667Y-80058601D01*
X168820197Y-80099803D01*
X168861399Y-80127333D01*
X168910000Y-80137000D01*
X177673000Y-80137000D01*
X177673000Y-81625000D01*
X177043364Y-81625000D01*
X176683127Y-81696656D01*
X176274615Y-81969615D01*
X176001656Y-82378127D01*
X175905805Y-82860000D01*
X175947390Y-83069060D01*
X175585378Y-82707048D01*
X175085521Y-82500000D01*
X174544479Y-82500000D01*
X174044622Y-82707048D01*
X173662048Y-83089622D01*
X173455000Y-83589479D01*
X173455000Y-84130521D01*
X173662048Y-84630378D01*
X174044622Y-85012952D01*
X174544479Y-85220000D01*
X175085521Y-85220000D01*
X175585378Y-85012952D01*
X175967952Y-84630378D01*
X176175000Y-84130521D01*
X176175000Y-83601301D01*
X176274615Y-83750385D01*
X176683127Y-84023344D01*
X177043364Y-84095000D01*
X177673000Y-84095000D01*
X177673000Y-88625000D01*
X177043364Y-88625000D01*
X176683127Y-88696656D01*
X176274615Y-88969615D01*
X176175000Y-89118699D01*
X176175000Y-88589479D01*
X175967952Y-88089622D01*
X175585378Y-87707048D01*
X175085521Y-87500000D01*
X174544479Y-87500000D01*
X174044622Y-87707048D01*
X173662048Y-88089622D01*
X173455000Y-88589479D01*
X173455000Y-89130521D01*
X173662048Y-89630378D01*
X174044622Y-90012952D01*
X174544479Y-90220000D01*
X175085521Y-90220000D01*
X175585378Y-90012952D01*
X175947390Y-89650940D01*
X175905805Y-89860000D01*
X176001656Y-90341873D01*
X176274615Y-90750385D01*
X176683127Y-91023344D01*
X177043364Y-91095000D01*
X177673000Y-91095000D01*
X177673000Y-101695176D01*
X177205771Y-101227947D01*
X175943264Y-100705000D01*
X174576736Y-100705000D01*
X173314229Y-101227947D01*
X172347947Y-102194229D01*
X171825000Y-103456736D01*
X171825000Y-104823264D01*
X172347947Y-106085771D01*
X172815176Y-106553000D01*
X134524824Y-106553000D01*
X134992053Y-106085771D01*
X135515000Y-104823264D01*
X135515000Y-103456736D01*
X134992053Y-102194229D01*
X134147283Y-101349459D01*
X141050146Y-101349459D01*
X141185504Y-101647455D01*
X141903880Y-101924066D01*
X142673427Y-101904710D01*
X143294496Y-101647455D01*
X143429854Y-101349459D01*
X142240000Y-100159605D01*
X141050146Y-101349459D01*
X134147283Y-101349459D01*
X134025771Y-101227947D01*
X132763264Y-100705000D01*
X131396736Y-100705000D01*
X130134229Y-101227947D01*
X129667000Y-101695176D01*
X129667000Y-99643880D01*
X140295934Y-99643880D01*
X140315290Y-100413427D01*
X140572545Y-101034496D01*
X140870541Y-101169854D01*
X142060395Y-99980000D01*
X142419605Y-99980000D01*
X143609459Y-101169854D01*
X143907455Y-101034496D01*
X144184066Y-100316120D01*
X144175631Y-99980750D01*
X167015000Y-99980750D01*
X167015000Y-100571309D01*
X167111673Y-100804698D01*
X167290301Y-100983327D01*
X167523690Y-101080000D01*
X167989250Y-101080000D01*
X168148000Y-100921250D01*
X168148000Y-99822000D01*
X168402000Y-99822000D01*
X168402000Y-100921250D01*
X168560750Y-101080000D01*
X169026310Y-101080000D01*
X169259699Y-100983327D01*
X169438327Y-100804698D01*
X169535000Y-100571309D01*
X169535000Y-99980750D01*
X169376250Y-99822000D01*
X168402000Y-99822000D01*
X168148000Y-99822000D01*
X167173750Y-99822000D01*
X167015000Y-99980750D01*
X144175631Y-99980750D01*
X144164710Y-99546573D01*
X143907455Y-98925504D01*
X143609459Y-98790146D01*
X142419605Y-99980000D01*
X142060395Y-99980000D01*
X140870541Y-98790146D01*
X140572545Y-98925504D01*
X140295934Y-99643880D01*
X129667000Y-99643880D01*
X129667000Y-98610541D01*
X141050146Y-98610541D01*
X142240000Y-99800395D01*
X143429854Y-98610541D01*
X143311264Y-98349459D01*
X145750146Y-98349459D01*
X145885504Y-98647455D01*
X146603880Y-98924066D01*
X147373427Y-98904710D01*
X147994496Y-98647455D01*
X148129854Y-98349459D01*
X146940000Y-97159605D01*
X145750146Y-98349459D01*
X143311264Y-98349459D01*
X143294496Y-98312545D01*
X142576120Y-98035934D01*
X141806573Y-98055290D01*
X141185504Y-98312545D01*
X141050146Y-98610541D01*
X129667000Y-98610541D01*
X129667000Y-96643880D01*
X144995934Y-96643880D01*
X145015290Y-97413427D01*
X145272545Y-98034496D01*
X145570541Y-98169854D01*
X146760395Y-96980000D01*
X147119605Y-96980000D01*
X148309459Y-98169854D01*
X148607455Y-98034496D01*
X148884066Y-97316120D01*
X148864710Y-96546573D01*
X148607455Y-95925504D01*
X148309459Y-95790146D01*
X147119605Y-96980000D01*
X146760395Y-96980000D01*
X145570541Y-95790146D01*
X145272545Y-95925504D01*
X144995934Y-96643880D01*
X129667000Y-96643880D01*
X129667000Y-76485750D01*
X132450000Y-76485750D01*
X132450000Y-77226310D01*
X132546673Y-77459699D01*
X132725302Y-77638327D01*
X132958691Y-77735000D01*
X133699250Y-77735000D01*
X133858000Y-77576250D01*
X133858000Y-76327000D01*
X132608750Y-76327000D01*
X132450000Y-76485750D01*
X129667000Y-76485750D01*
X129667000Y-75173690D01*
X132450000Y-75173690D01*
X132450000Y-75914250D01*
X132608750Y-76073000D01*
X133858000Y-76073000D01*
X133858000Y-74823750D01*
X133699250Y-74665000D01*
X132958691Y-74665000D01*
X132725302Y-74761673D01*
X132546673Y-74940301D01*
X132450000Y-75173690D01*
X129667000Y-75173690D01*
X129667000Y-71419188D01*
X133092917Y-71419188D01*
X133154571Y-71654800D01*
X133654980Y-71830927D01*
X134184699Y-71802148D01*
X134540429Y-71654800D01*
X134602083Y-71419188D01*
X133847500Y-70664605D01*
X133092917Y-71419188D01*
X129667000Y-71419188D01*
X129667000Y-70292480D01*
X132501573Y-70292480D01*
X132530352Y-70822199D01*
X132677700Y-71177929D01*
X132913312Y-71239583D01*
X133667895Y-70485000D01*
X132913312Y-69730417D01*
X132677700Y-69792071D01*
X132501573Y-70292480D01*
X129667000Y-70292480D01*
X129667000Y-69550812D01*
X133092917Y-69550812D01*
X133847500Y-70305395D01*
X134602083Y-69550812D01*
X134540429Y-69315200D01*
X134040020Y-69139073D01*
X133510301Y-69167852D01*
X133154571Y-69315200D01*
X133092917Y-69550812D01*
X129667000Y-69550812D01*
X129667000Y-63799188D01*
X133092917Y-63799188D01*
X133154571Y-64034800D01*
X133654980Y-64210927D01*
X134184699Y-64182148D01*
X134540429Y-64034800D01*
X134602083Y-63799188D01*
X133847500Y-63044605D01*
X133092917Y-63799188D01*
X129667000Y-63799188D01*
X129667000Y-62672480D01*
X132501573Y-62672480D01*
X132530352Y-63202199D01*
X132677700Y-63557929D01*
X132913312Y-63619583D01*
X133667895Y-62865000D01*
X134027105Y-62865000D01*
X134781688Y-63619583D01*
X134890001Y-63591240D01*
X134890000Y-69758760D01*
X134781688Y-69730417D01*
X134027105Y-70485000D01*
X134781688Y-71239583D01*
X134919860Y-71203427D01*
X134984864Y-71530226D01*
X135346231Y-72071051D01*
X135482750Y-72162270D01*
X138231367Y-74910888D01*
X137958327Y-75093327D01*
X137795000Y-75337763D01*
X137631673Y-75093327D01*
X137123927Y-74754062D01*
X136676182Y-74665000D01*
X136373818Y-74665000D01*
X135926073Y-74754062D01*
X135471888Y-75057538D01*
X135423327Y-74940301D01*
X135244698Y-74761673D01*
X135011309Y-74665000D01*
X134270750Y-74665000D01*
X134112000Y-74823750D01*
X134112000Y-76073000D01*
X134132000Y-76073000D01*
X134132000Y-76327000D01*
X134112000Y-76327000D01*
X134112000Y-77576250D01*
X134270750Y-77735000D01*
X135011309Y-77735000D01*
X135244698Y-77638327D01*
X135423327Y-77459699D01*
X135471888Y-77342462D01*
X135926073Y-77645938D01*
X136373818Y-77735000D01*
X136676182Y-77735000D01*
X137123927Y-77645938D01*
X137631673Y-77306673D01*
X137795000Y-77062237D01*
X137958327Y-77306673D01*
X138466073Y-77645938D01*
X138913818Y-77735000D01*
X139216182Y-77735000D01*
X139663927Y-77645938D01*
X140171673Y-77306673D01*
X140354112Y-77033634D01*
X140605001Y-77284523D01*
X140605000Y-88103969D01*
X140605000Y-88103970D01*
X140605001Y-92140132D01*
X140482191Y-92222191D01*
X140341843Y-92432235D01*
X140292560Y-92680000D01*
X140292560Y-95280000D01*
X140341843Y-95527765D01*
X140482191Y-95737809D01*
X140692235Y-95878157D01*
X140940000Y-95927440D01*
X143540000Y-95927440D01*
X143787765Y-95878157D01*
X143997809Y-95737809D01*
X144082847Y-95610541D01*
X145750146Y-95610541D01*
X146940000Y-96800395D01*
X148129854Y-95610541D01*
X147994496Y-95312545D01*
X147276120Y-95035934D01*
X146506573Y-95055290D01*
X145885504Y-95312545D01*
X145750146Y-95610541D01*
X144082847Y-95610541D01*
X144138157Y-95527765D01*
X144187440Y-95280000D01*
X144187440Y-92680000D01*
X144138157Y-92432235D01*
X143997809Y-92222191D01*
X143875000Y-92140132D01*
X143875000Y-76768313D01*
X143907031Y-76607282D01*
X143780136Y-75969336D01*
X143509986Y-75565028D01*
X143509984Y-75565026D01*
X143418769Y-75428513D01*
X143282256Y-75337298D01*
X139596301Y-71651344D01*
X139682867Y-71615487D01*
X140053354Y-71245000D01*
X143435152Y-71245000D01*
X143510000Y-71259888D01*
X143584848Y-71245000D01*
X160090198Y-71245000D01*
X158900528Y-72434671D01*
X158837072Y-72477071D01*
X158794672Y-72540527D01*
X158794671Y-72540528D01*
X158669097Y-72728463D01*
X158610112Y-73025000D01*
X158625001Y-73099852D01*
X158625000Y-79735973D01*
X158320874Y-79610000D01*
X157909126Y-79610000D01*
X157528720Y-79767569D01*
X157411289Y-79885000D01*
X156278711Y-79885000D01*
X156161280Y-79767569D01*
X155780874Y-79610000D01*
X155369126Y-79610000D01*
X154988720Y-79767569D01*
X154697569Y-80058720D01*
X154540000Y-80439126D01*
X154540000Y-80850874D01*
X154697569Y-81231280D01*
X154988720Y-81522431D01*
X155369126Y-81680000D01*
X155780874Y-81680000D01*
X156161280Y-81522431D01*
X156278711Y-81405000D01*
X157411289Y-81405000D01*
X157528720Y-81522431D01*
X157909126Y-81680000D01*
X158320874Y-81680000D01*
X158625000Y-81554027D01*
X158625000Y-81846289D01*
X158507569Y-81963720D01*
X158350000Y-82344126D01*
X158350000Y-82755874D01*
X158475973Y-83060000D01*
X151198711Y-83060000D01*
X151081280Y-82942569D01*
X150700874Y-82785000D01*
X150289126Y-82785000D01*
X149985000Y-82910973D01*
X149985000Y-74363711D01*
X150102431Y-74246280D01*
X150260000Y-73865874D01*
X150260000Y-73454126D01*
X150102431Y-73073720D01*
X149811280Y-72782569D01*
X149430874Y-72625000D01*
X149019126Y-72625000D01*
X148638720Y-72782569D01*
X148347569Y-73073720D01*
X148190000Y-73454126D01*
X148190000Y-73865874D01*
X148347569Y-74246280D01*
X148465001Y-74363712D01*
X148465000Y-85650153D01*
X148450112Y-85725000D01*
X148465000Y-85799847D01*
X148465000Y-85799851D01*
X148509096Y-86021536D01*
X148677071Y-86272929D01*
X148740530Y-86315331D01*
X153079670Y-90654472D01*
X153122071Y-90717929D01*
X153373463Y-90885904D01*
X153595148Y-90930000D01*
X153595152Y-90930000D01*
X153669999Y-90944888D01*
X153744846Y-90930000D01*
X155895199Y-90930000D01*
X156254671Y-91289473D01*
X156297071Y-91352929D01*
X156481134Y-91475916D01*
X156446843Y-91527235D01*
X156397560Y-91775000D01*
X156397560Y-92375000D01*
X156446843Y-92622765D01*
X156505132Y-92710000D01*
X156446843Y-92797235D01*
X156397560Y-93045000D01*
X156397560Y-93645000D01*
X156446843Y-93892765D01*
X156505132Y-93980000D01*
X156446843Y-94067235D01*
X156397560Y-94315000D01*
X156397560Y-94915000D01*
X156446843Y-95162765D01*
X156505132Y-95250000D01*
X156446843Y-95337235D01*
X156397560Y-95585000D01*
X156397560Y-96185000D01*
X156446843Y-96432765D01*
X156587191Y-96642809D01*
X156797235Y-96783157D01*
X157045000Y-96832440D01*
X158545000Y-96832440D01*
X158792765Y-96783157D01*
X159002809Y-96642809D01*
X159143157Y-96432765D01*
X159192440Y-96185000D01*
X159192440Y-95585000D01*
X159143157Y-95337235D01*
X159084868Y-95250000D01*
X159143157Y-95162765D01*
X159192440Y-94915000D01*
X159192440Y-94315000D01*
X159143157Y-94067235D01*
X159084868Y-93980000D01*
X159143157Y-93892765D01*
X159192440Y-93645000D01*
X159192440Y-93045000D01*
X159143157Y-92797235D01*
X159084868Y-92710000D01*
X159143157Y-92622765D01*
X159192440Y-92375000D01*
X159192440Y-91775000D01*
X159143157Y-91527235D01*
X159084868Y-91440000D01*
X159143157Y-91352765D01*
X159192440Y-91105000D01*
X159192440Y-90505000D01*
X159143157Y-90257235D01*
X159084868Y-90170000D01*
X159143157Y-90082765D01*
X159192440Y-89835000D01*
X159192440Y-89662362D01*
X159869476Y-88985327D01*
X159932929Y-88942929D01*
X159975327Y-88879476D01*
X159975329Y-88879474D01*
X160083841Y-88717073D01*
X160100904Y-88691537D01*
X160145000Y-88469852D01*
X160145000Y-88469848D01*
X160159888Y-88395001D01*
X160145000Y-88320154D01*
X160145000Y-88018272D01*
X160170530Y-88035331D01*
X161270198Y-89135000D01*
X161084126Y-89135000D01*
X160703720Y-89292569D01*
X160412569Y-89583720D01*
X160255000Y-89964126D01*
X160255000Y-90375874D01*
X160412569Y-90756280D01*
X160703720Y-91047431D01*
X161084126Y-91205000D01*
X161250198Y-91205000D01*
X161334671Y-91289473D01*
X161377071Y-91352929D01*
X161628463Y-91520904D01*
X161839743Y-91562930D01*
X161797560Y-91775000D01*
X161797560Y-92375000D01*
X161846843Y-92622765D01*
X161905132Y-92710000D01*
X161846843Y-92797235D01*
X161797560Y-93045000D01*
X161797560Y-93645000D01*
X161846843Y-93892765D01*
X161905132Y-93980000D01*
X161846843Y-94067235D01*
X161797560Y-94315000D01*
X161797560Y-94915000D01*
X161846843Y-95162765D01*
X161905132Y-95250000D01*
X161846843Y-95337235D01*
X161797560Y-95585000D01*
X161797560Y-96185000D01*
X161846843Y-96432765D01*
X161987191Y-96642809D01*
X162197235Y-96783157D01*
X162445000Y-96832440D01*
X163945000Y-96832440D01*
X164192765Y-96783157D01*
X164399530Y-96645000D01*
X167002560Y-96645000D01*
X167002560Y-97945000D01*
X167051843Y-98192765D01*
X167192191Y-98402809D01*
X167253320Y-98443654D01*
X167111673Y-98585302D01*
X167015000Y-98818691D01*
X167015000Y-99409250D01*
X167173750Y-99568000D01*
X168148000Y-99568000D01*
X168148000Y-99548000D01*
X168402000Y-99548000D01*
X168402000Y-99568000D01*
X169376250Y-99568000D01*
X169535000Y-99409250D01*
X169535000Y-98818691D01*
X169438327Y-98585302D01*
X169296680Y-98443654D01*
X169357809Y-98402809D01*
X169498157Y-98192765D01*
X169547440Y-97945000D01*
X169547440Y-96645000D01*
X169865199Y-96645000D01*
X170710165Y-97489966D01*
X170700000Y-97514506D01*
X170700000Y-98065494D01*
X170910853Y-98574540D01*
X171300460Y-98964147D01*
X171809506Y-99175000D01*
X172360494Y-99175000D01*
X172869540Y-98964147D01*
X173259147Y-98574540D01*
X173470000Y-98065494D01*
X173470000Y-97514506D01*
X173259147Y-97005460D01*
X172869540Y-96615853D01*
X172360494Y-96405000D01*
X171809506Y-96405000D01*
X171784966Y-96415165D01*
X170770331Y-95400530D01*
X170727929Y-95337071D01*
X170697618Y-95316818D01*
X170927929Y-95162929D01*
X170970331Y-95099470D01*
X171784966Y-94284835D01*
X171809506Y-94295000D01*
X172360494Y-94295000D01*
X172869540Y-94084147D01*
X173259147Y-93694540D01*
X173470000Y-93185494D01*
X173470000Y-92634506D01*
X173259147Y-92125460D01*
X172869540Y-91735853D01*
X172360494Y-91525000D01*
X171809506Y-91525000D01*
X171300460Y-91735853D01*
X170910853Y-92125460D01*
X170700000Y-92634506D01*
X170700000Y-93185494D01*
X170710165Y-93210034D01*
X170065199Y-93855000D01*
X169547440Y-93855000D01*
X169547440Y-92575000D01*
X169498157Y-92327235D01*
X169357809Y-92117191D01*
X169296680Y-92076346D01*
X169438327Y-91934698D01*
X169535000Y-91701309D01*
X169535000Y-91110750D01*
X169376250Y-90952000D01*
X168402000Y-90952000D01*
X168402000Y-90972000D01*
X168148000Y-90972000D01*
X168148000Y-90952000D01*
X168128000Y-90952000D01*
X168128000Y-90698000D01*
X168148000Y-90698000D01*
X168148000Y-89598750D01*
X168402000Y-89598750D01*
X168402000Y-90698000D01*
X169376250Y-90698000D01*
X169535000Y-90539250D01*
X169535000Y-89948691D01*
X169438327Y-89715302D01*
X169259699Y-89536673D01*
X169026310Y-89440000D01*
X168560750Y-89440000D01*
X168402000Y-89598750D01*
X168148000Y-89598750D01*
X167989250Y-89440000D01*
X167855000Y-89440000D01*
X167855000Y-89040819D01*
X167972431Y-88923388D01*
X168130000Y-88542982D01*
X168130000Y-88131234D01*
X167972431Y-87750828D01*
X167681280Y-87459677D01*
X167365556Y-87328900D01*
X167247431Y-87043720D01*
X166956280Y-86752569D01*
X166575874Y-86595000D01*
X166164126Y-86595000D01*
X165783720Y-86752569D01*
X165492569Y-87043720D01*
X165335000Y-87424126D01*
X165335000Y-87835874D01*
X165492569Y-88216280D01*
X165610001Y-88333712D01*
X165610000Y-89035198D01*
X164504340Y-90140859D01*
X164543157Y-90082765D01*
X164592440Y-89835000D01*
X164592440Y-89235000D01*
X164543157Y-88987235D01*
X164484868Y-88900000D01*
X164543157Y-88812765D01*
X164592440Y-88565000D01*
X164592440Y-87965000D01*
X164543157Y-87717235D01*
X164490232Y-87638028D01*
X164580000Y-87421310D01*
X164580000Y-87280750D01*
X164421250Y-87122000D01*
X163322000Y-87122000D01*
X163322000Y-87142000D01*
X163068000Y-87142000D01*
X163068000Y-87122000D01*
X163048000Y-87122000D01*
X163048000Y-86868000D01*
X163068000Y-86868000D01*
X163068000Y-86218750D01*
X163322000Y-86218750D01*
X163322000Y-86868000D01*
X164421250Y-86868000D01*
X164580000Y-86709250D01*
X164580000Y-86568690D01*
X164483327Y-86335301D01*
X164304698Y-86156673D01*
X164071309Y-86060000D01*
X163480750Y-86060000D01*
X163322000Y-86218750D01*
X163068000Y-86218750D01*
X162909250Y-86060000D01*
X162685000Y-86060000D01*
X162685000Y-85793711D01*
X162802431Y-85676280D01*
X162960000Y-85295874D01*
X162960000Y-84884126D01*
X162834027Y-84580000D01*
X165420199Y-84580000D01*
X166520527Y-85680329D01*
X166520530Y-85680331D01*
X169589671Y-88749473D01*
X169632071Y-88812929D01*
X169883463Y-88980904D01*
X170105148Y-89025000D01*
X170105152Y-89025000D01*
X170179999Y-89039888D01*
X170254846Y-89025000D01*
X170746289Y-89025000D01*
X170863720Y-89142431D01*
X171244126Y-89300000D01*
X171655874Y-89300000D01*
X172036280Y-89142431D01*
X172327431Y-88851280D01*
X172485000Y-88470874D01*
X172485000Y-88059126D01*
X172327431Y-87678720D01*
X172036280Y-87387569D01*
X171655874Y-87230000D01*
X171244126Y-87230000D01*
X170863720Y-87387569D01*
X170746289Y-87505000D01*
X170494802Y-87505000D01*
X167595331Y-84605530D01*
X167595329Y-84605527D01*
X166325331Y-83335530D01*
X166282929Y-83272071D01*
X166031537Y-83104096D01*
X165809852Y-83060000D01*
X165809847Y-83060000D01*
X165735000Y-83045112D01*
X165660153Y-83060000D01*
X160294027Y-83060000D01*
X160420000Y-82755874D01*
X160420000Y-82344126D01*
X160262431Y-81963720D01*
X160145000Y-81846289D01*
X160145000Y-73339801D01*
X161964803Y-71520000D01*
X162130874Y-71520000D01*
X162511280Y-71362431D01*
X162802431Y-71071280D01*
X162960000Y-70690874D01*
X162960000Y-70279126D01*
X162802431Y-69898720D01*
X162511280Y-69607569D01*
X162130874Y-69450000D01*
X161719126Y-69450000D01*
X161338720Y-69607569D01*
X161221289Y-69725000D01*
X150260000Y-69725000D01*
X150260000Y-69554126D01*
X150102431Y-69173720D01*
X149811280Y-68882569D01*
X149430874Y-68725000D01*
X149019126Y-68725000D01*
X148638720Y-68882569D01*
X148521289Y-69000000D01*
X147709485Y-69000000D01*
X147762855Y-68989384D01*
X148138289Y-68738527D01*
X148389146Y-68363093D01*
X148477235Y-67920238D01*
X148389146Y-67477383D01*
X148138289Y-67101949D01*
X147762855Y-66851092D01*
X147431783Y-66785238D01*
X147208217Y-66785238D01*
X146877145Y-66851092D01*
X146685000Y-66979479D01*
X146492855Y-66851092D01*
X146161783Y-66785238D01*
X145938217Y-66785238D01*
X145607145Y-66851092D01*
X145591130Y-66861793D01*
X145406310Y-66785238D01*
X145065750Y-66785238D01*
X144907000Y-66943988D01*
X144907000Y-67793238D01*
X144918027Y-67793238D01*
X144892765Y-67920238D01*
X144918027Y-68047238D01*
X144907000Y-68047238D01*
X144907000Y-68067238D01*
X144653000Y-68067238D01*
X144653000Y-68047238D01*
X144633000Y-68047238D01*
X144633000Y-67793238D01*
X144653000Y-67793238D01*
X144653000Y-66943988D01*
X144494250Y-66785238D01*
X144153690Y-66785238D01*
X143920301Y-66881911D01*
X143847932Y-66954280D01*
X143752431Y-66723720D01*
X143461280Y-66432569D01*
X143080874Y-66275000D01*
X142669126Y-66275000D01*
X142288720Y-66432569D01*
X141997569Y-66723720D01*
X141840000Y-67104126D01*
X141840000Y-67515874D01*
X141997569Y-67896280D01*
X142115000Y-68013711D01*
X142115001Y-69725000D01*
X140053354Y-69725000D01*
X139682867Y-69354513D01*
X139192750Y-69151500D01*
X138662250Y-69151500D01*
X138172133Y-69354513D01*
X138160000Y-69366646D01*
X138160000Y-63983354D01*
X138172133Y-63995487D01*
X138662250Y-64198500D01*
X139192750Y-64198500D01*
X139682867Y-63995487D01*
X140057987Y-63620367D01*
X140261000Y-63130250D01*
X140261000Y-62599750D01*
X140057987Y-62109633D01*
X139682867Y-61734513D01*
X139192750Y-61531500D01*
X138662250Y-61531500D01*
X138172133Y-61734513D01*
X138160000Y-61746646D01*
X138160000Y-59484126D01*
X146285000Y-59484126D01*
X146285000Y-59895874D01*
X146442569Y-60276280D01*
X146733720Y-60567431D01*
X147114126Y-60725000D01*
X147525874Y-60725000D01*
X147906280Y-60567431D01*
X148023711Y-60450000D01*
X157080000Y-60450000D01*
X157080000Y-60530874D01*
X157237569Y-60911280D01*
X157528720Y-61202431D01*
X157909126Y-61360000D01*
X158320874Y-61360000D01*
X158701280Y-61202431D01*
X158992431Y-60911280D01*
X159150000Y-60530874D01*
X159150000Y-60119126D01*
X158992431Y-59738720D01*
X158701280Y-59447569D01*
X158320874Y-59290000D01*
X158154801Y-59290000D01*
X158070331Y-59205530D01*
X158027929Y-59142071D01*
X157776537Y-58974096D01*
X157554852Y-58930000D01*
X157554847Y-58930000D01*
X157480000Y-58915112D01*
X157405153Y-58930000D01*
X148023711Y-58930000D01*
X147906280Y-58812569D01*
X147525874Y-58655000D01*
X147114126Y-58655000D01*
X146733720Y-58812569D01*
X146442569Y-59103720D01*
X146285000Y-59484126D01*
X138160000Y-59484126D01*
X138160000Y-57827238D01*
X141647239Y-54340000D01*
X155413970Y-54340000D01*
X155575000Y-54372031D01*
X155736030Y-54340000D01*
X155736031Y-54340000D01*
X156212945Y-54245136D01*
X156753769Y-53883769D01*
X156844988Y-53747250D01*
X161062253Y-49529986D01*
X161198769Y-49438769D01*
X161560136Y-48897945D01*
X161655000Y-48421031D01*
X161655000Y-48421027D01*
X161687030Y-48260001D01*
X161655000Y-48098975D01*
X161655000Y-40640000D01*
X163534928Y-40640000D01*
X163654062Y-41238927D01*
X163950696Y-41682871D01*
X163742191Y-41822191D01*
X163601843Y-42032235D01*
X163552560Y-42280000D01*
X163552560Y-44080000D01*
X163601843Y-44327765D01*
X163742191Y-44537809D01*
X163952235Y-44678157D01*
X164200000Y-44727440D01*
X166000000Y-44727440D01*
X166247765Y-44678157D01*
X166457809Y-44537809D01*
X166598157Y-44327765D01*
X166647440Y-44080000D01*
X166647440Y-42280000D01*
X166598157Y-42032235D01*
X166457809Y-41822191D01*
X166249304Y-41682871D01*
X166545938Y-41238927D01*
X166665072Y-40640000D01*
X166545938Y-40041073D01*
X166206673Y-39533327D01*
X165950826Y-39362376D01*
X166337966Y-39007576D01*
X166591046Y-38464742D01*
X166470997Y-38227000D01*
X165227000Y-38227000D01*
X165227000Y-38247000D01*
X164973000Y-38247000D01*
X164973000Y-38227000D01*
X163729003Y-38227000D01*
X163608954Y-38464742D01*
X163862034Y-39007576D01*
X164249174Y-39362376D01*
X163993327Y-39533327D01*
X163654062Y-40041073D01*
X163534928Y-40640000D01*
X161655000Y-40640000D01*
X161655000Y-37735258D01*
X163608954Y-37735258D01*
X163729003Y-37973000D01*
X164973000Y-37973000D01*
X164973000Y-36729622D01*
X165227000Y-36729622D01*
X165227000Y-37973000D01*
X166470997Y-37973000D01*
X166591046Y-37735258D01*
X166337966Y-37192424D01*
X165896417Y-36787760D01*
X165464740Y-36608964D01*
X165227000Y-36729622D01*
X164973000Y-36729622D01*
X164735260Y-36608964D01*
X164303583Y-36787760D01*
X163862034Y-37192424D01*
X163608954Y-37735258D01*
X161655000Y-37735258D01*
X161655000Y-29048969D01*
X161560136Y-28572055D01*
X161198769Y-28031231D01*
X160657945Y-27669864D01*
X160020000Y-27542969D01*
X159382056Y-27669864D01*
X158841232Y-28031231D01*
X158659799Y-28302765D01*
X158550625Y-28139375D01*
X158059418Y-27811161D01*
X157626256Y-27725000D01*
X157333744Y-27725000D01*
X156900582Y-27811161D01*
X156409375Y-28139375D01*
X156210000Y-28437761D01*
X156010625Y-28139375D01*
X155519418Y-27811161D01*
X155086256Y-27725000D01*
X154793744Y-27725000D01*
X154360582Y-27811161D01*
X153869375Y-28139375D01*
X153857184Y-28157619D01*
X153848157Y-28112235D01*
X153707809Y-27902191D01*
X153497765Y-27761843D01*
X153250000Y-27712560D01*
X151550000Y-27712560D01*
X151302235Y-27761843D01*
X151092191Y-27902191D01*
X150951843Y-28112235D01*
X150902560Y-28360000D01*
X150902560Y-30060000D01*
X150951843Y-30307765D01*
X151092191Y-30517809D01*
X151302235Y-30658157D01*
X151550000Y-30707440D01*
X153250000Y-30707440D01*
X153497765Y-30658157D01*
X153707809Y-30517809D01*
X153848157Y-30307765D01*
X153857184Y-30262381D01*
X153869375Y-30280625D01*
X154360582Y-30608839D01*
X154793744Y-30695000D01*
X155086256Y-30695000D01*
X155519418Y-30608839D01*
X156010625Y-30280625D01*
X156210000Y-29982239D01*
X156409375Y-30280625D01*
X156900582Y-30608839D01*
X157333744Y-30695000D01*
X157626256Y-30695000D01*
X158059418Y-30608839D01*
X158385001Y-30391291D01*
X158385000Y-47582761D01*
X154897762Y-51070000D01*
X141131025Y-51070000D01*
X140969999Y-51037970D01*
X140808973Y-51070000D01*
X140808969Y-51070000D01*
X140332055Y-51164864D01*
X139791231Y-51526231D01*
X139700014Y-51662747D01*
X135482748Y-55880014D01*
X135346232Y-55971231D01*
X135255015Y-56107747D01*
X134984865Y-56512055D01*
X134857969Y-57150000D01*
X134890001Y-57311035D01*
X134890001Y-62138760D01*
X134781688Y-62110417D01*
X134027105Y-62865000D01*
X133667895Y-62865000D01*
X132913312Y-62110417D01*
X132677700Y-62172071D01*
X132501573Y-62672480D01*
X129667000Y-62672480D01*
X129667000Y-61930812D01*
X133092917Y-61930812D01*
X133847500Y-62685395D01*
X134602083Y-61930812D01*
X134540429Y-61695200D01*
X134040020Y-61519073D01*
X133510301Y-61547852D01*
X133154571Y-61695200D01*
X133092917Y-61930812D01*
X129667000Y-61930812D01*
X129667000Y-40640000D01*
X143214928Y-40640000D01*
X143334062Y-41238927D01*
X143630696Y-41682871D01*
X143422191Y-41822191D01*
X143281843Y-42032235D01*
X143232560Y-42280000D01*
X143232560Y-44080000D01*
X143281843Y-44327765D01*
X143422191Y-44537809D01*
X143632235Y-44678157D01*
X143880000Y-44727440D01*
X145680000Y-44727440D01*
X145927765Y-44678157D01*
X146137809Y-44537809D01*
X146278157Y-44327765D01*
X146327440Y-44080000D01*
X146327440Y-42280000D01*
X146278157Y-42032235D01*
X146137809Y-41822191D01*
X145929304Y-41682871D01*
X146225938Y-41238927D01*
X146345072Y-40640000D01*
X153374928Y-40640000D01*
X153494062Y-41238927D01*
X153790696Y-41682871D01*
X153582191Y-41822191D01*
X153441843Y-42032235D01*
X153392560Y-42280000D01*
X153392560Y-44080000D01*
X153441843Y-44327765D01*
X153582191Y-44537809D01*
X153792235Y-44678157D01*
X154040000Y-44727440D01*
X155840000Y-44727440D01*
X156087765Y-44678157D01*
X156297809Y-44537809D01*
X156438157Y-44327765D01*
X156487440Y-44080000D01*
X156487440Y-42280000D01*
X156438157Y-42032235D01*
X156297809Y-41822191D01*
X156089304Y-41682871D01*
X156385938Y-41238927D01*
X156505072Y-40640000D01*
X156385938Y-40041073D01*
X156046673Y-39533327D01*
X155790826Y-39362376D01*
X156177966Y-39007576D01*
X156431046Y-38464742D01*
X156310997Y-38227000D01*
X155067000Y-38227000D01*
X155067000Y-38247000D01*
X154813000Y-38247000D01*
X154813000Y-38227000D01*
X153569003Y-38227000D01*
X153448954Y-38464742D01*
X153702034Y-39007576D01*
X154089174Y-39362376D01*
X153833327Y-39533327D01*
X153494062Y-40041073D01*
X153374928Y-40640000D01*
X146345072Y-40640000D01*
X146225938Y-40041073D01*
X145886673Y-39533327D01*
X145630826Y-39362376D01*
X146017966Y-39007576D01*
X146271046Y-38464742D01*
X146150997Y-38227000D01*
X144907000Y-38227000D01*
X144907000Y-38247000D01*
X144653000Y-38247000D01*
X144653000Y-38227000D01*
X143409003Y-38227000D01*
X143288954Y-38464742D01*
X143542034Y-39007576D01*
X143929174Y-39362376D01*
X143673327Y-39533327D01*
X143334062Y-40041073D01*
X143214928Y-40640000D01*
X129667000Y-40640000D01*
X129667000Y-37735258D01*
X143288954Y-37735258D01*
X143409003Y-37973000D01*
X144653000Y-37973000D01*
X144653000Y-36729622D01*
X144907000Y-36729622D01*
X144907000Y-37973000D01*
X146150997Y-37973000D01*
X146271046Y-37735258D01*
X153448954Y-37735258D01*
X153569003Y-37973000D01*
X154813000Y-37973000D01*
X154813000Y-36729622D01*
X155067000Y-36729622D01*
X155067000Y-37973000D01*
X156310997Y-37973000D01*
X156431046Y-37735258D01*
X156177966Y-37192424D01*
X155736417Y-36787760D01*
X155304740Y-36608964D01*
X155067000Y-36729622D01*
X154813000Y-36729622D01*
X154575260Y-36608964D01*
X154143583Y-36787760D01*
X153702034Y-37192424D01*
X153448954Y-37735258D01*
X146271046Y-37735258D01*
X146017966Y-37192424D01*
X145576417Y-36787760D01*
X145144740Y-36608964D01*
X144907000Y-36729622D01*
X144653000Y-36729622D01*
X144415260Y-36608964D01*
X143983583Y-36787760D01*
X143542034Y-37192424D01*
X143288954Y-37735258D01*
X129667000Y-37735258D01*
X129667000Y-31654824D01*
X130134229Y-32122053D01*
X131396736Y-32645000D01*
X132763264Y-32645000D01*
X134025771Y-32122053D01*
X134992053Y-31155771D01*
X135515000Y-29893264D01*
X135515000Y-28526736D01*
X134992053Y-27264229D01*
X134524824Y-26797000D01*
X172815176Y-26797000D01*
X172347947Y-27264229D01*
X172347947Y-27264229D01*
G37*
X172347947Y-27264229D02*
X171825000Y-28526736D01*
X171825000Y-29893264D01*
X172347947Y-31155771D01*
X173314229Y-32122053D01*
X174576736Y-32645000D01*
X175943264Y-32645000D01*
X177205771Y-32122053D01*
X177673000Y-31654824D01*
X177673000Y-60833000D01*
X168910000Y-60833000D01*
X168861399Y-60842667D01*
X168820197Y-60870197D01*
X168792667Y-60911399D01*
X168783000Y-60960000D01*
X168783000Y-80010000D01*
X168792667Y-80058601D01*
X168820197Y-80099803D01*
X168861399Y-80127333D01*
X168910000Y-80137000D01*
X177673000Y-80137000D01*
X177673000Y-81625000D01*
X177043364Y-81625000D01*
X176683127Y-81696656D01*
X176274615Y-81969615D01*
X176001656Y-82378127D01*
X175905805Y-82860000D01*
X175947390Y-83069060D01*
X175585378Y-82707048D01*
X175085521Y-82500000D01*
X174544479Y-82500000D01*
X174044622Y-82707048D01*
X173662048Y-83089622D01*
X173455000Y-83589479D01*
X173455000Y-84130521D01*
X173662048Y-84630378D01*
X174044622Y-85012952D01*
X174544479Y-85220000D01*
X175085521Y-85220000D01*
X175585378Y-85012952D01*
X175967952Y-84630378D01*
X176175000Y-84130521D01*
X176175000Y-83601301D01*
X176274615Y-83750385D01*
X176683127Y-84023344D01*
X177043364Y-84095000D01*
X177673000Y-84095000D01*
X177673000Y-88625000D01*
X177043364Y-88625000D01*
X176683127Y-88696656D01*
X176274615Y-88969615D01*
X176175000Y-89118699D01*
X176175000Y-88589479D01*
X175967952Y-88089622D01*
X175585378Y-87707048D01*
X175085521Y-87500000D01*
X174544479Y-87500000D01*
X174044622Y-87707048D01*
X173662048Y-88089622D01*
X173455000Y-88589479D01*
X173455000Y-89130521D01*
X173662048Y-89630378D01*
X174044622Y-90012952D01*
X174544479Y-90220000D01*
X175085521Y-90220000D01*
X175585378Y-90012952D01*
X175947390Y-89650940D01*
X175905805Y-89860000D01*
X176001656Y-90341873D01*
X176274615Y-90750385D01*
X176683127Y-91023344D01*
X177043364Y-91095000D01*
X177673000Y-91095000D01*
X177673000Y-101695176D01*
X177205771Y-101227947D01*
X175943264Y-100705000D01*
X174576736Y-100705000D01*
X173314229Y-101227947D01*
X172347947Y-102194229D01*
X171825000Y-103456736D01*
X171825000Y-104823264D01*
X172347947Y-106085771D01*
X172815176Y-106553000D01*
X134524824Y-106553000D01*
X134992053Y-106085771D01*
X135515000Y-104823264D01*
X135515000Y-103456736D01*
X134992053Y-102194229D01*
X134147283Y-101349459D01*
X141050146Y-101349459D01*
X141185504Y-101647455D01*
X141903880Y-101924066D01*
X142673427Y-101904710D01*
X143294496Y-101647455D01*
X143429854Y-101349459D01*
X142240000Y-100159605D01*
X141050146Y-101349459D01*
X134147283Y-101349459D01*
X134025771Y-101227947D01*
X132763264Y-100705000D01*
X131396736Y-100705000D01*
X130134229Y-101227947D01*
X129667000Y-101695176D01*
X129667000Y-99643880D01*
X140295934Y-99643880D01*
X140315290Y-100413427D01*
X140572545Y-101034496D01*
X140870541Y-101169854D01*
X142060395Y-99980000D01*
X142419605Y-99980000D01*
X143609459Y-101169854D01*
X143907455Y-101034496D01*
X144184066Y-100316120D01*
X144175631Y-99980750D01*
X167015000Y-99980750D01*
X167015000Y-100571309D01*
X167111673Y-100804698D01*
X167290301Y-100983327D01*
X167523690Y-101080000D01*
X167989250Y-101080000D01*
X168148000Y-100921250D01*
X168148000Y-99822000D01*
X168402000Y-99822000D01*
X168402000Y-100921250D01*
X168560750Y-101080000D01*
X169026310Y-101080000D01*
X169259699Y-100983327D01*
X169438327Y-100804698D01*
X169535000Y-100571309D01*
X169535000Y-99980750D01*
X169376250Y-99822000D01*
X168402000Y-99822000D01*
X168148000Y-99822000D01*
X167173750Y-99822000D01*
X167015000Y-99980750D01*
X144175631Y-99980750D01*
X144164710Y-99546573D01*
X143907455Y-98925504D01*
X143609459Y-98790146D01*
X142419605Y-99980000D01*
X142060395Y-99980000D01*
X140870541Y-98790146D01*
X140572545Y-98925504D01*
X140295934Y-99643880D01*
X129667000Y-99643880D01*
X129667000Y-98610541D01*
X141050146Y-98610541D01*
X142240000Y-99800395D01*
X143429854Y-98610541D01*
X143311264Y-98349459D01*
X145750146Y-98349459D01*
X145885504Y-98647455D01*
X146603880Y-98924066D01*
X147373427Y-98904710D01*
X147994496Y-98647455D01*
X148129854Y-98349459D01*
X146940000Y-97159605D01*
X145750146Y-98349459D01*
X143311264Y-98349459D01*
X143294496Y-98312545D01*
X142576120Y-98035934D01*
X141806573Y-98055290D01*
X141185504Y-98312545D01*
X141050146Y-98610541D01*
X129667000Y-98610541D01*
X129667000Y-96643880D01*
X144995934Y-96643880D01*
X145015290Y-97413427D01*
X145272545Y-98034496D01*
X145570541Y-98169854D01*
X146760395Y-96980000D01*
X147119605Y-96980000D01*
X148309459Y-98169854D01*
X148607455Y-98034496D01*
X148884066Y-97316120D01*
X148864710Y-96546573D01*
X148607455Y-95925504D01*
X148309459Y-95790146D01*
X147119605Y-96980000D01*
X146760395Y-96980000D01*
X145570541Y-95790146D01*
X145272545Y-95925504D01*
X144995934Y-96643880D01*
X129667000Y-96643880D01*
X129667000Y-76485750D01*
X132450000Y-76485750D01*
X132450000Y-77226310D01*
X132546673Y-77459699D01*
X132725302Y-77638327D01*
X132958691Y-77735000D01*
X133699250Y-77735000D01*
X133858000Y-77576250D01*
X133858000Y-76327000D01*
X132608750Y-76327000D01*
X132450000Y-76485750D01*
X129667000Y-76485750D01*
X129667000Y-75173690D01*
X132450000Y-75173690D01*
X132450000Y-75914250D01*
X132608750Y-76073000D01*
X133858000Y-76073000D01*
X133858000Y-74823750D01*
X133699250Y-74665000D01*
X132958691Y-74665000D01*
X132725302Y-74761673D01*
X132546673Y-74940301D01*
X132450000Y-75173690D01*
X129667000Y-75173690D01*
X129667000Y-71419188D01*
X133092917Y-71419188D01*
X133154571Y-71654800D01*
X133654980Y-71830927D01*
X134184699Y-71802148D01*
X134540429Y-71654800D01*
X134602083Y-71419188D01*
X133847500Y-70664605D01*
X133092917Y-71419188D01*
X129667000Y-71419188D01*
X129667000Y-70292480D01*
X132501573Y-70292480D01*
X132530352Y-70822199D01*
X132677700Y-71177929D01*
X132913312Y-71239583D01*
X133667895Y-70485000D01*
X132913312Y-69730417D01*
X132677700Y-69792071D01*
X132501573Y-70292480D01*
X129667000Y-70292480D01*
X129667000Y-69550812D01*
X133092917Y-69550812D01*
X133847500Y-70305395D01*
X134602083Y-69550812D01*
X134540429Y-69315200D01*
X134040020Y-69139073D01*
X133510301Y-69167852D01*
X133154571Y-69315200D01*
X133092917Y-69550812D01*
X129667000Y-69550812D01*
X129667000Y-63799188D01*
X133092917Y-63799188D01*
X133154571Y-64034800D01*
X133654980Y-64210927D01*
X134184699Y-64182148D01*
X134540429Y-64034800D01*
X134602083Y-63799188D01*
X133847500Y-63044605D01*
X133092917Y-63799188D01*
X129667000Y-63799188D01*
X129667000Y-62672480D01*
X132501573Y-62672480D01*
X132530352Y-63202199D01*
X132677700Y-63557929D01*
X132913312Y-63619583D01*
X133667895Y-62865000D01*
X134027105Y-62865000D01*
X134781688Y-63619583D01*
X134890001Y-63591240D01*
X134890000Y-69758760D01*
X134781688Y-69730417D01*
X134027105Y-70485000D01*
X134781688Y-71239583D01*
X134919860Y-71203427D01*
X134984864Y-71530226D01*
X135346231Y-72071051D01*
X135482750Y-72162270D01*
X138231367Y-74910888D01*
X137958327Y-75093327D01*
X137795000Y-75337763D01*
X137631673Y-75093327D01*
X137123927Y-74754062D01*
X136676182Y-74665000D01*
X136373818Y-74665000D01*
X135926073Y-74754062D01*
X135471888Y-75057538D01*
X135423327Y-74940301D01*
X135244698Y-74761673D01*
X135011309Y-74665000D01*
X134270750Y-74665000D01*
X134112000Y-74823750D01*
X134112000Y-76073000D01*
X134132000Y-76073000D01*
X134132000Y-76327000D01*
X134112000Y-76327000D01*
X134112000Y-77576250D01*
X134270750Y-77735000D01*
X135011309Y-77735000D01*
X135244698Y-77638327D01*
X135423327Y-77459699D01*
X135471888Y-77342462D01*
X135926073Y-77645938D01*
X136373818Y-77735000D01*
X136676182Y-77735000D01*
X137123927Y-77645938D01*
X137631673Y-77306673D01*
X137795000Y-77062237D01*
X137958327Y-77306673D01*
X138466073Y-77645938D01*
X138913818Y-77735000D01*
X139216182Y-77735000D01*
X139663927Y-77645938D01*
X140171673Y-77306673D01*
X140354112Y-77033634D01*
X140605001Y-77284523D01*
X140605000Y-88103969D01*
X140605000Y-88103970D01*
X140605001Y-92140132D01*
X140482191Y-92222191D01*
X140341843Y-92432235D01*
X140292560Y-92680000D01*
X140292560Y-95280000D01*
X140341843Y-95527765D01*
X140482191Y-95737809D01*
X140692235Y-95878157D01*
X140940000Y-95927440D01*
X143540000Y-95927440D01*
X143787765Y-95878157D01*
X143997809Y-95737809D01*
X144082847Y-95610541D01*
X145750146Y-95610541D01*
X146940000Y-96800395D01*
X148129854Y-95610541D01*
X147994496Y-95312545D01*
X147276120Y-95035934D01*
X146506573Y-95055290D01*
X145885504Y-95312545D01*
X145750146Y-95610541D01*
X144082847Y-95610541D01*
X144138157Y-95527765D01*
X144187440Y-95280000D01*
X144187440Y-92680000D01*
X144138157Y-92432235D01*
X143997809Y-92222191D01*
X143875000Y-92140132D01*
X143875000Y-76768313D01*
X143907031Y-76607282D01*
X143780136Y-75969336D01*
X143509986Y-75565028D01*
X143509984Y-75565026D01*
X143418769Y-75428513D01*
X143282256Y-75337298D01*
X139596301Y-71651344D01*
X139682867Y-71615487D01*
X140053354Y-71245000D01*
X143435152Y-71245000D01*
X143510000Y-71259888D01*
X143584848Y-71245000D01*
X160090198Y-71245000D01*
X158900528Y-72434671D01*
X158837072Y-72477071D01*
X158794672Y-72540527D01*
X158794671Y-72540528D01*
X158669097Y-72728463D01*
X158610112Y-73025000D01*
X158625001Y-73099852D01*
X158625000Y-79735973D01*
X158320874Y-79610000D01*
X157909126Y-79610000D01*
X157528720Y-79767569D01*
X157411289Y-79885000D01*
X156278711Y-79885000D01*
X156161280Y-79767569D01*
X155780874Y-79610000D01*
X155369126Y-79610000D01*
X154988720Y-79767569D01*
X154697569Y-80058720D01*
X154540000Y-80439126D01*
X154540000Y-80850874D01*
X154697569Y-81231280D01*
X154988720Y-81522431D01*
X155369126Y-81680000D01*
X155780874Y-81680000D01*
X156161280Y-81522431D01*
X156278711Y-81405000D01*
X157411289Y-81405000D01*
X157528720Y-81522431D01*
X157909126Y-81680000D01*
X158320874Y-81680000D01*
X158625000Y-81554027D01*
X158625000Y-81846289D01*
X158507569Y-81963720D01*
X158350000Y-82344126D01*
X158350000Y-82755874D01*
X158475973Y-83060000D01*
X151198711Y-83060000D01*
X151081280Y-82942569D01*
X150700874Y-82785000D01*
X150289126Y-82785000D01*
X149985000Y-82910973D01*
X149985000Y-74363711D01*
X150102431Y-74246280D01*
X150260000Y-73865874D01*
X150260000Y-73454126D01*
X150102431Y-73073720D01*
X149811280Y-72782569D01*
X149430874Y-72625000D01*
X149019126Y-72625000D01*
X148638720Y-72782569D01*
X148347569Y-73073720D01*
X148190000Y-73454126D01*
X148190000Y-73865874D01*
X148347569Y-74246280D01*
X148465001Y-74363712D01*
X148465000Y-85650153D01*
X148450112Y-85725000D01*
X148465000Y-85799847D01*
X148465000Y-85799851D01*
X148509096Y-86021536D01*
X148677071Y-86272929D01*
X148740530Y-86315331D01*
X153079670Y-90654472D01*
X153122071Y-90717929D01*
X153373463Y-90885904D01*
X153595148Y-90930000D01*
X153595152Y-90930000D01*
X153669999Y-90944888D01*
X153744846Y-90930000D01*
X155895199Y-90930000D01*
X156254671Y-91289473D01*
X156297071Y-91352929D01*
X156481134Y-91475916D01*
X156446843Y-91527235D01*
X156397560Y-91775000D01*
X156397560Y-92375000D01*
X156446843Y-92622765D01*
X156505132Y-92710000D01*
X156446843Y-92797235D01*
X156397560Y-93045000D01*
X156397560Y-93645000D01*
X156446843Y-93892765D01*
X156505132Y-93980000D01*
X156446843Y-94067235D01*
X156397560Y-94315000D01*
X156397560Y-94915000D01*
X156446843Y-95162765D01*
X156505132Y-95250000D01*
X156446843Y-95337235D01*
X156397560Y-95585000D01*
X156397560Y-96185000D01*
X156446843Y-96432765D01*
X156587191Y-96642809D01*
X156797235Y-96783157D01*
X157045000Y-96832440D01*
X158545000Y-96832440D01*
X158792765Y-96783157D01*
X159002809Y-96642809D01*
X159143157Y-96432765D01*
X159192440Y-96185000D01*
X159192440Y-95585000D01*
X159143157Y-95337235D01*
X159084868Y-95250000D01*
X159143157Y-95162765D01*
X159192440Y-94915000D01*
X159192440Y-94315000D01*
X159143157Y-94067235D01*
X159084868Y-93980000D01*
X159143157Y-93892765D01*
X159192440Y-93645000D01*
X159192440Y-93045000D01*
X159143157Y-92797235D01*
X159084868Y-92710000D01*
X159143157Y-92622765D01*
X159192440Y-92375000D01*
X159192440Y-91775000D01*
X159143157Y-91527235D01*
X159084868Y-91440000D01*
X159143157Y-91352765D01*
X159192440Y-91105000D01*
X159192440Y-90505000D01*
X159143157Y-90257235D01*
X159084868Y-90170000D01*
X159143157Y-90082765D01*
X159192440Y-89835000D01*
X159192440Y-89662362D01*
X159869476Y-88985327D01*
X159932929Y-88942929D01*
X159975327Y-88879476D01*
X159975329Y-88879474D01*
X160083841Y-88717073D01*
X160100904Y-88691537D01*
X160145000Y-88469852D01*
X160145000Y-88469848D01*
X160159888Y-88395001D01*
X160145000Y-88320154D01*
X160145000Y-88018272D01*
X160170530Y-88035331D01*
X161270198Y-89135000D01*
X161084126Y-89135000D01*
X160703720Y-89292569D01*
X160412569Y-89583720D01*
X160255000Y-89964126D01*
X160255000Y-90375874D01*
X160412569Y-90756280D01*
X160703720Y-91047431D01*
X161084126Y-91205000D01*
X161250198Y-91205000D01*
X161334671Y-91289473D01*
X161377071Y-91352929D01*
X161628463Y-91520904D01*
X161839743Y-91562930D01*
X161797560Y-91775000D01*
X161797560Y-92375000D01*
X161846843Y-92622765D01*
X161905132Y-92710000D01*
X161846843Y-92797235D01*
X161797560Y-93045000D01*
X161797560Y-93645000D01*
X161846843Y-93892765D01*
X161905132Y-93980000D01*
X161846843Y-94067235D01*
X161797560Y-94315000D01*
X161797560Y-94915000D01*
X161846843Y-95162765D01*
X161905132Y-95250000D01*
X161846843Y-95337235D01*
X161797560Y-95585000D01*
X161797560Y-96185000D01*
X161846843Y-96432765D01*
X161987191Y-96642809D01*
X162197235Y-96783157D01*
X162445000Y-96832440D01*
X163945000Y-96832440D01*
X164192765Y-96783157D01*
X164399530Y-96645000D01*
X167002560Y-96645000D01*
X167002560Y-97945000D01*
X167051843Y-98192765D01*
X167192191Y-98402809D01*
X167253320Y-98443654D01*
X167111673Y-98585302D01*
X167015000Y-98818691D01*
X167015000Y-99409250D01*
X167173750Y-99568000D01*
X168148000Y-99568000D01*
X168148000Y-99548000D01*
X168402000Y-99548000D01*
X168402000Y-99568000D01*
X169376250Y-99568000D01*
X169535000Y-99409250D01*
X169535000Y-98818691D01*
X169438327Y-98585302D01*
X169296680Y-98443654D01*
X169357809Y-98402809D01*
X169498157Y-98192765D01*
X169547440Y-97945000D01*
X169547440Y-96645000D01*
X169865199Y-96645000D01*
X170710165Y-97489966D01*
X170700000Y-97514506D01*
X170700000Y-98065494D01*
X170910853Y-98574540D01*
X171300460Y-98964147D01*
X171809506Y-99175000D01*
X172360494Y-99175000D01*
X172869540Y-98964147D01*
X173259147Y-98574540D01*
X173470000Y-98065494D01*
X173470000Y-97514506D01*
X173259147Y-97005460D01*
X172869540Y-96615853D01*
X172360494Y-96405000D01*
X171809506Y-96405000D01*
X171784966Y-96415165D01*
X170770331Y-95400530D01*
X170727929Y-95337071D01*
X170697618Y-95316818D01*
X170927929Y-95162929D01*
X170970331Y-95099470D01*
X171784966Y-94284835D01*
X171809506Y-94295000D01*
X172360494Y-94295000D01*
X172869540Y-94084147D01*
X173259147Y-93694540D01*
X173470000Y-93185494D01*
X173470000Y-92634506D01*
X173259147Y-92125460D01*
X172869540Y-91735853D01*
X172360494Y-91525000D01*
X171809506Y-91525000D01*
X171300460Y-91735853D01*
X170910853Y-92125460D01*
X170700000Y-92634506D01*
X170700000Y-93185494D01*
X170710165Y-93210034D01*
X170065199Y-93855000D01*
X169547440Y-93855000D01*
X169547440Y-92575000D01*
X169498157Y-92327235D01*
X169357809Y-92117191D01*
X169296680Y-92076346D01*
X169438327Y-91934698D01*
X169535000Y-91701309D01*
X169535000Y-91110750D01*
X169376250Y-90952000D01*
X168402000Y-90952000D01*
X168402000Y-90972000D01*
X168148000Y-90972000D01*
X168148000Y-90952000D01*
X168128000Y-90952000D01*
X168128000Y-90698000D01*
X168148000Y-90698000D01*
X168148000Y-89598750D01*
X168402000Y-89598750D01*
X168402000Y-90698000D01*
X169376250Y-90698000D01*
X169535000Y-90539250D01*
X169535000Y-89948691D01*
X169438327Y-89715302D01*
X169259699Y-89536673D01*
X169026310Y-89440000D01*
X168560750Y-89440000D01*
X168402000Y-89598750D01*
X168148000Y-89598750D01*
X167989250Y-89440000D01*
X167855000Y-89440000D01*
X167855000Y-89040819D01*
X167972431Y-88923388D01*
X168130000Y-88542982D01*
X168130000Y-88131234D01*
X167972431Y-87750828D01*
X167681280Y-87459677D01*
X167365556Y-87328900D01*
X167247431Y-87043720D01*
X166956280Y-86752569D01*
X166575874Y-86595000D01*
X166164126Y-86595000D01*
X165783720Y-86752569D01*
X165492569Y-87043720D01*
X165335000Y-87424126D01*
X165335000Y-87835874D01*
X165492569Y-88216280D01*
X165610001Y-88333712D01*
X165610000Y-89035198D01*
X164504340Y-90140859D01*
X164543157Y-90082765D01*
X164592440Y-89835000D01*
X164592440Y-89235000D01*
X164543157Y-88987235D01*
X164484868Y-88900000D01*
X164543157Y-88812765D01*
X164592440Y-88565000D01*
X164592440Y-87965000D01*
X164543157Y-87717235D01*
X164490232Y-87638028D01*
X164580000Y-87421310D01*
X164580000Y-87280750D01*
X164421250Y-87122000D01*
X163322000Y-87122000D01*
X163322000Y-87142000D01*
X163068000Y-87142000D01*
X163068000Y-87122000D01*
X163048000Y-87122000D01*
X163048000Y-86868000D01*
X163068000Y-86868000D01*
X163068000Y-86218750D01*
X163322000Y-86218750D01*
X163322000Y-86868000D01*
X164421250Y-86868000D01*
X164580000Y-86709250D01*
X164580000Y-86568690D01*
X164483327Y-86335301D01*
X164304698Y-86156673D01*
X164071309Y-86060000D01*
X163480750Y-86060000D01*
X163322000Y-86218750D01*
X163068000Y-86218750D01*
X162909250Y-86060000D01*
X162685000Y-86060000D01*
X162685000Y-85793711D01*
X162802431Y-85676280D01*
X162960000Y-85295874D01*
X162960000Y-84884126D01*
X162834027Y-84580000D01*
X165420199Y-84580000D01*
X166520527Y-85680329D01*
X166520530Y-85680331D01*
X169589671Y-88749473D01*
X169632071Y-88812929D01*
X169883463Y-88980904D01*
X170105148Y-89025000D01*
X170105152Y-89025000D01*
X170179999Y-89039888D01*
X170254846Y-89025000D01*
X170746289Y-89025000D01*
X170863720Y-89142431D01*
X171244126Y-89300000D01*
X171655874Y-89300000D01*
X172036280Y-89142431D01*
X172327431Y-88851280D01*
X172485000Y-88470874D01*
X172485000Y-88059126D01*
X172327431Y-87678720D01*
X172036280Y-87387569D01*
X171655874Y-87230000D01*
X171244126Y-87230000D01*
X170863720Y-87387569D01*
X170746289Y-87505000D01*
X170494802Y-87505000D01*
X167595331Y-84605530D01*
X167595329Y-84605527D01*
X166325331Y-83335530D01*
X166282929Y-83272071D01*
X166031537Y-83104096D01*
X165809852Y-83060000D01*
X165809847Y-83060000D01*
X165735000Y-83045112D01*
X165660153Y-83060000D01*
X160294027Y-83060000D01*
X160420000Y-82755874D01*
X160420000Y-82344126D01*
X160262431Y-81963720D01*
X160145000Y-81846289D01*
X160145000Y-73339801D01*
X161964803Y-71520000D01*
X162130874Y-71520000D01*
X162511280Y-71362431D01*
X162802431Y-71071280D01*
X162960000Y-70690874D01*
X162960000Y-70279126D01*
X162802431Y-69898720D01*
X162511280Y-69607569D01*
X162130874Y-69450000D01*
X161719126Y-69450000D01*
X161338720Y-69607569D01*
X161221289Y-69725000D01*
X150260000Y-69725000D01*
X150260000Y-69554126D01*
X150102431Y-69173720D01*
X149811280Y-68882569D01*
X149430874Y-68725000D01*
X149019126Y-68725000D01*
X148638720Y-68882569D01*
X148521289Y-69000000D01*
X147709485Y-69000000D01*
X147762855Y-68989384D01*
X148138289Y-68738527D01*
X148389146Y-68363093D01*
X148477235Y-67920238D01*
X148389146Y-67477383D01*
X148138289Y-67101949D01*
X147762855Y-66851092D01*
X147431783Y-66785238D01*
X147208217Y-66785238D01*
X146877145Y-66851092D01*
X146685000Y-66979479D01*
X146492855Y-66851092D01*
X146161783Y-66785238D01*
X145938217Y-66785238D01*
X145607145Y-66851092D01*
X145591130Y-66861793D01*
X145406310Y-66785238D01*
X145065750Y-66785238D01*
X144907000Y-66943988D01*
X144907000Y-67793238D01*
X144918027Y-67793238D01*
X144892765Y-67920238D01*
X144918027Y-68047238D01*
X144907000Y-68047238D01*
X144907000Y-68067238D01*
X144653000Y-68067238D01*
X144653000Y-68047238D01*
X144633000Y-68047238D01*
X144633000Y-67793238D01*
X144653000Y-67793238D01*
X144653000Y-66943988D01*
X144494250Y-66785238D01*
X144153690Y-66785238D01*
X143920301Y-66881911D01*
X143847932Y-66954280D01*
X143752431Y-66723720D01*
X143461280Y-66432569D01*
X143080874Y-66275000D01*
X142669126Y-66275000D01*
X142288720Y-66432569D01*
X141997569Y-66723720D01*
X141840000Y-67104126D01*
X141840000Y-67515874D01*
X141997569Y-67896280D01*
X142115000Y-68013711D01*
X142115001Y-69725000D01*
X140053354Y-69725000D01*
X139682867Y-69354513D01*
X139192750Y-69151500D01*
X138662250Y-69151500D01*
X138172133Y-69354513D01*
X138160000Y-69366646D01*
X138160000Y-63983354D01*
X138172133Y-63995487D01*
X138662250Y-64198500D01*
X139192750Y-64198500D01*
X139682867Y-63995487D01*
X140057987Y-63620367D01*
X140261000Y-63130250D01*
X140261000Y-62599750D01*
X140057987Y-62109633D01*
X139682867Y-61734513D01*
X139192750Y-61531500D01*
X138662250Y-61531500D01*
X138172133Y-61734513D01*
X138160000Y-61746646D01*
X138160000Y-59484126D01*
X146285000Y-59484126D01*
X146285000Y-59895874D01*
X146442569Y-60276280D01*
X146733720Y-60567431D01*
X147114126Y-60725000D01*
X147525874Y-60725000D01*
X147906280Y-60567431D01*
X148023711Y-60450000D01*
X157080000Y-60450000D01*
X157080000Y-60530874D01*
X157237569Y-60911280D01*
X157528720Y-61202431D01*
X157909126Y-61360000D01*
X158320874Y-61360000D01*
X158701280Y-61202431D01*
X158992431Y-60911280D01*
X159150000Y-60530874D01*
X159150000Y-60119126D01*
X158992431Y-59738720D01*
X158701280Y-59447569D01*
X158320874Y-59290000D01*
X158154801Y-59290000D01*
X158070331Y-59205530D01*
X158027929Y-59142071D01*
X157776537Y-58974096D01*
X157554852Y-58930000D01*
X157554847Y-58930000D01*
X157480000Y-58915112D01*
X157405153Y-58930000D01*
X148023711Y-58930000D01*
X147906280Y-58812569D01*
X147525874Y-58655000D01*
X147114126Y-58655000D01*
X146733720Y-58812569D01*
X146442569Y-59103720D01*
X146285000Y-59484126D01*
X138160000Y-59484126D01*
X138160000Y-57827238D01*
X141647239Y-54340000D01*
X155413970Y-54340000D01*
X155575000Y-54372031D01*
X155736030Y-54340000D01*
X155736031Y-54340000D01*
X156212945Y-54245136D01*
X156753769Y-53883769D01*
X156844988Y-53747250D01*
X161062253Y-49529986D01*
X161198769Y-49438769D01*
X161560136Y-48897945D01*
X161655000Y-48421031D01*
X161655000Y-48421027D01*
X161687030Y-48260001D01*
X161655000Y-48098975D01*
X161655000Y-40640000D01*
X163534928Y-40640000D01*
X163654062Y-41238927D01*
X163950696Y-41682871D01*
X163742191Y-41822191D01*
X163601843Y-42032235D01*
X163552560Y-42280000D01*
X163552560Y-44080000D01*
X163601843Y-44327765D01*
X163742191Y-44537809D01*
X163952235Y-44678157D01*
X164200000Y-44727440D01*
X166000000Y-44727440D01*
X166247765Y-44678157D01*
X166457809Y-44537809D01*
X166598157Y-44327765D01*
X166647440Y-44080000D01*
X166647440Y-42280000D01*
X166598157Y-42032235D01*
X166457809Y-41822191D01*
X166249304Y-41682871D01*
X166545938Y-41238927D01*
X166665072Y-40640000D01*
X166545938Y-40041073D01*
X166206673Y-39533327D01*
X165950826Y-39362376D01*
X166337966Y-39007576D01*
X166591046Y-38464742D01*
X166470997Y-38227000D01*
X165227000Y-38227000D01*
X165227000Y-38247000D01*
X164973000Y-38247000D01*
X164973000Y-38227000D01*
X163729003Y-38227000D01*
X163608954Y-38464742D01*
X163862034Y-39007576D01*
X164249174Y-39362376D01*
X163993327Y-39533327D01*
X163654062Y-40041073D01*
X163534928Y-40640000D01*
X161655000Y-40640000D01*
X161655000Y-37735258D01*
X163608954Y-37735258D01*
X163729003Y-37973000D01*
X164973000Y-37973000D01*
X164973000Y-36729622D01*
X165227000Y-36729622D01*
X165227000Y-37973000D01*
X166470997Y-37973000D01*
X166591046Y-37735258D01*
X166337966Y-37192424D01*
X165896417Y-36787760D01*
X165464740Y-36608964D01*
X165227000Y-36729622D01*
X164973000Y-36729622D01*
X164735260Y-36608964D01*
X164303583Y-36787760D01*
X163862034Y-37192424D01*
X163608954Y-37735258D01*
X161655000Y-37735258D01*
X161655000Y-29048969D01*
X161560136Y-28572055D01*
X161198769Y-28031231D01*
X160657945Y-27669864D01*
X160020000Y-27542969D01*
X159382056Y-27669864D01*
X158841232Y-28031231D01*
X158659799Y-28302765D01*
X158550625Y-28139375D01*
X158059418Y-27811161D01*
X157626256Y-27725000D01*
X157333744Y-27725000D01*
X156900582Y-27811161D01*
X156409375Y-28139375D01*
X156210000Y-28437761D01*
X156010625Y-28139375D01*
X155519418Y-27811161D01*
X155086256Y-27725000D01*
X154793744Y-27725000D01*
X154360582Y-27811161D01*
X153869375Y-28139375D01*
X153857184Y-28157619D01*
X153848157Y-28112235D01*
X153707809Y-27902191D01*
X153497765Y-27761843D01*
X153250000Y-27712560D01*
X151550000Y-27712560D01*
X151302235Y-27761843D01*
X151092191Y-27902191D01*
X150951843Y-28112235D01*
X150902560Y-28360000D01*
X150902560Y-30060000D01*
X150951843Y-30307765D01*
X151092191Y-30517809D01*
X151302235Y-30658157D01*
X151550000Y-30707440D01*
X153250000Y-30707440D01*
X153497765Y-30658157D01*
X153707809Y-30517809D01*
X153848157Y-30307765D01*
X153857184Y-30262381D01*
X153869375Y-30280625D01*
X154360582Y-30608839D01*
X154793744Y-30695000D01*
X155086256Y-30695000D01*
X155519418Y-30608839D01*
X156010625Y-30280625D01*
X156210000Y-29982239D01*
X156409375Y-30280625D01*
X156900582Y-30608839D01*
X157333744Y-30695000D01*
X157626256Y-30695000D01*
X158059418Y-30608839D01*
X158385001Y-30391291D01*
X158385000Y-47582761D01*
X154897762Y-51070000D01*
X141131025Y-51070000D01*
X140969999Y-51037970D01*
X140808973Y-51070000D01*
X140808969Y-51070000D01*
X140332055Y-51164864D01*
X139791231Y-51526231D01*
X139700014Y-51662747D01*
X135482748Y-55880014D01*
X135346232Y-55971231D01*
X135255015Y-56107747D01*
X134984865Y-56512055D01*
X134857969Y-57150000D01*
X134890001Y-57311035D01*
X134890001Y-62138760D01*
X134781688Y-62110417D01*
X134027105Y-62865000D01*
X133667895Y-62865000D01*
X132913312Y-62110417D01*
X132677700Y-62172071D01*
X132501573Y-62672480D01*
X129667000Y-62672480D01*
X129667000Y-61930812D01*
X133092917Y-61930812D01*
X133847500Y-62685395D01*
X134602083Y-61930812D01*
X134540429Y-61695200D01*
X134040020Y-61519073D01*
X133510301Y-61547852D01*
X133154571Y-61695200D01*
X133092917Y-61930812D01*
X129667000Y-61930812D01*
X129667000Y-40640000D01*
X143214928Y-40640000D01*
X143334062Y-41238927D01*
X143630696Y-41682871D01*
X143422191Y-41822191D01*
X143281843Y-42032235D01*
X143232560Y-42280000D01*
X143232560Y-44080000D01*
X143281843Y-44327765D01*
X143422191Y-44537809D01*
X143632235Y-44678157D01*
X143880000Y-44727440D01*
X145680000Y-44727440D01*
X145927765Y-44678157D01*
X146137809Y-44537809D01*
X146278157Y-44327765D01*
X146327440Y-44080000D01*
X146327440Y-42280000D01*
X146278157Y-42032235D01*
X146137809Y-41822191D01*
X145929304Y-41682871D01*
X146225938Y-41238927D01*
X146345072Y-40640000D01*
X153374928Y-40640000D01*
X153494062Y-41238927D01*
X153790696Y-41682871D01*
X153582191Y-41822191D01*
X153441843Y-42032235D01*
X153392560Y-42280000D01*
X153392560Y-44080000D01*
X153441843Y-44327765D01*
X153582191Y-44537809D01*
X153792235Y-44678157D01*
X154040000Y-44727440D01*
X155840000Y-44727440D01*
X156087765Y-44678157D01*
X156297809Y-44537809D01*
X156438157Y-44327765D01*
X156487440Y-44080000D01*
X156487440Y-42280000D01*
X156438157Y-42032235D01*
X156297809Y-41822191D01*
X156089304Y-41682871D01*
X156385938Y-41238927D01*
X156505072Y-40640000D01*
X156385938Y-40041073D01*
X156046673Y-39533327D01*
X155790826Y-39362376D01*
X156177966Y-39007576D01*
X156431046Y-38464742D01*
X156310997Y-38227000D01*
X155067000Y-38227000D01*
X155067000Y-38247000D01*
X154813000Y-38247000D01*
X154813000Y-38227000D01*
X153569003Y-38227000D01*
X153448954Y-38464742D01*
X153702034Y-39007576D01*
X154089174Y-39362376D01*
X153833327Y-39533327D01*
X153494062Y-40041073D01*
X153374928Y-40640000D01*
X146345072Y-40640000D01*
X146225938Y-40041073D01*
X145886673Y-39533327D01*
X145630826Y-39362376D01*
X146017966Y-39007576D01*
X146271046Y-38464742D01*
X146150997Y-38227000D01*
X144907000Y-38227000D01*
X144907000Y-38247000D01*
X144653000Y-38247000D01*
X144653000Y-38227000D01*
X143409003Y-38227000D01*
X143288954Y-38464742D01*
X143542034Y-39007576D01*
X143929174Y-39362376D01*
X143673327Y-39533327D01*
X143334062Y-40041073D01*
X143214928Y-40640000D01*
X129667000Y-40640000D01*
X129667000Y-37735258D01*
X143288954Y-37735258D01*
X143409003Y-37973000D01*
X144653000Y-37973000D01*
X144653000Y-36729622D01*
X144907000Y-36729622D01*
X144907000Y-37973000D01*
X146150997Y-37973000D01*
X146271046Y-37735258D01*
X153448954Y-37735258D01*
X153569003Y-37973000D01*
X154813000Y-37973000D01*
X154813000Y-36729622D01*
X155067000Y-36729622D01*
X155067000Y-37973000D01*
X156310997Y-37973000D01*
X156431046Y-37735258D01*
X156177966Y-37192424D01*
X155736417Y-36787760D01*
X155304740Y-36608964D01*
X155067000Y-36729622D01*
X154813000Y-36729622D01*
X154575260Y-36608964D01*
X154143583Y-36787760D01*
X153702034Y-37192424D01*
X153448954Y-37735258D01*
X146271046Y-37735258D01*
X146017966Y-37192424D01*
X145576417Y-36787760D01*
X145144740Y-36608964D01*
X144907000Y-36729622D01*
X144653000Y-36729622D01*
X144415260Y-36608964D01*
X143983583Y-36787760D01*
X143542034Y-37192424D01*
X143288954Y-37735258D01*
X129667000Y-37735258D01*
X129667000Y-31654824D01*
X130134229Y-32122053D01*
X131396736Y-32645000D01*
X132763264Y-32645000D01*
X134025771Y-32122053D01*
X134992053Y-31155771D01*
X135515000Y-29893264D01*
X135515000Y-28526736D01*
X134992053Y-27264229D01*
X134524824Y-26797000D01*
X172815176Y-26797000D01*
X172347947Y-27264229D01*
G04 #@! TD*
M02*
