G04 #@! TF.GenerationSoftware,KiCad,Pcbnew,(5.0.0-rc2-101-g68f6e3ad4)*
G04 #@! TF.CreationDate,2018-07-19T03:23:03+02:00*
G04 #@! TF.ProjectId,leddings,6C656464696E67732E6B696361645F70,rev?*
G04 #@! TF.SameCoordinates,Original*
G04 #@! TF.FileFunction,Copper,L1,Top,Signal*
G04 #@! TF.FilePolarity,Positive*
%FSLAX46Y46*%
G04 Gerber Fmt 4.6, Leading zero omitted, Abs format (unit mm)*
G04 Created by KiCad (PCBNEW (5.0.0-rc2-101-g68f6e3ad4)) date Thu Jul 19 03:23:03 2018*
%MOMM*%
%LPD*%
G01*
G04 APERTURE LIST*
G04 #@! TA.AperFunction,SMDPad,CuDef*
%ADD10R,1.000000X2.500000*%
G04 #@! TD*
G04 #@! TA.AperFunction,SMDPad,CuDef*
%ADD11R,1.800000X1.000000*%
G04 #@! TD*
G04 #@! TA.AperFunction,SMDPad,CuDef*
%ADD12R,1.500000X1.250000*%
G04 #@! TD*
G04 #@! TA.AperFunction,SMDPad,CuDef*
%ADD13R,0.800000X0.900000*%
G04 #@! TD*
G04 #@! TA.AperFunction,SMDPad,CuDef*
%ADD14R,1.500000X1.500000*%
G04 #@! TD*
G04 #@! TA.AperFunction,ComponentPad*
%ADD15O,1.700000X1.700000*%
G04 #@! TD*
G04 #@! TA.AperFunction,ComponentPad*
%ADD16R,1.700000X1.700000*%
G04 #@! TD*
G04 #@! TA.AperFunction,SMDPad,CuDef*
%ADD17R,1.900000X1.200000*%
G04 #@! TD*
G04 #@! TA.AperFunction,ComponentPad*
%ADD18O,1.900000X1.200000*%
G04 #@! TD*
G04 #@! TA.AperFunction,SMDPad,CuDef*
%ADD19R,1.900000X1.500000*%
G04 #@! TD*
G04 #@! TA.AperFunction,ComponentPad*
%ADD20C,1.450000*%
G04 #@! TD*
G04 #@! TA.AperFunction,SMDPad,CuDef*
%ADD21R,1.350000X0.400000*%
G04 #@! TD*
G04 #@! TA.AperFunction,ComponentPad*
%ADD22C,5.600000*%
G04 #@! TD*
G04 #@! TA.AperFunction,ComponentPad*
%ADD23R,1.800000X1.800000*%
G04 #@! TD*
G04 #@! TA.AperFunction,ComponentPad*
%ADD24O,1.800000X1.800000*%
G04 #@! TD*
G04 #@! TA.AperFunction,SMDPad,CuDef*
%ADD25R,1.300000X1.500000*%
G04 #@! TD*
G04 #@! TA.AperFunction,ComponentPad*
%ADD26C,1.397000*%
G04 #@! TD*
G04 #@! TA.AperFunction,ComponentPad*
%ADD27O,1.000000X1.000000*%
G04 #@! TD*
G04 #@! TA.AperFunction,ComponentPad*
%ADD28R,1.000000X1.000000*%
G04 #@! TD*
G04 #@! TA.AperFunction,ComponentPad*
%ADD29C,1.500000*%
G04 #@! TD*
G04 #@! TA.AperFunction,ComponentPad*
%ADD30C,2.600000*%
G04 #@! TD*
G04 #@! TA.AperFunction,ComponentPad*
%ADD31R,2.600000X2.600000*%
G04 #@! TD*
G04 #@! TA.AperFunction,ViaPad*
%ADD32C,0.800000*%
G04 #@! TD*
G04 #@! TA.AperFunction,Conductor*
%ADD33C,0.250000*%
G04 #@! TD*
G04 #@! TA.AperFunction,Conductor*
%ADD34C,0.254000*%
G04 #@! TD*
G04 APERTURE END LIST*
D10*
G04 #@! TO.P,U3,1*
G04 #@! TO.N,/Controller/RESET*
X168600000Y-62885000D03*
G04 #@! TO.P,U3,2*
G04 #@! TO.N,Net-(U3-Pad2)*
X166600000Y-62885000D03*
G04 #@! TO.P,U3,3*
G04 #@! TO.N,GND*
X164600000Y-62885000D03*
G04 #@! TO.P,U3,4*
G04 #@! TO.N,Net-(U3-Pad4)*
X162600000Y-62885000D03*
G04 #@! TO.P,U3,5*
G04 #@! TO.N,/Controller/RED*
X160600000Y-62885000D03*
G04 #@! TO.P,U3,6*
G04 #@! TO.N,/Controller/GREEN*
X158600000Y-62885000D03*
G04 #@! TO.P,U3,7*
G04 #@! TO.N,/Controller/BLUE*
X156600000Y-62885000D03*
G04 #@! TO.P,U3,8*
G04 #@! TO.N,VCC*
X154600000Y-62885000D03*
D11*
G04 #@! TO.P,U3,9*
G04 #@! TO.N,GND*
X153100000Y-65485000D03*
G04 #@! TO.P,U3,10*
G04 #@! TO.N,Net-(U3-Pad10)*
X153100000Y-67485000D03*
G04 #@! TO.P,U3,11*
G04 #@! TO.N,Net-(U3-Pad11)*
X153100000Y-69485000D03*
G04 #@! TO.P,U3,12*
G04 #@! TO.N,/Controller/BOOT_SELECT*
X153100000Y-71485000D03*
G04 #@! TO.P,U3,13*
G04 #@! TO.N,Net-(U3-Pad13)*
X153100000Y-73485000D03*
G04 #@! TO.P,U3,14*
G04 #@! TO.N,Net-(U3-Pad14)*
X153100000Y-75485000D03*
D10*
G04 #@! TO.P,U3,15*
G04 #@! TO.N,/Controller/RX*
X154600000Y-78085000D03*
G04 #@! TO.P,U3,16*
G04 #@! TO.N,/USB UART Interface/RX*
X156600000Y-78085000D03*
G04 #@! TO.P,U3,17*
G04 #@! TO.N,N/C*
X158600000Y-78085000D03*
G04 #@! TO.P,U3,18*
X160600000Y-78085000D03*
G04 #@! TO.P,U3,19*
X162600000Y-78085000D03*
G04 #@! TO.P,U3,20*
X164600000Y-78085000D03*
G04 #@! TO.P,U3,21*
X166600000Y-78085000D03*
G04 #@! TO.P,U3,22*
X168600000Y-78085000D03*
G04 #@! TD*
D12*
G04 #@! TO.P,C1,1*
G04 #@! TO.N,+12V*
X136525000Y-83820000D03*
G04 #@! TO.P,C1,2*
G04 #@! TO.N,GND*
X134025000Y-83820000D03*
G04 #@! TD*
G04 #@! TO.P,C2,2*
G04 #@! TO.N,GND*
X134025000Y-80010000D03*
G04 #@! TO.P,C2,1*
G04 #@! TO.N,VCC*
X136525000Y-80010000D03*
G04 #@! TD*
D13*
G04 #@! TO.P,D1,2*
G04 #@! TO.N,VBUS*
X144560000Y-83820000D03*
G04 #@! TO.P,D1,1*
G04 #@! TO.N,+12V*
X142460000Y-83820000D03*
G04 #@! TD*
D14*
G04 #@! TO.P,J1,1*
G04 #@! TO.N,/Controller/RED*
X165100000Y-55880000D03*
G04 #@! TD*
G04 #@! TO.P,J2,1*
G04 #@! TO.N,/Controller/BLUE*
X154940000Y-55880000D03*
G04 #@! TD*
G04 #@! TO.P,J3,1*
G04 #@! TO.N,/Controller/GREEN*
X144780000Y-55880000D03*
G04 #@! TD*
D15*
G04 #@! TO.P,J4,4*
G04 #@! TO.N,+12V*
X160020000Y-29210000D03*
G04 #@! TO.P,J4,3*
G04 #@! TO.N,/LED Driver/RedChannel*
X157480000Y-29210000D03*
G04 #@! TO.P,J4,2*
G04 #@! TO.N,/LED Driver/BlueChannel*
X154940000Y-29210000D03*
D16*
G04 #@! TO.P,J4,1*
G04 #@! TO.N,/LED Driver/GreenChannel*
X152400000Y-29210000D03*
G04 #@! TD*
D17*
G04 #@! TO.P,J5,6*
G04 #@! TO.N,N/C*
X177515000Y-89260000D03*
X177515000Y-83460000D03*
D18*
X177515000Y-82860000D03*
X177515000Y-89860000D03*
D19*
X177515000Y-87360000D03*
D20*
X174815000Y-83860000D03*
D21*
G04 #@! TO.P,J5,3*
G04 #@! TO.N,Net-(J5-Pad3)*
X174815000Y-86360000D03*
G04 #@! TO.P,J5,4*
G04 #@! TO.N,GND*
X174815000Y-85710000D03*
G04 #@! TO.P,J5,5*
X174815000Y-85060000D03*
G04 #@! TO.P,J5,1*
G04 #@! TO.N,VBUS*
X174815000Y-87660000D03*
G04 #@! TO.P,J5,2*
G04 #@! TO.N,Net-(J5-Pad2)*
X174815000Y-87010000D03*
D20*
G04 #@! TO.P,J5,6*
G04 #@! TO.N,N/C*
X174815000Y-88860000D03*
D19*
X177515000Y-85360000D03*
G04 #@! TD*
D22*
G04 #@! TO.P,MK1,1*
G04 #@! TO.N,N/C*
X175260000Y-29210000D03*
G04 #@! TD*
G04 #@! TO.P,MK2,1*
G04 #@! TO.N,N/C*
X132080000Y-104140000D03*
G04 #@! TD*
G04 #@! TO.P,MK3,1*
G04 #@! TO.N,N/C*
X132080000Y-29210000D03*
G04 #@! TD*
G04 #@! TO.P,MK4,1*
G04 #@! TO.N,N/C*
X175260000Y-104140000D03*
G04 #@! TD*
D23*
G04 #@! TO.P,Q1,1*
G04 #@! TO.N,Net-(Q1-Pad1)*
X165100000Y-43180000D03*
D24*
G04 #@! TO.P,Q1,2*
G04 #@! TO.N,/LED Driver/RedChannel*
X165100000Y-40640000D03*
G04 #@! TO.P,Q1,3*
G04 #@! TO.N,GND*
X165100000Y-38100000D03*
G04 #@! TD*
D23*
G04 #@! TO.P,Q2,1*
G04 #@! TO.N,Net-(Q2-Pad1)*
X154940000Y-43180000D03*
D24*
G04 #@! TO.P,Q2,2*
G04 #@! TO.N,/LED Driver/BlueChannel*
X154940000Y-40640000D03*
G04 #@! TO.P,Q2,3*
G04 #@! TO.N,GND*
X154940000Y-38100000D03*
G04 #@! TD*
G04 #@! TO.P,Q3,3*
G04 #@! TO.N,GND*
X144780000Y-38100000D03*
G04 #@! TO.P,Q3,2*
G04 #@! TO.N,/LED Driver/GreenChannel*
X144780000Y-40640000D03*
D23*
G04 #@! TO.P,Q3,1*
G04 #@! TO.N,Net-(Q3-Pad1)*
X144780000Y-43180000D03*
G04 #@! TD*
D25*
G04 #@! TO.P,R1,1*
G04 #@! TO.N,Net-(Q1-Pad1)*
X165100000Y-49530000D03*
G04 #@! TO.P,R1,2*
G04 #@! TO.N,/Controller/RED*
X165100000Y-52230000D03*
G04 #@! TD*
G04 #@! TO.P,R2,1*
G04 #@! TO.N,Net-(Q2-Pad1)*
X154940000Y-49530000D03*
G04 #@! TO.P,R2,2*
G04 #@! TO.N,/Controller/BLUE*
X154940000Y-52230000D03*
G04 #@! TD*
G04 #@! TO.P,R3,1*
G04 #@! TO.N,Net-(Q3-Pad1)*
X144780000Y-49530000D03*
G04 #@! TO.P,R3,2*
G04 #@! TO.N,/Controller/GREEN*
X144780000Y-52230000D03*
G04 #@! TD*
G04 #@! TO.P,R4,2*
G04 #@! TO.N,GND*
X170180000Y-39370000D03*
G04 #@! TO.P,R4,1*
G04 #@! TO.N,Net-(Q1-Pad1)*
X170180000Y-42070000D03*
G04 #@! TD*
G04 #@! TO.P,R5,2*
G04 #@! TO.N,GND*
X160020000Y-39210000D03*
G04 #@! TO.P,R5,1*
G04 #@! TO.N,Net-(Q2-Pad1)*
X160020000Y-41910000D03*
G04 #@! TD*
G04 #@! TO.P,R6,2*
G04 #@! TO.N,GND*
X149860000Y-39210000D03*
G04 #@! TO.P,R6,1*
G04 #@! TO.N,Net-(Q3-Pad1)*
X149860000Y-41910000D03*
G04 #@! TD*
G04 #@! TO.P,R7,1*
G04 #@! TO.N,VCC*
X144780000Y-62230000D03*
G04 #@! TO.P,R7,2*
G04 #@! TO.N,/Controller/RESET*
X144780000Y-64930000D03*
G04 #@! TD*
G04 #@! TO.P,R8,2*
G04 #@! TO.N,/Controller/BOOT_SELECT*
X148590000Y-64930000D03*
G04 #@! TO.P,R8,1*
G04 #@! TO.N,VCC*
X148590000Y-62230000D03*
G04 #@! TD*
D26*
G04 #@! TO.P,SW1,2*
G04 #@! TO.N,/Controller/RESET*
X138927500Y-70485000D03*
G04 #@! TO.P,SW1,1*
G04 #@! TO.N,GND*
X133847500Y-70485000D03*
G04 #@! TO.P,SW1,2*
G04 #@! TO.N,/Controller/RESET*
X138927500Y-62865000D03*
G04 #@! TO.P,SW1,1*
G04 #@! TO.N,GND*
X133847500Y-62865000D03*
G04 #@! TD*
D27*
G04 #@! TO.P,SW2,3*
G04 #@! TO.N,VCC*
X147320000Y-67920238D03*
G04 #@! TO.P,SW2,2*
G04 #@! TO.N,/Controller/BOOT_SELECT*
X146050000Y-67920238D03*
D28*
G04 #@! TO.P,SW2,1*
G04 #@! TO.N,GND*
X144780000Y-67920238D03*
G04 #@! TD*
D24*
G04 #@! TO.P,U1,3*
G04 #@! TO.N,+12V*
X139065000Y-76200000D03*
G04 #@! TO.P,U1,2*
G04 #@! TO.N,VCC*
X136525000Y-76200000D03*
D23*
G04 #@! TO.P,U1,1*
G04 #@! TO.N,GND*
X133985000Y-76200000D03*
G04 #@! TD*
D29*
G04 #@! TO.P,Y1,2*
G04 #@! TO.N,Net-(C4-Pad1)*
X172085000Y-97790000D03*
G04 #@! TO.P,Y1,1*
G04 #@! TO.N,Net-(C3-Pad1)*
X172085000Y-92910000D03*
G04 #@! TD*
D30*
G04 #@! TO.P,J6,3*
G04 #@! TO.N,GND*
X146940000Y-96980000D03*
G04 #@! TO.P,J6,2*
X142240000Y-99980000D03*
D31*
G04 #@! TO.P,J6,1*
G04 #@! TO.N,+12V*
X142240000Y-93980000D03*
G04 #@! TD*
D32*
G04 #@! TO.N,GND*
X168910000Y-88900000D03*
G04 #@! TO.N,VCC*
X144780000Y-69760000D03*
X149225000Y-69760000D03*
X154940000Y-86995000D03*
X161290000Y-90170000D03*
G04 #@! TO.N,VBUS*
X171450000Y-88265000D03*
X150495000Y-83820000D03*
G04 #@! TO.N,/Controller/GREEN*
X158115000Y-60325000D03*
X147320000Y-59690000D03*
G04 #@! TO.N,Net-(J5-Pad3)*
X166370000Y-87630000D03*
G04 #@! TO.N,Net-(J5-Pad2)*
X167095000Y-88337108D03*
G04 #@! TO.N,/Controller/RESET*
X161925000Y-70485000D03*
X142875000Y-67310000D03*
X159385000Y-85090000D03*
X159385000Y-82550000D03*
G04 #@! TO.N,/Controller/BOOT_SELECT*
X149225000Y-73660000D03*
G04 #@! TO.N,/USB UART Interface/RX*
X160655000Y-85090000D03*
G04 #@! TO.N,/Controller/RX*
X161925000Y-85090000D03*
X158115000Y-80645000D03*
X155575000Y-80645000D03*
G04 #@! TD*
D33*
G04 #@! TO.N,+12V*
X142240000Y-84040000D02*
X142460000Y-83820000D01*
X136525000Y-83820000D02*
X139345000Y-83820000D01*
X139964999Y-83200001D02*
X139345000Y-83820000D01*
X139964999Y-77099999D02*
X139964999Y-83200001D01*
X139065000Y-76200000D02*
X139964999Y-77099999D01*
X142240000Y-86715000D02*
X142240000Y-93980000D01*
X139345000Y-83820000D02*
X142240000Y-86715000D01*
X142460000Y-86495000D02*
X142460000Y-83820000D01*
X142240000Y-86715000D02*
X142460000Y-86495000D01*
G04 #@! TO.N,GND*
X174815000Y-85710000D02*
X174815000Y-85060000D01*
X168510001Y-89299999D02*
X165499999Y-89299999D01*
X168910000Y-88900000D02*
X168510001Y-89299999D01*
X165499999Y-89299999D02*
X165100000Y-88900000D01*
X165100000Y-88900000D02*
X165100000Y-86360000D01*
X166400000Y-85060000D02*
X174815000Y-85060000D01*
X165100000Y-86360000D02*
X166400000Y-85060000D01*
G04 #@! TO.N,VCC*
X144780000Y-62230000D02*
X148590000Y-62230000D01*
X149860000Y-62230000D02*
X148590000Y-62230000D01*
X150495000Y-62865000D02*
X149860000Y-62230000D01*
X150495000Y-67260476D02*
X150495000Y-62865000D01*
X149835238Y-67920238D02*
X150495000Y-67260476D01*
X154600000Y-62885000D02*
X150515000Y-62885000D01*
X136525000Y-80010000D02*
X136525000Y-76200000D01*
X139565001Y-74974999D02*
X144780000Y-69760000D01*
X136525000Y-76200000D02*
X137750001Y-74974999D01*
X137750001Y-74974999D02*
X139565001Y-74974999D01*
X149225000Y-69760000D02*
X149225000Y-68580000D01*
X149225000Y-68580000D02*
X148590000Y-67945000D01*
X148590000Y-67945000D02*
X148590000Y-67920238D01*
X147320000Y-67920238D02*
X148590000Y-67920238D01*
X148590000Y-67920238D02*
X149835238Y-67920238D01*
X139565001Y-74974999D02*
X142919999Y-74974999D01*
X142919999Y-74974999D02*
X154940000Y-86995000D01*
X154940000Y-86995000D02*
X158115000Y-86995000D01*
X158115000Y-86995000D02*
X161290000Y-90170000D01*
G04 #@! TO.N,VBUS*
X174815000Y-87660000D02*
X172055000Y-87660000D01*
X172055000Y-87660000D02*
X171450000Y-88265000D01*
X150495000Y-83820000D02*
X144780000Y-83820000D01*
X144780000Y-83820000D02*
X144560000Y-83820000D01*
G04 #@! TO.N,/Controller/RED*
X165100000Y-55880000D02*
X165100000Y-52230000D01*
X165100000Y-57635000D02*
X165100000Y-55880000D01*
X160600000Y-62885000D02*
X160600000Y-62135000D01*
X160600000Y-62135000D02*
X165100000Y-57635000D01*
G04 #@! TO.N,/Controller/BLUE*
X154940000Y-55880000D02*
X154940000Y-52230000D01*
X156600000Y-62885000D02*
X156600000Y-59445000D01*
X154940000Y-57785000D02*
X154940000Y-55880000D01*
X156600000Y-59445000D02*
X154940000Y-57785000D01*
G04 #@! TO.N,/Controller/GREEN*
X144780000Y-55880000D02*
X144780000Y-52230000D01*
X158600000Y-62885000D02*
X158600000Y-60810000D01*
X158600000Y-60810000D02*
X158115000Y-60325000D01*
X145780000Y-55880000D02*
X144780000Y-55880000D01*
X147320000Y-57420000D02*
X145780000Y-55880000D01*
X147320000Y-59690000D02*
X147320000Y-57420000D01*
G04 #@! TO.N,/LED Driver/RedChannel*
X157480000Y-33020000D02*
X157480000Y-29210000D01*
X165100000Y-40640000D02*
X157480000Y-33020000D01*
G04 #@! TO.N,/LED Driver/BlueChannel*
X154940000Y-31750000D02*
X154940000Y-29210000D01*
X157480000Y-34290000D02*
X154940000Y-31750000D01*
X157480000Y-39370000D02*
X157480000Y-34290000D01*
X154940000Y-40640000D02*
X156210000Y-40640000D01*
X156210000Y-40640000D02*
X157480000Y-39370000D01*
G04 #@! TO.N,/LED Driver/GreenChannel*
X144780000Y-40640000D02*
X146050000Y-40640000D01*
X146050000Y-40640000D02*
X147320000Y-39370000D01*
X147320000Y-39370000D02*
X147320000Y-35560000D01*
X147320000Y-35560000D02*
X148590000Y-34290000D01*
X148590000Y-34290000D02*
X151130000Y-34290000D01*
X152400000Y-33020000D02*
X152400000Y-29210000D01*
X151130000Y-34290000D02*
X152400000Y-33020000D01*
G04 #@! TO.N,Net-(J5-Pad3)*
X167640000Y-86360000D02*
X174815000Y-86360000D01*
X166370000Y-87630000D02*
X167640000Y-86360000D01*
G04 #@! TO.N,Net-(J5-Pad2)*
X167095000Y-88337108D02*
X168437108Y-86995000D01*
X168452108Y-87010000D02*
X174610000Y-87010000D01*
X168437108Y-86995000D02*
X168452108Y-87010000D01*
X174610000Y-87010000D02*
X174815000Y-87010000D01*
G04 #@! TO.N,Net-(Q1-Pad1)*
X170180000Y-42170000D02*
X170180000Y-42070000D01*
X169170000Y-43180000D02*
X170180000Y-42170000D01*
X165100000Y-43180000D02*
X169170000Y-43180000D01*
X165100000Y-49530000D02*
X165100000Y-43180000D01*
G04 #@! TO.N,Net-(Q2-Pad1)*
X160020000Y-42010000D02*
X160020000Y-41910000D01*
X158850000Y-43180000D02*
X160020000Y-42010000D01*
X154940000Y-43180000D02*
X158850000Y-43180000D01*
X154940000Y-49530000D02*
X154940000Y-43180000D01*
G04 #@! TO.N,Net-(Q3-Pad1)*
X149860000Y-42010000D02*
X149860000Y-41910000D01*
X148690000Y-43180000D02*
X149860000Y-42010000D01*
X144780000Y-43180000D02*
X148690000Y-43180000D01*
X144780000Y-49530000D02*
X144780000Y-43180000D01*
G04 #@! TO.N,/Controller/RESET*
X168600000Y-62885000D02*
X168600000Y-65080000D01*
X168600000Y-65080000D02*
X163195000Y-70485000D01*
X163195000Y-70485000D02*
X161925000Y-70485000D01*
X143880000Y-64930000D02*
X142875000Y-65935000D01*
X144780000Y-64930000D02*
X143880000Y-64930000D01*
X142875000Y-65935000D02*
X142875000Y-67310000D01*
X142875000Y-69850000D02*
X142875000Y-67310000D01*
X159385000Y-85090000D02*
X159385000Y-82550000D01*
G04 #@! TO.N,/Controller/BOOT_SELECT*
X148590000Y-65930000D02*
X148590000Y-64930000D01*
X146685000Y-66040000D02*
X148480000Y-66040000D01*
X146050000Y-66675000D02*
X146685000Y-66040000D01*
X148480000Y-66040000D02*
X148590000Y-65930000D01*
X146050000Y-67920238D02*
X146050000Y-66675000D01*
X153100000Y-71485000D02*
X151950000Y-71485000D01*
X148794762Y-70665000D02*
X146050000Y-67920238D01*
X151400000Y-71485000D02*
X151950000Y-71485000D01*
X149225000Y-73660000D02*
X151400000Y-71485000D01*
X151315000Y-71485000D02*
X150495000Y-70665000D01*
X151400000Y-71485000D02*
X151315000Y-71485000D01*
X150495000Y-70665000D02*
X148794762Y-70665000D01*
G04 #@! TO.N,/USB UART Interface/RX*
X160655000Y-85090000D02*
X160655000Y-82746998D01*
X156600000Y-78835000D02*
X156600000Y-78085000D01*
X159733001Y-81824999D02*
X157389999Y-81824999D01*
X160655000Y-82746998D02*
X159733001Y-81824999D01*
X156600000Y-81035000D02*
X156600000Y-78085000D01*
X157389999Y-81824999D02*
X156600000Y-81035000D01*
G04 #@! TO.N,/Controller/RX*
X154305000Y-78380000D02*
X154600000Y-78085000D01*
X161925000Y-85090000D02*
X161925000Y-83185000D01*
X161925000Y-83185000D02*
X159385000Y-80645000D01*
X159385000Y-80645000D02*
X158115000Y-80645000D01*
X155575000Y-80645000D02*
X154940000Y-80645000D01*
X154600000Y-80305000D02*
X154600000Y-78085000D01*
X154940000Y-80645000D02*
X154600000Y-80305000D01*
G04 #@! TD*
D34*
G04 #@! TO.N,GND*
G36*
X172347947Y-27264229D02*
X171825000Y-28526736D01*
X171825000Y-29893264D01*
X172347947Y-31155771D01*
X173314229Y-32122053D01*
X174576736Y-32645000D01*
X175943264Y-32645000D01*
X177205771Y-32122053D01*
X177673000Y-31654824D01*
X177673000Y-60833000D01*
X168910000Y-60833000D01*
X168861399Y-60842667D01*
X168820197Y-60870197D01*
X168792667Y-60911399D01*
X168783000Y-60960000D01*
X168783000Y-60987560D01*
X168100000Y-60987560D01*
X167852235Y-61036843D01*
X167642191Y-61177191D01*
X167600000Y-61240334D01*
X167557809Y-61177191D01*
X167347765Y-61036843D01*
X167100000Y-60987560D01*
X166100000Y-60987560D01*
X165852235Y-61036843D01*
X165642191Y-61177191D01*
X165601345Y-61238320D01*
X165459699Y-61096673D01*
X165226310Y-61000000D01*
X164885750Y-61000000D01*
X164727000Y-61158750D01*
X164727000Y-62758000D01*
X164747000Y-62758000D01*
X164747000Y-63012000D01*
X164727000Y-63012000D01*
X164727000Y-64611250D01*
X164885750Y-64770000D01*
X165226310Y-64770000D01*
X165459699Y-64673327D01*
X165601345Y-64531680D01*
X165642191Y-64592809D01*
X165852235Y-64733157D01*
X166100000Y-64782440D01*
X167100000Y-64782440D01*
X167347765Y-64733157D01*
X167557809Y-64592809D01*
X167600000Y-64529666D01*
X167642191Y-64592809D01*
X167840001Y-64724982D01*
X167840001Y-64765196D01*
X162880199Y-69725000D01*
X162628711Y-69725000D01*
X162511280Y-69607569D01*
X162130874Y-69450000D01*
X161719126Y-69450000D01*
X161338720Y-69607569D01*
X161047569Y-69898720D01*
X160890000Y-70279126D01*
X160890000Y-70690874D01*
X161047569Y-71071280D01*
X161338720Y-71362431D01*
X161719126Y-71520000D01*
X162130874Y-71520000D01*
X162511280Y-71362431D01*
X162628711Y-71245000D01*
X163120153Y-71245000D01*
X163195000Y-71259888D01*
X163269847Y-71245000D01*
X163269852Y-71245000D01*
X163491537Y-71200904D01*
X163742929Y-71032929D01*
X163785331Y-70969470D01*
X168783000Y-65971803D01*
X168783000Y-76187560D01*
X168100000Y-76187560D01*
X167852235Y-76236843D01*
X167642191Y-76377191D01*
X167600000Y-76440334D01*
X167557809Y-76377191D01*
X167347765Y-76236843D01*
X167100000Y-76187560D01*
X166100000Y-76187560D01*
X165852235Y-76236843D01*
X165642191Y-76377191D01*
X165600000Y-76440334D01*
X165557809Y-76377191D01*
X165347765Y-76236843D01*
X165100000Y-76187560D01*
X164100000Y-76187560D01*
X163852235Y-76236843D01*
X163642191Y-76377191D01*
X163600000Y-76440334D01*
X163557809Y-76377191D01*
X163347765Y-76236843D01*
X163100000Y-76187560D01*
X162100000Y-76187560D01*
X161852235Y-76236843D01*
X161642191Y-76377191D01*
X161600000Y-76440334D01*
X161557809Y-76377191D01*
X161347765Y-76236843D01*
X161100000Y-76187560D01*
X160100000Y-76187560D01*
X159852235Y-76236843D01*
X159642191Y-76377191D01*
X159600000Y-76440334D01*
X159557809Y-76377191D01*
X159347765Y-76236843D01*
X159100000Y-76187560D01*
X158100000Y-76187560D01*
X157852235Y-76236843D01*
X157642191Y-76377191D01*
X157600000Y-76440334D01*
X157557809Y-76377191D01*
X157347765Y-76236843D01*
X157100000Y-76187560D01*
X156100000Y-76187560D01*
X155852235Y-76236843D01*
X155642191Y-76377191D01*
X155600000Y-76440334D01*
X155557809Y-76377191D01*
X155347765Y-76236843D01*
X155100000Y-76187560D01*
X154607149Y-76187560D01*
X154647440Y-75985000D01*
X154647440Y-74985000D01*
X154598157Y-74737235D01*
X154457809Y-74527191D01*
X154394666Y-74485000D01*
X154457809Y-74442809D01*
X154598157Y-74232765D01*
X154647440Y-73985000D01*
X154647440Y-72985000D01*
X154598157Y-72737235D01*
X154457809Y-72527191D01*
X154394666Y-72485000D01*
X154457809Y-72442809D01*
X154598157Y-72232765D01*
X154647440Y-71985000D01*
X154647440Y-70985000D01*
X154598157Y-70737235D01*
X154457809Y-70527191D01*
X154394666Y-70485000D01*
X154457809Y-70442809D01*
X154598157Y-70232765D01*
X154647440Y-69985000D01*
X154647440Y-68985000D01*
X154598157Y-68737235D01*
X154457809Y-68527191D01*
X154394666Y-68485000D01*
X154457809Y-68442809D01*
X154598157Y-68232765D01*
X154647440Y-67985000D01*
X154647440Y-66985000D01*
X154598157Y-66737235D01*
X154457809Y-66527191D01*
X154396680Y-66486346D01*
X154538327Y-66344698D01*
X154635000Y-66111309D01*
X154635000Y-65770750D01*
X154476250Y-65612000D01*
X153227000Y-65612000D01*
X153227000Y-65632000D01*
X152973000Y-65632000D01*
X152973000Y-65612000D01*
X151723750Y-65612000D01*
X151565000Y-65770750D01*
X151565000Y-66111309D01*
X151661673Y-66344698D01*
X151803320Y-66486346D01*
X151742191Y-66527191D01*
X151601843Y-66737235D01*
X151552560Y-66985000D01*
X151552560Y-67985000D01*
X151601843Y-68232765D01*
X151742191Y-68442809D01*
X151805334Y-68485000D01*
X151742191Y-68527191D01*
X151601843Y-68737235D01*
X151552560Y-68985000D01*
X151552560Y-69985000D01*
X151601843Y-70232765D01*
X151742191Y-70442809D01*
X151805334Y-70485000D01*
X151742191Y-70527191D01*
X151617942Y-70713141D01*
X151085331Y-70180530D01*
X151042929Y-70117071D01*
X150791537Y-69949096D01*
X150569852Y-69905000D01*
X150569847Y-69905000D01*
X150495000Y-69890112D01*
X150420153Y-69905000D01*
X150260000Y-69905000D01*
X150260000Y-69554126D01*
X150102431Y-69173720D01*
X149985000Y-69056289D01*
X149985000Y-68665337D01*
X150131775Y-68636142D01*
X150383167Y-68468167D01*
X150425568Y-68404709D01*
X150979476Y-67850803D01*
X151042929Y-67808405D01*
X151085327Y-67744952D01*
X151085329Y-67744950D01*
X151210903Y-67557014D01*
X151210904Y-67557013D01*
X151255000Y-67335328D01*
X151255000Y-67335324D01*
X151269888Y-67260477D01*
X151255000Y-67185630D01*
X151255000Y-64858691D01*
X151565000Y-64858691D01*
X151565000Y-65199250D01*
X151723750Y-65358000D01*
X152973000Y-65358000D01*
X152973000Y-64508750D01*
X152814250Y-64350000D01*
X152073690Y-64350000D01*
X151840301Y-64446673D01*
X151661673Y-64625302D01*
X151565000Y-64858691D01*
X151255000Y-64858691D01*
X151255000Y-63645000D01*
X153452560Y-63645000D01*
X153452560Y-64135000D01*
X153495326Y-64350000D01*
X153385750Y-64350000D01*
X153227000Y-64508750D01*
X153227000Y-65358000D01*
X154476250Y-65358000D01*
X154635000Y-65199250D01*
X154635000Y-64858691D01*
X154603416Y-64782440D01*
X155100000Y-64782440D01*
X155347765Y-64733157D01*
X155557809Y-64592809D01*
X155600000Y-64529666D01*
X155642191Y-64592809D01*
X155852235Y-64733157D01*
X156100000Y-64782440D01*
X157100000Y-64782440D01*
X157347765Y-64733157D01*
X157557809Y-64592809D01*
X157600000Y-64529666D01*
X157642191Y-64592809D01*
X157852235Y-64733157D01*
X158100000Y-64782440D01*
X159100000Y-64782440D01*
X159347765Y-64733157D01*
X159557809Y-64592809D01*
X159600000Y-64529666D01*
X159642191Y-64592809D01*
X159852235Y-64733157D01*
X160100000Y-64782440D01*
X161100000Y-64782440D01*
X161347765Y-64733157D01*
X161557809Y-64592809D01*
X161600000Y-64529666D01*
X161642191Y-64592809D01*
X161852235Y-64733157D01*
X162100000Y-64782440D01*
X163100000Y-64782440D01*
X163347765Y-64733157D01*
X163557809Y-64592809D01*
X163598655Y-64531680D01*
X163740301Y-64673327D01*
X163973690Y-64770000D01*
X164314250Y-64770000D01*
X164473000Y-64611250D01*
X164473000Y-63012000D01*
X164453000Y-63012000D01*
X164453000Y-62758000D01*
X164473000Y-62758000D01*
X164473000Y-61158750D01*
X164314250Y-61000000D01*
X163973690Y-61000000D01*
X163740301Y-61096673D01*
X163598655Y-61238320D01*
X163557809Y-61177191D01*
X163347765Y-61036843D01*
X163100000Y-60987560D01*
X162822241Y-60987560D01*
X165584473Y-58225329D01*
X165647929Y-58182929D01*
X165815904Y-57931537D01*
X165860000Y-57709852D01*
X165860000Y-57709848D01*
X165874888Y-57635001D01*
X165860000Y-57560154D01*
X165860000Y-57275451D01*
X166097765Y-57228157D01*
X166307809Y-57087809D01*
X166448157Y-56877765D01*
X166497440Y-56630000D01*
X166497440Y-55130000D01*
X166448157Y-54882235D01*
X166307809Y-54672191D01*
X166097765Y-54531843D01*
X165860000Y-54484549D01*
X165860000Y-53605560D01*
X165997765Y-53578157D01*
X166207809Y-53437809D01*
X166348157Y-53227765D01*
X166397440Y-52980000D01*
X166397440Y-51480000D01*
X166348157Y-51232235D01*
X166207809Y-51022191D01*
X165997765Y-50881843D01*
X165988500Y-50880000D01*
X165997765Y-50878157D01*
X166207809Y-50737809D01*
X166348157Y-50527765D01*
X166397440Y-50280000D01*
X166397440Y-48780000D01*
X166348157Y-48532235D01*
X166207809Y-48322191D01*
X165997765Y-48181843D01*
X165860000Y-48154440D01*
X165860000Y-44727440D01*
X166000000Y-44727440D01*
X166247765Y-44678157D01*
X166457809Y-44537809D01*
X166598157Y-44327765D01*
X166647440Y-44080000D01*
X166647440Y-43940000D01*
X169095153Y-43940000D01*
X169170000Y-43954888D01*
X169244847Y-43940000D01*
X169244852Y-43940000D01*
X169466537Y-43895904D01*
X169717929Y-43727929D01*
X169760331Y-43664470D01*
X169957361Y-43467440D01*
X170830000Y-43467440D01*
X171077765Y-43418157D01*
X171287809Y-43277809D01*
X171428157Y-43067765D01*
X171477440Y-42820000D01*
X171477440Y-41320000D01*
X171428157Y-41072235D01*
X171287809Y-40862191D01*
X171077765Y-40721843D01*
X171049791Y-40716279D01*
X171189699Y-40658327D01*
X171368327Y-40479698D01*
X171465000Y-40246309D01*
X171465000Y-39655750D01*
X171306250Y-39497000D01*
X170307000Y-39497000D01*
X170307000Y-39517000D01*
X170053000Y-39517000D01*
X170053000Y-39497000D01*
X169053750Y-39497000D01*
X168895000Y-39655750D01*
X168895000Y-40246309D01*
X168991673Y-40479698D01*
X169170301Y-40658327D01*
X169310209Y-40716279D01*
X169282235Y-40721843D01*
X169072191Y-40862191D01*
X168931843Y-41072235D01*
X168882560Y-41320000D01*
X168882560Y-42392639D01*
X168855199Y-42420000D01*
X166647440Y-42420000D01*
X166647440Y-42280000D01*
X166598157Y-42032235D01*
X166457809Y-41822191D01*
X166249304Y-41682871D01*
X166545938Y-41238927D01*
X166665072Y-40640000D01*
X166545938Y-40041073D01*
X166206673Y-39533327D01*
X165950826Y-39362376D01*
X166337966Y-39007576D01*
X166577549Y-38493691D01*
X168895000Y-38493691D01*
X168895000Y-39084250D01*
X169053750Y-39243000D01*
X170053000Y-39243000D01*
X170053000Y-38143750D01*
X170307000Y-38143750D01*
X170307000Y-39243000D01*
X171306250Y-39243000D01*
X171465000Y-39084250D01*
X171465000Y-38493691D01*
X171368327Y-38260302D01*
X171189699Y-38081673D01*
X170956310Y-37985000D01*
X170465750Y-37985000D01*
X170307000Y-38143750D01*
X170053000Y-38143750D01*
X169894250Y-37985000D01*
X169403690Y-37985000D01*
X169170301Y-38081673D01*
X168991673Y-38260302D01*
X168895000Y-38493691D01*
X166577549Y-38493691D01*
X166591046Y-38464742D01*
X166470997Y-38227000D01*
X165227000Y-38227000D01*
X165227000Y-38247000D01*
X164973000Y-38247000D01*
X164973000Y-38227000D01*
X164953000Y-38227000D01*
X164953000Y-37973000D01*
X164973000Y-37973000D01*
X164973000Y-36729622D01*
X165227000Y-36729622D01*
X165227000Y-37973000D01*
X166470997Y-37973000D01*
X166591046Y-37735258D01*
X166337966Y-37192424D01*
X165896417Y-36787760D01*
X165464740Y-36608964D01*
X165227000Y-36729622D01*
X164973000Y-36729622D01*
X164735260Y-36608964D01*
X164303583Y-36787760D01*
X163862034Y-37192424D01*
X163608954Y-37735258D01*
X163729002Y-37972998D01*
X163565000Y-37972998D01*
X163565000Y-38030197D01*
X158240000Y-32705199D01*
X158240000Y-30488178D01*
X158550625Y-30280625D01*
X158750000Y-29982239D01*
X158949375Y-30280625D01*
X159440582Y-30608839D01*
X159873744Y-30695000D01*
X160166256Y-30695000D01*
X160599418Y-30608839D01*
X161090625Y-30280625D01*
X161418839Y-29789418D01*
X161534092Y-29210000D01*
X161418839Y-28630582D01*
X161090625Y-28139375D01*
X160599418Y-27811161D01*
X160166256Y-27725000D01*
X159873744Y-27725000D01*
X159440582Y-27811161D01*
X158949375Y-28139375D01*
X158750000Y-28437761D01*
X158550625Y-28139375D01*
X158059418Y-27811161D01*
X157626256Y-27725000D01*
X157333744Y-27725000D01*
X156900582Y-27811161D01*
X156409375Y-28139375D01*
X156210000Y-28437761D01*
X156010625Y-28139375D01*
X155519418Y-27811161D01*
X155086256Y-27725000D01*
X154793744Y-27725000D01*
X154360582Y-27811161D01*
X153869375Y-28139375D01*
X153857184Y-28157619D01*
X153848157Y-28112235D01*
X153707809Y-27902191D01*
X153497765Y-27761843D01*
X153250000Y-27712560D01*
X151550000Y-27712560D01*
X151302235Y-27761843D01*
X151092191Y-27902191D01*
X150951843Y-28112235D01*
X150902560Y-28360000D01*
X150902560Y-30060000D01*
X150951843Y-30307765D01*
X151092191Y-30517809D01*
X151302235Y-30658157D01*
X151550000Y-30707440D01*
X151640001Y-30707440D01*
X151640000Y-32705198D01*
X150815199Y-33530000D01*
X148664846Y-33530000D01*
X148589999Y-33515112D01*
X148515152Y-33530000D01*
X148515148Y-33530000D01*
X148293463Y-33574096D01*
X148042071Y-33742071D01*
X147999672Y-33805526D01*
X146835528Y-34969671D01*
X146772072Y-35012071D01*
X146729672Y-35075527D01*
X146729671Y-35075528D01*
X146604097Y-35263463D01*
X146545112Y-35560000D01*
X146560001Y-35634852D01*
X146560000Y-39055198D01*
X145964859Y-39650340D01*
X145886673Y-39533327D01*
X145630826Y-39362376D01*
X146017966Y-39007576D01*
X146271046Y-38464742D01*
X146150997Y-38227000D01*
X144907000Y-38227000D01*
X144907000Y-38247000D01*
X144653000Y-38247000D01*
X144653000Y-38227000D01*
X143409003Y-38227000D01*
X143288954Y-38464742D01*
X143542034Y-39007576D01*
X143929174Y-39362376D01*
X143673327Y-39533327D01*
X143334062Y-40041073D01*
X143214928Y-40640000D01*
X143334062Y-41238927D01*
X143630696Y-41682871D01*
X143422191Y-41822191D01*
X143281843Y-42032235D01*
X143232560Y-42280000D01*
X143232560Y-44080000D01*
X143281843Y-44327765D01*
X143422191Y-44537809D01*
X143632235Y-44678157D01*
X143880000Y-44727440D01*
X144020001Y-44727440D01*
X144020000Y-48154440D01*
X143882235Y-48181843D01*
X143672191Y-48322191D01*
X143531843Y-48532235D01*
X143482560Y-48780000D01*
X143482560Y-50280000D01*
X143531843Y-50527765D01*
X143672191Y-50737809D01*
X143882235Y-50878157D01*
X143891500Y-50880000D01*
X143882235Y-50881843D01*
X143672191Y-51022191D01*
X143531843Y-51232235D01*
X143482560Y-51480000D01*
X143482560Y-52980000D01*
X143531843Y-53227765D01*
X143672191Y-53437809D01*
X143882235Y-53578157D01*
X144020001Y-53605560D01*
X144020000Y-54484549D01*
X143782235Y-54531843D01*
X143572191Y-54672191D01*
X143431843Y-54882235D01*
X143382560Y-55130000D01*
X143382560Y-56630000D01*
X143431843Y-56877765D01*
X143572191Y-57087809D01*
X143782235Y-57228157D01*
X144030000Y-57277440D01*
X145530000Y-57277440D01*
X145777765Y-57228157D01*
X145942969Y-57117770D01*
X146560001Y-57734803D01*
X146560000Y-58986289D01*
X146442569Y-59103720D01*
X146285000Y-59484126D01*
X146285000Y-59895874D01*
X146442569Y-60276280D01*
X146733720Y-60567431D01*
X147114126Y-60725000D01*
X147525874Y-60725000D01*
X147906280Y-60567431D01*
X148197431Y-60276280D01*
X148355000Y-59895874D01*
X148355000Y-59484126D01*
X148197431Y-59103720D01*
X148080000Y-58986289D01*
X148080000Y-57494847D01*
X148094888Y-57420000D01*
X148080000Y-57345153D01*
X148080000Y-57345148D01*
X148035904Y-57123463D01*
X147867929Y-56872071D01*
X147804473Y-56829671D01*
X146370331Y-55395530D01*
X146327929Y-55332071D01*
X146177440Y-55231517D01*
X146177440Y-55130000D01*
X146128157Y-54882235D01*
X145987809Y-54672191D01*
X145777765Y-54531843D01*
X145540000Y-54484549D01*
X145540000Y-53605560D01*
X145677765Y-53578157D01*
X145887809Y-53437809D01*
X146028157Y-53227765D01*
X146077440Y-52980000D01*
X146077440Y-51480000D01*
X146028157Y-51232235D01*
X145887809Y-51022191D01*
X145677765Y-50881843D01*
X145668500Y-50880000D01*
X145677765Y-50878157D01*
X145887809Y-50737809D01*
X146028157Y-50527765D01*
X146077440Y-50280000D01*
X146077440Y-48780000D01*
X146028157Y-48532235D01*
X145887809Y-48322191D01*
X145677765Y-48181843D01*
X145540000Y-48154440D01*
X145540000Y-44727440D01*
X145680000Y-44727440D01*
X145927765Y-44678157D01*
X146137809Y-44537809D01*
X146278157Y-44327765D01*
X146327440Y-44080000D01*
X146327440Y-43940000D01*
X148615153Y-43940000D01*
X148690000Y-43954888D01*
X148764847Y-43940000D01*
X148764852Y-43940000D01*
X148986537Y-43895904D01*
X149237929Y-43727929D01*
X149280331Y-43664470D01*
X149637361Y-43307440D01*
X150510000Y-43307440D01*
X150757765Y-43258157D01*
X150967809Y-43117809D01*
X151108157Y-42907765D01*
X151157440Y-42660000D01*
X151157440Y-41160000D01*
X151108157Y-40912235D01*
X150967809Y-40702191D01*
X150757765Y-40561843D01*
X150729791Y-40556279D01*
X150869699Y-40498327D01*
X151048327Y-40319698D01*
X151145000Y-40086309D01*
X151145000Y-39495750D01*
X150986250Y-39337000D01*
X149987000Y-39337000D01*
X149987000Y-39357000D01*
X149733000Y-39357000D01*
X149733000Y-39337000D01*
X148733750Y-39337000D01*
X148575000Y-39495750D01*
X148575000Y-40086309D01*
X148671673Y-40319698D01*
X148850301Y-40498327D01*
X148990209Y-40556279D01*
X148962235Y-40561843D01*
X148752191Y-40702191D01*
X148611843Y-40912235D01*
X148562560Y-41160000D01*
X148562560Y-42232639D01*
X148375199Y-42420000D01*
X146327440Y-42420000D01*
X146327440Y-42280000D01*
X146278157Y-42032235D01*
X146137809Y-41822191D01*
X145929304Y-41682871D01*
X146117311Y-41401499D01*
X146124847Y-41400000D01*
X146124852Y-41400000D01*
X146346537Y-41355904D01*
X146597929Y-41187929D01*
X146640331Y-41124470D01*
X147804473Y-39960329D01*
X147867929Y-39917929D01*
X148035904Y-39666537D01*
X148080000Y-39444852D01*
X148080000Y-39444848D01*
X148094888Y-39370001D01*
X148080000Y-39295154D01*
X148080000Y-38333691D01*
X148575000Y-38333691D01*
X148575000Y-38924250D01*
X148733750Y-39083000D01*
X149733000Y-39083000D01*
X149733000Y-37983750D01*
X149987000Y-37983750D01*
X149987000Y-39083000D01*
X150986250Y-39083000D01*
X151145000Y-38924250D01*
X151145000Y-38333691D01*
X151048327Y-38100302D01*
X150869699Y-37921673D01*
X150636310Y-37825000D01*
X150145750Y-37825000D01*
X149987000Y-37983750D01*
X149733000Y-37983750D01*
X149574250Y-37825000D01*
X149083690Y-37825000D01*
X148850301Y-37921673D01*
X148671673Y-38100302D01*
X148575000Y-38333691D01*
X148080000Y-38333691D01*
X148080000Y-37735258D01*
X153448954Y-37735258D01*
X153569003Y-37973000D01*
X154813000Y-37973000D01*
X154813000Y-36729622D01*
X155067000Y-36729622D01*
X155067000Y-37973000D01*
X156310997Y-37973000D01*
X156431046Y-37735258D01*
X156177966Y-37192424D01*
X155736417Y-36787760D01*
X155304740Y-36608964D01*
X155067000Y-36729622D01*
X154813000Y-36729622D01*
X154575260Y-36608964D01*
X154143583Y-36787760D01*
X153702034Y-37192424D01*
X153448954Y-37735258D01*
X148080000Y-37735258D01*
X148080000Y-35874801D01*
X148904802Y-35050000D01*
X151055153Y-35050000D01*
X151130000Y-35064888D01*
X151204847Y-35050000D01*
X151204852Y-35050000D01*
X151426537Y-35005904D01*
X151677929Y-34837929D01*
X151720331Y-34774470D01*
X152884473Y-33610329D01*
X152947929Y-33567929D01*
X153115904Y-33316537D01*
X153160000Y-33094852D01*
X153160000Y-33094848D01*
X153174888Y-33020001D01*
X153160000Y-32945154D01*
X153160000Y-30707440D01*
X153250000Y-30707440D01*
X153497765Y-30658157D01*
X153707809Y-30517809D01*
X153848157Y-30307765D01*
X153857184Y-30262381D01*
X153869375Y-30280625D01*
X154180000Y-30488178D01*
X154180000Y-31675153D01*
X154165112Y-31750000D01*
X154180000Y-31824847D01*
X154180000Y-31824851D01*
X154224096Y-32046536D01*
X154392071Y-32297929D01*
X154455530Y-32340331D01*
X156720001Y-34604804D01*
X156720000Y-39055198D01*
X156124859Y-39650340D01*
X156046673Y-39533327D01*
X155790826Y-39362376D01*
X156177966Y-39007576D01*
X156431046Y-38464742D01*
X156310997Y-38227000D01*
X155067000Y-38227000D01*
X155067000Y-38247000D01*
X154813000Y-38247000D01*
X154813000Y-38227000D01*
X153569003Y-38227000D01*
X153448954Y-38464742D01*
X153702034Y-39007576D01*
X154089174Y-39362376D01*
X153833327Y-39533327D01*
X153494062Y-40041073D01*
X153374928Y-40640000D01*
X153494062Y-41238927D01*
X153790696Y-41682871D01*
X153582191Y-41822191D01*
X153441843Y-42032235D01*
X153392560Y-42280000D01*
X153392560Y-44080000D01*
X153441843Y-44327765D01*
X153582191Y-44537809D01*
X153792235Y-44678157D01*
X154040000Y-44727440D01*
X154180001Y-44727440D01*
X154180000Y-48154440D01*
X154042235Y-48181843D01*
X153832191Y-48322191D01*
X153691843Y-48532235D01*
X153642560Y-48780000D01*
X153642560Y-50280000D01*
X153691843Y-50527765D01*
X153832191Y-50737809D01*
X154042235Y-50878157D01*
X154051500Y-50880000D01*
X154042235Y-50881843D01*
X153832191Y-51022191D01*
X153691843Y-51232235D01*
X153642560Y-51480000D01*
X153642560Y-52980000D01*
X153691843Y-53227765D01*
X153832191Y-53437809D01*
X154042235Y-53578157D01*
X154180001Y-53605560D01*
X154180000Y-54484549D01*
X153942235Y-54531843D01*
X153732191Y-54672191D01*
X153591843Y-54882235D01*
X153542560Y-55130000D01*
X153542560Y-56630000D01*
X153591843Y-56877765D01*
X153732191Y-57087809D01*
X153942235Y-57228157D01*
X154180000Y-57275451D01*
X154180000Y-57710153D01*
X154165112Y-57785000D01*
X154180000Y-57859847D01*
X154180000Y-57859851D01*
X154224096Y-58081536D01*
X154392071Y-58332929D01*
X154455530Y-58375331D01*
X155840001Y-59759803D01*
X155840001Y-61045018D01*
X155642191Y-61177191D01*
X155600000Y-61240334D01*
X155557809Y-61177191D01*
X155347765Y-61036843D01*
X155100000Y-60987560D01*
X154100000Y-60987560D01*
X153852235Y-61036843D01*
X153642191Y-61177191D01*
X153501843Y-61387235D01*
X153452560Y-61635000D01*
X153452560Y-62125000D01*
X150829802Y-62125000D01*
X150450331Y-61745530D01*
X150407929Y-61682071D01*
X150156537Y-61514096D01*
X149934852Y-61470000D01*
X149934847Y-61470000D01*
X149883416Y-61459770D01*
X149838157Y-61232235D01*
X149697809Y-61022191D01*
X149487765Y-60881843D01*
X149240000Y-60832560D01*
X147940000Y-60832560D01*
X147692235Y-60881843D01*
X147482191Y-61022191D01*
X147341843Y-61232235D01*
X147294549Y-61470000D01*
X146075451Y-61470000D01*
X146028157Y-61232235D01*
X145887809Y-61022191D01*
X145677765Y-60881843D01*
X145430000Y-60832560D01*
X144130000Y-60832560D01*
X143882235Y-60881843D01*
X143672191Y-61022191D01*
X143531843Y-61232235D01*
X143482560Y-61480000D01*
X143482560Y-62980000D01*
X143531843Y-63227765D01*
X143672191Y-63437809D01*
X143882235Y-63578157D01*
X143891500Y-63580000D01*
X143882235Y-63581843D01*
X143672191Y-63722191D01*
X143531843Y-63932235D01*
X143482560Y-64180000D01*
X143482560Y-64281517D01*
X143332071Y-64382071D01*
X143289671Y-64445527D01*
X142390530Y-65344669D01*
X142327071Y-65387071D01*
X142159096Y-65638464D01*
X142115000Y-65860149D01*
X142115000Y-65860153D01*
X142100112Y-65935000D01*
X142115000Y-66009847D01*
X142115000Y-66606289D01*
X141997569Y-66723720D01*
X141840000Y-67104126D01*
X141840000Y-67515874D01*
X141997569Y-67896280D01*
X142115001Y-68013712D01*
X142115000Y-69924851D01*
X142159096Y-70146536D01*
X142327071Y-70397929D01*
X142578463Y-70565904D01*
X142846064Y-70619133D01*
X139250200Y-74214999D01*
X137824847Y-74214999D01*
X137750000Y-74200111D01*
X137675153Y-74214999D01*
X137675149Y-74214999D01*
X137453464Y-74259095D01*
X137202072Y-74427070D01*
X137159672Y-74490526D01*
X136933929Y-74716269D01*
X136676182Y-74665000D01*
X136373818Y-74665000D01*
X135926073Y-74754062D01*
X135471888Y-75057538D01*
X135423327Y-74940301D01*
X135244698Y-74761673D01*
X135011309Y-74665000D01*
X134270750Y-74665000D01*
X134112000Y-74823750D01*
X134112000Y-76073000D01*
X134132000Y-76073000D01*
X134132000Y-76327000D01*
X134112000Y-76327000D01*
X134112000Y-77576250D01*
X134270750Y-77735000D01*
X135011309Y-77735000D01*
X135244698Y-77638327D01*
X135423327Y-77459699D01*
X135471888Y-77342462D01*
X135765001Y-77538313D01*
X135765000Y-78739549D01*
X135527235Y-78786843D01*
X135317191Y-78927191D01*
X135276346Y-78988320D01*
X135134698Y-78846673D01*
X134901309Y-78750000D01*
X134310750Y-78750000D01*
X134152000Y-78908750D01*
X134152000Y-79883000D01*
X134172000Y-79883000D01*
X134172000Y-80137000D01*
X134152000Y-80137000D01*
X134152000Y-81111250D01*
X134310750Y-81270000D01*
X134901309Y-81270000D01*
X135134698Y-81173327D01*
X135276346Y-81031680D01*
X135317191Y-81092809D01*
X135527235Y-81233157D01*
X135775000Y-81282440D01*
X137275000Y-81282440D01*
X137522765Y-81233157D01*
X137732809Y-81092809D01*
X137873157Y-80882765D01*
X137922440Y-80635000D01*
X137922440Y-79385000D01*
X137873157Y-79137235D01*
X137732809Y-78927191D01*
X137522765Y-78786843D01*
X137285000Y-78739549D01*
X137285000Y-77538312D01*
X137631673Y-77306673D01*
X137795000Y-77062237D01*
X137958327Y-77306673D01*
X138466073Y-77645938D01*
X138913818Y-77735000D01*
X139204999Y-77735000D01*
X139205000Y-82885198D01*
X139030199Y-83060000D01*
X137895587Y-83060000D01*
X137873157Y-82947235D01*
X137732809Y-82737191D01*
X137522765Y-82596843D01*
X137275000Y-82547560D01*
X135775000Y-82547560D01*
X135527235Y-82596843D01*
X135317191Y-82737191D01*
X135276346Y-82798320D01*
X135134698Y-82656673D01*
X134901309Y-82560000D01*
X134310750Y-82560000D01*
X134152000Y-82718750D01*
X134152000Y-83693000D01*
X134172000Y-83693000D01*
X134172000Y-83947000D01*
X134152000Y-83947000D01*
X134152000Y-84921250D01*
X134310750Y-85080000D01*
X134901309Y-85080000D01*
X135134698Y-84983327D01*
X135276346Y-84841680D01*
X135317191Y-84902809D01*
X135527235Y-85043157D01*
X135775000Y-85092440D01*
X137275000Y-85092440D01*
X137522765Y-85043157D01*
X137732809Y-84902809D01*
X137873157Y-84692765D01*
X137895587Y-84580000D01*
X139030199Y-84580000D01*
X141480000Y-87029802D01*
X141480001Y-92032560D01*
X140940000Y-92032560D01*
X140692235Y-92081843D01*
X140482191Y-92222191D01*
X140341843Y-92432235D01*
X140292560Y-92680000D01*
X140292560Y-95280000D01*
X140341843Y-95527765D01*
X140482191Y-95737809D01*
X140692235Y-95878157D01*
X140940000Y-95927440D01*
X143540000Y-95927440D01*
X143787765Y-95878157D01*
X143997809Y-95737809D01*
X144082847Y-95610541D01*
X145750146Y-95610541D01*
X146940000Y-96800395D01*
X148129854Y-95610541D01*
X147994496Y-95312545D01*
X147276120Y-95035934D01*
X146506573Y-95055290D01*
X145885504Y-95312545D01*
X145750146Y-95610541D01*
X144082847Y-95610541D01*
X144138157Y-95527765D01*
X144187440Y-95280000D01*
X144187440Y-92680000D01*
X144178391Y-92634506D01*
X170700000Y-92634506D01*
X170700000Y-93185494D01*
X170910853Y-93694540D01*
X171300460Y-94084147D01*
X171809506Y-94295000D01*
X172360494Y-94295000D01*
X172869540Y-94084147D01*
X173259147Y-93694540D01*
X173470000Y-93185494D01*
X173470000Y-92634506D01*
X173259147Y-92125460D01*
X172869540Y-91735853D01*
X172360494Y-91525000D01*
X171809506Y-91525000D01*
X171300460Y-91735853D01*
X170910853Y-92125460D01*
X170700000Y-92634506D01*
X144178391Y-92634506D01*
X144138157Y-92432235D01*
X143997809Y-92222191D01*
X143787765Y-92081843D01*
X143540000Y-92032560D01*
X143000000Y-92032560D01*
X143000000Y-87048227D01*
X143007929Y-87042929D01*
X143175904Y-86791537D01*
X143220000Y-86569852D01*
X143220000Y-86569847D01*
X143234888Y-86495000D01*
X143220000Y-86420153D01*
X143220000Y-84793163D01*
X143317809Y-84727809D01*
X143458157Y-84517765D01*
X143507440Y-84270000D01*
X143507440Y-83370000D01*
X143458157Y-83122235D01*
X143317809Y-82912191D01*
X143107765Y-82771843D01*
X142860000Y-82722560D01*
X142060000Y-82722560D01*
X141812235Y-82771843D01*
X141602191Y-82912191D01*
X141461843Y-83122235D01*
X141412560Y-83370000D01*
X141412560Y-84270000D01*
X141461843Y-84517765D01*
X141602191Y-84727809D01*
X141700001Y-84793164D01*
X141700001Y-85100199D01*
X140419802Y-83820000D01*
X140449472Y-83790330D01*
X140512928Y-83747930D01*
X140680903Y-83496538D01*
X140724999Y-83274853D01*
X140724999Y-83274848D01*
X140739887Y-83200001D01*
X140724999Y-83125154D01*
X140724999Y-77174847D01*
X140739887Y-77099999D01*
X140724999Y-77025151D01*
X140724999Y-77025147D01*
X140680903Y-76803462D01*
X140680903Y-76803461D01*
X140555328Y-76615526D01*
X140549233Y-76606404D01*
X140630072Y-76200000D01*
X140537578Y-75734999D01*
X142605198Y-75734999D01*
X149860743Y-82990546D01*
X149791289Y-83060000D01*
X145516573Y-83060000D01*
X145417809Y-82912191D01*
X145207765Y-82771843D01*
X144960000Y-82722560D01*
X144160000Y-82722560D01*
X143912235Y-82771843D01*
X143702191Y-82912191D01*
X143561843Y-83122235D01*
X143512560Y-83370000D01*
X143512560Y-84270000D01*
X143561843Y-84517765D01*
X143702191Y-84727809D01*
X143912235Y-84868157D01*
X144160000Y-84917440D01*
X144960000Y-84917440D01*
X145207765Y-84868157D01*
X145417809Y-84727809D01*
X145516573Y-84580000D01*
X149791289Y-84580000D01*
X149908720Y-84697431D01*
X150289126Y-84855000D01*
X150700874Y-84855000D01*
X151081280Y-84697431D01*
X151324454Y-84454257D01*
X153905000Y-87034803D01*
X153905000Y-87200874D01*
X154062569Y-87581280D01*
X154353720Y-87872431D01*
X154734126Y-88030000D01*
X155145874Y-88030000D01*
X155526280Y-87872431D01*
X155643711Y-87755000D01*
X157800199Y-87755000D01*
X160255000Y-90209802D01*
X160255000Y-90375874D01*
X160412569Y-90756280D01*
X160703720Y-91047431D01*
X161084126Y-91205000D01*
X161495874Y-91205000D01*
X161876280Y-91047431D01*
X162167431Y-90756280D01*
X162325000Y-90375874D01*
X162325000Y-89964126D01*
X162167431Y-89583720D01*
X161876280Y-89292569D01*
X161495874Y-89135000D01*
X161329802Y-89135000D01*
X158705331Y-86510530D01*
X158662929Y-86447071D01*
X158411537Y-86279096D01*
X158189852Y-86235000D01*
X158189847Y-86235000D01*
X158115000Y-86220112D01*
X158040153Y-86235000D01*
X155643711Y-86235000D01*
X155526280Y-86117569D01*
X155145874Y-85960000D01*
X154979803Y-85960000D01*
X143510330Y-74490529D01*
X143467928Y-74427070D01*
X143216536Y-74259095D01*
X142994851Y-74214999D01*
X142994846Y-74214999D01*
X142919999Y-74200111D01*
X142845152Y-74214999D01*
X141399803Y-74214999D01*
X144819803Y-70795000D01*
X144985874Y-70795000D01*
X145366280Y-70637431D01*
X145657431Y-70346280D01*
X145815000Y-69965874D01*
X145815000Y-69554126D01*
X145657431Y-69173720D01*
X145500100Y-69016389D01*
X145591130Y-68978683D01*
X145607145Y-68989384D01*
X145938217Y-69055238D01*
X146110199Y-69055238D01*
X148204432Y-71149472D01*
X148246833Y-71212929D01*
X148498225Y-71380904D01*
X148719910Y-71425000D01*
X148719914Y-71425000D01*
X148794762Y-71439888D01*
X148869610Y-71425000D01*
X150180199Y-71425000D01*
X150282698Y-71527499D01*
X149185199Y-72625000D01*
X149019126Y-72625000D01*
X148638720Y-72782569D01*
X148347569Y-73073720D01*
X148190000Y-73454126D01*
X148190000Y-73865874D01*
X148347569Y-74246280D01*
X148638720Y-74537431D01*
X149019126Y-74695000D01*
X149430874Y-74695000D01*
X149811280Y-74537431D01*
X150102431Y-74246280D01*
X150260000Y-73865874D01*
X150260000Y-73699801D01*
X151651989Y-72307814D01*
X151742191Y-72442809D01*
X151805334Y-72485000D01*
X151742191Y-72527191D01*
X151601843Y-72737235D01*
X151552560Y-72985000D01*
X151552560Y-73985000D01*
X151601843Y-74232765D01*
X151742191Y-74442809D01*
X151805334Y-74485000D01*
X151742191Y-74527191D01*
X151601843Y-74737235D01*
X151552560Y-74985000D01*
X151552560Y-75985000D01*
X151601843Y-76232765D01*
X151742191Y-76442809D01*
X151952235Y-76583157D01*
X152200000Y-76632440D01*
X153492851Y-76632440D01*
X153452560Y-76835000D01*
X153452560Y-79335000D01*
X153501843Y-79582765D01*
X153642191Y-79792809D01*
X153840000Y-79924982D01*
X153840000Y-80230153D01*
X153825112Y-80305000D01*
X153840000Y-80379847D01*
X153840000Y-80379851D01*
X153884096Y-80601536D01*
X154052071Y-80852929D01*
X154115530Y-80895331D01*
X154349669Y-81129470D01*
X154392071Y-81192929D01*
X154643463Y-81360904D01*
X154865148Y-81405000D01*
X154865152Y-81405000D01*
X154872813Y-81406524D01*
X154988720Y-81522431D01*
X155369126Y-81680000D01*
X155780874Y-81680000D01*
X156044084Y-81570975D01*
X156052071Y-81582929D01*
X156115529Y-81625331D01*
X156799672Y-82309474D01*
X156842070Y-82372928D01*
X156905523Y-82415326D01*
X156905525Y-82415328D01*
X156958106Y-82450461D01*
X157093462Y-82540903D01*
X157315147Y-82584999D01*
X157315151Y-82584999D01*
X157389998Y-82599887D01*
X157464845Y-82584999D01*
X158350000Y-82584999D01*
X158350000Y-82755874D01*
X158507569Y-83136280D01*
X158625001Y-83253712D01*
X158625000Y-84386289D01*
X158507569Y-84503720D01*
X158350000Y-84884126D01*
X158350000Y-85295874D01*
X158507569Y-85676280D01*
X158798720Y-85967431D01*
X159179126Y-86125000D01*
X159590874Y-86125000D01*
X159971280Y-85967431D01*
X160020000Y-85918711D01*
X160068720Y-85967431D01*
X160449126Y-86125000D01*
X160860874Y-86125000D01*
X161241280Y-85967431D01*
X161290000Y-85918711D01*
X161338720Y-85967431D01*
X161719126Y-86125000D01*
X162130874Y-86125000D01*
X162511280Y-85967431D01*
X162802431Y-85676280D01*
X162960000Y-85295874D01*
X162960000Y-84884126D01*
X162802431Y-84503720D01*
X162685000Y-84386289D01*
X162685000Y-83259846D01*
X162699888Y-83184999D01*
X162685000Y-83110152D01*
X162685000Y-83110148D01*
X162640904Y-82888463D01*
X162552311Y-82755874D01*
X162515329Y-82700526D01*
X162515327Y-82700524D01*
X162472929Y-82637071D01*
X162409476Y-82594673D01*
X159975331Y-80160530D01*
X159932929Y-80097071D01*
X159681537Y-79929096D01*
X159459852Y-79885000D01*
X159459847Y-79885000D01*
X159429015Y-79878867D01*
X159557809Y-79792809D01*
X159600000Y-79729666D01*
X159642191Y-79792809D01*
X159852235Y-79933157D01*
X160100000Y-79982440D01*
X161100000Y-79982440D01*
X161347765Y-79933157D01*
X161557809Y-79792809D01*
X161600000Y-79729666D01*
X161642191Y-79792809D01*
X161852235Y-79933157D01*
X162100000Y-79982440D01*
X163100000Y-79982440D01*
X163347765Y-79933157D01*
X163557809Y-79792809D01*
X163600000Y-79729666D01*
X163642191Y-79792809D01*
X163852235Y-79933157D01*
X164100000Y-79982440D01*
X165100000Y-79982440D01*
X165347765Y-79933157D01*
X165557809Y-79792809D01*
X165600000Y-79729666D01*
X165642191Y-79792809D01*
X165852235Y-79933157D01*
X166100000Y-79982440D01*
X167100000Y-79982440D01*
X167347765Y-79933157D01*
X167557809Y-79792809D01*
X167600000Y-79729666D01*
X167642191Y-79792809D01*
X167852235Y-79933157D01*
X168100000Y-79982440D01*
X168783000Y-79982440D01*
X168783000Y-80010000D01*
X168792667Y-80058601D01*
X168820197Y-80099803D01*
X168861399Y-80127333D01*
X168910000Y-80137000D01*
X177673000Y-80137000D01*
X177673000Y-81625000D01*
X177043364Y-81625000D01*
X176683127Y-81696656D01*
X176274615Y-81969615D01*
X176001656Y-82378127D01*
X175905805Y-82860000D01*
X175917560Y-82919096D01*
X175917560Y-83039230D01*
X175585378Y-82707048D01*
X175085521Y-82500000D01*
X174544479Y-82500000D01*
X174044622Y-82707048D01*
X173662048Y-83089622D01*
X173455000Y-83589479D01*
X173455000Y-84130521D01*
X173606266Y-84495709D01*
X173601673Y-84500302D01*
X173505000Y-84733691D01*
X173505000Y-84801250D01*
X173663750Y-84960000D01*
X173808482Y-84960000D01*
X173780301Y-84971673D01*
X173601673Y-85150302D01*
X173550920Y-85272830D01*
X173505000Y-85318750D01*
X173505000Y-85451250D01*
X173550920Y-85497170D01*
X173586471Y-85582998D01*
X173505000Y-85582998D01*
X173505000Y-85600000D01*
X167714846Y-85600000D01*
X167639999Y-85585112D01*
X167565152Y-85600000D01*
X167565148Y-85600000D01*
X167343463Y-85644096D01*
X167092071Y-85812071D01*
X167049671Y-85875527D01*
X166330199Y-86595000D01*
X166164126Y-86595000D01*
X165783720Y-86752569D01*
X165492569Y-87043720D01*
X165335000Y-87424126D01*
X165335000Y-87835874D01*
X165492569Y-88216280D01*
X165783720Y-88507431D01*
X166099444Y-88638208D01*
X166217569Y-88923388D01*
X166508720Y-89214539D01*
X166889126Y-89372108D01*
X167300874Y-89372108D01*
X167681280Y-89214539D01*
X167972431Y-88923388D01*
X168130000Y-88542982D01*
X168130000Y-88376910D01*
X168736911Y-87770000D01*
X170534760Y-87770000D01*
X170415000Y-88059126D01*
X170415000Y-88470874D01*
X170572569Y-88851280D01*
X170863720Y-89142431D01*
X171244126Y-89300000D01*
X171655874Y-89300000D01*
X172036280Y-89142431D01*
X172327431Y-88851280D01*
X172485000Y-88470874D01*
X172485000Y-88420000D01*
X173525201Y-88420000D01*
X173455000Y-88589479D01*
X173455000Y-89130521D01*
X173662048Y-89630378D01*
X174044622Y-90012952D01*
X174544479Y-90220000D01*
X175085521Y-90220000D01*
X175585378Y-90012952D01*
X175917560Y-89680770D01*
X175917560Y-89800904D01*
X175905805Y-89860000D01*
X176001656Y-90341873D01*
X176274615Y-90750385D01*
X176683127Y-91023344D01*
X177043364Y-91095000D01*
X177673000Y-91095000D01*
X177673000Y-101695176D01*
X177205771Y-101227947D01*
X175943264Y-100705000D01*
X174576736Y-100705000D01*
X173314229Y-101227947D01*
X172347947Y-102194229D01*
X171825000Y-103456736D01*
X171825000Y-104823264D01*
X172347947Y-106085771D01*
X172815176Y-106553000D01*
X134524824Y-106553000D01*
X134992053Y-106085771D01*
X135515000Y-104823264D01*
X135515000Y-103456736D01*
X134992053Y-102194229D01*
X134147283Y-101349459D01*
X141050146Y-101349459D01*
X141185504Y-101647455D01*
X141903880Y-101924066D01*
X142673427Y-101904710D01*
X143294496Y-101647455D01*
X143429854Y-101349459D01*
X142240000Y-100159605D01*
X141050146Y-101349459D01*
X134147283Y-101349459D01*
X134025771Y-101227947D01*
X132763264Y-100705000D01*
X131396736Y-100705000D01*
X130134229Y-101227947D01*
X129667000Y-101695176D01*
X129667000Y-99643880D01*
X140295934Y-99643880D01*
X140315290Y-100413427D01*
X140572545Y-101034496D01*
X140870541Y-101169854D01*
X142060395Y-99980000D01*
X142419605Y-99980000D01*
X143609459Y-101169854D01*
X143907455Y-101034496D01*
X144184066Y-100316120D01*
X144164710Y-99546573D01*
X143907455Y-98925504D01*
X143609459Y-98790146D01*
X142419605Y-99980000D01*
X142060395Y-99980000D01*
X140870541Y-98790146D01*
X140572545Y-98925504D01*
X140295934Y-99643880D01*
X129667000Y-99643880D01*
X129667000Y-98610541D01*
X141050146Y-98610541D01*
X142240000Y-99800395D01*
X143429854Y-98610541D01*
X143311264Y-98349459D01*
X145750146Y-98349459D01*
X145885504Y-98647455D01*
X146603880Y-98924066D01*
X147373427Y-98904710D01*
X147994496Y-98647455D01*
X148129854Y-98349459D01*
X146940000Y-97159605D01*
X145750146Y-98349459D01*
X143311264Y-98349459D01*
X143294496Y-98312545D01*
X142576120Y-98035934D01*
X141806573Y-98055290D01*
X141185504Y-98312545D01*
X141050146Y-98610541D01*
X129667000Y-98610541D01*
X129667000Y-96643880D01*
X144995934Y-96643880D01*
X145015290Y-97413427D01*
X145272545Y-98034496D01*
X145570541Y-98169854D01*
X146760395Y-96980000D01*
X147119605Y-96980000D01*
X148309459Y-98169854D01*
X148607455Y-98034496D01*
X148807677Y-97514506D01*
X170700000Y-97514506D01*
X170700000Y-98065494D01*
X170910853Y-98574540D01*
X171300460Y-98964147D01*
X171809506Y-99175000D01*
X172360494Y-99175000D01*
X172869540Y-98964147D01*
X173259147Y-98574540D01*
X173470000Y-98065494D01*
X173470000Y-97514506D01*
X173259147Y-97005460D01*
X172869540Y-96615853D01*
X172360494Y-96405000D01*
X171809506Y-96405000D01*
X171300460Y-96615853D01*
X170910853Y-97005460D01*
X170700000Y-97514506D01*
X148807677Y-97514506D01*
X148884066Y-97316120D01*
X148864710Y-96546573D01*
X148607455Y-95925504D01*
X148309459Y-95790146D01*
X147119605Y-96980000D01*
X146760395Y-96980000D01*
X145570541Y-95790146D01*
X145272545Y-95925504D01*
X144995934Y-96643880D01*
X129667000Y-96643880D01*
X129667000Y-84105750D01*
X132640000Y-84105750D01*
X132640000Y-84571310D01*
X132736673Y-84804699D01*
X132915302Y-84983327D01*
X133148691Y-85080000D01*
X133739250Y-85080000D01*
X133898000Y-84921250D01*
X133898000Y-83947000D01*
X132798750Y-83947000D01*
X132640000Y-84105750D01*
X129667000Y-84105750D01*
X129667000Y-83068690D01*
X132640000Y-83068690D01*
X132640000Y-83534250D01*
X132798750Y-83693000D01*
X133898000Y-83693000D01*
X133898000Y-82718750D01*
X133739250Y-82560000D01*
X133148691Y-82560000D01*
X132915302Y-82656673D01*
X132736673Y-82835301D01*
X132640000Y-83068690D01*
X129667000Y-83068690D01*
X129667000Y-80295750D01*
X132640000Y-80295750D01*
X132640000Y-80761310D01*
X132736673Y-80994699D01*
X132915302Y-81173327D01*
X133148691Y-81270000D01*
X133739250Y-81270000D01*
X133898000Y-81111250D01*
X133898000Y-80137000D01*
X132798750Y-80137000D01*
X132640000Y-80295750D01*
X129667000Y-80295750D01*
X129667000Y-79258690D01*
X132640000Y-79258690D01*
X132640000Y-79724250D01*
X132798750Y-79883000D01*
X133898000Y-79883000D01*
X133898000Y-78908750D01*
X133739250Y-78750000D01*
X133148691Y-78750000D01*
X132915302Y-78846673D01*
X132736673Y-79025301D01*
X132640000Y-79258690D01*
X129667000Y-79258690D01*
X129667000Y-76485750D01*
X132450000Y-76485750D01*
X132450000Y-77226310D01*
X132546673Y-77459699D01*
X132725302Y-77638327D01*
X132958691Y-77735000D01*
X133699250Y-77735000D01*
X133858000Y-77576250D01*
X133858000Y-76327000D01*
X132608750Y-76327000D01*
X132450000Y-76485750D01*
X129667000Y-76485750D01*
X129667000Y-75173690D01*
X132450000Y-75173690D01*
X132450000Y-75914250D01*
X132608750Y-76073000D01*
X133858000Y-76073000D01*
X133858000Y-74823750D01*
X133699250Y-74665000D01*
X132958691Y-74665000D01*
X132725302Y-74761673D01*
X132546673Y-74940301D01*
X132450000Y-75173690D01*
X129667000Y-75173690D01*
X129667000Y-71419188D01*
X133092917Y-71419188D01*
X133154571Y-71654800D01*
X133654980Y-71830927D01*
X134184699Y-71802148D01*
X134540429Y-71654800D01*
X134602083Y-71419188D01*
X133847500Y-70664605D01*
X133092917Y-71419188D01*
X129667000Y-71419188D01*
X129667000Y-70292480D01*
X132501573Y-70292480D01*
X132530352Y-70822199D01*
X132677700Y-71177929D01*
X132913312Y-71239583D01*
X133667895Y-70485000D01*
X134027105Y-70485000D01*
X134781688Y-71239583D01*
X135017300Y-71177929D01*
X135193427Y-70677520D01*
X135168557Y-70219750D01*
X137594000Y-70219750D01*
X137594000Y-70750250D01*
X137797013Y-71240367D01*
X138172133Y-71615487D01*
X138662250Y-71818500D01*
X139192750Y-71818500D01*
X139682867Y-71615487D01*
X140057987Y-71240367D01*
X140261000Y-70750250D01*
X140261000Y-70219750D01*
X140057987Y-69729633D01*
X139682867Y-69354513D01*
X139192750Y-69151500D01*
X138662250Y-69151500D01*
X138172133Y-69354513D01*
X137797013Y-69729633D01*
X137594000Y-70219750D01*
X135168557Y-70219750D01*
X135164648Y-70147801D01*
X135017300Y-69792071D01*
X134781688Y-69730417D01*
X134027105Y-70485000D01*
X133667895Y-70485000D01*
X132913312Y-69730417D01*
X132677700Y-69792071D01*
X132501573Y-70292480D01*
X129667000Y-70292480D01*
X129667000Y-69550812D01*
X133092917Y-69550812D01*
X133847500Y-70305395D01*
X134602083Y-69550812D01*
X134540429Y-69315200D01*
X134040020Y-69139073D01*
X133510301Y-69167852D01*
X133154571Y-69315200D01*
X133092917Y-69550812D01*
X129667000Y-69550812D01*
X129667000Y-63799188D01*
X133092917Y-63799188D01*
X133154571Y-64034800D01*
X133654980Y-64210927D01*
X134184699Y-64182148D01*
X134540429Y-64034800D01*
X134602083Y-63799188D01*
X133847500Y-63044605D01*
X133092917Y-63799188D01*
X129667000Y-63799188D01*
X129667000Y-62672480D01*
X132501573Y-62672480D01*
X132530352Y-63202199D01*
X132677700Y-63557929D01*
X132913312Y-63619583D01*
X133667895Y-62865000D01*
X134027105Y-62865000D01*
X134781688Y-63619583D01*
X135017300Y-63557929D01*
X135193427Y-63057520D01*
X135168557Y-62599750D01*
X137594000Y-62599750D01*
X137594000Y-63130250D01*
X137797013Y-63620367D01*
X138172133Y-63995487D01*
X138662250Y-64198500D01*
X139192750Y-64198500D01*
X139682867Y-63995487D01*
X140057987Y-63620367D01*
X140261000Y-63130250D01*
X140261000Y-62599750D01*
X140057987Y-62109633D01*
X139682867Y-61734513D01*
X139192750Y-61531500D01*
X138662250Y-61531500D01*
X138172133Y-61734513D01*
X137797013Y-62109633D01*
X137594000Y-62599750D01*
X135168557Y-62599750D01*
X135164648Y-62527801D01*
X135017300Y-62172071D01*
X134781688Y-62110417D01*
X134027105Y-62865000D01*
X133667895Y-62865000D01*
X132913312Y-62110417D01*
X132677700Y-62172071D01*
X132501573Y-62672480D01*
X129667000Y-62672480D01*
X129667000Y-61930812D01*
X133092917Y-61930812D01*
X133847500Y-62685395D01*
X134602083Y-61930812D01*
X134540429Y-61695200D01*
X134040020Y-61519073D01*
X133510301Y-61547852D01*
X133154571Y-61695200D01*
X133092917Y-61930812D01*
X129667000Y-61930812D01*
X129667000Y-37735258D01*
X143288954Y-37735258D01*
X143409003Y-37973000D01*
X144653000Y-37973000D01*
X144653000Y-36729622D01*
X144907000Y-36729622D01*
X144907000Y-37973000D01*
X146150997Y-37973000D01*
X146271046Y-37735258D01*
X146017966Y-37192424D01*
X145576417Y-36787760D01*
X145144740Y-36608964D01*
X144907000Y-36729622D01*
X144653000Y-36729622D01*
X144415260Y-36608964D01*
X143983583Y-36787760D01*
X143542034Y-37192424D01*
X143288954Y-37735258D01*
X129667000Y-37735258D01*
X129667000Y-31654824D01*
X130134229Y-32122053D01*
X131396736Y-32645000D01*
X132763264Y-32645000D01*
X134025771Y-32122053D01*
X134992053Y-31155771D01*
X135515000Y-29893264D01*
X135515000Y-28526736D01*
X134992053Y-27264229D01*
X134524824Y-26797000D01*
X172815176Y-26797000D01*
X172347947Y-27264229D01*
X172347947Y-27264229D01*
G37*
X172347947Y-27264229D02*
X171825000Y-28526736D01*
X171825000Y-29893264D01*
X172347947Y-31155771D01*
X173314229Y-32122053D01*
X174576736Y-32645000D01*
X175943264Y-32645000D01*
X177205771Y-32122053D01*
X177673000Y-31654824D01*
X177673000Y-60833000D01*
X168910000Y-60833000D01*
X168861399Y-60842667D01*
X168820197Y-60870197D01*
X168792667Y-60911399D01*
X168783000Y-60960000D01*
X168783000Y-60987560D01*
X168100000Y-60987560D01*
X167852235Y-61036843D01*
X167642191Y-61177191D01*
X167600000Y-61240334D01*
X167557809Y-61177191D01*
X167347765Y-61036843D01*
X167100000Y-60987560D01*
X166100000Y-60987560D01*
X165852235Y-61036843D01*
X165642191Y-61177191D01*
X165601345Y-61238320D01*
X165459699Y-61096673D01*
X165226310Y-61000000D01*
X164885750Y-61000000D01*
X164727000Y-61158750D01*
X164727000Y-62758000D01*
X164747000Y-62758000D01*
X164747000Y-63012000D01*
X164727000Y-63012000D01*
X164727000Y-64611250D01*
X164885750Y-64770000D01*
X165226310Y-64770000D01*
X165459699Y-64673327D01*
X165601345Y-64531680D01*
X165642191Y-64592809D01*
X165852235Y-64733157D01*
X166100000Y-64782440D01*
X167100000Y-64782440D01*
X167347765Y-64733157D01*
X167557809Y-64592809D01*
X167600000Y-64529666D01*
X167642191Y-64592809D01*
X167840001Y-64724982D01*
X167840001Y-64765196D01*
X162880199Y-69725000D01*
X162628711Y-69725000D01*
X162511280Y-69607569D01*
X162130874Y-69450000D01*
X161719126Y-69450000D01*
X161338720Y-69607569D01*
X161047569Y-69898720D01*
X160890000Y-70279126D01*
X160890000Y-70690874D01*
X161047569Y-71071280D01*
X161338720Y-71362431D01*
X161719126Y-71520000D01*
X162130874Y-71520000D01*
X162511280Y-71362431D01*
X162628711Y-71245000D01*
X163120153Y-71245000D01*
X163195000Y-71259888D01*
X163269847Y-71245000D01*
X163269852Y-71245000D01*
X163491537Y-71200904D01*
X163742929Y-71032929D01*
X163785331Y-70969470D01*
X168783000Y-65971803D01*
X168783000Y-76187560D01*
X168100000Y-76187560D01*
X167852235Y-76236843D01*
X167642191Y-76377191D01*
X167600000Y-76440334D01*
X167557809Y-76377191D01*
X167347765Y-76236843D01*
X167100000Y-76187560D01*
X166100000Y-76187560D01*
X165852235Y-76236843D01*
X165642191Y-76377191D01*
X165600000Y-76440334D01*
X165557809Y-76377191D01*
X165347765Y-76236843D01*
X165100000Y-76187560D01*
X164100000Y-76187560D01*
X163852235Y-76236843D01*
X163642191Y-76377191D01*
X163600000Y-76440334D01*
X163557809Y-76377191D01*
X163347765Y-76236843D01*
X163100000Y-76187560D01*
X162100000Y-76187560D01*
X161852235Y-76236843D01*
X161642191Y-76377191D01*
X161600000Y-76440334D01*
X161557809Y-76377191D01*
X161347765Y-76236843D01*
X161100000Y-76187560D01*
X160100000Y-76187560D01*
X159852235Y-76236843D01*
X159642191Y-76377191D01*
X159600000Y-76440334D01*
X159557809Y-76377191D01*
X159347765Y-76236843D01*
X159100000Y-76187560D01*
X158100000Y-76187560D01*
X157852235Y-76236843D01*
X157642191Y-76377191D01*
X157600000Y-76440334D01*
X157557809Y-76377191D01*
X157347765Y-76236843D01*
X157100000Y-76187560D01*
X156100000Y-76187560D01*
X155852235Y-76236843D01*
X155642191Y-76377191D01*
X155600000Y-76440334D01*
X155557809Y-76377191D01*
X155347765Y-76236843D01*
X155100000Y-76187560D01*
X154607149Y-76187560D01*
X154647440Y-75985000D01*
X154647440Y-74985000D01*
X154598157Y-74737235D01*
X154457809Y-74527191D01*
X154394666Y-74485000D01*
X154457809Y-74442809D01*
X154598157Y-74232765D01*
X154647440Y-73985000D01*
X154647440Y-72985000D01*
X154598157Y-72737235D01*
X154457809Y-72527191D01*
X154394666Y-72485000D01*
X154457809Y-72442809D01*
X154598157Y-72232765D01*
X154647440Y-71985000D01*
X154647440Y-70985000D01*
X154598157Y-70737235D01*
X154457809Y-70527191D01*
X154394666Y-70485000D01*
X154457809Y-70442809D01*
X154598157Y-70232765D01*
X154647440Y-69985000D01*
X154647440Y-68985000D01*
X154598157Y-68737235D01*
X154457809Y-68527191D01*
X154394666Y-68485000D01*
X154457809Y-68442809D01*
X154598157Y-68232765D01*
X154647440Y-67985000D01*
X154647440Y-66985000D01*
X154598157Y-66737235D01*
X154457809Y-66527191D01*
X154396680Y-66486346D01*
X154538327Y-66344698D01*
X154635000Y-66111309D01*
X154635000Y-65770750D01*
X154476250Y-65612000D01*
X153227000Y-65612000D01*
X153227000Y-65632000D01*
X152973000Y-65632000D01*
X152973000Y-65612000D01*
X151723750Y-65612000D01*
X151565000Y-65770750D01*
X151565000Y-66111309D01*
X151661673Y-66344698D01*
X151803320Y-66486346D01*
X151742191Y-66527191D01*
X151601843Y-66737235D01*
X151552560Y-66985000D01*
X151552560Y-67985000D01*
X151601843Y-68232765D01*
X151742191Y-68442809D01*
X151805334Y-68485000D01*
X151742191Y-68527191D01*
X151601843Y-68737235D01*
X151552560Y-68985000D01*
X151552560Y-69985000D01*
X151601843Y-70232765D01*
X151742191Y-70442809D01*
X151805334Y-70485000D01*
X151742191Y-70527191D01*
X151617942Y-70713141D01*
X151085331Y-70180530D01*
X151042929Y-70117071D01*
X150791537Y-69949096D01*
X150569852Y-69905000D01*
X150569847Y-69905000D01*
X150495000Y-69890112D01*
X150420153Y-69905000D01*
X150260000Y-69905000D01*
X150260000Y-69554126D01*
X150102431Y-69173720D01*
X149985000Y-69056289D01*
X149985000Y-68665337D01*
X150131775Y-68636142D01*
X150383167Y-68468167D01*
X150425568Y-68404709D01*
X150979476Y-67850803D01*
X151042929Y-67808405D01*
X151085327Y-67744952D01*
X151085329Y-67744950D01*
X151210903Y-67557014D01*
X151210904Y-67557013D01*
X151255000Y-67335328D01*
X151255000Y-67335324D01*
X151269888Y-67260477D01*
X151255000Y-67185630D01*
X151255000Y-64858691D01*
X151565000Y-64858691D01*
X151565000Y-65199250D01*
X151723750Y-65358000D01*
X152973000Y-65358000D01*
X152973000Y-64508750D01*
X152814250Y-64350000D01*
X152073690Y-64350000D01*
X151840301Y-64446673D01*
X151661673Y-64625302D01*
X151565000Y-64858691D01*
X151255000Y-64858691D01*
X151255000Y-63645000D01*
X153452560Y-63645000D01*
X153452560Y-64135000D01*
X153495326Y-64350000D01*
X153385750Y-64350000D01*
X153227000Y-64508750D01*
X153227000Y-65358000D01*
X154476250Y-65358000D01*
X154635000Y-65199250D01*
X154635000Y-64858691D01*
X154603416Y-64782440D01*
X155100000Y-64782440D01*
X155347765Y-64733157D01*
X155557809Y-64592809D01*
X155600000Y-64529666D01*
X155642191Y-64592809D01*
X155852235Y-64733157D01*
X156100000Y-64782440D01*
X157100000Y-64782440D01*
X157347765Y-64733157D01*
X157557809Y-64592809D01*
X157600000Y-64529666D01*
X157642191Y-64592809D01*
X157852235Y-64733157D01*
X158100000Y-64782440D01*
X159100000Y-64782440D01*
X159347765Y-64733157D01*
X159557809Y-64592809D01*
X159600000Y-64529666D01*
X159642191Y-64592809D01*
X159852235Y-64733157D01*
X160100000Y-64782440D01*
X161100000Y-64782440D01*
X161347765Y-64733157D01*
X161557809Y-64592809D01*
X161600000Y-64529666D01*
X161642191Y-64592809D01*
X161852235Y-64733157D01*
X162100000Y-64782440D01*
X163100000Y-64782440D01*
X163347765Y-64733157D01*
X163557809Y-64592809D01*
X163598655Y-64531680D01*
X163740301Y-64673327D01*
X163973690Y-64770000D01*
X164314250Y-64770000D01*
X164473000Y-64611250D01*
X164473000Y-63012000D01*
X164453000Y-63012000D01*
X164453000Y-62758000D01*
X164473000Y-62758000D01*
X164473000Y-61158750D01*
X164314250Y-61000000D01*
X163973690Y-61000000D01*
X163740301Y-61096673D01*
X163598655Y-61238320D01*
X163557809Y-61177191D01*
X163347765Y-61036843D01*
X163100000Y-60987560D01*
X162822241Y-60987560D01*
X165584473Y-58225329D01*
X165647929Y-58182929D01*
X165815904Y-57931537D01*
X165860000Y-57709852D01*
X165860000Y-57709848D01*
X165874888Y-57635001D01*
X165860000Y-57560154D01*
X165860000Y-57275451D01*
X166097765Y-57228157D01*
X166307809Y-57087809D01*
X166448157Y-56877765D01*
X166497440Y-56630000D01*
X166497440Y-55130000D01*
X166448157Y-54882235D01*
X166307809Y-54672191D01*
X166097765Y-54531843D01*
X165860000Y-54484549D01*
X165860000Y-53605560D01*
X165997765Y-53578157D01*
X166207809Y-53437809D01*
X166348157Y-53227765D01*
X166397440Y-52980000D01*
X166397440Y-51480000D01*
X166348157Y-51232235D01*
X166207809Y-51022191D01*
X165997765Y-50881843D01*
X165988500Y-50880000D01*
X165997765Y-50878157D01*
X166207809Y-50737809D01*
X166348157Y-50527765D01*
X166397440Y-50280000D01*
X166397440Y-48780000D01*
X166348157Y-48532235D01*
X166207809Y-48322191D01*
X165997765Y-48181843D01*
X165860000Y-48154440D01*
X165860000Y-44727440D01*
X166000000Y-44727440D01*
X166247765Y-44678157D01*
X166457809Y-44537809D01*
X166598157Y-44327765D01*
X166647440Y-44080000D01*
X166647440Y-43940000D01*
X169095153Y-43940000D01*
X169170000Y-43954888D01*
X169244847Y-43940000D01*
X169244852Y-43940000D01*
X169466537Y-43895904D01*
X169717929Y-43727929D01*
X169760331Y-43664470D01*
X169957361Y-43467440D01*
X170830000Y-43467440D01*
X171077765Y-43418157D01*
X171287809Y-43277809D01*
X171428157Y-43067765D01*
X171477440Y-42820000D01*
X171477440Y-41320000D01*
X171428157Y-41072235D01*
X171287809Y-40862191D01*
X171077765Y-40721843D01*
X171049791Y-40716279D01*
X171189699Y-40658327D01*
X171368327Y-40479698D01*
X171465000Y-40246309D01*
X171465000Y-39655750D01*
X171306250Y-39497000D01*
X170307000Y-39497000D01*
X170307000Y-39517000D01*
X170053000Y-39517000D01*
X170053000Y-39497000D01*
X169053750Y-39497000D01*
X168895000Y-39655750D01*
X168895000Y-40246309D01*
X168991673Y-40479698D01*
X169170301Y-40658327D01*
X169310209Y-40716279D01*
X169282235Y-40721843D01*
X169072191Y-40862191D01*
X168931843Y-41072235D01*
X168882560Y-41320000D01*
X168882560Y-42392639D01*
X168855199Y-42420000D01*
X166647440Y-42420000D01*
X166647440Y-42280000D01*
X166598157Y-42032235D01*
X166457809Y-41822191D01*
X166249304Y-41682871D01*
X166545938Y-41238927D01*
X166665072Y-40640000D01*
X166545938Y-40041073D01*
X166206673Y-39533327D01*
X165950826Y-39362376D01*
X166337966Y-39007576D01*
X166577549Y-38493691D01*
X168895000Y-38493691D01*
X168895000Y-39084250D01*
X169053750Y-39243000D01*
X170053000Y-39243000D01*
X170053000Y-38143750D01*
X170307000Y-38143750D01*
X170307000Y-39243000D01*
X171306250Y-39243000D01*
X171465000Y-39084250D01*
X171465000Y-38493691D01*
X171368327Y-38260302D01*
X171189699Y-38081673D01*
X170956310Y-37985000D01*
X170465750Y-37985000D01*
X170307000Y-38143750D01*
X170053000Y-38143750D01*
X169894250Y-37985000D01*
X169403690Y-37985000D01*
X169170301Y-38081673D01*
X168991673Y-38260302D01*
X168895000Y-38493691D01*
X166577549Y-38493691D01*
X166591046Y-38464742D01*
X166470997Y-38227000D01*
X165227000Y-38227000D01*
X165227000Y-38247000D01*
X164973000Y-38247000D01*
X164973000Y-38227000D01*
X164953000Y-38227000D01*
X164953000Y-37973000D01*
X164973000Y-37973000D01*
X164973000Y-36729622D01*
X165227000Y-36729622D01*
X165227000Y-37973000D01*
X166470997Y-37973000D01*
X166591046Y-37735258D01*
X166337966Y-37192424D01*
X165896417Y-36787760D01*
X165464740Y-36608964D01*
X165227000Y-36729622D01*
X164973000Y-36729622D01*
X164735260Y-36608964D01*
X164303583Y-36787760D01*
X163862034Y-37192424D01*
X163608954Y-37735258D01*
X163729002Y-37972998D01*
X163565000Y-37972998D01*
X163565000Y-38030197D01*
X158240000Y-32705199D01*
X158240000Y-30488178D01*
X158550625Y-30280625D01*
X158750000Y-29982239D01*
X158949375Y-30280625D01*
X159440582Y-30608839D01*
X159873744Y-30695000D01*
X160166256Y-30695000D01*
X160599418Y-30608839D01*
X161090625Y-30280625D01*
X161418839Y-29789418D01*
X161534092Y-29210000D01*
X161418839Y-28630582D01*
X161090625Y-28139375D01*
X160599418Y-27811161D01*
X160166256Y-27725000D01*
X159873744Y-27725000D01*
X159440582Y-27811161D01*
X158949375Y-28139375D01*
X158750000Y-28437761D01*
X158550625Y-28139375D01*
X158059418Y-27811161D01*
X157626256Y-27725000D01*
X157333744Y-27725000D01*
X156900582Y-27811161D01*
X156409375Y-28139375D01*
X156210000Y-28437761D01*
X156010625Y-28139375D01*
X155519418Y-27811161D01*
X155086256Y-27725000D01*
X154793744Y-27725000D01*
X154360582Y-27811161D01*
X153869375Y-28139375D01*
X153857184Y-28157619D01*
X153848157Y-28112235D01*
X153707809Y-27902191D01*
X153497765Y-27761843D01*
X153250000Y-27712560D01*
X151550000Y-27712560D01*
X151302235Y-27761843D01*
X151092191Y-27902191D01*
X150951843Y-28112235D01*
X150902560Y-28360000D01*
X150902560Y-30060000D01*
X150951843Y-30307765D01*
X151092191Y-30517809D01*
X151302235Y-30658157D01*
X151550000Y-30707440D01*
X151640001Y-30707440D01*
X151640000Y-32705198D01*
X150815199Y-33530000D01*
X148664846Y-33530000D01*
X148589999Y-33515112D01*
X148515152Y-33530000D01*
X148515148Y-33530000D01*
X148293463Y-33574096D01*
X148042071Y-33742071D01*
X147999672Y-33805526D01*
X146835528Y-34969671D01*
X146772072Y-35012071D01*
X146729672Y-35075527D01*
X146729671Y-35075528D01*
X146604097Y-35263463D01*
X146545112Y-35560000D01*
X146560001Y-35634852D01*
X146560000Y-39055198D01*
X145964859Y-39650340D01*
X145886673Y-39533327D01*
X145630826Y-39362376D01*
X146017966Y-39007576D01*
X146271046Y-38464742D01*
X146150997Y-38227000D01*
X144907000Y-38227000D01*
X144907000Y-38247000D01*
X144653000Y-38247000D01*
X144653000Y-38227000D01*
X143409003Y-38227000D01*
X143288954Y-38464742D01*
X143542034Y-39007576D01*
X143929174Y-39362376D01*
X143673327Y-39533327D01*
X143334062Y-40041073D01*
X143214928Y-40640000D01*
X143334062Y-41238927D01*
X143630696Y-41682871D01*
X143422191Y-41822191D01*
X143281843Y-42032235D01*
X143232560Y-42280000D01*
X143232560Y-44080000D01*
X143281843Y-44327765D01*
X143422191Y-44537809D01*
X143632235Y-44678157D01*
X143880000Y-44727440D01*
X144020001Y-44727440D01*
X144020000Y-48154440D01*
X143882235Y-48181843D01*
X143672191Y-48322191D01*
X143531843Y-48532235D01*
X143482560Y-48780000D01*
X143482560Y-50280000D01*
X143531843Y-50527765D01*
X143672191Y-50737809D01*
X143882235Y-50878157D01*
X143891500Y-50880000D01*
X143882235Y-50881843D01*
X143672191Y-51022191D01*
X143531843Y-51232235D01*
X143482560Y-51480000D01*
X143482560Y-52980000D01*
X143531843Y-53227765D01*
X143672191Y-53437809D01*
X143882235Y-53578157D01*
X144020001Y-53605560D01*
X144020000Y-54484549D01*
X143782235Y-54531843D01*
X143572191Y-54672191D01*
X143431843Y-54882235D01*
X143382560Y-55130000D01*
X143382560Y-56630000D01*
X143431843Y-56877765D01*
X143572191Y-57087809D01*
X143782235Y-57228157D01*
X144030000Y-57277440D01*
X145530000Y-57277440D01*
X145777765Y-57228157D01*
X145942969Y-57117770D01*
X146560001Y-57734803D01*
X146560000Y-58986289D01*
X146442569Y-59103720D01*
X146285000Y-59484126D01*
X146285000Y-59895874D01*
X146442569Y-60276280D01*
X146733720Y-60567431D01*
X147114126Y-60725000D01*
X147525874Y-60725000D01*
X147906280Y-60567431D01*
X148197431Y-60276280D01*
X148355000Y-59895874D01*
X148355000Y-59484126D01*
X148197431Y-59103720D01*
X148080000Y-58986289D01*
X148080000Y-57494847D01*
X148094888Y-57420000D01*
X148080000Y-57345153D01*
X148080000Y-57345148D01*
X148035904Y-57123463D01*
X147867929Y-56872071D01*
X147804473Y-56829671D01*
X146370331Y-55395530D01*
X146327929Y-55332071D01*
X146177440Y-55231517D01*
X146177440Y-55130000D01*
X146128157Y-54882235D01*
X145987809Y-54672191D01*
X145777765Y-54531843D01*
X145540000Y-54484549D01*
X145540000Y-53605560D01*
X145677765Y-53578157D01*
X145887809Y-53437809D01*
X146028157Y-53227765D01*
X146077440Y-52980000D01*
X146077440Y-51480000D01*
X146028157Y-51232235D01*
X145887809Y-51022191D01*
X145677765Y-50881843D01*
X145668500Y-50880000D01*
X145677765Y-50878157D01*
X145887809Y-50737809D01*
X146028157Y-50527765D01*
X146077440Y-50280000D01*
X146077440Y-48780000D01*
X146028157Y-48532235D01*
X145887809Y-48322191D01*
X145677765Y-48181843D01*
X145540000Y-48154440D01*
X145540000Y-44727440D01*
X145680000Y-44727440D01*
X145927765Y-44678157D01*
X146137809Y-44537809D01*
X146278157Y-44327765D01*
X146327440Y-44080000D01*
X146327440Y-43940000D01*
X148615153Y-43940000D01*
X148690000Y-43954888D01*
X148764847Y-43940000D01*
X148764852Y-43940000D01*
X148986537Y-43895904D01*
X149237929Y-43727929D01*
X149280331Y-43664470D01*
X149637361Y-43307440D01*
X150510000Y-43307440D01*
X150757765Y-43258157D01*
X150967809Y-43117809D01*
X151108157Y-42907765D01*
X151157440Y-42660000D01*
X151157440Y-41160000D01*
X151108157Y-40912235D01*
X150967809Y-40702191D01*
X150757765Y-40561843D01*
X150729791Y-40556279D01*
X150869699Y-40498327D01*
X151048327Y-40319698D01*
X151145000Y-40086309D01*
X151145000Y-39495750D01*
X150986250Y-39337000D01*
X149987000Y-39337000D01*
X149987000Y-39357000D01*
X149733000Y-39357000D01*
X149733000Y-39337000D01*
X148733750Y-39337000D01*
X148575000Y-39495750D01*
X148575000Y-40086309D01*
X148671673Y-40319698D01*
X148850301Y-40498327D01*
X148990209Y-40556279D01*
X148962235Y-40561843D01*
X148752191Y-40702191D01*
X148611843Y-40912235D01*
X148562560Y-41160000D01*
X148562560Y-42232639D01*
X148375199Y-42420000D01*
X146327440Y-42420000D01*
X146327440Y-42280000D01*
X146278157Y-42032235D01*
X146137809Y-41822191D01*
X145929304Y-41682871D01*
X146117311Y-41401499D01*
X146124847Y-41400000D01*
X146124852Y-41400000D01*
X146346537Y-41355904D01*
X146597929Y-41187929D01*
X146640331Y-41124470D01*
X147804473Y-39960329D01*
X147867929Y-39917929D01*
X148035904Y-39666537D01*
X148080000Y-39444852D01*
X148080000Y-39444848D01*
X148094888Y-39370001D01*
X148080000Y-39295154D01*
X148080000Y-38333691D01*
X148575000Y-38333691D01*
X148575000Y-38924250D01*
X148733750Y-39083000D01*
X149733000Y-39083000D01*
X149733000Y-37983750D01*
X149987000Y-37983750D01*
X149987000Y-39083000D01*
X150986250Y-39083000D01*
X151145000Y-38924250D01*
X151145000Y-38333691D01*
X151048327Y-38100302D01*
X150869699Y-37921673D01*
X150636310Y-37825000D01*
X150145750Y-37825000D01*
X149987000Y-37983750D01*
X149733000Y-37983750D01*
X149574250Y-37825000D01*
X149083690Y-37825000D01*
X148850301Y-37921673D01*
X148671673Y-38100302D01*
X148575000Y-38333691D01*
X148080000Y-38333691D01*
X148080000Y-37735258D01*
X153448954Y-37735258D01*
X153569003Y-37973000D01*
X154813000Y-37973000D01*
X154813000Y-36729622D01*
X155067000Y-36729622D01*
X155067000Y-37973000D01*
X156310997Y-37973000D01*
X156431046Y-37735258D01*
X156177966Y-37192424D01*
X155736417Y-36787760D01*
X155304740Y-36608964D01*
X155067000Y-36729622D01*
X154813000Y-36729622D01*
X154575260Y-36608964D01*
X154143583Y-36787760D01*
X153702034Y-37192424D01*
X153448954Y-37735258D01*
X148080000Y-37735258D01*
X148080000Y-35874801D01*
X148904802Y-35050000D01*
X151055153Y-35050000D01*
X151130000Y-35064888D01*
X151204847Y-35050000D01*
X151204852Y-35050000D01*
X151426537Y-35005904D01*
X151677929Y-34837929D01*
X151720331Y-34774470D01*
X152884473Y-33610329D01*
X152947929Y-33567929D01*
X153115904Y-33316537D01*
X153160000Y-33094852D01*
X153160000Y-33094848D01*
X153174888Y-33020001D01*
X153160000Y-32945154D01*
X153160000Y-30707440D01*
X153250000Y-30707440D01*
X153497765Y-30658157D01*
X153707809Y-30517809D01*
X153848157Y-30307765D01*
X153857184Y-30262381D01*
X153869375Y-30280625D01*
X154180000Y-30488178D01*
X154180000Y-31675153D01*
X154165112Y-31750000D01*
X154180000Y-31824847D01*
X154180000Y-31824851D01*
X154224096Y-32046536D01*
X154392071Y-32297929D01*
X154455530Y-32340331D01*
X156720001Y-34604804D01*
X156720000Y-39055198D01*
X156124859Y-39650340D01*
X156046673Y-39533327D01*
X155790826Y-39362376D01*
X156177966Y-39007576D01*
X156431046Y-38464742D01*
X156310997Y-38227000D01*
X155067000Y-38227000D01*
X155067000Y-38247000D01*
X154813000Y-38247000D01*
X154813000Y-38227000D01*
X153569003Y-38227000D01*
X153448954Y-38464742D01*
X153702034Y-39007576D01*
X154089174Y-39362376D01*
X153833327Y-39533327D01*
X153494062Y-40041073D01*
X153374928Y-40640000D01*
X153494062Y-41238927D01*
X153790696Y-41682871D01*
X153582191Y-41822191D01*
X153441843Y-42032235D01*
X153392560Y-42280000D01*
X153392560Y-44080000D01*
X153441843Y-44327765D01*
X153582191Y-44537809D01*
X153792235Y-44678157D01*
X154040000Y-44727440D01*
X154180001Y-44727440D01*
X154180000Y-48154440D01*
X154042235Y-48181843D01*
X153832191Y-48322191D01*
X153691843Y-48532235D01*
X153642560Y-48780000D01*
X153642560Y-50280000D01*
X153691843Y-50527765D01*
X153832191Y-50737809D01*
X154042235Y-50878157D01*
X154051500Y-50880000D01*
X154042235Y-50881843D01*
X153832191Y-51022191D01*
X153691843Y-51232235D01*
X153642560Y-51480000D01*
X153642560Y-52980000D01*
X153691843Y-53227765D01*
X153832191Y-53437809D01*
X154042235Y-53578157D01*
X154180001Y-53605560D01*
X154180000Y-54484549D01*
X153942235Y-54531843D01*
X153732191Y-54672191D01*
X153591843Y-54882235D01*
X153542560Y-55130000D01*
X153542560Y-56630000D01*
X153591843Y-56877765D01*
X153732191Y-57087809D01*
X153942235Y-57228157D01*
X154180000Y-57275451D01*
X154180000Y-57710153D01*
X154165112Y-57785000D01*
X154180000Y-57859847D01*
X154180000Y-57859851D01*
X154224096Y-58081536D01*
X154392071Y-58332929D01*
X154455530Y-58375331D01*
X155840001Y-59759803D01*
X155840001Y-61045018D01*
X155642191Y-61177191D01*
X155600000Y-61240334D01*
X155557809Y-61177191D01*
X155347765Y-61036843D01*
X155100000Y-60987560D01*
X154100000Y-60987560D01*
X153852235Y-61036843D01*
X153642191Y-61177191D01*
X153501843Y-61387235D01*
X153452560Y-61635000D01*
X153452560Y-62125000D01*
X150829802Y-62125000D01*
X150450331Y-61745530D01*
X150407929Y-61682071D01*
X150156537Y-61514096D01*
X149934852Y-61470000D01*
X149934847Y-61470000D01*
X149883416Y-61459770D01*
X149838157Y-61232235D01*
X149697809Y-61022191D01*
X149487765Y-60881843D01*
X149240000Y-60832560D01*
X147940000Y-60832560D01*
X147692235Y-60881843D01*
X147482191Y-61022191D01*
X147341843Y-61232235D01*
X147294549Y-61470000D01*
X146075451Y-61470000D01*
X146028157Y-61232235D01*
X145887809Y-61022191D01*
X145677765Y-60881843D01*
X145430000Y-60832560D01*
X144130000Y-60832560D01*
X143882235Y-60881843D01*
X143672191Y-61022191D01*
X143531843Y-61232235D01*
X143482560Y-61480000D01*
X143482560Y-62980000D01*
X143531843Y-63227765D01*
X143672191Y-63437809D01*
X143882235Y-63578157D01*
X143891500Y-63580000D01*
X143882235Y-63581843D01*
X143672191Y-63722191D01*
X143531843Y-63932235D01*
X143482560Y-64180000D01*
X143482560Y-64281517D01*
X143332071Y-64382071D01*
X143289671Y-64445527D01*
X142390530Y-65344669D01*
X142327071Y-65387071D01*
X142159096Y-65638464D01*
X142115000Y-65860149D01*
X142115000Y-65860153D01*
X142100112Y-65935000D01*
X142115000Y-66009847D01*
X142115000Y-66606289D01*
X141997569Y-66723720D01*
X141840000Y-67104126D01*
X141840000Y-67515874D01*
X141997569Y-67896280D01*
X142115001Y-68013712D01*
X142115000Y-69924851D01*
X142159096Y-70146536D01*
X142327071Y-70397929D01*
X142578463Y-70565904D01*
X142846064Y-70619133D01*
X139250200Y-74214999D01*
X137824847Y-74214999D01*
X137750000Y-74200111D01*
X137675153Y-74214999D01*
X137675149Y-74214999D01*
X137453464Y-74259095D01*
X137202072Y-74427070D01*
X137159672Y-74490526D01*
X136933929Y-74716269D01*
X136676182Y-74665000D01*
X136373818Y-74665000D01*
X135926073Y-74754062D01*
X135471888Y-75057538D01*
X135423327Y-74940301D01*
X135244698Y-74761673D01*
X135011309Y-74665000D01*
X134270750Y-74665000D01*
X134112000Y-74823750D01*
X134112000Y-76073000D01*
X134132000Y-76073000D01*
X134132000Y-76327000D01*
X134112000Y-76327000D01*
X134112000Y-77576250D01*
X134270750Y-77735000D01*
X135011309Y-77735000D01*
X135244698Y-77638327D01*
X135423327Y-77459699D01*
X135471888Y-77342462D01*
X135765001Y-77538313D01*
X135765000Y-78739549D01*
X135527235Y-78786843D01*
X135317191Y-78927191D01*
X135276346Y-78988320D01*
X135134698Y-78846673D01*
X134901309Y-78750000D01*
X134310750Y-78750000D01*
X134152000Y-78908750D01*
X134152000Y-79883000D01*
X134172000Y-79883000D01*
X134172000Y-80137000D01*
X134152000Y-80137000D01*
X134152000Y-81111250D01*
X134310750Y-81270000D01*
X134901309Y-81270000D01*
X135134698Y-81173327D01*
X135276346Y-81031680D01*
X135317191Y-81092809D01*
X135527235Y-81233157D01*
X135775000Y-81282440D01*
X137275000Y-81282440D01*
X137522765Y-81233157D01*
X137732809Y-81092809D01*
X137873157Y-80882765D01*
X137922440Y-80635000D01*
X137922440Y-79385000D01*
X137873157Y-79137235D01*
X137732809Y-78927191D01*
X137522765Y-78786843D01*
X137285000Y-78739549D01*
X137285000Y-77538312D01*
X137631673Y-77306673D01*
X137795000Y-77062237D01*
X137958327Y-77306673D01*
X138466073Y-77645938D01*
X138913818Y-77735000D01*
X139204999Y-77735000D01*
X139205000Y-82885198D01*
X139030199Y-83060000D01*
X137895587Y-83060000D01*
X137873157Y-82947235D01*
X137732809Y-82737191D01*
X137522765Y-82596843D01*
X137275000Y-82547560D01*
X135775000Y-82547560D01*
X135527235Y-82596843D01*
X135317191Y-82737191D01*
X135276346Y-82798320D01*
X135134698Y-82656673D01*
X134901309Y-82560000D01*
X134310750Y-82560000D01*
X134152000Y-82718750D01*
X134152000Y-83693000D01*
X134172000Y-83693000D01*
X134172000Y-83947000D01*
X134152000Y-83947000D01*
X134152000Y-84921250D01*
X134310750Y-85080000D01*
X134901309Y-85080000D01*
X135134698Y-84983327D01*
X135276346Y-84841680D01*
X135317191Y-84902809D01*
X135527235Y-85043157D01*
X135775000Y-85092440D01*
X137275000Y-85092440D01*
X137522765Y-85043157D01*
X137732809Y-84902809D01*
X137873157Y-84692765D01*
X137895587Y-84580000D01*
X139030199Y-84580000D01*
X141480000Y-87029802D01*
X141480001Y-92032560D01*
X140940000Y-92032560D01*
X140692235Y-92081843D01*
X140482191Y-92222191D01*
X140341843Y-92432235D01*
X140292560Y-92680000D01*
X140292560Y-95280000D01*
X140341843Y-95527765D01*
X140482191Y-95737809D01*
X140692235Y-95878157D01*
X140940000Y-95927440D01*
X143540000Y-95927440D01*
X143787765Y-95878157D01*
X143997809Y-95737809D01*
X144082847Y-95610541D01*
X145750146Y-95610541D01*
X146940000Y-96800395D01*
X148129854Y-95610541D01*
X147994496Y-95312545D01*
X147276120Y-95035934D01*
X146506573Y-95055290D01*
X145885504Y-95312545D01*
X145750146Y-95610541D01*
X144082847Y-95610541D01*
X144138157Y-95527765D01*
X144187440Y-95280000D01*
X144187440Y-92680000D01*
X144178391Y-92634506D01*
X170700000Y-92634506D01*
X170700000Y-93185494D01*
X170910853Y-93694540D01*
X171300460Y-94084147D01*
X171809506Y-94295000D01*
X172360494Y-94295000D01*
X172869540Y-94084147D01*
X173259147Y-93694540D01*
X173470000Y-93185494D01*
X173470000Y-92634506D01*
X173259147Y-92125460D01*
X172869540Y-91735853D01*
X172360494Y-91525000D01*
X171809506Y-91525000D01*
X171300460Y-91735853D01*
X170910853Y-92125460D01*
X170700000Y-92634506D01*
X144178391Y-92634506D01*
X144138157Y-92432235D01*
X143997809Y-92222191D01*
X143787765Y-92081843D01*
X143540000Y-92032560D01*
X143000000Y-92032560D01*
X143000000Y-87048227D01*
X143007929Y-87042929D01*
X143175904Y-86791537D01*
X143220000Y-86569852D01*
X143220000Y-86569847D01*
X143234888Y-86495000D01*
X143220000Y-86420153D01*
X143220000Y-84793163D01*
X143317809Y-84727809D01*
X143458157Y-84517765D01*
X143507440Y-84270000D01*
X143507440Y-83370000D01*
X143458157Y-83122235D01*
X143317809Y-82912191D01*
X143107765Y-82771843D01*
X142860000Y-82722560D01*
X142060000Y-82722560D01*
X141812235Y-82771843D01*
X141602191Y-82912191D01*
X141461843Y-83122235D01*
X141412560Y-83370000D01*
X141412560Y-84270000D01*
X141461843Y-84517765D01*
X141602191Y-84727809D01*
X141700001Y-84793164D01*
X141700001Y-85100199D01*
X140419802Y-83820000D01*
X140449472Y-83790330D01*
X140512928Y-83747930D01*
X140680903Y-83496538D01*
X140724999Y-83274853D01*
X140724999Y-83274848D01*
X140739887Y-83200001D01*
X140724999Y-83125154D01*
X140724999Y-77174847D01*
X140739887Y-77099999D01*
X140724999Y-77025151D01*
X140724999Y-77025147D01*
X140680903Y-76803462D01*
X140680903Y-76803461D01*
X140555328Y-76615526D01*
X140549233Y-76606404D01*
X140630072Y-76200000D01*
X140537578Y-75734999D01*
X142605198Y-75734999D01*
X149860743Y-82990546D01*
X149791289Y-83060000D01*
X145516573Y-83060000D01*
X145417809Y-82912191D01*
X145207765Y-82771843D01*
X144960000Y-82722560D01*
X144160000Y-82722560D01*
X143912235Y-82771843D01*
X143702191Y-82912191D01*
X143561843Y-83122235D01*
X143512560Y-83370000D01*
X143512560Y-84270000D01*
X143561843Y-84517765D01*
X143702191Y-84727809D01*
X143912235Y-84868157D01*
X144160000Y-84917440D01*
X144960000Y-84917440D01*
X145207765Y-84868157D01*
X145417809Y-84727809D01*
X145516573Y-84580000D01*
X149791289Y-84580000D01*
X149908720Y-84697431D01*
X150289126Y-84855000D01*
X150700874Y-84855000D01*
X151081280Y-84697431D01*
X151324454Y-84454257D01*
X153905000Y-87034803D01*
X153905000Y-87200874D01*
X154062569Y-87581280D01*
X154353720Y-87872431D01*
X154734126Y-88030000D01*
X155145874Y-88030000D01*
X155526280Y-87872431D01*
X155643711Y-87755000D01*
X157800199Y-87755000D01*
X160255000Y-90209802D01*
X160255000Y-90375874D01*
X160412569Y-90756280D01*
X160703720Y-91047431D01*
X161084126Y-91205000D01*
X161495874Y-91205000D01*
X161876280Y-91047431D01*
X162167431Y-90756280D01*
X162325000Y-90375874D01*
X162325000Y-89964126D01*
X162167431Y-89583720D01*
X161876280Y-89292569D01*
X161495874Y-89135000D01*
X161329802Y-89135000D01*
X158705331Y-86510530D01*
X158662929Y-86447071D01*
X158411537Y-86279096D01*
X158189852Y-86235000D01*
X158189847Y-86235000D01*
X158115000Y-86220112D01*
X158040153Y-86235000D01*
X155643711Y-86235000D01*
X155526280Y-86117569D01*
X155145874Y-85960000D01*
X154979803Y-85960000D01*
X143510330Y-74490529D01*
X143467928Y-74427070D01*
X143216536Y-74259095D01*
X142994851Y-74214999D01*
X142994846Y-74214999D01*
X142919999Y-74200111D01*
X142845152Y-74214999D01*
X141399803Y-74214999D01*
X144819803Y-70795000D01*
X144985874Y-70795000D01*
X145366280Y-70637431D01*
X145657431Y-70346280D01*
X145815000Y-69965874D01*
X145815000Y-69554126D01*
X145657431Y-69173720D01*
X145500100Y-69016389D01*
X145591130Y-68978683D01*
X145607145Y-68989384D01*
X145938217Y-69055238D01*
X146110199Y-69055238D01*
X148204432Y-71149472D01*
X148246833Y-71212929D01*
X148498225Y-71380904D01*
X148719910Y-71425000D01*
X148719914Y-71425000D01*
X148794762Y-71439888D01*
X148869610Y-71425000D01*
X150180199Y-71425000D01*
X150282698Y-71527499D01*
X149185199Y-72625000D01*
X149019126Y-72625000D01*
X148638720Y-72782569D01*
X148347569Y-73073720D01*
X148190000Y-73454126D01*
X148190000Y-73865874D01*
X148347569Y-74246280D01*
X148638720Y-74537431D01*
X149019126Y-74695000D01*
X149430874Y-74695000D01*
X149811280Y-74537431D01*
X150102431Y-74246280D01*
X150260000Y-73865874D01*
X150260000Y-73699801D01*
X151651989Y-72307814D01*
X151742191Y-72442809D01*
X151805334Y-72485000D01*
X151742191Y-72527191D01*
X151601843Y-72737235D01*
X151552560Y-72985000D01*
X151552560Y-73985000D01*
X151601843Y-74232765D01*
X151742191Y-74442809D01*
X151805334Y-74485000D01*
X151742191Y-74527191D01*
X151601843Y-74737235D01*
X151552560Y-74985000D01*
X151552560Y-75985000D01*
X151601843Y-76232765D01*
X151742191Y-76442809D01*
X151952235Y-76583157D01*
X152200000Y-76632440D01*
X153492851Y-76632440D01*
X153452560Y-76835000D01*
X153452560Y-79335000D01*
X153501843Y-79582765D01*
X153642191Y-79792809D01*
X153840000Y-79924982D01*
X153840000Y-80230153D01*
X153825112Y-80305000D01*
X153840000Y-80379847D01*
X153840000Y-80379851D01*
X153884096Y-80601536D01*
X154052071Y-80852929D01*
X154115530Y-80895331D01*
X154349669Y-81129470D01*
X154392071Y-81192929D01*
X154643463Y-81360904D01*
X154865148Y-81405000D01*
X154865152Y-81405000D01*
X154872813Y-81406524D01*
X154988720Y-81522431D01*
X155369126Y-81680000D01*
X155780874Y-81680000D01*
X156044084Y-81570975D01*
X156052071Y-81582929D01*
X156115529Y-81625331D01*
X156799672Y-82309474D01*
X156842070Y-82372928D01*
X156905523Y-82415326D01*
X156905525Y-82415328D01*
X156958106Y-82450461D01*
X157093462Y-82540903D01*
X157315147Y-82584999D01*
X157315151Y-82584999D01*
X157389998Y-82599887D01*
X157464845Y-82584999D01*
X158350000Y-82584999D01*
X158350000Y-82755874D01*
X158507569Y-83136280D01*
X158625001Y-83253712D01*
X158625000Y-84386289D01*
X158507569Y-84503720D01*
X158350000Y-84884126D01*
X158350000Y-85295874D01*
X158507569Y-85676280D01*
X158798720Y-85967431D01*
X159179126Y-86125000D01*
X159590874Y-86125000D01*
X159971280Y-85967431D01*
X160020000Y-85918711D01*
X160068720Y-85967431D01*
X160449126Y-86125000D01*
X160860874Y-86125000D01*
X161241280Y-85967431D01*
X161290000Y-85918711D01*
X161338720Y-85967431D01*
X161719126Y-86125000D01*
X162130874Y-86125000D01*
X162511280Y-85967431D01*
X162802431Y-85676280D01*
X162960000Y-85295874D01*
X162960000Y-84884126D01*
X162802431Y-84503720D01*
X162685000Y-84386289D01*
X162685000Y-83259846D01*
X162699888Y-83184999D01*
X162685000Y-83110152D01*
X162685000Y-83110148D01*
X162640904Y-82888463D01*
X162552311Y-82755874D01*
X162515329Y-82700526D01*
X162515327Y-82700524D01*
X162472929Y-82637071D01*
X162409476Y-82594673D01*
X159975331Y-80160530D01*
X159932929Y-80097071D01*
X159681537Y-79929096D01*
X159459852Y-79885000D01*
X159459847Y-79885000D01*
X159429015Y-79878867D01*
X159557809Y-79792809D01*
X159600000Y-79729666D01*
X159642191Y-79792809D01*
X159852235Y-79933157D01*
X160100000Y-79982440D01*
X161100000Y-79982440D01*
X161347765Y-79933157D01*
X161557809Y-79792809D01*
X161600000Y-79729666D01*
X161642191Y-79792809D01*
X161852235Y-79933157D01*
X162100000Y-79982440D01*
X163100000Y-79982440D01*
X163347765Y-79933157D01*
X163557809Y-79792809D01*
X163600000Y-79729666D01*
X163642191Y-79792809D01*
X163852235Y-79933157D01*
X164100000Y-79982440D01*
X165100000Y-79982440D01*
X165347765Y-79933157D01*
X165557809Y-79792809D01*
X165600000Y-79729666D01*
X165642191Y-79792809D01*
X165852235Y-79933157D01*
X166100000Y-79982440D01*
X167100000Y-79982440D01*
X167347765Y-79933157D01*
X167557809Y-79792809D01*
X167600000Y-79729666D01*
X167642191Y-79792809D01*
X167852235Y-79933157D01*
X168100000Y-79982440D01*
X168783000Y-79982440D01*
X168783000Y-80010000D01*
X168792667Y-80058601D01*
X168820197Y-80099803D01*
X168861399Y-80127333D01*
X168910000Y-80137000D01*
X177673000Y-80137000D01*
X177673000Y-81625000D01*
X177043364Y-81625000D01*
X176683127Y-81696656D01*
X176274615Y-81969615D01*
X176001656Y-82378127D01*
X175905805Y-82860000D01*
X175917560Y-82919096D01*
X175917560Y-83039230D01*
X175585378Y-82707048D01*
X175085521Y-82500000D01*
X174544479Y-82500000D01*
X174044622Y-82707048D01*
X173662048Y-83089622D01*
X173455000Y-83589479D01*
X173455000Y-84130521D01*
X173606266Y-84495709D01*
X173601673Y-84500302D01*
X173505000Y-84733691D01*
X173505000Y-84801250D01*
X173663750Y-84960000D01*
X173808482Y-84960000D01*
X173780301Y-84971673D01*
X173601673Y-85150302D01*
X173550920Y-85272830D01*
X173505000Y-85318750D01*
X173505000Y-85451250D01*
X173550920Y-85497170D01*
X173586471Y-85582998D01*
X173505000Y-85582998D01*
X173505000Y-85600000D01*
X167714846Y-85600000D01*
X167639999Y-85585112D01*
X167565152Y-85600000D01*
X167565148Y-85600000D01*
X167343463Y-85644096D01*
X167092071Y-85812071D01*
X167049671Y-85875527D01*
X166330199Y-86595000D01*
X166164126Y-86595000D01*
X165783720Y-86752569D01*
X165492569Y-87043720D01*
X165335000Y-87424126D01*
X165335000Y-87835874D01*
X165492569Y-88216280D01*
X165783720Y-88507431D01*
X166099444Y-88638208D01*
X166217569Y-88923388D01*
X166508720Y-89214539D01*
X166889126Y-89372108D01*
X167300874Y-89372108D01*
X167681280Y-89214539D01*
X167972431Y-88923388D01*
X168130000Y-88542982D01*
X168130000Y-88376910D01*
X168736911Y-87770000D01*
X170534760Y-87770000D01*
X170415000Y-88059126D01*
X170415000Y-88470874D01*
X170572569Y-88851280D01*
X170863720Y-89142431D01*
X171244126Y-89300000D01*
X171655874Y-89300000D01*
X172036280Y-89142431D01*
X172327431Y-88851280D01*
X172485000Y-88470874D01*
X172485000Y-88420000D01*
X173525201Y-88420000D01*
X173455000Y-88589479D01*
X173455000Y-89130521D01*
X173662048Y-89630378D01*
X174044622Y-90012952D01*
X174544479Y-90220000D01*
X175085521Y-90220000D01*
X175585378Y-90012952D01*
X175917560Y-89680770D01*
X175917560Y-89800904D01*
X175905805Y-89860000D01*
X176001656Y-90341873D01*
X176274615Y-90750385D01*
X176683127Y-91023344D01*
X177043364Y-91095000D01*
X177673000Y-91095000D01*
X177673000Y-101695176D01*
X177205771Y-101227947D01*
X175943264Y-100705000D01*
X174576736Y-100705000D01*
X173314229Y-101227947D01*
X172347947Y-102194229D01*
X171825000Y-103456736D01*
X171825000Y-104823264D01*
X172347947Y-106085771D01*
X172815176Y-106553000D01*
X134524824Y-106553000D01*
X134992053Y-106085771D01*
X135515000Y-104823264D01*
X135515000Y-103456736D01*
X134992053Y-102194229D01*
X134147283Y-101349459D01*
X141050146Y-101349459D01*
X141185504Y-101647455D01*
X141903880Y-101924066D01*
X142673427Y-101904710D01*
X143294496Y-101647455D01*
X143429854Y-101349459D01*
X142240000Y-100159605D01*
X141050146Y-101349459D01*
X134147283Y-101349459D01*
X134025771Y-101227947D01*
X132763264Y-100705000D01*
X131396736Y-100705000D01*
X130134229Y-101227947D01*
X129667000Y-101695176D01*
X129667000Y-99643880D01*
X140295934Y-99643880D01*
X140315290Y-100413427D01*
X140572545Y-101034496D01*
X140870541Y-101169854D01*
X142060395Y-99980000D01*
X142419605Y-99980000D01*
X143609459Y-101169854D01*
X143907455Y-101034496D01*
X144184066Y-100316120D01*
X144164710Y-99546573D01*
X143907455Y-98925504D01*
X143609459Y-98790146D01*
X142419605Y-99980000D01*
X142060395Y-99980000D01*
X140870541Y-98790146D01*
X140572545Y-98925504D01*
X140295934Y-99643880D01*
X129667000Y-99643880D01*
X129667000Y-98610541D01*
X141050146Y-98610541D01*
X142240000Y-99800395D01*
X143429854Y-98610541D01*
X143311264Y-98349459D01*
X145750146Y-98349459D01*
X145885504Y-98647455D01*
X146603880Y-98924066D01*
X147373427Y-98904710D01*
X147994496Y-98647455D01*
X148129854Y-98349459D01*
X146940000Y-97159605D01*
X145750146Y-98349459D01*
X143311264Y-98349459D01*
X143294496Y-98312545D01*
X142576120Y-98035934D01*
X141806573Y-98055290D01*
X141185504Y-98312545D01*
X141050146Y-98610541D01*
X129667000Y-98610541D01*
X129667000Y-96643880D01*
X144995934Y-96643880D01*
X145015290Y-97413427D01*
X145272545Y-98034496D01*
X145570541Y-98169854D01*
X146760395Y-96980000D01*
X147119605Y-96980000D01*
X148309459Y-98169854D01*
X148607455Y-98034496D01*
X148807677Y-97514506D01*
X170700000Y-97514506D01*
X170700000Y-98065494D01*
X170910853Y-98574540D01*
X171300460Y-98964147D01*
X171809506Y-99175000D01*
X172360494Y-99175000D01*
X172869540Y-98964147D01*
X173259147Y-98574540D01*
X173470000Y-98065494D01*
X173470000Y-97514506D01*
X173259147Y-97005460D01*
X172869540Y-96615853D01*
X172360494Y-96405000D01*
X171809506Y-96405000D01*
X171300460Y-96615853D01*
X170910853Y-97005460D01*
X170700000Y-97514506D01*
X148807677Y-97514506D01*
X148884066Y-97316120D01*
X148864710Y-96546573D01*
X148607455Y-95925504D01*
X148309459Y-95790146D01*
X147119605Y-96980000D01*
X146760395Y-96980000D01*
X145570541Y-95790146D01*
X145272545Y-95925504D01*
X144995934Y-96643880D01*
X129667000Y-96643880D01*
X129667000Y-84105750D01*
X132640000Y-84105750D01*
X132640000Y-84571310D01*
X132736673Y-84804699D01*
X132915302Y-84983327D01*
X133148691Y-85080000D01*
X133739250Y-85080000D01*
X133898000Y-84921250D01*
X133898000Y-83947000D01*
X132798750Y-83947000D01*
X132640000Y-84105750D01*
X129667000Y-84105750D01*
X129667000Y-83068690D01*
X132640000Y-83068690D01*
X132640000Y-83534250D01*
X132798750Y-83693000D01*
X133898000Y-83693000D01*
X133898000Y-82718750D01*
X133739250Y-82560000D01*
X133148691Y-82560000D01*
X132915302Y-82656673D01*
X132736673Y-82835301D01*
X132640000Y-83068690D01*
X129667000Y-83068690D01*
X129667000Y-80295750D01*
X132640000Y-80295750D01*
X132640000Y-80761310D01*
X132736673Y-80994699D01*
X132915302Y-81173327D01*
X133148691Y-81270000D01*
X133739250Y-81270000D01*
X133898000Y-81111250D01*
X133898000Y-80137000D01*
X132798750Y-80137000D01*
X132640000Y-80295750D01*
X129667000Y-80295750D01*
X129667000Y-79258690D01*
X132640000Y-79258690D01*
X132640000Y-79724250D01*
X132798750Y-79883000D01*
X133898000Y-79883000D01*
X133898000Y-78908750D01*
X133739250Y-78750000D01*
X133148691Y-78750000D01*
X132915302Y-78846673D01*
X132736673Y-79025301D01*
X132640000Y-79258690D01*
X129667000Y-79258690D01*
X129667000Y-76485750D01*
X132450000Y-76485750D01*
X132450000Y-77226310D01*
X132546673Y-77459699D01*
X132725302Y-77638327D01*
X132958691Y-77735000D01*
X133699250Y-77735000D01*
X133858000Y-77576250D01*
X133858000Y-76327000D01*
X132608750Y-76327000D01*
X132450000Y-76485750D01*
X129667000Y-76485750D01*
X129667000Y-75173690D01*
X132450000Y-75173690D01*
X132450000Y-75914250D01*
X132608750Y-76073000D01*
X133858000Y-76073000D01*
X133858000Y-74823750D01*
X133699250Y-74665000D01*
X132958691Y-74665000D01*
X132725302Y-74761673D01*
X132546673Y-74940301D01*
X132450000Y-75173690D01*
X129667000Y-75173690D01*
X129667000Y-71419188D01*
X133092917Y-71419188D01*
X133154571Y-71654800D01*
X133654980Y-71830927D01*
X134184699Y-71802148D01*
X134540429Y-71654800D01*
X134602083Y-71419188D01*
X133847500Y-70664605D01*
X133092917Y-71419188D01*
X129667000Y-71419188D01*
X129667000Y-70292480D01*
X132501573Y-70292480D01*
X132530352Y-70822199D01*
X132677700Y-71177929D01*
X132913312Y-71239583D01*
X133667895Y-70485000D01*
X134027105Y-70485000D01*
X134781688Y-71239583D01*
X135017300Y-71177929D01*
X135193427Y-70677520D01*
X135168557Y-70219750D01*
X137594000Y-70219750D01*
X137594000Y-70750250D01*
X137797013Y-71240367D01*
X138172133Y-71615487D01*
X138662250Y-71818500D01*
X139192750Y-71818500D01*
X139682867Y-71615487D01*
X140057987Y-71240367D01*
X140261000Y-70750250D01*
X140261000Y-70219750D01*
X140057987Y-69729633D01*
X139682867Y-69354513D01*
X139192750Y-69151500D01*
X138662250Y-69151500D01*
X138172133Y-69354513D01*
X137797013Y-69729633D01*
X137594000Y-70219750D01*
X135168557Y-70219750D01*
X135164648Y-70147801D01*
X135017300Y-69792071D01*
X134781688Y-69730417D01*
X134027105Y-70485000D01*
X133667895Y-70485000D01*
X132913312Y-69730417D01*
X132677700Y-69792071D01*
X132501573Y-70292480D01*
X129667000Y-70292480D01*
X129667000Y-69550812D01*
X133092917Y-69550812D01*
X133847500Y-70305395D01*
X134602083Y-69550812D01*
X134540429Y-69315200D01*
X134040020Y-69139073D01*
X133510301Y-69167852D01*
X133154571Y-69315200D01*
X133092917Y-69550812D01*
X129667000Y-69550812D01*
X129667000Y-63799188D01*
X133092917Y-63799188D01*
X133154571Y-64034800D01*
X133654980Y-64210927D01*
X134184699Y-64182148D01*
X134540429Y-64034800D01*
X134602083Y-63799188D01*
X133847500Y-63044605D01*
X133092917Y-63799188D01*
X129667000Y-63799188D01*
X129667000Y-62672480D01*
X132501573Y-62672480D01*
X132530352Y-63202199D01*
X132677700Y-63557929D01*
X132913312Y-63619583D01*
X133667895Y-62865000D01*
X134027105Y-62865000D01*
X134781688Y-63619583D01*
X135017300Y-63557929D01*
X135193427Y-63057520D01*
X135168557Y-62599750D01*
X137594000Y-62599750D01*
X137594000Y-63130250D01*
X137797013Y-63620367D01*
X138172133Y-63995487D01*
X138662250Y-64198500D01*
X139192750Y-64198500D01*
X139682867Y-63995487D01*
X140057987Y-63620367D01*
X140261000Y-63130250D01*
X140261000Y-62599750D01*
X140057987Y-62109633D01*
X139682867Y-61734513D01*
X139192750Y-61531500D01*
X138662250Y-61531500D01*
X138172133Y-61734513D01*
X137797013Y-62109633D01*
X137594000Y-62599750D01*
X135168557Y-62599750D01*
X135164648Y-62527801D01*
X135017300Y-62172071D01*
X134781688Y-62110417D01*
X134027105Y-62865000D01*
X133667895Y-62865000D01*
X132913312Y-62110417D01*
X132677700Y-62172071D01*
X132501573Y-62672480D01*
X129667000Y-62672480D01*
X129667000Y-61930812D01*
X133092917Y-61930812D01*
X133847500Y-62685395D01*
X134602083Y-61930812D01*
X134540429Y-61695200D01*
X134040020Y-61519073D01*
X133510301Y-61547852D01*
X133154571Y-61695200D01*
X133092917Y-61930812D01*
X129667000Y-61930812D01*
X129667000Y-37735258D01*
X143288954Y-37735258D01*
X143409003Y-37973000D01*
X144653000Y-37973000D01*
X144653000Y-36729622D01*
X144907000Y-36729622D01*
X144907000Y-37973000D01*
X146150997Y-37973000D01*
X146271046Y-37735258D01*
X146017966Y-37192424D01*
X145576417Y-36787760D01*
X145144740Y-36608964D01*
X144907000Y-36729622D01*
X144653000Y-36729622D01*
X144415260Y-36608964D01*
X143983583Y-36787760D01*
X143542034Y-37192424D01*
X143288954Y-37735258D01*
X129667000Y-37735258D01*
X129667000Y-31654824D01*
X130134229Y-32122053D01*
X131396736Y-32645000D01*
X132763264Y-32645000D01*
X134025771Y-32122053D01*
X134992053Y-31155771D01*
X135515000Y-29893264D01*
X135515000Y-28526736D01*
X134992053Y-27264229D01*
X134524824Y-26797000D01*
X172815176Y-26797000D01*
X172347947Y-27264229D01*
G36*
X143882235Y-66278157D02*
X144130000Y-66327440D01*
X145368189Y-66327440D01*
X145334097Y-66378463D01*
X145275112Y-66675000D01*
X145290001Y-66749851D01*
X145290001Y-66785238D01*
X145065750Y-66785238D01*
X144907000Y-66943988D01*
X144907000Y-67793238D01*
X144918027Y-67793238D01*
X144892765Y-67920238D01*
X144918027Y-68047238D01*
X144907000Y-68047238D01*
X144907000Y-68067238D01*
X144653000Y-68067238D01*
X144653000Y-68047238D01*
X144633000Y-68047238D01*
X144633000Y-67793238D01*
X144653000Y-67793238D01*
X144653000Y-66943988D01*
X144494250Y-66785238D01*
X144153690Y-66785238D01*
X143920301Y-66881911D01*
X143847932Y-66954280D01*
X143752431Y-66723720D01*
X143635000Y-66606289D01*
X143635000Y-66249801D01*
X143717031Y-66167770D01*
X143882235Y-66278157D01*
X143882235Y-66278157D01*
G37*
X143882235Y-66278157D02*
X144130000Y-66327440D01*
X145368189Y-66327440D01*
X145334097Y-66378463D01*
X145275112Y-66675000D01*
X145290001Y-66749851D01*
X145290001Y-66785238D01*
X145065750Y-66785238D01*
X144907000Y-66943988D01*
X144907000Y-67793238D01*
X144918027Y-67793238D01*
X144892765Y-67920238D01*
X144918027Y-68047238D01*
X144907000Y-68047238D01*
X144907000Y-68067238D01*
X144653000Y-68067238D01*
X144653000Y-68047238D01*
X144633000Y-68047238D01*
X144633000Y-67793238D01*
X144653000Y-67793238D01*
X144653000Y-66943988D01*
X144494250Y-66785238D01*
X144153690Y-66785238D01*
X143920301Y-66881911D01*
X143847932Y-66954280D01*
X143752431Y-66723720D01*
X143635000Y-66606289D01*
X143635000Y-66249801D01*
X143717031Y-66167770D01*
X143882235Y-66278157D01*
G36*
X163616269Y-40231072D02*
X163534928Y-40640000D01*
X163654062Y-41238927D01*
X163950696Y-41682871D01*
X163742191Y-41822191D01*
X163601843Y-42032235D01*
X163552560Y-42280000D01*
X163552560Y-44080000D01*
X163601843Y-44327765D01*
X163742191Y-44537809D01*
X163952235Y-44678157D01*
X164200000Y-44727440D01*
X164340001Y-44727440D01*
X164340000Y-48154440D01*
X164202235Y-48181843D01*
X163992191Y-48322191D01*
X163851843Y-48532235D01*
X163802560Y-48780000D01*
X163802560Y-50280000D01*
X163851843Y-50527765D01*
X163992191Y-50737809D01*
X164202235Y-50878157D01*
X164211500Y-50880000D01*
X164202235Y-50881843D01*
X163992191Y-51022191D01*
X163851843Y-51232235D01*
X163802560Y-51480000D01*
X163802560Y-52980000D01*
X163851843Y-53227765D01*
X163992191Y-53437809D01*
X164202235Y-53578157D01*
X164340001Y-53605560D01*
X164340000Y-54484549D01*
X164102235Y-54531843D01*
X163892191Y-54672191D01*
X163751843Y-54882235D01*
X163702560Y-55130000D01*
X163702560Y-56630000D01*
X163751843Y-56877765D01*
X163892191Y-57087809D01*
X164102235Y-57228157D01*
X164340000Y-57275451D01*
X164340000Y-57320198D01*
X160672639Y-60987560D01*
X160100000Y-60987560D01*
X159852235Y-61036843D01*
X159642191Y-61177191D01*
X159600000Y-61240334D01*
X159557809Y-61177191D01*
X159360000Y-61045018D01*
X159360000Y-60884848D01*
X159374888Y-60810000D01*
X159360000Y-60735152D01*
X159360000Y-60735148D01*
X159315904Y-60513463D01*
X159150000Y-60265170D01*
X159150000Y-60119126D01*
X158992431Y-59738720D01*
X158701280Y-59447569D01*
X158320874Y-59290000D01*
X157909126Y-59290000D01*
X157528720Y-59447569D01*
X157360000Y-59616289D01*
X157360000Y-59519848D01*
X157374888Y-59445000D01*
X157360000Y-59370152D01*
X157360000Y-59370148D01*
X157315904Y-59148463D01*
X157147929Y-58897071D01*
X157084473Y-58854671D01*
X155700000Y-57470199D01*
X155700000Y-57275451D01*
X155937765Y-57228157D01*
X156147809Y-57087809D01*
X156288157Y-56877765D01*
X156337440Y-56630000D01*
X156337440Y-55130000D01*
X156288157Y-54882235D01*
X156147809Y-54672191D01*
X155937765Y-54531843D01*
X155700000Y-54484549D01*
X155700000Y-53605560D01*
X155837765Y-53578157D01*
X156047809Y-53437809D01*
X156188157Y-53227765D01*
X156237440Y-52980000D01*
X156237440Y-51480000D01*
X156188157Y-51232235D01*
X156047809Y-51022191D01*
X155837765Y-50881843D01*
X155828500Y-50880000D01*
X155837765Y-50878157D01*
X156047809Y-50737809D01*
X156188157Y-50527765D01*
X156237440Y-50280000D01*
X156237440Y-48780000D01*
X156188157Y-48532235D01*
X156047809Y-48322191D01*
X155837765Y-48181843D01*
X155700000Y-48154440D01*
X155700000Y-44727440D01*
X155840000Y-44727440D01*
X156087765Y-44678157D01*
X156297809Y-44537809D01*
X156438157Y-44327765D01*
X156487440Y-44080000D01*
X156487440Y-43940000D01*
X158775153Y-43940000D01*
X158850000Y-43954888D01*
X158924847Y-43940000D01*
X158924852Y-43940000D01*
X159146537Y-43895904D01*
X159397929Y-43727929D01*
X159440331Y-43664470D01*
X159797361Y-43307440D01*
X160670000Y-43307440D01*
X160917765Y-43258157D01*
X161127809Y-43117809D01*
X161268157Y-42907765D01*
X161317440Y-42660000D01*
X161317440Y-41160000D01*
X161268157Y-40912235D01*
X161127809Y-40702191D01*
X160917765Y-40561843D01*
X160889791Y-40556279D01*
X161029699Y-40498327D01*
X161208327Y-40319698D01*
X161305000Y-40086309D01*
X161305000Y-39495750D01*
X161146250Y-39337000D01*
X160147000Y-39337000D01*
X160147000Y-39357000D01*
X159893000Y-39357000D01*
X159893000Y-39337000D01*
X158893750Y-39337000D01*
X158735000Y-39495750D01*
X158735000Y-40086309D01*
X158831673Y-40319698D01*
X159010301Y-40498327D01*
X159150209Y-40556279D01*
X159122235Y-40561843D01*
X158912191Y-40702191D01*
X158771843Y-40912235D01*
X158722560Y-41160000D01*
X158722560Y-42232639D01*
X158535199Y-42420000D01*
X156487440Y-42420000D01*
X156487440Y-42280000D01*
X156438157Y-42032235D01*
X156297809Y-41822191D01*
X156089304Y-41682871D01*
X156277311Y-41401499D01*
X156284847Y-41400000D01*
X156284852Y-41400000D01*
X156506537Y-41355904D01*
X156757929Y-41187929D01*
X156800331Y-41124470D01*
X157964473Y-39960329D01*
X158027929Y-39917929D01*
X158195904Y-39666537D01*
X158240000Y-39444852D01*
X158240000Y-39444848D01*
X158254888Y-39370001D01*
X158240000Y-39295154D01*
X158240000Y-38333691D01*
X158735000Y-38333691D01*
X158735000Y-38924250D01*
X158893750Y-39083000D01*
X159893000Y-39083000D01*
X159893000Y-37983750D01*
X160147000Y-37983750D01*
X160147000Y-39083000D01*
X161146250Y-39083000D01*
X161305000Y-38924250D01*
X161305000Y-38333691D01*
X161208327Y-38100302D01*
X161029699Y-37921673D01*
X160796310Y-37825000D01*
X160305750Y-37825000D01*
X160147000Y-37983750D01*
X159893000Y-37983750D01*
X159734250Y-37825000D01*
X159243690Y-37825000D01*
X159010301Y-37921673D01*
X158831673Y-38100302D01*
X158735000Y-38333691D01*
X158240000Y-38333691D01*
X158240000Y-34854801D01*
X163616269Y-40231072D01*
X163616269Y-40231072D01*
G37*
X163616269Y-40231072D02*
X163534928Y-40640000D01*
X163654062Y-41238927D01*
X163950696Y-41682871D01*
X163742191Y-41822191D01*
X163601843Y-42032235D01*
X163552560Y-42280000D01*
X163552560Y-44080000D01*
X163601843Y-44327765D01*
X163742191Y-44537809D01*
X163952235Y-44678157D01*
X164200000Y-44727440D01*
X164340001Y-44727440D01*
X164340000Y-48154440D01*
X164202235Y-48181843D01*
X163992191Y-48322191D01*
X163851843Y-48532235D01*
X163802560Y-48780000D01*
X163802560Y-50280000D01*
X163851843Y-50527765D01*
X163992191Y-50737809D01*
X164202235Y-50878157D01*
X164211500Y-50880000D01*
X164202235Y-50881843D01*
X163992191Y-51022191D01*
X163851843Y-51232235D01*
X163802560Y-51480000D01*
X163802560Y-52980000D01*
X163851843Y-53227765D01*
X163992191Y-53437809D01*
X164202235Y-53578157D01*
X164340001Y-53605560D01*
X164340000Y-54484549D01*
X164102235Y-54531843D01*
X163892191Y-54672191D01*
X163751843Y-54882235D01*
X163702560Y-55130000D01*
X163702560Y-56630000D01*
X163751843Y-56877765D01*
X163892191Y-57087809D01*
X164102235Y-57228157D01*
X164340000Y-57275451D01*
X164340000Y-57320198D01*
X160672639Y-60987560D01*
X160100000Y-60987560D01*
X159852235Y-61036843D01*
X159642191Y-61177191D01*
X159600000Y-61240334D01*
X159557809Y-61177191D01*
X159360000Y-61045018D01*
X159360000Y-60884848D01*
X159374888Y-60810000D01*
X159360000Y-60735152D01*
X159360000Y-60735148D01*
X159315904Y-60513463D01*
X159150000Y-60265170D01*
X159150000Y-60119126D01*
X158992431Y-59738720D01*
X158701280Y-59447569D01*
X158320874Y-59290000D01*
X157909126Y-59290000D01*
X157528720Y-59447569D01*
X157360000Y-59616289D01*
X157360000Y-59519848D01*
X157374888Y-59445000D01*
X157360000Y-59370152D01*
X157360000Y-59370148D01*
X157315904Y-59148463D01*
X157147929Y-58897071D01*
X157084473Y-58854671D01*
X155700000Y-57470199D01*
X155700000Y-57275451D01*
X155937765Y-57228157D01*
X156147809Y-57087809D01*
X156288157Y-56877765D01*
X156337440Y-56630000D01*
X156337440Y-55130000D01*
X156288157Y-54882235D01*
X156147809Y-54672191D01*
X155937765Y-54531843D01*
X155700000Y-54484549D01*
X155700000Y-53605560D01*
X155837765Y-53578157D01*
X156047809Y-53437809D01*
X156188157Y-53227765D01*
X156237440Y-52980000D01*
X156237440Y-51480000D01*
X156188157Y-51232235D01*
X156047809Y-51022191D01*
X155837765Y-50881843D01*
X155828500Y-50880000D01*
X155837765Y-50878157D01*
X156047809Y-50737809D01*
X156188157Y-50527765D01*
X156237440Y-50280000D01*
X156237440Y-48780000D01*
X156188157Y-48532235D01*
X156047809Y-48322191D01*
X155837765Y-48181843D01*
X155700000Y-48154440D01*
X155700000Y-44727440D01*
X155840000Y-44727440D01*
X156087765Y-44678157D01*
X156297809Y-44537809D01*
X156438157Y-44327765D01*
X156487440Y-44080000D01*
X156487440Y-43940000D01*
X158775153Y-43940000D01*
X158850000Y-43954888D01*
X158924847Y-43940000D01*
X158924852Y-43940000D01*
X159146537Y-43895904D01*
X159397929Y-43727929D01*
X159440331Y-43664470D01*
X159797361Y-43307440D01*
X160670000Y-43307440D01*
X160917765Y-43258157D01*
X161127809Y-43117809D01*
X161268157Y-42907765D01*
X161317440Y-42660000D01*
X161317440Y-41160000D01*
X161268157Y-40912235D01*
X161127809Y-40702191D01*
X160917765Y-40561843D01*
X160889791Y-40556279D01*
X161029699Y-40498327D01*
X161208327Y-40319698D01*
X161305000Y-40086309D01*
X161305000Y-39495750D01*
X161146250Y-39337000D01*
X160147000Y-39337000D01*
X160147000Y-39357000D01*
X159893000Y-39357000D01*
X159893000Y-39337000D01*
X158893750Y-39337000D01*
X158735000Y-39495750D01*
X158735000Y-40086309D01*
X158831673Y-40319698D01*
X159010301Y-40498327D01*
X159150209Y-40556279D01*
X159122235Y-40561843D01*
X158912191Y-40702191D01*
X158771843Y-40912235D01*
X158722560Y-41160000D01*
X158722560Y-42232639D01*
X158535199Y-42420000D01*
X156487440Y-42420000D01*
X156487440Y-42280000D01*
X156438157Y-42032235D01*
X156297809Y-41822191D01*
X156089304Y-41682871D01*
X156277311Y-41401499D01*
X156284847Y-41400000D01*
X156284852Y-41400000D01*
X156506537Y-41355904D01*
X156757929Y-41187929D01*
X156800331Y-41124470D01*
X157964473Y-39960329D01*
X158027929Y-39917929D01*
X158195904Y-39666537D01*
X158240000Y-39444852D01*
X158240000Y-39444848D01*
X158254888Y-39370001D01*
X158240000Y-39295154D01*
X158240000Y-38333691D01*
X158735000Y-38333691D01*
X158735000Y-38924250D01*
X158893750Y-39083000D01*
X159893000Y-39083000D01*
X159893000Y-37983750D01*
X160147000Y-37983750D01*
X160147000Y-39083000D01*
X161146250Y-39083000D01*
X161305000Y-38924250D01*
X161305000Y-38333691D01*
X161208327Y-38100302D01*
X161029699Y-37921673D01*
X160796310Y-37825000D01*
X160305750Y-37825000D01*
X160147000Y-37983750D01*
X159893000Y-37983750D01*
X159734250Y-37825000D01*
X159243690Y-37825000D01*
X159010301Y-37921673D01*
X158831673Y-38100302D01*
X158735000Y-38333691D01*
X158240000Y-38333691D01*
X158240000Y-34854801D01*
X163616269Y-40231072D01*
G04 #@! TD*
M02*
