G04 #@! TF.GenerationSoftware,KiCad,Pcbnew,(5.0.0-rc2-101-g68f6e3ad4)*
G04 #@! TF.CreationDate,2018-07-19T03:23:03+02:00*
G04 #@! TF.ProjectId,leddings,6C656464696E67732E6B696361645F70,rev?*
G04 #@! TF.SameCoordinates,Original*
G04 #@! TF.FileFunction,Legend,Top*
G04 #@! TF.FilePolarity,Positive*
%FSLAX46Y46*%
G04 Gerber Fmt 4.6, Leading zero omitted, Abs format (unit mm)*
G04 Created by KiCad (PCBNEW (5.0.0-rc2-101-g68f6e3ad4)) date Thu Jul 19 03:23:03 2018*
%MOMM*%
%LPD*%
G01*
G04 APERTURE LIST*
%ADD10C,0.200000*%
%ADD11C,0.120000*%
%ADD12C,0.150000*%
%ADD13C,0.500000*%
%ADD14C,0.010000*%
G04 APERTURE END LIST*
D10*
X153751742Y-105143228D02*
X153751742Y-104000371D01*
X153174771Y-98582942D02*
X154317628Y-98582942D01*
X153746200Y-99154371D02*
X153746200Y-98011514D01*
X151808571Y-104457142D02*
X151808571Y-105314285D01*
X151808571Y-104885714D02*
X150308571Y-104885714D01*
X150522857Y-105028571D01*
X150665714Y-105171428D01*
X150737142Y-105314285D01*
X150451428Y-103885714D02*
X150380000Y-103814285D01*
X150308571Y-103671428D01*
X150308571Y-103314285D01*
X150380000Y-103171428D01*
X150451428Y-103100000D01*
X150594285Y-103028571D01*
X150737142Y-103028571D01*
X150951428Y-103100000D01*
X151808571Y-103957142D01*
X151808571Y-103028571D01*
X150308571Y-102600000D02*
X151808571Y-102100000D01*
X150308571Y-101600000D01*
X150451428Y-100028571D02*
X150380000Y-99957142D01*
X150308571Y-99814285D01*
X150308571Y-99457142D01*
X150380000Y-99314285D01*
X150451428Y-99242857D01*
X150594285Y-99171428D01*
X150737142Y-99171428D01*
X150951428Y-99242857D01*
X151808571Y-100100000D01*
X151808571Y-99171428D01*
X151380000Y-98600000D02*
X151380000Y-97885714D01*
X151808571Y-98742857D02*
X150308571Y-98242857D01*
X151808571Y-97742857D01*
X152587142Y-31000000D02*
X152444285Y-30928571D01*
X152230000Y-30928571D01*
X152015714Y-31000000D01*
X151872857Y-31142857D01*
X151801428Y-31285714D01*
X151730000Y-31571428D01*
X151730000Y-31785714D01*
X151801428Y-32071428D01*
X151872857Y-32214285D01*
X152015714Y-32357142D01*
X152230000Y-32428571D01*
X152372857Y-32428571D01*
X152587142Y-32357142D01*
X152658571Y-32285714D01*
X152658571Y-31785714D01*
X152372857Y-31785714D01*
X154944285Y-31642857D02*
X155158571Y-31714285D01*
X155230000Y-31785714D01*
X155301428Y-31928571D01*
X155301428Y-32142857D01*
X155230000Y-32285714D01*
X155158571Y-32357142D01*
X155015714Y-32428571D01*
X154444285Y-32428571D01*
X154444285Y-30928571D01*
X154944285Y-30928571D01*
X155087142Y-31000000D01*
X155158571Y-31071428D01*
X155230000Y-31214285D01*
X155230000Y-31357142D01*
X155158571Y-31500000D01*
X155087142Y-31571428D01*
X154944285Y-31642857D01*
X154444285Y-31642857D01*
X157944285Y-32428571D02*
X157444285Y-31714285D01*
X157087142Y-32428571D02*
X157087142Y-30928571D01*
X157658571Y-30928571D01*
X157801428Y-31000000D01*
X157872857Y-31071428D01*
X157944285Y-31214285D01*
X157944285Y-31428571D01*
X157872857Y-31571428D01*
X157801428Y-31642857D01*
X157658571Y-31714285D01*
X157087142Y-31714285D01*
X160515714Y-32428571D02*
X159658571Y-32428571D01*
X160087142Y-32428571D02*
X160087142Y-30928571D01*
X159944285Y-31142857D01*
X159801428Y-31285714D01*
X159658571Y-31357142D01*
X161087142Y-31071428D02*
X161158571Y-31000000D01*
X161301428Y-30928571D01*
X161658571Y-30928571D01*
X161801428Y-31000000D01*
X161872857Y-31071428D01*
X161944285Y-31214285D01*
X161944285Y-31357142D01*
X161872857Y-31571428D01*
X161015714Y-32428571D01*
X161944285Y-32428571D01*
X162372857Y-30928571D02*
X162872857Y-32428571D01*
X163372857Y-30928571D01*
D11*
G04 #@! TO.C,U3*
X177220000Y-62365000D02*
X177220000Y-78605000D01*
X177220000Y-78605000D02*
X169600000Y-78605000D01*
X153600000Y-78605000D02*
X152980000Y-78605000D01*
X152980000Y-78605000D02*
X152980000Y-76485000D01*
X152980000Y-64485000D02*
X152980000Y-62365000D01*
X152980000Y-62365000D02*
X153600000Y-62365000D01*
X169600000Y-62365000D02*
X177220000Y-62365000D01*
X169600000Y-62365000D02*
X169600000Y-61755000D01*
G04 #@! TO.C,C1*
X134775000Y-84670000D02*
X135775000Y-84670000D01*
X135775000Y-82970000D02*
X134775000Y-82970000D01*
G04 #@! TO.C,C2*
X135775000Y-79160000D02*
X134775000Y-79160000D01*
X134775000Y-80860000D02*
X135775000Y-80860000D01*
G04 #@! TO.C,D1*
X141910000Y-83020000D02*
X144510000Y-83020000D01*
X141910000Y-84620000D02*
X144510000Y-84620000D01*
X141910000Y-83020000D02*
X141910000Y-84620000D01*
G04 #@! TO.C,J4*
X151070000Y-30540000D02*
X151070000Y-29210000D01*
X152400000Y-30540000D02*
X151070000Y-30540000D01*
X153670000Y-30540000D02*
X153670000Y-27880000D01*
X153670000Y-27880000D02*
X161350000Y-27880000D01*
X153670000Y-30540000D02*
X161350000Y-30540000D01*
X161350000Y-30540000D02*
X161350000Y-27880000D01*
G04 #@! TO.C,J5*
X173965000Y-88060000D02*
X174415000Y-88060000D01*
X173965000Y-88060000D02*
X173965000Y-87610000D01*
X174515000Y-82460000D02*
X174515000Y-82910000D01*
X176365000Y-82460000D02*
X174515000Y-82460000D01*
X178915000Y-90260000D02*
X178665000Y-90260000D01*
X178915000Y-82460000D02*
X178665000Y-82460000D01*
X176365000Y-90260000D02*
X174515000Y-90260000D01*
X174515000Y-90260000D02*
X174515000Y-89810000D01*
G04 #@! TO.C,Q1*
X162480000Y-45760000D02*
X162480000Y-35520000D01*
X167121000Y-45760000D02*
X167121000Y-35520000D01*
X162480000Y-45760000D02*
X167121000Y-45760000D01*
X162480000Y-35520000D02*
X167121000Y-35520000D01*
X163990000Y-45760000D02*
X163990000Y-35520000D01*
X162480000Y-42490000D02*
X163990000Y-42490000D01*
X162480000Y-38789000D02*
X163990000Y-38789000D01*
G04 #@! TO.C,Q2*
X152320000Y-45760000D02*
X152320000Y-35520000D01*
X156961000Y-45760000D02*
X156961000Y-35520000D01*
X152320000Y-45760000D02*
X156961000Y-45760000D01*
X152320000Y-35520000D02*
X156961000Y-35520000D01*
X153830000Y-45760000D02*
X153830000Y-35520000D01*
X152320000Y-42490000D02*
X153830000Y-42490000D01*
X152320000Y-38789000D02*
X153830000Y-38789000D01*
G04 #@! TO.C,Q3*
X142160000Y-38789000D02*
X143670000Y-38789000D01*
X142160000Y-42490000D02*
X143670000Y-42490000D01*
X143670000Y-45760000D02*
X143670000Y-35520000D01*
X142160000Y-35520000D02*
X146801000Y-35520000D01*
X142160000Y-45760000D02*
X146801000Y-45760000D01*
X146801000Y-45760000D02*
X146801000Y-35520000D01*
X142160000Y-45760000D02*
X142160000Y-35520000D01*
G04 #@! TO.C,R1*
X164220000Y-51480000D02*
X164220000Y-50280000D01*
X165980000Y-50280000D02*
X165980000Y-51480000D01*
G04 #@! TO.C,R2*
X154060000Y-51480000D02*
X154060000Y-50280000D01*
X155820000Y-50280000D02*
X155820000Y-51480000D01*
G04 #@! TO.C,R3*
X143900000Y-51480000D02*
X143900000Y-50280000D01*
X145660000Y-50280000D02*
X145660000Y-51480000D01*
G04 #@! TO.C,R4*
X169300000Y-41320000D02*
X169300000Y-40120000D01*
X171060000Y-40120000D02*
X171060000Y-41320000D01*
G04 #@! TO.C,R5*
X159140000Y-41160000D02*
X159140000Y-39960000D01*
X160900000Y-39960000D02*
X160900000Y-41160000D01*
G04 #@! TO.C,R6*
X148980000Y-41160000D02*
X148980000Y-39960000D01*
X150740000Y-39960000D02*
X150740000Y-41160000D01*
G04 #@! TO.C,R7*
X143900000Y-64180000D02*
X143900000Y-62980000D01*
X145660000Y-62980000D02*
X145660000Y-64180000D01*
G04 #@! TO.C,R8*
X149470000Y-62980000D02*
X149470000Y-64180000D01*
X147710000Y-64180000D02*
X147710000Y-62980000D01*
G04 #@! TO.C,SW1*
X138927500Y-66675000D02*
G75*
G03X138927500Y-66675000I-2540000J0D01*
G01*
X139897500Y-70485000D02*
X140197500Y-70485000D01*
X139897500Y-62865000D02*
X140197500Y-62865000D01*
X134817500Y-70485000D02*
X137957500Y-70485000D01*
X134817500Y-62865000D02*
X137957500Y-62865000D01*
X132577500Y-70485000D02*
X132877500Y-70485000D01*
X140197500Y-62865000D02*
X140197500Y-70485000D01*
X132577500Y-62865000D02*
X132877500Y-62865000D01*
X132577500Y-70485000D02*
X132577500Y-62865000D01*
G04 #@! TO.C,SW2*
X144020000Y-69030238D02*
X144020000Y-67920238D01*
X144780000Y-69030238D02*
X144020000Y-69030238D01*
X145540000Y-67356767D02*
X145540000Y-66810238D01*
X145540000Y-69030238D02*
X145540000Y-68483709D01*
X145540000Y-66810238D02*
X148015000Y-66810238D01*
X145540000Y-69030238D02*
X148015000Y-69030238D01*
X148015000Y-67612708D02*
X148015000Y-66810238D01*
X148015000Y-69030238D02*
X148015000Y-68227768D01*
G04 #@! TO.C,U1*
X138376000Y-73580000D02*
X138376000Y-75090000D01*
X134675000Y-73580000D02*
X134675000Y-75090000D01*
X131405000Y-75090000D02*
X141645000Y-75090000D01*
X141645000Y-73580000D02*
X141645000Y-78221000D01*
X131405000Y-73580000D02*
X131405000Y-78221000D01*
X131405000Y-78221000D02*
X141645000Y-78221000D01*
X131405000Y-73580000D02*
X141645000Y-73580000D01*
G04 #@! TO.C,J6*
X137400000Y-92940000D02*
X139140000Y-92940000D01*
X137400000Y-94680000D02*
X137400000Y-92940000D01*
X146840000Y-93180000D02*
X146840000Y-95180000D01*
X144040000Y-93180000D02*
X146840000Y-93180000D01*
X137640000Y-93180000D02*
X140440000Y-93180000D01*
X137640000Y-107780000D02*
X137640000Y-93180000D01*
X146840000Y-107780000D02*
X137640000Y-107780000D01*
X146840000Y-98780000D02*
X146840000Y-107780000D01*
D12*
G04 #@! TO.C,REF\002A\002A*
X153745000Y-101600000D02*
X153745000Y-99600000D01*
X153745000Y-103600000D02*
X153745000Y-102700000D01*
X154670000Y-104600000D02*
G75*
G03X154670000Y-104600000I-925000J0D01*
G01*
X154670000Y-98600000D02*
G75*
G03X154670000Y-98600000I-925000J0D01*
G01*
D13*
X153920000Y-101600000D02*
G75*
G03X153920000Y-101600000I-175000J0D01*
G01*
D12*
X152995000Y-100925000D02*
G75*
G03X154420000Y-100850000I750000J-675000D01*
G01*
D14*
G04 #@! TO.C,REF\002A\002A\002A*
G36*
X160049909Y-103239560D02*
X160102412Y-103265499D01*
X160167158Y-103310700D01*
X160214347Y-103359991D01*
X160246665Y-103421885D01*
X160266797Y-103504896D01*
X160277430Y-103617538D01*
X160281247Y-103768324D01*
X160281470Y-103833149D01*
X160280818Y-103975221D01*
X160278112Y-104076757D01*
X160272224Y-104147015D01*
X160262027Y-104195256D01*
X160246394Y-104230738D01*
X160230128Y-104254943D01*
X160126295Y-104357929D01*
X160004021Y-104419874D01*
X159872114Y-104438506D01*
X159739384Y-104411549D01*
X159697333Y-104392486D01*
X159596666Y-104340015D01*
X159596666Y-105162259D01*
X159670135Y-105124267D01*
X159766941Y-105094872D01*
X159885928Y-105087342D01*
X160004745Y-105101245D01*
X160094473Y-105132476D01*
X160168899Y-105191954D01*
X160232490Y-105277066D01*
X160237271Y-105285805D01*
X160257437Y-105326966D01*
X160272165Y-105368454D01*
X160282303Y-105418713D01*
X160288699Y-105486184D01*
X160292201Y-105579309D01*
X160293658Y-105706531D01*
X160293921Y-105849701D01*
X160293921Y-106306471D01*
X160020000Y-106306471D01*
X160020000Y-105464231D01*
X159943383Y-105399763D01*
X159863793Y-105348194D01*
X159788422Y-105338818D01*
X159712633Y-105362947D01*
X159672241Y-105386574D01*
X159642179Y-105420227D01*
X159620797Y-105471087D01*
X159606450Y-105546334D01*
X159597490Y-105653146D01*
X159592270Y-105798704D01*
X159590431Y-105895588D01*
X159584215Y-106294020D01*
X159453480Y-106301547D01*
X159322745Y-106309073D01*
X159322745Y-103836582D01*
X159596666Y-103836582D01*
X159603650Y-103974423D01*
X159627182Y-104070107D01*
X159671135Y-104129641D01*
X159739382Y-104159029D01*
X159808333Y-104164902D01*
X159886386Y-104158154D01*
X159938189Y-104131594D01*
X159970583Y-104096499D01*
X159996084Y-104058752D01*
X160011265Y-104016700D01*
X160018019Y-103957779D01*
X160018241Y-103869428D01*
X160015968Y-103795448D01*
X160010749Y-103684000D01*
X160002979Y-103610833D01*
X159989895Y-103564422D01*
X159968732Y-103533244D01*
X159948760Y-103515223D01*
X159865314Y-103475925D01*
X159766551Y-103469579D01*
X159709841Y-103483116D01*
X159653692Y-103531233D01*
X159616499Y-103624833D01*
X159598472Y-103763254D01*
X159596666Y-103836582D01*
X159322745Y-103836582D01*
X159322745Y-103218628D01*
X159459705Y-103218628D01*
X159541935Y-103221879D01*
X159584360Y-103233426D01*
X159596661Y-103255952D01*
X159596666Y-103256620D01*
X159602374Y-103278681D01*
X159627547Y-103276176D01*
X159677598Y-103251935D01*
X159794219Y-103214851D01*
X159925429Y-103210953D01*
X160049909Y-103239560D01*
X160049909Y-103239560D01*
G37*
X160049909Y-103239560D02*
X160102412Y-103265499D01*
X160167158Y-103310700D01*
X160214347Y-103359991D01*
X160246665Y-103421885D01*
X160266797Y-103504896D01*
X160277430Y-103617538D01*
X160281247Y-103768324D01*
X160281470Y-103833149D01*
X160280818Y-103975221D01*
X160278112Y-104076757D01*
X160272224Y-104147015D01*
X160262027Y-104195256D01*
X160246394Y-104230738D01*
X160230128Y-104254943D01*
X160126295Y-104357929D01*
X160004021Y-104419874D01*
X159872114Y-104438506D01*
X159739384Y-104411549D01*
X159697333Y-104392486D01*
X159596666Y-104340015D01*
X159596666Y-105162259D01*
X159670135Y-105124267D01*
X159766941Y-105094872D01*
X159885928Y-105087342D01*
X160004745Y-105101245D01*
X160094473Y-105132476D01*
X160168899Y-105191954D01*
X160232490Y-105277066D01*
X160237271Y-105285805D01*
X160257437Y-105326966D01*
X160272165Y-105368454D01*
X160282303Y-105418713D01*
X160288699Y-105486184D01*
X160292201Y-105579309D01*
X160293658Y-105706531D01*
X160293921Y-105849701D01*
X160293921Y-106306471D01*
X160020000Y-106306471D01*
X160020000Y-105464231D01*
X159943383Y-105399763D01*
X159863793Y-105348194D01*
X159788422Y-105338818D01*
X159712633Y-105362947D01*
X159672241Y-105386574D01*
X159642179Y-105420227D01*
X159620797Y-105471087D01*
X159606450Y-105546334D01*
X159597490Y-105653146D01*
X159592270Y-105798704D01*
X159590431Y-105895588D01*
X159584215Y-106294020D01*
X159453480Y-106301547D01*
X159322745Y-106309073D01*
X159322745Y-103836582D01*
X159596666Y-103836582D01*
X159603650Y-103974423D01*
X159627182Y-104070107D01*
X159671135Y-104129641D01*
X159739382Y-104159029D01*
X159808333Y-104164902D01*
X159886386Y-104158154D01*
X159938189Y-104131594D01*
X159970583Y-104096499D01*
X159996084Y-104058752D01*
X160011265Y-104016700D01*
X160018019Y-103957779D01*
X160018241Y-103869428D01*
X160015968Y-103795448D01*
X160010749Y-103684000D01*
X160002979Y-103610833D01*
X159989895Y-103564422D01*
X159968732Y-103533244D01*
X159948760Y-103515223D01*
X159865314Y-103475925D01*
X159766551Y-103469579D01*
X159709841Y-103483116D01*
X159653692Y-103531233D01*
X159616499Y-103624833D01*
X159598472Y-103763254D01*
X159596666Y-103836582D01*
X159322745Y-103836582D01*
X159322745Y-103218628D01*
X159459705Y-103218628D01*
X159541935Y-103221879D01*
X159584360Y-103233426D01*
X159596661Y-103255952D01*
X159596666Y-103256620D01*
X159602374Y-103278681D01*
X159627547Y-103276176D01*
X159677598Y-103251935D01*
X159794219Y-103214851D01*
X159925429Y-103210953D01*
X160049909Y-103239560D01*
G36*
X161088720Y-105095922D02*
X161205870Y-105127180D01*
X161295051Y-105183837D01*
X161357984Y-105258045D01*
X161377548Y-105289716D01*
X161391992Y-105322891D01*
X161402089Y-105365329D01*
X161408615Y-105424788D01*
X161412342Y-105509029D01*
X161414046Y-105625810D01*
X161414500Y-105782890D01*
X161414509Y-105824565D01*
X161414509Y-106306471D01*
X161294980Y-106306471D01*
X161218739Y-106301131D01*
X161162366Y-106287604D01*
X161148242Y-106279262D01*
X161109630Y-106264864D01*
X161070192Y-106279262D01*
X161005262Y-106297237D01*
X160910945Y-106304472D01*
X160806407Y-106301333D01*
X160710811Y-106288186D01*
X160655000Y-106271318D01*
X160546998Y-106201986D01*
X160479503Y-106105772D01*
X160449159Y-105977844D01*
X160448877Y-105974559D01*
X160451540Y-105917808D01*
X160692353Y-105917808D01*
X160713405Y-105982358D01*
X160747697Y-106018686D01*
X160816532Y-106046162D01*
X160907390Y-106057129D01*
X161000042Y-106051731D01*
X161074256Y-106030110D01*
X161095049Y-106016239D01*
X161131381Y-105952143D01*
X161140588Y-105879278D01*
X161140588Y-105783530D01*
X161002827Y-105783530D01*
X160871953Y-105793605D01*
X160772741Y-105822148D01*
X160711023Y-105866639D01*
X160692353Y-105917808D01*
X160451540Y-105917808D01*
X160455436Y-105834790D01*
X160501534Y-105724282D01*
X160588200Y-105640712D01*
X160600179Y-105633110D01*
X160651655Y-105608357D01*
X160715368Y-105593368D01*
X160804435Y-105586082D01*
X160910245Y-105584407D01*
X161140588Y-105584314D01*
X161140588Y-105487755D01*
X161130817Y-105412836D01*
X161105884Y-105362644D01*
X161102965Y-105359972D01*
X161047481Y-105338015D01*
X160963727Y-105329505D01*
X160871167Y-105333687D01*
X160789270Y-105349809D01*
X160740673Y-105373990D01*
X160714341Y-105393359D01*
X160686535Y-105397057D01*
X160648161Y-105381188D01*
X160590125Y-105341855D01*
X160503331Y-105275164D01*
X160495365Y-105268916D01*
X160499447Y-105245800D01*
X160533501Y-105207352D01*
X160585260Y-105164627D01*
X160642455Y-105128679D01*
X160660425Y-105120191D01*
X160725972Y-105103252D01*
X160822020Y-105091170D01*
X160929329Y-105086323D01*
X160934347Y-105086313D01*
X161088720Y-105095922D01*
X161088720Y-105095922D01*
G37*
X161088720Y-105095922D02*
X161205870Y-105127180D01*
X161295051Y-105183837D01*
X161357984Y-105258045D01*
X161377548Y-105289716D01*
X161391992Y-105322891D01*
X161402089Y-105365329D01*
X161408615Y-105424788D01*
X161412342Y-105509029D01*
X161414046Y-105625810D01*
X161414500Y-105782890D01*
X161414509Y-105824565D01*
X161414509Y-106306471D01*
X161294980Y-106306471D01*
X161218739Y-106301131D01*
X161162366Y-106287604D01*
X161148242Y-106279262D01*
X161109630Y-106264864D01*
X161070192Y-106279262D01*
X161005262Y-106297237D01*
X160910945Y-106304472D01*
X160806407Y-106301333D01*
X160710811Y-106288186D01*
X160655000Y-106271318D01*
X160546998Y-106201986D01*
X160479503Y-106105772D01*
X160449159Y-105977844D01*
X160448877Y-105974559D01*
X160451540Y-105917808D01*
X160692353Y-105917808D01*
X160713405Y-105982358D01*
X160747697Y-106018686D01*
X160816532Y-106046162D01*
X160907390Y-106057129D01*
X161000042Y-106051731D01*
X161074256Y-106030110D01*
X161095049Y-106016239D01*
X161131381Y-105952143D01*
X161140588Y-105879278D01*
X161140588Y-105783530D01*
X161002827Y-105783530D01*
X160871953Y-105793605D01*
X160772741Y-105822148D01*
X160711023Y-105866639D01*
X160692353Y-105917808D01*
X160451540Y-105917808D01*
X160455436Y-105834790D01*
X160501534Y-105724282D01*
X160588200Y-105640712D01*
X160600179Y-105633110D01*
X160651655Y-105608357D01*
X160715368Y-105593368D01*
X160804435Y-105586082D01*
X160910245Y-105584407D01*
X161140588Y-105584314D01*
X161140588Y-105487755D01*
X161130817Y-105412836D01*
X161105884Y-105362644D01*
X161102965Y-105359972D01*
X161047481Y-105338015D01*
X160963727Y-105329505D01*
X160871167Y-105333687D01*
X160789270Y-105349809D01*
X160740673Y-105373990D01*
X160714341Y-105393359D01*
X160686535Y-105397057D01*
X160648161Y-105381188D01*
X160590125Y-105341855D01*
X160503331Y-105275164D01*
X160495365Y-105268916D01*
X160499447Y-105245800D01*
X160533501Y-105207352D01*
X160585260Y-105164627D01*
X160642455Y-105128679D01*
X160660425Y-105120191D01*
X160725972Y-105103252D01*
X160822020Y-105091170D01*
X160929329Y-105086323D01*
X160934347Y-105086313D01*
X161088720Y-105095922D01*
G36*
X161862764Y-105088921D02*
X161900030Y-105100091D01*
X161912043Y-105124633D01*
X161912549Y-105135712D01*
X161914704Y-105166572D01*
X161929551Y-105171417D01*
X161969657Y-105150260D01*
X161993480Y-105135806D01*
X162068638Y-105104850D01*
X162158406Y-105089544D01*
X162252529Y-105088367D01*
X162340754Y-105099799D01*
X162412826Y-105122320D01*
X162458492Y-105154409D01*
X162467498Y-105194545D01*
X162462953Y-105205415D01*
X162429821Y-105250534D01*
X162378445Y-105306026D01*
X162369152Y-105314996D01*
X162320182Y-105356245D01*
X162277931Y-105369572D01*
X162218841Y-105360271D01*
X162195169Y-105354090D01*
X162121504Y-105339246D01*
X162069710Y-105345921D01*
X162025969Y-105369465D01*
X161985902Y-105401061D01*
X161956392Y-105440798D01*
X161935884Y-105496252D01*
X161922824Y-105575003D01*
X161915656Y-105684629D01*
X161912824Y-105832706D01*
X161912549Y-105922111D01*
X161912549Y-106306471D01*
X161663529Y-106306471D01*
X161663529Y-105086275D01*
X161788039Y-105086275D01*
X161862764Y-105088921D01*
X161862764Y-105088921D01*
G37*
X161862764Y-105088921D02*
X161900030Y-105100091D01*
X161912043Y-105124633D01*
X161912549Y-105135712D01*
X161914704Y-105166572D01*
X161929551Y-105171417D01*
X161969657Y-105150260D01*
X161993480Y-105135806D01*
X162068638Y-105104850D01*
X162158406Y-105089544D01*
X162252529Y-105088367D01*
X162340754Y-105099799D01*
X162412826Y-105122320D01*
X162458492Y-105154409D01*
X162467498Y-105194545D01*
X162462953Y-105205415D01*
X162429821Y-105250534D01*
X162378445Y-105306026D01*
X162369152Y-105314996D01*
X162320182Y-105356245D01*
X162277931Y-105369572D01*
X162218841Y-105360271D01*
X162195169Y-105354090D01*
X162121504Y-105339246D01*
X162069710Y-105345921D01*
X162025969Y-105369465D01*
X161985902Y-105401061D01*
X161956392Y-105440798D01*
X161935884Y-105496252D01*
X161922824Y-105575003D01*
X161915656Y-105684629D01*
X161912824Y-105832706D01*
X161912549Y-105922111D01*
X161912549Y-106306471D01*
X161663529Y-106306471D01*
X161663529Y-105086275D01*
X161788039Y-105086275D01*
X161862764Y-105088921D01*
G36*
X163431568Y-106306471D02*
X163294607Y-106306471D01*
X163215111Y-106304140D01*
X163173708Y-106294488D01*
X163158801Y-106273525D01*
X163157647Y-106259351D01*
X163155133Y-106230927D01*
X163139280Y-106225475D01*
X163097621Y-106242998D01*
X163065224Y-106259351D01*
X162940849Y-106298103D01*
X162805646Y-106300346D01*
X162695726Y-106271444D01*
X162593366Y-106201619D01*
X162515340Y-106098555D01*
X162472614Y-105976989D01*
X162471526Y-105970192D01*
X162465178Y-105896032D01*
X162462021Y-105789570D01*
X162462275Y-105709052D01*
X162734289Y-105709052D01*
X162740590Y-105816070D01*
X162754925Y-105904278D01*
X162774331Y-105954090D01*
X162847746Y-106022162D01*
X162934914Y-106046564D01*
X163024804Y-106026831D01*
X163101617Y-105967968D01*
X163130708Y-105928379D01*
X163147717Y-105881138D01*
X163155684Y-105812181D01*
X163157647Y-105708607D01*
X163154134Y-105606039D01*
X163144857Y-105515921D01*
X163131706Y-105455613D01*
X163129514Y-105450208D01*
X163076478Y-105385940D01*
X162999067Y-105350656D01*
X162912454Y-105344959D01*
X162831807Y-105369453D01*
X162772297Y-105424742D01*
X162766124Y-105435743D01*
X162746801Y-105502827D01*
X162736274Y-105599284D01*
X162734289Y-105709052D01*
X162462275Y-105709052D01*
X162462404Y-105668225D01*
X162464194Y-105602918D01*
X162476373Y-105441355D01*
X162501685Y-105320053D01*
X162543793Y-105230379D01*
X162606359Y-105163699D01*
X162667100Y-105124557D01*
X162751964Y-105097040D01*
X162857515Y-105087603D01*
X162965598Y-105095290D01*
X163058058Y-105119146D01*
X163106910Y-105147685D01*
X163157647Y-105193601D01*
X163157647Y-104613137D01*
X163431568Y-104613137D01*
X163431568Y-106306471D01*
X163431568Y-106306471D01*
G37*
X163431568Y-106306471D02*
X163294607Y-106306471D01*
X163215111Y-106304140D01*
X163173708Y-106294488D01*
X163158801Y-106273525D01*
X163157647Y-106259351D01*
X163155133Y-106230927D01*
X163139280Y-106225475D01*
X163097621Y-106242998D01*
X163065224Y-106259351D01*
X162940849Y-106298103D01*
X162805646Y-106300346D01*
X162695726Y-106271444D01*
X162593366Y-106201619D01*
X162515340Y-106098555D01*
X162472614Y-105976989D01*
X162471526Y-105970192D01*
X162465178Y-105896032D01*
X162462021Y-105789570D01*
X162462275Y-105709052D01*
X162734289Y-105709052D01*
X162740590Y-105816070D01*
X162754925Y-105904278D01*
X162774331Y-105954090D01*
X162847746Y-106022162D01*
X162934914Y-106046564D01*
X163024804Y-106026831D01*
X163101617Y-105967968D01*
X163130708Y-105928379D01*
X163147717Y-105881138D01*
X163155684Y-105812181D01*
X163157647Y-105708607D01*
X163154134Y-105606039D01*
X163144857Y-105515921D01*
X163131706Y-105455613D01*
X163129514Y-105450208D01*
X163076478Y-105385940D01*
X162999067Y-105350656D01*
X162912454Y-105344959D01*
X162831807Y-105369453D01*
X162772297Y-105424742D01*
X162766124Y-105435743D01*
X162746801Y-105502827D01*
X162736274Y-105599284D01*
X162734289Y-105709052D01*
X162462275Y-105709052D01*
X162462404Y-105668225D01*
X162464194Y-105602918D01*
X162476373Y-105441355D01*
X162501685Y-105320053D01*
X162543793Y-105230379D01*
X162606359Y-105163699D01*
X162667100Y-105124557D01*
X162751964Y-105097040D01*
X162857515Y-105087603D01*
X162965598Y-105095290D01*
X163058058Y-105119146D01*
X163106910Y-105147685D01*
X163157647Y-105193601D01*
X163157647Y-104613137D01*
X163431568Y-104613137D01*
X163431568Y-106306471D01*
G36*
X164387528Y-105091332D02*
X164486014Y-105098726D01*
X164614776Y-105484706D01*
X164743537Y-105870686D01*
X164783911Y-105733726D01*
X164808207Y-105649083D01*
X164840167Y-105534697D01*
X164874679Y-105408963D01*
X164892928Y-105341520D01*
X164961571Y-105086275D01*
X165244773Y-105086275D01*
X165160122Y-105353971D01*
X165118435Y-105485638D01*
X165068074Y-105644458D01*
X165015481Y-105810128D01*
X164968530Y-105957843D01*
X164861589Y-106294020D01*
X164630661Y-106309044D01*
X164568050Y-106102316D01*
X164529438Y-105973896D01*
X164487300Y-105832322D01*
X164450472Y-105707285D01*
X164449018Y-105702309D01*
X164421511Y-105617586D01*
X164397242Y-105559778D01*
X164380243Y-105537918D01*
X164376750Y-105540446D01*
X164364490Y-105574336D01*
X164341195Y-105646930D01*
X164309700Y-105749101D01*
X164272842Y-105871720D01*
X164252899Y-105939167D01*
X164144895Y-106306471D01*
X163915679Y-106306471D01*
X163732439Y-105727500D01*
X163680963Y-105565091D01*
X163634070Y-105417602D01*
X163593977Y-105291960D01*
X163562897Y-105195095D01*
X163543045Y-105133934D01*
X163537011Y-105116065D01*
X163541788Y-105097768D01*
X163579297Y-105089755D01*
X163657355Y-105090557D01*
X163669574Y-105091163D01*
X163814326Y-105098726D01*
X163909130Y-105447353D01*
X163943977Y-105574497D01*
X163975117Y-105686265D01*
X163999809Y-105772953D01*
X164015312Y-105824856D01*
X164018176Y-105833318D01*
X164030046Y-105823587D01*
X164053983Y-105773172D01*
X164087239Y-105688935D01*
X164127064Y-105577741D01*
X164160730Y-105477297D01*
X164289041Y-105083939D01*
X164387528Y-105091332D01*
X164387528Y-105091332D01*
G37*
X164387528Y-105091332D02*
X164486014Y-105098726D01*
X164614776Y-105484706D01*
X164743537Y-105870686D01*
X164783911Y-105733726D01*
X164808207Y-105649083D01*
X164840167Y-105534697D01*
X164874679Y-105408963D01*
X164892928Y-105341520D01*
X164961571Y-105086275D01*
X165244773Y-105086275D01*
X165160122Y-105353971D01*
X165118435Y-105485638D01*
X165068074Y-105644458D01*
X165015481Y-105810128D01*
X164968530Y-105957843D01*
X164861589Y-106294020D01*
X164630661Y-106309044D01*
X164568050Y-106102316D01*
X164529438Y-105973896D01*
X164487300Y-105832322D01*
X164450472Y-105707285D01*
X164449018Y-105702309D01*
X164421511Y-105617586D01*
X164397242Y-105559778D01*
X164380243Y-105537918D01*
X164376750Y-105540446D01*
X164364490Y-105574336D01*
X164341195Y-105646930D01*
X164309700Y-105749101D01*
X164272842Y-105871720D01*
X164252899Y-105939167D01*
X164144895Y-106306471D01*
X163915679Y-106306471D01*
X163732439Y-105727500D01*
X163680963Y-105565091D01*
X163634070Y-105417602D01*
X163593977Y-105291960D01*
X163562897Y-105195095D01*
X163543045Y-105133934D01*
X163537011Y-105116065D01*
X163541788Y-105097768D01*
X163579297Y-105089755D01*
X163657355Y-105090557D01*
X163669574Y-105091163D01*
X163814326Y-105098726D01*
X163909130Y-105447353D01*
X163943977Y-105574497D01*
X163975117Y-105686265D01*
X163999809Y-105772953D01*
X164015312Y-105824856D01*
X164018176Y-105833318D01*
X164030046Y-105823587D01*
X164053983Y-105773172D01*
X164087239Y-105688935D01*
X164127064Y-105577741D01*
X164160730Y-105477297D01*
X164289041Y-105083939D01*
X164387528Y-105091332D01*
G36*
X165886459Y-105093669D02*
X165991420Y-105119163D01*
X166021761Y-105132669D01*
X166080573Y-105168046D01*
X166125709Y-105207890D01*
X166159106Y-105259120D01*
X166182701Y-105328654D01*
X166198433Y-105423409D01*
X166208239Y-105550305D01*
X166214057Y-105716258D01*
X166216266Y-105827108D01*
X166224396Y-106306471D01*
X166085531Y-106306471D01*
X166001287Y-106302938D01*
X165957884Y-106290866D01*
X165946666Y-106270594D01*
X165940744Y-106248674D01*
X165914266Y-106252865D01*
X165878186Y-106270441D01*
X165787862Y-106297382D01*
X165671777Y-106304642D01*
X165549680Y-106292767D01*
X165441321Y-106262305D01*
X165431602Y-106258077D01*
X165332568Y-106188505D01*
X165267281Y-106091789D01*
X165237240Y-105978738D01*
X165239535Y-105938122D01*
X165484633Y-105938122D01*
X165506229Y-105992782D01*
X165570259Y-106031952D01*
X165673565Y-106052974D01*
X165728774Y-106055766D01*
X165820782Y-106048620D01*
X165881941Y-106020848D01*
X165896862Y-106007647D01*
X165937287Y-105935829D01*
X165946666Y-105870686D01*
X165946666Y-105783530D01*
X165825269Y-105783530D01*
X165684153Y-105790722D01*
X165585173Y-105813345D01*
X165522633Y-105852964D01*
X165508631Y-105870628D01*
X165484633Y-105938122D01*
X165239535Y-105938122D01*
X165243941Y-105860157D01*
X165288880Y-105746855D01*
X165350196Y-105670285D01*
X165387332Y-105637181D01*
X165423687Y-105615425D01*
X165470990Y-105602161D01*
X165540973Y-105594528D01*
X165645364Y-105589670D01*
X165686770Y-105588273D01*
X165946666Y-105579780D01*
X165946285Y-105501116D01*
X165936219Y-105418428D01*
X165899829Y-105368431D01*
X165826311Y-105336489D01*
X165824339Y-105335920D01*
X165720105Y-105323361D01*
X165618108Y-105339766D01*
X165542305Y-105379657D01*
X165511890Y-105399354D01*
X165479132Y-105396629D01*
X165428721Y-105368091D01*
X165399119Y-105347950D01*
X165341218Y-105304919D01*
X165305352Y-105272662D01*
X165299597Y-105263427D01*
X165323295Y-105215636D01*
X165393313Y-105158562D01*
X165423725Y-105139305D01*
X165511155Y-105106140D01*
X165628983Y-105087350D01*
X165759866Y-105083129D01*
X165886459Y-105093669D01*
X165886459Y-105093669D01*
G37*
X165886459Y-105093669D02*
X165991420Y-105119163D01*
X166021761Y-105132669D01*
X166080573Y-105168046D01*
X166125709Y-105207890D01*
X166159106Y-105259120D01*
X166182701Y-105328654D01*
X166198433Y-105423409D01*
X166208239Y-105550305D01*
X166214057Y-105716258D01*
X166216266Y-105827108D01*
X166224396Y-106306471D01*
X166085531Y-106306471D01*
X166001287Y-106302938D01*
X165957884Y-106290866D01*
X165946666Y-106270594D01*
X165940744Y-106248674D01*
X165914266Y-106252865D01*
X165878186Y-106270441D01*
X165787862Y-106297382D01*
X165671777Y-106304642D01*
X165549680Y-106292767D01*
X165441321Y-106262305D01*
X165431602Y-106258077D01*
X165332568Y-106188505D01*
X165267281Y-106091789D01*
X165237240Y-105978738D01*
X165239535Y-105938122D01*
X165484633Y-105938122D01*
X165506229Y-105992782D01*
X165570259Y-106031952D01*
X165673565Y-106052974D01*
X165728774Y-106055766D01*
X165820782Y-106048620D01*
X165881941Y-106020848D01*
X165896862Y-106007647D01*
X165937287Y-105935829D01*
X165946666Y-105870686D01*
X165946666Y-105783530D01*
X165825269Y-105783530D01*
X165684153Y-105790722D01*
X165585173Y-105813345D01*
X165522633Y-105852964D01*
X165508631Y-105870628D01*
X165484633Y-105938122D01*
X165239535Y-105938122D01*
X165243941Y-105860157D01*
X165288880Y-105746855D01*
X165350196Y-105670285D01*
X165387332Y-105637181D01*
X165423687Y-105615425D01*
X165470990Y-105602161D01*
X165540973Y-105594528D01*
X165645364Y-105589670D01*
X165686770Y-105588273D01*
X165946666Y-105579780D01*
X165946285Y-105501116D01*
X165936219Y-105418428D01*
X165899829Y-105368431D01*
X165826311Y-105336489D01*
X165824339Y-105335920D01*
X165720105Y-105323361D01*
X165618108Y-105339766D01*
X165542305Y-105379657D01*
X165511890Y-105399354D01*
X165479132Y-105396629D01*
X165428721Y-105368091D01*
X165399119Y-105347950D01*
X165341218Y-105304919D01*
X165305352Y-105272662D01*
X165299597Y-105263427D01*
X165323295Y-105215636D01*
X165393313Y-105158562D01*
X165423725Y-105139305D01*
X165511155Y-105106140D01*
X165628983Y-105087350D01*
X165759866Y-105083129D01*
X165886459Y-105093669D01*
G36*
X167068446Y-105085883D02*
X167164177Y-105104755D01*
X167218677Y-105132699D01*
X167276008Y-105179123D01*
X167194441Y-105282111D01*
X167144150Y-105344479D01*
X167110001Y-105374907D01*
X167076063Y-105379555D01*
X167026406Y-105364586D01*
X167003096Y-105356117D01*
X166908063Y-105343622D01*
X166821032Y-105370406D01*
X166757138Y-105430915D01*
X166746759Y-105450208D01*
X166735456Y-105501314D01*
X166726732Y-105595500D01*
X166720997Y-105726089D01*
X166718660Y-105886405D01*
X166718627Y-105909211D01*
X166718627Y-106306471D01*
X166444705Y-106306471D01*
X166444705Y-105086275D01*
X166581666Y-105086275D01*
X166660638Y-105088337D01*
X166701779Y-105097513D01*
X166716992Y-105118290D01*
X166718627Y-105137886D01*
X166718627Y-105189497D01*
X166784240Y-105137886D01*
X166859475Y-105102675D01*
X166960544Y-105085265D01*
X167068446Y-105085883D01*
X167068446Y-105085883D01*
G37*
X167068446Y-105085883D02*
X167164177Y-105104755D01*
X167218677Y-105132699D01*
X167276008Y-105179123D01*
X167194441Y-105282111D01*
X167144150Y-105344479D01*
X167110001Y-105374907D01*
X167076063Y-105379555D01*
X167026406Y-105364586D01*
X167003096Y-105356117D01*
X166908063Y-105343622D01*
X166821032Y-105370406D01*
X166757138Y-105430915D01*
X166746759Y-105450208D01*
X166735456Y-105501314D01*
X166726732Y-105595500D01*
X166720997Y-105726089D01*
X166718660Y-105886405D01*
X166718627Y-105909211D01*
X166718627Y-106306471D01*
X166444705Y-106306471D01*
X166444705Y-105086275D01*
X166581666Y-105086275D01*
X166660638Y-105088337D01*
X166701779Y-105097513D01*
X166716992Y-105118290D01*
X166718627Y-105137886D01*
X166718627Y-105189497D01*
X166784240Y-105137886D01*
X166859475Y-105102675D01*
X166960544Y-105085265D01*
X167068446Y-105085883D01*
G36*
X167855307Y-105092784D02*
X167974337Y-105123731D01*
X168074021Y-105187600D01*
X168122288Y-105235313D01*
X168201408Y-105348106D01*
X168246752Y-105478950D01*
X168262330Y-105639792D01*
X168262410Y-105652794D01*
X168262549Y-105783530D01*
X167510091Y-105783530D01*
X167526130Y-105852010D01*
X167555091Y-105914031D01*
X167605778Y-105978654D01*
X167616379Y-105988971D01*
X167707494Y-106044805D01*
X167811400Y-106054275D01*
X167931000Y-106017540D01*
X167951274Y-106007647D01*
X168013456Y-105977574D01*
X168055106Y-105960440D01*
X168062373Y-105958855D01*
X168087740Y-105974242D01*
X168136120Y-106011887D01*
X168160679Y-106032459D01*
X168211570Y-106079714D01*
X168228281Y-106110917D01*
X168216683Y-106139620D01*
X168210483Y-106147468D01*
X168168493Y-106181819D01*
X168099206Y-106223565D01*
X168050882Y-106247935D01*
X167913711Y-106290873D01*
X167761847Y-106304786D01*
X167618024Y-106288300D01*
X167577745Y-106276496D01*
X167453078Y-106209689D01*
X167360671Y-106106892D01*
X167299990Y-105967105D01*
X167270498Y-105789330D01*
X167267260Y-105696373D01*
X167276714Y-105561033D01*
X167515490Y-105561033D01*
X167538584Y-105571038D01*
X167600662Y-105578888D01*
X167690914Y-105583521D01*
X167752058Y-105584314D01*
X167862040Y-105583549D01*
X167931457Y-105579970D01*
X167969538Y-105571649D01*
X167985515Y-105556657D01*
X167988627Y-105534903D01*
X167967278Y-105467892D01*
X167913529Y-105401664D01*
X167842822Y-105350832D01*
X167772089Y-105330038D01*
X167676016Y-105348484D01*
X167592849Y-105401811D01*
X167535186Y-105478677D01*
X167515490Y-105561033D01*
X167276714Y-105561033D01*
X167281028Y-105499291D01*
X167323520Y-105342271D01*
X167395635Y-105224069D01*
X167498273Y-105143440D01*
X167632332Y-105099139D01*
X167704957Y-105090607D01*
X167855307Y-105092784D01*
X167855307Y-105092784D01*
G37*
X167855307Y-105092784D02*
X167974337Y-105123731D01*
X168074021Y-105187600D01*
X168122288Y-105235313D01*
X168201408Y-105348106D01*
X168246752Y-105478950D01*
X168262330Y-105639792D01*
X168262410Y-105652794D01*
X168262549Y-105783530D01*
X167510091Y-105783530D01*
X167526130Y-105852010D01*
X167555091Y-105914031D01*
X167605778Y-105978654D01*
X167616379Y-105988971D01*
X167707494Y-106044805D01*
X167811400Y-106054275D01*
X167931000Y-106017540D01*
X167951274Y-106007647D01*
X168013456Y-105977574D01*
X168055106Y-105960440D01*
X168062373Y-105958855D01*
X168087740Y-105974242D01*
X168136120Y-106011887D01*
X168160679Y-106032459D01*
X168211570Y-106079714D01*
X168228281Y-106110917D01*
X168216683Y-106139620D01*
X168210483Y-106147468D01*
X168168493Y-106181819D01*
X168099206Y-106223565D01*
X168050882Y-106247935D01*
X167913711Y-106290873D01*
X167761847Y-106304786D01*
X167618024Y-106288300D01*
X167577745Y-106276496D01*
X167453078Y-106209689D01*
X167360671Y-106106892D01*
X167299990Y-105967105D01*
X167270498Y-105789330D01*
X167267260Y-105696373D01*
X167276714Y-105561033D01*
X167515490Y-105561033D01*
X167538584Y-105571038D01*
X167600662Y-105578888D01*
X167690914Y-105583521D01*
X167752058Y-105584314D01*
X167862040Y-105583549D01*
X167931457Y-105579970D01*
X167969538Y-105571649D01*
X167985515Y-105556657D01*
X167988627Y-105534903D01*
X167967278Y-105467892D01*
X167913529Y-105401664D01*
X167842822Y-105350832D01*
X167772089Y-105330038D01*
X167676016Y-105348484D01*
X167592849Y-105401811D01*
X167535186Y-105478677D01*
X167515490Y-105561033D01*
X167276714Y-105561033D01*
X167281028Y-105499291D01*
X167323520Y-105342271D01*
X167395635Y-105224069D01*
X167498273Y-105143440D01*
X167632332Y-105099139D01*
X167704957Y-105090607D01*
X167855307Y-105092784D01*
G36*
X158803247Y-103231568D02*
X158933522Y-103289163D01*
X159032419Y-103385334D01*
X159100082Y-103520229D01*
X159136655Y-103693996D01*
X159139276Y-103721126D01*
X159141330Y-103912408D01*
X159114699Y-104080073D01*
X159061001Y-104215967D01*
X159032247Y-104259681D01*
X158932091Y-104352198D01*
X158804537Y-104412119D01*
X158661837Y-104436985D01*
X158516240Y-104424339D01*
X158405562Y-104385391D01*
X158310384Y-104319755D01*
X158232594Y-104233699D01*
X158231249Y-104231685D01*
X158199657Y-104178570D01*
X158179127Y-104125160D01*
X158166695Y-104057754D01*
X158159397Y-103962653D01*
X158156182Y-103884666D01*
X158154844Y-103813944D01*
X158403814Y-103813944D01*
X158406247Y-103884348D01*
X158415080Y-103978068D01*
X158430664Y-104038214D01*
X158458766Y-104081006D01*
X158485086Y-104106002D01*
X158578392Y-104158338D01*
X158676020Y-104165333D01*
X158766942Y-104127676D01*
X158812402Y-104085479D01*
X158845162Y-104042956D01*
X158864323Y-104002267D01*
X158872733Y-103949314D01*
X158873237Y-103869997D01*
X158870645Y-103796950D01*
X158865071Y-103692601D01*
X158856234Y-103624920D01*
X158840307Y-103580774D01*
X158813462Y-103547031D01*
X158792189Y-103527746D01*
X158703206Y-103477086D01*
X158607211Y-103474560D01*
X158526719Y-103504567D01*
X158458053Y-103567231D01*
X158417144Y-103670168D01*
X158403814Y-103813944D01*
X158154844Y-103813944D01*
X158153246Y-103729582D01*
X158158260Y-103613600D01*
X158173283Y-103526367D01*
X158200376Y-103457530D01*
X158241600Y-103396737D01*
X158256885Y-103378686D01*
X158352454Y-103288746D01*
X158454961Y-103236211D01*
X158580321Y-103214201D01*
X158641450Y-103212402D01*
X158803247Y-103231568D01*
X158803247Y-103231568D01*
G37*
X158803247Y-103231568D02*
X158933522Y-103289163D01*
X159032419Y-103385334D01*
X159100082Y-103520229D01*
X159136655Y-103693996D01*
X159139276Y-103721126D01*
X159141330Y-103912408D01*
X159114699Y-104080073D01*
X159061001Y-104215967D01*
X159032247Y-104259681D01*
X158932091Y-104352198D01*
X158804537Y-104412119D01*
X158661837Y-104436985D01*
X158516240Y-104424339D01*
X158405562Y-104385391D01*
X158310384Y-104319755D01*
X158232594Y-104233699D01*
X158231249Y-104231685D01*
X158199657Y-104178570D01*
X158179127Y-104125160D01*
X158166695Y-104057754D01*
X158159397Y-103962653D01*
X158156182Y-103884666D01*
X158154844Y-103813944D01*
X158403814Y-103813944D01*
X158406247Y-103884348D01*
X158415080Y-103978068D01*
X158430664Y-104038214D01*
X158458766Y-104081006D01*
X158485086Y-104106002D01*
X158578392Y-104158338D01*
X158676020Y-104165333D01*
X158766942Y-104127676D01*
X158812402Y-104085479D01*
X158845162Y-104042956D01*
X158864323Y-104002267D01*
X158872733Y-103949314D01*
X158873237Y-103869997D01*
X158870645Y-103796950D01*
X158865071Y-103692601D01*
X158856234Y-103624920D01*
X158840307Y-103580774D01*
X158813462Y-103547031D01*
X158792189Y-103527746D01*
X158703206Y-103477086D01*
X158607211Y-103474560D01*
X158526719Y-103504567D01*
X158458053Y-103567231D01*
X158417144Y-103670168D01*
X158403814Y-103813944D01*
X158154844Y-103813944D01*
X158153246Y-103729582D01*
X158158260Y-103613600D01*
X158173283Y-103526367D01*
X158200376Y-103457530D01*
X158241600Y-103396737D01*
X158256885Y-103378686D01*
X158352454Y-103288746D01*
X158454961Y-103236211D01*
X158580321Y-103214201D01*
X158641450Y-103212402D01*
X158803247Y-103231568D01*
G36*
X161143204Y-103246354D02*
X161168019Y-103258037D01*
X161253906Y-103320951D01*
X161335121Y-103412769D01*
X161395764Y-103513868D01*
X161413012Y-103560349D01*
X161428749Y-103643376D01*
X161438133Y-103743713D01*
X161439272Y-103785147D01*
X161439411Y-103915882D01*
X160686953Y-103915882D01*
X160702993Y-103984363D01*
X160742363Y-104065355D01*
X160811194Y-104135351D01*
X160893081Y-104180441D01*
X160945263Y-104189804D01*
X161016029Y-104178441D01*
X161100460Y-104149943D01*
X161129142Y-104136831D01*
X161235209Y-104083858D01*
X161325728Y-104152901D01*
X161377961Y-104199597D01*
X161405753Y-104238140D01*
X161407160Y-104249452D01*
X161382332Y-104276868D01*
X161327917Y-104318532D01*
X161278528Y-104351037D01*
X161145252Y-104409468D01*
X160995839Y-104435915D01*
X160847751Y-104429039D01*
X160729705Y-104393096D01*
X160608018Y-104316101D01*
X160521540Y-104214728D01*
X160467441Y-104083570D01*
X160442891Y-103917224D01*
X160440714Y-103841108D01*
X160449427Y-103666685D01*
X160450497Y-103661611D01*
X160699827Y-103661611D01*
X160706694Y-103677968D01*
X160734917Y-103686988D01*
X160793127Y-103690854D01*
X160889958Y-103691749D01*
X160927243Y-103691765D01*
X161040683Y-103690413D01*
X161112622Y-103685505D01*
X161151313Y-103675760D01*
X161165005Y-103659899D01*
X161165490Y-103654805D01*
X161149863Y-103614326D01*
X161110753Y-103557621D01*
X161093939Y-103537766D01*
X161031519Y-103481611D01*
X160966453Y-103459532D01*
X160931397Y-103457686D01*
X160836558Y-103480766D01*
X160757027Y-103542759D01*
X160706577Y-103632802D01*
X160705683Y-103635735D01*
X160699827Y-103661611D01*
X160450497Y-103661611D01*
X160478399Y-103529343D01*
X160530590Y-103419461D01*
X160594421Y-103341461D01*
X160712433Y-103256882D01*
X160851158Y-103211686D01*
X160998710Y-103207600D01*
X161143204Y-103246354D01*
X161143204Y-103246354D01*
G37*
X161143204Y-103246354D02*
X161168019Y-103258037D01*
X161253906Y-103320951D01*
X161335121Y-103412769D01*
X161395764Y-103513868D01*
X161413012Y-103560349D01*
X161428749Y-103643376D01*
X161438133Y-103743713D01*
X161439272Y-103785147D01*
X161439411Y-103915882D01*
X160686953Y-103915882D01*
X160702993Y-103984363D01*
X160742363Y-104065355D01*
X160811194Y-104135351D01*
X160893081Y-104180441D01*
X160945263Y-104189804D01*
X161016029Y-104178441D01*
X161100460Y-104149943D01*
X161129142Y-104136831D01*
X161235209Y-104083858D01*
X161325728Y-104152901D01*
X161377961Y-104199597D01*
X161405753Y-104238140D01*
X161407160Y-104249452D01*
X161382332Y-104276868D01*
X161327917Y-104318532D01*
X161278528Y-104351037D01*
X161145252Y-104409468D01*
X160995839Y-104435915D01*
X160847751Y-104429039D01*
X160729705Y-104393096D01*
X160608018Y-104316101D01*
X160521540Y-104214728D01*
X160467441Y-104083570D01*
X160442891Y-103917224D01*
X160440714Y-103841108D01*
X160449427Y-103666685D01*
X160450497Y-103661611D01*
X160699827Y-103661611D01*
X160706694Y-103677968D01*
X160734917Y-103686988D01*
X160793127Y-103690854D01*
X160889958Y-103691749D01*
X160927243Y-103691765D01*
X161040683Y-103690413D01*
X161112622Y-103685505D01*
X161151313Y-103675760D01*
X161165005Y-103659899D01*
X161165490Y-103654805D01*
X161149863Y-103614326D01*
X161110753Y-103557621D01*
X161093939Y-103537766D01*
X161031519Y-103481611D01*
X160966453Y-103459532D01*
X160931397Y-103457686D01*
X160836558Y-103480766D01*
X160757027Y-103542759D01*
X160706577Y-103632802D01*
X160705683Y-103635735D01*
X160699827Y-103661611D01*
X160450497Y-103661611D01*
X160478399Y-103529343D01*
X160530590Y-103419461D01*
X160594421Y-103341461D01*
X160712433Y-103256882D01*
X160851158Y-103211686D01*
X160998710Y-103207600D01*
X161143204Y-103246354D01*
G36*
X163857759Y-103214345D02*
X163952059Y-103232229D01*
X164049890Y-103269633D01*
X164060343Y-103274402D01*
X164134531Y-103313412D01*
X164185910Y-103349664D01*
X164202517Y-103372887D01*
X164186702Y-103410761D01*
X164148288Y-103466644D01*
X164131237Y-103487505D01*
X164060969Y-103569618D01*
X163970379Y-103516168D01*
X163884164Y-103480561D01*
X163784549Y-103461529D01*
X163689019Y-103460326D01*
X163615061Y-103478210D01*
X163597312Y-103489373D01*
X163563512Y-103540553D01*
X163559404Y-103599509D01*
X163584696Y-103645567D01*
X163599656Y-103654499D01*
X163644486Y-103665592D01*
X163723286Y-103678630D01*
X163820426Y-103691088D01*
X163838346Y-103693042D01*
X163994365Y-103720030D01*
X164107523Y-103765873D01*
X164182569Y-103834803D01*
X164224253Y-103931054D01*
X164237238Y-104048617D01*
X164219299Y-104182254D01*
X164161050Y-104287195D01*
X164062255Y-104363630D01*
X163922682Y-104411748D01*
X163767745Y-104430732D01*
X163641398Y-104430504D01*
X163538913Y-104413262D01*
X163468921Y-104389457D01*
X163380483Y-104347978D01*
X163298754Y-104299842D01*
X163269705Y-104278655D01*
X163195000Y-104217676D01*
X163285098Y-104126508D01*
X163375196Y-104035339D01*
X163477632Y-104103128D01*
X163580374Y-104154042D01*
X163690087Y-104180673D01*
X163795551Y-104183483D01*
X163885546Y-104162935D01*
X163948854Y-104119493D01*
X163969296Y-104082838D01*
X163966229Y-104024053D01*
X163915434Y-103979099D01*
X163817048Y-103948057D01*
X163709256Y-103933710D01*
X163543365Y-103906337D01*
X163420124Y-103854693D01*
X163337886Y-103777266D01*
X163295001Y-103672544D01*
X163289060Y-103548387D01*
X163318406Y-103418702D01*
X163385309Y-103320677D01*
X163490371Y-103253866D01*
X163634190Y-103217820D01*
X163740738Y-103210754D01*
X163857759Y-103214345D01*
X163857759Y-103214345D01*
G37*
X163857759Y-103214345D02*
X163952059Y-103232229D01*
X164049890Y-103269633D01*
X164060343Y-103274402D01*
X164134531Y-103313412D01*
X164185910Y-103349664D01*
X164202517Y-103372887D01*
X164186702Y-103410761D01*
X164148288Y-103466644D01*
X164131237Y-103487505D01*
X164060969Y-103569618D01*
X163970379Y-103516168D01*
X163884164Y-103480561D01*
X163784549Y-103461529D01*
X163689019Y-103460326D01*
X163615061Y-103478210D01*
X163597312Y-103489373D01*
X163563512Y-103540553D01*
X163559404Y-103599509D01*
X163584696Y-103645567D01*
X163599656Y-103654499D01*
X163644486Y-103665592D01*
X163723286Y-103678630D01*
X163820426Y-103691088D01*
X163838346Y-103693042D01*
X163994365Y-103720030D01*
X164107523Y-103765873D01*
X164182569Y-103834803D01*
X164224253Y-103931054D01*
X164237238Y-104048617D01*
X164219299Y-104182254D01*
X164161050Y-104287195D01*
X164062255Y-104363630D01*
X163922682Y-104411748D01*
X163767745Y-104430732D01*
X163641398Y-104430504D01*
X163538913Y-104413262D01*
X163468921Y-104389457D01*
X163380483Y-104347978D01*
X163298754Y-104299842D01*
X163269705Y-104278655D01*
X163195000Y-104217676D01*
X163285098Y-104126508D01*
X163375196Y-104035339D01*
X163477632Y-104103128D01*
X163580374Y-104154042D01*
X163690087Y-104180673D01*
X163795551Y-104183483D01*
X163885546Y-104162935D01*
X163948854Y-104119493D01*
X163969296Y-104082838D01*
X163966229Y-104024053D01*
X163915434Y-103979099D01*
X163817048Y-103948057D01*
X163709256Y-103933710D01*
X163543365Y-103906337D01*
X163420124Y-103854693D01*
X163337886Y-103777266D01*
X163295001Y-103672544D01*
X163289060Y-103548387D01*
X163318406Y-103418702D01*
X163385309Y-103320677D01*
X163490371Y-103253866D01*
X163634190Y-103217820D01*
X163740738Y-103210754D01*
X163857759Y-103214345D01*
G36*
X165039547Y-103233364D02*
X165165502Y-103301959D01*
X165264047Y-103410245D01*
X165310478Y-103498315D01*
X165330412Y-103576101D01*
X165343328Y-103686993D01*
X165348863Y-103814738D01*
X165346654Y-103943084D01*
X165336337Y-104055779D01*
X165324286Y-104115969D01*
X165283634Y-104198311D01*
X165213230Y-104285770D01*
X165128382Y-104362251D01*
X165044397Y-104411655D01*
X165042349Y-104412439D01*
X164938134Y-104434027D01*
X164814627Y-104434562D01*
X164697261Y-104414908D01*
X164651942Y-104399155D01*
X164535220Y-104332966D01*
X164451624Y-104246246D01*
X164396701Y-104131438D01*
X164365995Y-103980982D01*
X164359047Y-103902173D01*
X164359933Y-103803145D01*
X164626862Y-103803145D01*
X164635854Y-103947645D01*
X164661736Y-104057760D01*
X164702868Y-104128116D01*
X164732172Y-104148235D01*
X164807251Y-104162265D01*
X164896494Y-104158111D01*
X164973650Y-104137922D01*
X164993883Y-104126815D01*
X165047265Y-104062123D01*
X165082500Y-103963119D01*
X165097498Y-103842632D01*
X165090172Y-103713494D01*
X165073799Y-103635775D01*
X165026790Y-103545771D01*
X164952582Y-103489509D01*
X164863209Y-103470057D01*
X164770707Y-103490481D01*
X164699653Y-103540437D01*
X164662312Y-103581655D01*
X164640518Y-103622281D01*
X164630130Y-103677264D01*
X164627006Y-103761549D01*
X164626862Y-103803145D01*
X164359933Y-103803145D01*
X164360930Y-103691874D01*
X164395180Y-103519423D01*
X164461802Y-103384814D01*
X164560799Y-103288040D01*
X164692175Y-103229094D01*
X164720385Y-103222259D01*
X164889926Y-103206213D01*
X165039547Y-103233364D01*
X165039547Y-103233364D01*
G37*
X165039547Y-103233364D02*
X165165502Y-103301959D01*
X165264047Y-103410245D01*
X165310478Y-103498315D01*
X165330412Y-103576101D01*
X165343328Y-103686993D01*
X165348863Y-103814738D01*
X165346654Y-103943084D01*
X165336337Y-104055779D01*
X165324286Y-104115969D01*
X165283634Y-104198311D01*
X165213230Y-104285770D01*
X165128382Y-104362251D01*
X165044397Y-104411655D01*
X165042349Y-104412439D01*
X164938134Y-104434027D01*
X164814627Y-104434562D01*
X164697261Y-104414908D01*
X164651942Y-104399155D01*
X164535220Y-104332966D01*
X164451624Y-104246246D01*
X164396701Y-104131438D01*
X164365995Y-103980982D01*
X164359047Y-103902173D01*
X164359933Y-103803145D01*
X164626862Y-103803145D01*
X164635854Y-103947645D01*
X164661736Y-104057760D01*
X164702868Y-104128116D01*
X164732172Y-104148235D01*
X164807251Y-104162265D01*
X164896494Y-104158111D01*
X164973650Y-104137922D01*
X164993883Y-104126815D01*
X165047265Y-104062123D01*
X165082500Y-103963119D01*
X165097498Y-103842632D01*
X165090172Y-103713494D01*
X165073799Y-103635775D01*
X165026790Y-103545771D01*
X164952582Y-103489509D01*
X164863209Y-103470057D01*
X164770707Y-103490481D01*
X164699653Y-103540437D01*
X164662312Y-103581655D01*
X164640518Y-103622281D01*
X164630130Y-103677264D01*
X164627006Y-103761549D01*
X164626862Y-103803145D01*
X164359933Y-103803145D01*
X164360930Y-103691874D01*
X164395180Y-103519423D01*
X164461802Y-103384814D01*
X164560799Y-103288040D01*
X164692175Y-103229094D01*
X164720385Y-103222259D01*
X164889926Y-103206213D01*
X165039547Y-103233364D01*
G36*
X165797254Y-103606245D02*
X165799608Y-103788879D01*
X165808207Y-103927600D01*
X165825360Y-104028147D01*
X165853374Y-104096254D01*
X165894557Y-104137659D01*
X165951217Y-104158097D01*
X166021372Y-104163318D01*
X166094848Y-104157468D01*
X166150657Y-104136093D01*
X166191109Y-104093458D01*
X166218509Y-104023825D01*
X166235167Y-103921460D01*
X166243389Y-103780624D01*
X166245490Y-103606245D01*
X166245490Y-103218628D01*
X166519411Y-103218628D01*
X166519411Y-104413922D01*
X166382451Y-104413922D01*
X166299884Y-104410576D01*
X166257368Y-104398826D01*
X166245490Y-104376520D01*
X166238336Y-104356654D01*
X166209865Y-104360857D01*
X166152476Y-104388971D01*
X166020945Y-104432342D01*
X165881438Y-104429270D01*
X165747765Y-104382174D01*
X165684108Y-104344971D01*
X165635553Y-104304691D01*
X165600081Y-104254291D01*
X165575674Y-104186729D01*
X165560313Y-104094965D01*
X165551982Y-103971955D01*
X165548662Y-103810659D01*
X165548235Y-103685928D01*
X165548235Y-103218628D01*
X165797254Y-103218628D01*
X165797254Y-103606245D01*
X165797254Y-103606245D01*
G37*
X165797254Y-103606245D02*
X165799608Y-103788879D01*
X165808207Y-103927600D01*
X165825360Y-104028147D01*
X165853374Y-104096254D01*
X165894557Y-104137659D01*
X165951217Y-104158097D01*
X166021372Y-104163318D01*
X166094848Y-104157468D01*
X166150657Y-104136093D01*
X166191109Y-104093458D01*
X166218509Y-104023825D01*
X166235167Y-103921460D01*
X166243389Y-103780624D01*
X166245490Y-103606245D01*
X166245490Y-103218628D01*
X166519411Y-103218628D01*
X166519411Y-104413922D01*
X166382451Y-104413922D01*
X166299884Y-104410576D01*
X166257368Y-104398826D01*
X166245490Y-104376520D01*
X166238336Y-104356654D01*
X166209865Y-104360857D01*
X166152476Y-104388971D01*
X166020945Y-104432342D01*
X165881438Y-104429270D01*
X165747765Y-104382174D01*
X165684108Y-104344971D01*
X165635553Y-104304691D01*
X165600081Y-104254291D01*
X165575674Y-104186729D01*
X165560313Y-104094965D01*
X165551982Y-103971955D01*
X165548662Y-103810659D01*
X165548235Y-103685928D01*
X165548235Y-103218628D01*
X165797254Y-103218628D01*
X165797254Y-103606245D01*
G36*
X168220976Y-103229056D02*
X168365256Y-103290348D01*
X168410699Y-103320185D01*
X168468779Y-103366036D01*
X168505238Y-103402089D01*
X168511568Y-103413832D01*
X168493693Y-103439889D01*
X168447950Y-103484105D01*
X168411328Y-103514965D01*
X168311088Y-103595520D01*
X168231935Y-103528918D01*
X168170769Y-103485921D01*
X168111129Y-103471079D01*
X168042872Y-103474704D01*
X167934482Y-103501652D01*
X167859872Y-103557587D01*
X167814530Y-103648014D01*
X167793947Y-103778435D01*
X167793942Y-103778517D01*
X167795722Y-103924290D01*
X167823387Y-104031245D01*
X167878571Y-104104064D01*
X167916192Y-104128723D01*
X168016105Y-104159431D01*
X168122822Y-104159449D01*
X168215669Y-104129655D01*
X168237647Y-104115098D01*
X168292765Y-104077914D01*
X168335859Y-104071820D01*
X168382335Y-104099496D01*
X168433716Y-104149205D01*
X168515046Y-104233116D01*
X168424749Y-104307546D01*
X168285236Y-104391549D01*
X168127912Y-104432947D01*
X167963503Y-104429950D01*
X167855531Y-104402500D01*
X167729331Y-104334620D01*
X167628401Y-104227831D01*
X167582548Y-104152451D01*
X167545410Y-104044297D01*
X167526827Y-103907318D01*
X167526684Y-103758864D01*
X167544865Y-103616281D01*
X167581255Y-103496918D01*
X167586987Y-103484680D01*
X167671865Y-103364655D01*
X167786782Y-103277267D01*
X167922659Y-103224329D01*
X168070417Y-103207654D01*
X168220976Y-103229056D01*
X168220976Y-103229056D01*
G37*
X168220976Y-103229056D02*
X168365256Y-103290348D01*
X168410699Y-103320185D01*
X168468779Y-103366036D01*
X168505238Y-103402089D01*
X168511568Y-103413832D01*
X168493693Y-103439889D01*
X168447950Y-103484105D01*
X168411328Y-103514965D01*
X168311088Y-103595520D01*
X168231935Y-103528918D01*
X168170769Y-103485921D01*
X168111129Y-103471079D01*
X168042872Y-103474704D01*
X167934482Y-103501652D01*
X167859872Y-103557587D01*
X167814530Y-103648014D01*
X167793947Y-103778435D01*
X167793942Y-103778517D01*
X167795722Y-103924290D01*
X167823387Y-104031245D01*
X167878571Y-104104064D01*
X167916192Y-104128723D01*
X168016105Y-104159431D01*
X168122822Y-104159449D01*
X168215669Y-104129655D01*
X168237647Y-104115098D01*
X168292765Y-104077914D01*
X168335859Y-104071820D01*
X168382335Y-104099496D01*
X168433716Y-104149205D01*
X168515046Y-104233116D01*
X168424749Y-104307546D01*
X168285236Y-104391549D01*
X168127912Y-104432947D01*
X167963503Y-104429950D01*
X167855531Y-104402500D01*
X167729331Y-104334620D01*
X167628401Y-104227831D01*
X167582548Y-104152451D01*
X167545410Y-104044297D01*
X167526827Y-103907318D01*
X167526684Y-103758864D01*
X167544865Y-103616281D01*
X167581255Y-103496918D01*
X167586987Y-103484680D01*
X167671865Y-103364655D01*
X167786782Y-103277267D01*
X167922659Y-103224329D01*
X168070417Y-103207654D01*
X168220976Y-103229056D01*
G36*
X169133287Y-103214355D02*
X169197051Y-103229845D01*
X169319300Y-103286569D01*
X169423834Y-103373202D01*
X169496180Y-103477074D01*
X169506119Y-103500396D01*
X169519754Y-103561484D01*
X169529298Y-103651853D01*
X169532549Y-103743190D01*
X169532549Y-103915882D01*
X169171470Y-103915882D01*
X169022546Y-103916445D01*
X168917632Y-103919864D01*
X168850937Y-103928731D01*
X168816666Y-103945641D01*
X168809028Y-103973189D01*
X168822229Y-104013968D01*
X168845877Y-104061683D01*
X168911843Y-104141314D01*
X169003512Y-104180987D01*
X169115555Y-104179695D01*
X169242472Y-104136514D01*
X169352158Y-104083224D01*
X169443173Y-104155191D01*
X169534188Y-104227157D01*
X169448563Y-104306269D01*
X169334250Y-104381017D01*
X169193666Y-104426084D01*
X169042449Y-104438696D01*
X168896236Y-104416079D01*
X168872647Y-104408405D01*
X168744141Y-104341296D01*
X168648551Y-104241247D01*
X168583861Y-104105271D01*
X168548057Y-103930380D01*
X168547640Y-103926632D01*
X168544434Y-103736032D01*
X168557393Y-103668035D01*
X168810392Y-103668035D01*
X168833627Y-103678491D01*
X168896710Y-103686500D01*
X168989706Y-103691073D01*
X169048638Y-103691765D01*
X169158537Y-103691332D01*
X169227252Y-103688578D01*
X169263405Y-103681321D01*
X169275615Y-103667376D01*
X169272504Y-103644562D01*
X169269894Y-103635735D01*
X169225344Y-103552800D01*
X169155279Y-103485960D01*
X169093446Y-103456589D01*
X169011301Y-103458362D01*
X168928062Y-103494990D01*
X168858238Y-103555634D01*
X168816337Y-103629456D01*
X168810392Y-103668035D01*
X168557393Y-103668035D01*
X168576385Y-103568395D01*
X168639773Y-103427711D01*
X168730878Y-103317974D01*
X168845978Y-103243174D01*
X168981355Y-103207304D01*
X169133287Y-103214355D01*
X169133287Y-103214355D01*
G37*
X169133287Y-103214355D02*
X169197051Y-103229845D01*
X169319300Y-103286569D01*
X169423834Y-103373202D01*
X169496180Y-103477074D01*
X169506119Y-103500396D01*
X169519754Y-103561484D01*
X169529298Y-103651853D01*
X169532549Y-103743190D01*
X169532549Y-103915882D01*
X169171470Y-103915882D01*
X169022546Y-103916445D01*
X168917632Y-103919864D01*
X168850937Y-103928731D01*
X168816666Y-103945641D01*
X168809028Y-103973189D01*
X168822229Y-104013968D01*
X168845877Y-104061683D01*
X168911843Y-104141314D01*
X169003512Y-104180987D01*
X169115555Y-104179695D01*
X169242472Y-104136514D01*
X169352158Y-104083224D01*
X169443173Y-104155191D01*
X169534188Y-104227157D01*
X169448563Y-104306269D01*
X169334250Y-104381017D01*
X169193666Y-104426084D01*
X169042449Y-104438696D01*
X168896236Y-104416079D01*
X168872647Y-104408405D01*
X168744141Y-104341296D01*
X168648551Y-104241247D01*
X168583861Y-104105271D01*
X168548057Y-103930380D01*
X168547640Y-103926632D01*
X168544434Y-103736032D01*
X168557393Y-103668035D01*
X168810392Y-103668035D01*
X168833627Y-103678491D01*
X168896710Y-103686500D01*
X168989706Y-103691073D01*
X169048638Y-103691765D01*
X169158537Y-103691332D01*
X169227252Y-103688578D01*
X169263405Y-103681321D01*
X169275615Y-103667376D01*
X169272504Y-103644562D01*
X169269894Y-103635735D01*
X169225344Y-103552800D01*
X169155279Y-103485960D01*
X169093446Y-103456589D01*
X169011301Y-103458362D01*
X168928062Y-103494990D01*
X168858238Y-103555634D01*
X168816337Y-103629456D01*
X168810392Y-103668035D01*
X168557393Y-103668035D01*
X168576385Y-103568395D01*
X168639773Y-103427711D01*
X168730878Y-103317974D01*
X168845978Y-103243174D01*
X168981355Y-103207304D01*
X169133287Y-103214355D01*
G36*
X162336760Y-103239199D02*
X162398736Y-103268802D01*
X162458759Y-103311561D01*
X162504486Y-103360775D01*
X162537793Y-103423544D01*
X162560555Y-103506971D01*
X162574647Y-103618159D01*
X162581942Y-103764209D01*
X162584318Y-103952223D01*
X162584355Y-103971912D01*
X162584902Y-104413922D01*
X162310980Y-104413922D01*
X162310980Y-104006435D01*
X162310785Y-103855471D01*
X162309436Y-103746056D01*
X162305788Y-103669933D01*
X162298696Y-103618848D01*
X162287013Y-103584545D01*
X162269594Y-103558768D01*
X162245329Y-103533298D01*
X162160435Y-103478571D01*
X162067761Y-103468416D01*
X161979473Y-103503017D01*
X161948770Y-103528770D01*
X161926229Y-103552982D01*
X161910046Y-103578912D01*
X161899168Y-103614708D01*
X161892542Y-103668519D01*
X161889115Y-103748493D01*
X161887834Y-103862779D01*
X161887647Y-104001907D01*
X161887647Y-104413922D01*
X161613725Y-104413922D01*
X161613725Y-103218628D01*
X161750686Y-103218628D01*
X161832916Y-103221879D01*
X161875340Y-103233426D01*
X161887641Y-103255952D01*
X161887647Y-103256620D01*
X161893354Y-103278681D01*
X161918527Y-103276177D01*
X161968578Y-103251937D01*
X162082094Y-103216271D01*
X162211945Y-103212305D01*
X162336760Y-103239199D01*
X162336760Y-103239199D01*
G37*
X162336760Y-103239199D02*
X162398736Y-103268802D01*
X162458759Y-103311561D01*
X162504486Y-103360775D01*
X162537793Y-103423544D01*
X162560555Y-103506971D01*
X162574647Y-103618159D01*
X162581942Y-103764209D01*
X162584318Y-103952223D01*
X162584355Y-103971912D01*
X162584902Y-104413922D01*
X162310980Y-104413922D01*
X162310980Y-104006435D01*
X162310785Y-103855471D01*
X162309436Y-103746056D01*
X162305788Y-103669933D01*
X162298696Y-103618848D01*
X162287013Y-103584545D01*
X162269594Y-103558768D01*
X162245329Y-103533298D01*
X162160435Y-103478571D01*
X162067761Y-103468416D01*
X161979473Y-103503017D01*
X161948770Y-103528770D01*
X161926229Y-103552982D01*
X161910046Y-103578912D01*
X161899168Y-103614708D01*
X161892542Y-103668519D01*
X161889115Y-103748493D01*
X161887834Y-103862779D01*
X161887647Y-104001907D01*
X161887647Y-104413922D01*
X161613725Y-104413922D01*
X161613725Y-103218628D01*
X161750686Y-103218628D01*
X161832916Y-103221879D01*
X161875340Y-103233426D01*
X161887641Y-103255952D01*
X161887647Y-103256620D01*
X161893354Y-103278681D01*
X161918527Y-103276177D01*
X161968578Y-103251937D01*
X162082094Y-103216271D01*
X162211945Y-103212305D01*
X162336760Y-103239199D01*
G36*
X167393637Y-103217472D02*
X167479290Y-103243641D01*
X167534437Y-103276707D01*
X167552401Y-103302855D01*
X167547457Y-103333852D01*
X167515372Y-103382547D01*
X167488243Y-103417035D01*
X167432317Y-103479383D01*
X167390299Y-103505615D01*
X167354480Y-103503903D01*
X167248224Y-103476863D01*
X167170189Y-103478091D01*
X167106820Y-103508735D01*
X167085546Y-103526670D01*
X167017451Y-103589779D01*
X167017451Y-104413922D01*
X166743529Y-104413922D01*
X166743529Y-103218628D01*
X166880490Y-103218628D01*
X166962719Y-103221879D01*
X167005144Y-103233426D01*
X167017445Y-103255952D01*
X167017451Y-103256620D01*
X167023260Y-103280215D01*
X167049531Y-103277138D01*
X167085931Y-103260115D01*
X167161111Y-103228439D01*
X167222158Y-103209381D01*
X167300708Y-103204496D01*
X167393637Y-103217472D01*
X167393637Y-103217472D01*
G37*
X167393637Y-103217472D02*
X167479290Y-103243641D01*
X167534437Y-103276707D01*
X167552401Y-103302855D01*
X167547457Y-103333852D01*
X167515372Y-103382547D01*
X167488243Y-103417035D01*
X167432317Y-103479383D01*
X167390299Y-103505615D01*
X167354480Y-103503903D01*
X167248224Y-103476863D01*
X167170189Y-103478091D01*
X167106820Y-103508735D01*
X167085546Y-103526670D01*
X167017451Y-103589779D01*
X167017451Y-104413922D01*
X166743529Y-104413922D01*
X166743529Y-103218628D01*
X166880490Y-103218628D01*
X166962719Y-103221879D01*
X167005144Y-103233426D01*
X167017445Y-103255952D01*
X167017451Y-103256620D01*
X167023260Y-103280215D01*
X167049531Y-103277138D01*
X167085931Y-103260115D01*
X167161111Y-103228439D01*
X167222158Y-103209381D01*
X167300708Y-103204496D01*
X167393637Y-103217472D01*
G36*
X164576535Y-94963172D02*
X164689117Y-95560363D01*
X165104531Y-95731610D01*
X165519944Y-95902857D01*
X166018302Y-95563978D01*
X166157868Y-95469622D01*
X166284028Y-95385375D01*
X166390895Y-95315083D01*
X166472582Y-95262592D01*
X166523201Y-95231749D01*
X166536986Y-95225098D01*
X166561820Y-95242203D01*
X166614888Y-95289489D01*
X166690240Y-95360917D01*
X166781929Y-95450445D01*
X166884007Y-95552034D01*
X166990526Y-95659643D01*
X167095536Y-95767232D01*
X167193091Y-95868760D01*
X167277242Y-95958186D01*
X167342040Y-96029471D01*
X167381538Y-96076573D01*
X167390980Y-96092337D01*
X167377391Y-96121398D01*
X167339293Y-96185066D01*
X167280694Y-96277112D01*
X167205597Y-96391309D01*
X167118009Y-96521429D01*
X167067254Y-96595646D01*
X166974745Y-96731167D01*
X166892540Y-96853461D01*
X166824630Y-96956440D01*
X166775000Y-97034018D01*
X166747640Y-97080106D01*
X166743529Y-97089792D01*
X166752849Y-97117319D01*
X166778254Y-97181473D01*
X166815911Y-97273235D01*
X166861986Y-97383584D01*
X166912646Y-97503500D01*
X166964059Y-97623964D01*
X167012389Y-97735954D01*
X167053806Y-97830452D01*
X167084474Y-97898437D01*
X167100562Y-97930888D01*
X167101511Y-97932165D01*
X167126772Y-97938362D01*
X167194046Y-97952185D01*
X167296360Y-97972277D01*
X167426741Y-97997279D01*
X167578216Y-98025831D01*
X167666594Y-98042296D01*
X167828452Y-98073114D01*
X167974649Y-98102439D01*
X168097787Y-98128666D01*
X168190469Y-98150191D01*
X168245301Y-98165410D01*
X168256323Y-98170238D01*
X168267119Y-98202919D01*
X168275829Y-98276730D01*
X168282460Y-98383037D01*
X168287018Y-98513212D01*
X168289509Y-98658621D01*
X168289938Y-98810635D01*
X168288311Y-98960622D01*
X168284635Y-99099951D01*
X168278915Y-99219990D01*
X168271158Y-99312110D01*
X168261368Y-99367677D01*
X168255496Y-99379245D01*
X168220399Y-99393110D01*
X168146028Y-99412933D01*
X168042223Y-99436384D01*
X167918819Y-99461136D01*
X167875741Y-99469143D01*
X167668047Y-99507186D01*
X167503984Y-99537824D01*
X167378130Y-99562274D01*
X167285065Y-99581754D01*
X167219367Y-99597481D01*
X167175617Y-99610673D01*
X167148392Y-99622549D01*
X167132272Y-99634325D01*
X167130017Y-99636653D01*
X167107503Y-99674145D01*
X167073158Y-99747110D01*
X167030411Y-99846612D01*
X166982692Y-99963718D01*
X166933430Y-100089493D01*
X166886055Y-100215002D01*
X166843995Y-100331310D01*
X166810680Y-100429484D01*
X166789541Y-100500588D01*
X166784005Y-100535687D01*
X166784466Y-100536917D01*
X166803223Y-100565606D01*
X166845776Y-100628730D01*
X166907653Y-100719718D01*
X166984382Y-100832000D01*
X167071491Y-100959005D01*
X167096299Y-100995098D01*
X167184753Y-101125948D01*
X167262588Y-101245336D01*
X167325566Y-101346407D01*
X167369445Y-101422304D01*
X167389985Y-101466172D01*
X167390980Y-101471562D01*
X167373722Y-101499889D01*
X167326036Y-101556006D01*
X167254050Y-101633882D01*
X167163897Y-101727485D01*
X167061705Y-101830786D01*
X166953606Y-101937751D01*
X166845728Y-102042351D01*
X166744204Y-102138554D01*
X166655162Y-102220329D01*
X166584733Y-102281645D01*
X166539047Y-102316471D01*
X166526409Y-102322157D01*
X166496991Y-102308765D01*
X166436761Y-102272644D01*
X166355530Y-102219881D01*
X166293030Y-102177412D01*
X166179785Y-102099485D01*
X166045674Y-102007729D01*
X165911155Y-101916120D01*
X165838833Y-101867091D01*
X165594038Y-101701515D01*
X165388551Y-101812620D01*
X165294936Y-101861293D01*
X165215330Y-101899126D01*
X165161467Y-101920703D01*
X165147757Y-101923706D01*
X165131270Y-101901538D01*
X165098745Y-101838894D01*
X165052609Y-101741554D01*
X164995290Y-101615294D01*
X164929216Y-101465895D01*
X164856815Y-101299133D01*
X164780516Y-101120787D01*
X164702746Y-100936636D01*
X164625934Y-100752457D01*
X164552506Y-100574030D01*
X164484892Y-100407132D01*
X164425520Y-100257542D01*
X164376816Y-100131038D01*
X164341210Y-100033399D01*
X164321130Y-99970402D01*
X164317900Y-99948766D01*
X164343496Y-99921169D01*
X164399539Y-99876370D01*
X164474311Y-99823679D01*
X164480587Y-99819510D01*
X164673845Y-99664814D01*
X164829674Y-99484336D01*
X164946724Y-99283847D01*
X165023645Y-99069119D01*
X165059086Y-98845922D01*
X165051697Y-98620026D01*
X165000127Y-98397204D01*
X164903026Y-98183224D01*
X164874458Y-98136409D01*
X164725868Y-97947363D01*
X164550327Y-97795557D01*
X164353910Y-97681779D01*
X164142693Y-97606820D01*
X163922753Y-97571467D01*
X163700163Y-97576512D01*
X163481001Y-97622744D01*
X163271342Y-97710951D01*
X163077261Y-97841924D01*
X163017226Y-97895082D01*
X162864435Y-98061484D01*
X162753097Y-98236657D01*
X162676723Y-98433011D01*
X162634187Y-98627462D01*
X162623686Y-98846087D01*
X162658701Y-99065797D01*
X162735673Y-99279165D01*
X162851047Y-99478767D01*
X163001266Y-99657174D01*
X163182773Y-99806962D01*
X163206627Y-99822751D01*
X163282201Y-99874457D01*
X163339651Y-99919257D01*
X163367117Y-99947862D01*
X163367517Y-99948766D01*
X163361620Y-99979709D01*
X163338245Y-100049936D01*
X163299821Y-100153670D01*
X163248777Y-100285135D01*
X163187542Y-100438552D01*
X163118544Y-100608146D01*
X163044214Y-100788138D01*
X162966978Y-100972753D01*
X162889268Y-101156213D01*
X162813511Y-101332741D01*
X162742137Y-101496559D01*
X162677574Y-101641892D01*
X162622252Y-101762962D01*
X162578600Y-101853992D01*
X162549046Y-101909205D01*
X162537144Y-101923706D01*
X162500777Y-101912414D01*
X162432730Y-101882130D01*
X162344737Y-101838265D01*
X162296351Y-101812620D01*
X162090863Y-101701515D01*
X161846068Y-101867091D01*
X161721106Y-101951915D01*
X161584295Y-102045261D01*
X161456089Y-102133153D01*
X161391871Y-102177412D01*
X161301551Y-102238063D01*
X161225071Y-102286126D01*
X161172407Y-102315515D01*
X161155302Y-102321727D01*
X161130405Y-102304968D01*
X161075305Y-102258181D01*
X160995343Y-102186225D01*
X160895861Y-102093957D01*
X160782200Y-101986235D01*
X160710315Y-101917071D01*
X160584551Y-101793502D01*
X160475863Y-101682979D01*
X160388645Y-101590230D01*
X160327289Y-101519982D01*
X160296191Y-101476965D01*
X160293208Y-101468235D01*
X160307053Y-101435029D01*
X160345312Y-101367887D01*
X160403742Y-101273608D01*
X160478097Y-101158990D01*
X160564135Y-101030828D01*
X160588603Y-100995098D01*
X160677755Y-100865234D01*
X160757738Y-100748314D01*
X160824080Y-100650907D01*
X160872311Y-100579584D01*
X160897957Y-100540915D01*
X160900435Y-100536917D01*
X160896729Y-100506100D01*
X160877061Y-100438344D01*
X160844860Y-100342584D01*
X160803555Y-100227754D01*
X160756575Y-100102789D01*
X160707349Y-99976624D01*
X160659308Y-99858193D01*
X160615881Y-99756430D01*
X160580496Y-99680271D01*
X160556584Y-99638649D01*
X160554884Y-99636653D01*
X160540262Y-99624758D01*
X160515565Y-99612995D01*
X160475372Y-99600146D01*
X160414263Y-99584994D01*
X160326817Y-99566321D01*
X160207612Y-99542910D01*
X160051227Y-99513542D01*
X159852243Y-99477000D01*
X159809160Y-99469143D01*
X159681471Y-99444472D01*
X159570153Y-99420338D01*
X159485045Y-99399069D01*
X159435983Y-99382993D01*
X159429405Y-99379245D01*
X159418564Y-99346018D01*
X159409753Y-99271766D01*
X159402976Y-99165121D01*
X159398240Y-99034712D01*
X159395550Y-98889172D01*
X159394913Y-98737131D01*
X159396334Y-98587221D01*
X159399820Y-98448073D01*
X159405376Y-98328317D01*
X159413008Y-98236586D01*
X159422722Y-98181511D01*
X159428578Y-98170238D01*
X159461180Y-98158868D01*
X159535418Y-98140369D01*
X159643896Y-98116347D01*
X159779217Y-98088407D01*
X159933985Y-98058153D01*
X160018308Y-98042296D01*
X160178296Y-98012389D01*
X160320967Y-97985295D01*
X160439348Y-97962376D01*
X160526465Y-97944988D01*
X160575345Y-97934492D01*
X160583390Y-97932165D01*
X160596987Y-97905931D01*
X160625729Y-97842740D01*
X160665785Y-97751622D01*
X160713324Y-97641602D01*
X160764515Y-97521710D01*
X160815526Y-97400972D01*
X160862526Y-97288416D01*
X160901684Y-97193071D01*
X160929169Y-97123962D01*
X160941149Y-97090119D01*
X160941372Y-97088640D01*
X160927791Y-97061942D01*
X160889715Y-97000505D01*
X160831147Y-96910434D01*
X160756088Y-96797835D01*
X160668540Y-96668815D01*
X160617647Y-96594706D01*
X160524909Y-96458822D01*
X160442541Y-96335454D01*
X160374561Y-96230842D01*
X160324988Y-96151228D01*
X160297842Y-96102852D01*
X160293921Y-96092007D01*
X160310775Y-96066765D01*
X160357368Y-96012869D01*
X160427749Y-95936358D01*
X160515965Y-95843268D01*
X160616065Y-95739640D01*
X160722098Y-95631509D01*
X160828111Y-95524915D01*
X160928152Y-95425895D01*
X161016270Y-95340487D01*
X161086513Y-95274730D01*
X161132928Y-95234661D01*
X161148456Y-95225098D01*
X161173739Y-95238545D01*
X161234211Y-95276320D01*
X161323992Y-95334580D01*
X161437203Y-95409479D01*
X161567964Y-95497170D01*
X161666600Y-95563978D01*
X162164957Y-95902857D01*
X162580371Y-95731610D01*
X162995784Y-95560363D01*
X163108366Y-94963172D01*
X163220949Y-94365980D01*
X164463952Y-94365980D01*
X164576535Y-94963172D01*
X164576535Y-94963172D01*
G37*
X164576535Y-94963172D02*
X164689117Y-95560363D01*
X165104531Y-95731610D01*
X165519944Y-95902857D01*
X166018302Y-95563978D01*
X166157868Y-95469622D01*
X166284028Y-95385375D01*
X166390895Y-95315083D01*
X166472582Y-95262592D01*
X166523201Y-95231749D01*
X166536986Y-95225098D01*
X166561820Y-95242203D01*
X166614888Y-95289489D01*
X166690240Y-95360917D01*
X166781929Y-95450445D01*
X166884007Y-95552034D01*
X166990526Y-95659643D01*
X167095536Y-95767232D01*
X167193091Y-95868760D01*
X167277242Y-95958186D01*
X167342040Y-96029471D01*
X167381538Y-96076573D01*
X167390980Y-96092337D01*
X167377391Y-96121398D01*
X167339293Y-96185066D01*
X167280694Y-96277112D01*
X167205597Y-96391309D01*
X167118009Y-96521429D01*
X167067254Y-96595646D01*
X166974745Y-96731167D01*
X166892540Y-96853461D01*
X166824630Y-96956440D01*
X166775000Y-97034018D01*
X166747640Y-97080106D01*
X166743529Y-97089792D01*
X166752849Y-97117319D01*
X166778254Y-97181473D01*
X166815911Y-97273235D01*
X166861986Y-97383584D01*
X166912646Y-97503500D01*
X166964059Y-97623964D01*
X167012389Y-97735954D01*
X167053806Y-97830452D01*
X167084474Y-97898437D01*
X167100562Y-97930888D01*
X167101511Y-97932165D01*
X167126772Y-97938362D01*
X167194046Y-97952185D01*
X167296360Y-97972277D01*
X167426741Y-97997279D01*
X167578216Y-98025831D01*
X167666594Y-98042296D01*
X167828452Y-98073114D01*
X167974649Y-98102439D01*
X168097787Y-98128666D01*
X168190469Y-98150191D01*
X168245301Y-98165410D01*
X168256323Y-98170238D01*
X168267119Y-98202919D01*
X168275829Y-98276730D01*
X168282460Y-98383037D01*
X168287018Y-98513212D01*
X168289509Y-98658621D01*
X168289938Y-98810635D01*
X168288311Y-98960622D01*
X168284635Y-99099951D01*
X168278915Y-99219990D01*
X168271158Y-99312110D01*
X168261368Y-99367677D01*
X168255496Y-99379245D01*
X168220399Y-99393110D01*
X168146028Y-99412933D01*
X168042223Y-99436384D01*
X167918819Y-99461136D01*
X167875741Y-99469143D01*
X167668047Y-99507186D01*
X167503984Y-99537824D01*
X167378130Y-99562274D01*
X167285065Y-99581754D01*
X167219367Y-99597481D01*
X167175617Y-99610673D01*
X167148392Y-99622549D01*
X167132272Y-99634325D01*
X167130017Y-99636653D01*
X167107503Y-99674145D01*
X167073158Y-99747110D01*
X167030411Y-99846612D01*
X166982692Y-99963718D01*
X166933430Y-100089493D01*
X166886055Y-100215002D01*
X166843995Y-100331310D01*
X166810680Y-100429484D01*
X166789541Y-100500588D01*
X166784005Y-100535687D01*
X166784466Y-100536917D01*
X166803223Y-100565606D01*
X166845776Y-100628730D01*
X166907653Y-100719718D01*
X166984382Y-100832000D01*
X167071491Y-100959005D01*
X167096299Y-100995098D01*
X167184753Y-101125948D01*
X167262588Y-101245336D01*
X167325566Y-101346407D01*
X167369445Y-101422304D01*
X167389985Y-101466172D01*
X167390980Y-101471562D01*
X167373722Y-101499889D01*
X167326036Y-101556006D01*
X167254050Y-101633882D01*
X167163897Y-101727485D01*
X167061705Y-101830786D01*
X166953606Y-101937751D01*
X166845728Y-102042351D01*
X166744204Y-102138554D01*
X166655162Y-102220329D01*
X166584733Y-102281645D01*
X166539047Y-102316471D01*
X166526409Y-102322157D01*
X166496991Y-102308765D01*
X166436761Y-102272644D01*
X166355530Y-102219881D01*
X166293030Y-102177412D01*
X166179785Y-102099485D01*
X166045674Y-102007729D01*
X165911155Y-101916120D01*
X165838833Y-101867091D01*
X165594038Y-101701515D01*
X165388551Y-101812620D01*
X165294936Y-101861293D01*
X165215330Y-101899126D01*
X165161467Y-101920703D01*
X165147757Y-101923706D01*
X165131270Y-101901538D01*
X165098745Y-101838894D01*
X165052609Y-101741554D01*
X164995290Y-101615294D01*
X164929216Y-101465895D01*
X164856815Y-101299133D01*
X164780516Y-101120787D01*
X164702746Y-100936636D01*
X164625934Y-100752457D01*
X164552506Y-100574030D01*
X164484892Y-100407132D01*
X164425520Y-100257542D01*
X164376816Y-100131038D01*
X164341210Y-100033399D01*
X164321130Y-99970402D01*
X164317900Y-99948766D01*
X164343496Y-99921169D01*
X164399539Y-99876370D01*
X164474311Y-99823679D01*
X164480587Y-99819510D01*
X164673845Y-99664814D01*
X164829674Y-99484336D01*
X164946724Y-99283847D01*
X165023645Y-99069119D01*
X165059086Y-98845922D01*
X165051697Y-98620026D01*
X165000127Y-98397204D01*
X164903026Y-98183224D01*
X164874458Y-98136409D01*
X164725868Y-97947363D01*
X164550327Y-97795557D01*
X164353910Y-97681779D01*
X164142693Y-97606820D01*
X163922753Y-97571467D01*
X163700163Y-97576512D01*
X163481001Y-97622744D01*
X163271342Y-97710951D01*
X163077261Y-97841924D01*
X163017226Y-97895082D01*
X162864435Y-98061484D01*
X162753097Y-98236657D01*
X162676723Y-98433011D01*
X162634187Y-98627462D01*
X162623686Y-98846087D01*
X162658701Y-99065797D01*
X162735673Y-99279165D01*
X162851047Y-99478767D01*
X163001266Y-99657174D01*
X163182773Y-99806962D01*
X163206627Y-99822751D01*
X163282201Y-99874457D01*
X163339651Y-99919257D01*
X163367117Y-99947862D01*
X163367517Y-99948766D01*
X163361620Y-99979709D01*
X163338245Y-100049936D01*
X163299821Y-100153670D01*
X163248777Y-100285135D01*
X163187542Y-100438552D01*
X163118544Y-100608146D01*
X163044214Y-100788138D01*
X162966978Y-100972753D01*
X162889268Y-101156213D01*
X162813511Y-101332741D01*
X162742137Y-101496559D01*
X162677574Y-101641892D01*
X162622252Y-101762962D01*
X162578600Y-101853992D01*
X162549046Y-101909205D01*
X162537144Y-101923706D01*
X162500777Y-101912414D01*
X162432730Y-101882130D01*
X162344737Y-101838265D01*
X162296351Y-101812620D01*
X162090863Y-101701515D01*
X161846068Y-101867091D01*
X161721106Y-101951915D01*
X161584295Y-102045261D01*
X161456089Y-102133153D01*
X161391871Y-102177412D01*
X161301551Y-102238063D01*
X161225071Y-102286126D01*
X161172407Y-102315515D01*
X161155302Y-102321727D01*
X161130405Y-102304968D01*
X161075305Y-102258181D01*
X160995343Y-102186225D01*
X160895861Y-102093957D01*
X160782200Y-101986235D01*
X160710315Y-101917071D01*
X160584551Y-101793502D01*
X160475863Y-101682979D01*
X160388645Y-101590230D01*
X160327289Y-101519982D01*
X160296191Y-101476965D01*
X160293208Y-101468235D01*
X160307053Y-101435029D01*
X160345312Y-101367887D01*
X160403742Y-101273608D01*
X160478097Y-101158990D01*
X160564135Y-101030828D01*
X160588603Y-100995098D01*
X160677755Y-100865234D01*
X160757738Y-100748314D01*
X160824080Y-100650907D01*
X160872311Y-100579584D01*
X160897957Y-100540915D01*
X160900435Y-100536917D01*
X160896729Y-100506100D01*
X160877061Y-100438344D01*
X160844860Y-100342584D01*
X160803555Y-100227754D01*
X160756575Y-100102789D01*
X160707349Y-99976624D01*
X160659308Y-99858193D01*
X160615881Y-99756430D01*
X160580496Y-99680271D01*
X160556584Y-99638649D01*
X160554884Y-99636653D01*
X160540262Y-99624758D01*
X160515565Y-99612995D01*
X160475372Y-99600146D01*
X160414263Y-99584994D01*
X160326817Y-99566321D01*
X160207612Y-99542910D01*
X160051227Y-99513542D01*
X159852243Y-99477000D01*
X159809160Y-99469143D01*
X159681471Y-99444472D01*
X159570153Y-99420338D01*
X159485045Y-99399069D01*
X159435983Y-99382993D01*
X159429405Y-99379245D01*
X159418564Y-99346018D01*
X159409753Y-99271766D01*
X159402976Y-99165121D01*
X159398240Y-99034712D01*
X159395550Y-98889172D01*
X159394913Y-98737131D01*
X159396334Y-98587221D01*
X159399820Y-98448073D01*
X159405376Y-98328317D01*
X159413008Y-98236586D01*
X159422722Y-98181511D01*
X159428578Y-98170238D01*
X159461180Y-98158868D01*
X159535418Y-98140369D01*
X159643896Y-98116347D01*
X159779217Y-98088407D01*
X159933985Y-98058153D01*
X160018308Y-98042296D01*
X160178296Y-98012389D01*
X160320967Y-97985295D01*
X160439348Y-97962376D01*
X160526465Y-97944988D01*
X160575345Y-97934492D01*
X160583390Y-97932165D01*
X160596987Y-97905931D01*
X160625729Y-97842740D01*
X160665785Y-97751622D01*
X160713324Y-97641602D01*
X160764515Y-97521710D01*
X160815526Y-97400972D01*
X160862526Y-97288416D01*
X160901684Y-97193071D01*
X160929169Y-97123962D01*
X160941149Y-97090119D01*
X160941372Y-97088640D01*
X160927791Y-97061942D01*
X160889715Y-97000505D01*
X160831147Y-96910434D01*
X160756088Y-96797835D01*
X160668540Y-96668815D01*
X160617647Y-96594706D01*
X160524909Y-96458822D01*
X160442541Y-96335454D01*
X160374561Y-96230842D01*
X160324988Y-96151228D01*
X160297842Y-96102852D01*
X160293921Y-96092007D01*
X160310775Y-96066765D01*
X160357368Y-96012869D01*
X160427749Y-95936358D01*
X160515965Y-95843268D01*
X160616065Y-95739640D01*
X160722098Y-95631509D01*
X160828111Y-95524915D01*
X160928152Y-95425895D01*
X161016270Y-95340487D01*
X161086513Y-95274730D01*
X161132928Y-95234661D01*
X161148456Y-95225098D01*
X161173739Y-95238545D01*
X161234211Y-95276320D01*
X161323992Y-95334580D01*
X161437203Y-95409479D01*
X161567964Y-95497170D01*
X161666600Y-95563978D01*
X162164957Y-95902857D01*
X162580371Y-95731610D01*
X162995784Y-95560363D01*
X163108366Y-94963172D01*
X163220949Y-94365980D01*
X164463952Y-94365980D01*
X164576535Y-94963172D01*
G04 #@! TO.C,U3*
D12*
X164338095Y-80732380D02*
X164338095Y-81541904D01*
X164385714Y-81637142D01*
X164433333Y-81684761D01*
X164528571Y-81732380D01*
X164719047Y-81732380D01*
X164814285Y-81684761D01*
X164861904Y-81637142D01*
X164909523Y-81541904D01*
X164909523Y-80732380D01*
X165290476Y-80732380D02*
X165909523Y-80732380D01*
X165576190Y-81113333D01*
X165719047Y-81113333D01*
X165814285Y-81160952D01*
X165861904Y-81208571D01*
X165909523Y-81303809D01*
X165909523Y-81541904D01*
X165861904Y-81637142D01*
X165814285Y-81684761D01*
X165719047Y-81732380D01*
X165433333Y-81732380D01*
X165338095Y-81684761D01*
X165290476Y-81637142D01*
G04 #@! TO.C,C1*
X135108333Y-85927142D02*
X135060714Y-85974761D01*
X134917857Y-86022380D01*
X134822619Y-86022380D01*
X134679761Y-85974761D01*
X134584523Y-85879523D01*
X134536904Y-85784285D01*
X134489285Y-85593809D01*
X134489285Y-85450952D01*
X134536904Y-85260476D01*
X134584523Y-85165238D01*
X134679761Y-85070000D01*
X134822619Y-85022380D01*
X134917857Y-85022380D01*
X135060714Y-85070000D01*
X135108333Y-85117619D01*
X136060714Y-86022380D02*
X135489285Y-86022380D01*
X135775000Y-86022380D02*
X135775000Y-85022380D01*
X135679761Y-85165238D01*
X135584523Y-85260476D01*
X135489285Y-85308095D01*
G04 #@! TO.C,C2*
X135108333Y-82117142D02*
X135060714Y-82164761D01*
X134917857Y-82212380D01*
X134822619Y-82212380D01*
X134679761Y-82164761D01*
X134584523Y-82069523D01*
X134536904Y-81974285D01*
X134489285Y-81783809D01*
X134489285Y-81640952D01*
X134536904Y-81450476D01*
X134584523Y-81355238D01*
X134679761Y-81260000D01*
X134822619Y-81212380D01*
X134917857Y-81212380D01*
X135060714Y-81260000D01*
X135108333Y-81307619D01*
X135489285Y-81307619D02*
X135536904Y-81260000D01*
X135632142Y-81212380D01*
X135870238Y-81212380D01*
X135965476Y-81260000D01*
X136013095Y-81307619D01*
X136060714Y-81402857D01*
X136060714Y-81498095D01*
X136013095Y-81640952D01*
X135441666Y-82212380D01*
X136060714Y-82212380D01*
G04 #@! TO.C,D1*
X142771904Y-82672380D02*
X142771904Y-81672380D01*
X143010000Y-81672380D01*
X143152857Y-81720000D01*
X143248095Y-81815238D01*
X143295714Y-81910476D01*
X143343333Y-82100952D01*
X143343333Y-82243809D01*
X143295714Y-82434285D01*
X143248095Y-82529523D01*
X143152857Y-82624761D01*
X143010000Y-82672380D01*
X142771904Y-82672380D01*
X144295714Y-82672380D02*
X143724285Y-82672380D01*
X144010000Y-82672380D02*
X144010000Y-81672380D01*
X143914761Y-81815238D01*
X143819523Y-81910476D01*
X143724285Y-81958095D01*
G04 #@! TO.C,J1*
X164766666Y-53332380D02*
X164766666Y-54046666D01*
X164719047Y-54189523D01*
X164623809Y-54284761D01*
X164480952Y-54332380D01*
X164385714Y-54332380D01*
X165766666Y-54332380D02*
X165195238Y-54332380D01*
X165480952Y-54332380D02*
X165480952Y-53332380D01*
X165385714Y-53475238D01*
X165290476Y-53570476D01*
X165195238Y-53618095D01*
G04 #@! TO.C,J2*
X154606666Y-53332380D02*
X154606666Y-54046666D01*
X154559047Y-54189523D01*
X154463809Y-54284761D01*
X154320952Y-54332380D01*
X154225714Y-54332380D01*
X155035238Y-53427619D02*
X155082857Y-53380000D01*
X155178095Y-53332380D01*
X155416190Y-53332380D01*
X155511428Y-53380000D01*
X155559047Y-53427619D01*
X155606666Y-53522857D01*
X155606666Y-53618095D01*
X155559047Y-53760952D01*
X154987619Y-54332380D01*
X155606666Y-54332380D01*
G04 #@! TO.C,J3*
X144446666Y-53332380D02*
X144446666Y-54046666D01*
X144399047Y-54189523D01*
X144303809Y-54284761D01*
X144160952Y-54332380D01*
X144065714Y-54332380D01*
X144827619Y-53332380D02*
X145446666Y-53332380D01*
X145113333Y-53713333D01*
X145256190Y-53713333D01*
X145351428Y-53760952D01*
X145399047Y-53808571D01*
X145446666Y-53903809D01*
X145446666Y-54141904D01*
X145399047Y-54237142D01*
X145351428Y-54284761D01*
X145256190Y-54332380D01*
X144970476Y-54332380D01*
X144875238Y-54284761D01*
X144827619Y-54237142D01*
G04 #@! TO.C,J4*
X148256666Y-28662380D02*
X148256666Y-29376666D01*
X148209047Y-29519523D01*
X148113809Y-29614761D01*
X147970952Y-29662380D01*
X147875714Y-29662380D01*
X149161428Y-28995714D02*
X149161428Y-29662380D01*
X148923333Y-28614761D02*
X148685238Y-29329047D01*
X149304285Y-29329047D01*
G04 #@! TO.C,J5*
X172617380Y-86693333D02*
X173331666Y-86693333D01*
X173474523Y-86740952D01*
X173569761Y-86836190D01*
X173617380Y-86979047D01*
X173617380Y-87074285D01*
X172617380Y-85740952D02*
X172617380Y-86217142D01*
X173093571Y-86264761D01*
X173045952Y-86217142D01*
X172998333Y-86121904D01*
X172998333Y-85883809D01*
X173045952Y-85788571D01*
X173093571Y-85740952D01*
X173188809Y-85693333D01*
X173426904Y-85693333D01*
X173522142Y-85740952D01*
X173569761Y-85788571D01*
X173617380Y-85883809D01*
X173617380Y-86121904D01*
X173569761Y-86217142D01*
X173522142Y-86264761D01*
G04 #@! TO.C,Q1*
X165004761Y-47537619D02*
X164909523Y-47490000D01*
X164814285Y-47394761D01*
X164671428Y-47251904D01*
X164576190Y-47204285D01*
X164480952Y-47204285D01*
X164528571Y-47442380D02*
X164433333Y-47394761D01*
X164338095Y-47299523D01*
X164290476Y-47109047D01*
X164290476Y-46775714D01*
X164338095Y-46585238D01*
X164433333Y-46490000D01*
X164528571Y-46442380D01*
X164719047Y-46442380D01*
X164814285Y-46490000D01*
X164909523Y-46585238D01*
X164957142Y-46775714D01*
X164957142Y-47109047D01*
X164909523Y-47299523D01*
X164814285Y-47394761D01*
X164719047Y-47442380D01*
X164528571Y-47442380D01*
X165909523Y-47442380D02*
X165338095Y-47442380D01*
X165623809Y-47442380D02*
X165623809Y-46442380D01*
X165528571Y-46585238D01*
X165433333Y-46680476D01*
X165338095Y-46728095D01*
G04 #@! TO.C,Q2*
X154844761Y-47537619D02*
X154749523Y-47490000D01*
X154654285Y-47394761D01*
X154511428Y-47251904D01*
X154416190Y-47204285D01*
X154320952Y-47204285D01*
X154368571Y-47442380D02*
X154273333Y-47394761D01*
X154178095Y-47299523D01*
X154130476Y-47109047D01*
X154130476Y-46775714D01*
X154178095Y-46585238D01*
X154273333Y-46490000D01*
X154368571Y-46442380D01*
X154559047Y-46442380D01*
X154654285Y-46490000D01*
X154749523Y-46585238D01*
X154797142Y-46775714D01*
X154797142Y-47109047D01*
X154749523Y-47299523D01*
X154654285Y-47394761D01*
X154559047Y-47442380D01*
X154368571Y-47442380D01*
X155178095Y-46537619D02*
X155225714Y-46490000D01*
X155320952Y-46442380D01*
X155559047Y-46442380D01*
X155654285Y-46490000D01*
X155701904Y-46537619D01*
X155749523Y-46632857D01*
X155749523Y-46728095D01*
X155701904Y-46870952D01*
X155130476Y-47442380D01*
X155749523Y-47442380D01*
G04 #@! TO.C,Q3*
X144684761Y-47537619D02*
X144589523Y-47490000D01*
X144494285Y-47394761D01*
X144351428Y-47251904D01*
X144256190Y-47204285D01*
X144160952Y-47204285D01*
X144208571Y-47442380D02*
X144113333Y-47394761D01*
X144018095Y-47299523D01*
X143970476Y-47109047D01*
X143970476Y-46775714D01*
X144018095Y-46585238D01*
X144113333Y-46490000D01*
X144208571Y-46442380D01*
X144399047Y-46442380D01*
X144494285Y-46490000D01*
X144589523Y-46585238D01*
X144637142Y-46775714D01*
X144637142Y-47109047D01*
X144589523Y-47299523D01*
X144494285Y-47394761D01*
X144399047Y-47442380D01*
X144208571Y-47442380D01*
X144970476Y-46442380D02*
X145589523Y-46442380D01*
X145256190Y-46823333D01*
X145399047Y-46823333D01*
X145494285Y-46870952D01*
X145541904Y-46918571D01*
X145589523Y-47013809D01*
X145589523Y-47251904D01*
X145541904Y-47347142D01*
X145494285Y-47394761D01*
X145399047Y-47442380D01*
X145113333Y-47442380D01*
X145018095Y-47394761D01*
X144970476Y-47347142D01*
G04 #@! TO.C,R1*
X167252380Y-51046666D02*
X166776190Y-51380000D01*
X167252380Y-51618095D02*
X166252380Y-51618095D01*
X166252380Y-51237142D01*
X166300000Y-51141904D01*
X166347619Y-51094285D01*
X166442857Y-51046666D01*
X166585714Y-51046666D01*
X166680952Y-51094285D01*
X166728571Y-51141904D01*
X166776190Y-51237142D01*
X166776190Y-51618095D01*
X167252380Y-50094285D02*
X167252380Y-50665714D01*
X167252380Y-50380000D02*
X166252380Y-50380000D01*
X166395238Y-50475238D01*
X166490476Y-50570476D01*
X166538095Y-50665714D01*
G04 #@! TO.C,R2*
X157092380Y-51046666D02*
X156616190Y-51380000D01*
X157092380Y-51618095D02*
X156092380Y-51618095D01*
X156092380Y-51237142D01*
X156140000Y-51141904D01*
X156187619Y-51094285D01*
X156282857Y-51046666D01*
X156425714Y-51046666D01*
X156520952Y-51094285D01*
X156568571Y-51141904D01*
X156616190Y-51237142D01*
X156616190Y-51618095D01*
X156187619Y-50665714D02*
X156140000Y-50618095D01*
X156092380Y-50522857D01*
X156092380Y-50284761D01*
X156140000Y-50189523D01*
X156187619Y-50141904D01*
X156282857Y-50094285D01*
X156378095Y-50094285D01*
X156520952Y-50141904D01*
X157092380Y-50713333D01*
X157092380Y-50094285D01*
G04 #@! TO.C,R3*
X146932380Y-51046666D02*
X146456190Y-51380000D01*
X146932380Y-51618095D02*
X145932380Y-51618095D01*
X145932380Y-51237142D01*
X145980000Y-51141904D01*
X146027619Y-51094285D01*
X146122857Y-51046666D01*
X146265714Y-51046666D01*
X146360952Y-51094285D01*
X146408571Y-51141904D01*
X146456190Y-51237142D01*
X146456190Y-51618095D01*
X145932380Y-50713333D02*
X145932380Y-50094285D01*
X146313333Y-50427619D01*
X146313333Y-50284761D01*
X146360952Y-50189523D01*
X146408571Y-50141904D01*
X146503809Y-50094285D01*
X146741904Y-50094285D01*
X146837142Y-50141904D01*
X146884761Y-50189523D01*
X146932380Y-50284761D01*
X146932380Y-50570476D01*
X146884761Y-50665714D01*
X146837142Y-50713333D01*
G04 #@! TO.C,R4*
X170013333Y-44902380D02*
X169680000Y-44426190D01*
X169441904Y-44902380D02*
X169441904Y-43902380D01*
X169822857Y-43902380D01*
X169918095Y-43950000D01*
X169965714Y-43997619D01*
X170013333Y-44092857D01*
X170013333Y-44235714D01*
X169965714Y-44330952D01*
X169918095Y-44378571D01*
X169822857Y-44426190D01*
X169441904Y-44426190D01*
X170870476Y-44235714D02*
X170870476Y-44902380D01*
X170632380Y-43854761D02*
X170394285Y-44569047D01*
X171013333Y-44569047D01*
G04 #@! TO.C,R5*
X159853333Y-44902380D02*
X159520000Y-44426190D01*
X159281904Y-44902380D02*
X159281904Y-43902380D01*
X159662857Y-43902380D01*
X159758095Y-43950000D01*
X159805714Y-43997619D01*
X159853333Y-44092857D01*
X159853333Y-44235714D01*
X159805714Y-44330952D01*
X159758095Y-44378571D01*
X159662857Y-44426190D01*
X159281904Y-44426190D01*
X160758095Y-43902380D02*
X160281904Y-43902380D01*
X160234285Y-44378571D01*
X160281904Y-44330952D01*
X160377142Y-44283333D01*
X160615238Y-44283333D01*
X160710476Y-44330952D01*
X160758095Y-44378571D01*
X160805714Y-44473809D01*
X160805714Y-44711904D01*
X160758095Y-44807142D01*
X160710476Y-44854761D01*
X160615238Y-44902380D01*
X160377142Y-44902380D01*
X160281904Y-44854761D01*
X160234285Y-44807142D01*
G04 #@! TO.C,R6*
X149693333Y-44902380D02*
X149360000Y-44426190D01*
X149121904Y-44902380D02*
X149121904Y-43902380D01*
X149502857Y-43902380D01*
X149598095Y-43950000D01*
X149645714Y-43997619D01*
X149693333Y-44092857D01*
X149693333Y-44235714D01*
X149645714Y-44330952D01*
X149598095Y-44378571D01*
X149502857Y-44426190D01*
X149121904Y-44426190D01*
X150550476Y-43902380D02*
X150360000Y-43902380D01*
X150264761Y-43950000D01*
X150217142Y-43997619D01*
X150121904Y-44140476D01*
X150074285Y-44330952D01*
X150074285Y-44711904D01*
X150121904Y-44807142D01*
X150169523Y-44854761D01*
X150264761Y-44902380D01*
X150455238Y-44902380D01*
X150550476Y-44854761D01*
X150598095Y-44807142D01*
X150645714Y-44711904D01*
X150645714Y-44473809D01*
X150598095Y-44378571D01*
X150550476Y-44330952D01*
X150455238Y-44283333D01*
X150264761Y-44283333D01*
X150169523Y-44330952D01*
X150121904Y-44378571D01*
X150074285Y-44473809D01*
G04 #@! TO.C,R7*
X146932380Y-63746666D02*
X146456190Y-64080000D01*
X146932380Y-64318095D02*
X145932380Y-64318095D01*
X145932380Y-63937142D01*
X145980000Y-63841904D01*
X146027619Y-63794285D01*
X146122857Y-63746666D01*
X146265714Y-63746666D01*
X146360952Y-63794285D01*
X146408571Y-63841904D01*
X146456190Y-63937142D01*
X146456190Y-64318095D01*
X145932380Y-63413333D02*
X145932380Y-62746666D01*
X146932380Y-63175238D01*
G04 #@! TO.C,R8*
X150742380Y-63746666D02*
X150266190Y-64080000D01*
X150742380Y-64318095D02*
X149742380Y-64318095D01*
X149742380Y-63937142D01*
X149790000Y-63841904D01*
X149837619Y-63794285D01*
X149932857Y-63746666D01*
X150075714Y-63746666D01*
X150170952Y-63794285D01*
X150218571Y-63841904D01*
X150266190Y-63937142D01*
X150266190Y-64318095D01*
X150170952Y-63175238D02*
X150123333Y-63270476D01*
X150075714Y-63318095D01*
X149980476Y-63365714D01*
X149932857Y-63365714D01*
X149837619Y-63318095D01*
X149790000Y-63270476D01*
X149742380Y-63175238D01*
X149742380Y-62984761D01*
X149790000Y-62889523D01*
X149837619Y-62841904D01*
X149932857Y-62794285D01*
X149980476Y-62794285D01*
X150075714Y-62841904D01*
X150123333Y-62889523D01*
X150170952Y-62984761D01*
X150170952Y-63175238D01*
X150218571Y-63270476D01*
X150266190Y-63318095D01*
X150361428Y-63365714D01*
X150551904Y-63365714D01*
X150647142Y-63318095D01*
X150694761Y-63270476D01*
X150742380Y-63175238D01*
X150742380Y-62984761D01*
X150694761Y-62889523D01*
X150647142Y-62841904D01*
X150551904Y-62794285D01*
X150361428Y-62794285D01*
X150266190Y-62841904D01*
X150218571Y-62889523D01*
X150170952Y-62984761D01*
G04 #@! TO.C,SW1*
X132172261Y-68008333D02*
X132219880Y-67865476D01*
X132219880Y-67627380D01*
X132172261Y-67532142D01*
X132124642Y-67484523D01*
X132029404Y-67436904D01*
X131934166Y-67436904D01*
X131838928Y-67484523D01*
X131791309Y-67532142D01*
X131743690Y-67627380D01*
X131696071Y-67817857D01*
X131648452Y-67913095D01*
X131600833Y-67960714D01*
X131505595Y-68008333D01*
X131410357Y-68008333D01*
X131315119Y-67960714D01*
X131267500Y-67913095D01*
X131219880Y-67817857D01*
X131219880Y-67579761D01*
X131267500Y-67436904D01*
X131219880Y-67103571D02*
X132219880Y-66865476D01*
X131505595Y-66675000D01*
X132219880Y-66484523D01*
X131219880Y-66246428D01*
X132219880Y-65341666D02*
X132219880Y-65913095D01*
X132219880Y-65627380D02*
X131219880Y-65627380D01*
X131362738Y-65722619D01*
X131457976Y-65817857D01*
X131505595Y-65913095D01*
G04 #@! TO.C,SW2*
X143489761Y-69253571D02*
X143537380Y-69110714D01*
X143537380Y-68872618D01*
X143489761Y-68777380D01*
X143442142Y-68729761D01*
X143346904Y-68682142D01*
X143251666Y-68682142D01*
X143156428Y-68729761D01*
X143108809Y-68777380D01*
X143061190Y-68872618D01*
X143013571Y-69063095D01*
X142965952Y-69158333D01*
X142918333Y-69205952D01*
X142823095Y-69253571D01*
X142727857Y-69253571D01*
X142632619Y-69205952D01*
X142585000Y-69158333D01*
X142537380Y-69063095D01*
X142537380Y-68824999D01*
X142585000Y-68682142D01*
X142537380Y-68348809D02*
X143537380Y-68110714D01*
X142823095Y-67920238D01*
X143537380Y-67729761D01*
X142537380Y-67491666D01*
X142632619Y-67158333D02*
X142585000Y-67110714D01*
X142537380Y-67015476D01*
X142537380Y-66777380D01*
X142585000Y-66682142D01*
X142632619Y-66634523D01*
X142727857Y-66586904D01*
X142823095Y-66586904D01*
X142965952Y-66634523D01*
X143537380Y-67205952D01*
X143537380Y-66586904D01*
G04 #@! TO.C,U1*
X135763095Y-72032380D02*
X135763095Y-72841904D01*
X135810714Y-72937142D01*
X135858333Y-72984761D01*
X135953571Y-73032380D01*
X136144047Y-73032380D01*
X136239285Y-72984761D01*
X136286904Y-72937142D01*
X136334523Y-72841904D01*
X136334523Y-72032380D01*
X137334523Y-73032380D02*
X136763095Y-73032380D01*
X137048809Y-73032380D02*
X137048809Y-72032380D01*
X136953571Y-72175238D01*
X136858333Y-72270476D01*
X136763095Y-72318095D01*
G04 #@! TO.C,J6*
X147442380Y-102763333D02*
X148156666Y-102763333D01*
X148299523Y-102810952D01*
X148394761Y-102906190D01*
X148442380Y-103049047D01*
X148442380Y-103144285D01*
X147442380Y-101858571D02*
X147442380Y-102049047D01*
X147490000Y-102144285D01*
X147537619Y-102191904D01*
X147680476Y-102287142D01*
X147870952Y-102334761D01*
X148251904Y-102334761D01*
X148347142Y-102287142D01*
X148394761Y-102239523D01*
X148442380Y-102144285D01*
X148442380Y-101953809D01*
X148394761Y-101858571D01*
X148347142Y-101810952D01*
X148251904Y-101763333D01*
X148013809Y-101763333D01*
X147918571Y-101810952D01*
X147870952Y-101858571D01*
X147823333Y-101953809D01*
X147823333Y-102144285D01*
X147870952Y-102239523D01*
X147918571Y-102287142D01*
X148013809Y-102334761D01*
G04 #@! TD*
M02*
